<svg width="90" height="54" viewBox="0 0 90 54" fill="none" xmlns="http://www.w3.org/2000/svg">
    <path d="M1.51843 17C1.51843 21.2679 1.51843 23.2529 1.51843 27.5646C1.51843 29.2907 1.25684 31.0931 1.25684 32.7382C1.25684 34.5269 1.23639 35.5577 3.21874 35.8627C6.56545 36.3776 10.0947 36.4541 13.4788 36.6474C18.4149 36.9295 23.5301 36.9236 28.4619 36.9236C31.3102 36.9236 34.1586 36.9236 37.007 36.9236C38.6478 36.9236 40.2573 37.1496 41.89 37.1851C42.2286 37.1925 42.7981 37.0778 43.1107 37.2433C43.7344 37.5734 43.7478 38.8265 43.91 39.3941C44.3067 40.7826 44.4186 42.026 44.4186 43.6086C44.4186 45.7129 44.9418 47.8262 44.9418 50.0029C44.9418 50.6666 45.1715 51.2918 45.2034 51.834C45.2722 53.0036 46.048 52.6204 46.9764 52.299C49.5094 51.4222 52.3583 50.6364 54.7222 49.3635C56.757 48.2678 58.856 47.2718 60.7678 45.9483C62.3749 44.8357 64.0607 43.8812 65.6072 42.6785C67.1787 41.4561 69.2899 40.9464 71.0423 40.0045C72.6704 39.1294 74.8163 38.4375 76.2159 37.1851C76.6533 36.7938 77.243 36.765 77.6983 36.3423C78.4151 35.6766 79.2505 35.1374 80.0816 34.6274C82.1167 33.3786 83.8135 31.5565 85.8656 30.3839C86.65 29.9357 87.2033 28.9842 87.9583 28.5528C88.8264 28.0567 88.8302 27.6308 88.0745 27.085C84.7484 24.6827 81.999 21.7753 78.8027 19.2519C74.0751 15.5196 68.8571 13.2509 63.5145 10.7068C58.1949 8.17365 53.0883 5.31722 47.6885 2.9173C46.8875 2.56131 46.2747 2.02117 45.5958 1.4931C44.6737 0.775891 45.3997 3.15061 45.4505 3.65846C45.6143 5.29661 45.465 7.02551 45.465 8.6722C45.465 10.1198 45.7266 11.4496 45.7266 12.8576C45.7266 13.4047 45.8246 14.4744 45.4069 14.8921C45.0788 15.2202 43.3991 14.9503 42.9508 14.9503C40.6908 14.9503 38.3771 14.6887 36.1932 14.6887C34.5268 14.6887 31.7798 15.2566 30.293 14.6306C29.2646 14.1976 27.2801 14.1903 26.1657 14.1655C24.8315 14.1359 23.5803 13.9039 22.2419 13.9039C19.2228 13.9039 16.0028 13.5952 13.0137 14.0347C8.24807 14.7356 9.82935 13.9039 5 13.9039" stroke="#464646" strokeWidth="2" stroke-linecap="round"/>
    <path d="M5 17.9999C5.5 17.4999 6.01718 17.1298 6.5 16.9999C7.30439 16.7834 9.51825 16.8366 10.3695 16.7834C11.5375 16.7104 12.6721 16.6595 13.8537 16.6595C16.0792 16.6595 18.2899 16.7907 20.5015 16.7907C24.6518 16.7907 28.7654 16.8369 32.9005 17.0604C35.9879 17.2273 39.0687 17.9077 42.1287 17.7165C43.2891 17.6439 45.9262 17.899 46.6115 16.5283C46.8871 15.9773 46.4512 15.2293 46.4512 14.6258C46.4512 13.7981 46.6612 13.0573 46.8375 12.2641C47.1378 10.913 46.392 8.49722 47.5 7.50002C48.2222 6.85001 50.4901 7.00015 51.5 7.5C52.2953 7.89362 52.45 8.03498 52.9386 8.12383C53.2237 8.17565 53.3918 8.37821 53.6675 8.39353C53.9534 8.40941 54.331 8.70298 54.586 8.8163C54.8724 8.94361 55.1647 9.0941 55.4388 9.24637C56.0053 9.5611 56.4051 10.0784 56.9477 10.4272C58.113 11.1764 59.0105 12.427 60.3299 12.8837C60.8736 13.0719 61.406 13.5092 61.9335 13.773C62.8701 14.2413 63.8484 14.6879 64.8128 15.085C66.9491 15.9647 69.0075 16.9822 71.118 17.9133C75.3808 19.7939 79.2465 21.9488 82.6641 25.1223C84.3878 26.7229 85.7495 28.3014 86.7607 30.4362C87.4543 31.9006 86.3582 33.2113 85.8131 34.438C85.5696 34.9858 85.102 35.4931 84.5739 35.7865C83.7165 36.2628 82.9474 37.1213 82.0372 37.4922C79.7587 38.4205 77.971 40.3566 76.0018 41.7199C75.0926 42.3493 74.4079 43.1847 73.4651 43.7609C72.385 44.421 71.3059 44.9834 70.1485 45.5176C68.0591 46.4819 65.9139 47.2187 63.7996 48.1199C62.4462 48.6967 61.1682 49.4666 59.8051 49.9859C58.4019 50.5204 56.9771 50.9626 55.6356 51.6333C54.5962 52.153 53.5113 52.5187 52.4211 52.9381C51.4193 53.3233 48.8563 53.7757 48.1569 52.5517C47.9854 52.2517 47.7345 52.1485 47.6248 51.7645C47.5629 51.5481 47.4994 51.2619 47.3988 51.0356C47.1808 50.545 47.1718 49.9005 47.0052 49.359L46.9732 49.255C46.4781 47.6457 45.9598 45.961 45.2703 44.4096C44.9625 43.7171 44.7537 42.8074 44.2207 42.2447C44.0136 42.0262 43.9159 41.6609 43.6375 41.5814C43.4337 41.5232 43.1105 41.2781 42.9086 41.1659C42.3108 40.8338 41.8106 40.3177 41.0717 40.2766C40.0766 40.2214 39.0189 39.883 38.054 39.883C37.6397 39.883 36.9893 39.8821 36.6107 39.7227C35.9216 39.4325 35.0724 39.7115 34.3365 39.6133C32.5186 39.3709 30.5956 39.227 28.7456 39.227C26.1017 39.227 23.3838 39.0958 20.7056 39.0958C17.6922 39.0958 14.4357 39.8827 11.4701 39.1614C9.38896 38.6552 7.12808 37.8177 5.31074 36.6612C4.72766 36.2901 4.01715 35.7892 3.81644 35.0867C3.64643 34.4917 3.30319 33.9829 3.28433 33.3227C3.24308 31.8792 3.09678 30.4154 3.02191 28.9929C2.93083 27.2623 3.15312 25.5212 3.15312 23.8248C3.15312 22.999 3.46349 22.0034 3.78 21.2517C4 20.4999 4 19.9999 4 19.4999C4 18.9999 4.5 18.4999 5 17.9999Z" fill="#5C55A3" fill-opacity="0.2"/>
</svg>