<svg width="217" height="217" viewBox="0 0 217 217" fill="none" xmlns="http://www.w3.org/2000/svg">
<rect width="217" height="217" rx="15" fill="#0A0A0A"/>
<path d="M31 46C31 37.7157 37.7157 31 46 31H74C76.7614 31 79 33.2386 79 36V74C79 76.7614 76.7614 79 74 79H36C33.2386 79 31 76.7614 31 74V46Z" fill="white"/>
<rect x="85" y="31" width="48" height="48" rx="5" fill="white"/>
<path d="M139 36C139 33.2386 141.239 31 144 31H172C180.284 31 187 37.7157 187 46V74C187 76.7614 184.761 79 182 79H144C141.239 79 139 76.7614 139 74V36Z" fill="white"/>
<rect x="31" y="85" width="48" height="48" rx="5" fill="white"/>
<rect x="85" y="85" width="48" height="48" rx="5" fill="white"/>
<path d="M139 90C139 87.2386 141.239 85 144 85H182C184.761 85 187 87.2386 187 90V118C187 126.284 180.284 133 172 133H144C141.239 133 139 130.761 139 128V90Z" fill="white"/>
<path d="M31 144C31 141.239 33.2386 139 36 139H74C76.7614 139 79 141.239 79 144V182C79 184.761 76.7614 187 74 187H46C37.7157 187 31 180.284 31 172V144Z" fill="white"/>
</svg>







