<svg width="156" height="156" viewBox="0 0 156 156" fill="none" xmlns="http://www.w3.org/2000/svg">
<path d="M0 20C0 8.95431 8.9543 0 20 0H43C45.7614 0 48 2.23858 48 5V43C48 45.7614 45.7614 48 43 48H5C2.23858 48 0 45.7614 0 43V20Z" fill="#F0F0F0"/>
<rect x="54" width="48" height="48" rx="5" fill="#F0F0F0"/>
<path d="M108 5C108 2.23858 110.239 0 113 0H136C147.046 0 156 8.9543 156 20V43C156 45.7614 153.761 48 151 48H113C110.239 48 108 45.7614 108 43V5Z" fill="#F0F0F0"/>
<rect y="54" width="48" height="48" rx="5" fill="#F0F0F0"/>
<rect x="54" y="54" width="48" height="48" rx="5" fill="#F0F0F0"/>
<path d="M108 59C108 56.2386 110.239 54 113 54H151C153.761 54 156 56.2386 156 59V82C156 93.0457 147.046 102 136 102H113C110.239 102 108 99.7614 108 97V59Z" fill="#F0F0F0"/>
<path d="M0 113C0 110.239 2.23858 108 5 108H43C45.7614 108 48 110.239 48 113V151C48 153.761 45.7614 156 43 156H20C8.95431 156 0 147.046 0 136V113Z" fill="#F0F0F0"/>
</svg>
