<svg width="2560" height="1600" viewBox="0 0 2560 1600" fill="none" xmlns="http://www.w3.org/2000/svg">
<g clip-path="url(#clip0_78_3)">
<path d="M-10.7444 959.55C2.97606 958.048 18.4901 940.124 31.1089 934.599C46.3399 927.93 59.0028 920.069 74.4576 912.857C100.671 900.624 95.7888 901.772 118.911 884.054C129.264 876.12 144.791 871.727 153.23 861.333C166.334 845.195 180.958 852.781 195.279 860.209L195.721 860.439C208.828 867.235 219.993 874.57 234.217 879.76C247.557 884.628 276.571 894.288 287.421 903.196C302.352 915.454 331.305 917.694 348.979 912.857C364.265 908.673 376.634 898.834 391.832 894.43C419.662 886.366 445.293 868.236 465.374 848.452C502.812 811.567 526.153 763.168 563.612 726.262C573.099 716.915 627.393 760.126 638.425 766.336C665.396 781.521 679.666 798.539 712.149 798.539C725.352 798.539 736.253 783.897 748.102 782.438C764.43 780.427 766.387 783.173 782.24 792.098C793.935 798.682 807.837 811.213 820.01 814.64C836.673 819.33 849.025 831.003 865.043 836.466C884.634 843.147 907.01 842.176 925.329 853.283C940.628 862.558 959.262 871.679 975.265 878.687C988.053 884.286 1007.02 898.008 1021.02 898.008C1034.12 898.008 1056.77 882.291 1065.88 873.32C1075.95 863.397 1086.04 849.101 1094.57 837.897C1098.08 833.285 1109.89 824.441 1114.9 821.08C1121.73 816.505 1129.14 807.208 1137.06 804.979C1145.86 802.502 1151.74 792.333 1161.39 788.878C1170.54 785.598 1177 778.405 1185.9 774.566C1199.02 768.911 1205.39 759.689 1216.23 750.951C1229.66 740.121 1239.1 742.889 1254.72 743.795C1260.38 744.122 1266.15 747.015 1273.25 747.015C1296.29 747.015 1297.09 748.136 1307.02 731.63C1317.28 714.566 1329.35 693.561 1342.97 679.39C1357.61 664.168 1376.45 652.675 1385.47 632.697C1387.06 629.157 1397.3 611.585 1400.35 613.733C1407.63 618.85 1411.01 626.911 1416.88 632.697C1430.8 646.412 1450.29 668.889 1467.18 678.675C1496.31 695.559 1528.82 712.422 1556.88 732.166C1559.71 734.159 1562.95 721.611 1567.05 721.611C1574.23 721.611 1583.45 729.621 1589.93 732.524C1608.38 740.786 1625.58 753.078 1641.14 765.621C1648.54 771.591 1660.34 771.79 1668.74 776.713C1682.31 784.669 1695.66 793.406 1709.05 801.043C1737.33 817.174 1759.38 838.083 1784.41 858.113C1807.2 876.359 1833.67 893.598 1851.41 916.077C1858.13 924.585 1887.73 943.449 1898.62 943.449C1915.18 943.449 1919.34 917.107 1928.04 908.026C1940.61 894.917 1951.63 877.855 1961.44 862.658L1962.18 861.512C1978.03 836.968 1994.26 802.36 2017.93 784.227C2042.93 765.069 2058.61 819.819 2081.66 821.08C2094.48 821.782 2105.81 806.356 2115.07 799.254C2119.15 796.134 2151.24 828.45 2155.2 832.351C2174.16 851.024 2201.58 862.303 2220.39 880.833C2225.07 885.44 2228.2 889.538 2233.65 893.714C2240.91 899.281 2251.05 903.076 2257.44 908.742C2269.4 919.352 2283.22 927.528 2297.38 934.504C2307.53 939.503 2320.55 953.11 2331.7 953.11C2351.95 953.11 2358.51 924.414 2377.28 917.687C2390.6 912.915 2408.37 898.507 2418.32 888.705C2436.77 870.528 2454.1 872.267 2474.97 885.485C2499.76 901.184 2531.36 912.795 2559.41 921.086C2583.67 928.256 2545.5 1560.66 2570.11 1565.07C2550.88 1585.48 31.6508 1556.3 -3.36411 1558.93C-3.45929 1559.01 -3.55777 1559.04 -3.65962 1559.02C-3.81802 1558.99 -3.7178 1558.96 -3.36411 1558.93C6.88838 1550.25 -21.2447 956.102 -10.7444 959.55Z" fill="url(#paint0_linear_78_3)"/>
</g>
<defs>
<linearGradient id="paint0_linear_78_3" x1="1181.38" y1="959.292" x2="1177.09" y2="434.002" gradientUnits="userSpaceOnUse">
<stop stop-color="#645FA5"/>
<stop offset="1" stop-color="#9682BF"/>
</linearGradient>
<clipPath id="clip0_78_3">
<rect width="2560" height="1600" fill="white"/>
</clipPath>
</defs>
</svg>
