<svg width="843" height="294" viewBox="0 0 843 294" fill="none" xmlns="http://www.w3.org/2000/svg">
<rect x="651" y="1" width="191" height="111" rx="25" fill="url(#paint0_linear_3_148)" fill-opacity="0.09"/>
<rect x="229" y="194" width="172" height="41" rx="10" fill="#F6F3D4" fill-opacity="0.8"/>
<rect width="191" height="111" rx="25" transform="matrix(-1 0 0 1 402 1)" fill="url(#paint1_linear_3_148)" fill-opacity="0.09"/>
<rect width="256" height="111" rx="25" transform="matrix(-1 0 0 1 448 176)" fill="url(#paint2_linear_3_148)" fill-opacity="0.09"/>
<path d="M219.33 109.785C213.105 110.445 212.332 93.3659 212.315 87.4013C212.27 69.7234 209.427 30.2551 212.243 15.3873C215.266 -0.573221 242.497 2.38117 254.111 1.86816C289.023 0.325468 322.487 1.531 359.663 1.50917C368.876 1.5031 378.475 0.154461 387.559 1.87179C396.701 3.59883 399.619 10.6016 400.571 20.8061C401.279 28.3777 401.735 68.2851 401.947 80.6144C402.049 86.5487 402.302 101.634 399.281 106.279C394.867 113.072 383.358 111.934 378.424 111.921C367.543 111.89 252.207 111.65 222.81 109.744" stroke="#2C2C2C" stroke-width="2" stroke-miterlimit="1.5" stroke-linecap="round" stroke-linejoin="round"/>
<rect x="421" y="1" width="191" height="111" rx="25" fill="url(#paint3_linear_3_148)" fill-opacity="0.09"/>
<path d="M603.67 109.785C609.895 110.445 610.668 93.3659 610.685 87.4013C610.73 69.7234 613.573 30.2551 610.757 15.3873C607.734 -0.573221 580.503 2.38117 568.889 1.86816C533.977 0.325468 500.513 1.531 463.337 1.50917C454.124 1.5031 444.525 0.154461 435.441 1.87179C426.299 3.59883 423.381 10.6016 422.429 20.8061C421.721 28.3777 421.265 68.2851 421.053 80.6144C420.951 86.5487 420.698 101.634 423.719 106.279C428.133 113.072 439.642 111.934 444.576 111.921C455.457 111.89 570.793 111.65 600.19 109.744" stroke="#464646" stroke-width="2" stroke-miterlimit="1.5" stroke-linecap="round" stroke-linejoin="round"/>
<rect x="1" y="1" width="191" height="111" rx="25" fill="url(#paint4_linear_3_148)" fill-opacity="0.09"/>
<path d="M183.67 109.785C189.895 110.445 190.668 93.3659 190.685 87.4013C190.73 69.7234 193.573 30.2551 190.757 15.3873C187.734 -0.573221 160.503 2.38117 148.889 1.86816C113.977 0.325468 80.5127 1.531 43.3367 1.50917C34.1244 1.5031 24.5254 0.154461 15.441 1.87179C6.29884 3.59883 3.38139 10.6016 2.4285 20.8061C1.72106 28.3777 1.26524 68.2851 1.0528 80.6144C0.950702 86.5487 0.698042 101.634 3.71861 106.279C8.13345 113.072 19.6424 111.934 24.5759 111.921C35.4568 111.89 150.793 111.65 180.19 109.744" stroke="#2C2C2C" stroke-width="2" stroke-miterlimit="1.5" stroke-linecap="round" stroke-linejoin="round"/>
<path d="M436.835 290.665C445.178 291.361 446.215 273.359 446.237 267.072C446.298 248.438 450.109 206.836 446.334 191.165C442.282 174.342 405.784 177.456 390.217 176.915C343.425 175.289 298.572 176.56 248.744 176.537C236.397 176.53 223.531 175.109 211.355 176.919C199.102 178.739 195.192 186.121 193.915 196.877C192.966 204.858 192.356 246.922 192.071 259.918C191.934 266.173 191.595 282.073 195.644 286.969C201.561 294.129 216.987 292.93 223.599 292.916C238.183 292.884 392.77 292.631 432.172 290.622" stroke="#2C2C2C" stroke-width="2" stroke-miterlimit="1.5" stroke-linecap="round" stroke-linejoin="round"/>
<path d="M49.14 56.005H49.7C53.5033 56.005 55.9417 57.3817 57.015 60.135L57.12 61.255V61.605C57.12 64.3117 55.475 66.82 52.185 69.13C51.3917 69.3633 50.995 69.62 50.995 69.9C51.9283 73.47 52.395 76.3867 52.395 78.65V79.105C52.395 80.0383 52.01 80.505 51.24 80.505C50.6567 80.435 50.365 80.1433 50.365 79.63V78.755C50.365 76.0717 49.875 73.155 48.895 70.005C47.005 69.8417 45.955 69.3283 45.745 68.465V68.255C45.745 67.835 46.0717 67.5083 46.725 67.275L48.265 67.8V67.73C47.4717 64.2767 47.075 61.9433 47.075 60.73C47.075 60.0533 47.4717 59.715 48.265 59.715C48.9883 59.715 49.35 60.9517 49.35 63.425L50.365 67.59C52.045 67.03 53.3517 65.9333 54.285 64.3C54.775 63.3667 55.02 62.5383 55.02 61.815V61.36C55.02 59.4467 53.3867 58.3617 50.12 58.105H48.685C45.4883 58.455 43.89 59.2133 43.89 60.38V60.59C43.89 60.94 44.0767 61.4883 44.45 62.235C44.45 62.7483 44.0417 63.075 43.225 63.215C42.2917 62.7717 41.825 61.8617 41.825 60.485C41.825 57.9183 44.2633 56.425 49.14 56.005ZM63.2127 65.21C64.6827 65.21 65.5577 66.2367 65.8377 68.29V68.605C65.8377 70.8683 64.6711 72.945 62.3377 74.835C63.6911 76.165 66.0594 76.83 69.4427 76.83C69.9561 76.9933 70.2127 77.355 70.2127 77.915C70.2127 78.545 69.8044 78.86 68.9877 78.86C66.7011 78.86 64.2977 78.2767 61.7777 77.11V78.125C61.7777 80.5283 61.2644 81.73 60.2377 81.73C59.5144 81.73 59.1527 80.3417 59.1527 77.565V74.835L59.0477 73.855L59.2927 72.735L59.0477 69.375V69.235C59.0477 68.605 59.3744 68.1733 60.0277 67.94C60.9377 66.12 61.9994 65.21 63.2127 65.21ZM61.4627 72.875C62.1394 72.875 62.8977 71.6617 63.7377 69.235V67.73L63.3177 67.275H63.0027C61.9761 67.975 61.4627 69.8417 61.4627 72.875ZM76.9759 65.805C78.7026 65.805 80.0093 67.0883 80.8959 69.655L81.0359 70.39C81.0359 72.8867 79.8693 75.4417 77.5359 78.055C76.6026 78.9183 75.6576 79.35 74.7009 79.35C73.3009 79.35 72.3093 78.545 71.7259 76.935C71.5159 76.1883 71.4109 75.535 71.4109 74.975V74.555C71.4109 70.8683 72.7526 68.0683 75.4359 66.155C75.9026 65.9217 76.4159 65.805 76.9759 65.805ZM73.4759 74.905C73.4759 76.4917 73.8843 77.285 74.7009 77.285C76.4043 77.285 77.8159 75.1033 78.9359 70.74V70.075C78.5393 68.6283 77.8043 67.905 76.7309 67.905C76.3109 67.905 76.1009 68.1967 76.1009 68.78C76.1009 69.1767 75.6343 69.4917 74.7009 69.725C73.8843 71.1017 73.4759 72.8283 73.4759 74.905ZM84.4069 67.03C85.1302 67.2633 85.4919 67.8 85.4919 68.64C85.4919 69.13 85.1652 69.4217 84.5119 69.515H84.4069C83.7302 69.515 83.3685 69.0717 83.3219 68.185V67.975C83.3219 67.3683 83.6835 67.0533 84.4069 67.03ZM84.6169 70.74C84.9435 70.74 85.3169 71.055 85.7369 71.685C85.5035 72.315 85.3869 73.1667 85.3869 74.24L86.2619 83.06V84.075C86.2619 87.1317 85.5269 89.0567 84.0569 89.85L83.3219 89.99C81.7119 89.99 80.4752 88.38 79.6119 85.16L79.3669 83.305V83.2C79.3669 82.3833 79.7402 81.975 80.4869 81.975C81.1169 81.975 81.4319 82.6167 81.4319 83.9C81.4319 85.2067 81.9919 86.5017 83.1119 87.785L83.3919 87.89C83.9285 86.9333 84.1969 85.8133 84.1969 84.53V83.06L83.3219 74.31C83.3219 71.93 83.7535 70.74 84.6169 70.74ZM90.898 66.435C91.8313 66.4583 93.4063 68.0917 95.623 71.335L95.693 71.93C95.693 72.5833 94.0947 73.085 90.898 73.435L90.793 73.54V73.68C91.283 75.78 91.7963 76.83 92.333 76.83H92.753C93.4997 76.83 94.6313 76.025 96.148 74.415H96.358C96.8247 74.415 97.1863 74.7533 97.443 75.43C97.443 75.99 96.463 76.9583 94.503 78.335C93.9897 78.6383 93.3713 78.86 92.648 79C90.758 79 89.4397 77.2267 88.693 73.68C87.6197 73.5167 87.083 73.0733 87.083 72.35C87.083 71.8367 87.4797 71.4983 88.273 71.335V71.475L88.623 71.335V70.46C88.623 67.7767 89.3813 66.435 90.898 66.435ZM91.108 68.955H90.793L90.653 70.25V71.335H90.793C92.0997 71.2883 92.753 71.1483 92.753 70.915C92.1463 70.005 91.598 69.3517 91.108 68.955ZM102.358 67.135L103.793 66.925C104.376 66.925 104.703 67.2867 104.773 68.01C104.773 68.64 104.015 69.0483 102.498 69.235C101.541 69.9817 101.063 70.9383 101.063 72.105V73.26C101.53 75.8267 102.323 77.11 103.443 77.11H103.793C104.446 77.11 105.426 76.4917 106.733 75.255H106.943C107.41 75.255 107.783 75.5817 108.063 76.235C107.736 77.2383 106.686 78.1483 104.913 78.965C104.586 79.105 104.178 79.175 103.688 79.175C101.285 79.175 99.7214 77.285 98.998 73.505V72.735C98.998 70.005 100.118 68.1383 102.358 67.135ZM113.958 57.755C114.611 57.895 114.938 58.2217 114.938 58.735L114.728 60.275V60.73C114.728 61.7567 114.845 62.8417 115.078 63.985H115.148C117.855 63.1683 119.535 62.76 120.188 62.76C120.865 62.9467 121.203 63.285 121.203 63.775C121.203 64.5683 120.398 64.965 118.788 64.965L115.148 66.26C115.148 69.41 115.486 73.6917 116.163 79.105C116.023 79.735 115.685 80.05 115.148 80.05H115.078C114.261 80.05 113.853 79 113.853 76.9C113.55 75.3367 113.293 71.9417 113.083 66.715H112.453C110.26 66.575 109.163 66.0617 109.163 65.175C109.163 64.9183 109.408 64.6033 109.898 64.23H110.248L111.858 64.65H112.978L112.663 60.275C112.663 58.595 113.095 57.755 113.958 57.755ZM136.058 62.06C136.198 61.4767 136.618 61.185 137.318 61.185C138.018 61.185 138.368 62.6783 138.368 65.665L138.473 67.555L138.158 78.58C137.995 79.3033 137.633 79.665 137.073 79.665C136.396 79.4083 136.058 79.0467 136.058 78.58L136.408 67.765L136.058 62.06Z" fill="#464646"/>
<path d="M259.14 56.005H259.7C263.503 56.005 265.942 57.3817 267.015 60.135L267.12 61.255V61.605C267.12 64.3117 265.475 66.82 262.185 69.13C261.392 69.3633 260.995 69.62 260.995 69.9C261.928 73.47 262.395 76.3867 262.395 78.65V79.105C262.395 80.0383 262.01 80.505 261.24 80.505C260.657 80.435 260.365 80.1433 260.365 79.63V78.755C260.365 76.0717 259.875 73.155 258.895 70.005C257.005 69.8417 255.955 69.3283 255.745 68.465V68.255C255.745 67.835 256.072 67.5083 256.725 67.275L258.265 67.8V67.73C257.472 64.2767 257.075 61.9433 257.075 60.73C257.075 60.0533 257.472 59.715 258.265 59.715C258.988 59.715 259.35 60.9517 259.35 63.425L260.365 67.59C262.045 67.03 263.352 65.9333 264.285 64.3C264.775 63.3667 265.02 62.5383 265.02 61.815V61.36C265.02 59.4467 263.387 58.3617 260.12 58.105H258.685C255.488 58.455 253.89 59.2133 253.89 60.38V60.59C253.89 60.94 254.077 61.4883 254.45 62.235C254.45 62.7483 254.042 63.075 253.225 63.215C252.292 62.7717 251.825 61.8617 251.825 60.485C251.825 57.9183 254.263 56.425 259.14 56.005ZM273.213 65.21C274.683 65.21 275.558 66.2367 275.838 68.29V68.605C275.838 70.8683 274.671 72.945 272.338 74.835C273.691 76.165 276.059 76.83 279.443 76.83C279.956 76.9933 280.213 77.355 280.213 77.915C280.213 78.545 279.804 78.86 278.988 78.86C276.701 78.86 274.298 78.2767 271.778 77.11V78.125C271.778 80.5283 271.264 81.73 270.238 81.73C269.514 81.73 269.153 80.3417 269.153 77.565V74.835L269.048 73.855L269.293 72.735L269.048 69.375V69.235C269.048 68.605 269.374 68.1733 270.028 67.94C270.938 66.12 271.999 65.21 273.213 65.21ZM271.463 72.875C272.139 72.875 272.898 71.6617 273.738 69.235V67.73L273.318 67.275H273.003C271.976 67.975 271.463 69.8417 271.463 72.875ZM286.976 65.805C288.703 65.805 290.009 67.0883 290.896 69.655L291.036 70.39C291.036 72.8867 289.869 75.4417 287.536 78.055C286.603 78.9183 285.658 79.35 284.701 79.35C283.301 79.35 282.309 78.545 281.726 76.935C281.516 76.1883 281.411 75.535 281.411 74.975V74.555C281.411 70.8683 282.753 68.0683 285.436 66.155C285.903 65.9217 286.416 65.805 286.976 65.805ZM283.476 74.905C283.476 76.4917 283.884 77.285 284.701 77.285C286.404 77.285 287.816 75.1033 288.936 70.74V70.075C288.539 68.6283 287.804 67.905 286.731 67.905C286.311 67.905 286.101 68.1967 286.101 68.78C286.101 69.1767 285.634 69.4917 284.701 69.725C283.884 71.1017 283.476 72.8283 283.476 74.905ZM294.407 67.03C295.13 67.2633 295.492 67.8 295.492 68.64C295.492 69.13 295.165 69.4217 294.512 69.515H294.407C293.73 69.515 293.369 69.0717 293.322 68.185V67.975C293.322 67.3683 293.684 67.0533 294.407 67.03ZM294.617 70.74C294.944 70.74 295.317 71.055 295.737 71.685C295.504 72.315 295.387 73.1667 295.387 74.24L296.262 83.06V84.075C296.262 87.1317 295.527 89.0567 294.057 89.85L293.322 89.99C291.712 89.99 290.475 88.38 289.612 85.16L289.367 83.305V83.2C289.367 82.3833 289.74 81.975 290.487 81.975C291.117 81.975 291.432 82.6167 291.432 83.9C291.432 85.2067 291.992 86.5017 293.112 87.785L293.392 87.89C293.929 86.9333 294.197 85.8133 294.197 84.53V83.06L293.322 74.31C293.322 71.93 293.754 70.74 294.617 70.74ZM300.898 66.435C301.831 66.4583 303.406 68.0917 305.623 71.335L305.693 71.93C305.693 72.5833 304.095 73.085 300.898 73.435L300.793 73.54V73.68C301.283 75.78 301.796 76.83 302.333 76.83H302.753C303.5 76.83 304.631 76.025 306.148 74.415H306.358C306.825 74.415 307.186 74.7533 307.443 75.43C307.443 75.99 306.463 76.9583 304.503 78.335C303.99 78.6383 303.371 78.86 302.648 79C300.758 79 299.44 77.2267 298.693 73.68C297.62 73.5167 297.083 73.0733 297.083 72.35C297.083 71.8367 297.48 71.4983 298.273 71.335V71.475L298.623 71.335V70.46C298.623 67.7767 299.381 66.435 300.898 66.435ZM301.108 68.955H300.793L300.653 70.25V71.335H300.793C302.1 71.2883 302.753 71.1483 302.753 70.915C302.146 70.005 301.598 69.3517 301.108 68.955ZM312.358 67.135L313.793 66.925C314.376 66.925 314.703 67.2867 314.773 68.01C314.773 68.64 314.015 69.0483 312.498 69.235C311.541 69.9817 311.063 70.9383 311.063 72.105V73.26C311.53 75.8267 312.323 77.11 313.443 77.11H313.793C314.446 77.11 315.426 76.4917 316.733 75.255H316.943C317.41 75.255 317.783 75.5817 318.063 76.235C317.736 77.2383 316.686 78.1483 314.913 78.965C314.586 79.105 314.178 79.175 313.688 79.175C311.285 79.175 309.721 77.285 308.998 73.505V72.735C308.998 70.005 310.118 68.1383 312.358 67.135ZM323.958 57.755C324.611 57.895 324.938 58.2217 324.938 58.735L324.728 60.275V60.73C324.728 61.7567 324.845 62.8417 325.078 63.985H325.148C327.855 63.1683 329.535 62.76 330.188 62.76C330.865 62.9467 331.203 63.285 331.203 63.775C331.203 64.5683 330.398 64.965 328.788 64.965L325.148 66.26C325.148 69.41 325.486 73.6917 326.163 79.105C326.023 79.735 325.685 80.05 325.148 80.05H325.078C324.261 80.05 323.853 79 323.853 76.9C323.55 75.3367 323.293 71.9417 323.083 66.715H322.453C320.26 66.575 319.163 66.0617 319.163 65.175C319.163 64.9183 319.408 64.6033 319.898 64.23H320.248L321.858 64.65H322.978L322.663 60.275C322.663 58.595 323.095 57.755 323.958 57.755ZM351.343 60.1C353.14 60.1 354.19 61.3717 354.493 63.915C354.493 66.2717 352.65 70.8333 348.963 77.6V77.81C349.92 77.81 351.961 76.97 355.088 75.29H355.158C355.625 75.29 355.986 75.6283 356.243 76.305C356.243 77.495 353.035 78.9533 346.618 80.68C346.245 80.68 345.93 80.3417 345.673 79.665C346.583 77.5883 348.356 74.0883 350.993 69.165C351.88 66.785 352.323 65.175 352.323 64.335V63.25C352.323 62.7833 352.078 62.4217 351.588 62.165H351.133C350.223 62.165 349.348 63.2617 348.508 65.455L348.613 65.875C348.613 66.3183 348.286 66.68 347.633 66.96C346.77 66.7967 346.338 66.365 346.338 65.665C346.338 64.335 347.353 62.7017 349.383 60.765C349.966 60.3217 350.62 60.1 351.343 60.1Z" fill="#464646"/>
<path d="M216.11 246.835C217.697 246.835 218.618 247.978 218.875 250.265C218.875 252.155 218.432 253.345 217.545 253.835H217.335C216.658 253.788 216.32 253.543 216.32 253.1L216.46 250.475V249.18L216.25 248.935H215.9C215.153 248.935 214.278 251.012 213.275 255.165L213.065 257.79V258.56C213.065 260.987 214.15 262.41 216.32 262.83H217.79C220.217 262.83 223.157 261.267 226.61 258.14H226.75C227.38 258.14 227.742 258.537 227.835 259.33C227.298 260.73 226.668 261.43 225.945 261.43C222.608 263.81 219.61 265 216.95 265C214.29 265 212.412 263.542 211.315 260.625L211 258.14V257.685C211 254.068 212.015 250.743 214.045 247.71C214.698 247.127 215.387 246.835 216.11 246.835ZM234.765 251.805C236.492 251.805 237.798 253.088 238.685 255.655L238.825 256.39C238.825 258.887 237.658 261.442 235.325 264.055C234.392 264.918 233.447 265.35 232.49 265.35C231.09 265.35 230.098 264.545 229.515 262.935C229.305 262.188 229.2 261.535 229.2 260.975V260.555C229.2 256.868 230.542 254.068 233.225 252.155C233.692 251.922 234.205 251.805 234.765 251.805ZM231.265 260.905C231.265 262.492 231.673 263.285 232.49 263.285C234.193 263.285 235.605 261.103 236.725 256.74V256.075C236.328 254.628 235.593 253.905 234.52 253.905C234.1 253.905 233.89 254.197 233.89 254.78C233.89 255.177 233.423 255.492 232.49 255.725C231.673 257.102 231.265 258.828 231.265 260.905ZM240.936 252.75C241.099 252.167 241.473 251.875 242.056 251.875C242.639 251.875 243.024 252.458 243.211 253.625H243.351L244.961 253.275C245.708 253.275 246.431 253.975 247.131 255.375H247.271C248.298 253.765 249.348 252.96 250.421 252.96C252.708 253.38 253.851 254.873 253.851 257.44L253.921 258.665L253.606 265.735V266.4C253.606 266.983 253.244 267.322 252.521 267.415C251.798 267.415 251.436 266.563 251.436 264.86L251.856 258.525C251.856 256.192 251.308 255.025 250.211 255.025C249.581 255.025 248.823 256.553 247.936 259.61C247.493 263.11 247.131 264.86 246.851 264.86C246.454 264.86 246.256 264.942 246.256 265.105C245.533 265.012 245.171 264.638 245.171 263.985L245.626 259.75C245.556 256.833 245.264 255.375 244.751 255.375H244.646C244.063 255.818 243.771 256.693 243.771 258V259.855L243.631 265.21C243.468 265.793 243.106 266.085 242.546 266.085C242.056 266.085 241.741 265.677 241.601 264.86L241.461 260.73L241.671 257.335C241.531 255.585 241.286 254.057 240.936 252.75ZM256.419 252.75C256.583 252.167 256.956 251.875 257.539 251.875C258.123 251.875 258.508 252.458 258.694 253.625H258.834L260.444 253.275C261.191 253.275 261.914 253.975 262.614 255.375H262.754C263.781 253.765 264.831 252.96 265.904 252.96C268.191 253.38 269.334 254.873 269.334 257.44L269.404 258.665L269.089 265.735V266.4C269.089 266.983 268.728 267.322 268.004 267.415C267.281 267.415 266.919 266.563 266.919 264.86L267.339 258.525C267.339 256.192 266.791 255.025 265.694 255.025C265.064 255.025 264.306 256.553 263.419 259.61C262.976 263.11 262.614 264.86 262.334 264.86C261.938 264.86 261.739 264.942 261.739 265.105C261.016 265.012 260.654 264.638 260.654 263.985L261.109 259.75C261.039 256.833 260.748 255.375 260.234 255.375H260.129C259.546 255.818 259.254 256.693 259.254 258V259.855L259.114 265.21C258.951 265.793 258.589 266.085 258.029 266.085C257.539 266.085 257.224 265.677 257.084 264.86L256.944 260.73L257.154 257.335C257.014 255.585 256.769 254.057 256.419 252.75ZM276.943 251.805C278.669 251.805 279.976 253.088 280.863 255.655L281.003 256.39C281.003 258.887 279.836 261.442 277.503 264.055C276.569 264.918 275.624 265.35 274.668 265.35C273.268 265.35 272.276 264.545 271.693 262.935C271.483 262.188 271.378 261.535 271.378 260.975V260.555C271.378 256.868 272.719 254.068 275.403 252.155C275.869 251.922 276.383 251.805 276.943 251.805ZM273.443 260.905C273.443 262.492 273.851 263.285 274.668 263.285C276.371 263.285 277.783 261.103 278.903 256.74V256.075C278.506 254.628 277.771 253.905 276.698 253.905C276.278 253.905 276.068 254.197 276.068 254.78C276.068 255.177 275.601 255.492 274.668 255.725C273.851 257.102 273.443 258.828 273.443 260.905ZM287.104 253.205C289.087 253.368 290.079 254.337 290.079 256.11L290.149 256.565L290.079 262.025C290.079 262.655 290.44 263.507 291.164 264.58V264.65C290.977 265.327 290.639 265.665 290.149 265.665C288.702 265.058 287.979 263.775 287.979 261.815V261.36L287.874 261.29L287.979 261.15V261.08L288.084 256.25C288.084 255.573 287.792 255.235 287.209 255.235H286.789C285.622 255.702 285.039 258.257 285.039 262.9C285.039 264.51 284.63 265.315 283.814 265.315C283.184 265.315 282.857 264.918 282.834 264.125V260.625C282.834 256.098 283.23 253.835 284.024 253.835L284.374 253.73L285.109 253.835C285.739 253.415 286.404 253.205 287.104 253.205ZM310.074 251.21C311.544 251.21 312.419 252.237 312.699 254.29V254.605C312.699 256.868 311.532 258.945 309.199 260.835C310.552 262.165 312.921 262.83 316.304 262.83C316.817 262.993 317.074 263.355 317.074 263.915C317.074 264.545 316.666 264.86 315.849 264.86C313.562 264.86 311.159 264.277 308.639 263.11V264.125C308.639 266.528 308.126 267.73 307.099 267.73C306.376 267.73 306.014 266.342 306.014 263.565V260.835L305.909 259.855L306.154 258.735L305.909 255.375V255.235C305.909 254.605 306.236 254.173 306.889 253.94C307.799 252.12 308.861 251.21 310.074 251.21ZM308.324 258.875C309.001 258.875 309.759 257.662 310.599 255.235V253.73L310.179 253.275H309.864C308.837 253.975 308.324 255.842 308.324 258.875ZM321.387 252.435C322.321 252.458 323.896 254.092 326.112 257.335L326.182 257.93C326.182 258.583 324.584 259.085 321.387 259.435L321.282 259.54V259.68C321.772 261.78 322.286 262.83 322.822 262.83H323.242C323.989 262.83 325.121 262.025 326.637 260.415H326.847C327.314 260.415 327.676 260.753 327.932 261.43C327.932 261.99 326.952 262.958 324.992 264.335C324.479 264.638 323.861 264.86 323.137 265C321.247 265 319.929 263.227 319.182 259.68C318.109 259.517 317.572 259.073 317.572 258.35C317.572 257.837 317.969 257.498 318.762 257.335V257.475L319.112 257.335V256.46C319.112 253.777 319.871 252.435 321.387 252.435ZM321.597 254.955H321.282L321.142 256.25V257.335H321.282C322.589 257.288 323.242 257.148 323.242 256.915C322.636 256.005 322.087 255.352 321.597 254.955ZM333.582 254.605C336.056 254.605 337.514 256.157 337.957 259.26C337.957 262.013 336.674 263.985 334.107 265.175C333.827 265.315 333.442 265.385 332.952 265.385H332.707L331.937 265.315V265.385L332.077 274.73C331.914 275.453 331.541 275.815 330.957 275.815C330.304 275.605 329.977 275.267 329.977 274.8L329.662 255.76C329.662 255.153 330.024 254.838 330.747 254.815L331.482 255.13C332.136 254.78 332.836 254.605 333.582 254.605ZM331.832 258.315L331.727 259.4L331.832 263.11L332.812 263.355C334.376 263.355 335.391 262.212 335.857 259.925V259.4C335.694 257.557 335.041 256.635 333.897 256.635H333.372C332.346 256.635 331.832 257.195 331.832 258.315ZM345.2 251.805C346.926 251.805 348.233 253.088 349.12 255.655L349.26 256.39C349.26 258.887 348.093 261.442 345.76 264.055C344.826 264.918 343.881 265.35 342.925 265.35C341.525 265.35 340.533 264.545 339.95 262.935C339.74 262.188 339.635 261.535 339.635 260.975V260.555C339.635 256.868 340.976 254.068 343.66 252.155C344.126 251.922 344.64 251.805 345.2 251.805ZM341.7 260.905C341.7 262.492 342.108 263.285 342.925 263.285C344.628 263.285 346.04 261.103 347.16 256.74V256.075C346.763 254.628 346.028 253.905 344.955 253.905C344.535 253.905 344.325 254.197 344.325 254.78C344.325 255.177 343.858 255.492 342.925 255.725C342.108 257.102 341.7 258.828 341.7 260.905ZM357.846 250.825C358.476 250.825 358.907 251.887 359.141 254.01C358.907 254.593 358.522 254.885 357.986 254.885C357.612 254.815 357.239 254.383 356.866 253.59L356.236 253.38C355.139 253.38 354.147 254.103 353.261 255.55V255.865C353.261 256.215 354.906 256.798 358.196 257.615C359.572 258.432 360.261 259.423 360.261 260.59C360.261 262.503 358.721 264.137 355.641 265.49L354.346 265.7C352.386 265.49 351.406 264.51 351.406 262.76V262.655C351.406 262.095 351.767 261.768 352.491 261.675C353.051 261.675 353.424 262.258 353.611 263.425L353.891 263.635H354.486C355.816 263.635 357.052 262.725 358.196 260.905V260.45C358.196 259.75 356.667 259.097 353.611 258.49C352.001 257.837 351.196 256.927 351.196 255.76C351.196 254.243 352.467 252.82 355.011 251.49C356.131 251.35 357.076 251.128 357.846 250.825ZM361.963 246.765C362.85 246.952 363.293 247.348 363.293 247.955C363.06 248.608 362.686 248.935 362.173 248.935C361.31 248.772 360.878 248.34 360.878 247.64C361.111 247.057 361.473 246.765 361.963 246.765ZM363.293 251.665C363.666 251.665 363.981 252.003 364.238 252.68L363.923 255.165V256.81C363.923 258.723 364.25 261.232 364.903 264.335C364.67 264.778 364.273 265 363.713 265C362.756 265 362.126 262.2 361.823 256.6V255.375C361.823 252.902 362.313 251.665 363.293 251.665ZM370.834 243.755C371.487 243.895 371.814 244.222 371.814 244.735L371.604 246.275V246.73C371.604 247.757 371.721 248.842 371.954 249.985H372.024C374.731 249.168 376.411 248.76 377.064 248.76C377.741 248.947 378.079 249.285 378.079 249.775C378.079 250.568 377.274 250.965 375.664 250.965L372.024 252.26C372.024 255.41 372.362 259.692 373.039 265.105C372.899 265.735 372.561 266.05 372.024 266.05H371.954C371.137 266.05 370.729 265 370.729 262.9C370.426 261.337 370.169 257.942 369.959 252.715H369.329C367.136 252.575 366.039 252.062 366.039 251.175C366.039 250.918 366.284 250.603 366.774 250.23H367.124L368.734 250.65H369.854L369.539 246.275C369.539 244.595 369.971 243.755 370.834 243.755ZM384.745 251.805C386.472 251.805 387.779 253.088 388.665 255.655L388.805 256.39C388.805 258.887 387.639 261.442 385.305 264.055C384.372 264.918 383.427 265.35 382.47 265.35C381.07 265.35 380.079 264.545 379.495 262.935C379.285 262.188 379.18 261.535 379.18 260.975V260.555C379.18 256.868 380.522 254.068 383.205 252.155C383.672 251.922 384.185 251.805 384.745 251.805ZM381.245 260.905C381.245 262.492 381.654 263.285 382.47 263.285C384.174 263.285 385.585 261.103 386.705 256.74V256.075C386.309 254.628 385.574 253.905 384.5 253.905C384.08 253.905 383.87 254.197 383.87 254.78C383.87 255.177 383.404 255.492 382.47 255.725C381.654 257.102 381.245 258.828 381.245 260.905ZM394.976 251.21C396.446 251.21 397.321 252.237 397.601 254.29V254.605C397.601 256.868 396.435 258.945 394.101 260.835C395.455 262.165 397.823 262.83 401.206 262.83C401.72 262.993 401.976 263.355 401.976 263.915C401.976 264.545 401.568 264.86 400.751 264.86C398.465 264.86 396.061 264.277 393.541 263.11V264.125C393.541 266.528 393.028 267.73 392.001 267.73C391.278 267.73 390.916 266.342 390.916 263.565V260.835L390.811 259.855L391.056 258.735L390.811 255.375V255.235C390.811 254.605 391.138 254.173 391.791 253.94C392.701 252.12 393.763 251.21 394.976 251.21ZM393.226 258.875C393.903 258.875 394.661 257.662 395.501 255.235V253.73L395.081 253.275H394.766C393.74 253.975 393.226 255.842 393.226 258.875ZM404.26 254.5C405.076 254.5 405.636 256.297 405.94 259.89C406.336 261.547 406.628 262.375 406.815 262.375H407.025C407.608 260.905 407.9 259.447 407.9 258L407.69 255.585C407.946 254.955 408.308 254.64 408.775 254.64C409.638 254.64 410.07 256.168 410.07 259.225C410.583 262.398 410.84 265.35 410.84 268.08V269.725C410.84 274.742 409.416 278.125 406.57 279.875L405.8 280.015C404.47 280.015 403.233 278.778 402.09 276.305L401.775 274.205V274.1C401.775 272.56 402.206 271.79 403.07 271.79L403.945 272.35L403.84 274.555C403.84 275.628 404.388 276.713 405.485 277.81H405.94C407.223 277.81 408.168 275.36 408.775 270.46L408.845 268.43C408.821 266.073 408.728 264.568 408.565 263.915C407.631 264.732 406.896 265.14 406.36 265.14C405.17 265.14 404.108 261.955 403.175 255.585L403.07 255.515C403.07 254.978 403.466 254.64 404.26 254.5Z" fill="#464646"/>
<path d="M474.14 56.005H474.7C478.503 56.005 480.942 57.3817 482.015 60.135L482.12 61.255V61.605C482.12 64.3117 480.475 66.82 477.185 69.13C476.392 69.3633 475.995 69.62 475.995 69.9C476.928 73.47 477.395 76.3867 477.395 78.65V79.105C477.395 80.0383 477.01 80.505 476.24 80.505C475.657 80.435 475.365 80.1433 475.365 79.63V78.755C475.365 76.0717 474.875 73.155 473.895 70.005C472.005 69.8417 470.955 69.3283 470.745 68.465V68.255C470.745 67.835 471.072 67.5083 471.725 67.275L473.265 67.8V67.73C472.472 64.2767 472.075 61.9433 472.075 60.73C472.075 60.0533 472.472 59.715 473.265 59.715C473.988 59.715 474.35 60.9517 474.35 63.425L475.365 67.59C477.045 67.03 478.352 65.9333 479.285 64.3C479.775 63.3667 480.02 62.5383 480.02 61.815V61.36C480.02 59.4467 478.387 58.3617 475.12 58.105H473.685C470.488 58.455 468.89 59.2133 468.89 60.38V60.59C468.89 60.94 469.077 61.4883 469.45 62.235C469.45 62.7483 469.042 63.075 468.225 63.215C467.292 62.7717 466.825 61.8617 466.825 60.485C466.825 57.9183 469.263 56.425 474.14 56.005ZM488.213 65.21C489.683 65.21 490.558 66.2367 490.838 68.29V68.605C490.838 70.8683 489.671 72.945 487.338 74.835C488.691 76.165 491.059 76.83 494.443 76.83C494.956 76.9933 495.213 77.355 495.213 77.915C495.213 78.545 494.804 78.86 493.988 78.86C491.701 78.86 489.298 78.2767 486.778 77.11V78.125C486.778 80.5283 486.264 81.73 485.238 81.73C484.514 81.73 484.153 80.3417 484.153 77.565V74.835L484.048 73.855L484.293 72.735L484.048 69.375V69.235C484.048 68.605 484.374 68.1733 485.028 67.94C485.938 66.12 486.999 65.21 488.213 65.21ZM486.463 72.875C487.139 72.875 487.898 71.6617 488.738 69.235V67.73L488.318 67.275H488.003C486.976 67.975 486.463 69.8417 486.463 72.875ZM501.976 65.805C503.703 65.805 505.009 67.0883 505.896 69.655L506.036 70.39C506.036 72.8867 504.869 75.4417 502.536 78.055C501.603 78.9183 500.658 79.35 499.701 79.35C498.301 79.35 497.309 78.545 496.726 76.935C496.516 76.1883 496.411 75.535 496.411 74.975V74.555C496.411 70.8683 497.753 68.0683 500.436 66.155C500.903 65.9217 501.416 65.805 501.976 65.805ZM498.476 74.905C498.476 76.4917 498.884 77.285 499.701 77.285C501.404 77.285 502.816 75.1033 503.936 70.74V70.075C503.539 68.6283 502.804 67.905 501.731 67.905C501.311 67.905 501.101 68.1967 501.101 68.78C501.101 69.1767 500.634 69.4917 499.701 69.725C498.884 71.1017 498.476 72.8283 498.476 74.905ZM509.407 67.03C510.13 67.2633 510.492 67.8 510.492 68.64C510.492 69.13 510.165 69.4217 509.512 69.515H509.407C508.73 69.515 508.369 69.0717 508.322 68.185V67.975C508.322 67.3683 508.684 67.0533 509.407 67.03ZM509.617 70.74C509.944 70.74 510.317 71.055 510.737 71.685C510.504 72.315 510.387 73.1667 510.387 74.24L511.262 83.06V84.075C511.262 87.1317 510.527 89.0567 509.057 89.85L508.322 89.99C506.712 89.99 505.475 88.38 504.612 85.16L504.367 83.305V83.2C504.367 82.3833 504.74 81.975 505.487 81.975C506.117 81.975 506.432 82.6167 506.432 83.9C506.432 85.2067 506.992 86.5017 508.112 87.785L508.392 87.89C508.929 86.9333 509.197 85.8133 509.197 84.53V83.06L508.322 74.31C508.322 71.93 508.754 70.74 509.617 70.74ZM515.898 66.435C516.831 66.4583 518.406 68.0917 520.623 71.335L520.693 71.93C520.693 72.5833 519.095 73.085 515.898 73.435L515.793 73.54V73.68C516.283 75.78 516.796 76.83 517.333 76.83H517.753C518.5 76.83 519.631 76.025 521.148 74.415H521.358C521.825 74.415 522.186 74.7533 522.443 75.43C522.443 75.99 521.463 76.9583 519.503 78.335C518.99 78.6383 518.371 78.86 517.648 79C515.758 79 514.44 77.2267 513.693 73.68C512.62 73.5167 512.083 73.0733 512.083 72.35C512.083 71.8367 512.48 71.4983 513.273 71.335V71.475L513.623 71.335V70.46C513.623 67.7767 514.381 66.435 515.898 66.435ZM516.108 68.955H515.793L515.653 70.25V71.335H515.793C517.1 71.2883 517.753 71.1483 517.753 70.915C517.146 70.005 516.598 69.3517 516.108 68.955ZM527.358 67.135L528.793 66.925C529.376 66.925 529.703 67.2867 529.773 68.01C529.773 68.64 529.015 69.0483 527.498 69.235C526.541 69.9817 526.063 70.9383 526.063 72.105V73.26C526.53 75.8267 527.323 77.11 528.443 77.11H528.793C529.446 77.11 530.426 76.4917 531.733 75.255H531.943C532.41 75.255 532.783 75.5817 533.063 76.235C532.736 77.2383 531.686 78.1483 529.913 78.965C529.586 79.105 529.178 79.175 528.688 79.175C526.285 79.175 524.721 77.285 523.998 73.505V72.735C523.998 70.005 525.118 68.1383 527.358 67.135ZM538.958 57.755C539.611 57.895 539.938 58.2217 539.938 58.735L539.728 60.275V60.73C539.728 61.7567 539.845 62.8417 540.078 63.985H540.148C542.855 63.1683 544.535 62.76 545.188 62.76C545.865 62.9467 546.203 63.285 546.203 63.775C546.203 64.5683 545.398 64.965 543.788 64.965L540.148 66.26C540.148 69.41 540.486 73.6917 541.163 79.105C541.023 79.735 540.685 80.05 540.148 80.05H540.078C539.261 80.05 538.853 79 538.853 76.9C538.55 75.3367 538.293 71.9417 538.083 66.715H537.453C535.26 66.575 534.163 66.0617 534.163 65.175C534.163 64.9183 534.408 64.6033 534.898 64.23H535.248L536.858 64.65H537.978L537.663 60.275C537.663 58.595 538.095 57.755 538.958 57.755ZM565.363 60.275C566.833 60.275 567.743 61.22 568.093 63.11C567.93 64.2533 567.673 65.2333 567.323 66.05V66.19C568.816 66.19 569.948 67.24 570.718 69.34L570.823 70.635C570.59 73.4583 569.026 76.4917 566.133 79.735C564.826 80.6217 563.881 81.065 563.298 81.065C561.408 80.575 560.463 79.9217 560.463 79.105C560.556 78.7783 560.801 78.4867 561.198 78.23H561.863C562.4 78.65 562.808 78.86 563.088 78.86H563.158C564.978 78.86 566.798 76.4567 568.618 71.65L568.758 70.635V70.425C568.758 68.9783 568.245 68.255 567.218 68.255C566.121 68.255 565.328 68.7567 564.838 69.76C563.811 70.9267 563.03 71.5917 562.493 71.755C562.19 71.755 561.828 71.4283 561.408 70.775C561.408 69.8417 562.47 68.4883 564.593 66.715C565.526 65.0817 565.993 63.845 565.993 63.005C565.853 62.585 565.643 62.3283 565.363 62.235C564.36 62.235 563.31 63.5533 562.213 66.19L561.408 66.4C560.778 66.26 560.463 65.9683 560.463 65.525C561.583 62.025 563.216 60.275 565.363 60.275Z" fill="#4F4F4F"/>
<path d="M722.07 54.955C722.607 54.955 722.945 55.34 723.085 56.11C720.075 59.61 718.57 64.1367 718.57 69.69V69.9C718.57 75.36 720.075 78.8367 723.085 80.33C724.112 80.5867 724.625 81.0183 724.625 81.625C724.625 81.9983 724.287 82.325 723.61 82.605C721.58 82.045 720.017 80.9483 718.92 79.315C717.333 76.8417 716.54 73.89 716.54 70.46V69.69C716.54 64.2533 717.952 59.6333 720.775 55.83C721.358 55.2467 721.79 54.955 722.07 54.955ZM741.742 76.935C742.232 76.935 742.524 77.3317 742.617 78.125C742.477 78.9417 742.069 79.35 741.392 79.35C740.926 79.35 740.599 78.9417 740.412 78.125C740.692 77.3317 741.136 76.935 741.742 76.935ZM748.1 76.935C748.59 76.935 748.881 77.3317 748.975 78.125C748.835 78.9417 748.426 79.35 747.75 79.35C747.283 79.35 746.956 78.9417 746.77 78.125C747.05 77.3317 747.493 76.935 748.1 76.935ZM754.457 76.935C754.947 76.935 755.239 77.3317 755.332 78.125C755.192 78.9417 754.784 79.35 754.107 79.35C753.64 79.35 753.314 78.9417 753.127 78.125C753.407 77.3317 753.85 76.935 754.457 76.935ZM773.903 56.985C775.023 57.405 776.119 59.12 777.193 62.13C777.543 63.9267 777.718 65.455 777.718 66.715V66.925C777.718 72.1517 776.376 76.6783 773.693 80.505L773.133 80.715C772.409 80.5517 772.048 80.19 772.048 79.63C774.451 75.8267 775.653 71.5217 775.653 66.715C775.653 63.1917 774.708 60.3917 772.818 58.315V57.755C773.168 57.2417 773.529 56.985 773.903 56.985Z" fill="#4F4F4F"/>
<path d="M833.67 109.785C839.895 110.445 840.668 93.3659 840.685 87.4013C840.73 69.7234 843.573 30.2551 840.757 15.3873C837.734 -0.573221 810.503 2.38117 798.889 1.86816C763.977 0.325468 730.513 1.531 693.337 1.50917C684.124 1.5031 674.525 0.154461 665.441 1.87179C656.299 3.59883 653.381 10.6016 652.429 20.8061C651.721 28.3777 651.265 68.2851 651.053 80.6144C650.951 86.5487 650.698 101.634 653.719 106.279C658.133 113.072 669.642 111.934 674.576 111.921C685.457 111.89 800.793 111.65 830.19 109.744" stroke="#464646" stroke-width="2" stroke-miterlimit="1.5" stroke-linecap="round" stroke-linejoin="round"/>
<path d="M262.38 206.43C263.74 206.43 264.53 207.41 264.75 209.37C264.75 210.99 264.37 212.01 263.61 212.43H263.43C262.85 212.39 262.56 212.18 262.56 211.8L262.68 209.55V208.44L262.5 208.23H262.2C261.56 208.23 260.81 210.01 259.95 213.57L259.77 215.82V216.48C259.77 218.56 260.7 219.78 262.56 220.14H263.82C265.9 220.14 268.42 218.8 271.38 216.12H271.5C272.04 216.12 272.35 216.46 272.43 217.14C271.97 218.34 271.43 218.94 270.81 218.94C267.95 220.98 265.38 222 263.1 222C260.82 222 259.21 220.75 258.27 218.25L258 216.12V215.73C258 212.63 258.87 209.78 260.61 207.18C261.17 206.68 261.76 206.43 262.38 206.43ZM278.37 210.69C279.85 210.69 280.97 211.79 281.73 213.99L281.85 214.62C281.85 216.76 280.85 218.95 278.85 221.19C278.05 221.93 277.24 222.3 276.42 222.3C275.22 222.3 274.37 221.61 273.87 220.23C273.69 219.59 273.6 219.03 273.6 218.55V218.19C273.6 215.03 274.75 212.63 277.05 210.99C277.45 210.79 277.89 210.69 278.37 210.69ZM275.37 218.49C275.37 219.85 275.72 220.53 276.42 220.53C277.88 220.53 279.09 218.66 280.05 214.92V214.35C279.71 213.11 279.08 212.49 278.16 212.49C277.8 212.49 277.62 212.74 277.62 213.24C277.62 213.58 277.22 213.85 276.42 214.05C275.72 215.23 275.37 216.71 275.37 218.49ZM283.659 211.5C283.799 211 284.119 210.75 284.619 210.75C285.119 210.75 285.449 211.25 285.609 212.25H285.729L287.109 211.95C287.749 211.95 288.369 212.55 288.969 213.75H289.089C289.969 212.37 290.869 211.68 291.789 211.68C293.749 212.04 294.729 213.32 294.729 215.52L294.789 216.57L294.519 222.63V223.2C294.519 223.7 294.209 223.99 293.589 224.07C292.969 224.07 292.659 223.34 292.659 221.88L293.019 216.45C293.019 214.45 292.549 213.45 291.609 213.45C291.069 213.45 290.419 214.76 289.659 217.38C289.279 220.38 288.969 221.88 288.729 221.88C288.389 221.88 288.219 221.95 288.219 222.09C287.599 222.01 287.289 221.69 287.289 221.13L287.679 217.5C287.619 215 287.369 213.75 286.929 213.75H286.839C286.339 214.13 286.089 214.88 286.089 216V217.59L285.969 222.18C285.829 222.68 285.519 222.93 285.039 222.93C284.619 222.93 284.349 222.58 284.229 221.88L284.109 218.34L284.289 215.43C284.169 213.93 283.959 212.62 283.659 211.5ZM300.141 213.09C302.261 213.09 303.511 214.42 303.891 217.08C303.891 219.44 302.791 221.13 300.591 222.15C300.351 222.27 300.021 222.33 299.601 222.33H299.391L298.731 222.27V222.33L298.851 230.34C298.711 230.96 298.391 231.27 297.891 231.27C297.331 231.09 297.051 230.8 297.051 230.4L296.781 214.08C296.781 213.56 297.091 213.29 297.711 213.27L298.341 213.54C298.901 213.24 299.501 213.09 300.141 213.09ZM298.641 216.27L298.551 217.2L298.641 220.38L299.481 220.59C300.821 220.59 301.691 219.61 302.091 217.65V217.2C301.951 215.62 301.391 214.83 300.411 214.83H299.961C299.081 214.83 298.641 215.31 298.641 216.27ZM310.099 210.69C311.579 210.69 312.699 211.79 313.459 213.99L313.579 214.62C313.579 216.76 312.579 218.95 310.579 221.19C309.779 221.93 308.969 222.3 308.149 222.3C306.949 222.3 306.099 221.61 305.599 220.23C305.419 219.59 305.329 219.03 305.329 218.55V218.19C305.329 215.03 306.479 212.63 308.779 210.99C309.179 210.79 309.619 210.69 310.099 210.69ZM307.099 218.49C307.099 219.85 307.449 220.53 308.149 220.53C309.609 220.53 310.819 218.66 311.779 214.92V214.35C311.439 213.11 310.809 212.49 309.889 212.49C309.529 212.49 309.349 212.74 309.349 213.24C309.349 213.58 308.949 213.85 308.149 214.05C307.449 215.23 307.099 216.71 307.099 218.49ZM318.808 211.89C320.508 212.03 321.358 212.86 321.358 214.38L321.418 214.77L321.358 219.45C321.358 219.99 321.668 220.72 322.288 221.64V221.7C322.128 222.28 321.838 222.57 321.418 222.57C320.178 222.05 319.558 220.95 319.558 219.27V218.88L319.468 218.82L319.558 218.7V218.64L319.648 214.5C319.648 213.92 319.398 213.63 318.898 213.63H318.538C317.538 214.03 317.038 216.22 317.038 220.2C317.038 221.58 316.688 222.27 315.988 222.27C315.448 222.27 315.168 221.93 315.148 221.25V218.25C315.148 214.37 315.488 212.43 316.168 212.43L316.468 212.34L317.098 212.43C317.638 212.07 318.208 211.89 318.808 211.89ZM325.928 211.23C326.728 211.25 328.078 212.65 329.978 215.43L330.038 215.94C330.038 216.5 328.668 216.93 325.928 217.23L325.838 217.32V217.44C326.258 219.24 326.698 220.14 327.158 220.14H327.518C328.158 220.14 329.128 219.45 330.428 218.07H330.608C331.008 218.07 331.318 218.36 331.538 218.94C331.538 219.42 330.698 220.25 329.018 221.43C328.578 221.69 328.048 221.88 327.428 222C325.808 222 324.678 220.48 324.038 217.44C323.118 217.3 322.658 216.92 322.658 216.3C322.658 215.86 322.998 215.57 323.678 215.43V215.55L323.978 215.43V214.68C323.978 212.38 324.628 211.23 325.928 211.23ZM326.108 213.39H325.838L325.718 214.5V215.43H325.838C326.958 215.39 327.518 215.27 327.518 215.07C326.998 214.29 326.528 213.73 326.108 213.39ZM336.591 211.89C338.291 212.03 339.141 212.86 339.141 214.38L339.201 214.77L339.141 219.45C339.141 219.99 339.451 220.72 340.071 221.64V221.7C339.911 222.28 339.621 222.57 339.201 222.57C337.961 222.05 337.341 220.95 337.341 219.27V218.88L337.251 218.82L337.341 218.7V218.64L337.431 214.5C337.431 213.92 337.181 213.63 336.681 213.63H336.321C335.321 214.03 334.821 216.22 334.821 220.2C334.821 221.58 334.471 222.27 333.771 222.27C333.231 222.27 332.951 221.93 332.931 221.25V218.25C332.931 214.37 333.271 212.43 333.951 212.43L334.251 212.34L334.881 212.43C335.421 212.07 335.991 211.89 336.591 211.89ZM344.551 203.79C345.111 203.91 345.391 204.19 345.391 204.63L345.211 205.95V206.34C345.211 207.22 345.311 208.15 345.511 209.13H345.571C347.891 208.43 349.331 208.08 349.891 208.08C350.471 208.24 350.761 208.53 350.761 208.95C350.761 209.63 350.071 209.97 348.691 209.97L345.571 211.08C345.571 213.78 345.861 217.45 346.441 222.09C346.321 222.63 346.031 222.9 345.571 222.9H345.511C344.811 222.9 344.461 222 344.461 220.2C344.201 218.86 343.981 215.95 343.801 211.47H343.261C341.381 211.35 340.441 210.91 340.441 210.15C340.441 209.93 340.651 209.66 341.071 209.34H341.371L342.751 209.7H343.711L343.441 205.95C343.441 204.51 343.811 203.79 344.551 203.79ZM369.224 204.18L369.974 203.94C370.654 203.94 370.994 204.84 370.994 206.64L371.924 213.57L372.044 213.69L375.494 212.43C375.954 212.43 376.204 212.78 376.244 213.48C376.244 214 374.974 214.63 372.434 215.37L372.314 215.43V215.55C372.314 215.97 372.974 218.16 374.294 222.12V222.18C374.294 222.56 373.984 222.88 373.364 223.14C372.784 223.14 372.404 222.45 372.224 221.07C371.764 220.07 371.204 218.42 370.544 216.12H370.424C367.804 216.66 366.494 217.12 366.494 217.5C365.054 220.62 363.964 222.18 363.224 222.18C362.804 222.18 362.554 221.91 362.474 221.37C362.474 220.89 363.004 219.95 364.064 218.55L364.544 217.5H363.794L363.224 217.62C362.484 217.44 362.114 217.06 362.114 216.48C362.414 215.78 362.854 215.43 363.434 215.43L364.184 215.73C365.304 215.73 365.864 215.32 365.864 214.5C366.884 212.1 368.004 208.66 369.224 204.18ZM369.494 209.64L367.724 214.98C369.364 214.66 370.184 214.35 370.184 214.05C369.884 211.11 369.654 209.64 369.494 209.64Z" fill="#5C55A3"/>
<path d="M93 147.153C122.945 149.068 154.754 149 185.165 149C218.969 149 252.445 145.718 286.066 145.306C307.483 145.044 329.703 144.519 350.956 146.024C385.912 148.5 422.907 145.306 458.006 145.306C553.853 145.306 650.399 145.306 746 145.306" stroke="#464646" stroke-width="2" stroke-linecap="round"/>
<path d="M92.7355 146.473C92.7355 143.1 92.0621 139.787 92.0621 136.521C92.0621 132.818 92.7355 129.223 92.7355 125.597C92.7355 122.248 92.9213 124.844 92.7355 121.5" stroke="#464646" stroke-width="2" stroke-linecap="round"/>
<path d="M86.0149 121.222C87.2117 121.222 88.4791 121.311 89.691 121.109C90.2755 121.012 90.8954 121.072 91.4851 121.072C92.5942 121.072 93.6878 121.051 94.789 121.072C95.3855 121.083 95.9779 120.997 96.579 120.997C96.8003 120.997 97.082 120.973 97.2816 120.879C97.6981 120.685 98.2042 120.691 98.6031 120.474C98.6766 120.434 98.4197 120.268 98.3898 120.227C98.0446 119.749 97.59 119.322 97.1854 118.893C96.7175 118.396 96.1315 118.023 95.6254 117.567C95.2651 117.243 94.9767 116.842 94.6552 116.48C93.8865 115.615 92.9605 114.919 92.1459 114.104C91.9547 113.913 91.7588 113.75 91.5479 113.586C91.352 113.433 89.9646 115.054 89.7872 115.301C89.0292 116.353 88.6317 117.638 87.8216 118.68C87.5486 119.031 87.3147 119.459 87.0102 119.775C86.8596 119.932 86.7481 120.175 86.5418 120.244" stroke="#464646" stroke-width="2" stroke-linecap="round"/>
<path d="M315.891 175C315.891 167.573 315 160.275 315 153.083C315 144.927 315.891 137.009 315.891 129.024C315.891 121.647 316.137 127.364 315.891 120" stroke="#464646" stroke-width="2" stroke-linecap="round"/>
<path d="M309 119.647C310.197 119.647 311.464 119.736 312.676 119.534C313.261 119.436 313.881 119.496 314.47 119.496C315.579 119.496 316.673 119.476 317.774 119.496C318.371 119.507 318.963 119.421 319.564 119.421C319.785 119.421 320.067 119.397 320.267 119.304C320.683 119.109 321.189 119.116 321.588 118.898C321.662 118.858 321.405 118.693 321.375 118.651C321.03 118.173 320.575 117.747 320.17 117.317C319.703 116.821 319.117 116.448 318.611 115.991C318.25 115.667 317.962 115.266 317.64 114.904C316.872 114.039 315.946 113.343 315.131 112.529C314.94 112.337 314.744 112.174 314.533 112.01C314.337 111.858 312.95 113.478 312.772 113.725C312.014 114.778 311.617 116.062 310.807 117.104C310.534 117.455 310.3 117.883 309.995 118.2C309.845 118.356 309.733 118.599 309.527 118.668" stroke="#464646" stroke-width="2" stroke-linecap="round"/>
<path d="M526.721 144.897C526.721 141.525 526.047 138.211 526.047 134.946C526.047 131.242 526.721 127.647 526.721 124.021C526.721 120.672 526.906 123.268 526.721 119.924" stroke="#464646" stroke-width="2" stroke-linecap="round"/>
<path d="M520 119.647C521.197 119.647 522.464 119.736 523.676 119.534C524.261 119.436 524.881 119.496 525.47 119.496C526.579 119.496 527.673 119.476 528.774 119.496C529.371 119.507 529.963 119.421 530.564 119.421C530.785 119.421 531.067 119.397 531.267 119.304C531.683 119.109 532.189 119.116 532.588 118.898C532.662 118.858 532.405 118.693 532.375 118.651C532.03 118.173 531.575 117.747 531.17 117.317C530.703 116.821 530.117 116.448 529.611 115.991C529.25 115.667 528.962 115.266 528.64 114.904C527.872 114.039 526.946 113.343 526.131 112.529C525.94 112.337 525.744 112.174 525.533 112.01C525.337 111.858 523.95 113.478 523.772 113.725C523.014 114.778 522.617 116.062 521.807 117.104C521.534 117.455 521.3 117.883 520.995 118.2C520.845 118.356 520.733 118.599 520.527 118.668" stroke="#464646" stroke-width="2" stroke-linecap="round"/>
<path d="M746.721 144.897C746.721 141.525 746.047 138.211 746.047 134.946C746.047 131.242 746.721 127.647 746.721 124.021C746.721 120.672 746.906 123.268 746.721 119.924" stroke="#464646" stroke-width="2" stroke-linecap="round"/>
<path d="M740 119.647C741.197 119.647 742.464 119.736 743.676 119.534C744.261 119.436 744.881 119.496 745.47 119.496C746.579 119.496 747.673 119.476 748.774 119.496C749.371 119.507 749.963 119.421 750.564 119.421C750.785 119.421 751.067 119.397 751.267 119.304C751.683 119.109 752.189 119.116 752.588 118.898C752.662 118.858 752.405 118.693 752.375 118.651C752.03 118.173 751.575 117.747 751.17 117.317C750.703 116.821 750.117 116.448 749.611 115.991C749.25 115.667 748.962 115.266 748.64 114.904C747.872 114.039 746.946 113.343 746.131 112.529C745.94 112.337 745.744 112.174 745.533 112.01C745.337 111.858 743.95 113.478 743.772 113.725C743.014 114.778 742.617 116.062 741.807 117.104C741.534 117.455 741.3 117.883 740.995 118.2C740.845 118.356 740.733 118.599 740.527 118.668" stroke="#464646" stroke-width="2" stroke-linecap="round"/>
<path d="M394.499 234.182C400.104 234.425 400.801 228.117 400.815 225.914C400.856 219.384 403.417 204.806 400.88 199.314C398.159 193.419 373.636 194.51 363.177 194.321C331.739 193.751 301.603 194.196 268.125 194.188C259.829 194.186 251.185 193.688 243.004 194.322C234.772 194.96 232.144 197.547 231.286 201.316C230.649 204.112 230.239 218.853 230.048 223.407C229.956 225.599 229.728 231.171 232.448 232.887C236.424 235.396 246.788 234.976 251.231 234.971C261.029 234.959 364.892 234.871 391.365 234.167" stroke="#464646" stroke-width="2" stroke-miterlimit="1.5" stroke-linecap="round" stroke-linejoin="round"/>
<path d="M568 229C568 226.013 568 223.044 568 220" stroke="#464646" stroke-width="3" stroke-linecap="round"/>
<path d="M549.49 225.956C549.263 222.995 549.533 220.013 549.302 216.996" stroke="#464646" stroke-width="3" stroke-linecap="round"/>
<path d="M533 232C533.357 232.399 533.543 233.176 533.688 233.69C534.379 236.131 535.908 238.238 537.352 240.283C541.538 246.212 547.53 250.941 554.513 253.07C557.435 253.961 560.691 254.283 563.718 253.721C565.061 253.472 566.381 253.238 567.636 252.698C568.614 252.278 569.47 251.629 570.416 251.135C572.388 250.105 574.139 248.336 575.686 246.757C576.384 246.044 576.794 245.071 577.36 244.255C577.591 243.923 578.106 243.479 577.981 243.106" stroke="#464646" stroke-width="3" stroke-linecap="round"/>
<defs>
<linearGradient id="paint0_linear_3_148" x1="746.5" y1="1" x2="746.5" y2="112" gradientUnits="userSpaceOnUse">
<stop stop-color="#5C55A3"/>
<stop offset="1" stop-color="#5C55A3" stop-opacity="0"/>
</linearGradient>
<linearGradient id="paint1_linear_3_148" x1="95.5" y1="0" x2="95.5" y2="111" gradientUnits="userSpaceOnUse">
<stop stop-color="#5C55A3"/>
<stop offset="1" stop-color="#5C55A3" stop-opacity="0"/>
</linearGradient>
<linearGradient id="paint2_linear_3_148" x1="128" y1="0" x2="128" y2="111" gradientUnits="userSpaceOnUse">
<stop stop-color="#5C55A3"/>
<stop offset="1" stop-color="#5C55A3" stop-opacity="0"/>
</linearGradient>
<linearGradient id="paint3_linear_3_148" x1="516.5" y1="1" x2="516.5" y2="112" gradientUnits="userSpaceOnUse">
<stop stop-color="#5C55A3"/>
<stop offset="1" stop-color="#5C55A3" stop-opacity="0"/>
</linearGradient>
<linearGradient id="paint4_linear_3_148" x1="96.5" y1="1" x2="96.5" y2="112" gradientUnits="userSpaceOnUse">
<stop stop-color="#5C55A3"/>
<stop offset="1" stop-color="#5C55A3" stop-opacity="0"/>
</linearGradient>
</defs>
</svg>
