<svg width="851" height="663" viewBox="0 0 851 663" fill="none" xmlns="http://www.w3.org/2000/svg">
<rect width="191" height="160" rx="25" transform="matrix(-1 0 0 1 411 44)" fill="url(#paint0_linear_5_205)" fill-opacity="0.09"/>
<path d="M228.33 200.807C222.105 201.758 221.332 177.14 221.315 168.542C221.27 143.061 218.427 86.1695 221.243 64.7385C224.266 41.7323 251.497 45.9909 263.111 45.2514C298.023 43.0277 331.487 44.7654 368.663 44.7339C377.876 44.7252 387.475 42.7812 396.559 45.2566C405.701 47.7461 408.619 57.8401 409.571 72.5494C410.279 83.4633 410.735 140.987 410.947 158.76C411.049 167.313 411.302 189.057 408.281 195.753C403.867 205.545 392.358 203.905 387.424 203.886C376.543 203.842 261.207 203.496 231.81 200.748" stroke="#2C2C2C" stroke-width="2" stroke-miterlimit="1.5" stroke-linecap="round" stroke-linejoin="round"/>
<rect x="430" y="44" width="191" height="160" rx="25" fill="url(#paint1_linear_5_205)" fill-opacity="0.09"/>
<path d="M612.67 200.807C618.895 201.758 619.668 177.14 619.685 168.542C619.73 143.061 622.573 86.1695 619.757 64.7385C616.734 41.7323 589.503 45.9909 577.889 45.2514C542.977 43.0277 509.513 44.7654 472.337 44.7339C463.124 44.7252 453.525 42.7812 444.441 45.2566C435.299 47.7461 432.381 57.8401 431.429 72.5494C430.721 83.4633 430.265 140.987 430.053 158.76C429.951 167.313 429.698 189.057 432.719 195.753C437.133 205.545 448.642 203.905 453.576 203.886C464.457 203.842 579.793 203.496 609.19 200.748" stroke="#464646" stroke-width="2" stroke-miterlimit="1.5" stroke-linecap="round" stroke-linejoin="round"/>
<rect x="10" y="44" width="191" height="160" rx="25" fill="url(#paint2_linear_5_205)" fill-opacity="0.09"/>
<path d="M192.67 200.807C198.895 201.758 199.668 177.14 199.685 168.542C199.73 143.061 202.573 86.1695 199.757 64.7385C196.734 41.7323 169.503 45.9909 157.889 45.2514C122.977 43.0277 89.5127 44.7654 52.3367 44.7339C43.1244 44.7252 33.5254 42.7812 24.441 45.2566C15.2988 47.7461 12.3814 57.8401 11.4285 72.5494C10.7211 83.4633 10.2652 140.987 10.0528 158.76C9.9507 167.313 9.69804 189.057 12.7186 195.753C17.1335 205.545 28.6424 203.905 33.5759 203.886C44.4568 203.842 159.793 203.496 189.19 200.748" stroke="#2C2C2C" stroke-width="2" stroke-miterlimit="1.5" stroke-linecap="round" stroke-linejoin="round"/>
<rect x="19" y="155" width="172" height="41" rx="10" fill="#F6F3D4" fill-opacity="0.8"/>
<path d="M55.16 101.72H55.8C60.1467 101.72 62.9333 103.293 64.16 106.44L64.28 107.72V108.12C64.28 111.213 62.4 114.08 58.64 116.72C57.7333 116.987 57.28 117.28 57.28 117.6C58.3467 121.68 58.88 125.013 58.88 127.6V128.12C58.88 129.187 58.44 129.72 57.56 129.72C56.8933 129.64 56.56 129.307 56.56 128.72V127.72C56.56 124.653 56 121.32 54.88 117.72C52.72 117.533 51.52 116.947 51.28 115.96V115.72C51.28 115.24 51.6533 114.867 52.4 114.6L54.16 115.2V115.12C53.2533 111.173 52.8 108.507 52.8 107.12C52.8 106.347 53.2533 105.96 54.16 105.96C54.9867 105.96 55.4 107.373 55.4 110.2L56.56 114.96C58.48 114.32 59.9733 113.067 61.04 111.2C61.6 110.133 61.88 109.187 61.88 108.36V107.84C61.88 105.653 60.0133 104.413 56.28 104.12H54.64C50.9867 104.52 49.16 105.387 49.16 106.72V106.96C49.16 107.36 49.3733 107.987 49.8 108.84C49.8 109.427 49.3333 109.8 48.4 109.96C47.3333 109.453 46.8 108.413 46.8 106.84C46.8 103.907 49.5867 102.2 55.16 101.72ZM71.2431 112.24C72.9231 112.24 73.9231 113.413 74.2431 115.76V116.12C74.2431 118.707 72.9098 121.08 70.2431 123.24C71.7898 124.76 74.4965 125.52 78.3631 125.52C78.9498 125.707 79.2431 126.12 79.2431 126.76C79.2431 127.48 78.7765 127.84 77.8431 127.84C75.2298 127.84 72.4831 127.173 69.6031 125.84V127C69.6031 129.747 69.0165 131.12 67.8431 131.12C67.0165 131.12 66.6031 129.533 66.6031 126.36V123.24L66.4831 122.12L66.7631 120.84L66.4831 117V116.84C66.4831 116.12 66.8565 115.627 67.6031 115.36C68.6431 113.28 69.8565 112.24 71.2431 112.24ZM69.2431 121C70.0165 121 70.8831 119.613 71.8431 116.84V115.12L71.3631 114.6H71.0031C69.8298 115.4 69.2431 117.533 69.2431 121ZM86.9725 112.92C88.9458 112.92 90.4392 114.387 91.4525 117.32L91.6125 118.16C91.6125 121.013 90.2792 123.933 87.6125 126.92C86.5458 127.907 85.4658 128.4 84.3725 128.4C82.7725 128.4 81.6392 127.48 80.9725 125.64C80.7325 124.787 80.6125 124.04 80.6125 123.4V122.92C80.6125 118.707 82.1458 115.507 85.2125 113.32C85.7458 113.053 86.3325 112.92 86.9725 112.92ZM82.9725 123.32C82.9725 125.133 83.4392 126.04 84.3725 126.04C86.3192 126.04 87.9325 123.547 89.2125 118.56V117.8C88.7592 116.147 87.9192 115.32 86.6925 115.32C86.2125 115.32 85.9725 115.653 85.9725 116.32C85.9725 116.773 85.4392 117.133 84.3725 117.4C83.4392 118.973 82.9725 120.947 82.9725 123.32ZM95.465 114.32C96.2917 114.587 96.705 115.2 96.705 116.16C96.705 116.72 96.3317 117.053 95.585 117.16H95.465C94.6917 117.16 94.2783 116.653 94.225 115.64V115.4C94.225 114.707 94.6383 114.347 95.465 114.32ZM95.705 118.56C96.0783 118.56 96.505 118.92 96.985 119.64C96.7183 120.36 96.585 121.333 96.585 122.56L97.585 132.64V133.8C97.585 137.293 96.745 139.493 95.065 140.4L94.225 140.56C92.385 140.56 90.9717 138.72 89.985 135.04L89.705 132.92V132.8C89.705 131.867 90.1317 131.4 90.985 131.4C91.705 131.4 92.065 132.133 92.065 133.6C92.065 135.093 92.705 136.573 93.985 138.04L94.305 138.16C94.9183 137.067 95.225 135.787 95.225 134.32V132.64L94.225 122.64C94.225 119.92 94.7183 118.56 95.705 118.56ZM102.883 113.64C103.95 113.667 105.75 115.533 108.283 119.24L108.363 119.92C108.363 120.667 106.537 121.24 102.883 121.64L102.763 121.76V121.92C103.323 124.32 103.91 125.52 104.523 125.52H105.003C105.857 125.52 107.15 124.6 108.883 122.76H109.123C109.657 122.76 110.07 123.147 110.363 123.92C110.363 124.56 109.243 125.667 107.003 127.24C106.417 127.587 105.71 127.84 104.883 128C102.723 128 101.217 125.973 100.363 121.92C99.1368 121.733 98.5234 121.227 98.5234 120.4C98.5234 119.813 98.9768 119.427 99.8834 119.24V119.4L100.283 119.24V118.24C100.283 115.173 101.15 113.64 102.883 113.64ZM103.123 116.52H102.763L102.603 118V119.24H102.763C104.257 119.187 105.003 119.027 105.003 118.76C104.31 117.72 103.683 116.973 103.123 116.52ZM115.981 114.44L117.621 114.2C118.287 114.2 118.661 114.613 118.741 115.44C118.741 116.16 117.874 116.627 116.141 116.84C115.047 117.693 114.501 118.787 114.501 120.12V121.44C115.034 124.373 115.941 125.84 117.221 125.84H117.621C118.367 125.84 119.487 125.133 120.981 123.72H121.221C121.754 123.72 122.181 124.093 122.501 124.84C122.127 125.987 120.927 127.027 118.901 127.96C118.527 128.12 118.061 128.2 117.501 128.2C114.754 128.2 112.967 126.04 112.141 121.72V120.84C112.141 117.72 113.421 115.587 115.981 114.44ZM129.238 103.72C129.984 103.88 130.358 104.253 130.358 104.84L130.118 106.6V107.12C130.118 108.293 130.251 109.533 130.518 110.84H130.598C133.691 109.907 135.611 109.44 136.358 109.44C137.131 109.653 137.518 110.04 137.518 110.6C137.518 111.507 136.598 111.96 134.758 111.96L130.598 113.44C130.598 117.04 130.984 121.933 131.758 128.12C131.598 128.84 131.211 129.2 130.598 129.2H130.518C129.584 129.2 129.118 128 129.118 125.6C128.771 123.813 128.478 119.933 128.238 113.96H127.518C125.011 113.8 123.758 113.213 123.758 112.2C123.758 111.907 124.038 111.547 124.598 111.12H124.998L126.838 111.6H128.118L127.758 106.6C127.758 104.68 128.251 103.72 129.238 103.72ZM154.495 108.64C154.655 107.973 155.135 107.64 155.935 107.64C156.735 107.64 157.135 109.347 157.135 112.76L157.255 114.92L156.895 127.52C156.708 128.347 156.295 128.76 155.655 128.76C154.881 128.467 154.495 128.053 154.495 127.52L154.895 115.16L154.495 108.64Z" fill="#464646"/>
<path d="M262.16 97.72H262.8C267.147 97.72 269.933 99.2933 271.16 102.44L271.28 103.72V104.12C271.28 107.213 269.4 110.08 265.64 112.72C264.733 112.987 264.28 113.28 264.28 113.6C265.347 117.68 265.88 121.013 265.88 123.6V124.12C265.88 125.187 265.44 125.72 264.56 125.72C263.893 125.64 263.56 125.307 263.56 124.72V123.72C263.56 120.653 263 117.32 261.88 113.72C259.72 113.533 258.52 112.947 258.28 111.96V111.72C258.28 111.24 258.653 110.867 259.4 110.6L261.16 111.2V111.12C260.253 107.173 259.8 104.507 259.8 103.12C259.8 102.347 260.253 101.96 261.16 101.96C261.987 101.96 262.4 103.373 262.4 106.2L263.56 110.96C265.48 110.32 266.973 109.067 268.04 107.2C268.6 106.133 268.88 105.187 268.88 104.36V103.84C268.88 101.653 267.013 100.413 263.28 100.12H261.64C257.987 100.52 256.16 101.387 256.16 102.72V102.96C256.16 103.36 256.373 103.987 256.8 104.84C256.8 105.427 256.333 105.8 255.4 105.96C254.333 105.453 253.8 104.413 253.8 102.84C253.8 99.9067 256.587 98.2 262.16 97.72ZM278.243 108.24C279.923 108.24 280.923 109.413 281.243 111.76V112.12C281.243 114.707 279.91 117.08 277.243 119.24C278.79 120.76 281.496 121.52 285.363 121.52C285.95 121.707 286.243 122.12 286.243 122.76C286.243 123.48 285.776 123.84 284.843 123.84C282.23 123.84 279.483 123.173 276.603 121.84V123C276.603 125.747 276.016 127.12 274.843 127.12C274.016 127.12 273.603 125.533 273.603 122.36V119.24L273.483 118.12L273.763 116.84L273.483 113V112.84C273.483 112.12 273.856 111.627 274.603 111.36C275.643 109.28 276.856 108.24 278.243 108.24ZM276.243 117C277.016 117 277.883 115.613 278.843 112.84V111.12L278.363 110.6H278.003C276.83 111.4 276.243 113.533 276.243 117ZM293.973 108.92C295.946 108.92 297.439 110.387 298.453 113.32L298.613 114.16C298.613 117.013 297.279 119.933 294.613 122.92C293.546 123.907 292.466 124.4 291.373 124.4C289.773 124.4 288.639 123.48 287.973 121.64C287.733 120.787 287.613 120.04 287.613 119.4V118.92C287.613 114.707 289.146 111.507 292.213 109.32C292.746 109.053 293.333 108.92 293.973 108.92ZM289.973 119.32C289.973 121.133 290.439 122.04 291.373 122.04C293.319 122.04 294.933 119.547 296.213 114.56V113.8C295.759 112.147 294.919 111.32 293.693 111.32C293.213 111.32 292.973 111.653 292.973 112.32C292.973 112.773 292.439 113.133 291.373 113.4C290.439 114.973 289.973 116.947 289.973 119.32ZM302.465 110.32C303.292 110.587 303.705 111.2 303.705 112.16C303.705 112.72 303.332 113.053 302.585 113.16H302.465C301.692 113.16 301.278 112.653 301.225 111.64V111.4C301.225 110.707 301.638 110.347 302.465 110.32ZM302.705 114.56C303.078 114.56 303.505 114.92 303.985 115.64C303.718 116.36 303.585 117.333 303.585 118.56L304.585 128.64V129.8C304.585 133.293 303.745 135.493 302.065 136.4L301.225 136.56C299.385 136.56 297.972 134.72 296.985 131.04L296.705 128.92V128.8C296.705 127.867 297.132 127.4 297.985 127.4C298.705 127.4 299.065 128.133 299.065 129.6C299.065 131.093 299.705 132.573 300.985 134.04L301.305 134.16C301.918 133.067 302.225 131.787 302.225 130.32V128.64L301.225 118.64C301.225 115.92 301.718 114.56 302.705 114.56ZM309.883 109.64C310.95 109.667 312.75 111.533 315.283 115.24L315.363 115.92C315.363 116.667 313.537 117.24 309.883 117.64L309.763 117.76V117.92C310.323 120.32 310.91 121.52 311.523 121.52H312.003C312.857 121.52 314.15 120.6 315.883 118.76H316.123C316.657 118.76 317.07 119.147 317.363 119.92C317.363 120.56 316.243 121.667 314.003 123.24C313.417 123.587 312.71 123.84 311.883 124C309.723 124 308.217 121.973 307.363 117.92C306.137 117.733 305.523 117.227 305.523 116.4C305.523 115.813 305.977 115.427 306.883 115.24V115.4L307.283 115.24V114.24C307.283 111.173 308.15 109.64 309.883 109.64ZM310.123 112.52H309.763L309.603 114V115.24H309.763C311.257 115.187 312.003 115.027 312.003 114.76C311.31 113.72 310.683 112.973 310.123 112.52ZM322.981 110.44L324.621 110.2C325.287 110.2 325.661 110.613 325.741 111.44C325.741 112.16 324.874 112.627 323.141 112.84C322.047 113.693 321.501 114.787 321.501 116.12V117.44C322.034 120.373 322.941 121.84 324.221 121.84H324.621C325.367 121.84 326.487 121.133 327.981 119.72H328.221C328.754 119.72 329.181 120.093 329.501 120.84C329.127 121.987 327.927 123.027 325.901 123.96C325.527 124.12 325.061 124.2 324.501 124.2C321.754 124.2 319.967 122.04 319.141 117.72V116.84C319.141 113.72 320.421 111.587 322.981 110.44ZM336.238 99.72C336.984 99.88 337.358 100.253 337.358 100.84L337.118 102.6V103.12C337.118 104.293 337.251 105.533 337.518 106.84H337.598C340.691 105.907 342.611 105.44 343.358 105.44C344.131 105.653 344.518 106.04 344.518 106.6C344.518 107.507 343.598 107.96 341.758 107.96L337.598 109.44C337.598 113.04 337.984 117.933 338.758 124.12C338.598 124.84 338.211 125.2 337.598 125.2H337.518C336.584 125.2 336.118 124 336.118 121.6C335.771 119.813 335.478 115.933 335.238 109.96H334.518C332.011 109.8 330.758 109.213 330.758 108.2C330.758 107.907 331.038 107.547 331.598 107.12H331.998L333.838 107.6H335.118L334.758 102.6C334.758 100.68 335.251 99.72 336.238 99.72ZM367.535 102.4C369.588 102.4 370.788 103.853 371.135 106.76C371.135 109.453 369.028 114.667 364.815 122.4V122.64C365.908 122.64 368.241 121.68 371.815 119.76H371.895C372.428 119.76 372.841 120.147 373.135 120.92C373.135 122.28 369.468 123.947 362.135 125.92C361.708 125.92 361.348 125.533 361.055 124.76C362.095 122.387 364.121 118.387 367.135 112.76C368.148 110.04 368.655 108.2 368.655 107.24V106C368.655 105.467 368.375 105.053 367.815 104.76H367.295C366.255 104.76 365.255 106.013 364.295 108.52L364.415 109C364.415 109.507 364.041 109.92 363.295 110.24C362.308 110.053 361.815 109.56 361.815 108.76C361.815 107.24 362.975 105.373 365.295 103.16C365.961 102.653 366.708 102.4 367.535 102.4Z" fill="#464646"/>
<path d="M469.16 101.72H469.8C474.147 101.72 476.933 103.293 478.16 106.44L478.28 107.72V108.12C478.28 111.213 476.4 114.08 472.64 116.72C471.733 116.987 471.28 117.28 471.28 117.6C472.347 121.68 472.88 125.013 472.88 127.6V128.12C472.88 129.187 472.44 129.72 471.56 129.72C470.893 129.64 470.56 129.307 470.56 128.72V127.72C470.56 124.653 470 121.32 468.88 117.72C466.72 117.533 465.52 116.947 465.28 115.96V115.72C465.28 115.24 465.653 114.867 466.4 114.6L468.16 115.2V115.12C467.253 111.173 466.8 108.507 466.8 107.12C466.8 106.347 467.253 105.96 468.16 105.96C468.987 105.96 469.4 107.373 469.4 110.2L470.56 114.96C472.48 114.32 473.973 113.067 475.04 111.2C475.6 110.133 475.88 109.187 475.88 108.36V107.84C475.88 105.653 474.013 104.413 470.28 104.12H468.64C464.987 104.52 463.16 105.387 463.16 106.72V106.96C463.16 107.36 463.373 107.987 463.8 108.84C463.8 109.427 463.333 109.8 462.4 109.96C461.333 109.453 460.8 108.413 460.8 106.84C460.8 103.907 463.587 102.2 469.16 101.72ZM485.243 112.24C486.923 112.24 487.923 113.413 488.243 115.76V116.12C488.243 118.707 486.91 121.08 484.243 123.24C485.79 124.76 488.496 125.52 492.363 125.52C492.95 125.707 493.243 126.12 493.243 126.76C493.243 127.48 492.776 127.84 491.843 127.84C489.23 127.84 486.483 127.173 483.603 125.84V127C483.603 129.747 483.016 131.12 481.843 131.12C481.016 131.12 480.603 129.533 480.603 126.36V123.24L480.483 122.12L480.763 120.84L480.483 117V116.84C480.483 116.12 480.856 115.627 481.603 115.36C482.643 113.28 483.856 112.24 485.243 112.24ZM483.243 121C484.016 121 484.883 119.613 485.843 116.84V115.12L485.363 114.6H485.003C483.83 115.4 483.243 117.533 483.243 121ZM500.973 112.92C502.946 112.92 504.439 114.387 505.453 117.32L505.613 118.16C505.613 121.013 504.279 123.933 501.613 126.92C500.546 127.907 499.466 128.4 498.373 128.4C496.773 128.4 495.639 127.48 494.973 125.64C494.733 124.787 494.613 124.04 494.613 123.4V122.92C494.613 118.707 496.146 115.507 499.213 113.32C499.746 113.053 500.333 112.92 500.973 112.92ZM496.973 123.32C496.973 125.133 497.439 126.04 498.373 126.04C500.319 126.04 501.933 123.547 503.213 118.56V117.8C502.759 116.147 501.919 115.32 500.693 115.32C500.213 115.32 499.973 115.653 499.973 116.32C499.973 116.773 499.439 117.133 498.373 117.4C497.439 118.973 496.973 120.947 496.973 123.32ZM509.465 114.32C510.292 114.587 510.705 115.2 510.705 116.16C510.705 116.72 510.332 117.053 509.585 117.16H509.465C508.692 117.16 508.278 116.653 508.225 115.64V115.4C508.225 114.707 508.638 114.347 509.465 114.32ZM509.705 118.56C510.078 118.56 510.505 118.92 510.985 119.64C510.718 120.36 510.585 121.333 510.585 122.56L511.585 132.64V133.8C511.585 137.293 510.745 139.493 509.065 140.4L508.225 140.56C506.385 140.56 504.972 138.72 503.985 135.04L503.705 132.92V132.8C503.705 131.867 504.132 131.4 504.985 131.4C505.705 131.4 506.065 132.133 506.065 133.6C506.065 135.093 506.705 136.573 507.985 138.04L508.305 138.16C508.918 137.067 509.225 135.787 509.225 134.32V132.64L508.225 122.64C508.225 119.92 508.718 118.56 509.705 118.56ZM516.883 113.64C517.95 113.667 519.75 115.533 522.283 119.24L522.363 119.92C522.363 120.667 520.537 121.24 516.883 121.64L516.763 121.76V121.92C517.323 124.32 517.91 125.52 518.523 125.52H519.003C519.857 125.52 521.15 124.6 522.883 122.76H523.123C523.657 122.76 524.07 123.147 524.363 123.92C524.363 124.56 523.243 125.667 521.003 127.24C520.417 127.587 519.71 127.84 518.883 128C516.723 128 515.217 125.973 514.363 121.92C513.137 121.733 512.523 121.227 512.523 120.4C512.523 119.813 512.977 119.427 513.883 119.24V119.4L514.283 119.24V118.24C514.283 115.173 515.15 113.64 516.883 113.64ZM517.123 116.52H516.763L516.603 118V119.24H516.763C518.257 119.187 519.003 119.027 519.003 118.76C518.31 117.72 517.683 116.973 517.123 116.52ZM529.981 114.44L531.621 114.2C532.287 114.2 532.661 114.613 532.741 115.44C532.741 116.16 531.874 116.627 530.141 116.84C529.047 117.693 528.501 118.787 528.501 120.12V121.44C529.034 124.373 529.941 125.84 531.221 125.84H531.621C532.367 125.84 533.487 125.133 534.981 123.72H535.221C535.754 123.72 536.181 124.093 536.501 124.84C536.127 125.987 534.927 127.027 532.901 127.96C532.527 128.12 532.061 128.2 531.501 128.2C528.754 128.2 526.967 126.04 526.141 121.72V120.84C526.141 117.72 527.421 115.587 529.981 114.44ZM543.238 103.72C543.984 103.88 544.358 104.253 544.358 104.84L544.118 106.6V107.12C544.118 108.293 544.251 109.533 544.518 110.84H544.598C547.691 109.907 549.611 109.44 550.358 109.44C551.131 109.653 551.518 110.04 551.518 110.6C551.518 111.507 550.598 111.96 548.758 111.96L544.598 113.44C544.598 117.04 544.984 121.933 545.758 128.12C545.598 128.84 545.211 129.2 544.598 129.2H544.518C543.584 129.2 543.118 128 543.118 125.6C542.771 123.813 542.478 119.933 542.238 113.96H541.518C539.011 113.8 537.758 113.213 537.758 112.2C537.758 111.907 538.038 111.547 538.598 111.12H538.998L540.838 111.6H542.118L541.758 106.6C541.758 104.68 542.251 103.72 543.238 103.72ZM573.415 106.6C575.095 106.6 576.135 107.68 576.535 109.84C576.348 111.147 576.055 112.267 575.655 113.2V113.36C577.361 113.36 578.655 114.56 579.535 116.96L579.655 118.44C579.388 121.667 577.601 125.133 574.295 128.84C572.801 129.853 571.721 130.36 571.055 130.36C568.895 129.8 567.815 129.053 567.815 128.12C567.921 127.747 568.201 127.413 568.655 127.12H569.415C570.028 127.6 570.495 127.84 570.815 127.84H570.895C572.975 127.84 575.055 125.093 577.135 119.6L577.295 118.44V118.2C577.295 116.547 576.708 115.72 575.535 115.72C574.281 115.72 573.375 116.293 572.815 117.44C571.641 118.773 570.748 119.533 570.135 119.72C569.788 119.72 569.375 119.347 568.895 118.6C568.895 117.533 570.108 115.987 572.535 113.96C573.601 112.093 574.135 110.68 574.135 109.72C573.975 109.24 573.735 108.947 573.415 108.84C572.268 108.84 571.068 110.347 569.815 113.36L568.895 113.6C568.175 113.44 567.815 113.107 567.815 112.6C569.095 108.6 570.961 106.6 573.415 106.6Z" fill="#4F4F4F"/>
<path d="M51.235 164.09C52.425 164.09 53.125 164.522 53.335 165.385C53.335 165.735 52.9967 166.108 52.32 166.505L51.165 166.19H51.025C49.7183 166.19 48.225 168.045 46.545 171.755C46.3117 172.665 46.195 173.54 46.195 174.38V175.815H46.335C49.1817 175.138 51.0017 174.8 51.795 174.8C52.8217 174.987 53.335 175.395 53.335 176.025C53.125 176.678 52.7867 177.005 52.32 177.005L51.69 176.9C49.31 177.11 47.56 177.472 46.44 177.985V178.23L46.86 183.9C46.86 186.583 46.3233 187.925 45.25 187.925C44.8767 187.925 44.5383 187.633 44.235 187.05C44.6083 186.093 44.795 184.892 44.795 183.445C44.795 181.975 44.655 180.307 44.375 178.44L42.695 178.65C41.1783 178.51 40.42 178.032 40.42 177.215C40.6533 176.562 41.0267 176.235 41.54 176.235L42.415 176.48H43.045L44.165 176.34V174.38C44.165 170.763 45.7633 167.59 48.96 164.86C49.6833 164.347 50.4417 164.09 51.235 164.09ZM58.0679 173.435C59.0013 173.458 60.5763 175.092 62.7929 178.335L62.8629 178.93C62.8629 179.583 61.2646 180.085 58.0679 180.435L57.9629 180.54V180.68C58.4529 182.78 58.9663 183.83 59.5029 183.83H59.9229C60.6696 183.83 61.8013 183.025 63.3179 181.415H63.5279C63.9946 181.415 64.3563 181.753 64.6129 182.43C64.6129 182.99 63.6329 183.958 61.6729 185.335C61.1596 185.638 60.5413 185.86 59.8179 186C57.9279 186 56.6096 184.227 55.8629 180.68C54.7896 180.517 54.2529 180.073 54.2529 179.35C54.2529 178.837 54.6496 178.498 55.4429 178.335V178.475L55.7929 178.335V177.46C55.7929 174.777 56.5513 173.435 58.0679 173.435ZM58.2779 175.955H57.9629L57.8229 177.25V178.335H57.9629C59.2696 178.288 59.9229 178.148 59.9229 177.915C59.3163 177.005 58.7679 176.352 58.2779 175.955ZM72.503 172.49C73.5296 172.49 74.043 172.898 74.043 173.715L73.728 174.38L73.518 180.785C73.518 183.678 74.1013 185.475 75.268 186.175L75.338 186.7C75.268 187.377 74.953 187.715 74.393 187.715H74.183C72.433 186.525 71.558 184.705 71.558 182.255H71.313C70.3796 184.868 69.248 186.175 67.918 186.175C66.6813 185.825 66.063 184.903 66.063 183.41C66.063 180.12 67.3813 176.842 70.018 173.575C70.9046 172.852 71.733 172.49 72.503 172.49ZM68.268 182.01L68.128 182.99V183.655H68.478C70.228 179.292 71.103 176.632 71.103 175.675H70.963C69.6096 177.192 68.7113 179.303 68.268 182.01ZM80.3077 164.755C80.961 164.895 81.2877 165.222 81.2877 165.735L81.0777 167.275V167.73C81.0777 168.757 81.1944 169.842 81.4277 170.985H81.4977C84.2044 170.168 85.8844 169.76 86.5377 169.76C87.2144 169.947 87.5527 170.285 87.5527 170.775C87.5527 171.568 86.7477 171.965 85.1377 171.965L81.4977 173.26C81.4977 176.41 81.836 180.692 82.5127 186.105C82.3727 186.735 82.0344 187.05 81.4977 187.05H81.4277C80.611 187.05 80.2027 186 80.2027 183.9C79.8994 182.337 79.6427 178.942 79.4327 173.715H78.8027C76.6094 173.575 75.5127 173.062 75.5127 172.175C75.5127 171.918 75.7577 171.603 76.2477 171.23H76.5977L78.2077 171.65H79.3277L79.0127 167.275C79.0127 165.595 79.4444 164.755 80.3077 164.755ZM90.0191 175.465L90.6491 175.115C91.2091 175.115 91.6174 175.453 91.8741 176.13C91.5008 177.857 91.3141 179.63 91.3141 181.45C91.3141 182.36 91.5824 183.352 92.1191 184.425H92.3291C93.0058 184.425 93.8108 181.753 94.7441 176.41C95.0708 176.13 95.3858 175.99 95.6891 175.99C96.4124 175.99 96.7741 177.273 96.7741 179.84C97.0774 182.663 97.4158 184.075 97.7891 184.075L98.3141 183.865C98.9908 184.122 99.3291 184.483 99.3291 184.95C98.9091 185.837 98.3258 186.28 97.5791 186.28C96.7391 186.28 95.9341 185.44 95.1641 183.76C94.2308 185.72 93.2858 186.7 92.3291 186.7C90.9058 186.7 89.9141 185.218 89.3541 182.255L89.2491 181.135V180.785C89.2491 178.918 89.5058 177.145 90.0191 175.465ZM104.689 172.21C106.159 172.21 107.034 173.237 107.314 175.29V175.605C107.314 177.868 106.148 179.945 103.814 181.835C105.168 183.165 107.536 183.83 110.919 183.83C111.433 183.993 111.689 184.355 111.689 184.915C111.689 185.545 111.281 185.86 110.464 185.86C108.178 185.86 105.774 185.277 103.254 184.11V185.125C103.254 187.528 102.741 188.73 101.714 188.73C100.991 188.73 100.629 187.342 100.629 184.565V181.835L100.524 180.855L100.769 179.735L100.524 176.375V176.235C100.524 175.605 100.851 175.173 101.504 174.94C102.414 173.12 103.476 172.21 104.689 172.21ZM102.939 179.875C103.616 179.875 104.374 178.662 105.214 176.235V174.73L104.794 174.275H104.479C103.453 174.975 102.939 176.842 102.939 179.875ZM116.003 173.435C116.936 173.458 118.511 175.092 120.728 178.335L120.798 178.93C120.798 179.583 119.199 180.085 116.003 180.435L115.898 180.54V180.68C116.388 182.78 116.901 183.83 117.438 183.83H117.858C118.604 183.83 119.736 183.025 121.253 181.415H121.463C121.929 181.415 122.291 181.753 122.548 182.43C122.548 182.99 121.568 183.958 119.608 185.335C119.094 185.638 118.476 185.86 117.753 186C115.863 186 114.544 184.227 113.798 180.68C112.724 180.517 112.188 180.073 112.188 179.35C112.188 178.837 112.584 178.498 113.378 178.335V178.475L113.728 178.335V177.46C113.728 174.777 114.486 173.435 116.003 173.435ZM116.213 175.955H115.898L115.758 177.25V178.335H115.898C117.204 178.288 117.858 178.148 117.858 177.915C117.251 177.005 116.703 176.352 116.213 175.955ZM144.366 165.21L145.241 164.93C146.034 164.93 146.431 165.98 146.431 168.08L147.516 176.165L147.656 176.305L151.681 174.835C152.218 174.835 152.509 175.243 152.556 176.06C152.556 176.667 151.074 177.402 148.111 178.265L147.971 178.335V178.475C147.971 178.965 148.741 181.52 150.281 186.14V186.21C150.281 186.653 149.919 187.027 149.196 187.33C148.519 187.33 148.076 186.525 147.866 184.915C147.329 183.748 146.676 181.823 145.906 179.14H145.766C142.709 179.77 141.181 180.307 141.181 180.75C139.501 184.39 138.229 186.21 137.366 186.21C136.876 186.21 136.584 185.895 136.491 185.265C136.491 184.705 137.109 183.608 138.346 181.975L138.906 180.75H138.031L137.366 180.89C136.503 180.68 136.071 180.237 136.071 179.56C136.421 178.743 136.934 178.335 137.611 178.335L138.486 178.685C139.793 178.685 140.446 178.207 140.446 177.25C141.636 174.45 142.943 170.437 144.366 165.21ZM144.681 171.58L142.616 177.81C144.529 177.437 145.486 177.075 145.486 176.725C145.136 173.295 144.868 171.58 144.681 171.58ZM156.43 183.935C156.92 183.935 157.211 184.332 157.305 185.125C157.165 185.942 156.756 186.35 156.08 186.35C155.613 186.35 155.286 185.942 155.1 185.125C155.38 184.332 155.823 183.935 156.43 183.935ZM160.547 169.06C160.687 168.477 161.107 168.185 161.807 168.185C162.507 168.185 162.857 169.678 162.857 172.665L162.962 174.555L162.647 185.58C162.484 186.303 162.122 186.665 161.562 186.665C160.885 186.408 160.547 186.047 160.547 185.58L160.897 174.765L160.547 169.06Z" fill="#5C55A3"/>
<path d="M87 1C93.191 7.83058 101.259 12.3518 108.981 17.3372C136.903 35.364 164.562 54.0368 193.747 69.9669C227.586 88.4368 261.848 104.721 297.225 119.94C330.78 134.374 362.065 152.202 393.377 170.93C424.49 189.538 456.109 208.052 489.246 222.825C495.23 225.492 501.447 229.519 507 233" stroke="#5C55A3" stroke-width="2" stroke-linecap="round"/>
<path d="M87 233C93.191 226.169 101.259 221.648 108.981 216.663C136.903 198.636 164.562 179.963 193.747 164.033C227.586 145.563 261.848 129.279 297.225 114.06C330.78 99.6262 362.065 81.7977 393.377 63.0702C424.49 44.4619 456.109 25.9477 489.246 11.1755C495.23 8.50826 501.447 4.48132 507 1.00001" stroke="#5C55A3" stroke-width="2" stroke-linecap="round"/>
<path d="M183.499 195.182C189.104 195.425 189.801 189.117 189.815 186.914C189.856 180.384 192.417 165.806 189.88 160.314C187.159 154.419 162.636 155.51 152.177 155.321C120.739 154.751 90.603 155.196 57.1252 155.188C48.8293 155.186 40.1852 154.688 32.0044 155.322C23.7717 155.96 21.1445 158.547 20.2864 162.316C19.6493 165.112 19.2389 179.853 19.0475 184.407C18.9556 186.599 18.7281 192.171 21.4482 193.887C25.4238 196.396 35.7879 195.976 40.2307 195.971C50.0291 195.959 153.892 195.871 180.365 195.167" stroke="#464646" stroke-width="2" stroke-miterlimit="1.5" stroke-linecap="round" stroke-linejoin="round"/>
<rect x="230" y="155" width="172" height="41" rx="10" fill="#F6F3D4" fill-opacity="0.8"/>
<path d="M262.235 164.09C263.425 164.09 264.125 164.522 264.335 165.385C264.335 165.735 263.997 166.108 263.32 166.505L262.165 166.19H262.025C260.718 166.19 259.225 168.045 257.545 171.755C257.312 172.665 257.195 173.54 257.195 174.38V175.815H257.335C260.182 175.138 262.002 174.8 262.795 174.8C263.822 174.987 264.335 175.395 264.335 176.025C264.125 176.678 263.787 177.005 263.32 177.005L262.69 176.9C260.31 177.11 258.56 177.472 257.44 177.985V178.23L257.86 183.9C257.86 186.583 257.323 187.925 256.25 187.925C255.877 187.925 255.538 187.633 255.235 187.05C255.608 186.093 255.795 184.892 255.795 183.445C255.795 181.975 255.655 180.307 255.375 178.44L253.695 178.65C252.178 178.51 251.42 178.032 251.42 177.215C251.653 176.562 252.027 176.235 252.54 176.235L253.415 176.48H254.045L255.165 176.34V174.38C255.165 170.763 256.763 167.59 259.96 164.86C260.683 164.347 261.442 164.09 262.235 164.09ZM269.068 173.435C270.001 173.458 271.576 175.092 273.793 178.335L273.863 178.93C273.863 179.583 272.265 180.085 269.068 180.435L268.963 180.54V180.68C269.453 182.78 269.966 183.83 270.503 183.83H270.923C271.67 183.83 272.801 183.025 274.318 181.415H274.528C274.995 181.415 275.356 181.753 275.613 182.43C275.613 182.99 274.633 183.958 272.673 185.335C272.16 185.638 271.541 185.86 270.818 186C268.928 186 267.61 184.227 266.863 180.68C265.79 180.517 265.253 180.073 265.253 179.35C265.253 178.837 265.65 178.498 266.443 178.335V178.475L266.793 178.335V177.46C266.793 174.777 267.551 173.435 269.068 173.435ZM269.278 175.955H268.963L268.823 177.25V178.335H268.963C270.27 178.288 270.923 178.148 270.923 177.915C270.316 177.005 269.768 176.352 269.278 175.955ZM283.503 172.49C284.53 172.49 285.043 172.898 285.043 173.715L284.728 174.38L284.518 180.785C284.518 183.678 285.101 185.475 286.268 186.175L286.338 186.7C286.268 187.377 285.953 187.715 285.393 187.715H285.183C283.433 186.525 282.558 184.705 282.558 182.255H282.313C281.38 184.868 280.248 186.175 278.918 186.175C277.681 185.825 277.063 184.903 277.063 183.41C277.063 180.12 278.381 176.842 281.018 173.575C281.905 172.852 282.733 172.49 283.503 172.49ZM279.268 182.01L279.128 182.99V183.655H279.478C281.228 179.292 282.103 176.632 282.103 175.675H281.963C280.61 177.192 279.711 179.303 279.268 182.01ZM291.308 164.755C291.961 164.895 292.288 165.222 292.288 165.735L292.078 167.275V167.73C292.078 168.757 292.194 169.842 292.428 170.985H292.498C295.204 170.168 296.884 169.76 297.538 169.76C298.214 169.947 298.553 170.285 298.553 170.775C298.553 171.568 297.748 171.965 296.138 171.965L292.498 173.26C292.498 176.41 292.836 180.692 293.513 186.105C293.373 186.735 293.034 187.05 292.498 187.05H292.428C291.611 187.05 291.203 186 291.203 183.9C290.899 182.337 290.643 178.942 290.433 173.715H289.803C287.609 173.575 286.513 173.062 286.513 172.175C286.513 171.918 286.758 171.603 287.248 171.23H287.598L289.208 171.65H290.328L290.013 167.275C290.013 165.595 290.444 164.755 291.308 164.755ZM301.019 175.465L301.649 175.115C302.209 175.115 302.617 175.453 302.874 176.13C302.501 177.857 302.314 179.63 302.314 181.45C302.314 182.36 302.582 183.352 303.119 184.425H303.329C304.006 184.425 304.811 181.753 305.744 176.41C306.071 176.13 306.386 175.99 306.689 175.99C307.412 175.99 307.774 177.273 307.774 179.84C308.077 182.663 308.416 184.075 308.789 184.075L309.314 183.865C309.991 184.122 310.329 184.483 310.329 184.95C309.909 185.837 309.326 186.28 308.579 186.28C307.739 186.28 306.934 185.44 306.164 183.76C305.231 185.72 304.286 186.7 303.329 186.7C301.906 186.7 300.914 185.218 300.354 182.255L300.249 181.135V180.785C300.249 178.918 300.506 177.145 301.019 175.465ZM315.689 172.21C317.159 172.21 318.034 173.237 318.314 175.29V175.605C318.314 177.868 317.148 179.945 314.814 181.835C316.168 183.165 318.536 183.83 321.919 183.83C322.433 183.993 322.689 184.355 322.689 184.915C322.689 185.545 322.281 185.86 321.464 185.86C319.178 185.86 316.774 185.277 314.254 184.11V185.125C314.254 187.528 313.741 188.73 312.714 188.73C311.991 188.73 311.629 187.342 311.629 184.565V181.835L311.524 180.855L311.769 179.735L311.524 176.375V176.235C311.524 175.605 311.851 175.173 312.504 174.94C313.414 173.12 314.476 172.21 315.689 172.21ZM313.939 179.875C314.616 179.875 315.374 178.662 316.214 176.235V174.73L315.794 174.275H315.479C314.453 174.975 313.939 176.842 313.939 179.875ZM327.003 173.435C327.936 173.458 329.511 175.092 331.728 178.335L331.798 178.93C331.798 179.583 330.199 180.085 327.003 180.435L326.898 180.54V180.68C327.388 182.78 327.901 183.83 328.438 183.83H328.858C329.604 183.83 330.736 183.025 332.253 181.415H332.463C332.929 181.415 333.291 181.753 333.548 182.43C333.548 182.99 332.568 183.958 330.608 185.335C330.094 185.638 329.476 185.86 328.753 186C326.863 186 325.544 184.227 324.798 180.68C323.724 180.517 323.188 180.073 323.188 179.35C323.188 178.837 323.584 178.498 324.378 178.335V178.475L324.728 178.335V177.46C324.728 174.777 325.486 173.435 327.003 173.435ZM327.213 175.955H326.898L326.758 177.25V178.335H326.898C328.204 178.288 328.858 178.148 328.858 177.915C328.251 177.005 327.703 176.352 327.213 175.955ZM355.366 165.21L356.241 164.93C357.034 164.93 357.431 165.98 357.431 168.08L358.516 176.165L358.656 176.305L362.681 174.835C363.218 174.835 363.509 175.243 363.556 176.06C363.556 176.667 362.074 177.402 359.111 178.265L358.971 178.335V178.475C358.971 178.965 359.741 181.52 361.281 186.14V186.21C361.281 186.653 360.919 187.027 360.196 187.33C359.519 187.33 359.076 186.525 358.866 184.915C358.329 183.748 357.676 181.823 356.906 179.14H356.766C353.709 179.77 352.181 180.307 352.181 180.75C350.501 184.39 349.229 186.21 348.366 186.21C347.876 186.21 347.584 185.895 347.491 185.265C347.491 184.705 348.109 183.608 349.346 181.975L349.906 180.75H349.031L348.366 180.89C347.503 180.68 347.071 180.237 347.071 179.56C347.421 178.743 347.934 178.335 348.611 178.335L349.486 178.685C350.793 178.685 351.446 178.207 351.446 177.25C352.636 174.45 353.943 170.437 355.366 165.21ZM355.681 171.58L353.616 177.81C355.529 177.437 356.486 177.075 356.486 176.725C356.136 173.295 355.868 171.58 355.681 171.58ZM367.43 183.935C367.92 183.935 368.211 184.332 368.305 185.125C368.165 185.942 367.756 186.35 367.08 186.35C366.613 186.35 366.286 185.942 366.1 185.125C366.38 184.332 366.823 183.935 367.43 183.935ZM376.832 167.1C378.629 167.1 379.679 168.372 379.982 170.915C379.982 173.272 378.139 177.833 374.452 184.6V184.81C375.409 184.81 377.45 183.97 380.577 182.29H380.647C381.114 182.29 381.475 182.628 381.732 183.305C381.732 184.495 378.524 185.953 372.107 187.68C371.734 187.68 371.419 187.342 371.162 186.665C372.072 184.588 373.845 181.088 376.482 176.165C377.369 173.785 377.812 172.175 377.812 171.335V170.25C377.812 169.783 377.567 169.422 377.077 169.165H376.622C375.712 169.165 374.837 170.262 373.997 172.455L374.102 172.875C374.102 173.318 373.775 173.68 373.122 173.96C372.259 173.797 371.827 173.365 371.827 172.665C371.827 171.335 372.842 169.702 374.872 167.765C375.455 167.322 376.109 167.1 376.832 167.1Z" fill="#5C55A3"/>
<path d="M394.499 195.182C400.104 195.425 400.801 189.117 400.815 186.914C400.856 180.384 403.417 165.806 400.88 160.314C398.159 154.419 373.636 155.51 363.177 155.321C331.739 154.751 301.603 155.196 268.125 155.188C259.829 155.186 251.185 154.688 243.004 155.322C234.772 155.96 232.144 158.547 231.286 162.316C230.649 165.112 230.239 179.853 230.048 184.407C229.956 186.599 229.728 192.171 232.448 193.887C236.424 196.396 246.788 195.976 251.231 195.971C261.029 195.959 364.892 195.871 391.365 195.167" stroke="#464646" stroke-width="2" stroke-miterlimit="1.5" stroke-linecap="round" stroke-linejoin="round"/>
<rect x="440" y="155" width="172" height="41" rx="10" fill="#F6F3D4" fill-opacity="0.8"/>
<path d="M472.235 164.09C473.425 164.09 474.125 164.522 474.335 165.385C474.335 165.735 473.997 166.108 473.32 166.505L472.165 166.19H472.025C470.718 166.19 469.225 168.045 467.545 171.755C467.312 172.665 467.195 173.54 467.195 174.38V175.815H467.335C470.182 175.138 472.002 174.8 472.795 174.8C473.822 174.987 474.335 175.395 474.335 176.025C474.125 176.678 473.787 177.005 473.32 177.005L472.69 176.9C470.31 177.11 468.56 177.472 467.44 177.985V178.23L467.86 183.9C467.86 186.583 467.323 187.925 466.25 187.925C465.877 187.925 465.538 187.633 465.235 187.05C465.608 186.093 465.795 184.892 465.795 183.445C465.795 181.975 465.655 180.307 465.375 178.44L463.695 178.65C462.178 178.51 461.42 178.032 461.42 177.215C461.653 176.562 462.027 176.235 462.54 176.235L463.415 176.48H464.045L465.165 176.34V174.38C465.165 170.763 466.763 167.59 469.96 164.86C470.683 164.347 471.442 164.09 472.235 164.09ZM479.068 173.435C480.001 173.458 481.576 175.092 483.793 178.335L483.863 178.93C483.863 179.583 482.265 180.085 479.068 180.435L478.963 180.54V180.68C479.453 182.78 479.966 183.83 480.503 183.83H480.923C481.67 183.83 482.801 183.025 484.318 181.415H484.528C484.995 181.415 485.356 181.753 485.613 182.43C485.613 182.99 484.633 183.958 482.673 185.335C482.16 185.638 481.541 185.86 480.818 186C478.928 186 477.61 184.227 476.863 180.68C475.79 180.517 475.253 180.073 475.253 179.35C475.253 178.837 475.65 178.498 476.443 178.335V178.475L476.793 178.335V177.46C476.793 174.777 477.551 173.435 479.068 173.435ZM479.278 175.955H478.963L478.823 177.25V178.335H478.963C480.27 178.288 480.923 178.148 480.923 177.915C480.316 177.005 479.768 176.352 479.278 175.955ZM493.503 172.49C494.53 172.49 495.043 172.898 495.043 173.715L494.728 174.38L494.518 180.785C494.518 183.678 495.101 185.475 496.268 186.175L496.338 186.7C496.268 187.377 495.953 187.715 495.393 187.715H495.183C493.433 186.525 492.558 184.705 492.558 182.255H492.313C491.38 184.868 490.248 186.175 488.918 186.175C487.681 185.825 487.063 184.903 487.063 183.41C487.063 180.12 488.381 176.842 491.018 173.575C491.905 172.852 492.733 172.49 493.503 172.49ZM489.268 182.01L489.128 182.99V183.655H489.478C491.228 179.292 492.103 176.632 492.103 175.675H491.963C490.61 177.192 489.711 179.303 489.268 182.01ZM501.308 164.755C501.961 164.895 502.288 165.222 502.288 165.735L502.078 167.275V167.73C502.078 168.757 502.194 169.842 502.428 170.985H502.498C505.204 170.168 506.884 169.76 507.538 169.76C508.214 169.947 508.553 170.285 508.553 170.775C508.553 171.568 507.748 171.965 506.138 171.965L502.498 173.26C502.498 176.41 502.836 180.692 503.513 186.105C503.373 186.735 503.034 187.05 502.498 187.05H502.428C501.611 187.05 501.203 186 501.203 183.9C500.899 182.337 500.643 178.942 500.433 173.715H499.803C497.609 173.575 496.513 173.062 496.513 172.175C496.513 171.918 496.758 171.603 497.248 171.23H497.598L499.208 171.65H500.328L500.013 167.275C500.013 165.595 500.444 164.755 501.308 164.755ZM511.019 175.465L511.649 175.115C512.209 175.115 512.617 175.453 512.874 176.13C512.501 177.857 512.314 179.63 512.314 181.45C512.314 182.36 512.582 183.352 513.119 184.425H513.329C514.006 184.425 514.811 181.753 515.744 176.41C516.071 176.13 516.386 175.99 516.689 175.99C517.412 175.99 517.774 177.273 517.774 179.84C518.077 182.663 518.416 184.075 518.789 184.075L519.314 183.865C519.991 184.122 520.329 184.483 520.329 184.95C519.909 185.837 519.326 186.28 518.579 186.28C517.739 186.28 516.934 185.44 516.164 183.76C515.231 185.72 514.286 186.7 513.329 186.7C511.906 186.7 510.914 185.218 510.354 182.255L510.249 181.135V180.785C510.249 178.918 510.506 177.145 511.019 175.465ZM525.689 172.21C527.159 172.21 528.034 173.237 528.314 175.29V175.605C528.314 177.868 527.148 179.945 524.814 181.835C526.168 183.165 528.536 183.83 531.919 183.83C532.433 183.993 532.689 184.355 532.689 184.915C532.689 185.545 532.281 185.86 531.464 185.86C529.178 185.86 526.774 185.277 524.254 184.11V185.125C524.254 187.528 523.741 188.73 522.714 188.73C521.991 188.73 521.629 187.342 521.629 184.565V181.835L521.524 180.855L521.769 179.735L521.524 176.375V176.235C521.524 175.605 521.851 175.173 522.504 174.94C523.414 173.12 524.476 172.21 525.689 172.21ZM523.939 179.875C524.616 179.875 525.374 178.662 526.214 176.235V174.73L525.794 174.275H525.479C524.453 174.975 523.939 176.842 523.939 179.875ZM537.003 173.435C537.936 173.458 539.511 175.092 541.728 178.335L541.798 178.93C541.798 179.583 540.199 180.085 537.003 180.435L536.898 180.54V180.68C537.388 182.78 537.901 183.83 538.438 183.83H538.858C539.604 183.83 540.736 183.025 542.253 181.415H542.463C542.929 181.415 543.291 181.753 543.548 182.43C543.548 182.99 542.568 183.958 540.608 185.335C540.094 185.638 539.476 185.86 538.753 186C536.863 186 535.544 184.227 534.798 180.68C533.724 180.517 533.188 180.073 533.188 179.35C533.188 178.837 533.584 178.498 534.378 178.335V178.475L534.728 178.335V177.46C534.728 174.777 535.486 173.435 537.003 173.435ZM537.213 175.955H536.898L536.758 177.25V178.335H536.898C538.204 178.288 538.858 178.148 538.858 177.915C538.251 177.005 537.703 176.352 537.213 175.955ZM565.366 165.21L566.241 164.93C567.034 164.93 567.431 165.98 567.431 168.08L568.516 176.165L568.656 176.305L572.681 174.835C573.218 174.835 573.509 175.243 573.556 176.06C573.556 176.667 572.074 177.402 569.111 178.265L568.971 178.335V178.475C568.971 178.965 569.741 181.52 571.281 186.14V186.21C571.281 186.653 570.919 187.027 570.196 187.33C569.519 187.33 569.076 186.525 568.866 184.915C568.329 183.748 567.676 181.823 566.906 179.14H566.766C563.709 179.77 562.181 180.307 562.181 180.75C560.501 184.39 559.229 186.21 558.366 186.21C557.876 186.21 557.584 185.895 557.491 185.265C557.491 184.705 558.109 183.608 559.346 181.975L559.906 180.75H559.031L558.366 180.89C557.503 180.68 557.071 180.237 557.071 179.56C557.421 178.743 557.934 178.335 558.611 178.335L559.486 178.685C560.793 178.685 561.446 178.207 561.446 177.25C562.636 174.45 563.943 170.437 565.366 165.21ZM565.681 171.58L563.616 177.81C565.529 177.437 566.486 177.075 566.486 176.725C566.136 173.295 565.868 171.58 565.681 171.58ZM577.43 183.935C577.92 183.935 578.211 184.332 578.305 185.125C578.165 185.942 577.756 186.35 577.08 186.35C576.613 186.35 576.286 185.942 576.1 185.125C576.38 184.332 576.823 183.935 577.43 183.935ZM585.852 167.275C587.322 167.275 588.232 168.22 588.582 170.11C588.419 171.253 588.162 172.233 587.812 173.05V173.19C589.305 173.19 590.437 174.24 591.207 176.34L591.312 177.635C591.079 180.458 589.515 183.492 586.622 186.735C585.315 187.622 584.37 188.065 583.787 188.065C581.897 187.575 580.952 186.922 580.952 186.105C581.045 185.778 581.29 185.487 581.687 185.23H582.352C582.889 185.65 583.297 185.86 583.577 185.86H583.647C585.467 185.86 587.287 183.457 589.107 178.65L589.247 177.635V177.425C589.247 175.978 588.734 175.255 587.707 175.255C586.61 175.255 585.817 175.757 585.327 176.76C584.3 177.927 583.519 178.592 582.982 178.755C582.679 178.755 582.317 178.428 581.897 177.775C581.897 176.842 582.959 175.488 585.082 173.715C586.015 172.082 586.482 170.845 586.482 170.005C586.342 169.585 586.132 169.328 585.852 169.235C584.849 169.235 583.799 170.553 582.702 173.19L581.897 173.4C581.267 173.26 580.952 172.968 580.952 172.525C582.072 169.025 583.705 167.275 585.852 167.275Z" fill="#5C55A3"/>
<path d="M604.499 195.182C610.104 195.425 610.801 189.117 610.815 186.914C610.856 180.384 613.417 165.806 610.88 160.314C608.159 154.419 583.636 155.51 573.177 155.321C541.739 154.751 511.603 155.196 478.125 155.188C469.829 155.186 461.185 154.688 453.004 155.322C444.772 155.96 442.144 158.547 441.286 162.316C440.649 165.112 440.239 179.853 440.048 184.407C439.956 186.599 439.728 192.171 442.448 193.887C446.424 196.396 456.788 195.976 461.231 195.971C471.029 195.959 574.892 195.871 601.365 195.167" stroke="#464646" stroke-width="2" stroke-miterlimit="1.5" stroke-linecap="round" stroke-linejoin="round"/>
<path d="M313.937 235.616C309.67 235.616 305.373 235.877 301.062 235.877C299.335 235.877 297.533 235.616 295.888 235.616C294.099 235.616 293.068 235.595 292.763 237.578C292.249 240.924 292.172 244.454 291.979 247.838C291.697 252.774 291.703 257.889 291.703 262.821C291.703 265.669 291.703 268.518 291.703 271.366C291.703 273.007 291.476 274.616 291.441 276.249C291.434 276.588 291.548 277.157 291.383 277.47C291.053 278.093 289.8 278.107 289.232 278.269C287.844 278.666 286.6 278.778 285.018 278.778C282.913 278.778 280.8 279.301 278.623 279.301C277.96 279.301 277.334 279.531 276.792 279.562C275.622 279.631 276.006 280.407 276.327 281.335C277.204 283.868 277.99 286.717 279.263 289.081C280.358 291.116 281.354 293.215 282.678 295.127C283.79 296.734 284.745 298.42 285.948 299.966C287.17 301.538 287.68 303.649 288.622 305.401C289.497 307.029 290.189 309.175 291.441 310.575C291.832 311.012 291.861 311.602 292.284 312.057C292.95 312.774 293.489 313.61 293.999 314.441C295.247 316.476 297.07 318.173 298.242 320.225C298.69 321.009 299.642 321.562 300.073 322.317C300.569 323.185 300.995 323.189 301.541 322.434C303.943 319.107 306.851 316.358 309.374 313.162C313.107 308.434 315.375 303.216 317.919 297.873C320.452 292.554 323.309 287.447 325.709 282.047C326.065 281.247 326.605 280.634 327.133 279.955C327.85 279.033 325.475 279.759 324.968 279.809C323.329 279.973 321.601 279.824 319.954 279.824C318.506 279.824 317.176 280.086 315.769 280.086C315.221 280.086 314.152 280.184 313.734 279.766C313.406 279.438 313.676 277.758 313.676 277.31C313.676 275.05 313.937 272.736 313.937 270.552C313.937 268.886 313.369 266.139 313.996 264.652C314.429 263.624 314.436 261.639 314.461 260.525C314.49 259.19 314.722 257.939 314.722 256.601C314.722 253.582 315.031 250.362 314.591 247.373C313.891 242.607 313.937 237.829 313.937 233" stroke="#464646" stroke-width="2" stroke-linecap="round"/>
<rect x="659" y="353" width="191" height="111" rx="25" fill="url(#paint3_linear_5_205)" fill-opacity="0.09"/>
<rect x="237" y="546" width="172" height="41" rx="10" fill="#F6F3D4" fill-opacity="0.8"/>
<rect width="191" height="111" rx="25" transform="matrix(-1 0 0 1 410 353)" fill="url(#paint4_linear_5_205)" fill-opacity="0.09"/>
<rect width="256" height="111" rx="25" transform="matrix(-1 0 0 1 456 528)" fill="url(#paint5_linear_5_205)" fill-opacity="0.09"/>
<path d="M227.33 461.785C221.105 462.445 220.332 445.366 220.315 439.401C220.27 421.723 217.427 382.255 220.243 367.387C223.266 351.427 250.497 354.381 262.111 353.868C297.023 352.325 330.487 353.531 367.663 353.509C376.876 353.503 386.475 352.154 395.559 353.872C404.701 355.599 407.619 362.602 408.571 372.806C409.279 380.378 409.735 420.285 409.947 432.614C410.049 438.549 410.302 453.634 407.281 458.279C402.867 465.072 391.358 463.934 386.424 463.921C375.543 463.89 260.207 463.65 230.81 461.744" stroke="#2C2C2C" stroke-width="2" stroke-miterlimit="1.5" stroke-linecap="round" stroke-linejoin="round"/>
<rect x="429" y="353" width="191" height="111" rx="25" fill="url(#paint6_linear_5_205)" fill-opacity="0.09"/>
<path d="M611.67 461.785C617.895 462.445 618.668 445.366 618.685 439.401C618.73 421.723 621.573 382.255 618.757 367.387C615.734 351.427 588.503 354.381 576.889 353.868C541.977 352.325 508.513 353.531 471.337 353.509C462.124 353.503 452.525 352.154 443.441 353.872C434.299 355.599 431.381 362.602 430.429 372.806C429.721 380.378 429.265 420.285 429.053 432.614C428.951 438.549 428.698 453.634 431.719 458.279C436.133 465.072 447.642 463.934 452.576 463.921C463.457 463.89 578.793 463.65 608.19 461.744" stroke="#464646" stroke-width="2" stroke-miterlimit="1.5" stroke-linecap="round" stroke-linejoin="round"/>
<rect x="9" y="353" width="191" height="111" rx="25" fill="url(#paint7_linear_5_205)" fill-opacity="0.09"/>
<path d="M191.67 461.785C197.895 462.445 198.668 445.366 198.685 439.401C198.73 421.723 201.573 382.255 198.757 367.387C195.734 351.427 168.503 354.381 156.889 353.868C121.977 352.325 88.5127 353.531 51.3367 353.509C42.1244 353.503 32.5254 352.154 23.441 353.872C14.2988 355.599 11.3814 362.602 10.4285 372.806C9.72106 380.378 9.26524 420.285 9.0528 432.614C8.9507 438.549 8.69804 453.634 11.7186 458.279C16.1335 465.072 27.6424 463.934 32.5759 463.921C43.4568 463.89 158.793 463.65 188.19 461.744" stroke="#2C2C2C" stroke-width="2" stroke-miterlimit="1.5" stroke-linecap="round" stroke-linejoin="round"/>
<path d="M444.835 659.326C453.178 660.122 454.215 639.505 454.237 632.304C454.298 610.963 458.109 563.317 454.334 545.368C450.282 526.101 413.784 529.667 398.217 529.048C351.425 527.186 306.572 528.641 256.744 528.615C244.397 528.607 231.531 526.979 219.355 529.052C207.102 531.137 203.192 539.591 201.915 551.91C200.966 561.051 200.356 609.227 200.071 624.111C199.934 631.275 199.595 649.486 203.644 655.093C209.561 663.294 224.987 661.92 231.599 661.904C246.183 661.868 400.77 661.578 440.172 659.276" stroke="#2C2C2C" stroke-width="2" stroke-miterlimit="1.5" stroke-linecap="round" stroke-linejoin="round"/>
<path d="M54.16 396.72H54.8C59.1467 396.72 61.9333 398.293 63.16 401.44L63.28 402.72V403.12C63.28 406.213 61.4 409.08 57.64 411.72C56.7333 411.987 56.28 412.28 56.28 412.6C57.3467 416.68 57.88 420.013 57.88 422.6V423.12C57.88 424.187 57.44 424.72 56.56 424.72C55.8933 424.64 55.56 424.307 55.56 423.72V422.72C55.56 419.653 55 416.32 53.88 412.72C51.72 412.533 50.52 411.947 50.28 410.96V410.72C50.28 410.24 50.6533 409.867 51.4 409.6L53.16 410.2V410.12C52.2533 406.173 51.8 403.507 51.8 402.12C51.8 401.347 52.2533 400.96 53.16 400.96C53.9867 400.96 54.4 402.373 54.4 405.2L55.56 409.96C57.48 409.32 58.9733 408.067 60.04 406.2C60.6 405.133 60.88 404.187 60.88 403.36V402.84C60.88 400.653 59.0133 399.413 55.28 399.12H53.64C49.9867 399.52 48.16 400.387 48.16 401.72V401.96C48.16 402.36 48.3733 402.987 48.8 403.84C48.8 404.427 48.3333 404.8 47.4 404.96C46.3333 404.453 45.8 403.413 45.8 401.84C45.8 398.907 48.5867 397.2 54.16 396.72ZM70.2431 407.24C71.9231 407.24 72.9231 408.413 73.2431 410.76V411.12C73.2431 413.707 71.9098 416.08 69.2431 418.24C70.7898 419.76 73.4965 420.52 77.3631 420.52C77.9498 420.707 78.2431 421.12 78.2431 421.76C78.2431 422.48 77.7765 422.84 76.8431 422.84C74.2298 422.84 71.4831 422.173 68.6031 420.84V422C68.6031 424.747 68.0165 426.12 66.8431 426.12C66.0165 426.12 65.6031 424.533 65.6031 421.36V418.24L65.4831 417.12L65.7631 415.84L65.4831 412V411.84C65.4831 411.12 65.8565 410.627 66.6031 410.36C67.6431 408.28 68.8565 407.24 70.2431 407.24ZM68.2431 416C69.0165 416 69.8831 414.613 70.8431 411.84V410.12L70.3631 409.6H70.0031C68.8298 410.4 68.2431 412.533 68.2431 416ZM85.9725 407.92C87.9458 407.92 89.4392 409.387 90.4525 412.32L90.6125 413.16C90.6125 416.013 89.2792 418.933 86.6125 421.92C85.5458 422.907 84.4658 423.4 83.3725 423.4C81.7725 423.4 80.6392 422.48 79.9725 420.64C79.7325 419.787 79.6125 419.04 79.6125 418.4V417.92C79.6125 413.707 81.1458 410.507 84.2125 408.32C84.7458 408.053 85.3325 407.92 85.9725 407.92ZM81.9725 418.32C81.9725 420.133 82.4392 421.04 83.3725 421.04C85.3192 421.04 86.9325 418.547 88.2125 413.56V412.8C87.7592 411.147 86.9192 410.32 85.6925 410.32C85.2125 410.32 84.9725 410.653 84.9725 411.32C84.9725 411.773 84.4392 412.133 83.3725 412.4C82.4392 413.973 81.9725 415.947 81.9725 418.32ZM94.465 409.32C95.2917 409.587 95.705 410.2 95.705 411.16C95.705 411.72 95.3317 412.053 94.585 412.16H94.465C93.6917 412.16 93.2783 411.653 93.225 410.64V410.4C93.225 409.707 93.6383 409.347 94.465 409.32ZM94.705 413.56C95.0783 413.56 95.505 413.92 95.985 414.64C95.7183 415.36 95.585 416.333 95.585 417.56L96.585 427.64V428.8C96.585 432.293 95.745 434.493 94.065 435.4L93.225 435.56C91.385 435.56 89.9717 433.72 88.985 430.04L88.705 427.92V427.8C88.705 426.867 89.1317 426.4 89.985 426.4C90.705 426.4 91.065 427.133 91.065 428.6C91.065 430.093 91.705 431.573 92.985 433.04L93.305 433.16C93.9183 432.067 94.225 430.787 94.225 429.32V427.64L93.225 417.64C93.225 414.92 93.7183 413.56 94.705 413.56ZM101.883 408.64C102.95 408.667 104.75 410.533 107.283 414.24L107.363 414.92C107.363 415.667 105.537 416.24 101.883 416.64L101.763 416.76V416.92C102.323 419.32 102.91 420.52 103.523 420.52H104.003C104.857 420.52 106.15 419.6 107.883 417.76H108.123C108.657 417.76 109.07 418.147 109.363 418.92C109.363 419.56 108.243 420.667 106.003 422.24C105.417 422.587 104.71 422.84 103.883 423C101.723 423 100.217 420.973 99.3634 416.92C98.1368 416.733 97.5234 416.227 97.5234 415.4C97.5234 414.813 97.9768 414.427 98.8834 414.24V414.4L99.2834 414.24V413.24C99.2834 410.173 100.15 408.64 101.883 408.64ZM102.123 411.52H101.763L101.603 413V414.24H101.763C103.257 414.187 104.003 414.027 104.003 413.76C103.31 412.72 102.683 411.973 102.123 411.52ZM114.981 409.44L116.621 409.2C117.287 409.2 117.661 409.613 117.741 410.44C117.741 411.16 116.874 411.627 115.141 411.84C114.047 412.693 113.501 413.787 113.501 415.12V416.44C114.034 419.373 114.941 420.84 116.221 420.84H116.621C117.367 420.84 118.487 420.133 119.981 418.72H120.221C120.754 418.72 121.181 419.093 121.501 419.84C121.127 420.987 119.927 422.027 117.901 422.96C117.527 423.12 117.061 423.2 116.501 423.2C113.754 423.2 111.967 421.04 111.141 416.72V415.84C111.141 412.72 112.421 410.587 114.981 409.44ZM128.238 398.72C128.984 398.88 129.358 399.253 129.358 399.84L129.118 401.6V402.12C129.118 403.293 129.251 404.533 129.518 405.84H129.598C132.691 404.907 134.611 404.44 135.358 404.44C136.131 404.653 136.518 405.04 136.518 405.6C136.518 406.507 135.598 406.96 133.758 406.96L129.598 408.44C129.598 412.04 129.984 416.933 130.758 423.12C130.598 423.84 130.211 424.2 129.598 424.2H129.518C128.584 424.2 128.118 423 128.118 420.6C127.771 418.813 127.478 414.933 127.238 408.96H126.518C124.011 408.8 122.758 408.213 122.758 407.2C122.758 406.907 123.038 406.547 123.598 406.12H123.998L125.838 406.6H127.118L126.758 401.6C126.758 399.68 127.251 398.72 128.238 398.72ZM153.495 403.64C153.655 402.973 154.135 402.64 154.935 402.64C155.735 402.64 156.135 404.347 156.135 407.76L156.255 409.92L155.895 422.52C155.708 423.347 155.295 423.76 154.655 423.76C153.881 423.467 153.495 423.053 153.495 422.52L153.895 410.16L153.495 403.64Z" fill="#464646"/>
<path d="M264.16 396.72H264.8C269.147 396.72 271.933 398.293 273.16 401.44L273.28 402.72V403.12C273.28 406.213 271.4 409.08 267.64 411.72C266.733 411.987 266.28 412.28 266.28 412.6C267.347 416.68 267.88 420.013 267.88 422.6V423.12C267.88 424.187 267.44 424.72 266.56 424.72C265.893 424.64 265.56 424.307 265.56 423.72V422.72C265.56 419.653 265 416.32 263.88 412.72C261.72 412.533 260.52 411.947 260.28 410.96V410.72C260.28 410.24 260.653 409.867 261.4 409.6L263.16 410.2V410.12C262.253 406.173 261.8 403.507 261.8 402.12C261.8 401.347 262.253 400.96 263.16 400.96C263.987 400.96 264.4 402.373 264.4 405.2L265.56 409.96C267.48 409.32 268.973 408.067 270.04 406.2C270.6 405.133 270.88 404.187 270.88 403.36V402.84C270.88 400.653 269.013 399.413 265.28 399.12H263.64C259.987 399.52 258.16 400.387 258.16 401.72V401.96C258.16 402.36 258.373 402.987 258.8 403.84C258.8 404.427 258.333 404.8 257.4 404.96C256.333 404.453 255.8 403.413 255.8 401.84C255.8 398.907 258.587 397.2 264.16 396.72ZM280.243 407.24C281.923 407.24 282.923 408.413 283.243 410.76V411.12C283.243 413.707 281.91 416.08 279.243 418.24C280.79 419.76 283.496 420.52 287.363 420.52C287.95 420.707 288.243 421.12 288.243 421.76C288.243 422.48 287.776 422.84 286.843 422.84C284.23 422.84 281.483 422.173 278.603 420.84V422C278.603 424.747 278.016 426.12 276.843 426.12C276.016 426.12 275.603 424.533 275.603 421.36V418.24L275.483 417.12L275.763 415.84L275.483 412V411.84C275.483 411.12 275.856 410.627 276.603 410.36C277.643 408.28 278.856 407.24 280.243 407.24ZM278.243 416C279.016 416 279.883 414.613 280.843 411.84V410.12L280.363 409.6H280.003C278.83 410.4 278.243 412.533 278.243 416ZM295.973 407.92C297.946 407.92 299.439 409.387 300.453 412.32L300.613 413.16C300.613 416.013 299.279 418.933 296.613 421.92C295.546 422.907 294.466 423.4 293.373 423.4C291.773 423.4 290.639 422.48 289.973 420.64C289.733 419.787 289.613 419.04 289.613 418.4V417.92C289.613 413.707 291.146 410.507 294.213 408.32C294.746 408.053 295.333 407.92 295.973 407.92ZM291.973 418.32C291.973 420.133 292.439 421.04 293.373 421.04C295.319 421.04 296.933 418.547 298.213 413.56V412.8C297.759 411.147 296.919 410.32 295.693 410.32C295.213 410.32 294.973 410.653 294.973 411.32C294.973 411.773 294.439 412.133 293.373 412.4C292.439 413.973 291.973 415.947 291.973 418.32ZM304.465 409.32C305.292 409.587 305.705 410.2 305.705 411.16C305.705 411.72 305.332 412.053 304.585 412.16H304.465C303.692 412.16 303.278 411.653 303.225 410.64V410.4C303.225 409.707 303.638 409.347 304.465 409.32ZM304.705 413.56C305.078 413.56 305.505 413.92 305.985 414.64C305.718 415.36 305.585 416.333 305.585 417.56L306.585 427.64V428.8C306.585 432.293 305.745 434.493 304.065 435.4L303.225 435.56C301.385 435.56 299.972 433.72 298.985 430.04L298.705 427.92V427.8C298.705 426.867 299.132 426.4 299.985 426.4C300.705 426.4 301.065 427.133 301.065 428.6C301.065 430.093 301.705 431.573 302.985 433.04L303.305 433.16C303.918 432.067 304.225 430.787 304.225 429.32V427.64L303.225 417.64C303.225 414.92 303.718 413.56 304.705 413.56ZM311.883 408.64C312.95 408.667 314.75 410.533 317.283 414.24L317.363 414.92C317.363 415.667 315.537 416.24 311.883 416.64L311.763 416.76V416.92C312.323 419.32 312.91 420.52 313.523 420.52H314.003C314.857 420.52 316.15 419.6 317.883 417.76H318.123C318.657 417.76 319.07 418.147 319.363 418.92C319.363 419.56 318.243 420.667 316.003 422.24C315.417 422.587 314.71 422.84 313.883 423C311.723 423 310.217 420.973 309.363 416.92C308.137 416.733 307.523 416.227 307.523 415.4C307.523 414.813 307.977 414.427 308.883 414.24V414.4L309.283 414.24V413.24C309.283 410.173 310.15 408.64 311.883 408.64ZM312.123 411.52H311.763L311.603 413V414.24H311.763C313.257 414.187 314.003 414.027 314.003 413.76C313.31 412.72 312.683 411.973 312.123 411.52ZM324.981 409.44L326.621 409.2C327.287 409.2 327.661 409.613 327.741 410.44C327.741 411.16 326.874 411.627 325.141 411.84C324.047 412.693 323.501 413.787 323.501 415.12V416.44C324.034 419.373 324.941 420.84 326.221 420.84H326.621C327.367 420.84 328.487 420.133 329.981 418.72H330.221C330.754 418.72 331.181 419.093 331.501 419.84C331.127 420.987 329.927 422.027 327.901 422.96C327.527 423.12 327.061 423.2 326.501 423.2C323.754 423.2 321.967 421.04 321.141 416.72V415.84C321.141 412.72 322.421 410.587 324.981 409.44ZM338.238 398.72C338.984 398.88 339.358 399.253 339.358 399.84L339.118 401.6V402.12C339.118 403.293 339.251 404.533 339.518 405.84H339.598C342.691 404.907 344.611 404.44 345.358 404.44C346.131 404.653 346.518 405.04 346.518 405.6C346.518 406.507 345.598 406.96 343.758 406.96L339.598 408.44C339.598 412.04 339.984 416.933 340.758 423.12C340.598 423.84 340.211 424.2 339.598 424.2H339.518C338.584 424.2 338.118 423 338.118 420.6C337.771 418.813 337.478 414.933 337.238 408.96H336.518C334.011 408.8 332.758 408.213 332.758 407.2C332.758 406.907 333.038 406.547 333.598 406.12H333.998L335.838 406.6H337.118L336.758 401.6C336.758 399.68 337.251 398.72 338.238 398.72ZM369.535 401.4C371.588 401.4 372.788 402.853 373.135 405.76C373.135 408.453 371.028 413.667 366.815 421.4V421.64C367.908 421.64 370.241 420.68 373.815 418.76H373.895C374.428 418.76 374.841 419.147 375.135 419.92C375.135 421.28 371.468 422.947 364.135 424.92C363.708 424.92 363.348 424.533 363.055 423.76C364.095 421.387 366.121 417.387 369.135 411.76C370.148 409.04 370.655 407.2 370.655 406.24V405C370.655 404.467 370.375 404.053 369.815 403.76H369.295C368.255 403.76 367.255 405.013 366.295 407.52L366.415 408C366.415 408.507 366.041 408.92 365.295 409.24C364.308 409.053 363.815 408.56 363.815 407.76C363.815 406.24 364.975 404.373 367.295 402.16C367.961 401.653 368.708 401.4 369.535 401.4Z" fill="#464646"/>
<path d="M220.84 609.24C222.653 609.24 223.707 610.547 224 613.16C224 615.32 223.493 616.68 222.48 617.24H222.24C221.467 617.187 221.08 616.907 221.08 616.4L221.24 613.4V611.92L221 611.64H220.6C219.747 611.64 218.747 614.013 217.6 618.76L217.36 621.76V622.64C217.36 625.413 218.6 627.04 221.08 627.52H222.76C225.533 627.52 228.893 625.733 232.84 622.16H233C233.72 622.16 234.133 622.613 234.24 623.52C233.627 625.12 232.907 625.92 232.08 625.92C228.267 628.64 224.84 630 221.8 630C218.76 630 216.613 628.333 215.36 625L215 622.16V621.64C215 617.507 216.16 613.707 218.48 610.24C219.227 609.573 220.013 609.24 220.84 609.24ZM242.16 614.92C244.133 614.92 245.627 616.387 246.64 619.32L246.8 620.16C246.8 623.013 245.467 625.933 242.8 628.92C241.733 629.907 240.653 630.4 239.56 630.4C237.96 630.4 236.827 629.48 236.16 627.64C235.92 626.787 235.8 626.04 235.8 625.4V624.92C235.8 620.707 237.333 617.507 240.4 615.32C240.933 615.053 241.52 614.92 242.16 614.92ZM238.16 625.32C238.16 627.133 238.627 628.04 239.56 628.04C241.507 628.04 243.12 625.547 244.4 620.56V619.8C243.947 618.147 243.107 617.32 241.88 617.32C241.4 617.32 241.16 617.653 241.16 618.32C241.16 618.773 240.627 619.133 239.56 619.4C238.627 620.973 238.16 622.947 238.16 625.32ZM249.213 616C249.399 615.333 249.826 615 250.493 615C251.159 615 251.599 615.667 251.813 617H251.973L253.813 616.6C254.666 616.6 255.493 617.4 256.293 619H256.453C257.626 617.16 258.826 616.24 260.053 616.24C262.666 616.72 263.973 618.427 263.973 621.36L264.053 622.76L263.693 630.84V631.6C263.693 632.267 263.279 632.653 262.453 632.76C261.626 632.76 261.213 631.787 261.213 629.84L261.693 622.6C261.693 619.933 261.066 618.6 259.813 618.6C259.093 618.6 258.226 620.347 257.213 623.84C256.706 627.84 256.293 629.84 255.973 629.84C255.519 629.84 255.293 629.933 255.293 630.12C254.466 630.013 254.053 629.587 254.053 628.84L254.573 624C254.493 620.667 254.159 619 253.573 619H253.453C252.786 619.507 252.453 620.507 252.453 622V624.12L252.293 630.24C252.106 630.907 251.693 631.24 251.053 631.24C250.493 631.24 250.133 630.773 249.973 629.84L249.813 625.12L250.053 621.24C249.893 619.24 249.613 617.493 249.213 616ZM266.908 616C267.094 615.333 267.521 615 268.188 615C268.854 615 269.294 615.667 269.508 617H269.668L271.508 616.6C272.361 616.6 273.188 617.4 273.988 619H274.148C275.321 617.16 276.521 616.24 277.748 616.24C280.361 616.72 281.668 618.427 281.668 621.36L281.748 622.76L281.388 630.84V631.6C281.388 632.267 280.974 632.653 280.148 632.76C279.321 632.76 278.908 631.787 278.908 629.84L279.388 622.6C279.388 619.933 278.761 618.6 277.508 618.6C276.788 618.6 275.921 620.347 274.908 623.84C274.401 627.84 273.988 629.84 273.668 629.84C273.214 629.84 272.988 629.933 272.988 630.12C272.161 630.013 271.748 629.587 271.748 628.84L272.268 624C272.188 620.667 271.854 619 271.268 619H271.148C270.481 619.507 270.148 620.507 270.148 622V624.12L269.988 630.24C269.801 630.907 269.388 631.24 268.748 631.24C268.188 631.24 267.828 630.773 267.668 629.84L267.508 625.12L267.748 621.24C267.588 619.24 267.308 617.493 266.908 616ZM290.363 614.92C292.336 614.92 293.83 616.387 294.843 619.32L295.003 620.16C295.003 623.013 293.67 625.933 291.003 628.92C289.936 629.907 288.856 630.4 287.763 630.4C286.163 630.4 285.03 629.48 284.363 627.64C284.123 626.787 284.003 626.04 284.003 625.4V624.92C284.003 620.707 285.536 617.507 288.603 615.32C289.136 615.053 289.723 614.92 290.363 614.92ZM286.363 625.32C286.363 627.133 286.83 628.04 287.763 628.04C289.71 628.04 291.323 625.547 292.603 620.56V619.8C292.15 618.147 291.31 617.32 290.083 617.32C289.603 617.32 289.363 617.653 289.363 618.32C289.363 618.773 288.83 619.133 287.763 619.4C286.83 620.973 286.363 622.947 286.363 625.32ZM301.976 616.52C304.242 616.707 305.376 617.813 305.376 619.84L305.456 620.36L305.376 626.6C305.376 627.32 305.789 628.293 306.616 629.52V629.6C306.402 630.373 306.016 630.76 305.456 630.76C303.802 630.067 302.976 628.6 302.976 626.36V625.84L302.856 625.76L302.976 625.6V625.52L303.096 620C303.096 619.227 302.762 618.84 302.096 618.84H301.616C300.282 619.373 299.616 622.293 299.616 627.6C299.616 629.44 299.149 630.36 298.216 630.36C297.496 630.36 297.122 629.907 297.096 629V625C297.096 619.827 297.549 617.24 298.456 617.24L298.856 617.12L299.696 617.24C300.416 616.76 301.176 616.52 301.976 616.52ZM328.228 614.24C329.908 614.24 330.908 615.413 331.228 617.76V618.12C331.228 620.707 329.894 623.08 327.228 625.24C328.774 626.76 331.481 627.52 335.348 627.52C335.934 627.707 336.228 628.12 336.228 628.76C336.228 629.48 335.761 629.84 334.828 629.84C332.214 629.84 329.468 629.173 326.588 627.84V629C326.588 631.747 326.001 633.12 324.827 633.12C324.001 633.12 323.588 631.533 323.588 628.36V625.24L323.468 624.12L323.748 622.84L323.468 619V618.84C323.468 618.12 323.841 617.627 324.588 617.36C325.628 615.28 326.841 614.24 328.228 614.24ZM326.228 623C327.001 623 327.868 621.613 328.828 618.84V617.12L328.348 616.6H327.988C326.814 617.4 326.228 619.533 326.228 623ZM341.157 615.64C342.224 615.667 344.024 617.533 346.557 621.24L346.637 621.92C346.637 622.667 344.81 623.24 341.157 623.64L341.037 623.76V623.92C341.597 626.32 342.184 627.52 342.797 627.52H343.277C344.13 627.52 345.424 626.6 347.157 624.76H347.397C347.93 624.76 348.344 625.147 348.637 625.92C348.637 626.56 347.517 627.667 345.277 629.24C344.69 629.587 343.984 629.84 343.157 630C340.997 630 339.49 627.973 338.637 623.92C337.41 623.733 336.797 623.227 336.797 622.4C336.797 621.813 337.25 621.427 338.157 621.24V621.4L338.557 621.24V620.24C338.557 617.173 339.424 615.64 341.157 615.64ZM341.397 618.52H341.037L340.877 620V621.24H341.037C342.53 621.187 343.277 621.027 343.277 620.76C342.584 619.72 341.957 618.973 341.397 618.52ZM355.094 618.12C357.921 618.12 359.587 619.893 360.094 623.44C360.094 626.587 358.627 628.84 355.694 630.2C355.374 630.36 354.934 630.44 354.374 630.44H354.094L353.214 630.36V630.44L353.374 641.12C353.187 641.947 352.761 642.36 352.094 642.36C351.347 642.12 350.974 641.733 350.974 641.2L350.614 619.44C350.614 618.747 351.027 618.387 351.854 618.36L352.694 618.72C353.441 618.32 354.241 618.12 355.094 618.12ZM353.094 622.36L352.974 623.6L353.094 627.84L354.214 628.12C356.001 628.12 357.161 626.813 357.694 624.2V623.6C357.507 621.493 356.761 620.44 355.454 620.44H354.854C353.681 620.44 353.094 621.08 353.094 622.36ZM368.371 614.92C370.344 614.92 371.838 616.387 372.851 619.32L373.011 620.16C373.011 623.013 371.678 625.933 369.011 628.92C367.944 629.907 366.864 630.4 365.771 630.4C364.171 630.4 363.038 629.48 362.371 627.64C362.131 626.787 362.011 626.04 362.011 625.4V624.92C362.011 620.707 363.544 617.507 366.611 615.32C367.144 615.053 367.731 614.92 368.371 614.92ZM364.371 625.32C364.371 627.133 364.838 628.04 365.771 628.04C367.718 628.04 369.331 625.547 370.611 620.56V619.8C370.158 618.147 369.318 617.32 368.091 617.32C367.611 617.32 367.371 617.653 367.371 618.32C367.371 618.773 366.838 619.133 365.771 619.4C364.838 620.973 364.371 622.947 364.371 625.32ZM382.823 613.8C383.543 613.8 384.037 615.013 384.303 617.44C384.037 618.107 383.597 618.44 382.983 618.44C382.557 618.36 382.13 617.867 381.703 616.96L380.983 616.72C379.73 616.72 378.597 617.547 377.583 619.2V619.56C377.583 619.96 379.463 620.627 383.223 621.56C384.797 622.493 385.583 623.627 385.583 624.96C385.583 627.147 383.823 629.013 380.303 630.56L378.823 630.8C376.583 630.56 375.463 629.44 375.463 627.44V627.32C375.463 626.68 375.877 626.307 376.703 626.2C377.343 626.2 377.77 626.867 377.983 628.2L378.303 628.44H378.983C380.503 628.44 381.917 627.4 383.223 625.32V624.8C383.223 624 381.477 623.253 377.983 622.56C376.143 621.813 375.223 620.773 375.223 619.44C375.223 617.707 376.677 616.08 379.583 614.56C380.863 614.4 381.943 614.147 382.823 613.8ZM387.529 609.16C388.542 609.373 389.049 609.827 389.049 610.52C388.782 611.267 388.356 611.64 387.769 611.64C386.782 611.453 386.289 610.96 386.289 610.16C386.556 609.493 386.969 609.16 387.529 609.16ZM389.049 614.76C389.476 614.76 389.836 615.147 390.129 615.92L389.769 618.76V620.64C389.769 622.827 390.142 625.693 390.889 629.24C390.622 629.747 390.169 630 389.529 630C388.436 630 387.716 626.8 387.369 620.4V619C387.369 616.173 387.929 614.76 389.049 614.76ZM397.668 605.72C398.414 605.88 398.788 606.253 398.788 606.84L398.548 608.6V609.12C398.548 610.293 398.681 611.533 398.948 612.84H399.028C402.121 611.907 404.041 611.44 404.788 611.44C405.561 611.653 405.948 612.04 405.948 612.6C405.948 613.507 405.028 613.96 403.188 613.96L399.028 615.44C399.028 619.04 399.414 623.933 400.188 630.12C400.028 630.84 399.641 631.2 399.028 631.2H398.948C398.014 631.2 397.548 630 397.548 627.6C397.201 625.813 396.908 621.933 396.668 615.96H395.948C393.441 615.8 392.188 615.213 392.188 614.2C392.188 613.907 392.468 613.547 393.028 613.12H393.428L395.268 613.6H396.548L396.188 608.6C396.188 606.68 396.681 605.72 397.668 605.72ZM413.566 614.92C415.54 614.92 417.033 616.387 418.046 619.32L418.206 620.16C418.206 623.013 416.873 625.933 414.206 628.92C413.14 629.907 412.06 630.4 410.966 630.4C409.366 630.4 408.233 629.48 407.566 627.64C407.326 626.787 407.206 626.04 407.206 625.4V624.92C407.206 620.707 408.74 617.507 411.806 615.32C412.34 615.053 412.926 614.92 413.566 614.92ZM409.566 625.32C409.566 627.133 410.033 628.04 410.966 628.04C412.913 628.04 414.526 625.547 415.806 620.56V619.8C415.353 618.147 414.513 617.32 413.286 617.32C412.806 617.32 412.566 617.653 412.566 618.32C412.566 618.773 412.033 619.133 410.966 619.4C410.033 620.973 409.566 622.947 409.566 625.32ZM425.259 614.24C426.939 614.24 427.939 615.413 428.259 617.76V618.12C428.259 620.707 426.925 623.08 424.259 625.24C425.805 626.76 428.512 627.52 432.379 627.52C432.965 627.707 433.259 628.12 433.259 628.76C433.259 629.48 432.792 629.84 431.859 629.84C429.245 629.84 426.499 629.173 423.619 627.84V629C423.619 631.747 423.032 633.12 421.859 633.12C421.032 633.12 420.619 631.533 420.619 628.36V625.24L420.499 624.12L420.779 622.84L420.499 619V618.84C420.499 618.12 420.872 617.627 421.619 617.36C422.659 615.28 423.872 614.24 425.259 614.24ZM423.259 623C424.032 623 424.899 621.613 425.859 618.84V617.12L425.379 616.6H425.019C423.845 617.4 423.259 619.533 423.259 623ZM435.868 618C436.801 618 437.441 620.053 437.788 624.16C438.241 626.053 438.575 627 438.788 627H439.028C439.695 625.32 440.028 623.653 440.028 622L439.788 619.24C440.081 618.52 440.495 618.16 441.028 618.16C442.015 618.16 442.508 619.907 442.508 623.4C443.095 627.027 443.388 630.4 443.388 633.52V635.4C443.388 641.133 441.761 645 438.508 647L437.628 647.16C436.108 647.16 434.695 645.747 433.388 642.92L433.028 640.52V640.4C433.028 638.64 433.521 637.76 434.508 637.76L435.508 638.4L435.388 640.92C435.388 642.147 436.015 643.387 437.268 644.64H437.788C439.255 644.64 440.335 641.84 441.028 636.24L441.108 633.92C441.081 631.227 440.975 629.507 440.788 628.76C439.721 629.693 438.881 630.16 438.268 630.16C436.908 630.16 435.695 626.52 434.628 619.24L434.508 619.16C434.508 618.547 434.961 618.16 435.868 618Z" fill="#464646"/>
<path d="M479.16 396.72H479.8C484.147 396.72 486.933 398.293 488.16 401.44L488.28 402.72V403.12C488.28 406.213 486.4 409.08 482.64 411.72C481.733 411.987 481.28 412.28 481.28 412.6C482.347 416.68 482.88 420.013 482.88 422.6V423.12C482.88 424.187 482.44 424.72 481.56 424.72C480.893 424.64 480.56 424.307 480.56 423.72V422.72C480.56 419.653 480 416.32 478.88 412.72C476.72 412.533 475.52 411.947 475.28 410.96V410.72C475.28 410.24 475.653 409.867 476.4 409.6L478.16 410.2V410.12C477.253 406.173 476.8 403.507 476.8 402.12C476.8 401.347 477.253 400.96 478.16 400.96C478.987 400.96 479.4 402.373 479.4 405.2L480.56 409.96C482.48 409.32 483.973 408.067 485.04 406.2C485.6 405.133 485.88 404.187 485.88 403.36V402.84C485.88 400.653 484.013 399.413 480.28 399.12H478.64C474.987 399.52 473.16 400.387 473.16 401.72V401.96C473.16 402.36 473.373 402.987 473.8 403.84C473.8 404.427 473.333 404.8 472.4 404.96C471.333 404.453 470.8 403.413 470.8 401.84C470.8 398.907 473.587 397.2 479.16 396.72ZM495.243 407.24C496.923 407.24 497.923 408.413 498.243 410.76V411.12C498.243 413.707 496.91 416.08 494.243 418.24C495.79 419.76 498.496 420.52 502.363 420.52C502.95 420.707 503.243 421.12 503.243 421.76C503.243 422.48 502.776 422.84 501.843 422.84C499.23 422.84 496.483 422.173 493.603 420.84V422C493.603 424.747 493.016 426.12 491.843 426.12C491.016 426.12 490.603 424.533 490.603 421.36V418.24L490.483 417.12L490.763 415.84L490.483 412V411.84C490.483 411.12 490.856 410.627 491.603 410.36C492.643 408.28 493.856 407.24 495.243 407.24ZM493.243 416C494.016 416 494.883 414.613 495.843 411.84V410.12L495.363 409.6H495.003C493.83 410.4 493.243 412.533 493.243 416ZM510.973 407.92C512.946 407.92 514.439 409.387 515.453 412.32L515.613 413.16C515.613 416.013 514.279 418.933 511.613 421.92C510.546 422.907 509.466 423.4 508.373 423.4C506.773 423.4 505.639 422.48 504.973 420.64C504.733 419.787 504.613 419.04 504.613 418.4V417.92C504.613 413.707 506.146 410.507 509.213 408.32C509.746 408.053 510.333 407.92 510.973 407.92ZM506.973 418.32C506.973 420.133 507.439 421.04 508.373 421.04C510.319 421.04 511.933 418.547 513.213 413.56V412.8C512.759 411.147 511.919 410.32 510.693 410.32C510.213 410.32 509.973 410.653 509.973 411.32C509.973 411.773 509.439 412.133 508.373 412.4C507.439 413.973 506.973 415.947 506.973 418.32ZM519.465 409.32C520.292 409.587 520.705 410.2 520.705 411.16C520.705 411.72 520.332 412.053 519.585 412.16H519.465C518.692 412.16 518.278 411.653 518.225 410.64V410.4C518.225 409.707 518.638 409.347 519.465 409.32ZM519.705 413.56C520.078 413.56 520.505 413.92 520.985 414.64C520.718 415.36 520.585 416.333 520.585 417.56L521.585 427.64V428.8C521.585 432.293 520.745 434.493 519.065 435.4L518.225 435.56C516.385 435.56 514.972 433.72 513.985 430.04L513.705 427.92V427.8C513.705 426.867 514.132 426.4 514.985 426.4C515.705 426.4 516.065 427.133 516.065 428.6C516.065 430.093 516.705 431.573 517.985 433.04L518.305 433.16C518.918 432.067 519.225 430.787 519.225 429.32V427.64L518.225 417.64C518.225 414.92 518.718 413.56 519.705 413.56ZM526.883 408.64C527.95 408.667 529.75 410.533 532.283 414.24L532.363 414.92C532.363 415.667 530.537 416.24 526.883 416.64L526.763 416.76V416.92C527.323 419.32 527.91 420.52 528.523 420.52H529.003C529.857 420.52 531.15 419.6 532.883 417.76H533.123C533.657 417.76 534.07 418.147 534.363 418.92C534.363 419.56 533.243 420.667 531.003 422.24C530.417 422.587 529.71 422.84 528.883 423C526.723 423 525.217 420.973 524.363 416.92C523.137 416.733 522.523 416.227 522.523 415.4C522.523 414.813 522.977 414.427 523.883 414.24V414.4L524.283 414.24V413.24C524.283 410.173 525.15 408.64 526.883 408.64ZM527.123 411.52H526.763L526.603 413V414.24H526.763C528.257 414.187 529.003 414.027 529.003 413.76C528.31 412.72 527.683 411.973 527.123 411.52ZM539.981 409.44L541.621 409.2C542.287 409.2 542.661 409.613 542.741 410.44C542.741 411.16 541.874 411.627 540.141 411.84C539.047 412.693 538.501 413.787 538.501 415.12V416.44C539.034 419.373 539.941 420.84 541.221 420.84H541.621C542.367 420.84 543.487 420.133 544.981 418.72H545.221C545.754 418.72 546.181 419.093 546.501 419.84C546.127 420.987 544.927 422.027 542.901 422.96C542.527 423.12 542.061 423.2 541.501 423.2C538.754 423.2 536.967 421.04 536.141 416.72V415.84C536.141 412.72 537.421 410.587 539.981 409.44ZM553.238 398.72C553.984 398.88 554.358 399.253 554.358 399.84L554.118 401.6V402.12C554.118 403.293 554.251 404.533 554.518 405.84H554.598C557.691 404.907 559.611 404.44 560.358 404.44C561.131 404.653 561.518 405.04 561.518 405.6C561.518 406.507 560.598 406.96 558.758 406.96L554.598 408.44C554.598 412.04 554.984 416.933 555.758 423.12C555.598 423.84 555.211 424.2 554.598 424.2H554.518C553.584 424.2 553.118 423 553.118 420.6C552.771 418.813 552.478 414.933 552.238 408.96H551.518C549.011 408.8 547.758 408.213 547.758 407.2C547.758 406.907 548.038 406.547 548.598 406.12H548.998L550.838 406.6H552.118L551.758 401.6C551.758 399.68 552.251 398.72 553.238 398.72ZM583.415 401.6C585.095 401.6 586.135 402.68 586.535 404.84C586.348 406.147 586.055 407.267 585.655 408.2V408.36C587.361 408.36 588.655 409.56 589.535 411.96L589.655 413.44C589.388 416.667 587.601 420.133 584.295 423.84C582.801 424.853 581.721 425.36 581.055 425.36C578.895 424.8 577.815 424.053 577.815 423.12C577.921 422.747 578.201 422.413 578.655 422.12H579.415C580.028 422.6 580.495 422.84 580.815 422.84H580.895C582.975 422.84 585.055 420.093 587.135 414.6L587.295 413.44V413.2C587.295 411.547 586.708 410.72 585.535 410.72C584.281 410.72 583.375 411.293 582.815 412.44C581.641 413.773 580.748 414.533 580.135 414.72C579.788 414.72 579.375 414.347 578.895 413.6C578.895 412.533 580.108 410.987 582.535 408.96C583.601 407.093 584.135 405.68 584.135 404.72C583.975 404.24 583.735 403.947 583.415 403.84C582.268 403.84 581.068 405.347 579.815 408.36L578.895 408.6C578.175 408.44 577.815 408.107 577.815 407.6C579.095 403.6 580.961 401.6 583.415 401.6Z" fill="#4F4F4F"/>
<path d="M727.08 395.52C727.693 395.52 728.08 395.96 728.24 396.84C724.8 400.84 723.08 406.013 723.08 412.36V412.6C723.08 418.84 724.8 422.813 728.24 424.52C729.413 424.813 730 425.307 730 426C730 426.427 729.613 426.8 728.84 427.12C726.52 426.48 724.733 425.227 723.48 423.36C721.667 420.533 720.76 417.16 720.76 413.24V412.36C720.76 406.147 722.373 400.867 725.6 396.52C726.267 395.853 726.76 395.52 727.08 395.52ZM749.563 420.64C750.123 420.64 750.456 421.093 750.562 422C750.403 422.933 749.936 423.4 749.163 423.4C748.629 423.4 748.256 422.933 748.043 422C748.363 421.093 748.869 420.64 749.563 420.64ZM756.828 420.64C757.388 420.64 757.721 421.093 757.828 422C757.668 422.933 757.201 423.4 756.428 423.4C755.895 423.4 755.521 422.933 755.308 422C755.628 421.093 756.135 420.64 756.828 420.64ZM764.094 420.64C764.654 420.64 764.987 421.093 765.094 422C764.934 422.933 764.467 423.4 763.694 423.4C763.16 423.4 762.787 422.933 762.574 422C762.894 421.093 763.4 420.64 764.094 420.64ZM786.318 397.84C787.598 398.32 788.851 400.28 790.078 403.72C790.478 405.773 790.678 407.52 790.678 408.96V409.2C790.678 415.173 789.144 420.347 786.078 424.72L785.438 424.96C784.611 424.773 784.198 424.36 784.198 423.72C786.944 419.373 788.317 414.453 788.317 408.96C788.317 404.933 787.237 401.733 785.077 399.36V398.72C785.478 398.133 785.891 397.84 786.318 397.84Z" fill="#4F4F4F"/>
<path d="M841.67 461.785C847.895 462.445 848.668 445.366 848.685 439.401C848.73 421.723 851.573 382.255 848.757 367.387C845.734 351.427 818.503 354.381 806.889 353.868C771.977 352.325 738.513 353.531 701.337 353.509C692.124 353.503 682.525 352.154 673.441 353.872C664.299 355.599 661.381 362.602 660.429 372.806C659.721 380.378 659.265 420.285 659.053 432.614C658.951 438.549 658.698 453.634 661.719 458.279C666.133 465.072 677.642 463.934 682.576 463.921C693.457 463.89 808.793 463.65 838.19 461.744" stroke="#464646" stroke-width="2" stroke-miterlimit="1.5" stroke-linecap="round" stroke-linejoin="round"/>
<path d="M253.11 555.835C254.697 555.835 255.618 556.978 255.875 559.265C255.875 561.155 255.432 562.345 254.545 562.835H254.335C253.658 562.788 253.32 562.543 253.32 562.1L253.46 559.475V558.18L253.25 557.935H252.9C252.153 557.935 251.278 560.012 250.275 564.165L250.065 566.79V567.56C250.065 569.987 251.15 571.41 253.32 571.83H254.79C257.217 571.83 260.157 570.267 263.61 567.14H263.75C264.38 567.14 264.742 567.537 264.835 568.33C264.298 569.73 263.668 570.43 262.945 570.43C259.608 572.81 256.61 574 253.95 574C251.29 574 249.412 572.542 248.315 569.625L248 567.14V566.685C248 563.068 249.015 559.743 251.045 556.71C251.698 556.127 252.387 555.835 253.11 555.835ZM271.765 560.805C273.492 560.805 274.798 562.088 275.685 564.655L275.825 565.39C275.825 567.887 274.658 570.442 272.325 573.055C271.392 573.918 270.447 574.35 269.49 574.35C268.09 574.35 267.098 573.545 266.515 571.935C266.305 571.188 266.2 570.535 266.2 569.975V569.555C266.2 565.868 267.542 563.068 270.225 561.155C270.692 560.922 271.205 560.805 271.765 560.805ZM268.265 569.905C268.265 571.492 268.673 572.285 269.49 572.285C271.193 572.285 272.605 570.103 273.725 565.74V565.075C273.328 563.628 272.593 562.905 271.52 562.905C271.1 562.905 270.89 563.197 270.89 563.78C270.89 564.177 270.423 564.492 269.49 564.725C268.673 566.102 268.265 567.828 268.265 569.905ZM277.936 561.75C278.099 561.167 278.473 560.875 279.056 560.875C279.639 560.875 280.024 561.458 280.211 562.625H280.351L281.961 562.275C282.708 562.275 283.431 562.975 284.131 564.375H284.271C285.298 562.765 286.348 561.96 287.421 561.96C289.708 562.38 290.851 563.873 290.851 566.44L290.921 567.665L290.606 574.735V575.4C290.606 575.983 290.244 576.322 289.521 576.415C288.798 576.415 288.436 575.563 288.436 573.86L288.856 567.525C288.856 565.192 288.308 564.025 287.211 564.025C286.581 564.025 285.823 565.553 284.936 568.61C284.493 572.11 284.131 573.86 283.851 573.86C283.454 573.86 283.256 573.942 283.256 574.105C282.533 574.012 282.171 573.638 282.171 572.985L282.626 568.75C282.556 565.833 282.264 564.375 281.751 564.375H281.646C281.063 564.818 280.771 565.693 280.771 567V568.855L280.631 574.21C280.468 574.793 280.106 575.085 279.546 575.085C279.056 575.085 278.741 574.677 278.601 573.86L278.461 569.73L278.671 566.335C278.531 564.585 278.286 563.057 277.936 561.75ZM297.164 563.605C299.638 563.605 301.096 565.157 301.539 568.26C301.539 571.013 300.256 572.985 297.689 574.175C297.409 574.315 297.024 574.385 296.534 574.385H296.289L295.519 574.315V574.385L295.659 583.73C295.496 584.453 295.123 584.815 294.539 584.815C293.886 584.605 293.559 584.267 293.559 583.8L293.244 564.76C293.244 564.153 293.606 563.838 294.329 563.815L295.064 564.13C295.718 563.78 296.418 563.605 297.164 563.605ZM295.414 567.315L295.309 568.4L295.414 572.11L296.394 572.355C297.958 572.355 298.973 571.212 299.439 568.925V568.4C299.276 566.557 298.623 565.635 297.479 565.635H296.954C295.928 565.635 295.414 566.195 295.414 567.315ZM308.782 560.805C310.508 560.805 311.815 562.088 312.702 564.655L312.842 565.39C312.842 567.887 311.675 570.442 309.342 573.055C308.408 573.918 307.463 574.35 306.507 574.35C305.107 574.35 304.115 573.545 303.532 571.935C303.322 571.188 303.217 570.535 303.217 569.975V569.555C303.217 565.868 304.558 563.068 307.242 561.155C307.708 560.922 308.222 560.805 308.782 560.805ZM305.282 569.905C305.282 571.492 305.69 572.285 306.507 572.285C308.21 572.285 309.622 570.103 310.742 565.74V565.075C310.345 563.628 309.61 562.905 308.537 562.905C308.117 562.905 307.907 563.197 307.907 563.78C307.907 564.177 307.44 564.492 306.507 564.725C305.69 566.102 305.282 567.828 305.282 569.905ZM318.943 562.205C320.926 562.368 321.918 563.337 321.918 565.11L321.988 565.565L321.918 571.025C321.918 571.655 322.279 572.507 323.003 573.58V573.65C322.816 574.327 322.478 574.665 321.988 574.665C320.541 574.058 319.818 572.775 319.818 570.815V570.36L319.713 570.29L319.818 570.15V570.08L319.923 565.25C319.923 564.573 319.631 564.235 319.048 564.235H318.628C317.461 564.702 316.878 567.257 316.878 571.9C316.878 573.51 316.469 574.315 315.653 574.315C315.023 574.315 314.696 573.918 314.673 573.125V569.625C314.673 565.098 315.069 562.835 315.863 562.835L316.213 562.73L316.948 562.835C317.578 562.415 318.243 562.205 318.943 562.205ZM327.25 561.435C328.183 561.458 329.758 563.092 331.975 566.335L332.045 566.93C332.045 567.583 330.446 568.085 327.25 568.435L327.145 568.54V568.68C327.635 570.78 328.148 571.83 328.685 571.83H329.105C329.851 571.83 330.983 571.025 332.5 569.415H332.71C333.176 569.415 333.538 569.753 333.795 570.43C333.795 570.99 332.815 571.958 330.855 573.335C330.341 573.638 329.723 573.86 329 574C327.11 574 325.791 572.227 325.045 568.68C323.971 568.517 323.435 568.073 323.435 567.35C323.435 566.837 323.831 566.498 324.625 566.335V566.475L324.975 566.335V565.46C324.975 562.777 325.733 561.435 327.25 561.435ZM327.46 563.955H327.145L327.005 565.25V566.335H327.145C328.451 566.288 329.105 566.148 329.105 565.915C328.498 565.005 327.95 564.352 327.46 563.955ZM339.69 562.205C341.673 562.368 342.665 563.337 342.665 565.11L342.735 565.565L342.665 571.025C342.665 571.655 343.026 572.507 343.75 573.58V573.65C343.563 574.327 343.225 574.665 342.735 574.665C341.288 574.058 340.565 572.775 340.565 570.815V570.36L340.46 570.29L340.565 570.15V570.08L340.67 565.25C340.67 564.573 340.378 564.235 339.795 564.235H339.375C338.208 564.702 337.625 567.257 337.625 571.9C337.625 573.51 337.216 574.315 336.4 574.315C335.77 574.315 335.443 573.918 335.42 573.125V569.625C335.42 565.098 335.816 562.835 336.61 562.835L336.96 562.73L337.695 562.835C338.325 562.415 338.99 562.205 339.69 562.205ZM348.977 552.755C349.63 552.895 349.957 553.222 349.957 553.735L349.747 555.275V555.73C349.747 556.757 349.863 557.842 350.097 558.985H350.167C352.873 558.168 354.553 557.76 355.207 557.76C355.883 557.947 356.222 558.285 356.222 558.775C356.222 559.568 355.417 559.965 353.807 559.965L350.167 561.26C350.167 564.41 350.505 568.692 351.182 574.105C351.042 574.735 350.703 575.05 350.167 575.05H350.097C349.28 575.05 348.872 574 348.872 571.9C348.568 570.337 348.312 566.942 348.102 561.715H347.472C345.278 561.575 344.182 561.062 344.182 560.175C344.182 559.918 344.427 559.603 344.917 559.23H345.267L346.877 559.65H347.997L347.682 555.275C347.682 553.595 348.113 552.755 348.977 552.755ZM377.761 553.21L378.636 552.93C379.43 552.93 379.826 553.98 379.826 556.08L380.911 564.165L381.051 564.305L385.076 562.835C385.613 562.835 385.905 563.243 385.951 564.06C385.951 564.667 384.47 565.402 381.506 566.265L381.366 566.335V566.475C381.366 566.965 382.136 569.52 383.676 574.14V574.21C383.676 574.653 383.315 575.027 382.591 575.33C381.915 575.33 381.471 574.525 381.261 572.915C380.725 571.748 380.071 569.823 379.301 567.14H379.161C376.105 567.77 374.576 568.307 374.576 568.75C372.896 572.39 371.625 574.21 370.761 574.21C370.271 574.21 369.98 573.895 369.886 573.265C369.886 572.705 370.505 571.608 371.741 569.975L372.301 568.75H371.426L370.761 568.89C369.898 568.68 369.466 568.237 369.466 567.56C369.816 566.743 370.33 566.335 371.006 566.335L371.881 566.685C373.188 566.685 373.841 566.207 373.841 565.25C375.031 562.45 376.338 558.437 377.761 553.21ZM378.076 559.58L376.011 565.81C377.925 565.437 378.881 565.075 378.881 564.725C378.531 561.295 378.263 559.58 378.076 559.58Z" fill="#5C55A3"/>
<path d="M101 499.153C130.945 501.068 162.754 501 193.165 501C226.969 501 260.445 497.718 294.066 497.306C315.483 497.044 337.703 496.519 358.956 498.024C393.912 500.5 430.907 497.306 466.006 497.306C561.853 497.306 658.399 497.306 754 497.306" stroke="#464646" stroke-width="2" stroke-linecap="round"/>
<path d="M100.735 498.473C100.735 495.1 100.062 491.787 100.062 488.521C100.062 484.818 100.735 481.223 100.735 477.597C100.735 474.248 100.921 476.844 100.735 473.5" stroke="#464646" stroke-width="2" stroke-linecap="round"/>
<path d="M94.0149 473.222C95.2117 473.222 96.4791 473.311 97.691 473.109C98.2755 473.012 98.8954 473.072 99.4851 473.072C100.594 473.072 101.688 473.051 102.789 473.072C103.385 473.083 103.978 472.997 104.579 472.997C104.8 472.997 105.082 472.973 105.282 472.879C105.698 472.685 106.204 472.691 106.603 472.474C106.677 472.434 106.42 472.268 106.39 472.227C106.045 471.749 105.59 471.322 105.185 470.893C104.717 470.396 104.131 470.023 103.625 469.567C103.265 469.243 102.977 468.842 102.655 468.48C101.887 467.615 100.961 466.919 100.146 466.104C99.9547 465.913 99.7588 465.75 99.5479 465.586C99.352 465.433 97.9646 467.054 97.7872 467.301C97.0292 468.353 96.6317 469.638 95.8216 470.68C95.5486 471.031 95.3147 471.459 95.0102 471.775C94.8596 471.932 94.7481 472.175 94.5418 472.244" stroke="#464646" stroke-width="2" stroke-linecap="round"/>
<path d="M323.891 527C323.891 519.573 323 512.275 323 505.083C323 496.927 323.891 489.009 323.891 481.024C323.891 473.647 324.137 479.364 323.891 472" stroke="#464646" stroke-width="2" stroke-linecap="round"/>
<path d="M317 471.647C318.197 471.647 319.464 471.736 320.676 471.534C321.261 471.436 321.881 471.496 322.47 471.496C323.579 471.496 324.673 471.476 325.774 471.496C326.371 471.507 326.963 471.421 327.564 471.421C327.785 471.421 328.067 471.397 328.267 471.304C328.683 471.109 329.189 471.116 329.588 470.898C329.662 470.858 329.405 470.693 329.375 470.651C329.03 470.173 328.575 469.747 328.17 469.317C327.703 468.821 327.117 468.448 326.611 467.991C326.25 467.667 325.962 467.266 325.64 466.904C324.872 466.039 323.946 465.343 323.131 464.529C322.94 464.337 322.744 464.174 322.533 464.01C322.337 463.858 320.95 465.478 320.772 465.725C320.014 466.778 319.617 468.062 318.807 469.104C318.534 469.455 318.3 469.883 317.995 470.2C317.845 470.356 317.733 470.599 317.527 470.668" stroke="#464646" stroke-width="2" stroke-linecap="round"/>
<path d="M534.721 496.897C534.721 493.525 534.047 490.211 534.047 486.946C534.047 483.242 534.721 479.647 534.721 476.021C534.721 472.672 534.907 475.268 534.721 471.924" stroke="#464646" stroke-width="2" stroke-linecap="round"/>
<path d="M528 471.647C529.197 471.647 530.464 471.736 531.676 471.534C532.261 471.436 532.881 471.496 533.47 471.496C534.579 471.496 535.673 471.476 536.774 471.496C537.371 471.507 537.963 471.421 538.564 471.421C538.785 471.421 539.067 471.397 539.267 471.304C539.683 471.109 540.189 471.116 540.588 470.898C540.662 470.858 540.405 470.693 540.375 470.651C540.03 470.173 539.575 469.747 539.17 469.317C538.703 468.821 538.117 468.448 537.611 467.991C537.25 467.667 536.962 467.266 536.64 466.904C535.872 466.039 534.946 465.343 534.131 464.529C533.94 464.337 533.744 464.174 533.533 464.01C533.337 463.858 531.95 465.478 531.772 465.725C531.014 466.778 530.617 468.062 529.807 469.104C529.534 469.455 529.3 469.883 528.995 470.2C528.845 470.356 528.733 470.599 528.527 470.668" stroke="#464646" stroke-width="2" stroke-linecap="round"/>
<path d="M754.721 496.897C754.721 493.525 754.047 490.211 754.047 486.946C754.047 483.242 754.721 479.647 754.721 476.021C754.721 472.672 754.907 475.268 754.721 471.924" stroke="#464646" stroke-width="2" stroke-linecap="round"/>
<path d="M748 471.647C749.197 471.647 750.464 471.736 751.676 471.534C752.261 471.436 752.881 471.496 753.47 471.496C754.579 471.496 755.673 471.476 756.774 471.496C757.371 471.507 757.963 471.421 758.564 471.421C758.785 471.421 759.067 471.397 759.267 471.304C759.683 471.109 760.189 471.116 760.588 470.898C760.662 470.858 760.405 470.693 760.375 470.651C760.03 470.173 759.575 469.747 759.17 469.317C758.703 468.821 758.117 468.448 757.611 467.991C757.25 467.667 756.962 467.266 756.64 466.904C755.872 466.039 754.946 465.343 754.131 464.529C753.94 464.337 753.744 464.174 753.533 464.01C753.337 463.858 751.95 465.478 751.772 465.725C751.014 466.778 750.617 468.062 749.807 469.104C749.534 469.455 749.3 469.883 748.995 470.2C748.845 470.356 748.733 470.599 748.527 470.668" stroke="#464646" stroke-width="2" stroke-linecap="round"/>
<path d="M402.499 586.182C408.104 586.425 408.801 580.117 408.815 577.914C408.856 571.384 411.417 556.806 408.88 551.314C406.159 545.419 381.636 546.51 371.177 546.321C339.739 545.751 309.603 546.196 276.125 546.188C267.829 546.186 259.185 545.688 251.004 546.322C242.772 546.96 240.144 549.547 239.286 553.316C238.649 556.112 238.239 570.853 238.048 575.407C237.956 577.599 237.728 583.171 240.448 584.887C244.424 587.396 254.788 586.976 259.231 586.971C269.029 586.959 372.892 586.871 399.365 586.167" stroke="#464646" stroke-width="2" stroke-miterlimit="1.5" stroke-linecap="round" stroke-linejoin="round"/>
<path d="M576 581C576 578.013 576 575.044 576 572" stroke="#464646" stroke-width="3" stroke-linecap="round"/>
<path d="M557.49 577.956C557.263 574.995 557.533 572.013 557.302 568.996" stroke="#464646" stroke-width="3" stroke-linecap="round"/>
<path d="M541 584C541.357 584.399 541.543 585.176 541.688 585.69C542.379 588.131 543.908 590.238 545.352 592.283C549.538 598.212 555.53 602.941 562.513 605.07C565.435 605.961 568.691 606.283 571.718 605.721C573.061 605.472 574.381 605.238 575.636 604.698C576.614 604.278 577.47 603.629 578.416 603.135C580.388 602.105 582.139 600.336 583.686 598.757C584.384 598.044 584.794 597.071 585.36 596.255C585.591 595.923 586.106 595.479 585.981 595.106" stroke="#464646" stroke-width="3" stroke-linecap="round"/>
<path d="M34 245.004C34 242.018 34 239.048 34 236.004" stroke="#464646" stroke-width="3" stroke-linecap="round"/>
<path d="M15.4897 241.96C15.2628 238.999 15.5329 236.017 15.3016 233" stroke="#464646" stroke-width="3" stroke-linecap="round"/>
<path d="M47 278C46.6434 277.601 46.457 276.824 46.3115 276.31C45.6213 273.869 44.092 271.762 42.6481 269.717C38.4617 263.788 32.4697 259.059 25.4871 256.93C22.5646 256.039 19.3092 255.717 16.2819 256.279C14.9394 256.528 13.619 256.762 12.3635 257.302C11.3862 257.722 10.53 258.371 9.58411 258.865C7.61211 259.895 5.86099 261.664 4.31427 263.243C3.61647 263.956 3.20594 264.929 2.63982 265.745C2.40941 266.077 1.89408 266.521 2.01934 266.894" stroke="#464646" stroke-width="3" stroke-linecap="round"/>
<defs>
<linearGradient id="paint0_linear_5_205" x1="95.5" y1="0" x2="95.5" y2="160" gradientUnits="userSpaceOnUse">
<stop stop-color="#5C55A3"/>
<stop offset="1" stop-color="#5C55A3" stop-opacity="0"/>
</linearGradient>
<linearGradient id="paint1_linear_5_205" x1="525.5" y1="44" x2="525.5" y2="204" gradientUnits="userSpaceOnUse">
<stop stop-color="#5C55A3"/>
<stop offset="1" stop-color="#5C55A3" stop-opacity="0"/>
</linearGradient>
<linearGradient id="paint2_linear_5_205" x1="105.5" y1="44" x2="105.5" y2="204" gradientUnits="userSpaceOnUse">
<stop stop-color="#5C55A3"/>
<stop offset="1" stop-color="#5C55A3" stop-opacity="0"/>
</linearGradient>
<linearGradient id="paint3_linear_5_205" x1="754.5" y1="353" x2="754.5" y2="464" gradientUnits="userSpaceOnUse">
<stop stop-color="#5C55A3"/>
<stop offset="1" stop-color="#5C55A3" stop-opacity="0"/>
</linearGradient>
<linearGradient id="paint4_linear_5_205" x1="95.5" y1="0" x2="95.5" y2="111" gradientUnits="userSpaceOnUse">
<stop stop-color="#5C55A3"/>
<stop offset="1" stop-color="#5C55A3" stop-opacity="0"/>
</linearGradient>
<linearGradient id="paint5_linear_5_205" x1="128" y1="0" x2="128" y2="111" gradientUnits="userSpaceOnUse">
<stop stop-color="#5C55A3"/>
<stop offset="1" stop-color="#5C55A3" stop-opacity="0"/>
</linearGradient>
<linearGradient id="paint6_linear_5_205" x1="524.5" y1="353" x2="524.5" y2="464" gradientUnits="userSpaceOnUse">
<stop stop-color="#5C55A3"/>
<stop offset="1" stop-color="#5C55A3" stop-opacity="0"/>
</linearGradient>
<linearGradient id="paint7_linear_5_205" x1="104.5" y1="353" x2="104.5" y2="464" gradientUnits="userSpaceOnUse">
<stop stop-color="#5C55A3"/>
<stop offset="1" stop-color="#5C55A3" stop-opacity="0"/>
</linearGradient>
</defs>
</svg>
