<svg width="426" height="423" viewBox="0 0 426 423" fill="none" xmlns="http://www.w3.org/2000/svg">
<circle cx="137" cy="138" r="137" fill="#5C55A3" fill-opacity="0.44"/>
<ellipse cx="287" cy="204.5" rx="137" ry="136.5" fill="#F6F3D4" fill-opacity="0.8"/>
<circle cx="137" cy="286" r="137" fill="#CECECE" fill-opacity="0.49"/>
<path d="M142.122 148.533C133.821 147.609 126.075 147.657 117.995 150.546C115.595 151.405 112.808 151.502 110.311 152.202C106.539 153.259 102.813 155.466 98.8727 155.781C94.7833 156.109 90.8375 159.483 86.4519 159.808C84.1717 159.977 82.7688 162.04 80.3755 162.224C78.3598 162.38 75.2162 164.087 73.3609 165.088C69.4184 167.214 64.9186 168.556 61.3422 171.486C54.3952 177.178 47.3034 182.071 41.4153 188.623C30.3964 200.884 17.669 213.454 10.0505 228.713C6.04876 236.728 4.29881 247.601 3.03589 256.454C1.4061 267.879 2.18699 279.876 2.18699 291.488C2.18699 295.302 2.99121 298.901 2.99121 302.539C2.99121 307.627 3.40907 314.499 5.22517 319.273C5.93359 321.136 5.14178 323.034 6.0294 324.911C7.1118 327.199 7.25111 329.798 8.26335 332.115C9.98255 336.05 12.3913 340.865 13.4461 345.09C14.8202 350.594 17.5965 355.416 20.0586 360.348C22.3069 364.851 26.7811 368.455 28.5477 373.055C30.2545 377.499 35.8236 379.661 38.1984 383.704C39.335 385.639 42.0466 386.663 43.6046 388.223C46.7284 391.351 50.9366 395.435 55.0871 397.216C67.4984 402.543 80.0255 408.219 92.7069 411.847C105.023 415.371 118.195 421.557 131.488 421.557C141.806 421.557 153.18 422.988 163.434 420.706C168.213 419.643 173.163 418.187 177.91 416.724C181.76 415.538 185.561 412.982 189.214 411.937C192.373 411.033 196.06 409.043 199.222 408.67C201.539 408.398 208.526 405.438 210.302 403.659C212.352 401.607 215.581 399.998 216.915 396.992C217.621 395.402 222.154 391.086 223.796 390.147C228.919 387.215 236.55 380.057 239.612 374.845C243.734 367.827 249.167 361.252 253.552 354.352C261.988 341.077 269.19 325.326 269.19 309.206C269.19 305.623 271.407 302.455 271.602 299.139C271.825 295.344 272.149 290.815 273.032 287.058C274.802 279.525 274.004 266.73 271.781 259.496C270.549 255.485 269.488 251.259 268.341 247.237C267.458 244.142 265.304 240.62 264.409 237.483C262.046 229.201 256.29 222.205 252.48 214.574C248.788 207.181 242.462 201.635 237.378 195.155C235.006 192.132 231.589 189.18 228.576 186.833C225.496 184.434 222.26 181.02 218.97 179.137C213.036 175.742 207.713 170.759 201.635 167.236C195.65 163.766 188.607 158.117 181.931 156.631C179.685 156.132 173.924 154.681 172.057 153.186C168.361 150.225 162.235 152.563 158.207 150.77C154.168 148.972 148.824 151.714 144.892 149.965C142.072 148.709 138.065 149.338 134.884 149.338" stroke="#464646" stroke-width="2" stroke-linecap="round"/>
<path d="M142.122 1.53283C133.821 0.609201 126.075 0.656586 117.995 3.54628C115.595 4.40476 112.808 4.50158 110.311 5.20178C106.539 6.25922 102.813 8.46556 98.8727 8.78125C94.7833 9.10887 90.8375 12.4828 86.4519 12.8081C84.1717 12.9773 82.7688 15.0399 80.3755 15.2243C78.3598 15.3796 75.2162 17.0874 73.3609 18.0879C69.4184 20.2138 64.9186 21.5558 61.3422 24.4862C54.3952 30.1782 47.3034 35.0711 41.4153 41.6228C30.3964 53.8836 17.669 66.4539 10.0505 81.7128C6.04876 89.7279 4.29881 100.601 3.03589 109.454C1.4061 120.879 2.18699 132.876 2.18699 144.488C2.18699 148.302 2.99121 151.901 2.99121 155.539C2.99121 160.627 3.40907 167.499 5.22517 172.273C5.93359 174.136 5.14178 176.034 6.0294 177.911C7.1118 180.199 7.25111 182.798 8.26335 185.115C9.98255 189.05 12.3913 193.865 13.4461 198.09C14.8202 203.594 17.5965 208.416 20.0586 213.348C22.3069 217.851 26.7811 221.455 28.5477 226.055C30.2545 230.499 35.8236 232.661 38.1984 236.704C39.335 238.639 42.0466 239.663 43.6046 241.223C46.7284 244.351 50.9366 248.435 55.0871 250.216C67.4984 255.543 80.0255 261.219 92.7069 264.847C105.023 268.371 118.195 274.557 131.488 274.557C141.806 274.557 153.18 275.988 163.434 273.706C168.213 272.643 173.163 271.187 177.91 269.724C181.76 268.538 185.561 265.982 189.214 264.937C192.373 264.033 196.06 262.043 199.222 261.67C201.539 261.398 208.526 258.438 210.302 256.659C212.352 254.607 215.581 252.998 216.915 249.992C217.621 248.402 222.154 244.086 223.796 243.147C228.919 240.215 236.55 233.057 239.612 227.845C243.734 220.827 249.167 214.252 253.552 207.352C261.988 194.077 269.19 178.326 269.19 162.206C269.19 158.623 271.407 155.455 271.602 152.139C271.825 148.344 272.149 143.815 273.032 140.058C274.802 132.525 274.004 119.73 271.781 112.496C270.549 108.485 269.488 104.259 268.341 100.237C267.458 97.1417 265.304 93.6198 264.409 90.4825C262.046 82.2006 256.29 75.2053 252.48 67.574C248.788 60.1807 242.462 54.635 237.378 48.1554C235.006 45.1325 231.589 42.1796 228.576 39.8331C225.496 37.4341 222.26 34.0198 218.97 32.1373C213.036 28.7416 207.713 23.7594 201.635 20.2355C195.65 16.7656 188.607 11.1171 181.931 9.63137C179.685 9.13151 173.924 7.68141 172.057 6.18614C168.361 3.22506 162.235 5.56299 158.207 3.77C154.168 1.97242 148.824 4.71444 144.892 2.96462C142.072 1.70927 138.065 2.33821 134.884 2.33821" stroke="#464646" stroke-width="2" stroke-linecap="round"/>
<path d="M292.637 68.5309C284.306 67.6106 276.531 67.6578 268.422 70.537C266.013 71.3923 263.215 71.4888 260.709 72.1864C256.924 73.24 253.184 75.4383 249.229 75.7528C245.124 76.0793 241.164 79.4409 236.762 79.7651C234.474 79.9336 233.066 81.9887 230.664 82.1724C228.641 82.3271 225.485 84.0287 223.623 85.0255C219.666 87.1437 215.15 88.4807 211.56 91.4004C204.588 97.0717 197.47 101.947 191.56 108.475C180.501 120.691 167.727 133.215 160.08 148.418C156.064 156.404 154.307 167.237 153.04 176.058C151.404 187.441 152.188 199.395 152.188 210.964C152.188 214.764 152.995 218.35 152.995 221.975C152.995 227.045 153.414 233.892 155.237 238.648C155.948 240.504 155.153 242.396 156.044 244.265C157.131 246.545 157.27 249.134 158.286 251.443C160.012 255.364 162.429 260.161 163.488 264.371C164.867 269.855 167.654 274.659 170.125 279.573C172.382 284.059 176.872 287.651 178.645 292.233C180.358 296.661 185.948 298.815 188.331 302.843C189.472 304.771 192.194 305.792 193.758 307.346C196.893 310.463 201.116 314.532 205.282 316.307C217.739 321.614 230.312 327.269 243.04 330.884C255.402 334.395 268.622 340.558 281.964 340.558C292.32 340.558 303.736 341.985 314.028 339.711C318.825 338.651 323.792 337.201 328.557 335.744C332.42 334.562 336.236 332.015 339.902 330.973C343.073 330.073 346.774 328.09 349.947 327.719C352.272 327.447 359.285 324.499 361.068 322.726C363.125 320.681 366.366 319.079 367.705 316.084C368.414 314.499 372.963 310.199 374.611 309.263C379.753 306.342 387.413 299.21 390.486 294.017C394.623 287.025 400.076 280.474 404.477 273.599C412.943 260.372 420.172 244.679 420.172 228.618C420.172 225.047 422.398 221.891 422.593 218.587C422.817 214.806 423.143 210.293 424.028 206.551C425.805 199.045 425.004 186.297 422.773 179.089C421.536 175.093 420.472 170.882 419.32 166.874C418.434 163.791 416.272 160.282 415.374 157.156C413.002 148.904 407.225 141.935 403.4 134.331C399.696 126.965 393.346 121.439 388.243 114.983C385.863 111.971 382.433 109.029 379.409 106.691C376.318 104.301 373.07 100.899 369.768 99.0236C363.812 95.6404 358.469 90.6763 352.369 87.1653C346.362 83.708 339.293 78.0801 332.593 76.5999C330.338 76.1018 324.556 74.657 322.682 73.1672C318.973 70.2169 312.824 72.5463 308.781 70.7599C304.727 68.9689 299.363 71.7009 295.418 69.9574C292.587 68.7067 288.565 69.3333 285.373 69.3333" stroke="#464646" stroke-width="2" stroke-linecap="round"/>
<path d="M310.235 204.135L311.67 203.925C312.253 203.925 312.58 204.287 312.65 205.01C312.65 205.64 311.892 206.048 310.375 206.235C309.418 206.982 308.94 207.938 308.94 209.105V210.26C309.407 212.827 310.2 214.11 311.32 214.11H311.67C312.323 214.11 313.303 213.492 314.61 212.255H314.82C315.287 212.255 315.66 212.582 315.94 213.235C315.613 214.238 314.563 215.148 312.79 215.965C312.463 216.105 312.055 216.175 311.565 216.175C309.162 216.175 307.598 214.285 306.875 210.505V209.735C306.875 207.005 307.995 205.138 310.235 204.135ZM323.305 202.805C325.032 202.805 326.338 204.088 327.225 206.655L327.365 207.39C327.365 209.887 326.198 212.442 323.865 215.055C322.932 215.918 321.987 216.35 321.03 216.35C319.63 216.35 318.638 215.545 318.055 213.935C317.845 213.188 317.74 212.535 317.74 211.975V211.555C317.74 207.868 319.082 205.068 321.765 203.155C322.232 202.922 322.745 202.805 323.305 202.805ZM319.805 211.905C319.805 213.492 320.213 214.285 321.03 214.285C322.733 214.285 324.145 212.103 325.265 207.74V207.075C324.868 205.628 324.133 204.905 323.06 204.905C322.64 204.905 322.43 205.197 322.43 205.78C322.43 206.177 321.963 206.492 321.03 206.725C320.213 208.102 319.805 209.828 319.805 211.905ZM337.141 196.785C337.538 196.785 337.899 197.158 338.226 197.905L336.686 207.635V210.365C336.686 213.212 337.129 214.635 338.016 214.635C338.599 214.915 338.891 215.288 338.891 215.755C338.891 216.292 338.424 216.607 337.491 216.7C336.464 216.7 335.659 215.755 335.076 213.865H334.726C333.863 215.755 332.813 216.7 331.576 216.7C330.129 216.7 329.254 215.603 328.951 213.41C328.951 210.867 330.654 208.172 334.061 205.325C334.738 205.325 335.076 204.38 335.076 202.49C335.589 198.687 336.278 196.785 337.141 196.785ZM331.016 213.13V214.075L331.576 214.635H331.786C332.533 214.635 333.408 212.383 334.411 207.88H334.201C332.078 210.003 331.016 211.753 331.016 213.13ZM343.277 203.435C344.21 203.458 345.785 205.092 348.002 208.335L348.072 208.93C348.072 209.583 346.474 210.085 343.277 210.435L343.172 210.54V210.68C343.662 212.78 344.175 213.83 344.712 213.83H345.132C345.879 213.83 347.01 213.025 348.527 211.415H348.737C349.204 211.415 349.565 211.753 349.822 212.43C349.822 212.99 348.842 213.958 346.882 215.335C346.369 215.638 345.75 215.86 345.027 216C343.137 216 341.819 214.227 341.072 210.68C339.999 210.517 339.462 210.073 339.462 209.35C339.462 208.837 339.859 208.498 340.652 208.335V208.475L341.002 208.335V207.46C341.002 204.777 341.76 203.435 343.277 203.435ZM343.487 205.955H343.172L343.032 207.25V208.335H343.172C344.479 208.288 345.132 208.148 345.132 207.915C344.525 207.005 343.977 206.352 343.487 205.955Z" fill="#464646"/>
<path d="M85.3 312.56C86.3733 312.56 86.91 313.073 86.91 314.1C87.05 314.1 87.12 314.275 87.12 314.625H87.26L87.12 315.64L87.26 322.71L87.05 328.31C89.15 328.31 90.5617 329.85 91.285 332.93C91.285 333.56 90.8533 333.922 89.99 334.015C89.5933 334.015 89.15 333.14 88.66 331.39C88.1933 330.713 87.6567 330.375 87.05 330.375H86.91C86.1633 335.345 85.51 337.83 84.95 337.83C84.2733 339.067 83.2933 339.685 82.01 339.685C80.12 339.242 79.175 338.297 79.175 336.85V336.64C79.175 334.447 80.7383 332.067 83.865 329.5L84.95 328.835L85.09 325.055V324.18H84.95C84.1567 325.183 83.3983 325.685 82.675 325.685H82.465C80.855 325.685 79.9333 324.448 79.7 321.975V321.205C79.7 318.218 80.7967 315.628 82.99 313.435C83.6667 312.852 84.4367 312.56 85.3 312.56ZM81.8 320.75V322.43C81.8933 323.2 82.0683 323.585 82.325 323.585H82.675C83.3283 323.585 84.1333 321.182 85.09 316.375V314.625C83.69 314.625 82.5933 316.667 81.8 320.75ZM81.24 336.71C81.3333 337.293 81.66 337.585 82.22 337.585C83.34 337.585 84.145 335.59 84.635 331.6H84.425C82.3017 333.443 81.24 335.147 81.24 336.71ZM90.4986 315.465L91.1286 315.115C91.6886 315.115 92.0969 315.453 92.3536 316.13C91.9803 317.857 91.7936 319.63 91.7936 321.45C91.7936 322.36 92.0619 323.352 92.5986 324.425H92.8086C93.4853 324.425 94.2903 321.753 95.2236 316.41C95.5503 316.13 95.8653 315.99 96.1686 315.99C96.8919 315.99 97.2536 317.273 97.2536 319.84C97.5569 322.663 97.8953 324.075 98.2686 324.075L98.7936 323.865C99.4703 324.122 99.8086 324.483 99.8086 324.95C99.3886 325.837 98.8053 326.28 98.0586 326.28C97.2186 326.28 96.4136 325.44 95.6436 323.76C94.7103 325.72 93.7653 326.7 92.8086 326.7C91.3853 326.7 90.3936 325.218 89.8336 322.255L89.7286 321.135V320.785C89.7286 318.918 89.9853 317.145 90.4986 315.465ZM100.969 307.765C101.855 307.952 102.299 308.348 102.299 308.955C102.065 309.608 101.692 309.935 101.179 309.935C100.315 309.772 99.8838 309.34 99.8838 308.64C100.117 308.057 100.479 307.765 100.969 307.765ZM102.299 312.665C102.672 312.665 102.987 313.003 103.244 313.68L102.929 316.165V317.81C102.929 319.723 103.255 322.232 103.909 325.335C103.675 325.778 103.279 326 102.719 326C101.762 326 101.132 323.2 100.829 317.6V316.375C100.829 313.902 101.319 312.665 102.299 312.665ZM113.935 306.785C114.332 306.785 114.693 307.158 115.02 307.905L113.48 317.635V320.365C113.48 323.212 113.923 324.635 114.81 324.635C115.393 324.915 115.685 325.288 115.685 325.755C115.685 326.292 115.218 326.607 114.285 326.7C113.258 326.7 112.453 325.755 111.87 323.865H111.52C110.657 325.755 109.607 326.7 108.37 326.7C106.923 326.7 106.048 325.603 105.745 323.41C105.745 320.867 107.448 318.172 110.855 315.325C111.532 315.325 111.87 314.38 111.87 312.49C112.383 308.687 113.072 306.785 113.935 306.785ZM107.81 323.13V324.075L108.37 324.635H108.58C109.327 324.635 110.202 322.383 111.205 317.88H110.995C108.872 320.003 107.81 321.753 107.81 323.13ZM120.071 313.435C121.004 313.458 122.579 315.092 124.796 318.335L124.866 318.93C124.866 319.583 123.268 320.085 120.071 320.435L119.966 320.54V320.68C120.456 322.78 120.969 323.83 121.506 323.83H121.926C122.673 323.83 123.804 323.025 125.321 321.415H125.531C125.998 321.415 126.359 321.753 126.616 322.43C126.616 322.99 125.636 323.958 123.676 325.335C123.163 325.638 122.544 325.86 121.821 326C119.931 326 118.613 324.227 117.866 320.68C116.793 320.517 116.256 320.073 116.256 319.35C116.256 318.837 116.653 318.498 117.446 318.335V318.475L117.796 318.335V317.46C117.796 314.777 118.554 313.435 120.071 313.435ZM120.281 315.955H119.966L119.826 317.25V318.335H119.966C121.273 318.288 121.926 318.148 121.926 317.915C121.319 317.005 120.771 316.352 120.281 315.955ZM129.956 306.715C130.609 306.948 130.936 307.31 130.936 307.8L131.286 321.135V325.44C131.286 326.233 130.948 326.63 130.271 326.63H129.816C129.396 326.35 129.186 326.023 129.186 325.65V321.59L128.871 307.73C128.871 307.147 129.233 306.808 129.956 306.715ZM134.226 307.765C135.112 307.952 135.556 308.348 135.556 308.955C135.322 309.608 134.949 309.935 134.436 309.935C133.572 309.772 133.141 309.34 133.141 308.64C133.374 308.057 133.736 307.765 134.226 307.765ZM135.556 312.665C135.929 312.665 136.244 313.003 136.501 313.68L136.186 316.165V317.81C136.186 319.723 136.512 322.232 137.166 325.335C136.932 325.778 136.536 326 135.976 326C135.019 326 134.389 323.2 134.086 317.6V316.375C134.086 313.902 134.576 312.665 135.556 312.665ZM143.517 314.205C145.5 314.368 146.492 315.337 146.492 317.11L146.562 317.565L146.492 323.025C146.492 323.655 146.853 324.507 147.577 325.58V325.65C147.39 326.327 147.052 326.665 146.562 326.665C145.115 326.058 144.392 324.775 144.392 322.815V322.36L144.287 322.29L144.392 322.15V322.08L144.497 317.25C144.497 316.573 144.205 316.235 143.622 316.235H143.202C142.035 316.702 141.452 319.257 141.452 323.9C141.452 325.51 141.043 326.315 140.227 326.315C139.597 326.315 139.27 325.918 139.247 325.125V321.625C139.247 317.098 139.643 314.835 140.437 314.835L140.787 314.73L141.522 314.835C142.152 314.415 142.817 314.205 143.517 314.205ZM151.824 313.435C152.757 313.458 154.332 315.092 156.549 318.335L156.619 318.93C156.619 319.583 155.02 320.085 151.824 320.435L151.719 320.54V320.68C152.209 322.78 152.722 323.83 153.259 323.83H153.679C154.425 323.83 155.557 323.025 157.074 321.415H157.284C157.75 321.415 158.112 321.753 158.369 322.43C158.369 322.99 157.389 323.958 155.429 325.335C154.915 325.638 154.297 325.86 153.574 326C151.684 326 150.365 324.227 149.619 320.68C148.545 320.517 148.009 320.073 148.009 319.35C148.009 318.837 148.405 318.498 149.199 318.335V318.475L149.549 318.335V317.46C149.549 314.777 150.307 313.435 151.824 313.435ZM152.034 315.955H151.719L151.579 317.25V318.335H151.719C153.025 318.288 153.679 318.148 153.679 317.915C153.072 317.005 152.524 316.352 152.034 315.955ZM166.749 311.825C167.379 311.825 167.81 312.887 168.044 315.01C167.81 315.593 167.425 315.885 166.889 315.885C166.515 315.815 166.142 315.383 165.769 314.59L165.139 314.38C164.042 314.38 163.05 315.103 162.164 316.55V316.865C162.164 317.215 163.809 317.798 167.099 318.615C168.475 319.432 169.164 320.423 169.164 321.59C169.164 323.503 167.624 325.137 164.544 326.49L163.249 326.7C161.289 326.49 160.309 325.51 160.309 323.76V323.655C160.309 323.095 160.67 322.768 161.394 322.675C161.954 322.675 162.327 323.258 162.514 324.425L162.794 324.635H163.389C164.719 324.635 165.955 323.725 167.099 321.905V321.45C167.099 320.75 165.57 320.097 162.514 319.49C160.904 318.837 160.099 317.927 160.099 316.76C160.099 315.243 161.37 313.82 163.914 312.49C165.034 312.35 165.979 312.128 166.749 311.825Z" fill="#464646"/>
<path d="M63.3 91.56C64.3733 91.56 64.91 92.0733 64.91 93.1C65.05 93.1 65.12 93.275 65.12 93.625H65.26L65.12 94.64L65.26 101.71L65.05 107.31C67.15 107.31 68.5617 108.85 69.285 111.93C69.285 112.56 68.8533 112.922 67.99 113.015C67.5933 113.015 67.15 112.14 66.66 110.39C66.1933 109.713 65.6567 109.375 65.05 109.375H64.91C64.1633 114.345 63.51 116.83 62.95 116.83C62.2733 118.067 61.2933 118.685 60.01 118.685C58.12 118.242 57.175 117.297 57.175 115.85V115.64C57.175 113.447 58.7383 111.067 61.865 108.5L62.95 107.835L63.09 104.055V103.18H62.95C62.1567 104.183 61.3983 104.685 60.675 104.685H60.465C58.855 104.685 57.9333 103.448 57.7 100.975V100.205C57.7 97.2183 58.7967 94.6283 60.99 92.435C61.6667 91.8517 62.4367 91.56 63.3 91.56ZM59.8 99.75V101.43C59.8933 102.2 60.0683 102.585 60.325 102.585H60.675C61.3283 102.585 62.1333 100.182 63.09 95.375V93.625C61.69 93.625 60.5933 95.6667 59.8 99.75ZM59.24 115.71C59.3333 116.293 59.66 116.585 60.22 116.585C61.34 116.585 62.145 114.59 62.635 110.6H62.425C60.3017 112.443 59.24 114.147 59.24 115.71ZM71.7186 91.21C73.1886 91.21 74.0636 92.2367 74.3436 94.29V94.605C74.3436 96.8683 73.1769 98.945 70.8436 100.835C72.1969 102.165 74.5653 102.83 77.9486 102.83C78.4619 102.993 78.7186 103.355 78.7186 103.915C78.7186 104.545 78.3103 104.86 77.4936 104.86C75.2069 104.86 72.8036 104.277 70.2836 103.11V104.125C70.2836 106.528 69.7703 107.73 68.7436 107.73C68.0203 107.73 67.6586 106.342 67.6586 103.565V100.835L67.5536 99.855L67.7986 98.735L67.5536 95.375V95.235C67.5536 94.605 67.8803 94.1733 68.5336 93.94C69.4436 92.12 70.5053 91.21 71.7186 91.21ZM69.9686 98.875C70.6453 98.875 71.4036 97.6617 72.2436 95.235V93.73L71.8236 93.275H71.5086C70.4819 93.975 69.9686 95.8417 69.9686 98.875ZM86.4268 91.49C87.4535 91.49 87.9668 91.8983 87.9668 92.715L87.6518 93.38L87.4418 99.785C87.4418 102.678 88.0251 104.475 89.1918 105.175L89.2618 105.7C89.1918 106.377 88.8768 106.715 88.3168 106.715H88.1068C86.3568 105.525 85.4818 103.705 85.4818 101.255H85.2368C84.3035 103.868 83.1718 105.175 81.8418 105.175C80.6051 104.825 79.9868 103.903 79.9868 102.41C79.9868 99.12 81.3051 95.8417 83.9418 92.575C84.8285 91.8517 85.6568 91.49 86.4268 91.49ZM82.1918 101.01L82.0518 101.99V102.655H82.4018C84.1518 98.2917 85.0268 95.6317 85.0268 94.675H84.8868C83.5335 96.1917 82.6351 98.3033 82.1918 101.01ZM94.4065 94.605C96.8799 94.605 98.3382 96.1567 98.7815 99.26C98.7815 102.013 97.4982 103.985 94.9315 105.175C94.6515 105.315 94.2665 105.385 93.7765 105.385H93.5315L92.7615 105.315V105.385L92.9015 114.73C92.7382 115.453 92.3649 115.815 91.7815 115.815C91.1282 115.605 90.8015 115.267 90.8015 114.8L90.4865 95.76C90.4865 95.1533 90.8482 94.8383 91.5715 94.815L92.3065 95.13C92.9599 94.78 93.6599 94.605 94.4065 94.605ZM92.6565 98.315L92.5515 99.4L92.6565 103.11L93.6365 103.355C95.1999 103.355 96.2149 102.212 96.6815 99.925V99.4C96.5182 97.5567 95.8649 96.635 94.7215 96.635H94.1965C93.1699 96.635 92.6565 97.195 92.6565 98.315ZM101.894 85.68C102.547 85.68 102.874 86.4733 102.874 88.06L103.294 94.08H103.434L105.184 93.415C107.144 93.415 108.334 95.4217 108.754 99.435C108.917 100.578 108.999 102.258 108.999 104.475V107.31C108.999 108.197 108.672 108.64 108.019 108.64H107.879C107.249 108.547 106.934 108.208 106.934 107.625V104.335C106.934 99.0617 106.42 96.145 105.394 95.585H105.184C104.484 95.585 103.97 96.6583 103.644 98.805V100.765C103.644 104.265 103.352 106.015 102.769 106.015L102.104 106.085C101.45 106.085 101.124 105.117 101.124 103.18C101.194 101.127 101.334 99.4467 101.544 98.14L100.809 86.625C100.809 86.0183 101.17 85.7033 101.894 85.68ZM111.064 86.765C111.95 86.9517 112.394 87.3483 112.394 87.955C112.16 88.6083 111.787 88.935 111.274 88.935C110.41 88.7717 109.979 88.34 109.979 87.64C110.212 87.0567 110.574 86.765 111.064 86.765ZM112.394 91.665C112.767 91.665 113.082 92.0033 113.339 92.68L113.024 95.165V96.81C113.024 98.7233 113.35 101.232 114.004 104.335C113.77 104.778 113.374 105 112.814 105C111.857 105 111.227 102.2 110.924 96.6V95.375C110.924 92.9017 111.414 91.665 112.394 91.665ZM119.375 93.135L120.81 92.925C121.393 92.925 121.72 93.2867 121.79 94.01C121.79 94.64 121.031 95.0483 119.515 95.235C118.558 95.9817 118.08 96.9383 118.08 98.105V99.26C118.546 101.827 119.34 103.11 120.46 103.11H120.81C121.463 103.11 122.443 102.492 123.75 101.255H123.96C124.426 101.255 124.8 101.582 125.08 102.235C124.753 103.238 123.703 104.148 121.93 104.965C121.603 105.105 121.195 105.175 120.705 105.175C118.301 105.175 116.738 103.285 116.015 99.505V98.735C116.015 96.005 117.135 94.1383 119.375 93.135ZM133.88 90.825C134.51 90.825 134.941 91.8867 135.175 94.01C134.941 94.5933 134.556 94.885 134.02 94.885C133.646 94.815 133.273 94.3833 132.9 93.59L132.27 93.38C131.173 93.38 130.181 94.1033 129.295 95.55V95.865C129.295 96.215 130.94 96.7983 134.23 97.615C135.606 98.4317 136.295 99.4233 136.295 100.59C136.295 102.503 134.755 104.137 131.675 105.49L130.38 105.7C128.42 105.49 127.44 104.51 127.44 102.76V102.655C127.44 102.095 127.801 101.768 128.525 101.675C129.085 101.675 129.458 102.258 129.645 103.425L129.925 103.635H130.52C131.85 103.635 133.086 102.725 134.23 100.905V100.45C134.23 99.75 132.701 99.0967 129.645 98.49C128.035 97.8367 127.23 96.9267 127.23 95.76C127.23 94.2433 128.501 92.82 131.045 91.49C132.165 91.35 133.11 91.1283 133.88 90.825Z" fill="#464646"/>
<path d="M48.97 208.605C51.4433 208.605 52.9017 210.157 53.345 213.26C53.345 216.013 52.0617 217.985 49.495 219.175C49.215 219.315 48.83 219.385 48.34 219.385H48.095L47.325 219.315V219.385L47.465 228.73C47.3017 229.453 46.9283 229.815 46.345 229.815C45.6917 229.605 45.365 229.267 45.365 228.8L45.05 209.76C45.05 209.153 45.4117 208.838 46.135 208.815L46.87 209.13C47.5233 208.78 48.2233 208.605 48.97 208.605ZM47.22 212.315L47.115 213.4L47.22 217.11L48.2 217.355C49.7633 217.355 50.7783 216.212 51.245 213.925V213.4C51.0817 211.557 50.4283 210.635 49.285 210.635H48.76C47.7333 210.635 47.22 211.195 47.22 212.315ZM59.6073 205.21C61.0773 205.21 61.9523 206.237 62.2323 208.29V208.605C62.2323 210.868 61.0656 212.945 58.7323 214.835C60.0856 216.165 62.4539 216.83 65.8373 216.83C66.3506 216.993 66.6073 217.355 66.6073 217.915C66.6073 218.545 66.1989 218.86 65.3823 218.86C63.0956 218.86 60.6923 218.277 58.1723 217.11V218.125C58.1723 220.528 57.6589 221.73 56.6323 221.73C55.9089 221.73 55.5473 220.342 55.5473 217.565V214.835L55.4423 213.855L55.6873 212.735L55.4423 209.375V209.235C55.4423 208.605 55.7689 208.173 56.4223 207.94C57.3323 206.12 58.3939 205.21 59.6073 205.21ZM57.8573 212.875C58.5339 212.875 59.2923 211.662 60.1323 209.235V207.73L59.7123 207.275H59.3973C58.3706 207.975 57.8573 209.842 57.8573 212.875ZM68.1905 200.765C69.0771 200.952 69.5205 201.348 69.5205 201.955C69.2871 202.608 68.9138 202.935 68.4005 202.935C67.5371 202.772 67.1055 202.34 67.1055 201.64C67.3388 201.057 67.7005 200.765 68.1905 200.765ZM69.5205 205.665C69.8938 205.665 70.2088 206.003 70.4655 206.68L70.1505 209.165V210.81C70.1505 212.723 70.4771 215.232 71.1305 218.335C70.8971 218.778 70.5005 219 69.9405 219C68.9838 219 68.3538 216.2 68.0505 210.6V209.375C68.0505 206.902 68.5405 205.665 69.5205 205.665ZM77.4816 207.205C79.4649 207.368 80.4566 208.337 80.4566 210.11L80.5266 210.565L80.4566 216.025C80.4566 216.655 80.8183 217.507 81.5416 218.58V218.65C81.3549 219.327 81.0166 219.665 80.5266 219.665C79.0799 219.058 78.3566 217.775 78.3566 215.815V215.36L78.2516 215.29L78.3566 215.15V215.08L78.4616 210.25C78.4616 209.573 78.1699 209.235 77.5866 209.235H77.1666C75.9999 209.702 75.4166 212.257 75.4166 216.9C75.4166 218.51 75.0083 219.315 74.1916 219.315C73.5616 219.315 73.2349 218.918 73.2116 218.125V214.625C73.2116 210.098 73.6083 207.835 74.4016 207.835L74.7516 207.73L75.4866 207.835C76.1166 207.415 76.7816 207.205 77.4816 207.205ZM86.2086 207.135L87.6436 206.925C88.227 206.925 88.5536 207.287 88.6236 208.01C88.6236 208.64 87.8653 209.048 86.3486 209.235C85.392 209.982 84.9136 210.938 84.9136 212.105V213.26C85.3803 215.827 86.1736 217.11 87.2936 217.11H87.6436C88.297 217.11 89.277 216.492 90.5836 215.255H90.7936C91.2603 215.255 91.6336 215.582 91.9136 216.235C91.587 217.238 90.537 218.148 88.7636 218.965C88.437 219.105 88.0286 219.175 87.5386 219.175C85.1353 219.175 83.572 217.285 82.8486 213.505V212.735C82.8486 210.005 83.9686 208.138 86.2086 207.135ZM94.0987 200.765C94.9853 200.952 95.4287 201.348 95.4287 201.955C95.1953 202.608 94.822 202.935 94.3087 202.935C93.4453 202.772 93.0137 202.34 93.0137 201.64C93.247 201.057 93.6087 200.765 94.0987 200.765ZM95.4287 205.665C95.802 205.665 96.117 206.003 96.3737 206.68L96.0587 209.165V210.81C96.0587 212.723 96.3853 215.232 97.0387 218.335C96.8053 218.778 96.4087 219 95.8487 219C94.892 219 94.262 216.2 93.9587 210.6V209.375C93.9587 206.902 94.4487 205.665 95.4287 205.665ZM103.145 208.605C105.618 208.605 107.076 210.157 107.52 213.26C107.52 216.013 106.236 217.985 103.67 219.175C103.39 219.315 103.005 219.385 102.515 219.385H102.27L101.5 219.315V219.385L101.64 228.73C101.476 229.453 101.103 229.815 100.52 229.815C99.8665 229.605 99.5398 229.267 99.5398 228.8L99.2248 209.76C99.2248 209.153 99.5865 208.838 100.31 208.815L101.045 209.13C101.698 208.78 102.398 208.605 103.145 208.605ZM101.395 212.315L101.29 213.4L101.395 217.11L102.375 217.355C103.938 217.355 104.953 216.212 105.42 213.925V213.4C105.256 211.557 104.603 210.635 103.46 210.635H102.935C101.908 210.635 101.395 211.195 101.395 212.315ZM111.157 199.715C111.81 199.948 112.137 200.31 112.137 200.8L112.487 214.135V218.44C112.487 219.233 112.149 219.63 111.472 219.63H111.017C110.597 219.35 110.387 219.023 110.387 218.65V214.59L110.072 200.73C110.072 200.147 110.434 199.808 111.157 199.715ZM118.157 206.435C119.09 206.458 120.665 208.092 122.882 211.335L122.952 211.93C122.952 212.583 121.353 213.085 118.157 213.435L118.052 213.54V213.68C118.542 215.78 119.055 216.83 119.592 216.83H120.012C120.758 216.83 121.89 216.025 123.407 214.415H123.617C124.083 214.415 124.445 214.753 124.702 215.43C124.702 215.99 123.722 216.958 121.762 218.335C121.248 218.638 120.63 218.86 119.907 219C118.017 219 116.698 217.227 115.952 213.68C114.878 213.517 114.342 213.073 114.342 212.35C114.342 211.837 114.738 211.498 115.532 211.335V211.475L115.882 211.335V210.46C115.882 207.777 116.64 206.435 118.157 206.435ZM118.367 208.955H118.052L117.912 210.25V211.335H118.052C119.358 211.288 120.012 211.148 120.012 210.915C119.405 210.005 118.857 209.352 118.367 208.955ZM133.082 204.825C133.712 204.825 134.144 205.887 134.377 208.01C134.144 208.593 133.759 208.885 133.222 208.885C132.849 208.815 132.475 208.383 132.102 207.59L131.472 207.38C130.375 207.38 129.384 208.103 128.497 209.55V209.865C128.497 210.215 130.142 210.798 133.432 211.615C134.809 212.432 135.497 213.423 135.497 214.59C135.497 216.503 133.957 218.137 130.877 219.49L129.582 219.7C127.622 219.49 126.642 218.51 126.642 216.76V216.655C126.642 216.095 127.004 215.768 127.727 215.675C128.287 215.675 128.66 216.258 128.847 217.425L129.127 217.635H129.722C131.052 217.635 132.289 216.725 133.432 214.905V214.45C133.432 213.75 131.904 213.097 128.847 212.49C127.237 211.837 126.432 210.927 126.432 209.76C126.432 208.243 127.704 206.82 130.247 205.49C131.367 205.35 132.312 205.128 133.082 204.825Z" fill="#464646"/>
<path d="M173.63 135.83L174.86 135.65C175.36 135.65 175.64 135.96 175.7 136.58C175.7 137.12 175.05 137.47 173.75 137.63C172.93 138.27 172.52 139.09 172.52 140.09V141.08C172.92 143.28 173.6 144.38 174.56 144.38H174.86C175.42 144.38 176.26 143.85 177.38 142.79H177.56C177.96 142.79 178.28 143.07 178.52 143.63C178.24 144.49 177.34 145.27 175.82 145.97C175.54 146.09 175.19 146.15 174.77 146.15C172.71 146.15 171.37 144.53 170.75 141.29V140.63C170.75 138.29 171.71 136.69 173.63 135.83ZM184.833 134.69C186.313 134.69 187.433 135.79 188.193 137.99L188.313 138.62C188.313 140.76 187.313 142.95 185.313 145.19C184.513 145.93 183.703 146.3 182.883 146.3C181.683 146.3 180.833 145.61 180.333 144.23C180.153 143.59 180.063 143.03 180.063 142.55V142.19C180.063 139.03 181.213 136.63 183.513 134.99C183.913 134.79 184.353 134.69 184.833 134.69ZM181.833 142.49C181.833 143.85 182.183 144.53 182.883 144.53C184.343 144.53 185.553 142.66 186.513 138.92V138.35C186.173 137.11 185.543 136.49 184.623 136.49C184.263 136.49 184.083 136.74 184.083 137.24C184.083 137.58 183.683 137.85 182.883 138.05C182.183 139.23 181.833 140.71 181.833 142.49ZM190.122 135.5C190.262 135 190.582 134.75 191.082 134.75C191.582 134.75 191.912 135.25 192.072 136.25H192.192L193.572 135.95C194.212 135.95 194.832 136.55 195.432 137.75H195.552C196.432 136.37 197.332 135.68 198.252 135.68C200.212 136.04 201.192 137.32 201.192 139.52L201.252 140.57L200.982 146.63V147.2C200.982 147.7 200.672 147.99 200.052 148.07C199.432 148.07 199.122 147.34 199.122 145.88L199.482 140.45C199.482 138.45 199.012 137.45 198.072 137.45C197.532 137.45 196.882 138.76 196.122 141.38C195.742 144.38 195.432 145.88 195.192 145.88C194.852 145.88 194.682 145.95 194.682 146.09C194.062 146.01 193.752 145.69 193.752 145.13L194.142 141.5C194.082 139 193.832 137.75 193.392 137.75H193.302C192.802 138.13 192.552 138.88 192.552 140V141.59L192.432 146.18C192.292 146.68 191.982 146.93 191.502 146.93C191.082 146.93 190.812 146.58 190.692 145.88L190.572 142.34L190.752 139.43C190.632 137.93 190.422 136.62 190.122 135.5ZM206.604 137.09C208.724 137.09 209.974 138.42 210.354 141.08C210.354 143.44 209.254 145.13 207.054 146.15C206.814 146.27 206.484 146.33 206.064 146.33H205.854L205.194 146.27V146.33L205.314 154.34C205.174 154.96 204.854 155.27 204.354 155.27C203.794 155.09 203.514 154.8 203.514 154.4L203.244 138.08C203.244 137.56 203.554 137.29 204.174 137.27L204.804 137.54C205.364 137.24 205.964 137.09 206.604 137.09ZM205.104 140.27L205.014 141.2L205.104 144.38L205.944 144.59C207.284 144.59 208.154 143.61 208.554 141.65V141.2C208.414 139.62 207.854 138.83 206.874 138.83H206.424C205.544 138.83 205.104 139.31 205.104 140.27ZM216.561 134.69C218.041 134.69 219.161 135.79 219.921 137.99L220.041 138.62C220.041 140.76 219.041 142.95 217.041 145.19C216.241 145.93 215.431 146.3 214.611 146.3C213.411 146.3 212.561 145.61 212.061 144.23C211.881 143.59 211.791 143.03 211.791 142.55V142.19C211.791 139.03 212.941 136.63 215.241 134.99C215.641 134.79 216.081 134.69 216.561 134.69ZM213.561 142.49C213.561 143.85 213.911 144.53 214.611 144.53C216.071 144.53 217.281 142.66 218.241 138.92V138.35C217.901 137.11 217.271 136.49 216.351 136.49C215.991 136.49 215.811 136.74 215.811 137.24C215.811 137.58 215.411 137.85 214.611 138.05C213.911 139.23 213.561 140.71 213.561 142.49ZM225.271 135.89C226.971 136.03 227.821 136.86 227.821 138.38L227.881 138.77L227.821 143.45C227.821 143.99 228.131 144.72 228.751 145.64V145.7C228.591 146.28 228.301 146.57 227.881 146.57C226.641 146.05 226.021 144.95 226.021 143.27V142.88L225.931 142.82L226.021 142.7V142.64L226.111 138.5C226.111 137.92 225.861 137.63 225.361 137.63H225.001C224.001 138.03 223.501 140.22 223.501 144.2C223.501 145.58 223.151 146.27 222.451 146.27C221.911 146.27 221.631 145.93 221.611 145.25V142.25C221.611 138.37 221.951 136.43 222.631 136.43L222.931 136.34L223.561 136.43C224.101 136.07 224.671 135.89 225.271 135.89ZM232.391 135.23C233.191 135.25 234.541 136.65 236.441 139.43L236.501 139.94C236.501 140.5 235.131 140.93 232.391 141.23L232.301 141.32V141.44C232.721 143.24 233.161 144.14 233.621 144.14H233.981C234.621 144.14 235.591 143.45 236.891 142.07H237.071C237.471 142.07 237.781 142.36 238.001 142.94C238.001 143.42 237.161 144.25 235.481 145.43C235.041 145.69 234.511 145.88 233.891 146C232.271 146 231.141 144.48 230.501 141.44C229.581 141.3 229.121 140.92 229.121 140.3C229.121 139.86 229.461 139.57 230.141 139.43V139.55L230.441 139.43V138.68C230.441 136.38 231.091 135.23 232.391 135.23ZM232.571 137.39H232.301L232.181 138.5V139.43H232.301C233.421 139.39 233.981 139.27 233.981 139.07C233.461 138.29 232.991 137.73 232.571 137.39ZM243.054 135.89C244.754 136.03 245.604 136.86 245.604 138.38L245.664 138.77L245.604 143.45C245.604 143.99 245.914 144.72 246.534 145.64V145.7C246.374 146.28 246.084 146.57 245.664 146.57C244.424 146.05 243.804 144.95 243.804 143.27V142.88L243.714 142.82L243.804 142.7V142.64L243.894 138.5C243.894 137.92 243.644 137.63 243.144 137.63H242.784C241.784 138.03 241.284 140.22 241.284 144.2C241.284 145.58 240.934 146.27 240.234 146.27C239.694 146.27 239.414 145.93 239.394 145.25V142.25C239.394 138.37 239.734 136.43 240.414 136.43L240.714 136.34L241.344 136.43C241.884 136.07 242.454 135.89 243.054 135.89ZM251.014 127.79C251.574 127.91 251.854 128.19 251.854 128.63L251.674 129.95V130.34C251.674 131.22 251.774 132.15 251.974 133.13H252.034C254.354 132.43 255.794 132.08 256.354 132.08C256.934 132.24 257.224 132.53 257.224 132.95C257.224 133.63 256.534 133.97 255.154 133.97L252.034 135.08C252.034 137.78 252.324 141.45 252.904 146.09C252.784 146.63 252.494 146.9 252.034 146.9H251.974C251.274 146.9 250.924 146 250.924 144.2C250.664 142.86 250.444 139.95 250.264 135.47H249.724C247.844 135.35 246.904 134.91 246.904 134.15C246.904 133.93 247.114 133.66 247.534 133.34H247.834L249.214 133.7H250.174L249.904 129.95C249.904 128.51 250.274 127.79 251.014 127.79ZM264.168 133.85C264.708 133.85 265.078 134.76 265.278 136.58C265.078 137.08 264.748 137.33 264.288 137.33C263.968 137.27 263.648 136.9 263.328 136.22L262.788 136.04C261.848 136.04 260.998 136.66 260.238 137.9V138.17C260.238 138.47 261.648 138.97 264.468 139.67C265.648 140.37 266.238 141.22 266.238 142.22C266.238 143.86 264.918 145.26 262.278 146.42L261.168 146.6C259.488 146.42 258.648 145.58 258.648 144.08V143.99C258.648 143.51 258.958 143.23 259.578 143.15C260.058 143.15 260.378 143.65 260.538 144.65L260.778 144.83H261.288C262.428 144.83 263.488 144.05 264.468 142.49V142.1C264.468 141.5 263.158 140.94 260.538 140.42C259.158 139.86 258.468 139.08 258.468 138.08C258.468 136.78 259.558 135.56 261.738 134.42C262.698 134.3 263.508 134.11 264.168 133.85Z" fill="#464646"/>
<path d="M171.89 179.785C172.287 179.785 172.648 180.158 172.975 180.905L171.435 190.635V193.365C171.435 196.212 171.878 197.635 172.765 197.635C173.348 197.915 173.64 198.288 173.64 198.755C173.64 199.292 173.173 199.607 172.24 199.7C171.213 199.7 170.408 198.755 169.825 196.865H169.475C168.612 198.755 167.562 199.7 166.325 199.7C164.878 199.7 164.003 198.603 163.7 196.41C163.7 193.867 165.403 191.172 168.81 188.325C169.487 188.325 169.825 187.38 169.825 185.49C170.338 181.687 171.027 179.785 171.89 179.785ZM165.765 196.13V197.075L166.325 197.635H166.535C167.282 197.635 168.157 195.383 169.16 190.88H168.95C166.827 193.003 165.765 194.753 165.765 196.13ZM178.026 186.435C178.959 186.458 180.534 188.092 182.751 191.335L182.821 191.93C182.821 192.583 181.223 193.085 178.026 193.435L177.921 193.54V193.68C178.411 195.78 178.924 196.83 179.461 196.83H179.881C180.628 196.83 181.759 196.025 183.276 194.415H183.486C183.953 194.415 184.314 194.753 184.571 195.43C184.571 195.99 183.591 196.958 181.631 198.335C181.118 198.638 180.499 198.86 179.776 199C177.886 199 176.568 197.227 175.821 193.68C174.748 193.517 174.211 193.073 174.211 192.35C174.211 191.837 174.608 191.498 175.401 191.335V191.475L175.751 191.335V190.46C175.751 187.777 176.509 186.435 178.026 186.435ZM178.236 188.955H177.921L177.781 190.25V191.335H177.921C179.228 191.288 179.881 191.148 179.881 190.915C179.274 190.005 178.726 189.352 178.236 188.955ZM192.951 184.825C193.581 184.825 194.013 185.887 194.246 188.01C194.013 188.593 193.628 188.885 193.091 188.885C192.718 188.815 192.344 188.383 191.971 187.59L191.341 187.38C190.244 187.38 189.253 188.103 188.366 189.55V189.865C188.366 190.215 190.011 190.798 193.301 191.615C194.678 192.432 195.366 193.423 195.366 194.59C195.366 196.503 193.826 198.137 190.746 199.49L189.451 199.7C187.491 199.49 186.511 198.51 186.511 196.76V196.655C186.511 196.095 186.873 195.768 187.596 195.675C188.156 195.675 188.529 196.258 188.716 197.425L188.996 197.635H189.591C190.921 197.635 192.158 196.725 193.301 194.905V194.45C193.301 193.75 191.773 193.097 188.716 192.49C187.106 191.837 186.301 190.927 186.301 189.76C186.301 188.243 187.573 186.82 190.116 185.49C191.236 185.35 192.181 185.128 192.951 184.825ZM197.068 180.765C197.955 180.952 198.398 181.348 198.398 181.955C198.165 182.608 197.792 182.935 197.278 182.935C196.415 182.772 195.983 182.34 195.983 181.64C196.217 181.057 196.578 180.765 197.068 180.765ZM198.398 185.665C198.772 185.665 199.087 186.003 199.343 186.68L199.028 189.165V190.81C199.028 192.723 199.355 195.232 200.008 198.335C199.775 198.778 199.378 199 198.818 199C197.862 199 197.232 196.2 196.928 190.6V189.375C196.928 186.902 197.418 185.665 198.398 185.665ZM207.445 185.56C208.518 185.56 209.055 186.073 209.055 187.1C209.195 187.1 209.265 187.275 209.265 187.625H209.405L209.265 188.64L209.405 195.71L209.195 201.31C211.295 201.31 212.706 202.85 213.43 205.93C213.43 206.56 212.998 206.922 212.135 207.015C211.738 207.015 211.295 206.14 210.805 204.39C210.338 203.713 209.801 203.375 209.195 203.375H209.055C208.308 208.345 207.655 210.83 207.095 210.83C206.418 212.067 205.438 212.685 204.155 212.685C202.265 212.242 201.32 211.297 201.32 209.85V209.64C201.32 207.447 202.883 205.067 206.01 202.5L207.095 201.835L207.235 198.055V197.18H207.095C206.301 198.183 205.543 198.685 204.82 198.685H204.61C203 198.685 202.078 197.448 201.845 194.975V194.205C201.845 191.218 202.941 188.628 205.135 186.435C205.811 185.852 206.581 185.56 207.445 185.56ZM203.945 193.75V195.43C204.038 196.2 204.213 196.585 204.47 196.585H204.82C205.473 196.585 206.278 194.182 207.235 189.375V187.625C205.835 187.625 204.738 189.667 203.945 193.75ZM203.385 209.71C203.478 210.293 203.805 210.585 204.365 210.585C205.485 210.585 206.29 208.59 206.78 204.6H206.57C204.446 206.443 203.385 208.147 203.385 209.71ZM215.793 187.205C217.776 187.368 218.768 188.337 218.768 190.11L218.838 190.565L218.768 196.025C218.768 196.655 219.13 197.507 219.853 198.58V198.65C219.666 199.327 219.328 199.665 218.838 199.665C217.391 199.058 216.668 197.775 216.668 195.815V195.36L216.563 195.29L216.668 195.15V195.08L216.773 190.25C216.773 189.573 216.481 189.235 215.898 189.235H215.478C214.311 189.702 213.728 192.257 213.728 196.9C213.728 198.51 213.32 199.315 212.503 199.315C211.873 199.315 211.546 198.918 211.523 198.125V194.625C211.523 190.098 211.92 187.835 212.713 187.835L213.063 187.73L213.798 187.835C214.428 187.415 215.093 187.205 215.793 187.205ZM170.7 219.825C171.33 219.825 171.762 220.887 171.995 223.01C171.762 223.593 171.377 223.885 170.84 223.885C170.467 223.815 170.093 223.383 169.72 222.59L169.09 222.38C167.993 222.38 167.002 223.103 166.115 224.55V224.865C166.115 225.215 167.76 225.798 171.05 226.615C172.427 227.432 173.115 228.423 173.115 229.59C173.115 231.503 171.575 233.137 168.495 234.49L167.2 234.7C165.24 234.49 164.26 233.51 164.26 231.76V231.655C164.26 231.095 164.622 230.768 165.345 230.675C165.905 230.675 166.278 231.258 166.465 232.425L166.745 232.635H167.34C168.67 232.635 169.907 231.725 171.05 229.905V229.45C171.05 228.75 169.522 228.097 166.465 227.49C164.855 226.837 164.05 225.927 164.05 224.76C164.05 223.243 165.322 221.82 167.865 220.49C168.985 220.35 169.93 220.128 170.7 219.825ZM175.517 223.5C176.334 223.5 176.894 225.297 177.197 228.89C177.594 230.547 177.886 231.375 178.072 231.375H178.282C178.866 229.905 179.157 228.447 179.157 227L178.947 224.585C179.204 223.955 179.566 223.64 180.032 223.64C180.896 223.64 181.327 225.168 181.327 228.225C181.841 231.398 182.097 234.35 182.097 237.08V238.725C182.097 243.742 180.674 247.125 177.827 248.875L177.057 249.015C175.727 249.015 174.491 247.778 173.347 245.305L173.032 243.205V243.1C173.032 241.56 173.464 240.79 174.327 240.79L175.202 241.35L175.097 243.555C175.097 244.628 175.646 245.713 176.742 246.81H177.197C178.481 246.81 179.426 244.36 180.032 239.46L180.102 237.43C180.079 235.073 179.986 233.568 179.822 232.915C178.889 233.732 178.154 234.14 177.617 234.14C176.427 234.14 175.366 230.955 174.432 224.585L174.327 224.515C174.327 223.978 174.724 223.64 175.517 223.5ZM190.695 219.825C191.325 219.825 191.757 220.887 191.99 223.01C191.757 223.593 191.372 223.885 190.835 223.885C190.462 223.815 190.088 223.383 189.715 222.59L189.085 222.38C187.988 222.38 186.997 223.103 186.11 224.55V224.865C186.11 225.215 187.755 225.798 191.045 226.615C192.422 227.432 193.11 228.423 193.11 229.59C193.11 231.503 191.57 233.137 188.49 234.49L187.195 234.7C185.235 234.49 184.255 233.51 184.255 231.76V231.655C184.255 231.095 184.617 230.768 185.34 230.675C185.9 230.675 186.273 231.258 186.46 232.425L186.74 232.635H187.335C188.665 232.635 189.902 231.725 191.045 229.905V229.45C191.045 228.75 189.517 228.097 186.46 227.49C184.85 226.837 184.045 225.927 184.045 224.76C184.045 223.243 185.317 221.82 187.86 220.49C188.98 220.35 189.925 220.128 190.695 219.825ZM198.523 212.755C199.176 212.895 199.503 213.222 199.503 213.735L199.293 215.275V215.73C199.293 216.757 199.409 217.842 199.643 218.985H199.713C202.419 218.168 204.099 217.76 204.753 217.76C205.429 217.947 205.768 218.285 205.768 218.775C205.768 219.568 204.963 219.965 203.353 219.965L199.713 221.26C199.713 224.41 200.051 228.692 200.728 234.105C200.588 234.735 200.249 235.05 199.713 235.05H199.643C198.826 235.05 198.418 234 198.418 231.9C198.114 230.337 197.858 226.942 197.648 221.715H197.018C194.824 221.575 193.728 221.062 193.728 220.175C193.728 219.918 193.973 219.603 194.463 219.23H194.813L196.423 219.65H197.543L197.228 215.275C197.228 213.595 197.659 212.755 198.523 212.755ZM209.984 221.435C210.917 221.458 212.492 223.092 214.709 226.335L214.779 226.93C214.779 227.583 213.181 228.085 209.984 228.435L209.879 228.54V228.68C210.369 230.78 210.882 231.83 211.419 231.83H211.839C212.586 231.83 213.717 231.025 215.234 229.415H215.444C215.911 229.415 216.272 229.753 216.529 230.43C216.529 230.99 215.549 231.958 213.589 233.335C213.076 233.638 212.457 233.86 211.734 234C209.844 234 208.526 232.227 207.779 228.68C206.706 228.517 206.169 228.073 206.169 227.35C206.169 226.837 206.566 226.498 207.359 226.335V226.475L207.709 226.335V225.46C207.709 222.777 208.467 221.435 209.984 221.435ZM210.194 223.955H209.879L209.739 225.25V226.335H209.879C211.186 226.288 211.839 226.148 211.839 225.915C211.232 225.005 210.684 224.352 210.194 223.955ZM218.434 221.75C218.597 221.167 218.971 220.875 219.554 220.875C220.137 220.875 220.522 221.458 220.709 222.625H220.849L222.459 222.275C223.206 222.275 223.929 222.975 224.629 224.375H224.769C225.796 222.765 226.846 221.96 227.919 221.96C230.206 222.38 231.349 223.873 231.349 226.44L231.419 227.665L231.104 234.735V235.4C231.104 235.983 230.742 236.322 230.019 236.415C229.296 236.415 228.934 235.563 228.934 233.86L229.354 227.525C229.354 225.192 228.806 224.025 227.709 224.025C227.079 224.025 226.321 225.553 225.434 228.61C224.991 232.11 224.629 233.86 224.349 233.86C223.952 233.86 223.754 233.942 223.754 234.105C223.031 234.012 222.669 233.638 222.669 232.985L223.124 228.75C223.054 225.833 222.762 224.375 222.249 224.375H222.144C221.561 224.818 221.269 225.693 221.269 227V228.855L221.129 234.21C220.966 234.793 220.604 235.085 220.044 235.085C219.554 235.085 219.239 234.677 219.099 233.86L218.959 229.73L219.169 226.335C219.029 224.585 218.784 223.057 218.434 221.75Z" fill="#464646"/>
<path d="M213.7 281.825C214.33 281.825 214.762 282.887 214.995 285.01C214.762 285.593 214.377 285.885 213.84 285.885C213.467 285.815 213.093 285.383 212.72 284.59L212.09 284.38C210.993 284.38 210.002 285.103 209.115 286.55V286.865C209.115 287.215 210.76 287.798 214.05 288.615C215.427 289.432 216.115 290.423 216.115 291.59C216.115 293.503 214.575 295.137 211.495 296.49L210.2 296.7C208.24 296.49 207.26 295.51 207.26 293.76V293.655C207.26 293.095 207.622 292.768 208.345 292.675C208.905 292.675 209.278 293.258 209.465 294.425L209.745 294.635H210.34C211.67 294.635 212.907 293.725 214.05 291.905V291.45C214.05 290.75 212.522 290.097 209.465 289.49C207.855 288.837 207.05 287.927 207.05 286.76C207.05 285.243 208.322 283.82 210.865 282.49C211.985 282.35 212.93 282.128 213.7 281.825ZM221.702 285.605C224.176 285.605 225.634 287.157 226.077 290.26C226.077 293.013 224.794 294.985 222.227 296.175C221.947 296.315 221.562 296.385 221.072 296.385H220.827L220.057 296.315V296.385L220.197 305.73C220.034 306.453 219.661 306.815 219.077 306.815C218.424 306.605 218.097 306.267 218.097 305.8L217.782 286.76C217.782 286.153 218.144 285.838 218.867 285.815L219.602 286.13C220.256 285.78 220.956 285.605 221.702 285.605ZM219.952 289.315L219.847 290.4L219.952 294.11L220.932 294.355C222.496 294.355 223.511 293.212 223.977 290.925V290.4C223.814 288.557 223.161 287.635 222.017 287.635H221.492C220.466 287.635 219.952 288.195 219.952 289.315ZM230.87 283.435C231.803 283.458 233.378 285.092 235.595 288.335L235.665 288.93C235.665 289.583 234.066 290.085 230.87 290.435L230.765 290.54V290.68C231.255 292.78 231.768 293.83 232.305 293.83H232.725C233.471 293.83 234.603 293.025 236.12 291.415H236.33C236.796 291.415 237.158 291.753 237.415 292.43C237.415 292.99 236.435 293.958 234.475 295.335C233.961 295.638 233.343 295.86 232.62 296C230.73 296 229.411 294.227 228.665 290.68C227.591 290.517 227.055 290.073 227.055 289.35C227.055 288.837 227.451 288.498 228.245 288.335V288.475L228.595 288.335V287.46C228.595 284.777 229.353 283.435 230.87 283.435ZM231.08 285.955H230.765L230.625 287.25V288.335H230.765C232.071 288.288 232.725 288.148 232.725 287.915C232.118 287.005 231.57 286.352 231.08 285.955ZM242.33 284.135L243.765 283.925C244.348 283.925 244.675 284.287 244.745 285.01C244.745 285.64 243.986 286.048 242.47 286.235C241.513 286.982 241.035 287.938 241.035 289.105V290.26C241.501 292.827 242.295 294.11 243.415 294.11H243.765C244.418 294.11 245.398 293.492 246.705 292.255H246.915C247.381 292.255 247.755 292.582 248.035 293.235C247.708 294.238 246.658 295.148 244.885 295.965C244.558 296.105 244.15 296.175 243.66 296.175C241.256 296.175 239.693 294.285 238.97 290.505V289.735C238.97 287.005 240.09 285.138 242.33 284.135ZM256.835 281.825C257.465 281.825 257.896 282.887 258.13 285.01C257.896 285.593 257.511 285.885 256.975 285.885C256.601 285.815 256.228 285.383 255.855 284.59L255.225 284.38C254.128 284.38 253.136 285.103 252.25 286.55V286.865C252.25 287.215 253.895 287.798 257.185 288.615C258.561 289.432 259.25 290.423 259.25 291.59C259.25 293.503 257.71 295.137 254.63 296.49L253.335 296.7C251.375 296.49 250.395 295.51 250.395 293.76V293.655C250.395 293.095 250.756 292.768 251.48 292.675C252.04 292.675 252.413 293.258 252.6 294.425L252.88 294.635H253.475C254.805 294.635 256.041 293.725 257.185 291.905V291.45C257.185 290.75 255.656 290.097 252.6 289.49C250.99 288.837 250.185 287.927 250.185 286.76C250.185 285.243 251.456 283.82 254 282.49C255.12 282.35 256.065 282.128 256.835 281.825Z" fill="#464646"/>
</svg>
