<svg width="2560" height="1600" viewBox="0 0 2560 1600" fill="none" xmlns="http://www.w3.org/2000/svg">
<rect width="2560" height="1600" fill="#5C55A3"/>
<path d="M917.084 784.449C921.705 767.183 932.059 755.916 950.424 753.175C970.994 750.106 990.822 766.183 992.894 787.522C994.873 807.898 977.724 827.61 957.319 828.395C952.368 828.585 948.305 827.307 947.466 821.66C946.702 816.518 949.787 813.443 956.607 812.706C966.554 811.632 973.205 806.479 976.27 797.072C979.105 788.373 976.744 780.717 970.231 774.534C963.665 768.299 955.747 766.621 947.256 769.921C938.615 773.278 933.143 779.659 932.995 789.088C932.66 810.459 932.936 831.84 932.65 853.212C932.598 857.047 931.042 860.862 929.615 865.222C926.473 865.684 923.896 865.61 921.319 865.536C921.319 865.536 921.298 865.653 921.041 865.287C919.52 861.579 917.203 858.251 917.162 854.895C916.872 831.416 917.053 807.932 917.084 784.449Z" fill="#F9F8FD"/>
<path d="M1154.1 766.273C1173.22 788.004 1163.26 821.548 1134.7 828.459C1131.7 829.183 1128.08 830.08 1125.51 829.04C1122.76 827.929 1119.29 824.728 1119.12 822.236C1118.95 819.736 1122.13 816.636 1124.49 814.487C1125.73 813.35 1128.33 813.728 1130.31 813.336C1141.68 811.075 1149.62 800.6 1148.34 789.574C1147.03 778.214 1137.47 769.55 1126.09 769.414C1114.76 769.279 1104.59 777.916 1104.08 789.476C1103.41 804.589 1103.8 819.749 1103.75 834.888C1103.72 842.459 1103.81 850.031 1103.69 857.6C1103.62 862.655 1101.46 866.492 1095.89 866.485C1090.39 866.479 1088.1 862.846 1088.1 857.66C1088.1 834.724 1087.48 811.765 1088.36 788.862C1088.96 773.244 1098.1 762.134 1112.59 756.484C1128.12 750.431 1141.96 754.463 1154.1 766.273Z" fill="#F9F8FD"/>
<path d="M1642.48 796.73C1638.08 816.452 1623.85 828.669 1605.61 828.886C1587.47 829.1 1572.34 817.591 1568.16 799.767C1566.97 794.672 1567.26 789.212 1567.08 783.913C1566.92 779.075 1567.05 774.229 1567.05 769.186C1560.82 767.646 1551.94 770.175 1552.25 760.365C1552.53 751.661 1560.28 753.246 1567.1 752.35C1567.1 748.89 1567 745.458 1567.12 742.035C1567.31 737.071 1569.93 733.863 1574.98 734.005C1579.91 734.143 1582.6 737.161 1582.5 742.298C1582.43 745.381 1582.48 748.466 1582.48 752.845C1587.31 752.845 1591.64 752.836 1595.97 752.847C1601.37 752.861 1605.4 754.93 1605.35 760.814C1605.3 766.757 1601.17 768.58 1595.79 768.499C1591.59 768.435 1587.4 768.486 1582.93 768.486C1582.93 777.616 1582.25 786.061 1583.1 794.352C1584.22 805.372 1593.71 813.107 1604.69 813.239C1615.53 813.369 1624.82 805.639 1626.85 794.787C1626.89 794.57 1626.95 794.355 1626.99 794.137C1628.46 785.17 1630.76 782.387 1636.11 783.076C1641.43 783.761 1643.11 787.202 1642.48 796.73Z" fill="#FAFAFD"/>
<path d="M1014.22 817.296C1001.74 803.414 999.447 786.045 1007.97 772.123C1017.42 756.674 1034.47 749.569 1050.98 754.193C1067.58 758.844 1078.63 773.497 1078.87 791.5C1079.02 802.62 1078.88 813.744 1078.9 824.866C1078.91 830.37 1077.22 834.706 1070.96 835.135C1066.06 835.47 1063.19 831.575 1063.15 824.899C1063.08 813.332 1063.33 801.76 1063.07 790.199C1062.81 779.073 1054.54 770.051 1043.9 768.651C1033.32 767.26 1023.58 773.326 1019.84 783.639C1016.28 793.433 1020.43 804.688 1030 809.96C1032.82 811.514 1036.25 812.298 1039.49 812.705C1044.8 813.372 1048.58 815.278 1048.43 821.254C1048.3 826.252 1044.12 829.099 1037.72 828.428C1028.8 827.492 1021.03 823.886 1014.22 817.296Z" fill="#F9F8FD"/>
<path d="M1481.98 769.986C1486.09 758.844 1493.82 753.721 1505.09 753.711C1513.76 753.704 1522.43 753.653 1531.1 753.764C1537.71 753.848 1541.65 756.842 1541.16 761.692C1540.58 767.431 1536.75 769.193 1531.29 769.049C1522.84 768.827 1514.39 768.951 1505.95 769.008C1500.86 769.042 1496.19 770.292 1496.3 776.469C1496.42 782.643 1501.01 783.651 1506.2 783.511C1511.31 783.374 1516.43 783.323 1521.53 783.534C1534.63 784.077 1544.36 794.077 1544.19 806.625C1544.02 818.816 1534.29 828.449 1521.45 828.77C1511.9 829.01 1502.33 828.802 1492.78 828.849C1487.29 828.876 1483.42 826.691 1483.63 820.847C1483.82 815.407 1487.61 813.473 1492.81 813.521C1501.7 813.601 1510.59 813.487 1519.48 813.461C1524.45 813.446 1528.62 812.006 1528.58 806.233C1528.55 800.453 1524.38 799.077 1519.4 799.123C1515.17 799.163 1510.95 799.134 1506.73 799.124C1488.73 799.08 1479.41 788.383 1481.98 769.986Z" fill="#FAFAFD"/>
<path d="M1452.26 825.142C1435.7 833.073 1419.02 830.698 1407.41 819.098C1395.47 807.155 1392.33 790.019 1399.41 775.431C1406.76 760.293 1421.79 751.963 1438.97 753.996C1451.25 755.448 1460.63 761.794 1466.93 772.429C1470.67 778.752 1469.47 782.731 1462.98 785.973C1456.21 789.358 1449.32 792.532 1442.5 795.813C1437.91 798.015 1433.65 798.106 1431.06 793.052C1428.31 787.699 1430.98 784.141 1435.8 781.753C1439.94 779.705 1444.11 777.736 1448.43 775.653C1442.3 769.203 1434.31 767.523 1426.23 770.618C1417.22 774.072 1411.42 782.296 1411.39 791.672C1411.36 800.632 1416.92 810.132 1425.54 812.338C1431.17 813.779 1437.57 811.982 1443.61 812.151C1447.08 812.247 1451.51 812.279 1453.74 814.293C1457 817.228 1456.19 821.623 1452.26 825.142Z" fill="#F9F8FD"/>
<path d="M1210.12 797.755C1205.87 790.479 1206.4 788.062 1214.15 783.706C1220.52 783.524 1225.87 783.524 1232.78 783.524C1230.64 780.723 1229.63 779.402 1228.62 778.081C1228.62 778.081 1228.59 778.153 1228.51 777.73C1227.16 776.232 1225.88 775.157 1224.61 774.083C1224.61 774.083 1224.6 774.167 1224.43 773.795C1223.48 773.12 1222.71 772.818 1221.94 772.515C1221.94 772.515 1222 772.732 1221.86 772.342C1220.89 771.744 1220.07 771.536 1219.25 771.328C1219.25 771.328 1219.3 771.443 1219.04 771.019C1213.59 770.882 1208.4 771.17 1203.2 771.457C1203.2 771.457 1203.07 771.451 1202.91 771.483C1202.27 771.849 1202.67 771.451 1202.27 771.849C1202.27 771.849 1201.87 772.248 1201.35 772.409C1200.1 772.866 1199.38 773.455 1198.65 774.045L1198.26 773.995C1198.26 773.995 1197.93 774.195 1197.42 774.545C1196.18 775.828 1195.44 776.762 1194.71 777.696C1194.71 777.696 1194.73 777.671 1194.62 777.916C1194.16 778.468 1193.9 779.021 1193.9 779.021C1193.9 779.021 1193.87 778.999 1193.5 779.478C1192.75 780.43 1192.58 780.601 1192.31 781.412C1192.31 781.412 1191.91 782.208 1191.93 782.253C1189.03 788.834 1188.33 795.087 1192.36 801.121C1192.36 801.121 1192.31 801.017 1192.34 801.414C1192.77 802.433 1193.18 803.055 1193.59 803.677C1194.04 804.344 1194.48 805.012 1195.48 806.243C1198.49 808.37 1200.95 809.935 1203.41 811.499C1203.41 811.499 1203.6 811.708 1204.09 811.997C1206.33 812.544 1208.08 812.801 1209.82 813.058C1212.8 814.626 1216.88 815.456 1218.53 817.915C1222.05 823.156 1217.44 829.197 1210.31 828.876C1195.31 828.202 1184.27 821.004 1177.77 807.476C1171.24 793.874 1172.83 780.755 1181.81 768.782C1191.17 756.304 1207.14 750.965 1221.33 755.04C1236.47 759.387 1247.77 772.397 1248.92 787.984C1249.16 791.295 1246.43 794.826 1244.12 798.625C1232.98 799.066 1222.79 799.137 1212.6 799.207C1212.6 799.207 1212.65 799.389 1212.5 799.032C1211.6 798.369 1210.86 798.062 1210.12 797.755Z" fill="#F9F8FD"/>
<path d="M1309.82 789.146C1310.67 767.837 1326.86 752.722 1348.08 752.799C1369.07 752.875 1385.34 768.506 1385.74 789.166C1385.93 799.41 1385.73 809.662 1385.8 819.909C1385.84 825.225 1384.23 829.269 1378.24 829.753C1373.2 830.16 1370.38 826.506 1370.33 819.712C1370.25 809.91 1370.45 800.104 1370.25 790.305C1369.98 777.055 1360.78 768.426 1347.43 768.579C1334.5 768.727 1325.55 777.46 1325.35 790.373C1325.19 800.173 1325.24 809.978 1325.3 819.78C1325.33 825.109 1323.81 829.311 1317.62 829.273C1311.61 829.236 1309.72 825.311 1309.78 819.861C1309.87 809.836 1309.81 799.81 1309.82 789.146Z" fill="#FAFAFD"/>
<path d="M1258.85 821.77C1258.82 810.261 1258.71 799.351 1258.84 788.445C1259.08 769.078 1275.61 752.883 1294.97 752.799C1300.11 752.777 1304.01 754.687 1304.38 760.068C1304.76 765.503 1300.96 767.802 1295.99 768.562C1279.87 771.028 1274.44 777.249 1274.32 793.352C1274.25 802.479 1274.2 811.607 1274.24 820.734C1274.26 825.612 1272.38 829.266 1267.31 829.734C1262.4 830.188 1259.34 827.514 1258.85 821.77Z" fill="#FAFAFD"/>
</svg>
