<svg width="863" height="432" viewBox="0 0 863 432" fill="none" xmlns="http://www.w3.org/2000/svg">
<rect x="343" y="1" width="191" height="74" rx="25" fill="url(#paint0_linear_0_1)" fill-opacity="0.09"/>
<path d="M525.67 73.5232C531.895 73.9631 532.668 62.5773 532.685 58.6009C532.73 46.8156 535.573 20.5034 532.757 10.5915C529.734 -0.0488142 502.503 1.92078 490.889 1.57877C455.977 0.550312 422.513 1.354 385.337 1.33944C376.124 1.3354 366.525 0.436307 357.441 1.5812C348.299 2.73255 345.381 7.40105 344.429 14.2041C343.721 19.2518 343.265 45.8567 343.053 54.0763C342.951 58.0325 342.698 68.0891 345.719 71.1858C350.133 75.7144 361.642 74.956 366.576 74.9471C377.457 74.9269 492.793 74.7668 522.19 73.4957" stroke="#2C2C2C" stroke-width="2" stroke-miterlimit="1.5" stroke-linecap="round" stroke-linejoin="round"/>
<path d="M399.15 26.68C399.803 26.68 400.13 27.4733 400.13 29.06L400.55 35.08H400.69L402.44 34.415C404.4 34.415 405.59 36.4217 406.01 40.435C406.173 41.5783 406.255 43.2583 406.255 45.475V48.31C406.255 49.1967 405.928 49.64 405.275 49.64H405.135C404.505 49.5467 404.19 49.2083 404.19 48.625V45.335C404.19 40.0617 403.677 37.145 402.65 36.585H402.44C401.74 36.585 401.227 37.6583 400.9 39.805V41.765C400.9 45.265 400.608 47.015 400.025 47.015L399.36 47.085C398.707 47.085 398.38 46.1167 398.38 44.18C398.45 42.1267 398.59 40.4467 398.8 39.14L398.065 27.625C398.065 27.0183 398.427 26.7033 399.15 26.68ZM413.5 32.805C415.227 32.805 416.533 34.0883 417.42 36.655L417.56 37.39C417.56 39.8867 416.393 42.4417 414.06 45.055C413.127 45.9183 412.182 46.35 411.225 46.35C409.825 46.35 408.833 45.545 408.25 43.935C408.04 43.1883 407.935 42.535 407.935 41.975V41.555C407.935 37.8683 409.277 35.0683 411.96 33.155C412.427 32.9217 412.94 32.805 413.5 32.805ZM410 41.905C410 43.4917 410.408 44.285 411.225 44.285C412.928 44.285 414.34 42.1033 415.46 37.74V37.075C415.063 35.6283 414.328 34.905 413.255 34.905C412.835 34.905 412.625 35.1967 412.625 35.78C412.625 36.1767 412.158 36.4917 411.225 36.725C410.408 38.1017 410 39.8283 410 41.905ZM419.671 33.75C419.834 33.1667 420.207 32.875 420.791 32.875C421.374 32.875 421.759 33.4583 421.946 34.625H422.086L423.696 34.275C424.442 34.275 425.166 34.975 425.866 36.375H426.006C427.032 34.765 428.082 33.96 429.156 33.96C431.442 34.38 432.586 35.8733 432.586 38.44L432.656 39.665L432.341 46.735V47.4C432.341 47.9833 431.979 48.3217 431.256 48.415C430.532 48.415 430.171 47.5633 430.171 45.86L430.591 39.525C430.591 37.1917 430.042 36.025 428.946 36.025C428.316 36.025 427.557 37.5533 426.671 40.61C426.227 44.11 425.866 45.86 425.586 45.86C425.189 45.86 424.991 45.9417 424.991 46.105C424.267 46.0117 423.906 45.6383 423.906 44.985L424.361 40.75C424.291 37.8333 423.999 36.375 423.486 36.375H423.381C422.797 36.8183 422.506 37.6933 422.506 39V40.855L422.366 46.21C422.202 46.7933 421.841 47.085 421.281 47.085C420.791 47.085 420.476 46.6767 420.336 45.86L420.196 41.73L420.406 38.335C420.266 36.585 420.021 35.0567 419.671 33.75ZM437.744 33.435C438.678 33.4583 440.253 35.0917 442.469 38.335L442.539 38.93C442.539 39.5833 440.941 40.085 437.744 40.435L437.639 40.54V40.68C438.129 42.78 438.643 43.83 439.179 43.83H439.599C440.346 43.83 441.478 43.025 442.994 41.415H443.204C443.671 41.415 444.033 41.7533 444.289 42.43C444.289 42.99 443.309 43.9583 441.349 45.335C440.836 45.6383 440.218 45.86 439.494 46C437.604 46 436.286 44.2267 435.539 40.68C434.466 40.5167 433.929 40.0733 433.929 39.35C433.929 38.8367 434.326 38.4983 435.119 38.335V38.475L435.469 38.335V37.46C435.469 34.7767 436.228 33.435 437.744 33.435ZM437.954 35.955H437.639L437.499 37.25V38.335H437.639C438.946 38.2883 439.599 38.1483 439.599 37.915C438.993 37.005 438.444 36.3517 437.954 35.955ZM449.939 35.605C452.413 35.605 453.871 37.1567 454.314 40.26C454.314 43.0133 453.031 44.985 450.464 46.175C450.184 46.315 449.799 46.385 449.309 46.385H449.064L448.294 46.315V46.385L448.434 55.73C448.271 56.4533 447.898 56.815 447.314 56.815C446.661 56.605 446.334 56.2667 446.334 55.8L446.019 36.76C446.019 36.1533 446.381 35.8383 447.104 35.815L447.839 36.13C448.493 35.78 449.193 35.605 449.939 35.605ZM448.189 39.315L448.084 40.4L448.189 44.11L449.169 44.355C450.733 44.355 451.748 43.2117 452.214 40.925V40.4C452.051 38.5567 451.398 37.635 450.254 37.635H449.729C448.703 37.635 448.189 38.195 448.189 39.315ZM462.502 32.49C463.528 32.49 464.042 32.8983 464.042 33.715L463.727 34.38L463.517 40.785C463.517 43.6783 464.1 45.475 465.267 46.175L465.337 46.7C465.267 47.3767 464.952 47.715 464.392 47.715H464.182C462.432 46.525 461.557 44.705 461.557 42.255H461.312C460.378 44.8683 459.247 46.175 457.917 46.175C456.68 45.825 456.062 44.9033 456.062 43.41C456.062 40.12 457.38 36.8417 460.017 33.575C460.903 32.8517 461.732 32.49 462.502 32.49ZM458.267 42.01L458.127 42.99V43.655H458.477C460.227 39.2917 461.102 36.6317 461.102 35.675H460.962C459.608 37.1917 458.71 39.3033 458.267 42.01ZM471.811 32.56C472.885 32.56 473.421 33.0733 473.421 34.1C473.561 34.1 473.631 34.275 473.631 34.625H473.771L473.631 35.64L473.771 42.71L473.561 48.31C475.661 48.31 477.073 49.85 477.796 52.93C477.796 53.56 477.365 53.9217 476.501 54.015C476.105 54.015 475.661 53.14 475.171 51.39C474.705 50.7133 474.168 50.375 473.561 50.375H473.421C472.675 55.345 472.021 57.83 471.461 57.83C470.785 59.0667 469.805 59.685 468.521 59.685C466.631 59.2417 465.686 58.2967 465.686 56.85V56.64C465.686 54.4467 467.25 52.0667 470.376 49.5L471.461 48.835L471.601 45.055V44.18H471.461C470.668 45.1833 469.91 45.685 469.186 45.685H468.976C467.366 45.685 466.445 44.4483 466.211 41.975V41.205C466.211 38.2183 467.308 35.6283 469.501 33.435C470.178 32.8517 470.948 32.56 471.811 32.56ZM468.311 40.75V42.43C468.405 43.2 468.58 43.585 468.836 43.585H469.186C469.84 43.585 470.645 41.1817 471.601 36.375V34.625C470.201 34.625 469.105 36.6667 468.311 40.75ZM467.751 56.71C467.845 57.2933 468.171 57.585 468.731 57.585C469.851 57.585 470.656 55.59 471.146 51.6H470.936C468.813 53.4433 467.751 55.1467 467.751 56.71ZM478.76 33.435C479.693 33.4583 481.268 35.0917 483.485 38.335L483.555 38.93C483.555 39.5833 481.956 40.085 478.76 40.435L478.655 40.54V40.68C479.145 42.78 479.658 43.83 480.195 43.83H480.615C481.361 43.83 482.493 43.025 484.01 41.415H484.22C484.686 41.415 485.048 41.7533 485.305 42.43C485.305 42.99 484.325 43.9583 482.365 45.335C481.851 45.6383 481.233 45.86 480.51 46C478.62 46 477.301 44.2267 476.555 40.68C475.481 40.5167 474.945 40.0733 474.945 39.35C474.945 38.8367 475.341 38.4983 476.135 38.335V38.475L476.485 38.335V37.46C476.485 34.7767 477.243 33.435 478.76 33.435ZM478.97 35.955H478.655L478.515 37.25V38.335H478.655C479.961 38.2883 480.615 38.1483 480.615 37.915C480.008 37.005 479.46 36.3517 478.97 35.955Z" fill="#464646"/>
<path d="M29.3223 42.765C30.209 42.9517 30.6523 43.3483 30.6523 43.955C30.419 44.6083 30.0456 44.935 29.5323 44.935C28.669 44.7717 28.2373 44.34 28.2373 43.64C28.4706 43.0567 28.8323 42.765 29.3223 42.765ZM30.6523 47.665C31.0256 47.665 31.3406 48.0033 31.5973 48.68L31.2823 51.165V52.81C31.2823 54.7233 31.609 57.2317 32.2623 60.335C32.029 60.7783 31.6323 61 31.0723 61C30.1156 61 29.4856 58.2 29.1823 52.6V51.375C29.1823 48.9017 29.6723 47.665 30.6523 47.665ZM38.6134 49.205C40.5968 49.3683 41.5884 50.3367 41.5884 52.11L41.6584 52.565L41.5884 58.025C41.5884 58.655 41.9501 59.5067 42.6734 60.58V60.65C42.4868 61.3267 42.1484 61.665 41.6584 61.665C40.2118 61.0583 39.4884 59.775 39.4884 57.815V57.36L39.3834 57.29L39.4884 57.15V57.08L39.5934 52.25C39.5934 51.5733 39.3018 51.235 38.7184 51.235H38.2984C37.1318 51.7017 36.5484 54.2567 36.5484 58.9C36.5484 60.51 36.1401 61.315 35.3234 61.315C34.6934 61.315 34.3668 60.9183 34.3434 60.125V56.625C34.3434 52.0983 34.7401 49.835 35.5334 49.835L35.8834 49.73L36.6184 49.835C37.2484 49.415 37.9134 49.205 38.6134 49.205ZM47.9005 39.755C48.5538 39.895 48.8805 40.2217 48.8805 40.735L48.6705 42.275V42.73C48.6705 43.7567 48.7871 44.8417 49.0205 45.985H49.0905C51.7971 45.1683 53.4771 44.76 54.1305 44.76C54.8071 44.9467 55.1455 45.285 55.1455 45.775C55.1455 46.5683 54.3405 46.965 52.7305 46.965L49.0905 48.26C49.0905 51.41 49.4288 55.6917 50.1055 61.105C49.9655 61.735 49.6271 62.05 49.0905 62.05H49.0205C48.2038 62.05 47.7955 61 47.7955 58.9C47.4921 57.3367 47.2355 53.9417 47.0255 48.715H46.3955C44.2021 48.575 43.1055 48.0617 43.1055 47.175C43.1055 46.9183 43.3505 46.6033 43.8405 46.23H44.1905L45.8005 46.65H46.9205L46.6055 42.275C46.6055 40.595 47.0371 39.755 47.9005 39.755ZM60.8319 47.21C62.3019 47.21 63.1769 48.2367 63.4569 50.29V50.605C63.4569 52.8683 62.2902 54.945 59.9569 56.835C61.3102 58.165 63.6785 58.83 67.0619 58.83C67.5752 58.9933 67.8319 59.355 67.8319 59.915C67.8319 60.545 67.4235 60.86 66.6069 60.86C64.3202 60.86 61.9169 60.2767 59.3969 59.11V60.125C59.3969 62.5283 58.8835 63.73 57.8569 63.73C57.1335 63.73 56.7719 62.3417 56.7719 59.565V56.835L56.6669 55.855L56.9119 54.735L56.6669 51.375V51.235C56.6669 50.605 56.9935 50.1733 57.6469 49.94C58.5569 48.12 59.6185 47.21 60.8319 47.21ZM59.0819 54.875C59.7585 54.875 60.5169 53.6617 61.3569 51.235V49.73L60.9369 49.275H60.6219C59.5952 49.975 59.0819 51.8417 59.0819 54.875ZM74.5951 47.805C76.3217 47.805 77.6284 49.0883 78.5151 51.655L78.6551 52.39C78.6551 54.8867 77.4884 57.4417 75.1551 60.055C74.2217 60.9183 73.2767 61.35 72.3201 61.35C70.9201 61.35 69.9284 60.545 69.3451 58.935C69.1351 58.1883 69.0301 57.535 69.0301 56.975V56.555C69.0301 52.8683 70.3717 50.0683 73.0551 48.155C73.5217 47.9217 74.0351 47.805 74.5951 47.805ZM71.0951 56.905C71.0951 58.4917 71.5034 59.285 72.3201 59.285C74.0234 59.285 75.4351 57.1033 76.5551 52.74V52.075C76.1584 50.6283 75.4234 49.905 74.3501 49.905C73.9301 49.905 73.7201 50.1967 73.7201 50.78C73.7201 51.1767 73.2534 51.4917 72.3201 51.725C71.5034 53.1017 71.0951 54.8283 71.0951 56.905ZM88.431 41.785C88.8277 41.785 89.1893 42.1583 89.516 42.905L87.976 52.635V55.365C87.976 58.2117 88.4193 59.635 89.306 59.635C89.8893 59.915 90.181 60.2883 90.181 60.755C90.181 61.2917 89.7143 61.6067 88.781 61.7C87.7543 61.7 86.9493 60.755 86.366 58.865H86.016C85.1527 60.755 84.1027 61.7 82.866 61.7C81.4193 61.7 80.5443 60.6033 80.241 58.41C80.241 55.8667 81.9443 53.1717 85.351 50.325C86.0277 50.325 86.366 49.38 86.366 47.49C86.8793 43.6867 87.5677 41.785 88.431 41.785ZM82.306 58.13V59.075L82.866 59.635H83.076C83.8227 59.635 84.6977 57.3833 85.701 52.88H85.491C83.3677 55.0033 82.306 56.7533 82.306 58.13ZM92.817 50.465L93.447 50.115C94.007 50.115 94.4153 50.4533 94.672 51.13C94.2986 52.8567 94.112 54.63 94.112 56.45C94.112 57.36 94.3803 58.3517 94.917 59.425H95.127C95.8036 59.425 96.6086 56.7533 97.542 51.41C97.8686 51.13 98.1836 50.99 98.487 50.99C99.2103 50.99 99.572 52.2733 99.572 54.84C99.8753 57.6633 100.214 59.075 100.587 59.075L101.112 58.865C101.789 59.1217 102.127 59.4833 102.127 59.95C101.707 60.8367 101.124 61.28 100.377 61.28C99.537 61.28 98.732 60.44 97.962 58.76C97.0286 60.72 96.0836 61.7 95.127 61.7C93.7036 61.7 92.712 60.2183 92.152 57.255L92.047 56.135V55.785C92.047 53.9183 92.3036 52.145 92.817 50.465ZM106.437 49.135L107.872 48.925C108.455 48.925 108.782 49.2867 108.852 50.01C108.852 50.64 108.094 51.0483 106.577 51.235C105.62 51.9817 105.142 52.9383 105.142 54.105V55.26C105.609 57.8267 106.402 59.11 107.522 59.11H107.872C108.525 59.11 109.505 58.4917 110.812 57.255H111.022C111.489 57.255 111.862 57.5817 112.142 58.235C111.815 59.2383 110.765 60.1483 108.992 60.965C108.665 61.105 108.257 61.175 107.767 61.175C105.364 61.175 103.8 59.285 103.077 55.505V54.735C103.077 52.005 104.197 50.1383 106.437 49.135ZM118.037 39.755C118.691 39.895 119.017 40.2217 119.017 40.735L118.807 42.275V42.73C118.807 43.7567 118.924 44.8417 119.157 45.985H119.227C121.934 45.1683 123.614 44.76 124.267 44.76C124.944 44.9467 125.282 45.285 125.282 45.775C125.282 46.5683 124.477 46.965 122.867 46.965L119.227 48.26C119.227 51.41 119.566 55.6917 120.242 61.105C120.102 61.735 119.764 62.05 119.227 62.05H119.157C118.341 62.05 117.932 61 117.932 58.9C117.629 57.3367 117.372 53.9417 117.162 48.715H116.532C114.339 48.575 113.242 48.0617 113.242 47.175C113.242 46.9183 113.487 46.6033 113.977 46.23H114.327L115.937 46.65H117.057L116.742 42.275C116.742 40.595 117.174 39.755 118.037 39.755ZM126.769 42.765C127.655 42.9517 128.099 43.3483 128.099 43.955C127.865 44.6083 127.492 44.935 126.979 44.935C126.115 44.7717 125.684 44.34 125.684 43.64C125.917 43.0567 126.279 42.765 126.769 42.765ZM128.099 47.665C128.472 47.665 128.787 48.0033 129.044 48.68L128.729 51.165V52.81C128.729 54.7233 129.055 57.2317 129.709 60.335C129.475 60.7783 129.079 61 128.519 61C127.562 61 126.932 58.2 126.629 52.6V51.375C126.629 48.9017 127.119 47.665 128.099 47.665ZM137.11 47.805C138.836 47.805 140.143 49.0883 141.03 51.655L141.17 52.39C141.17 54.8867 140.003 57.4417 137.67 60.055C136.736 60.9183 135.791 61.35 134.835 61.35C133.435 61.35 132.443 60.545 131.86 58.935C131.65 58.1883 131.545 57.535 131.545 56.975V56.555C131.545 52.8683 132.886 50.0683 135.57 48.155C136.036 47.9217 136.55 47.805 137.11 47.805ZM133.61 56.905C133.61 58.4917 134.018 59.285 134.835 59.285C136.538 59.285 137.95 57.1033 139.07 52.74V52.075C138.673 50.6283 137.938 49.905 136.865 49.905C136.445 49.905 136.235 50.1967 136.235 50.78C136.235 51.1767 135.768 51.4917 134.835 51.725C134.018 53.1017 133.61 54.8283 133.61 56.905ZM147.271 49.205C149.254 49.3683 150.246 50.3367 150.246 52.11L150.316 52.565L150.246 58.025C150.246 58.655 150.607 59.5067 151.331 60.58V60.65C151.144 61.3267 150.806 61.665 150.316 61.665C148.869 61.0583 148.146 59.775 148.146 57.815V57.36L148.041 57.29L148.146 57.15V57.08L148.251 52.25C148.251 51.5733 147.959 51.235 147.376 51.235H146.956C145.789 51.7017 145.206 54.2567 145.206 58.9C145.206 60.51 144.797 61.315 143.981 61.315C143.351 61.315 143.024 60.9183 143.001 60.125V56.625C143.001 52.0983 143.397 49.835 144.191 49.835L144.541 49.73L145.276 49.835C145.906 49.415 146.571 49.205 147.271 49.205Z" fill="#464646"/>
<path d="M32.5076 212.605C34.9809 212.605 36.4393 214.157 36.8826 217.26C36.8826 220.013 35.5993 221.985 33.0326 223.175C32.7526 223.315 32.3676 223.385 31.8776 223.385H31.6326L30.8626 223.315V223.385L31.0026 232.73C30.8393 233.453 30.4659 233.815 29.8826 233.815C29.2293 233.605 28.9026 233.267 28.9026 232.8L28.5876 213.76C28.5876 213.153 28.9493 212.838 29.6726 212.815L30.4076 213.13C31.0609 212.78 31.7609 212.605 32.5076 212.605ZM30.7576 216.315L30.6526 217.4L30.7576 221.11L31.7376 221.355C33.3009 221.355 34.3159 220.212 34.7826 217.925V217.4C34.6193 215.557 33.9659 214.635 32.8226 214.635H32.2976C31.2709 214.635 30.7576 215.195 30.7576 216.315ZM43.1449 209.21C44.6149 209.21 45.4899 210.237 45.7699 212.29V212.605C45.7699 214.868 44.6032 216.945 42.2699 218.835C43.6232 220.165 45.9915 220.83 49.3749 220.83C49.8882 220.993 50.1449 221.355 50.1449 221.915C50.1449 222.545 49.7365 222.86 48.9199 222.86C46.6332 222.86 44.2299 222.277 41.7099 221.11V222.125C41.7099 224.528 41.1965 225.73 40.1699 225.73C39.4465 225.73 39.0849 224.342 39.0849 221.565V218.835L38.9799 217.855L39.2249 216.735L38.9799 213.375V213.235C38.9799 212.605 39.3065 212.173 39.9599 211.94C40.8699 210.12 41.9315 209.21 43.1449 209.21ZM41.3949 216.875C42.0715 216.875 42.8299 215.662 43.6699 213.235V211.73L43.2499 211.275H42.9349C41.9082 211.975 41.3949 213.842 41.3949 216.875ZM56.9081 209.805C58.6347 209.805 59.9414 211.088 60.8281 213.655L60.9681 214.39C60.9681 216.887 59.8014 219.442 57.4681 222.055C56.5347 222.918 55.5897 223.35 54.6331 223.35C53.2331 223.35 52.2414 222.545 51.6581 220.935C51.4481 220.188 51.3431 219.535 51.3431 218.975V218.555C51.3431 214.868 52.6847 212.068 55.3681 210.155C55.8347 209.922 56.3481 209.805 56.9081 209.805ZM53.4081 218.905C53.4081 220.492 53.8164 221.285 54.6331 221.285C56.3364 221.285 57.7481 219.103 58.8681 214.74V214.075C58.4714 212.628 57.7364 211.905 56.6631 211.905C56.2431 211.905 56.0331 212.197 56.0331 212.78C56.0331 213.177 55.5664 213.492 54.6331 213.725C53.8164 215.102 53.4081 216.828 53.4081 218.905ZM64.339 211.03C65.0623 211.263 65.424 211.8 65.424 212.64C65.424 213.13 65.0973 213.422 64.444 213.515H64.339C63.6623 213.515 63.3007 213.072 63.254 212.185V211.975C63.254 211.368 63.6157 211.053 64.339 211.03ZM64.549 214.74C64.8757 214.74 65.249 215.055 65.669 215.685C65.4357 216.315 65.319 217.167 65.319 218.24L66.194 227.06V228.075C66.194 231.132 65.459 233.057 63.989 233.85L63.254 233.99C61.644 233.99 60.4073 232.38 59.544 229.16L59.299 227.305V227.2C59.299 226.383 59.6723 225.975 60.419 225.975C61.049 225.975 61.364 226.617 61.364 227.9C61.364 229.207 61.924 230.502 63.044 231.785L63.324 231.89C63.8607 230.933 64.129 229.813 64.129 228.53V227.06L63.254 218.31C63.254 215.93 63.6857 214.74 64.549 214.74ZM70.8301 210.435C71.7635 210.458 73.3385 212.092 75.5551 215.335L75.6251 215.93C75.6251 216.583 74.0268 217.085 70.8301 217.435L70.7251 217.54V217.68C71.2151 219.78 71.7285 220.83 72.2651 220.83H72.6851C73.4318 220.83 74.5635 220.025 76.0801 218.415H76.2901C76.7568 218.415 77.1185 218.753 77.3751 219.43C77.3751 219.99 76.3951 220.958 74.4351 222.335C73.9218 222.638 73.3035 222.86 72.5801 223C70.6901 223 69.3718 221.227 68.6251 217.68C67.5518 217.517 67.0151 217.073 67.0151 216.35C67.0151 215.837 67.4118 215.498 68.2051 215.335V215.475L68.5551 215.335V214.46C68.5551 211.777 69.3135 210.435 70.8301 210.435ZM71.0401 212.955H70.7251L70.5851 214.25V215.335H70.7251C72.0318 215.288 72.6851 215.148 72.6851 214.915C72.0785 214.005 71.5301 213.352 71.0401 212.955ZM82.2902 211.135L83.7252 210.925C84.3085 210.925 84.6352 211.287 84.7052 212.01C84.7052 212.64 83.9468 213.048 82.4302 213.235C81.4735 213.982 80.9952 214.938 80.9952 216.105V217.26C81.4618 219.827 82.2552 221.11 83.3752 221.11H83.7252C84.3785 221.11 85.3585 220.492 86.6652 219.255H86.8752C87.3418 219.255 87.7152 219.582 87.9952 220.235C87.6685 221.238 86.6185 222.148 84.8452 222.965C84.5185 223.105 84.1102 223.175 83.6202 223.175C81.2168 223.175 79.6535 221.285 78.9302 217.505V216.735C78.9302 214.005 80.0502 212.138 82.2902 211.135ZM93.8902 201.755C94.5435 201.895 94.8702 202.222 94.8702 202.735L94.6602 204.275V204.73C94.6602 205.757 94.7769 206.842 95.0102 207.985H95.0802C97.7869 207.168 99.4669 206.76 100.12 206.76C100.797 206.947 101.135 207.285 101.135 207.775C101.135 208.568 100.33 208.965 98.7202 208.965L95.0802 210.26C95.0802 213.41 95.4185 217.692 96.0952 223.105C95.9552 223.735 95.6169 224.05 95.0802 224.05H95.0102C94.1935 224.05 93.7852 223 93.7852 220.9C93.4819 219.337 93.2252 215.942 93.0152 210.715H92.3852C90.1919 210.575 89.0952 210.062 89.0952 209.175C89.0952 208.918 89.3402 208.603 89.8302 208.23H90.1802L91.7902 208.65H92.9102L92.5952 204.275C92.5952 202.595 93.0269 201.755 93.8902 201.755ZM109.237 208.825C109.867 208.825 110.298 209.887 110.532 212.01C110.298 212.593 109.913 212.885 109.377 212.885C109.003 212.815 108.63 212.383 108.257 211.59L107.627 211.38C106.53 211.38 105.538 212.103 104.652 213.55V213.865C104.652 214.215 106.297 214.798 109.587 215.615C110.963 216.432 111.652 217.423 111.652 218.59C111.652 220.503 110.112 222.137 107.032 223.49L105.737 223.7C103.777 223.49 102.797 222.51 102.797 220.76V220.655C102.797 220.095 103.158 219.768 103.882 219.675C104.442 219.675 104.815 220.258 105.002 221.425L105.282 221.635H105.877C107.207 221.635 108.443 220.725 109.587 218.905V218.45C109.587 217.75 108.058 217.097 105.002 216.49C103.392 215.837 102.587 214.927 102.587 213.76C102.587 212.243 103.858 210.82 106.402 209.49C107.522 209.35 108.467 209.128 109.237 208.825ZM28.4747 247.465L29.1047 247.115C29.6647 247.115 30.073 247.453 30.3297 248.13C29.9563 249.857 29.7697 251.63 29.7697 253.45C29.7697 254.36 30.038 255.352 30.5747 256.425H30.7847C31.4613 256.425 32.2663 253.753 33.1997 248.41C33.5263 248.13 33.8413 247.99 34.1447 247.99C34.868 247.99 35.2297 249.273 35.2297 251.84C35.533 254.663 35.8713 256.075 36.2447 256.075L36.7697 255.865C37.4463 256.122 37.7847 256.483 37.7847 256.95C37.3647 257.837 36.7813 258.28 36.0347 258.28C35.1947 258.28 34.3897 257.44 33.6197 255.76C32.6863 257.72 31.7413 258.7 30.7847 258.7C29.3613 258.7 28.3697 257.218 27.8097 254.255L27.7047 253.135V252.785C27.7047 250.918 27.9613 249.145 28.4747 247.465ZM45.5599 243.825C46.1899 243.825 46.6215 244.887 46.8549 247.01C46.6215 247.593 46.2365 247.885 45.6999 247.885C45.3265 247.815 44.9532 247.383 44.5799 246.59L43.9499 246.38C42.8532 246.38 41.8615 247.103 40.9749 248.55V248.865C40.9749 249.215 42.6199 249.798 45.9099 250.615C47.2865 251.432 47.9749 252.423 47.9749 253.59C47.9749 255.503 46.4349 257.137 43.3549 258.49L42.0599 258.7C40.0999 258.49 39.1199 257.51 39.1199 255.76V255.655C39.1199 255.095 39.4815 254.768 40.2049 254.675C40.7649 254.675 41.1382 255.258 41.3249 256.425L41.6049 256.635H42.1999C43.5299 256.635 44.7665 255.725 45.9099 253.905V253.45C45.9099 252.75 44.3815 252.097 41.3249 251.49C39.7149 250.837 38.9099 249.927 38.9099 248.76C38.9099 247.243 40.1815 245.82 42.7249 244.49C43.8449 244.35 44.7899 244.128 45.5599 243.825ZM52.4073 245.435C53.3406 245.458 54.9156 247.092 57.1323 250.335L57.2023 250.93C57.2023 251.583 55.604 252.085 52.4073 252.435L52.3023 252.54V252.68C52.7923 254.78 53.3056 255.83 53.8423 255.83H54.2623C55.009 255.83 56.1406 255.025 57.6573 253.415H57.8673C58.334 253.415 58.6956 253.753 58.9523 254.43C58.9523 254.99 57.9723 255.958 56.0123 257.335C55.499 257.638 54.8806 257.86 54.1573 258C52.2673 258 50.949 256.227 50.2023 252.68C49.129 252.517 48.5923 252.073 48.5923 251.35C48.5923 250.837 48.989 250.498 49.7823 250.335V250.475L50.1323 250.335V249.46C50.1323 246.777 50.8906 245.435 52.4073 245.435ZM52.6173 247.955H52.3023L52.1623 249.25V250.335H52.3023C53.609 250.288 54.2623 250.148 54.2623 249.915C53.6556 249.005 53.1073 248.352 52.6173 247.955ZM77.0607 246.135L78.4957 245.925C79.079 245.925 79.4057 246.287 79.4757 247.01C79.4757 247.64 78.7174 248.048 77.2007 248.235C76.244 248.982 75.7657 249.938 75.7657 251.105V252.26C76.2324 254.827 77.0257 256.11 78.1457 256.11H78.4957C79.149 256.11 80.129 255.492 81.4357 254.255H81.6457C82.1124 254.255 82.4857 254.582 82.7657 255.235C82.439 256.238 81.389 257.148 79.6157 257.965C79.289 258.105 78.8807 258.175 78.3907 258.175C75.9874 258.175 74.424 256.285 73.7007 252.505V251.735C73.7007 249.005 74.8207 247.138 77.0607 246.135ZM91.0757 244.49C92.1024 244.49 92.6157 244.898 92.6157 245.715L92.3007 246.38L92.0907 252.785C92.0907 255.678 92.6741 257.475 93.8407 258.175L93.9107 258.7C93.8407 259.377 93.5257 259.715 92.9657 259.715H92.7557C91.0057 258.525 90.1307 256.705 90.1307 254.255H89.8857C88.9524 256.868 87.8207 258.175 86.4907 258.175C85.2541 257.825 84.6357 256.903 84.6357 255.41C84.6357 252.12 85.9541 248.842 88.5907 245.575C89.4774 244.852 90.3057 244.49 91.0757 244.49ZM86.8407 254.01L86.7007 254.99V255.655H87.0507C88.8007 251.292 89.6757 248.632 89.6757 247.675H89.5357C88.1824 249.192 87.2841 251.303 86.8407 254.01ZM101.785 243.825C102.415 243.825 102.847 244.887 103.08 247.01C102.847 247.593 102.462 247.885 101.925 247.885C101.552 247.815 101.179 247.383 100.805 246.59L100.175 246.38C99.0788 246.38 98.0871 247.103 97.2004 248.55V248.865C97.2004 249.215 98.8454 249.798 102.135 250.615C103.512 251.432 104.2 252.423 104.2 253.59C104.2 255.503 102.66 257.137 99.5804 258.49L98.2854 258.7C96.3254 258.49 95.3454 257.51 95.3454 255.76V255.655C95.3454 255.095 95.7071 254.768 96.4304 254.675C96.9904 254.675 97.3638 255.258 97.5504 256.425L97.8304 256.635H98.4254C99.7554 256.635 100.992 255.725 102.135 253.905V253.45C102.135 252.75 100.607 252.097 97.5504 251.49C95.9404 250.837 95.1354 249.927 95.1354 248.76C95.1354 247.243 96.4071 245.82 98.9504 244.49C100.07 244.35 101.015 244.128 101.785 243.825ZM108.633 245.435C109.566 245.458 111.141 247.092 113.358 250.335L113.428 250.93C113.428 251.583 111.83 252.085 108.633 252.435L108.528 252.54V252.68C109.018 254.78 109.531 255.83 110.068 255.83H110.488C111.235 255.83 112.366 255.025 113.883 253.415H114.093C114.56 253.415 114.921 253.753 115.178 254.43C115.178 254.99 114.198 255.958 112.238 257.335C111.725 257.638 111.106 257.86 110.383 258C108.493 258 107.175 256.227 106.428 252.68C105.355 252.517 104.818 252.073 104.818 251.35C104.818 250.837 105.215 250.498 106.008 250.335V250.475L106.358 250.335V249.46C106.358 246.777 107.116 245.435 108.633 245.435ZM108.843 247.955H108.528L108.388 249.25V250.335H108.528C109.835 250.288 110.488 250.148 110.488 249.915C109.881 249.005 109.333 248.352 108.843 247.955ZM123.558 243.825C124.188 243.825 124.62 244.887 124.853 247.01C124.62 247.593 124.235 247.885 123.698 247.885C123.325 247.815 122.951 247.383 122.578 246.59L121.948 246.38C120.851 246.38 119.86 247.103 118.973 248.55V248.865C118.973 249.215 120.618 249.798 123.908 250.615C125.285 251.432 125.973 252.423 125.973 253.59C125.973 255.503 124.433 257.137 121.353 258.49L120.058 258.7C118.098 258.49 117.118 257.51 117.118 255.76V255.655C117.118 255.095 117.48 254.768 118.203 254.675C118.763 254.675 119.136 255.258 119.323 256.425L119.603 256.635H120.198C121.528 256.635 122.765 255.725 123.908 253.905V253.45C123.908 252.75 122.38 252.097 119.323 251.49C117.713 250.837 116.908 249.927 116.908 248.76C116.908 247.243 118.18 245.82 120.723 244.49C121.843 244.35 122.788 244.128 123.558 243.825Z" fill="#464646"/>
<path d="M784.66 288.715C785.313 288.948 785.64 289.31 785.64 289.8L785.99 303.135V307.44C785.99 308.233 785.652 308.63 784.975 308.63H784.52C784.1 308.35 783.89 308.023 783.89 307.65V303.59L783.575 289.73C783.575 289.147 783.937 288.808 784.66 288.715ZM788.93 289.765C789.816 289.952 790.26 290.348 790.26 290.955C790.026 291.608 789.653 291.935 789.14 291.935C788.276 291.772 787.845 291.34 787.845 290.64C788.078 290.057 788.44 289.765 788.93 289.765ZM790.26 294.665C790.633 294.665 790.948 295.003 791.205 295.68L790.89 298.165V299.81C790.89 301.723 791.216 304.232 791.87 307.335C791.636 307.778 791.24 308 790.68 308C789.723 308 789.093 305.2 788.79 299.6V298.375C788.79 295.902 789.28 294.665 790.26 294.665ZM798.221 296.205C800.204 296.368 801.196 297.337 801.196 299.11L801.266 299.565L801.196 305.025C801.196 305.655 801.558 306.507 802.281 307.58V307.65C802.094 308.327 801.756 308.665 801.266 308.665C799.819 308.058 799.096 306.775 799.096 304.815V304.36L798.991 304.29L799.096 304.15V304.08L799.201 299.25C799.201 298.573 798.909 298.235 798.326 298.235H797.906C796.739 298.702 796.156 301.257 796.156 305.9C796.156 307.51 795.748 308.315 794.931 308.315C794.301 308.315 793.974 307.918 793.951 307.125V303.625C793.951 299.098 794.348 296.835 795.141 296.835L795.491 296.73L796.226 296.835C796.856 296.415 797.521 296.205 798.221 296.205ZM805.163 289.485H805.373C805.676 289.485 805.968 289.742 806.248 290.255L806.108 292.635V293.965L806.248 300.09L806.353 300.44H806.458C807.461 299.507 808.336 297.862 809.083 295.505L809.853 295.26C810.506 295.353 810.833 295.645 810.833 296.135C810.833 297.652 809.748 299.693 807.578 302.26V302.505C810.448 305.842 812.338 307.51 813.248 307.51H813.458L814.333 306.985H814.648C815.138 306.985 815.5 307.312 815.733 307.965C815.733 308.712 814.905 309.225 813.248 309.505C811.591 309.505 809.433 307.825 806.773 304.465H806.458L806.563 306.355V308.175C806.423 308.898 806.061 309.26 805.478 309.26C804.825 309.12 804.498 308.758 804.498 308.175V307.965L804.358 303.94C804.101 303.94 803.926 303.578 803.833 302.855L804.288 301.98L804.078 294.105V292.565C804.078 290.512 804.44 289.485 805.163 289.485ZM823.709 293.825C824.339 293.825 824.77 294.887 825.004 297.01C824.77 297.593 824.385 297.885 823.849 297.885C823.475 297.815 823.102 297.383 822.729 296.59L822.099 296.38C821.002 296.38 820.01 297.103 819.124 298.55V298.865C819.124 299.215 820.769 299.798 824.059 300.615C825.435 301.432 826.124 302.423 826.124 303.59C826.124 305.503 824.584 307.137 821.504 308.49L820.209 308.7C818.249 308.49 817.269 307.51 817.269 305.76V305.655C817.269 305.095 817.63 304.768 818.354 304.675C818.914 304.675 819.287 305.258 819.474 306.425L819.754 306.635H820.349C821.679 306.635 822.915 305.725 824.059 303.905V303.45C824.059 302.75 822.53 302.097 819.474 301.49C817.864 300.837 817.059 299.927 817.059 298.76C817.059 297.243 818.33 295.82 820.874 294.49C821.994 294.35 822.939 294.128 823.709 293.825ZM844.73 286.755C845.383 286.895 845.71 287.222 845.71 287.735L845.5 289.275V289.73C845.5 290.757 845.616 291.842 845.85 292.985H845.92C848.626 292.168 850.306 291.76 850.96 291.76C851.636 291.947 851.975 292.285 851.975 292.775C851.975 293.568 851.17 293.965 849.56 293.965L845.92 295.26C845.92 298.41 846.258 302.692 846.935 308.105C846.795 308.735 846.456 309.05 845.92 309.05H845.85C845.033 309.05 844.625 308 844.625 305.9C844.321 304.337 844.065 300.942 843.855 295.715H843.225C841.031 295.575 839.935 295.062 839.935 294.175C839.935 293.918 840.18 293.603 840.67 293.23H841.02L842.63 293.65H843.75L843.435 289.275C843.435 287.595 843.866 286.755 844.73 286.755ZM858.641 294.805C860.368 294.805 861.674 296.088 862.561 298.655L862.701 299.39C862.701 301.887 861.534 304.442 859.201 307.055C858.268 307.918 857.323 308.35 856.366 308.35C854.966 308.35 853.974 307.545 853.391 305.935C853.181 305.188 853.076 304.535 853.076 303.975V303.555C853.076 299.868 854.418 297.068 857.101 295.155C857.568 294.922 858.081 294.805 858.641 294.805ZM855.141 303.905C855.141 305.492 855.549 306.285 856.366 306.285C858.069 306.285 859.481 304.103 860.601 299.74V299.075C860.204 297.628 859.469 296.905 858.396 296.905C857.976 296.905 857.766 297.197 857.766 297.78C857.766 298.177 857.299 298.492 856.366 298.725C855.549 300.102 855.141 301.828 855.141 303.905ZM786.235 331.135L787.67 330.925C788.253 330.925 788.58 331.287 788.65 332.01C788.65 332.64 787.892 333.048 786.375 333.235C785.418 333.982 784.94 334.938 784.94 336.105V337.26C785.407 339.827 786.2 341.11 787.32 341.11H787.67C788.323 341.11 789.303 340.492 790.61 339.255H790.82C791.287 339.255 791.66 339.582 791.94 340.235C791.613 341.238 790.563 342.148 788.79 342.965C788.463 343.105 788.055 343.175 787.565 343.175C785.162 343.175 783.598 341.285 782.875 337.505V336.735C782.875 334.005 783.995 332.138 786.235 331.135ZM799.305 329.805C801.032 329.805 802.338 331.088 803.225 333.655L803.365 334.39C803.365 336.887 802.198 339.442 799.865 342.055C798.932 342.918 797.987 343.35 797.03 343.35C795.63 343.35 794.638 342.545 794.055 340.935C793.845 340.188 793.74 339.535 793.74 338.975V338.555C793.74 334.868 795.082 332.068 797.765 330.155C798.232 329.922 798.745 329.805 799.305 329.805ZM795.805 338.905C795.805 340.492 796.213 341.285 797.03 341.285C798.733 341.285 800.145 339.103 801.265 334.74V334.075C800.868 332.628 800.133 331.905 799.06 331.905C798.64 331.905 798.43 332.197 798.43 332.78C798.43 333.177 797.963 333.492 797.03 333.725C796.213 335.102 795.805 336.828 795.805 338.905ZM813.141 323.785C813.538 323.785 813.899 324.158 814.226 324.905L812.686 334.635V337.365C812.686 340.212 813.129 341.635 814.016 341.635C814.599 341.915 814.891 342.288 814.891 342.755C814.891 343.292 814.424 343.607 813.491 343.7C812.464 343.7 811.659 342.755 811.076 340.865H810.726C809.863 342.755 808.813 343.7 807.576 343.7C806.129 343.7 805.254 342.603 804.951 340.41C804.951 337.867 806.654 335.172 810.061 332.325C810.738 332.325 811.076 331.38 811.076 329.49C811.589 325.687 812.278 323.785 813.141 323.785ZM807.016 340.13V341.075L807.576 341.635H807.786C808.533 341.635 809.408 339.383 810.411 334.88H810.201C808.078 337.003 807.016 338.753 807.016 340.13ZM819.277 330.435C820.21 330.458 821.785 332.092 824.002 335.335L824.072 335.93C824.072 336.583 822.474 337.085 819.277 337.435L819.172 337.54V337.68C819.662 339.78 820.175 340.83 820.712 340.83H821.132C821.879 340.83 823.01 340.025 824.527 338.415H824.737C825.204 338.415 825.565 338.753 825.822 339.43C825.822 339.99 824.842 340.958 822.882 342.335C822.369 342.638 821.75 342.86 821.027 343C819.137 343 817.819 341.227 817.072 337.68C815.999 337.517 815.462 337.073 815.462 336.35C815.462 335.837 815.859 335.498 816.652 335.335V335.475L817.002 335.335V334.46C817.002 331.777 817.76 330.435 819.277 330.435ZM819.487 332.955H819.172L819.032 334.25V335.335H819.172C820.479 335.288 821.132 335.148 821.132 334.915C820.525 334.005 819.977 333.352 819.487 332.955Z" fill="#464646"/>
<path d="M34.265 367.805C35.9917 367.805 37.2983 369.088 38.185 371.655L38.325 372.39C38.325 374.887 37.1583 377.442 34.825 380.055C33.8917 380.918 32.9467 381.35 31.99 381.35C30.59 381.35 29.5983 380.545 29.015 378.935C28.805 378.188 28.7 377.535 28.7 376.975V376.555C28.7 372.868 30.0417 370.068 32.725 368.155C33.1917 367.922 33.705 367.805 34.265 367.805ZM30.765 376.905C30.765 378.492 31.1733 379.285 31.99 379.285C33.6933 379.285 35.105 377.103 36.225 372.74V372.075C35.8283 370.628 35.0933 369.905 34.02 369.905C33.6 369.905 33.39 370.197 33.39 370.78C33.39 371.177 32.9233 371.492 31.99 371.725C31.1733 373.102 30.765 374.828 30.765 376.905ZM44.1809 370.605C46.6543 370.605 48.1126 372.157 48.5559 375.26C48.5559 378.013 47.2726 379.985 44.7059 381.175C44.4259 381.315 44.0409 381.385 43.5509 381.385H43.3059L42.5359 381.315V381.385L42.6759 390.73C42.5126 391.453 42.1393 391.815 41.5559 391.815C40.9026 391.605 40.5759 391.267 40.5759 390.8L40.2609 371.76C40.2609 371.153 40.6226 370.838 41.3459 370.815L42.0809 371.13C42.7343 370.78 43.4343 370.605 44.1809 370.605ZM42.4309 374.315L42.3259 375.4L42.4309 379.11L43.4109 379.355C44.9743 379.355 45.9893 378.212 46.4559 375.925V375.4C46.2926 373.557 45.6393 372.635 44.4959 372.635H43.9709C42.9443 372.635 42.4309 373.195 42.4309 374.315ZM54.3282 359.755C54.9815 359.895 55.3082 360.222 55.3082 360.735L55.0982 362.275V362.73C55.0982 363.757 55.2149 364.842 55.4482 365.985H55.5182C58.2249 365.168 59.9049 364.76 60.5582 364.76C61.2349 364.947 61.5732 365.285 61.5732 365.775C61.5732 366.568 60.7682 366.965 59.1582 366.965L55.5182 368.26C55.5182 371.41 55.8565 375.692 56.5332 381.105C56.3932 381.735 56.0549 382.05 55.5182 382.05H55.4482C54.6315 382.05 54.2232 381 54.2232 378.9C53.9199 377.337 53.6632 373.942 53.4532 368.715H52.8232C50.6299 368.575 49.5332 368.062 49.5332 367.175C49.5332 366.918 49.7782 366.603 50.2682 366.23H50.6182L52.2282 366.65H53.3482L53.0332 362.275C53.0332 360.595 53.4649 359.755 54.3282 359.755ZM63.0596 362.765C63.9463 362.952 64.3896 363.348 64.3896 363.955C64.1563 364.608 63.7829 364.935 63.2696 364.935C62.4063 364.772 61.9746 364.34 61.9746 363.64C62.2079 363.057 62.5696 362.765 63.0596 362.765ZM64.3896 367.665C64.7629 367.665 65.0779 368.003 65.3346 368.68L65.0196 371.165V372.81C65.0196 374.723 65.3463 377.232 65.9996 380.335C65.7663 380.778 65.3696 381 64.8096 381C63.8529 381 63.2229 378.2 62.9196 372.6V371.375C62.9196 368.902 63.4096 367.665 64.3896 367.665ZM73.4007 367.805C75.1274 367.805 76.4341 369.088 77.3207 371.655L77.4607 372.39C77.4607 374.887 76.2941 377.442 73.9607 380.055C73.0274 380.918 72.0824 381.35 71.1257 381.35C69.7257 381.35 68.7341 380.545 68.1507 378.935C67.9407 378.188 67.8357 377.535 67.8357 376.975V376.555C67.8357 372.868 69.1774 370.068 71.8607 368.155C72.3274 367.922 72.8407 367.805 73.4007 367.805ZM69.9007 376.905C69.9007 378.492 70.3091 379.285 71.1257 379.285C72.8291 379.285 74.2407 377.103 75.3607 372.74V372.075C74.9641 370.628 74.2291 369.905 73.1557 369.905C72.7357 369.905 72.5257 370.197 72.5257 370.78C72.5257 371.177 72.0591 371.492 71.1257 371.725C70.3091 373.102 69.9007 374.828 69.9007 376.905ZM83.5617 369.205C85.545 369.368 86.5367 370.337 86.5367 372.11L86.6067 372.565L86.5367 378.025C86.5367 378.655 86.8983 379.507 87.6217 380.58V380.65C87.435 381.327 87.0967 381.665 86.6067 381.665C85.16 381.058 84.4367 379.775 84.4367 377.815V377.36L84.3317 377.29L84.4367 377.15V377.08L84.5417 372.25C84.5417 371.573 84.25 371.235 83.6667 371.235H83.2467C82.08 371.702 81.4967 374.257 81.4967 378.9C81.4967 380.51 81.0883 381.315 80.2717 381.315C79.6417 381.315 79.315 380.918 79.2917 380.125V376.625C79.2917 372.098 79.6883 369.835 80.4817 369.835L80.8317 369.73L81.5667 369.835C82.1967 369.415 82.8617 369.205 83.5617 369.205ZM95.2637 367.49C96.2904 367.49 96.8037 367.898 96.8037 368.715L96.4887 369.38L96.2787 375.785C96.2787 378.678 96.862 380.475 98.0287 381.175L98.0987 381.7C98.0287 382.377 97.7137 382.715 97.1537 382.715H96.9437C95.1937 381.525 94.3187 379.705 94.3187 377.255H94.0737C93.1404 379.868 92.0087 381.175 90.6787 381.175C89.442 380.825 88.8237 379.903 88.8237 378.41C88.8237 375.12 90.142 371.842 92.7787 368.575C93.6654 367.852 94.4937 367.49 95.2637 367.49ZM91.0287 377.01L90.8887 377.99V378.655H91.2387C92.9887 374.292 93.8637 371.632 93.8637 370.675H93.7237C92.3704 372.192 91.472 374.303 91.0287 377.01ZM100.933 361.715C101.587 361.948 101.913 362.31 101.913 362.8L102.263 376.135V380.44C102.263 381.233 101.925 381.63 101.248 381.63H100.793C100.373 381.35 100.163 381.023 100.163 380.65V376.59L99.8484 362.73C99.8484 362.147 100.21 361.808 100.933 361.715ZM36.89 396.785C37.2867 396.785 37.6483 397.158 37.975 397.905L36.435 407.635V410.365C36.435 413.212 36.8783 414.635 37.765 414.635C38.3483 414.915 38.64 415.288 38.64 415.755C38.64 416.292 38.1733 416.607 37.24 416.7C36.2133 416.7 35.4083 415.755 34.825 413.865H34.475C33.6117 415.755 32.5617 416.7 31.325 416.7C29.8783 416.7 29.0033 415.603 28.7 413.41C28.7 410.867 30.4033 408.172 33.81 405.325C34.4867 405.325 34.825 404.38 34.825 402.49C35.3383 398.687 36.0267 396.785 36.89 396.785ZM30.765 413.13V414.075L31.325 414.635H31.535C32.2817 414.635 33.1567 412.383 34.16 407.88H33.95C31.8267 410.003 30.765 411.753 30.765 413.13ZM43.0259 403.435C43.9593 403.458 45.5343 405.092 47.7509 408.335L47.8209 408.93C47.8209 409.583 46.2226 410.085 43.0259 410.435L42.9209 410.54V410.68C43.4109 412.78 43.9243 413.83 44.4609 413.83H44.8809C45.6276 413.83 46.7593 413.025 48.2759 411.415H48.4859C48.9526 411.415 49.3143 411.753 49.5709 412.43C49.5709 412.99 48.5909 413.958 46.6309 415.335C46.1176 415.638 45.4993 415.86 44.7759 416C42.8859 416 41.5676 414.227 40.8209 410.68C39.7476 410.517 39.2109 410.073 39.2109 409.35C39.2109 408.837 39.6076 408.498 40.4009 408.335V408.475L40.7509 408.335V407.46C40.7509 404.777 41.5093 403.435 43.0259 403.435ZM43.2359 405.955H42.9209L42.7809 407.25V408.335H42.9209C44.2276 408.288 44.8809 408.148 44.8809 407.915C44.2743 407.005 43.7259 406.352 43.2359 405.955ZM55.221 405.605C57.6943 405.605 59.1526 407.157 59.596 410.26C59.596 413.013 58.3126 414.985 55.746 416.175C55.466 416.315 55.081 416.385 54.591 416.385H54.346L53.576 416.315V416.385L53.716 425.73C53.5526 426.453 53.1793 426.815 52.596 426.815C51.9426 426.605 51.616 426.267 51.616 425.8L51.301 406.76C51.301 406.153 51.6626 405.838 52.386 405.815L53.121 406.13C53.7743 405.78 54.4743 405.605 55.221 405.605ZM53.471 409.315L53.366 410.4L53.471 414.11L54.451 414.355C56.0143 414.355 57.0293 413.212 57.496 410.925V410.4C57.3326 408.557 56.6793 407.635 55.536 407.635H55.011C53.9843 407.635 53.471 408.195 53.471 409.315ZM63.2332 396.715C63.8866 396.948 64.2132 397.31 64.2132 397.8L64.5632 411.135V415.44C64.5632 416.233 64.2249 416.63 63.5482 416.63H63.0932C62.6732 416.35 62.4632 416.023 62.4632 415.65V411.59L62.1482 397.73C62.1482 397.147 62.5099 396.808 63.2332 396.715ZM72.683 402.805C74.4096 402.805 75.7163 404.088 76.603 406.655L76.743 407.39C76.743 409.887 75.5763 412.442 73.243 415.055C72.3096 415.918 71.3646 416.35 70.408 416.35C69.008 416.35 68.0163 415.545 67.433 413.935C67.223 413.188 67.118 412.535 67.118 411.975V411.555C67.118 407.868 68.4596 405.068 71.143 403.155C71.6096 402.922 72.123 402.805 72.683 402.805ZM69.183 411.905C69.183 413.492 69.5913 414.285 70.408 414.285C72.1113 414.285 73.523 412.103 74.643 407.74V407.075C74.2463 405.628 73.5113 404.905 72.438 404.905C72.018 404.905 71.808 405.197 71.808 405.78C71.808 406.177 71.3413 406.492 70.408 406.725C69.5913 408.102 69.183 409.828 69.183 411.905ZM79.4139 405.5C80.2306 405.5 80.7906 407.297 81.0939 410.89C81.4906 412.547 81.7822 413.375 81.9689 413.375H82.1789C82.7622 411.905 83.0539 410.447 83.0539 409L82.8439 406.585C83.1006 405.955 83.4622 405.64 83.9289 405.64C84.7922 405.64 85.2239 407.168 85.2239 410.225C85.7372 413.398 85.9939 416.35 85.9939 419.08V420.725C85.9939 425.742 84.5706 429.125 81.7239 430.875L80.9539 431.015C79.6239 431.015 78.3872 429.778 77.2439 427.305L76.9289 425.205V425.1C76.9289 423.56 77.3606 422.79 78.2239 422.79L79.0989 423.35L78.9939 425.555C78.9939 426.628 79.5422 427.713 80.6389 428.81H81.0939C82.3772 428.81 83.3222 426.36 83.9289 421.46L83.9989 419.43C83.9756 417.073 83.8822 415.568 83.7189 414.915C82.7856 415.732 82.0506 416.14 81.5139 416.14C80.3239 416.14 79.2622 412.955 78.3289 406.585L78.2239 406.515C78.2239 405.978 78.6206 405.64 79.4139 405.5ZM88.1166 403.75C88.2799 403.167 88.6533 402.875 89.2366 402.875C89.8199 402.875 90.2049 403.458 90.3916 404.625H90.5316L92.1416 404.275C92.8883 404.275 93.6116 404.975 94.3116 406.375H94.4516C95.4783 404.765 96.5283 403.96 97.6016 403.96C99.8883 404.38 101.032 405.873 101.032 408.44L101.102 409.665L100.787 416.735V417.4C100.787 417.983 100.425 418.322 99.7016 418.415C98.9783 418.415 98.6166 417.563 98.6166 415.86L99.0366 409.525C99.0366 407.192 98.4883 406.025 97.3916 406.025C96.7616 406.025 96.0033 407.553 95.1166 410.61C94.6733 414.11 94.3116 415.86 94.0316 415.86C93.6349 415.86 93.4366 415.942 93.4366 416.105C92.7133 416.012 92.3516 415.638 92.3516 414.985L92.8066 410.75C92.7366 407.833 92.4449 406.375 91.9316 406.375H91.8266C91.2433 406.818 90.9516 407.693 90.9516 409V410.855L90.8116 416.21C90.6483 416.793 90.2866 417.085 89.7266 417.085C89.2366 417.085 88.9216 416.677 88.7816 415.86L88.6416 411.73L88.8516 408.335C88.7116 406.585 88.4666 405.057 88.1166 403.75ZM106.19 403.435C107.123 403.458 108.698 405.092 110.915 408.335L110.985 408.93C110.985 409.583 109.387 410.085 106.19 410.435L106.085 410.54V410.68C106.575 412.78 107.088 413.83 107.625 413.83H108.045C108.792 413.83 109.923 413.025 111.44 411.415H111.65C112.117 411.415 112.478 411.753 112.735 412.43C112.735 412.99 111.755 413.958 109.795 415.335C109.282 415.638 108.663 415.86 107.94 416C106.05 416 104.732 414.227 103.985 410.68C102.912 410.517 102.375 410.073 102.375 409.35C102.375 408.837 102.772 408.498 103.565 408.335V408.475L103.915 408.335V407.46C103.915 404.777 104.673 403.435 106.19 403.435ZM106.4 405.955H106.085L105.945 407.25V408.335H106.085C107.392 408.288 108.045 408.148 108.045 407.915C107.438 407.005 106.89 406.352 106.4 405.955ZM118.63 404.205C120.613 404.368 121.605 405.337 121.605 407.11L121.675 407.565L121.605 413.025C121.605 413.655 121.967 414.507 122.69 415.58V415.65C122.503 416.327 122.165 416.665 121.675 416.665C120.228 416.058 119.505 414.775 119.505 412.815V412.36L119.4 412.29L119.505 412.15V412.08L119.61 407.25C119.61 406.573 119.318 406.235 118.735 406.235H118.315C117.148 406.702 116.565 409.257 116.565 413.9C116.565 415.51 116.157 416.315 115.34 416.315C114.71 416.315 114.383 415.918 114.36 415.125V411.625C114.36 407.098 114.757 404.835 115.55 404.835L115.9 404.73L116.635 404.835C117.265 404.415 117.93 404.205 118.63 404.205ZM127.917 394.755C128.57 394.895 128.897 395.222 128.897 395.735L128.687 397.275V397.73C128.687 398.757 128.804 399.842 129.037 400.985H129.107C131.814 400.168 133.494 399.76 134.147 399.76C134.824 399.947 135.162 400.285 135.162 400.775C135.162 401.568 134.357 401.965 132.747 401.965L129.107 403.26C129.107 406.41 129.445 410.692 130.122 416.105C129.982 416.735 129.644 417.05 129.107 417.05H129.037C128.22 417.05 127.812 416 127.812 413.9C127.509 412.337 127.252 408.942 127.042 403.715H126.412C124.219 403.575 123.122 403.062 123.122 402.175C123.122 401.918 123.367 401.603 123.857 401.23H124.207L125.817 401.65H126.937L126.622 397.275C126.622 395.595 127.054 394.755 127.917 394.755Z" fill="#464646"/>
<rect x="343" y="117" width="191" height="74" rx="25" fill="url(#paint1_linear_0_1)" fill-opacity="0.09"/>
<rect x="203" y="244" width="149" height="56" rx="25" fill="url(#paint2_linear_0_1)" fill-opacity="0.09"/>
<rect x="365" y="242" width="149" height="56" rx="25" fill="url(#paint3_linear_0_1)" fill-opacity="0.09"/>
<rect x="534" y="240" width="149" height="56" rx="25" fill="url(#paint4_linear_0_1)" fill-opacity="0.09"/>
<rect x="358" y="341" width="149" height="56" rx="25" fill="url(#paint5_linear_0_1)" fill-opacity="0.09"/>
<path d="M525.67 189.523C531.895 189.963 532.668 178.577 532.685 174.601C532.73 162.816 535.573 136.503 532.757 126.592C529.734 115.951 502.503 117.921 490.889 117.579C455.977 116.55 422.513 117.354 385.337 117.339C376.124 117.335 366.525 116.436 357.441 117.581C348.299 118.733 345.381 123.401 344.429 130.204C343.721 135.252 343.265 161.857 343.053 170.076C342.951 174.032 342.698 184.089 345.719 187.186C350.133 191.714 361.642 190.956 366.576 190.947C377.457 190.927 492.793 190.767 522.19 189.496" stroke="#2C2C2C" stroke-width="2" stroke-miterlimit="1.5" stroke-linecap="round" stroke-linejoin="round"/>
<path d="M380.418 151.605C382.891 151.605 384.349 153.157 384.793 156.26C384.793 159.013 383.509 160.985 380.943 162.175C380.663 162.315 380.278 162.385 379.788 162.385H379.543L378.773 162.315V162.385L378.913 171.73C378.749 172.453 378.376 172.815 377.793 172.815C377.139 172.605 376.813 172.267 376.813 171.8L376.498 152.76C376.498 152.153 376.859 151.838 377.583 151.815L378.318 152.13C378.971 151.78 379.671 151.605 380.418 151.605ZM378.668 155.315L378.563 156.4L378.668 160.11L379.648 160.355C381.211 160.355 382.226 159.212 382.693 156.925V156.4C382.529 154.557 381.876 153.635 380.733 153.635H380.208C379.181 153.635 378.668 154.195 378.668 155.315ZM391.055 148.21C392.525 148.21 393.4 149.237 393.68 151.29V151.605C393.68 153.868 392.513 155.945 390.18 157.835C391.533 159.165 393.902 159.83 397.285 159.83C397.798 159.993 398.055 160.355 398.055 160.915C398.055 161.545 397.647 161.86 396.83 161.86C394.543 161.86 392.14 161.277 389.62 160.11V161.125C389.62 163.528 389.107 164.73 388.08 164.73C387.357 164.73 386.995 163.342 386.995 160.565V157.835L386.89 156.855L387.135 155.735L386.89 152.375V152.235C386.89 151.605 387.217 151.173 387.87 150.94C388.78 149.12 389.842 148.21 391.055 148.21ZM389.305 155.875C389.982 155.875 390.74 154.662 391.58 152.235V150.73L391.16 150.275H390.845C389.818 150.975 389.305 152.842 389.305 155.875ZM404.818 148.805C406.545 148.805 407.852 150.088 408.738 152.655L408.878 153.39C408.878 155.887 407.712 158.442 405.378 161.055C404.445 161.918 403.5 162.35 402.543 162.35C401.143 162.35 400.152 161.545 399.568 159.935C399.358 159.188 399.253 158.535 399.253 157.975V157.555C399.253 153.868 400.595 151.068 403.278 149.155C403.745 148.922 404.258 148.805 404.818 148.805ZM401.318 157.905C401.318 159.492 401.727 160.285 402.543 160.285C404.247 160.285 405.658 158.103 406.778 153.74V153.075C406.382 151.628 405.647 150.905 404.573 150.905C404.153 150.905 403.943 151.197 403.943 151.78C403.943 152.177 403.477 152.492 402.543 152.725C401.727 154.102 401.318 155.828 401.318 157.905ZM412.249 150.03C412.972 150.263 413.334 150.8 413.334 151.64C413.334 152.13 413.007 152.422 412.354 152.515H412.249C411.572 152.515 411.211 152.072 411.164 151.185V150.975C411.164 150.368 411.526 150.053 412.249 150.03ZM412.459 153.74C412.786 153.74 413.159 154.055 413.579 154.685C413.346 155.315 413.229 156.167 413.229 157.24L414.104 166.06V167.075C414.104 170.132 413.369 172.057 411.899 172.85L411.164 172.99C409.554 172.99 408.317 171.38 407.454 168.16L407.209 166.305V166.2C407.209 165.383 407.582 164.975 408.329 164.975C408.959 164.975 409.274 165.617 409.274 166.9C409.274 168.207 409.834 169.502 410.954 170.785L411.234 170.89C411.771 169.933 412.039 168.813 412.039 167.53V166.06L411.164 157.31C411.164 154.93 411.596 153.74 412.459 153.74ZM418.74 149.435C419.674 149.458 421.249 151.092 423.465 154.335L423.535 154.93C423.535 155.583 421.937 156.085 418.74 156.435L418.635 156.54V156.68C419.125 158.78 419.639 159.83 420.175 159.83H420.595C421.342 159.83 422.474 159.025 423.99 157.415H424.2C424.667 157.415 425.029 157.753 425.285 158.43C425.285 158.99 424.305 159.958 422.345 161.335C421.832 161.638 421.214 161.86 420.49 162C418.6 162 417.282 160.227 416.535 156.68C415.462 156.517 414.925 156.073 414.925 155.35C414.925 154.837 415.322 154.498 416.115 154.335V154.475L416.465 154.335V153.46C416.465 150.777 417.224 149.435 418.74 149.435ZM418.95 151.955H418.635L418.495 153.25V154.335H418.635C419.942 154.288 420.595 154.148 420.595 153.915C419.989 153.005 419.44 152.352 418.95 151.955ZM430.2 150.135L431.635 149.925C432.219 149.925 432.545 150.287 432.615 151.01C432.615 151.64 431.857 152.048 430.34 152.235C429.384 152.982 428.905 153.938 428.905 155.105V156.26C429.372 158.827 430.165 160.11 431.285 160.11H431.635C432.289 160.11 433.269 159.492 434.575 158.255H434.785C435.252 158.255 435.625 158.582 435.905 159.235C435.579 160.238 434.529 161.148 432.755 161.965C432.429 162.105 432.02 162.175 431.53 162.175C429.127 162.175 427.564 160.285 426.84 156.505V155.735C426.84 153.005 427.96 151.138 430.2 150.135ZM441.8 140.755C442.454 140.895 442.78 141.222 442.78 141.735L442.57 143.275V143.73C442.57 144.757 442.687 145.842 442.92 146.985H442.99C445.697 146.168 447.377 145.76 448.03 145.76C448.707 145.947 449.045 146.285 449.045 146.775C449.045 147.568 448.24 147.965 446.63 147.965L442.99 149.26C442.99 152.41 443.329 156.692 444.005 162.105C443.865 162.735 443.527 163.05 442.99 163.05H442.92C442.104 163.05 441.695 162 441.695 159.9C441.392 158.337 441.135 154.942 440.925 149.715H440.295C438.102 149.575 437.005 149.062 437.005 148.175C437.005 147.918 437.25 147.603 437.74 147.23H438.09L439.7 147.65H440.82L440.505 143.275C440.505 141.595 440.937 140.755 441.8 140.755ZM457.147 147.825C457.777 147.825 458.208 148.887 458.442 151.01C458.208 151.593 457.823 151.885 457.287 151.885C456.913 151.815 456.54 151.383 456.167 150.59L455.537 150.38C454.44 150.38 453.448 151.103 452.562 152.55V152.865C452.562 153.215 454.207 153.798 457.497 154.615C458.873 155.432 459.562 156.423 459.562 157.59C459.562 159.503 458.022 161.137 454.942 162.49L453.647 162.7C451.687 162.49 450.707 161.51 450.707 159.76V159.655C450.707 159.095 451.068 158.768 451.792 158.675C452.352 158.675 452.725 159.258 452.912 160.425L453.192 160.635H453.787C455.117 160.635 456.353 159.725 457.497 157.905V157.45C457.497 156.75 455.968 156.097 452.912 155.49C451.302 154.837 450.497 153.927 450.497 152.76C450.497 151.243 451.768 149.82 454.312 148.49C455.432 148.35 456.377 148.128 457.147 147.825ZM476.033 142.715C476.686 142.948 477.013 143.31 477.013 143.8L477.363 157.135V161.44C477.363 162.233 477.024 162.63 476.348 162.63H475.893C475.473 162.35 475.263 162.023 475.263 161.65V157.59L474.948 143.73C474.948 143.147 475.309 142.808 476.033 142.715ZM480.302 143.765C481.189 143.952 481.632 144.348 481.632 144.955C481.399 145.608 481.026 145.935 480.512 145.935C479.649 145.772 479.217 145.34 479.217 144.64C479.451 144.057 479.812 143.765 480.302 143.765ZM481.632 148.665C482.006 148.665 482.321 149.003 482.577 149.68L482.262 152.165V153.81C482.262 155.723 482.589 158.232 483.242 161.335C483.009 161.778 482.612 162 482.052 162C481.096 162 480.466 159.2 480.162 153.6V152.375C480.162 149.902 480.652 148.665 481.632 148.665ZM492.078 147.825C492.708 147.825 493.14 148.887 493.373 151.01C493.14 151.593 492.755 151.885 492.218 151.885C491.845 151.815 491.472 151.383 491.098 150.59L490.468 150.38C489.372 150.38 488.38 151.103 487.493 152.55V152.865C487.493 153.215 489.138 153.798 492.428 154.615C493.805 155.432 494.493 156.423 494.493 157.59C494.493 159.503 492.953 161.137 489.873 162.49L488.578 162.7C486.618 162.49 485.638 161.51 485.638 159.76V159.655C485.638 159.095 486 158.768 486.723 158.675C487.283 158.675 487.657 159.258 487.843 160.425L488.123 160.635H488.718C490.048 160.635 491.285 159.725 492.428 157.905V157.45C492.428 156.75 490.9 156.097 487.843 155.49C486.233 154.837 485.428 153.927 485.428 152.76C485.428 151.243 486.7 149.82 489.243 148.49C490.363 148.35 491.308 148.128 492.078 147.825ZM499.906 140.755C500.559 140.895 500.886 141.222 500.886 141.735L500.676 143.275V143.73C500.676 144.757 500.793 145.842 501.026 146.985H501.096C503.803 146.168 505.483 145.76 506.136 145.76C506.813 145.947 507.151 146.285 507.151 146.775C507.151 147.568 506.346 147.965 504.736 147.965L501.096 149.26C501.096 152.41 501.434 156.692 502.111 162.105C501.971 162.735 501.633 163.05 501.096 163.05H501.026C500.209 163.05 499.801 162 499.801 159.9C499.498 158.337 499.241 154.942 499.031 149.715H498.401C496.208 149.575 495.111 149.062 495.111 148.175C495.111 147.918 495.356 147.603 495.846 147.23H496.196L497.806 147.65H498.926L498.611 143.275C498.611 141.595 499.043 140.755 499.906 140.755Z" fill="#464646"/>
<path d="M240.157 270.605C242.63 270.605 244.088 272.157 244.532 275.26C244.532 278.013 243.248 279.985 240.682 281.175C240.402 281.315 240.017 281.385 239.527 281.385H239.282L238.512 281.315V281.385L238.652 290.73C238.488 291.453 238.115 291.815 237.532 291.815C236.878 291.605 236.552 291.267 236.552 290.8L236.237 271.76C236.237 271.153 236.598 270.838 237.322 270.815L238.057 271.13C238.71 270.78 239.41 270.605 240.157 270.605ZM238.407 274.315L238.302 275.4L238.407 279.11L239.387 279.355C240.95 279.355 241.965 278.212 242.432 275.925V275.4C242.268 273.557 241.615 272.635 240.472 272.635H239.947C238.92 272.635 238.407 273.195 238.407 274.315ZM250.794 267.21C252.264 267.21 253.139 268.237 253.419 270.29V270.605C253.419 272.868 252.252 274.945 249.919 276.835C251.272 278.165 253.64 278.83 257.024 278.83C257.537 278.993 257.794 279.355 257.794 279.915C257.794 280.545 257.385 280.86 256.569 280.86C254.282 280.86 251.879 280.277 249.359 279.11V280.125C249.359 282.528 248.845 283.73 247.819 283.73C247.095 283.73 246.734 282.342 246.734 279.565V276.835L246.629 275.855L246.874 274.735L246.629 271.375V271.235C246.629 270.605 246.955 270.173 247.609 269.94C248.519 268.12 249.58 267.21 250.794 267.21ZM249.044 274.875C249.72 274.875 250.479 273.662 251.319 271.235V269.73L250.899 269.275H250.584C249.557 269.975 249.044 271.842 249.044 274.875ZM264.557 267.805C266.284 267.805 267.59 269.088 268.477 271.655L268.617 272.39C268.617 274.887 267.45 277.442 265.117 280.055C264.184 280.918 263.239 281.35 262.282 281.35C260.882 281.35 259.89 280.545 259.307 278.935C259.097 278.188 258.992 277.535 258.992 276.975V276.555C258.992 272.868 260.334 270.068 263.017 268.155C263.484 267.922 263.997 267.805 264.557 267.805ZM261.057 276.905C261.057 278.492 261.465 279.285 262.282 279.285C263.985 279.285 265.397 277.103 266.517 272.74V272.075C266.12 270.628 265.385 269.905 264.312 269.905C263.892 269.905 263.682 270.197 263.682 270.78C263.682 271.177 263.215 271.492 262.282 271.725C261.465 273.102 261.057 274.828 261.057 276.905ZM271.988 269.03C272.711 269.263 273.073 269.8 273.073 270.64C273.073 271.13 272.746 271.422 272.093 271.515H271.988C271.311 271.515 270.95 271.072 270.903 270.185V269.975C270.903 269.368 271.265 269.053 271.988 269.03ZM272.198 272.74C272.525 272.74 272.898 273.055 273.318 273.685C273.085 274.315 272.968 275.167 272.968 276.24L273.843 285.06V286.075C273.843 289.132 273.108 291.057 271.638 291.85L270.903 291.99C269.293 291.99 268.056 290.38 267.193 287.16L266.948 285.305V285.2C266.948 284.383 267.321 283.975 268.068 283.975C268.698 283.975 269.013 284.617 269.013 285.9C269.013 287.207 269.573 288.502 270.693 289.785L270.973 289.89C271.51 288.933 271.778 287.813 271.778 286.53V285.06L270.903 276.31C270.903 273.93 271.335 272.74 272.198 272.74ZM278.479 268.435C279.412 268.458 280.987 270.092 283.204 273.335L283.274 273.93C283.274 274.583 281.676 275.085 278.479 275.435L278.374 275.54V275.68C278.864 277.78 279.377 278.83 279.914 278.83H280.334C281.081 278.83 282.212 278.025 283.729 276.415H283.939C284.406 276.415 284.767 276.753 285.024 277.43C285.024 277.99 284.044 278.958 282.084 280.335C281.571 280.638 280.952 280.86 280.229 281C278.339 281 277.021 279.227 276.274 275.68C275.201 275.517 274.664 275.073 274.664 274.35C274.664 273.837 275.061 273.498 275.854 273.335V273.475L276.204 273.335V272.46C276.204 269.777 276.962 268.435 278.479 268.435ZM278.689 270.955H278.374L278.234 272.25V273.335H278.374C279.681 273.288 280.334 273.148 280.334 272.915C279.727 272.005 279.179 271.352 278.689 270.955ZM289.939 269.135L291.374 268.925C291.957 268.925 292.284 269.287 292.354 270.01C292.354 270.64 291.596 271.048 290.079 271.235C289.122 271.982 288.644 272.938 288.644 274.105V275.26C289.111 277.827 289.904 279.11 291.024 279.11H291.374C292.027 279.11 293.007 278.492 294.314 277.255H294.524C294.991 277.255 295.364 277.582 295.644 278.235C295.317 279.238 294.267 280.148 292.494 280.965C292.167 281.105 291.759 281.175 291.269 281.175C288.866 281.175 287.302 279.285 286.579 275.505V274.735C286.579 272.005 287.699 270.138 289.939 269.135ZM301.539 259.755C302.192 259.895 302.519 260.222 302.519 260.735L302.309 262.275V262.73C302.309 263.757 302.426 264.842 302.659 265.985H302.729C305.436 265.168 307.116 264.76 307.769 264.76C308.446 264.947 308.784 265.285 308.784 265.775C308.784 266.568 307.979 266.965 306.369 266.965L302.729 268.26C302.729 271.41 303.067 275.692 303.744 281.105C303.604 281.735 303.266 282.05 302.729 282.05H302.659C301.842 282.05 301.434 281 301.434 278.9C301.131 277.337 300.874 273.942 300.664 268.715H300.034C297.841 268.575 296.744 268.062 296.744 267.175C296.744 266.918 296.989 266.603 297.479 266.23H297.829L299.439 266.65H300.559L300.244 262.275C300.244 260.595 300.676 259.755 301.539 259.755ZM323.639 264.06C323.779 263.477 324.199 263.185 324.899 263.185C325.599 263.185 325.949 264.678 325.949 267.665L326.054 269.555L325.739 280.58C325.576 281.303 325.214 281.665 324.654 281.665C323.977 281.408 323.639 281.047 323.639 280.58L323.989 269.765L323.639 264.06Z" fill="#464646"/>
<path d="M381.956 358.785C382.353 358.785 382.714 359.158 383.041 359.905L381.501 369.635V372.365C381.501 375.212 381.944 376.635 382.831 376.635C383.414 376.915 383.706 377.288 383.706 377.755C383.706 378.292 383.239 378.607 382.306 378.7C381.279 378.7 380.474 377.755 379.891 375.865H379.541C378.678 377.755 377.628 378.7 376.391 378.7C374.944 378.7 374.069 377.603 373.766 375.41C373.766 372.867 375.469 370.172 378.876 367.325C379.553 367.325 379.891 366.38 379.891 364.49C380.404 360.687 381.093 358.785 381.956 358.785ZM375.831 375.13V376.075L376.391 376.635H376.601C377.348 376.635 378.223 374.383 379.226 369.88H379.016C376.893 372.003 375.831 373.753 375.831 375.13ZM388.092 365.435C389.025 365.458 390.6 367.092 392.817 370.335L392.887 370.93C392.887 371.583 391.289 372.085 388.092 372.435L387.987 372.54V372.68C388.477 374.78 388.99 375.83 389.527 375.83H389.947C390.694 375.83 391.825 375.025 393.342 373.415H393.552C394.019 373.415 394.38 373.753 394.637 374.43C394.637 374.99 393.657 375.958 391.697 377.335C391.184 377.638 390.565 377.86 389.842 378C387.952 378 386.634 376.227 385.887 372.68C384.814 372.517 384.277 372.073 384.277 371.35C384.277 370.837 384.674 370.498 385.467 370.335V370.475L385.817 370.335V369.46C385.817 366.777 386.575 365.435 388.092 365.435ZM388.302 367.955H387.987L387.847 369.25V370.335H387.987C389.294 370.288 389.947 370.148 389.947 369.915C389.34 369.005 388.792 368.352 388.302 367.955ZM400.287 367.605C402.76 367.605 404.219 369.157 404.662 372.26C404.662 375.013 403.379 376.985 400.812 378.175C400.532 378.315 400.147 378.385 399.657 378.385H399.412L398.642 378.315V378.385L398.782 387.73C398.619 388.453 398.245 388.815 397.662 388.815C397.009 388.605 396.682 388.267 396.682 387.8L396.367 368.76C396.367 368.153 396.729 367.838 397.452 367.815L398.187 368.13C398.84 367.78 399.54 367.605 400.287 367.605ZM398.537 371.315L398.432 372.4L398.537 376.11L399.517 376.355C401.08 376.355 402.095 375.212 402.562 372.925V372.4C402.399 370.557 401.745 369.635 400.602 369.635H400.077C399.05 369.635 398.537 370.195 398.537 371.315ZM408.299 358.715C408.952 358.948 409.279 359.31 409.279 359.8L409.629 373.135V377.44C409.629 378.233 409.291 378.63 408.614 378.63H408.159C407.739 378.35 407.529 378.023 407.529 377.65V373.59L407.214 359.73C407.214 359.147 407.576 358.808 408.299 358.715ZM417.749 364.805C419.476 364.805 420.782 366.088 421.669 368.655L421.809 369.39C421.809 371.887 420.642 374.442 418.309 377.055C417.376 377.918 416.431 378.35 415.474 378.35C414.074 378.35 413.082 377.545 412.499 375.935C412.289 375.188 412.184 374.535 412.184 373.975V373.555C412.184 369.868 413.526 367.068 416.209 365.155C416.676 364.922 417.189 364.805 417.749 364.805ZM414.249 373.905C414.249 375.492 414.657 376.285 415.474 376.285C417.177 376.285 418.589 374.103 419.709 369.74V369.075C419.312 367.628 418.577 366.905 417.504 366.905C417.084 366.905 416.874 367.197 416.874 367.78C416.874 368.177 416.407 368.492 415.474 368.725C414.657 370.102 414.249 371.828 414.249 373.905ZM424.48 367.5C425.296 367.5 425.856 369.297 426.16 372.89C426.556 374.547 426.848 375.375 427.035 375.375H427.245C427.828 373.905 428.12 372.447 428.12 371L427.91 368.585C428.166 367.955 428.528 367.64 428.995 367.64C429.858 367.64 430.29 369.168 430.29 372.225C430.803 375.398 431.06 378.35 431.06 381.08V382.725C431.06 387.742 429.636 391.125 426.79 392.875L426.02 393.015C424.69 393.015 423.453 391.778 422.31 389.305L421.995 387.205V387.1C421.995 385.56 422.426 384.79 423.29 384.79L424.165 385.35L424.06 387.555C424.06 388.628 424.608 389.713 425.705 390.81H426.16C427.443 390.81 428.388 388.36 428.995 383.46L429.065 381.43C429.041 379.073 428.948 377.568 428.785 376.915C427.851 377.732 427.116 378.14 426.58 378.14C425.39 378.14 424.328 374.955 423.395 368.585L423.29 368.515C423.29 367.978 423.686 367.64 424.48 367.5ZM433.183 365.75C433.346 365.167 433.719 364.875 434.303 364.875C434.886 364.875 435.271 365.458 435.458 366.625H435.598L437.208 366.275C437.954 366.275 438.678 366.975 439.378 368.375H439.518C440.544 366.765 441.594 365.96 442.668 365.96C444.954 366.38 446.098 367.873 446.098 370.44L446.168 371.665L445.853 378.735V379.4C445.853 379.983 445.491 380.322 444.768 380.415C444.044 380.415 443.683 379.563 443.683 377.86L444.103 371.525C444.103 369.192 443.554 368.025 442.458 368.025C441.828 368.025 441.069 369.553 440.183 372.61C439.739 376.11 439.378 377.86 439.098 377.86C438.701 377.86 438.503 377.942 438.503 378.105C437.779 378.012 437.418 377.638 437.418 376.985L437.873 372.75C437.803 369.833 437.511 368.375 436.998 368.375H436.893C436.309 368.818 436.018 369.693 436.018 371V372.855L435.878 378.21C435.714 378.793 435.353 379.085 434.793 379.085C434.303 379.085 433.988 378.677 433.848 377.86L433.708 373.73L433.918 370.335C433.778 368.585 433.533 367.057 433.183 365.75ZM451.256 365.435C452.189 365.458 453.764 367.092 455.981 370.335L456.051 370.93C456.051 371.583 454.453 372.085 451.256 372.435L451.151 372.54V372.68C451.641 374.78 452.154 375.83 452.691 375.83H453.111C453.858 375.83 454.989 375.025 456.506 373.415H456.716C457.183 373.415 457.544 373.753 457.801 374.43C457.801 374.99 456.821 375.958 454.861 377.335C454.348 377.638 453.729 377.86 453.006 378C451.116 378 449.798 376.227 449.051 372.68C447.978 372.517 447.441 372.073 447.441 371.35C447.441 370.837 447.838 370.498 448.631 370.335V370.475L448.981 370.335V369.46C448.981 366.777 449.739 365.435 451.256 365.435ZM451.466 367.955H451.151L451.011 369.25V370.335H451.151C452.458 370.288 453.111 370.148 453.111 369.915C452.504 369.005 451.956 368.352 451.466 367.955ZM463.696 366.205C465.679 366.368 466.671 367.337 466.671 369.11L466.741 369.565L466.671 375.025C466.671 375.655 467.033 376.507 467.756 377.58V377.65C467.569 378.327 467.231 378.665 466.741 378.665C465.294 378.058 464.571 376.775 464.571 374.815V374.36L464.466 374.29L464.571 374.15V374.08L464.676 369.25C464.676 368.573 464.384 368.235 463.801 368.235H463.381C462.214 368.702 461.631 371.257 461.631 375.9C461.631 377.51 461.223 378.315 460.406 378.315C459.776 378.315 459.449 377.918 459.426 377.125V373.625C459.426 369.098 459.823 366.835 460.616 366.835L460.966 366.73L461.701 366.835C462.331 366.415 462.996 366.205 463.696 366.205ZM472.983 356.755C473.636 356.895 473.963 357.222 473.963 357.735L473.753 359.275V359.73C473.753 360.757 473.87 361.842 474.103 362.985H474.173C476.88 362.168 478.56 361.76 479.213 361.76C479.89 361.947 480.228 362.285 480.228 362.775C480.228 363.568 479.423 363.965 477.813 363.965L474.173 365.26C474.173 368.41 474.511 372.692 475.188 378.105C475.048 378.735 474.71 379.05 474.173 379.05H474.103C473.286 379.05 472.878 378 472.878 375.9C472.575 374.337 472.318 370.942 472.108 365.715H471.478C469.285 365.575 468.188 365.062 468.188 364.175C468.188 363.918 468.433 363.603 468.923 363.23H469.273L470.883 363.65H472.003L471.688 359.275C471.688 357.595 472.12 356.755 472.983 356.755ZM488.364 353.01C490.488 353.36 491.549 354.41 491.549 356.16C491.549 358.54 490.021 361.433 486.964 364.84C487.361 365.89 487.828 368.737 488.364 373.38C488.598 373.613 488.714 373.905 488.714 374.255H488.819C488.819 374.862 488.376 375.223 487.489 375.34C486.556 375.34 485.903 372.563 485.529 367.01C485.273 365.843 484.911 365.26 484.444 365.26C483.931 364.747 483.674 364.268 483.674 363.825C483.838 363.242 484.211 362.95 484.794 362.95L485.669 363.16C488.189 360.547 489.449 358.143 489.449 355.95C489.309 355.53 489.064 355.238 488.714 355.075H488.294C486.778 355.075 485.343 356.58 483.989 359.59C483.989 361.107 483.698 361.865 483.114 361.865L483.044 362.005H482.904C482.251 362.005 481.924 361.445 481.924 360.325V360.255C481.924 358.178 483.173 356.09 485.669 353.99C486.533 353.337 487.431 353.01 488.364 353.01ZM489.239 378.035C490.266 378.502 490.779 379.132 490.779 379.925C490.546 380.508 490.184 380.8 489.694 380.8C488.598 380.17 488.049 379.587 488.049 379.05C488.049 378.537 488.446 378.198 489.239 378.035Z" fill="#464646"/>
<path d="M345.502 300.803C350.358 301.159 350.961 291.928 350.974 288.703C351.009 279.148 353.227 257.814 351.03 249.777C348.672 241.15 327.429 242.747 318.369 242.469C291.134 241.635 265.028 242.287 236.027 242.275C228.84 242.272 221.352 241.543 214.265 242.471C207.134 243.405 204.858 247.19 204.114 252.706C203.562 256.799 203.207 278.37 203.041 285.035C202.962 288.243 202.764 296.397 205.121 298.907C208.565 302.579 217.543 301.964 221.392 301.957C229.88 301.941 319.854 301.811 342.787 300.78" stroke="#2C2C2C" stroke-width="2" stroke-miterlimit="1.5" stroke-linecap="round" stroke-linejoin="round"/>
<path d="M679.502 298.803C684.358 299.159 684.961 289.928 684.974 286.703C685.009 277.148 687.227 255.814 685.03 247.777C682.672 239.15 661.429 240.747 652.369 240.469C625.134 239.635 599.028 240.287 570.027 240.275C562.84 240.272 555.352 239.543 548.265 240.471C541.134 241.405 538.858 245.19 538.114 250.706C537.562 254.799 537.207 276.37 537.041 283.035C536.962 286.243 536.764 294.397 539.121 296.907C542.565 300.579 551.543 299.964 555.392 299.957C563.88 299.941 653.854 299.811 676.787 298.78" stroke="#2C2C2C" stroke-width="2" stroke-miterlimit="1.5" stroke-linecap="round" stroke-linejoin="round"/>
<path d="M506.502 298.803C511.358 299.159 511.961 289.928 511.974 286.703C512.009 277.148 514.227 255.814 512.03 247.777C509.672 239.15 488.429 240.747 479.369 240.469C452.134 239.635 426.028 240.287 397.027 240.275C389.84 240.272 382.352 239.543 375.265 240.471C368.134 241.405 365.858 245.19 365.114 250.706C364.562 254.799 364.207 276.37 364.041 283.035C363.962 286.243 363.764 294.397 366.121 296.907C369.565 300.579 378.543 299.964 382.392 299.957C390.88 299.941 480.854 299.811 503.787 298.78" stroke="#2C2C2C" stroke-width="2" stroke-miterlimit="1.5" stroke-linecap="round" stroke-linejoin="round"/>
<path d="M501.502 399.803C506.358 400.159 506.961 390.928 506.974 387.703C507.009 378.148 509.227 356.814 507.03 348.777C504.672 340.15 483.429 341.747 474.369 341.469C447.134 340.635 421.028 341.287 392.027 341.275C384.84 341.272 377.352 340.543 370.265 341.471C363.134 342.405 360.858 346.19 360.114 351.706C359.562 355.799 359.207 377.37 359.041 384.035C358.962 387.243 358.764 395.397 361.121 397.907C364.565 401.579 373.543 400.964 377.392 400.957C385.88 400.941 475.854 400.811 498.787 399.78" stroke="#2C2C2C" stroke-width="2" stroke-miterlimit="1.5" stroke-linecap="round" stroke-linejoin="round"/>
<path d="M599.288 258.955C599.825 258.955 600.163 259.34 600.303 260.11C597.293 263.61 595.788 268.137 595.788 273.69V273.9C595.788 279.36 597.293 282.837 600.303 284.33C601.33 284.587 601.843 285.018 601.843 285.625C601.843 285.998 601.505 286.325 600.828 286.605C598.798 286.045 597.235 284.948 596.138 283.315C594.552 280.842 593.758 277.89 593.758 274.46V273.69C593.758 268.253 595.17 263.633 597.993 259.83C598.577 259.247 599.008 258.955 599.288 258.955ZM605.767 280.935C606.257 280.935 606.549 281.332 606.642 282.125C606.502 282.942 606.094 283.35 605.417 283.35C604.95 283.35 604.624 282.942 604.437 282.125C604.717 281.332 605.16 280.935 605.767 280.935ZM612.125 280.935C612.615 280.935 612.906 281.332 613 282.125C612.86 282.942 612.451 283.35 611.775 283.35C611.308 283.35 610.981 282.942 610.795 282.125C611.075 281.332 611.518 280.935 612.125 280.935ZM618.482 280.935C618.972 280.935 619.264 281.332 619.357 282.125C619.217 282.942 618.809 283.35 618.132 283.35C617.665 283.35 617.339 282.942 617.152 282.125C617.432 281.332 617.875 280.935 618.482 280.935ZM624.734 260.985C625.854 261.405 626.951 263.12 628.024 266.13C628.374 267.927 628.549 269.455 628.549 270.715V270.925C628.549 276.152 627.208 280.678 624.524 284.505L623.964 284.715C623.241 284.552 622.879 284.19 622.879 283.63C625.283 279.827 626.484 275.522 626.484 270.715C626.484 267.192 625.539 264.392 623.649 262.315V261.755C623.999 261.242 624.361 260.985 624.734 260.985Z" fill="#464646"/>
<path d="M439.891 308C439.891 310.566 439 313.087 439 315.571C439 318.389 439.891 321.124 439.891 323.883C439.891 326.431 440.137 324.456 439.891 327" stroke="#464646" stroke-width="2" stroke-linecap="round"/>
<path d="M433 327.25C434.197 327.25 435.464 327.161 436.676 327.363C437.261 327.461 437.881 327.401 438.47 327.401C439.579 327.401 440.673 327.421 441.774 327.401C442.371 327.39 442.963 327.476 443.564 327.476C443.785 327.476 444.067 327.5 444.267 327.593C444.683 327.788 445.189 327.781 445.588 327.999C445.662 328.039 445.405 328.204 445.375 328.246C445.03 328.724 444.575 329.15 444.17 329.58C443.703 330.076 443.117 330.449 442.611 330.905C442.25 331.23 441.962 331.631 441.64 331.993C440.872 332.858 439.946 333.554 439.131 334.368C438.94 334.559 438.744 334.723 438.533 334.887C438.337 335.039 436.95 333.419 436.772 333.172C436.014 332.119 435.617 330.835 434.807 329.793C434.534 329.442 434.3 329.014 433.995 328.697C433.845 328.541 433.733 328.298 433.527 328.229" stroke="#464646" stroke-width="2" stroke-linecap="round"/>
<path d="M284 214.472C285.82 213.775 288.21 213.347 290.6 213.347C297.174 213.347 307.973 212.76 314.515 213.113C327.06 213.79 339.548 215.236 352.155 215.236C383.04 215.236 413.937 216 444.888 216C480.355 216 515.775 215.236 551.157 215.236C562.944 215.236 574.562 214.472 586.422 214.472C588.914 214.472 609.51 213.105 611 215.236" stroke="#464646" stroke-width="2" stroke-linecap="round"/>
<path d="M1 98.4716C4.98444 97.7747 10.2184 97.3473 15.4524 97.3473C29.8459 97.3473 53.4914 96.7599 67.8163 97.113C95.2833 97.79 122.628 99.2358 150.232 99.2358C217.858 99.2358 285.51 100 353.28 100C430.939 100 508.495 99.2358 585.967 99.2358C611.777 99.2358 637.216 98.4716 663.183 98.4716C668.641 98.4716 713.737 97.1046 717 99.2358" stroke="#5C55A3" stroke-linecap="round" stroke-dasharray="6 6"/>
<path d="M1 315.472C4.98444 314.775 10.2184 314.347 15.4524 314.347C29.8459 314.347 53.4914 313.76 67.8163 314.113C95.2833 314.79 122.628 316.236 150.232 316.236C217.858 316.236 285.51 317 353.28 317C430.939 317 508.495 316.236 585.967 316.236C611.777 316.236 637.216 315.472 663.183 315.472C668.641 315.472 713.737 314.105 717 316.236" stroke="#5C55A3" stroke-linecap="round" stroke-dasharray="6 6"/>
<path d="M283.098 215C282.598 216.5 284.181 226.772 284.181 228.727C284.181 231.631 284.312 240.416 284.181 240.35" stroke="#464646" stroke-width="2" stroke-linecap="round"/>
<path d="M611.098 213C610.598 214.5 612.181 224.772 612.181 226.727C612.181 229.631 612.312 238.416 612.181 238.35" stroke="#464646" stroke-width="2" stroke-linecap="round"/>
<path d="M397.085 268.605C399.558 268.605 401.016 270.157 401.46 273.26C401.46 276.013 400.176 277.985 397.61 279.175C397.33 279.315 396.945 279.385 396.455 279.385H396.21L395.44 279.315V279.385L395.58 288.73C395.416 289.453 395.043 289.815 394.46 289.815C393.806 289.605 393.48 289.267 393.48 288.8L393.165 269.76C393.165 269.153 393.526 268.838 394.25 268.815L394.985 269.13C395.638 268.78 396.338 268.605 397.085 268.605ZM395.335 272.315L395.23 273.4L395.335 277.11L396.315 277.355C397.878 277.355 398.893 276.212 399.36 273.925V273.4C399.196 271.557 398.543 270.635 397.4 270.635H396.875C395.848 270.635 395.335 271.195 395.335 272.315ZM407.722 265.21C409.192 265.21 410.067 266.237 410.347 268.29V268.605C410.347 270.868 409.18 272.945 406.847 274.835C408.2 276.165 410.569 276.83 413.952 276.83C414.465 276.993 414.722 277.355 414.722 277.915C414.722 278.545 414.314 278.86 413.497 278.86C411.21 278.86 408.807 278.277 406.287 277.11V278.125C406.287 280.528 405.774 281.73 404.747 281.73C404.024 281.73 403.662 280.342 403.662 277.565V274.835L403.557 273.855L403.802 272.735L403.557 269.375V269.235C403.557 268.605 403.884 268.173 404.537 267.94C405.447 266.12 406.509 265.21 407.722 265.21ZM405.972 272.875C406.649 272.875 407.407 271.662 408.247 269.235V267.73L407.827 267.275H407.512C406.485 267.975 405.972 269.842 405.972 272.875ZM421.485 265.805C423.212 265.805 424.519 267.088 425.405 269.655L425.545 270.39C425.545 272.887 424.379 275.442 422.045 278.055C421.112 278.918 420.167 279.35 419.21 279.35C417.81 279.35 416.819 278.545 416.235 276.935C416.025 276.188 415.92 275.535 415.92 274.975V274.555C415.92 270.868 417.262 268.068 419.945 266.155C420.412 265.922 420.925 265.805 421.485 265.805ZM417.985 274.905C417.985 276.492 418.394 277.285 419.21 277.285C420.914 277.285 422.325 275.103 423.445 270.74V270.075C423.049 268.628 422.314 267.905 421.24 267.905C420.82 267.905 420.61 268.197 420.61 268.78C420.61 269.177 420.144 269.492 419.21 269.725C418.394 271.102 417.985 272.828 417.985 274.905ZM428.916 267.03C429.639 267.263 430.001 267.8 430.001 268.64C430.001 269.13 429.674 269.422 429.021 269.515H428.916C428.239 269.515 427.878 269.072 427.831 268.185V267.975C427.831 267.368 428.193 267.053 428.916 267.03ZM429.126 270.74C429.453 270.74 429.826 271.055 430.246 271.685C430.013 272.315 429.896 273.167 429.896 274.24L430.771 283.06V284.075C430.771 287.132 430.036 289.057 428.566 289.85L427.831 289.99C426.221 289.99 424.984 288.38 424.121 285.16L423.876 283.305V283.2C423.876 282.383 424.249 281.975 424.996 281.975C425.626 281.975 425.941 282.617 425.941 283.9C425.941 285.207 426.501 286.502 427.621 287.785L427.901 287.89C428.438 286.933 428.706 285.813 428.706 284.53V283.06L427.831 274.31C427.831 271.93 428.263 270.74 429.126 270.74ZM435.407 266.435C436.341 266.458 437.916 268.092 440.132 271.335L440.202 271.93C440.202 272.583 438.604 273.085 435.407 273.435L435.302 273.54V273.68C435.792 275.78 436.306 276.83 436.842 276.83H437.262C438.009 276.83 439.141 276.025 440.657 274.415H440.867C441.334 274.415 441.696 274.753 441.952 275.43C441.952 275.99 440.972 276.958 439.012 278.335C438.499 278.638 437.881 278.86 437.157 279C435.267 279 433.949 277.227 433.202 273.68C432.129 273.517 431.592 273.073 431.592 272.35C431.592 271.837 431.989 271.498 432.782 271.335V271.475L433.132 271.335V270.46C433.132 267.777 433.891 266.435 435.407 266.435ZM435.617 268.955H435.302L435.162 270.25V271.335H435.302C436.609 271.288 437.262 271.148 437.262 270.915C436.656 270.005 436.107 269.352 435.617 268.955ZM446.867 267.135L448.302 266.925C448.886 266.925 449.212 267.287 449.282 268.01C449.282 268.64 448.524 269.048 447.007 269.235C446.051 269.982 445.572 270.938 445.572 272.105V273.26C446.039 275.827 446.832 277.11 447.952 277.11H448.302C448.956 277.11 449.936 276.492 451.242 275.255H451.452C451.919 275.255 452.292 275.582 452.572 276.235C452.246 277.238 451.196 278.148 449.422 278.965C449.096 279.105 448.687 279.175 448.197 279.175C445.794 279.175 444.231 277.285 443.507 273.505V272.735C443.507 270.005 444.627 268.138 446.867 267.135ZM458.467 257.755C459.121 257.895 459.447 258.222 459.447 258.735L459.237 260.275V260.73C459.237 261.757 459.354 262.842 459.587 263.985H459.657C462.364 263.168 464.044 262.76 464.697 262.76C465.374 262.947 465.712 263.285 465.712 263.775C465.712 264.568 464.907 264.965 463.297 264.965L459.657 266.26C459.657 269.41 459.996 273.692 460.672 279.105C460.532 279.735 460.194 280.05 459.657 280.05H459.587C458.771 280.05 458.362 279 458.362 276.9C458.059 275.337 457.802 271.942 457.592 266.715H456.962C454.769 266.575 453.672 266.062 453.672 265.175C453.672 264.918 453.917 264.603 454.407 264.23H454.757L456.367 264.65H457.487L457.172 260.275C457.172 258.595 457.604 257.755 458.467 257.755ZM485.852 260.1C487.649 260.1 488.699 261.372 489.002 263.915C489.002 266.272 487.159 270.833 483.472 277.6V277.81C484.429 277.81 486.47 276.97 489.597 275.29H489.667C490.134 275.29 490.495 275.628 490.752 276.305C490.752 277.495 487.544 278.953 481.127 280.68C480.754 280.68 480.439 280.342 480.182 279.665C481.092 277.588 482.865 274.088 485.502 269.165C486.389 266.785 486.832 265.175 486.832 264.335V263.25C486.832 262.783 486.587 262.422 486.097 262.165H485.642C484.732 262.165 483.857 263.262 483.017 265.455L483.122 265.875C483.122 266.318 482.795 266.68 482.142 266.96C481.279 266.797 480.847 266.365 480.847 265.665C480.847 264.335 481.862 262.702 483.892 260.765C484.475 260.322 485.129 260.1 485.852 260.1Z" fill="#464646"/>
<path d="M436.098 214C435.598 215.5 437.181 225.772 437.181 227.727C437.181 230.631 437.312 239.416 437.181 239.35" stroke="#464646" stroke-width="2" stroke-linecap="round"/>
<path d="M435.098 191C434.598 192.5 436.181 202.772 436.181 204.727C436.181 207.631 436.312 216.416 436.181 216.35" stroke="#464646" stroke-width="2" stroke-linecap="round"/>
<path d="M433.5 74.5C433 76 435.181 102.772 435.181 104.727C435.181 107.631 435.312 116.416 435.181 116.35" stroke="#464646" stroke-width="2" stroke-linecap="round"/>
<path d="M732 416C761.903 400.973 734.805 331.77 756 313.44C733.018 289.071 758.687 232.82 738.35 206" stroke="#424242" stroke-miterlimit="1.5" stroke-linecap="round" stroke-linejoin="round"/>
<g clip-path="url(#clip0_0_1)">
<path fill-rule="evenodd" clip-rule="evenodd" d="M804.433 235C792.028 235 782 245.083 782 257.558C782 267.529 788.425 275.97 797.339 278.957C798.453 279.182 798.862 278.472 798.862 277.875C798.862 277.352 798.825 275.559 798.825 273.692C792.585 275.036 791.285 271.003 791.285 271.003C790.282 268.388 788.796 267.716 788.796 267.716C786.754 266.334 788.945 266.334 788.945 266.334C791.211 266.484 792.4 268.65 792.4 268.65C794.405 272.086 797.636 271.115 798.936 270.517C799.122 269.061 799.716 268.052 800.348 267.492C795.371 266.969 790.134 265.027 790.134 256.362C790.134 253.898 791.025 251.881 792.436 250.312C792.214 249.752 791.433 247.436 792.659 244.337C792.659 244.337 794.554 243.739 798.824 246.652C800.653 246.158 802.539 245.907 804.433 245.905C806.327 245.905 808.258 246.167 810.041 246.652C814.312 243.739 816.206 244.337 816.206 244.337C817.432 247.436 816.652 249.752 816.429 250.312C817.878 251.881 818.732 253.898 818.732 256.362C818.732 265.027 813.495 266.932 808.481 267.492C809.298 268.202 810.004 269.546 810.004 271.675C810.004 274.7 809.967 277.128 809.967 277.874C809.967 278.472 810.376 279.182 811.49 278.958C820.403 275.969 826.829 267.529 826.829 257.558C826.865 245.083 816.801 235 804.433 235Z" fill="#24292F"/>
</g>
<defs>
<linearGradient id="paint0_linear_0_1" x1="438.5" y1="1" x2="438.5" y2="75" gradientUnits="userSpaceOnUse">
<stop stop-color="#5C55A3"/>
<stop offset="1" stop-color="#5C55A3" stop-opacity="0"/>
</linearGradient>
<linearGradient id="paint1_linear_0_1" x1="438.5" y1="117" x2="438.5" y2="191" gradientUnits="userSpaceOnUse">
<stop stop-color="#5C55A3"/>
<stop offset="1" stop-color="#5C55A3" stop-opacity="0"/>
</linearGradient>
<linearGradient id="paint2_linear_0_1" x1="277.5" y1="244" x2="277.5" y2="300" gradientUnits="userSpaceOnUse">
<stop stop-color="#5C55A3"/>
<stop offset="1" stop-color="#5C55A3" stop-opacity="0"/>
</linearGradient>
<linearGradient id="paint3_linear_0_1" x1="439.5" y1="242" x2="439.5" y2="298" gradientUnits="userSpaceOnUse">
<stop stop-color="#5C55A3"/>
<stop offset="1" stop-color="#5C55A3" stop-opacity="0"/>
</linearGradient>
<linearGradient id="paint4_linear_0_1" x1="608.5" y1="240" x2="608.5" y2="296" gradientUnits="userSpaceOnUse">
<stop stop-color="#5C55A3"/>
<stop offset="1" stop-color="#5C55A3" stop-opacity="0"/>
</linearGradient>
<linearGradient id="paint5_linear_0_1" x1="432.5" y1="341" x2="432.5" y2="397" gradientUnits="userSpaceOnUse">
<stop stop-color="#5C55A3"/>
<stop offset="1" stop-color="#5C55A3" stop-opacity="0"/>
</linearGradient>
<clipPath id="clip0_0_1">
<rect width="45" height="44" fill="white" transform="translate(782 235)"/>
</clipPath>
</defs>
</svg>