<svg width="674" height="182" viewBox="0 0 674 182" fill="none" xmlns="http://www.w3.org/2000/svg">
<path d="M58.7905 62.63C60.1105 62.63 60.7705 63.155 60.7705 64.205L60.3655 65.06L60.0955 73.295C60.0955 77.015 60.8455 79.325 62.3455 80.225L62.4355 80.9C62.3455 81.77 61.9405 82.205 61.2205 82.205H60.9505C58.7005 80.675 57.5755 78.335 57.5755 75.185H57.2605C56.0605 78.545 54.6055 80.225 52.8955 80.225C51.3055 79.775 50.5105 78.59 50.5105 76.67C50.5105 72.44 52.2055 68.225 55.5955 64.025C56.7355 63.095 57.8005 62.63 58.7905 62.63ZM53.3455 74.87L53.1655 76.13V76.985H53.6155C55.8655 71.375 56.9905 67.955 56.9905 66.725H56.8105C55.0705 68.675 53.9155 71.39 53.3455 74.87ZM64.1902 64.835C64.8802 64.835 65.6302 66.485 66.4402 69.785C67.5802 72.425 68.2252 73.82 68.3752 73.97C68.5252 73.97 69.0802 72.47 70.0402 69.47C71.0002 66.47 71.9152 64.97 72.7852 64.97C73.5952 65.27 74.0002 65.75 74.0002 66.41C71.5102 72.83 70.2652 77.075 70.2652 79.145L69.4102 80H68.5552C67.4752 79.22 65.6452 75.095 63.0652 67.625L62.6602 65.96C62.8702 65.21 63.3802 64.835 64.1902 64.835ZM83.1077 63.035C85.3277 63.035 87.0077 64.685 88.1477 67.985L88.3277 68.93C88.3277 72.14 86.8277 75.425 83.8277 78.785C82.6277 79.895 81.4127 80.45 80.1827 80.45C78.3827 80.45 77.1077 79.415 76.3577 77.345C76.0877 76.385 75.9527 75.545 75.9527 74.825V74.285C75.9527 69.545 77.6777 65.945 81.1277 63.485C81.7277 63.185 82.3877 63.035 83.1077 63.035ZM78.6077 74.735C78.6077 76.775 79.1327 77.795 80.1827 77.795C82.3727 77.795 84.1877 74.99 85.6277 69.38V68.525C85.1177 66.665 84.1727 65.735 82.7927 65.735C82.2527 65.735 81.9827 66.11 81.9827 66.86C81.9827 67.37 81.3827 67.775 80.1827 68.075C79.1327 69.845 78.6077 72.065 78.6077 74.735ZM90.8618 56.555C92.0018 56.795 92.5718 57.305 92.5718 58.085C92.2718 58.925 91.7918 59.345 91.1318 59.345C90.0218 59.135 89.4668 58.58 89.4668 57.68C89.7668 56.93 90.2318 56.555 90.8618 56.555ZM92.5718 62.855C93.0518 62.855 93.4568 63.29 93.7868 64.16L93.3818 67.355V69.47C93.3818 71.93 93.8018 75.155 94.6418 79.145C94.3418 79.715 93.8318 80 93.1118 80C91.8818 80 91.0718 76.4 90.6818 69.2V67.625C90.6818 64.445 91.3118 62.855 92.5718 62.855ZM107.533 55.295C108.043 55.295 108.508 55.775 108.928 56.735L106.948 69.245V72.755C106.948 76.415 107.518 78.245 108.658 78.245C109.408 78.605 109.783 79.085 109.783 79.685C109.783 80.375 109.183 80.78 107.983 80.9C106.663 80.9 105.628 79.685 104.878 77.255H104.428C103.318 79.685 101.968 80.9 100.378 80.9C98.5175 80.9 97.3925 79.49 97.0025 76.67C97.0025 73.4 99.1925 69.935 103.573 66.275C104.443 66.275 104.878 65.06 104.878 62.63C105.538 57.74 106.423 55.295 107.533 55.295ZM99.6575 76.31V77.525L100.378 78.245H100.648C101.608 78.245 102.733 75.35 104.023 69.56H103.753C101.023 72.29 99.6575 74.54 99.6575 76.31ZM53.9425 97.27C55.8325 97.27 56.9575 98.59 57.3175 101.23V101.635C57.3175 104.545 55.8175 107.215 52.8175 109.645C54.5575 111.355 57.6025 112.21 61.9525 112.21C62.6125 112.42 62.9425 112.885 62.9425 113.605C62.9425 114.415 62.4175 114.82 61.3675 114.82C58.4275 114.82 55.3375 114.07 52.0975 112.57V113.875C52.0975 116.965 51.4375 118.51 50.1175 118.51C49.1875 118.51 48.7225 116.725 48.7225 113.155V109.645L48.5875 108.385L48.9025 106.945L48.5875 102.625V102.445C48.5875 101.635 49.0075 101.08 49.8475 100.78C51.0175 98.44 52.3825 97.27 53.9425 97.27ZM51.6925 107.125C52.5625 107.125 53.5375 105.565 54.6175 102.445V100.51L54.0775 99.925H53.6725C52.3525 100.825 51.6925 103.225 51.6925 107.125ZM68.488 98.845C69.688 98.875 71.713 100.975 74.563 105.145L74.653 105.91C74.653 106.75 72.598 107.395 68.488 107.845L68.353 107.98V108.16C68.983 110.86 69.643 112.21 70.333 112.21H70.873C71.833 112.21 73.288 111.175 75.238 109.105H75.508C76.108 109.105 76.573 109.54 76.903 110.41C76.903 111.13 75.643 112.375 73.123 114.145C72.463 114.535 71.668 114.82 70.738 115C68.308 115 66.613 112.72 65.653 108.16C64.273 107.95 63.583 107.38 63.583 106.45C63.583 105.79 64.093 105.355 65.113 105.145V105.325L65.563 105.145V104.02C65.563 100.57 66.538 98.845 68.488 98.845ZM68.758 102.085H68.353L68.173 103.75V105.145H68.353C70.033 105.085 70.873 104.905 70.873 104.605C70.093 103.435 69.388 102.595 68.758 102.085ZM85.6523 94.75C87.0623 94.75 88.0373 96.25 88.5773 99.25V99.43C88.5773 100.12 88.1123 100.525 87.1823 100.645C86.4323 100.645 85.9223 99.715 85.6523 97.855L85.4723 97.72H84.9323C84.2723 98.68 83.9423 99.94 83.9423 101.5L84.0773 103.75C85.2773 103.75 86.5823 103.435 87.9923 102.805C88.5623 102.805 89.0873 103.21 89.5673 104.02C89.5673 105.25 87.8873 106.06 84.5273 106.45L85.6523 113.785C85.6523 114.415 85.1273 114.82 84.0773 115C83.1473 115 82.6823 113.56 82.6823 110.68L81.8273 106.855L78.9023 107.305C78.2723 107.305 77.8973 106.84 77.7773 105.91C77.7773 105.01 78.9923 104.44 81.4223 104.2L81.2423 101.41C81.7223 96.97 83.1923 94.75 85.6523 94.75ZM93.3263 90.205C94.1663 90.505 94.5863 90.97 94.5863 91.6L95.0363 108.745V114.28C95.0363 115.3 94.6013 115.81 93.7313 115.81H93.1463C92.6063 115.45 92.3363 115.03 92.3363 114.55V109.33L91.9313 91.51C91.9313 90.76 92.3963 90.325 93.3263 90.205ZM105.476 98.035C107.696 98.035 109.376 99.685 110.516 102.985L110.696 103.93C110.696 107.14 109.196 110.425 106.196 113.785C104.996 114.895 103.781 115.45 102.551 115.45C100.751 115.45 99.4759 114.415 98.7259 112.345C98.4559 111.385 98.3209 110.545 98.3209 109.825V109.285C98.3209 104.545 100.046 100.945 103.496 98.485C104.096 98.185 104.756 98.035 105.476 98.035ZM100.976 109.735C100.976 111.775 101.501 112.795 102.551 112.795C104.741 112.795 106.556 109.99 107.996 104.38V103.525C107.486 101.665 106.541 100.735 105.161 100.735C104.621 100.735 104.351 101.11 104.351 101.86C104.351 102.37 103.751 102.775 102.551 103.075C101.501 104.845 100.976 107.065 100.976 109.735ZM125.425 100.87C127.495 102.25 128.53 104.38 128.53 107.26C128.53 111.16 127.225 113.815 124.615 115.225L122.905 115.495C121.885 115.495 120.805 115 119.665 114.01H119.35C118.42 115.21 117.55 115.81 116.74 115.81C114.61 115.81 113.38 113.8 113.05 109.78V107.35C113.26 103.54 114.055 101.635 115.435 101.635C116.185 101.635 116.62 102.1 116.74 103.03C116.05 104.23 115.705 105.91 115.705 108.07V108.925C115.825 111.625 116.11 112.975 116.56 112.975C117.01 112.975 117.475 112.195 117.955 110.635L117.865 107.53C117.865 105.46 118.36 104.425 119.35 104.425C120.49 104.425 121.06 105.55 121.06 107.8H121.24L120.79 110.635C121.3 112.135 122.005 112.885 122.905 112.885H123.175C124.495 112.885 125.35 111.475 125.74 108.655V106.135C125.74 105.175 125.17 103.99 124.03 102.58L123.85 102.175C123.85 101.545 124.375 101.11 125.425 100.87Z" fill="#464646"/>
<path d="M296.291 61.63C297.611 61.63 298.271 62.155 298.271 63.205L297.866 64.06L297.596 72.295C297.596 76.015 298.346 78.325 299.846 79.225L299.936 79.9C299.846 80.77 299.441 81.205 298.721 81.205H298.451C296.201 79.675 295.076 77.335 295.076 74.185H294.761C293.561 77.545 292.106 79.225 290.396 79.225C288.806 78.775 288.011 77.59 288.011 75.67C288.011 71.44 289.706 67.225 293.096 63.025C294.236 62.095 295.301 61.63 296.291 61.63ZM290.846 73.87L290.666 75.13V75.985H291.116C293.366 70.375 294.491 66.955 294.491 65.725H294.311C292.571 67.675 291.416 70.39 290.846 73.87ZM301.69 63.835C302.38 63.835 303.13 65.485 303.94 68.785C305.08 71.425 305.725 72.82 305.875 72.97C306.025 72.97 306.58 71.47 307.54 68.47C308.5 65.47 309.415 63.97 310.285 63.97C311.095 64.27 311.5 64.75 311.5 65.41C309.01 71.83 307.765 76.075 307.765 78.145L306.91 79H306.055C304.975 78.22 303.145 74.095 300.565 66.625L300.16 64.96C300.37 64.21 300.88 63.835 301.69 63.835ZM320.608 62.035C322.828 62.035 324.508 63.685 325.648 66.985L325.828 67.93C325.828 71.14 324.328 74.425 321.328 77.785C320.128 78.895 318.913 79.45 317.683 79.45C315.883 79.45 314.608 78.415 313.858 76.345C313.588 75.385 313.453 74.545 313.453 73.825V73.285C313.453 68.545 315.178 64.945 318.628 62.485C319.228 62.185 319.888 62.035 320.608 62.035ZM316.108 73.735C316.108 75.775 316.633 76.795 317.683 76.795C319.873 76.795 321.688 73.99 323.128 68.38V67.525C322.618 65.665 321.673 64.735 320.293 64.735C319.753 64.735 319.483 65.11 319.483 65.86C319.483 66.37 318.883 66.775 317.683 67.075C316.633 68.845 316.108 71.065 316.108 73.735ZM328.362 55.555C329.502 55.795 330.072 56.305 330.072 57.085C329.772 57.925 329.292 58.345 328.632 58.345C327.522 58.135 326.967 57.58 326.967 56.68C327.267 55.93 327.732 55.555 328.362 55.555ZM330.072 61.855C330.552 61.855 330.957 62.29 331.287 63.16L330.882 66.355V68.47C330.882 70.93 331.302 74.155 332.142 78.145C331.842 78.715 331.332 79 330.612 79C329.382 79 328.572 75.4 328.182 68.2V66.625C328.182 63.445 328.812 61.855 330.072 61.855ZM345.033 54.295C345.543 54.295 346.008 54.775 346.428 55.735L344.448 68.245V71.755C344.448 75.415 345.018 77.245 346.158 77.245C346.908 77.605 347.283 78.085 347.283 78.685C347.283 79.375 346.683 79.78 345.483 79.9C344.163 79.9 343.128 78.685 342.378 76.255H341.928C340.818 78.685 339.468 79.9 337.878 79.9C336.018 79.9 334.893 78.49 334.503 75.67C334.503 72.4 336.693 68.935 341.073 65.275C341.943 65.275 342.378 64.06 342.378 61.63C343.038 56.74 343.923 54.295 345.033 54.295ZM337.158 75.31V76.525L337.878 77.245H338.148C339.108 77.245 340.233 74.35 341.523 68.56H341.253C338.523 71.29 337.158 73.54 337.158 75.31ZM279.819 96.27C281.709 96.27 282.834 97.59 283.194 100.23V100.635C283.194 103.545 281.694 106.215 278.694 108.645C280.434 110.355 283.479 111.21 287.829 111.21C288.489 111.42 288.819 111.885 288.819 112.605C288.819 113.415 288.294 113.82 287.244 113.82C284.304 113.82 281.214 113.07 277.974 111.57V112.875C277.974 115.965 277.314 117.51 275.994 117.51C275.064 117.51 274.599 115.725 274.599 112.155V108.645L274.464 107.385L274.779 105.945L274.464 101.625V101.445C274.464 100.635 274.884 100.08 275.724 99.78C276.894 97.44 278.259 96.27 279.819 96.27ZM277.569 106.125C278.439 106.125 279.414 104.565 280.494 101.445V99.51L279.954 98.925H279.549C278.229 99.825 277.569 102.225 277.569 106.125ZM294.364 97.845C295.564 97.875 297.589 99.975 300.439 104.145L300.529 104.91C300.529 105.75 298.474 106.395 294.364 106.845L294.229 106.98V107.16C294.859 109.86 295.519 111.21 296.209 111.21H296.749C297.709 111.21 299.164 110.175 301.114 108.105H301.384C301.984 108.105 302.449 108.54 302.779 109.41C302.779 110.13 301.519 111.375 298.999 113.145C298.339 113.535 297.544 113.82 296.614 114C294.184 114 292.489 111.72 291.529 107.16C290.149 106.95 289.459 106.38 289.459 105.45C289.459 104.79 289.969 104.355 290.989 104.145V104.325L291.439 104.145V103.02C291.439 99.57 292.414 97.845 294.364 97.845ZM294.634 101.085H294.229L294.049 102.75V104.145H294.229C295.909 104.085 296.749 103.905 296.749 103.605C295.969 102.435 295.264 101.595 294.634 101.085ZM310.044 100.635C313.224 100.635 315.099 102.63 315.669 106.62C315.669 110.16 314.019 112.695 310.719 114.225C310.359 114.405 309.864 114.495 309.234 114.495H308.919L307.929 114.405V114.495L308.109 126.51C307.899 127.44 307.419 127.905 306.669 127.905C305.829 127.635 305.409 127.2 305.409 126.6L305.004 102.12C305.004 101.34 305.469 100.935 306.399 100.905L307.344 101.31C308.184 100.86 309.084 100.635 310.044 100.635ZM307.794 105.405L307.659 106.8L307.794 111.57L309.054 111.885C311.064 111.885 312.369 110.415 312.969 107.475V106.8C312.759 104.43 311.919 103.245 310.449 103.245H309.774C308.454 103.245 307.794 103.965 307.794 105.405ZM326.195 96.63C327.515 96.63 328.175 97.155 328.175 98.205L327.77 99.06L327.5 107.295C327.5 111.015 328.25 113.325 329.75 114.225L329.84 114.9C329.75 115.77 329.345 116.205 328.625 116.205H328.355C326.105 114.675 324.98 112.335 324.98 109.185H324.665C323.465 112.545 322.01 114.225 320.3 114.225C318.71 113.775 317.915 112.59 317.915 110.67C317.915 106.44 319.61 102.225 323 98.025C324.14 97.095 325.205 96.63 326.195 96.63ZM320.75 108.87L320.57 110.13V110.985H321.02C323.27 105.375 324.395 101.955 324.395 100.725H324.215C322.475 102.675 321.32 105.39 320.75 108.87ZM331.46 90.555C332.6 90.795 333.17 91.305 333.17 92.085C332.87 92.925 332.39 93.345 331.73 93.345C330.62 93.135 330.065 92.58 330.065 91.68C330.365 90.93 330.83 90.555 331.46 90.555ZM333.17 96.855C333.65 96.855 334.055 97.29 334.385 98.16L333.98 101.355V103.47C333.98 105.93 334.4 109.155 335.24 113.145C334.94 113.715 334.43 114 333.71 114C332.48 114 331.67 110.4 331.28 103.2V101.625C331.28 98.445 331.91 96.855 333.17 96.855ZM343.406 98.835C345.956 99.045 347.231 100.29 347.231 102.57L347.321 103.155L347.231 110.175C347.231 110.985 347.696 112.08 348.626 113.46V113.55C348.386 114.42 347.951 114.855 347.321 114.855C345.461 114.075 344.531 112.425 344.531 109.905V109.32L344.396 109.23L344.531 109.05V108.96L344.666 102.75C344.666 101.88 344.291 101.445 343.541 101.445H343.001C341.501 102.045 340.751 105.33 340.751 111.3C340.751 113.37 340.226 114.405 339.176 114.405C338.366 114.405 337.946 113.895 337.916 112.875V108.375C337.916 102.555 338.426 99.645 339.446 99.645L339.896 99.51L340.841 99.645C341.651 99.105 342.506 98.835 343.406 98.835ZM355.346 86.685C356.186 86.865 356.606 87.285 356.606 87.945L356.336 89.925V90.51C356.336 91.83 356.486 93.225 356.786 94.695H356.876C360.356 93.645 362.516 93.12 363.356 93.12C364.226 93.36 364.661 93.795 364.661 94.425C364.661 95.445 363.626 95.955 361.556 95.955L356.876 97.62C356.876 101.67 357.311 107.175 358.181 114.135C358.001 114.945 357.566 115.35 356.876 115.35H356.786C355.736 115.35 355.211 114 355.211 111.3C354.821 109.29 354.491 104.925 354.221 98.205H353.411C350.591 98.025 349.181 97.365 349.181 96.225C349.181 95.895 349.496 95.49 350.126 95.01H350.576L352.646 95.55H354.086L353.681 89.925C353.681 87.765 354.236 86.685 355.346 86.685ZM375.077 95.775C375.887 95.775 376.442 97.14 376.742 99.87C376.442 100.62 375.947 100.995 375.257 100.995C374.777 100.905 374.297 100.35 373.817 99.33L373.007 99.06C371.597 99.06 370.322 99.99 369.182 101.85V102.255C369.182 102.705 371.297 103.455 375.527 104.505C377.297 105.555 378.182 106.83 378.182 108.33C378.182 110.79 376.202 112.89 372.242 114.63L370.577 114.9C368.057 114.63 366.797 113.37 366.797 111.12V110.985C366.797 110.265 367.262 109.845 368.192 109.725C368.912 109.725 369.392 110.475 369.632 111.975L369.992 112.245H370.757C372.467 112.245 374.057 111.075 375.527 108.735V108.15C375.527 107.25 373.562 106.41 369.632 105.63C367.562 104.79 366.527 103.62 366.527 102.12C366.527 100.17 368.162 98.34 371.432 96.63C372.872 96.45 374.087 96.165 375.077 95.775Z" fill="#464646"/>
<path d="M91.1521 5.34226C85.8115 4.74898 80.8276 4.77941 75.6293 6.63557C74.085 7.187 72.2917 7.24919 70.6851 7.69896C68.2588 8.37819 65.8613 9.7954 63.3262 9.99817C60.6951 10.2086 58.1565 12.3758 55.3348 12.5848C53.8678 12.6934 52.9652 14.0183 51.4254 14.1368C50.1286 14.2365 48.106 15.3335 46.9123 15.9761C44.3758 17.3417 41.4807 18.2037 39.1797 20.086C34.7101 23.7422 30.1474 26.8851 26.3591 31.0935C19.2697 38.969 11.0812 47.0434 6.17956 56.8447C3.6049 61.9931 2.47901 68.977 1.66648 74.6637C0.617897 82.0023 1.12031 89.7086 1.12031 97.1673C1.12031 99.6173 1.63773 101.929 1.63773 104.266C1.63773 107.534 1.90657 111.948 3.07502 115.015C3.5308 116.211 3.02137 117.431 3.59244 118.636C4.28884 120.106 4.37847 121.775 5.02973 123.263C6.13583 125.791 7.68557 128.884 8.36424 131.598C9.24826 135.133 11.0345 138.231 12.6186 141.399C14.0651 144.291 16.9437 146.606 18.0803 149.561C19.1784 152.415 22.7615 153.804 24.2894 156.401C25.0207 157.644 26.7653 158.302 27.7676 159.304C29.7775 161.313 32.4849 163.936 35.1553 165.08C43.1405 168.502 51.2002 172.148 59.3592 174.479C67.2833 176.742 75.7576 180.715 84.3106 180.715C90.9485 180.715 98.2664 181.635 104.864 180.169C107.939 179.486 111.123 178.551 114.177 177.611C116.654 176.849 119.1 175.207 121.45 174.536C123.483 173.955 125.855 172.677 127.889 172.438C129.38 172.263 133.875 170.362 135.018 169.219C136.337 167.901 138.414 166.868 139.272 164.937C139.727 163.915 142.643 161.143 143.699 160.539C146.995 158.656 151.906 154.058 153.875 150.71C156.527 146.203 160.023 141.98 162.844 137.547C168.271 129.02 172.905 118.903 172.905 108.548C172.905 106.247 174.332 104.212 174.457 102.082C174.601 99.6442 174.809 96.735 175.377 94.322C176.516 89.4832 176.002 81.2648 174.572 76.618C173.779 74.0417 173.097 71.3269 172.359 68.7432C171.791 66.7552 170.405 64.493 169.829 62.4778C168.309 57.158 164.606 52.6647 162.154 47.7628C159.779 43.0139 155.709 39.4517 152.438 35.2896C150.912 33.3479 148.713 31.4511 146.775 29.9439C144.793 28.4029 142.711 26.2098 140.595 25.0006C136.777 22.8194 133.352 19.6192 129.441 17.3557C125.591 15.1268 121.06 11.4985 116.765 10.5442C115.319 10.2232 111.613 9.29171 110.412 8.33124C108.034 6.42923 104.092 7.93097 101.501 6.77927C98.9021 5.62462 95.4637 7.38592 92.9343 6.26194C91.1196 5.45559 88.5418 5.85958 86.4952 5.85958" stroke="#464646" stroke-width="2" stroke-linecap="round"/>
<path d="M327.213 1.35004C321.75 0.74327 316.652 0.774399 311.335 2.67274C309.756 3.2367 307.921 3.30031 306.278 3.7603C303.796 4.45496 301.344 5.90438 298.751 6.11177C296.06 6.32699 293.463 8.54346 290.577 8.75718C289.076 8.86829 288.153 10.2233 286.578 10.3444C285.252 10.4464 283.183 11.5684 281.962 12.2256C279.367 13.6222 276.406 14.5038 274.052 16.4289C269.481 20.1682 264.814 23.3825 260.939 27.6865C253.687 35.7411 245.312 43.9989 240.298 54.023C237.664 59.2884 236.513 66.4311 235.682 72.247C234.609 79.7524 235.123 87.6338 235.123 95.262C235.123 97.7677 235.652 100.132 235.652 102.522C235.652 105.865 235.927 110.379 237.122 113.515C237.589 114.739 237.068 115.986 237.652 117.219C238.364 118.722 238.456 120.429 239.122 121.951C240.253 124.536 241.838 127.699 242.533 130.475C243.437 134.091 245.264 137.259 246.884 140.498C248.364 143.457 251.308 145.825 252.471 148.846C253.594 151.766 257.259 153.186 258.822 155.842C259.57 157.113 261.354 157.786 262.379 158.811C264.435 160.866 267.205 163.548 269.936 164.719C278.104 168.218 286.348 171.947 294.693 174.33C302.798 176.645 311.466 180.709 320.215 180.709C327.004 180.709 334.49 181.649 341.238 180.15C344.383 179.451 347.64 178.495 350.764 177.534C353.298 176.755 355.799 175.076 358.203 174.389C360.282 173.795 362.709 172.488 364.789 172.243C366.314 172.064 370.912 170.12 372.081 168.951C373.43 167.603 375.555 166.546 376.433 164.572C376.898 163.527 379.88 160.692 380.961 160.074C384.332 158.149 389.355 153.446 391.37 150.022C394.082 145.412 397.658 141.093 400.543 136.56C406.095 127.839 410.834 117.492 410.834 106.902C410.834 104.548 412.294 102.467 412.422 100.288C412.569 97.7952 412.782 94.8199 413.363 92.3521C414.528 87.4033 414.002 78.9981 412.54 74.2457C411.729 71.6109 411.031 68.8343 410.276 66.1919C409.695 64.1588 408.277 61.8451 407.688 59.7842C406.133 54.3434 402.345 49.748 399.838 44.7347C397.408 39.8778 393.245 36.2347 389.899 31.978C388.339 29.9921 386.09 28.0523 384.107 26.5108C382.08 24.9348 379.95 22.6919 377.786 21.4551C373.881 19.2244 370.377 15.9514 366.377 13.6365C362.439 11.3569 357.804 7.64624 353.411 6.67024C351.932 6.34187 348.141 5.38925 346.913 4.40695C344.48 2.46172 340.449 3.99758 337.798 2.81971C335.14 1.63882 331.623 3.44014 329.036 2.29063C327.18 1.46594 324.543 1.87912 322.449 1.87912" stroke="#464646" stroke-width="2" stroke-linecap="round"/>
<path d="M189 92C189.184 92 189.425 92 189.666 92C190.329 92 191.419 92 192.08 92C193.345 92 194.606 92 195.878 92C198.995 92 202.113 92 205.236 92C208.816 92 212.39 92 215.961 92C217.15 92 218.323 92 219.52 92C219.771 92 221.85 92 222 92" stroke="#464646" stroke-width="2" stroke-linecap="round"/>
<path d="M205.509 109C205.742 108.816 205.884 108.575 205.884 108.334C205.884 107.671 206.08 106.581 205.962 105.92C205.737 104.655 205.255 103.394 205.255 102.122C205.255 99.0051 205 95.8871 205 92.7636C205 89.1844 205.255 85.6099 205.255 82.0392C205.255 80.8497 205.509 79.6772 205.509 78.4804C205.509 78.2288 205.965 76.1504 205.255 76" stroke="#464646" stroke-width="2" stroke-linecap="round"/>
<path d="M447 90.0001C447.184 90.0001 447.425 90.0001 447.666 90.0001C448.329 90.0001 449.419 90.0001 450.08 90.0001C451.345 90.0001 452.606 90.0001 453.878 90.0001C456.995 90.0001 460.113 90.0001 463.236 90.0001C466.816 90.0001 470.39 90.0001 473.961 90.0001C475.15 90.0001 476.323 90.0001 477.52 90.0001C477.771 90.0001 479.85 90.0001 480 90.0001" stroke="#464646" stroke-width="2" stroke-linecap="round"/>
<path d="M447 111C447.184 111 447.425 111 447.666 111C448.329 111 449.419 111 450.08 111C451.345 111 452.606 111 453.878 111C456.995 111 460.113 111 463.236 111C466.816 111 470.39 111 473.961 111C475.15 111 476.323 111 477.52 111C477.771 111 479.85 111 480 111" stroke="#464646" stroke-width="2" stroke-linecap="round"/>
<g clip-path="url(#clip0_0_1)">
<mask id="mask0_0_1" style="mask-type:luminance" maskUnits="userSpaceOnUse" x="529" y="29" width="145" height="144">
<path d="M673.356 82.7641L621.348 29L528.999 118.332L581.007 172.096L673.356 82.7641Z" fill="white"/>
</mask>
<g mask="url(#mask0_0_1)">
<path d="M568.194 116.857C567.877 116.531 567.444 116.344 566.99 116.337C566.536 116.33 566.097 116.503 565.771 116.819L556.19 126.114C555.874 126.432 555.695 126.862 555.692 127.311C555.69 127.76 555.863 128.192 556.176 128.514C556.488 128.836 556.915 129.023 557.364 129.034C557.812 129.045 558.248 128.879 558.575 128.572L568.156 119.278C568.482 118.962 568.669 118.529 568.676 118.075C568.683 117.621 568.51 117.183 568.194 116.857Z" fill="#606060"/>
<path d="M584.248 133.406C584.091 133.244 583.904 133.115 583.698 133.026C583.491 132.936 583.269 132.889 583.044 132.885C582.819 132.882 582.596 132.923 582.387 133.006C582.178 133.089 581.987 133.212 581.825 133.369L572.246 142.662C572.084 142.819 571.955 143.006 571.866 143.212C571.777 143.419 571.729 143.641 571.725 143.866C571.722 144.091 571.763 144.314 571.846 144.523C571.929 144.732 572.052 144.923 572.208 145.085C572.365 145.246 572.552 145.375 572.758 145.464C572.965 145.554 573.187 145.601 573.412 145.605C573.637 145.608 573.86 145.567 574.069 145.485C574.278 145.402 574.469 145.279 574.63 145.122L584.211 135.827C584.537 135.511 584.724 135.078 584.731 134.624C584.738 134.17 584.564 133.732 584.248 133.406Z" fill="#606060"/>
<path d="M576.01 124.913C575.693 124.587 575.26 124.4 574.806 124.393C574.352 124.386 573.913 124.56 573.587 124.877L555.078 142.831C554.917 142.988 554.788 143.175 554.699 143.381C554.609 143.588 554.562 143.81 554.558 144.035C554.555 144.259 554.596 144.483 554.679 144.692C554.762 144.901 554.885 145.092 555.042 145.253C555.198 145.415 555.385 145.544 555.592 145.633C555.798 145.722 556.02 145.77 556.245 145.773C556.47 145.776 556.693 145.736 556.903 145.653C557.112 145.57 557.302 145.446 557.464 145.29L575.973 127.335C576.134 127.179 576.263 126.992 576.352 126.785C576.442 126.579 576.489 126.357 576.493 126.132C576.496 125.907 576.455 125.684 576.372 125.475C576.29 125.265 576.166 125.075 576.01 124.913Z" fill="#606060"/>
</g>
<path d="M589.916 130.53C588.302 128.916 587.282 126.837 585.691 125.152C584.081 123.448 582.347 121.698 580.526 120.137C578.814 118.67 577.661 116.008 576.257 114.204C575.885 113.724 571.855 109.59 571.946 109.487C573.144 108.14 575.077 107.106 575.318 105.176C575.419 104.372 575.927 104.005 574.721 103.661C573.114 103.202 571.317 102.23 569.769 101.526C567.929 100.69 565.94 98.7168 563.986 98.2825C563.307 98.1316 562.537 97.526 561.873 97.194C560.497 96.5063 560.984 96.0683 560.421 94.8037C559.514 92.7612 560.797 93.0859 562.3 92.6268C564.364 91.9961 566.302 90.0569 568.403 89.8097C569.199 89.7161 570.492 89.0095 571.285 88.6572C573.536 87.6565 576.21 87.2078 578.562 86.3522C580.763 85.5521 582.955 84.3075 585.136 83.6845C587.301 83.0657 588.279 81.4569 590.002 79.9069C591.196 78.8322 592.622 77.8594 593.95 76.9404C595.259 76.0338 596.545 74.8258 597.984 74.1446C600.966 72.7317 603.566 70.4991 606.456 68.8731C612.622 65.4049 618.727 61.9547 625.558 59.9307C631.118 58.2832 637.282 57.5404 643.122 57.5404C645.008 57.5404 646.759 56.7721 648.607 56.7721C649.711 56.7721 648.799 59.0786 648.671 59.6533C648.027 62.5496 647.283 65.5778 646.003 68.2968C644.673 71.1246 643.855 74.2986 642.845 77.2178C641.723 80.4583 640.051 83.6583 638.512 86.7364C637.104 89.5519 635.805 92.5895 634.073 95.1879C631.801 98.5955 629.334 102.035 627.478 105.56C626.62 107.191 624.715 108.43 623.423 109.487C622.294 110.411 621.275 111.375 620.03 112.134C617.569 113.631 616.886 114.14 616.018 116.743C615.145 119.361 613.638 121.766 612.88 124.384C612.016 127.371 610.857 129.978 609.295 132.643C608.402 134.166 607.736 135.87 606.819 137.36C606.176 138.405 606.449 139.755 605.966 140.903C605.26 142.579 605.67 142.353 603.917 142.034C602.168 141.716 602.5 140.1 602.124 138.598C601.751 137.104 601.409 135.874 600.673 134.585C600.127 133.631 599.432 133.005 599.115 131.896C598.835 130.916 597.778 127.906 596.447 129.57C595.404 130.874 593.02 130.53 591.453 130.53" stroke="#5A5A5A" stroke-width="3" stroke-linecap="round"/>
</g>
<defs>
<clipPath id="clip0_0_1">
<rect width="74.8025" height="128.485" fill="white" transform="translate(621.348 29) rotate(45.9512)"/>
</clipPath>
</defs>
</svg>