<svg width="735" height="210" viewBox="0 0 735 210" fill="none" xmlns="http://www.w3.org/2000/svg">
<path d="M230 102C230.184 102 230.425 102 230.666 102C231.329 102 232.419 102 233.08 102C234.345 102 235.606 102 236.878 102C239.995 102 243.113 102 246.236 102C249.816 102 253.39 102 256.961 102C258.15 102 259.323 102 260.52 102C260.771 102 262.85 102 263 102" stroke="#464646" stroke-width="2" stroke-linecap="round"/>
<path d="M246.509 119C246.742 118.816 246.884 118.575 246.884 118.334C246.884 117.671 247.08 116.581 246.962 115.92C246.737 114.655 246.255 113.394 246.255 112.122C246.255 109.005 246 105.887 246 102.764C246 99.1844 246.255 95.6099 246.255 92.0392C246.255 90.8497 246.509 89.6772 246.509 88.4804C246.509 88.2288 246.965 86.1504 246.255 86" stroke="#464646" stroke-width="2" stroke-linecap="round"/>
<path d="M540 97C540.184 97 540.425 97 540.666 97C541.329 97 542.419 97 543.08 97C544.345 97 545.606 97 546.878 97C549.995 97 553.113 97 556.236 97C559.816 97 563.39 97 566.961 97C568.15 97 569.323 97 570.52 97C570.771 97 572.85 97 573 97" stroke="#464646" stroke-width="2" stroke-linecap="round"/>
<path d="M540 118C540.184 118 540.425 118 540.666 118C541.329 118 542.419 118 543.08 118C544.345 118 545.606 118 546.878 118C549.995 118 553.113 118 556.236 118C559.816 118 563.39 118 566.961 118C568.15 118 569.323 118 570.52 118C570.771 118 572.85 118 573 118" stroke="#464646" stroke-width="2" stroke-linecap="round"/>
<path d="M93.5095 107C93.7418 106.905 93.8842 106.781 93.8842 106.657C93.8842 106.315 94.08 105.754 93.9623 105.414C93.7367 104.761 93.2547 104.112 93.2547 103.457C93.2547 101.851 93 100.245 93 98.6358C93 96.7919 93.2547 94.9505 93.2547 93.1111C93.2547 92.4983 93.5095 91.8943 93.5095 91.2778C93.5095 91.1482 93.9651 90.0775 93.2547 90" stroke="#464646" stroke-width="2" stroke-linecap="round"/>
<path d="M85 98.5095C85.0946 98.7418 85.2189 98.8842 85.3431 98.8842C85.6849 98.8842 86.2463 99.08 86.5864 98.9623C87.2386 98.7367 87.8878 98.2547 88.5432 98.2547C90.1489 98.2547 91.7551 98 93.3642 98C95.2081 98 97.0495 98.2547 98.8889 98.2547C99.5017 98.2547 100.106 98.5095 100.722 98.5095C100.852 98.5095 101.923 98.9651 102 98.2547" stroke="#464646" stroke-width="2" stroke-linecap="round"/>
<path d="M394.061 6.39476C387.897 5.71047 382.144 5.74557 376.144 7.88648C374.361 8.52251 372.291 8.59424 370.436 9.113C367.636 9.89643 364.869 11.5311 361.942 11.7649C358.905 12.0077 355.975 14.5073 352.718 14.7484C351.025 14.8737 349.983 16.4018 348.205 16.5384C346.708 16.6535 344.374 17.9188 342.996 18.66C340.068 20.235 336.726 21.2293 334.07 23.4003C328.911 27.6174 323.644 31.2424 319.272 36.0965C311.089 45.1802 301.637 54.4932 295.979 65.7982C293.007 71.7363 291.707 79.7917 290.769 86.3507C289.559 94.8152 290.139 103.704 290.139 112.307C290.139 115.133 290.736 117.799 290.736 120.494C290.736 124.264 291.046 129.355 292.395 132.892C292.921 134.272 292.333 135.679 292.992 137.069C293.796 138.764 293.9 140.689 294.651 142.406C295.928 145.322 297.717 148.889 298.5 152.019C299.521 156.097 301.583 159.67 303.411 163.323C305.081 166.659 308.404 169.33 309.716 172.738C310.983 176.03 315.119 177.632 316.883 180.627C317.727 182.061 319.741 182.819 320.898 183.975C323.217 186.293 326.343 189.318 329.425 190.638C338.642 194.585 347.945 198.79 357.363 201.478C366.51 204.089 376.292 208.671 386.164 208.671C393.826 208.671 402.273 209.732 409.888 208.042C413.438 207.254 417.113 206.175 420.639 205.091C423.498 204.213 426.321 202.319 429.034 201.544C431.38 200.875 434.118 199.4 436.466 199.124C438.187 198.922 443.376 196.73 444.695 195.412C446.217 193.891 448.615 192.699 449.606 190.473C450.13 189.294 453.496 186.097 454.716 185.401C458.52 183.229 464.188 177.925 466.462 174.064C469.523 168.865 473.558 163.994 476.814 158.881C483.079 149.046 488.428 137.377 488.428 125.434C488.428 122.779 490.075 120.432 490.219 117.975C490.385 115.163 490.626 111.808 491.281 109.025C492.596 103.444 492.003 93.9645 490.352 88.6049C489.437 85.6334 488.649 82.502 487.797 79.522C487.141 77.229 485.542 74.6198 484.877 72.2955C483.122 66.1595 478.848 60.9769 476.018 55.323C473.277 49.8456 468.578 45.7369 464.803 40.9363C463.041 38.6967 460.503 36.509 458.266 34.7705C455.979 32.9931 453.575 30.4636 451.132 29.0688C446.726 26.5531 442.772 22.8619 438.258 20.2511C433.813 17.6803 428.583 13.4955 423.625 12.3948C421.957 12.0244 417.678 10.9501 416.292 9.84228C413.548 7.64849 408.998 9.38061 406.006 8.05222C403.007 6.72044 399.038 8.75194 396.118 7.45554C394.024 6.52548 391.048 6.99145 388.686 6.99145" stroke="#464646" stroke-width="2" stroke-linecap="round"/>
<path d="M105.061 1.39476C98.8967 0.710466 93.1438 0.745573 87.1436 2.88648C85.361 3.52251 83.291 3.59424 81.4365 4.113C78.6359 4.89643 75.8685 6.53106 72.9422 6.76494C69.9052 7.00767 66.9749 9.50734 63.7179 9.74837C62.0246 9.87368 60.9827 11.4018 59.2053 11.5384C57.7084 11.6535 55.3738 12.9188 53.9959 13.66C51.0681 15.235 47.7263 16.2293 45.0703 18.4003C39.9111 22.6174 34.6444 26.2424 30.2716 31.0965C22.0885 40.1802 12.6366 49.4932 6.97869 60.7982C4.0068 66.7363 2.7072 74.7917 1.7693 81.3507C0.558944 89.8152 1.13887 98.7036 1.13887 107.307C1.13887 110.133 1.73612 112.799 1.73612 115.494C1.73612 119.264 2.04644 124.355 3.39516 127.892C3.92127 129.272 3.33323 130.679 3.99242 132.069C4.79626 133.764 4.89972 135.689 5.65146 137.406C6.92821 140.322 8.71706 143.889 9.50044 147.019C10.5209 151.097 12.5827 154.67 14.4112 158.323C16.0809 161.659 19.4036 164.33 20.7156 167.738C21.9831 171.03 26.119 172.632 27.8826 175.627C28.7267 177.061 30.7405 177.819 31.8975 178.975C34.2174 181.293 37.3426 184.318 40.425 185.638C49.6422 189.585 58.9454 193.79 68.3632 196.478C77.5099 199.089 87.2916 203.671 97.1642 203.671C104.826 203.671 113.273 204.732 120.888 203.042C124.438 202.254 128.113 201.175 131.639 200.091C134.498 199.213 137.321 197.319 140.034 196.544C142.38 195.875 145.118 194.4 147.466 194.124C149.187 193.922 154.376 191.73 155.695 190.412C157.217 188.891 159.615 187.699 160.606 185.473C161.13 184.294 164.496 181.097 165.716 180.401C169.52 178.229 175.188 172.925 177.462 169.064C180.523 163.865 184.558 158.994 187.814 153.881C194.079 144.046 199.428 132.377 199.428 120.434C199.428 117.779 201.075 115.432 201.219 112.975C201.385 110.163 201.626 106.808 202.281 104.025C203.596 98.4437 203.003 88.9645 201.352 83.6049C200.437 80.6334 199.649 77.502 198.797 74.522C198.141 72.229 196.542 69.6198 195.877 67.2955C194.122 61.1595 189.848 55.9769 187.018 50.323C184.277 44.8456 179.578 40.7369 175.803 35.9363C174.041 33.6967 171.503 31.509 169.266 29.7705C166.979 27.9931 164.575 25.4636 162.132 24.0688C157.726 21.5531 153.772 17.8619 149.258 15.2511C144.813 12.6803 139.583 8.49548 134.625 7.39478C132.957 7.02444 128.678 5.9501 127.292 4.84228C124.548 2.64849 119.998 4.38061 117.006 3.05222C114.007 1.72044 110.038 3.75194 107.118 2.45554C105.024 1.52548 102.048 1.99145 99.6859 1.99145" stroke="#464646" stroke-width="2" stroke-linecap="round"/>
<path d="M69.65 58.085H69.79C72.6133 58.5983 74.025 59.9633 74.025 62.18V62.81C74.025 65.26 72.4617 67.6983 69.335 70.125V70.265C74.3983 74.7917 77.8983 77.055 79.835 77.055C80.185 77.3117 80.36 77.6267 80.36 78C80.36 78.5367 79.9633 78.875 79.17 79.015C77.2333 79.015 73.6167 76.6817 68.32 72.015L66.815 71.21H66.71C67.3633 73.8233 67.69 75.8417 67.69 77.265C67.69 77.8717 67.3167 78.3033 66.57 78.56C65.4967 78.56 64.82 75.935 64.54 70.685C63.7933 68.2583 63.42 66.3217 63.42 64.875V64.56C63.42 62.4367 63.8867 61.375 64.82 61.375L65.485 61.725H65.695C66.815 59.2983 68.1333 58.085 69.65 58.085ZM66.815 67.43L66.71 68.725C68.88 68.725 70.63 66.9283 71.96 63.335V62.04C71.96 61.0133 71.26 60.395 69.86 60.185H69.65C68.18 60.185 67.235 62.6 66.815 67.43ZM84.9986 65.435C85.9319 65.4583 87.5069 67.0917 89.7236 70.335L89.7936 70.93C89.7936 71.5833 88.1953 72.085 84.9986 72.435L84.8936 72.54V72.68C85.3836 74.78 85.8969 75.83 86.4336 75.83H86.8536C87.6003 75.83 88.7319 75.025 90.2486 73.415H90.4586C90.9253 73.415 91.2869 73.7533 91.5436 74.43C91.5436 74.99 90.5636 75.9583 88.6036 77.335C88.0903 77.6383 87.4719 77.86 86.7486 78C84.8586 78 83.5403 76.2267 82.7936 72.68C81.7203 72.5167 81.1836 72.0733 81.1836 71.35C81.1836 70.8367 81.5803 70.4983 82.3736 70.335V70.475L82.7236 70.335V69.46C82.7236 66.7767 83.4819 65.435 84.9986 65.435ZM85.2086 67.955H84.8936L84.7536 69.25V70.335H84.8936C86.2003 70.2883 86.8536 70.1483 86.8536 69.915C86.2469 69.005 85.6986 68.3517 85.2086 67.955ZM99.4336 64.49C100.46 64.49 100.974 64.8983 100.974 65.715L100.659 66.38L100.449 72.785C100.449 75.6783 101.032 77.475 102.199 78.175L102.269 78.7C102.199 79.3767 101.884 79.715 101.324 79.715H101.114C99.3636 78.525 98.4886 76.705 98.4886 74.255H98.2436C97.3103 76.8683 96.1786 78.175 94.8486 78.175C93.612 77.825 92.9936 76.9033 92.9936 75.41C92.9936 72.12 94.312 68.8417 96.9486 65.575C97.8353 64.8517 98.6636 64.49 99.4336 64.49ZM95.1986 74.01L95.0586 74.99V75.655H95.4086C97.1586 71.2917 98.0336 68.6317 98.0336 67.675H97.8936C96.5403 69.1917 95.642 71.3033 95.1986 74.01ZM106.678 66.135L108.113 65.925C108.697 65.925 109.023 66.2867 109.093 67.01C109.093 67.64 108.335 68.0483 106.818 68.235C105.862 68.9817 105.383 69.9383 105.383 71.105V72.26C105.85 74.8267 106.643 76.11 107.763 76.11H108.113C108.767 76.11 109.747 75.4917 111.053 74.255H111.263C111.73 74.255 112.103 74.5817 112.383 75.235C112.057 76.2383 111.007 77.1483 109.233 77.965C108.907 78.105 108.498 78.175 108.008 78.175C105.605 78.175 104.042 76.285 103.318 72.505V71.735C103.318 69.005 104.438 67.1383 106.678 66.135ZM118.278 56.755C118.932 56.895 119.258 57.2217 119.258 57.735L119.048 59.275V59.73C119.048 60.7567 119.165 61.8417 119.398 62.985H119.468C122.175 62.1683 123.855 61.76 124.508 61.76C125.185 61.9467 125.523 62.285 125.523 62.775C125.523 63.5683 124.718 63.965 123.108 63.965L119.468 65.26C119.468 68.41 119.807 72.6917 120.483 78.105C120.343 78.735 120.005 79.05 119.468 79.05H119.398C118.582 79.05 118.173 78 118.173 75.9C117.87 74.3367 117.613 70.9417 117.403 65.715H116.773C114.58 65.575 113.483 65.0617 113.483 64.175C113.483 63.9183 113.728 63.6033 114.218 63.23H114.568L116.178 63.65H117.298L116.983 59.275C116.983 57.595 117.415 56.755 118.278 56.755Z" fill="#464646"/>
<path d="M60.49 115.915L70.99 115.25C71.2933 115.25 71.585 115.542 71.865 116.125C71.865 117.012 70.8383 117.455 68.785 117.455L62.66 117.805L62.52 117.875C63.1033 121.678 63.395 128.9 63.395 139.54C63.2783 140.567 62.905 141.08 62.275 141.08C61.6683 141.08 61.3183 140.613 61.225 139.68V131.56C61.225 126.147 60.98 121.632 60.49 118.015C56.3133 118.412 54.225 118.878 54.225 119.415L53.91 119.555C53.1867 119.345 52.825 118.972 52.825 118.435C52.825 117.152 55.38 116.312 60.49 115.915ZM69.6532 127.5C70.4698 127.5 71.0298 129.297 71.3332 132.89C71.7298 134.547 72.0215 135.375 72.2082 135.375H72.4182C73.0015 133.905 73.2932 132.447 73.2932 131L73.0832 128.585C73.3398 127.955 73.7015 127.64 74.1682 127.64C75.0315 127.64 75.4632 129.168 75.4632 132.225C75.9765 135.398 76.2332 138.35 76.2332 141.08V142.725C76.2332 147.742 74.8098 151.125 71.9632 152.875L71.1932 153.015C69.8632 153.015 68.6265 151.778 67.4832 149.305L67.1682 147.205V147.1C67.1682 145.56 67.5998 144.79 68.4632 144.79L69.3382 145.35L69.2332 147.555C69.2332 148.628 69.7815 149.713 70.8782 150.81H71.3332C72.6165 150.81 73.5615 148.36 74.1682 143.46L74.2382 141.43C74.2148 139.073 74.1215 137.568 73.9582 136.915C73.0248 137.732 72.2898 138.14 71.7532 138.14C70.5632 138.14 69.5015 134.955 68.5682 128.585L68.4632 128.515C68.4632 127.978 68.8598 127.64 69.6532 127.5ZM82.1009 127.605C84.5742 127.605 86.0325 129.157 86.4759 132.26C86.4759 135.013 85.1925 136.985 82.6259 138.175C82.3459 138.315 81.9609 138.385 81.4709 138.385H81.2259L80.4559 138.315V138.385L80.5959 147.73C80.4325 148.453 80.0592 148.815 79.4759 148.815C78.8225 148.605 78.4959 148.267 78.4959 147.8L78.1809 128.76C78.1809 128.153 78.5425 127.838 79.2659 127.815L80.0009 128.13C80.6542 127.78 81.3542 127.605 82.1009 127.605ZM80.3509 131.315L80.2459 132.4L80.3509 136.11L81.3309 136.355C82.8942 136.355 83.9092 135.212 84.3759 132.925V132.4C84.2125 130.557 83.5592 129.635 82.4159 129.635H81.8909C80.8642 129.635 80.3509 130.195 80.3509 131.315ZM91.2681 125.435C92.2015 125.458 93.7765 127.092 95.9931 130.335L96.0631 130.93C96.0631 131.583 94.4648 132.085 91.2681 132.435L91.1631 132.54V132.68C91.6531 134.78 92.1665 135.83 92.7031 135.83H93.1231C93.8698 135.83 95.0015 135.025 96.5181 133.415H96.7281C97.1948 133.415 97.5565 133.753 97.8131 134.43C97.8131 134.99 96.8331 135.958 94.8731 137.335C94.3598 137.638 93.7415 137.86 93.0181 138C91.1281 138 89.8098 136.227 89.0631 132.68C87.9898 132.517 87.4531 132.073 87.4531 131.35C87.4531 130.837 87.8498 130.498 88.6431 130.335V130.475L88.9931 130.335V129.46C88.9931 126.777 89.7515 125.435 91.2681 125.435ZM91.4781 127.955H91.1631L91.0231 129.25V130.335H91.1631C92.4698 130.288 93.1231 130.148 93.1231 129.915C92.5165 129.005 91.9681 128.352 91.4781 127.955ZM109.763 117.28H110.113C110.766 117.28 111.14 117.665 111.233 118.435C111.233 119.112 110.311 119.45 108.468 119.45C105.505 120.57 103.51 122.203 102.483 124.35L102.238 125.365V125.575C102.238 126.602 102.926 127.115 104.303 127.115L108.153 126.905C110.743 126.905 112.493 128.165 113.403 130.685L113.613 131.91C113.613 134.337 111.653 136.553 107.733 138.56C106.566 138.887 105.54 139.108 104.653 139.225C102.273 139.225 100.593 137.883 99.6132 135.2C99.3332 134.29 99.1932 133.368 99.1932 132.435C99.1932 132.155 99.4148 131.863 99.8582 131.56H100.278C101.001 131.56 101.363 132.482 101.363 134.325C101.97 136.145 102.926 137.055 104.233 137.055H105.178C107.068 137.055 108.935 135.958 110.778 133.765C111.268 133.065 111.513 132.307 111.513 131.49C111.513 130.347 110.615 129.542 108.818 129.075H108.678L104.093 129.18C101.55 128.877 100.278 127.827 100.278 126.03L100.138 125.575C100.138 123.172 101.935 120.838 105.528 118.575C107.091 117.712 108.503 117.28 109.763 117.28ZM118.656 126.135L120.091 125.925C120.674 125.925 121.001 126.287 121.071 127.01C121.071 127.64 120.313 128.048 118.796 128.235C117.839 128.982 117.361 129.938 117.361 131.105V132.26C117.828 134.827 118.621 136.11 119.741 136.11H120.091C120.744 136.11 121.724 135.492 123.031 134.255H123.241C123.708 134.255 124.081 134.582 124.361 135.235C124.034 136.238 122.984 137.148 121.211 137.965C120.884 138.105 120.476 138.175 119.986 138.175C117.583 138.175 116.019 136.285 115.296 132.505V131.735C115.296 129.005 116.416 127.138 118.656 126.135ZM130.746 124.21C132.216 124.21 133.091 125.237 133.371 127.29V127.605C133.371 129.868 132.204 131.945 129.871 133.835C131.224 135.165 133.593 135.83 136.976 135.83C137.489 135.993 137.746 136.355 137.746 136.915C137.746 137.545 137.338 137.86 136.521 137.86C134.234 137.86 131.831 137.277 129.311 136.11V137.125C129.311 139.528 128.798 140.73 127.771 140.73C127.048 140.73 126.686 139.342 126.686 136.565V133.835L126.581 132.855L126.826 131.735L126.581 128.375V128.235C126.581 127.605 126.908 127.173 127.561 126.94C128.471 125.12 129.533 124.21 130.746 124.21ZM128.996 131.875C129.673 131.875 130.431 130.662 131.271 128.235V126.73L130.851 126.275H130.536C129.509 126.975 128.996 128.842 128.996 131.875ZM139.329 119.765C140.216 119.952 140.659 120.348 140.659 120.955C140.426 121.608 140.052 121.935 139.539 121.935C138.676 121.772 138.244 121.34 138.244 120.64C138.477 120.057 138.839 119.765 139.329 119.765ZM140.659 124.665C141.032 124.665 141.347 125.003 141.604 125.68L141.289 128.165V129.81C141.289 131.723 141.616 134.232 142.269 137.335C142.036 137.778 141.639 138 141.079 138C140.122 138 139.492 135.2 139.189 129.6V128.375C139.189 125.902 139.679 124.665 140.659 124.665ZM148.375 127.605C150.849 127.605 152.307 129.157 152.75 132.26C152.75 135.013 151.467 136.985 148.9 138.175C148.62 138.315 148.235 138.385 147.745 138.385H147.5L146.73 138.315V138.385L146.87 147.73C146.707 148.453 146.334 148.815 145.75 148.815C145.097 148.605 144.77 148.267 144.77 147.8L144.455 128.76C144.455 128.153 144.817 127.838 145.54 127.815L146.275 128.13C146.929 127.78 147.629 127.605 148.375 127.605ZM146.625 131.315L146.52 132.4L146.625 136.11L147.605 136.355C149.169 136.355 150.184 135.212 150.65 132.925V132.4C150.487 130.557 149.834 129.635 148.69 129.635H148.165C147.139 129.635 146.625 130.195 146.625 131.315ZM158.523 116.755C159.176 116.895 159.503 117.222 159.503 117.735L159.293 119.275V119.73C159.293 120.757 159.409 121.842 159.643 122.985H159.713C162.419 122.168 164.099 121.76 164.753 121.76C165.429 121.947 165.768 122.285 165.768 122.775C165.768 123.568 164.963 123.965 163.353 123.965L159.713 125.26C159.713 128.41 160.051 132.692 160.728 138.105C160.588 138.735 160.249 139.05 159.713 139.05H159.643C158.826 139.05 158.418 138 158.418 135.9C158.114 134.337 157.858 130.942 157.648 125.715H157.018C154.824 125.575 153.728 125.062 153.728 124.175C153.728 123.918 153.973 123.603 154.463 123.23H154.813L156.423 123.65H157.543L157.228 119.275C157.228 117.595 157.659 116.755 158.523 116.755Z" fill="#464646"/>
<path d="M373.406 75.28H373.756C374.41 75.28 374.783 75.665 374.876 76.435C374.876 77.1117 373.955 77.45 372.111 77.45C369.148 78.57 367.153 80.2033 366.126 82.35L365.881 83.365V83.575C365.881 84.6017 366.57 85.115 367.946 85.115L371.796 84.905C374.386 84.905 376.136 86.165 377.046 88.685L377.256 89.91C377.256 92.3367 375.296 94.5533 371.376 96.56C370.21 96.8867 369.183 97.1083 368.296 97.225C365.916 97.225 364.236 95.8833 363.256 93.2C362.976 92.29 362.836 91.3683 362.836 90.435C362.836 90.155 363.058 89.8633 363.501 89.56H363.921C364.645 89.56 365.006 90.4817 365.006 92.325C365.613 94.145 366.57 95.055 367.876 95.055H368.821C370.711 95.055 372.578 93.9583 374.421 91.765C374.911 91.065 375.156 90.3067 375.156 89.49C375.156 88.3467 374.258 87.5417 372.461 87.075H372.321L367.736 87.18C365.193 86.8767 363.921 85.8267 363.921 84.03L363.781 83.575C363.781 81.1717 365.578 78.8383 369.171 76.575C370.735 75.7117 372.146 75.28 373.406 75.28ZM382.859 74.755C383.512 74.895 383.839 75.2217 383.839 75.735L383.629 77.275V77.73C383.629 78.7567 383.746 79.8417 383.979 80.985H384.049C386.756 80.1683 388.436 79.76 389.089 79.76C389.766 79.9467 390.104 80.285 390.104 80.775C390.104 81.5683 389.299 81.965 387.689 81.965L384.049 83.26C384.049 86.41 384.387 90.6917 385.064 96.105C384.924 96.735 384.586 97.05 384.049 97.05H383.979C383.162 97.05 382.754 96 382.754 93.9C382.451 92.3367 382.194 88.9417 381.984 83.715H381.354C379.161 83.575 378.064 83.0617 378.064 82.175C378.064 81.9183 378.309 81.6033 378.799 81.23H379.149L380.759 81.65H381.879L381.564 77.275C381.564 75.595 381.996 74.755 382.859 74.755ZM392.29 85.5C393.107 85.5 393.667 87.2967 393.97 90.89C394.367 92.5467 394.659 93.375 394.845 93.375H395.055C395.639 91.905 395.93 90.4467 395.93 89L395.72 86.585C395.977 85.955 396.339 85.64 396.805 85.64C397.669 85.64 398.1 87.1683 398.1 90.225C398.614 93.3983 398.87 96.35 398.87 99.08V100.725C398.87 105.742 397.447 109.125 394.6 110.875L393.83 111.015C392.5 111.015 391.264 109.778 390.12 107.305L389.805 105.205V105.1C389.805 103.56 390.237 102.79 391.1 102.79L391.975 103.35L391.87 105.555C391.87 106.628 392.419 107.713 393.515 108.81H393.97C395.254 108.81 396.199 106.36 396.805 101.46L396.875 99.43C396.852 97.0733 396.759 95.5683 396.595 94.915C395.662 95.7317 394.927 96.14 394.39 96.14C393.2 96.14 392.139 92.955 391.205 86.585L391.1 86.515C391.1 85.9783 391.497 85.64 392.29 85.5ZM402.428 76.715C403.081 76.9483 403.408 77.31 403.408 77.8L403.758 91.135V95.44C403.758 96.2333 403.42 96.63 402.743 96.63H402.288C401.868 96.35 401.658 96.0233 401.658 95.65V91.59L401.343 77.73C401.343 77.1467 401.705 76.8083 402.428 76.715ZM409.428 83.435C410.361 83.4583 411.936 85.0917 414.153 88.335L414.223 88.93C414.223 89.5833 412.624 90.085 409.428 90.435L409.323 90.54V90.68C409.813 92.78 410.326 93.83 410.863 93.83H411.283C412.029 93.83 413.161 93.025 414.678 91.415H414.888C415.354 91.415 415.716 91.7533 415.973 92.43C415.973 92.99 414.993 93.9583 413.033 95.335C412.519 95.6383 411.901 95.86 411.178 96C409.288 96 407.969 94.2267 407.223 90.68C406.149 90.5167 405.613 90.0733 405.613 89.35C405.613 88.8367 406.009 88.4983 406.803 88.335V88.475L407.153 88.335V87.46C407.153 84.7767 407.911 83.435 409.428 83.435ZM409.638 85.955H409.323L409.183 87.25V88.335H409.323C410.629 88.2883 411.283 88.1483 411.283 87.915C410.676 87.005 410.128 86.3517 409.638 85.955ZM425.543 76.785C425.939 76.785 426.301 77.1583 426.628 77.905L425.088 87.635V90.365C425.088 93.2117 425.531 94.635 426.418 94.635C427.001 94.915 427.293 95.2883 427.293 95.755C427.293 96.2917 426.826 96.6067 425.893 96.7C424.866 96.7 424.061 95.755 423.478 93.865H423.128C422.264 95.755 421.214 96.7 419.978 96.7C418.531 96.7 417.656 95.6033 417.353 93.41C417.353 90.8667 419.056 88.1717 422.463 85.325C423.139 85.325 423.478 84.38 423.478 82.49C423.991 78.6867 424.679 76.785 425.543 76.785ZM419.418 93.13V94.075L419.978 94.635H420.188C420.934 94.635 421.809 92.3833 422.813 87.88H422.603C420.479 90.0033 419.418 91.7533 419.418 93.13ZM340.432 117.835C342.019 117.835 342.941 118.978 343.197 121.265C343.197 123.155 342.754 124.345 341.867 124.835H341.657C340.981 124.788 340.642 124.543 340.642 124.1L340.782 121.475V120.18L340.572 119.935H340.222C339.476 119.935 338.601 122.012 337.597 126.165L337.387 128.79V129.56C337.387 131.987 338.472 133.41 340.642 133.83H342.112C344.539 133.83 347.479 132.267 350.932 129.14H351.072C351.702 129.14 352.064 129.537 352.157 130.33C351.621 131.73 350.991 132.43 350.267 132.43C346.931 134.81 343.932 136 341.272 136C338.612 136 336.734 134.542 335.637 131.625L335.322 129.14V128.685C335.322 125.068 336.337 121.743 338.367 118.71C339.021 118.127 339.709 117.835 340.432 117.835ZM359.087 122.805C360.814 122.805 362.121 124.088 363.007 126.655L363.147 127.39C363.147 129.887 361.981 132.442 359.647 135.055C358.714 135.918 357.769 136.35 356.812 136.35C355.412 136.35 354.421 135.545 353.837 133.935C353.627 133.188 353.522 132.535 353.522 131.975V131.555C353.522 127.868 354.864 125.068 357.547 123.155C358.014 122.922 358.527 122.805 359.087 122.805ZM355.587 131.905C355.587 133.492 355.996 134.285 356.812 134.285C358.516 134.285 359.927 132.103 361.047 127.74V127.075C360.651 125.628 359.916 124.905 358.842 124.905C358.422 124.905 358.212 125.197 358.212 125.78C358.212 126.177 357.746 126.492 356.812 126.725C355.996 128.102 355.587 129.828 355.587 131.905ZM365.258 123.75C365.422 123.167 365.795 122.875 366.378 122.875C366.962 122.875 367.347 123.458 367.533 124.625H367.673L369.283 124.275C370.03 124.275 370.753 124.975 371.453 126.375H371.593C372.62 124.765 373.67 123.96 374.743 123.96C377.03 124.38 378.173 125.873 378.173 128.44L378.243 129.665L377.928 136.735V137.4C377.928 137.983 377.567 138.322 376.843 138.415C376.12 138.415 375.758 137.563 375.758 135.86L376.178 129.525C376.178 127.192 375.63 126.025 374.533 126.025C373.903 126.025 373.145 127.553 372.258 130.61C371.815 134.11 371.453 135.86 371.173 135.86C370.777 135.86 370.578 135.942 370.578 136.105C369.855 136.012 369.493 135.638 369.493 134.985L369.948 130.75C369.878 127.833 369.587 126.375 369.073 126.375H368.968C368.385 126.818 368.093 127.693 368.093 129V130.855L367.953 136.21C367.79 136.793 367.428 137.085 366.868 137.085C366.378 137.085 366.063 136.677 365.923 135.86L365.783 131.73L365.993 128.335C365.853 126.585 365.608 125.057 365.258 123.75ZM384.487 125.605C386.96 125.605 388.418 127.157 388.862 130.26C388.862 133.013 387.578 134.985 385.012 136.175C384.732 136.315 384.347 136.385 383.857 136.385H383.612L382.842 136.315V136.385L382.982 145.73C382.818 146.453 382.445 146.815 381.862 146.815C381.208 146.605 380.882 146.267 380.882 145.8L380.567 126.76C380.567 126.153 380.928 125.838 381.652 125.815L382.387 126.13C383.04 125.78 383.74 125.605 384.487 125.605ZM382.737 129.315L382.632 130.4L382.737 134.11L383.717 134.355C385.28 134.355 386.295 133.212 386.762 130.925V130.4C386.598 128.557 385.945 127.635 384.802 127.635H384.277C383.25 127.635 382.737 128.195 382.737 129.315ZM396.104 122.805C397.831 122.805 399.137 124.088 400.024 126.655L400.164 127.39C400.164 129.887 398.997 132.442 396.664 135.055C395.731 135.918 394.786 136.35 393.829 136.35C392.429 136.35 391.437 135.545 390.854 133.935C390.644 133.188 390.539 132.535 390.539 131.975V131.555C390.539 127.868 391.881 125.068 394.564 123.155C395.031 122.922 395.544 122.805 396.104 122.805ZM392.604 131.905C392.604 133.492 393.012 134.285 393.829 134.285C395.532 134.285 396.944 132.103 398.064 127.74V127.075C397.667 125.628 396.932 124.905 395.859 124.905C395.439 124.905 395.229 125.197 395.229 125.78C395.229 126.177 394.762 126.492 393.829 126.725C393.012 128.102 392.604 129.828 392.604 131.905ZM406.265 124.205C408.248 124.368 409.24 125.337 409.24 127.11L409.31 127.565L409.24 133.025C409.24 133.655 409.601 134.507 410.325 135.58V135.65C410.138 136.327 409.8 136.665 409.31 136.665C407.863 136.058 407.14 134.775 407.14 132.815V132.36L407.035 132.29L407.14 132.15V132.08L407.245 127.25C407.245 126.573 406.953 126.235 406.37 126.235H405.95C404.783 126.702 404.2 129.257 404.2 133.9C404.2 135.51 403.791 136.315 402.975 136.315C402.345 136.315 402.018 135.918 401.995 135.125V131.625C401.995 127.098 402.391 124.835 403.185 124.835L403.535 124.73L404.27 124.835C404.9 124.415 405.565 124.205 406.265 124.205ZM414.572 123.435C415.505 123.458 417.08 125.092 419.297 128.335L419.367 128.93C419.367 129.583 417.769 130.085 414.572 130.435L414.467 130.54V130.68C414.957 132.78 415.47 133.83 416.007 133.83H416.427C417.174 133.83 418.305 133.025 419.822 131.415H420.032C420.499 131.415 420.86 131.753 421.117 132.43C421.117 132.99 420.137 133.958 418.177 135.335C417.664 135.638 417.045 135.86 416.322 136C414.432 136 413.114 134.227 412.367 130.68C411.294 130.517 410.757 130.073 410.757 129.35C410.757 128.837 411.154 128.498 411.947 128.335V128.475L412.297 128.335V127.46C412.297 124.777 413.055 123.435 414.572 123.435ZM414.782 125.955H414.467L414.327 127.25V128.335H414.467C415.774 128.288 416.427 128.148 416.427 127.915C415.82 127.005 415.272 126.352 414.782 125.955ZM427.012 124.205C428.995 124.368 429.987 125.337 429.987 127.11L430.057 127.565L429.987 133.025C429.987 133.655 430.349 134.507 431.072 135.58V135.65C430.885 136.327 430.547 136.665 430.057 136.665C428.61 136.058 427.887 134.775 427.887 132.815V132.36L427.782 132.29L427.887 132.15V132.08L427.992 127.25C427.992 126.573 427.7 126.235 427.117 126.235H426.697C425.53 126.702 424.947 129.257 424.947 133.9C424.947 135.51 424.539 136.315 423.722 136.315C423.092 136.315 422.765 135.918 422.742 135.125V131.625C422.742 127.098 423.139 124.835 423.932 124.835L424.282 124.73L425.017 124.835C425.647 124.415 426.312 124.205 427.012 124.205ZM436.299 114.755C436.952 114.895 437.279 115.222 437.279 115.735L437.069 117.275V117.73C437.069 118.757 437.186 119.842 437.419 120.985H437.489C440.196 120.168 441.876 119.76 442.529 119.76C443.206 119.947 443.544 120.285 443.544 120.775C443.544 121.568 442.739 121.965 441.129 121.965L437.489 123.26C437.489 126.41 437.827 130.692 438.504 136.105C438.364 136.735 438.026 137.05 437.489 137.05H437.419C436.602 137.05 436.194 136 436.194 133.9C435.891 132.337 435.634 128.942 435.424 123.715H434.794C432.601 123.575 431.504 123.062 431.504 122.175C431.504 121.918 431.749 121.603 432.239 121.23H432.589L434.199 121.65H435.319L435.004 117.275C435.004 115.595 435.436 114.755 436.299 114.755ZM451.645 121.825C452.275 121.825 452.707 122.887 452.94 125.01C452.707 125.593 452.322 125.885 451.785 125.885C451.412 125.815 451.039 125.383 450.665 124.59L450.035 124.38C448.939 124.38 447.947 125.103 447.06 126.55V126.865C447.06 127.215 448.705 127.798 451.995 128.615C453.372 129.432 454.06 130.423 454.06 131.59C454.06 133.503 452.52 135.137 449.44 136.49L448.145 136.7C446.185 136.49 445.205 135.51 445.205 133.76V133.655C445.205 133.095 445.567 132.768 446.29 132.675C446.85 132.675 447.224 133.258 447.41 134.425L447.69 134.635H448.285C449.615 134.635 450.852 133.725 451.995 131.905V131.45C451.995 130.75 450.467 130.097 447.41 129.49C445.8 128.837 444.995 127.927 444.995 126.76C444.995 125.243 446.267 123.82 448.81 122.49C449.93 122.35 450.875 122.128 451.645 121.825Z" fill="#464646"/>
<path d="M717 103C717 97.6904 717 92.4111 717 87" stroke="#464646" stroke-width="3" stroke-linecap="round"/>
<path d="M686.677 97.4955C686.309 92.7055 686.746 87.8815 686.372 82.9999" stroke="#464646" stroke-width="3" stroke-linecap="round"/>
<path d="M660 107C660.578 107.653 660.881 108.924 661.117 109.766C662.237 113.759 664.717 117.207 667.06 120.554C673.851 130.255 683.571 137.994 694.899 141.479C699.64 142.937 704.921 143.462 709.832 142.543C712.009 142.136 714.151 141.753 716.188 140.87C717.774 140.182 719.162 139.119 720.697 138.311C723.896 136.627 726.737 133.732 729.246 131.147C730.378 129.981 731.044 128.389 731.962 127.054C732.336 126.51 733.172 125.784 732.969 125.173" stroke="#464646" stroke-width="3" stroke-linecap="round"/>
</svg>
