<svg width="776" height="234" viewBox="0 0 776 234" fill="none" xmlns="http://www.w3.org/2000/svg">
<rect width="191" height="160" rx="25" transform="matrix(-1 0 0 1 402 44)" fill="url(#paint0_linear_2_110)" fill-opacity="0.09"/>
<path d="M219.33 200.807C213.105 201.758 212.332 177.14 212.315 168.542C212.27 143.061 209.427 86.1695 212.243 64.7385C215.266 41.7323 242.497 45.9909 254.111 45.2514C289.023 43.0277 322.487 44.7654 359.663 44.7339C368.876 44.7252 378.475 42.7812 387.559 45.2566C396.701 47.7461 399.619 57.8401 400.571 72.5494C401.279 83.4633 401.735 140.987 401.947 158.76C402.049 167.313 402.302 189.057 399.281 195.753C394.867 205.545 383.358 203.905 378.424 203.886C367.543 203.842 252.207 203.496 222.81 200.748" stroke="#2C2C2C" stroke-width="2" stroke-miterlimit="1.5" stroke-linecap="round" stroke-linejoin="round"/>
<rect x="421" y="44" width="191" height="160" rx="25" fill="url(#paint1_linear_2_110)" fill-opacity="0.09"/>
<path d="M603.67 200.807C609.895 201.758 610.668 177.14 610.685 168.542C610.73 143.061 613.573 86.1695 610.757 64.7385C607.734 41.7323 580.503 45.9909 568.889 45.2514C533.977 43.0277 500.513 44.7654 463.337 44.7339C454.124 44.7252 444.525 42.7812 435.441 45.2566C426.299 47.7461 423.381 57.8401 422.429 72.5494C421.721 83.4633 421.265 140.987 421.053 158.76C420.951 167.313 420.698 189.057 423.719 195.753C428.133 205.545 439.642 203.905 444.576 203.886C455.457 203.842 570.793 203.496 600.19 200.748" stroke="#464646" stroke-width="2" stroke-miterlimit="1.5" stroke-linecap="round" stroke-linejoin="round"/>
<rect x="1" y="44" width="191" height="160" rx="25" fill="url(#paint2_linear_2_110)" fill-opacity="0.09"/>
<path d="M183.67 200.807C189.895 201.758 190.668 177.14 190.685 168.542C190.73 143.061 193.573 86.1695 190.757 64.7385C187.734 41.7323 160.503 45.9909 148.889 45.2514C113.977 43.0277 80.5127 44.7654 43.3367 44.7339C34.1244 44.7252 24.5254 42.7812 15.441 45.2566C6.29884 47.7461 3.38139 57.8401 2.4285 72.5494C1.72106 83.4633 1.26524 140.987 1.0528 158.76C0.950702 167.313 0.698042 189.057 3.71861 195.753C8.13345 205.545 19.6424 203.905 24.5759 203.886C35.4568 203.842 150.793 203.496 180.19 200.748" stroke="#2C2C2C" stroke-width="2" stroke-miterlimit="1.5" stroke-linecap="round" stroke-linejoin="round"/>
<rect x="10" y="155" width="172" height="41" rx="10" fill="#F6F3D4" fill-opacity="0.8"/>
<path d="M49.14 99.005H49.7C53.5033 99.005 55.9417 100.382 57.015 103.135L57.12 104.255V104.605C57.12 107.312 55.475 109.82 52.185 112.13C51.3917 112.363 50.995 112.62 50.995 112.9C51.9283 116.47 52.395 119.387 52.395 121.65V122.105C52.395 123.038 52.01 123.505 51.24 123.505C50.6567 123.435 50.365 123.143 50.365 122.63V121.755C50.365 119.072 49.875 116.155 48.895 113.005C47.005 112.842 45.955 112.328 45.745 111.465V111.255C45.745 110.835 46.0717 110.508 46.725 110.275L48.265 110.8V110.73C47.4717 107.277 47.075 104.943 47.075 103.73C47.075 103.053 47.4717 102.715 48.265 102.715C48.9883 102.715 49.35 103.952 49.35 106.425L50.365 110.59C52.045 110.03 53.3517 108.933 54.285 107.3C54.775 106.367 55.02 105.538 55.02 104.815V104.36C55.02 102.447 53.3867 101.362 50.12 101.105H48.685C45.4883 101.455 43.89 102.213 43.89 103.38V103.59C43.89 103.94 44.0767 104.488 44.45 105.235C44.45 105.748 44.0417 106.075 43.225 106.215C42.2917 105.772 41.825 104.862 41.825 103.485C41.825 100.918 44.2633 99.425 49.14 99.005ZM63.2127 108.21C64.6827 108.21 65.5577 109.237 65.8377 111.29V111.605C65.8377 113.868 64.6711 115.945 62.3377 117.835C63.6911 119.165 66.0594 119.83 69.4427 119.83C69.9561 119.993 70.2127 120.355 70.2127 120.915C70.2127 121.545 69.8044 121.86 68.9877 121.86C66.7011 121.86 64.2977 121.277 61.7777 120.11V121.125C61.7777 123.528 61.2644 124.73 60.2377 124.73C59.5144 124.73 59.1527 123.342 59.1527 120.565V117.835L59.0477 116.855L59.2927 115.735L59.0477 112.375V112.235C59.0477 111.605 59.3744 111.173 60.0277 110.94C60.9377 109.12 61.9994 108.21 63.2127 108.21ZM61.4627 115.875C62.1394 115.875 62.8977 114.662 63.7377 112.235V110.73L63.3177 110.275H63.0027C61.9761 110.975 61.4627 112.842 61.4627 115.875ZM76.9759 108.805C78.7026 108.805 80.0093 110.088 80.8959 112.655L81.0359 113.39C81.0359 115.887 79.8693 118.442 77.5359 121.055C76.6026 121.918 75.6576 122.35 74.7009 122.35C73.3009 122.35 72.3093 121.545 71.7259 119.935C71.5159 119.188 71.4109 118.535 71.4109 117.975V117.555C71.4109 113.868 72.7526 111.068 75.4359 109.155C75.9026 108.922 76.4159 108.805 76.9759 108.805ZM73.4759 117.905C73.4759 119.492 73.8843 120.285 74.7009 120.285C76.4043 120.285 77.8159 118.103 78.9359 113.74V113.075C78.5393 111.628 77.8043 110.905 76.7309 110.905C76.3109 110.905 76.1009 111.197 76.1009 111.78C76.1009 112.177 75.6343 112.492 74.7009 112.725C73.8843 114.102 73.4759 115.828 73.4759 117.905ZM84.4069 110.03C85.1302 110.263 85.4919 110.8 85.4919 111.64C85.4919 112.13 85.1652 112.422 84.5119 112.515H84.4069C83.7302 112.515 83.3685 112.072 83.3219 111.185V110.975C83.3219 110.368 83.6835 110.053 84.4069 110.03ZM84.6169 113.74C84.9435 113.74 85.3169 114.055 85.7369 114.685C85.5035 115.315 85.3869 116.167 85.3869 117.24L86.2619 126.06V127.075C86.2619 130.132 85.5269 132.057 84.0569 132.85L83.3219 132.99C81.7119 132.99 80.4752 131.38 79.6119 128.16L79.3669 126.305V126.2C79.3669 125.383 79.7402 124.975 80.4869 124.975C81.1169 124.975 81.4319 125.617 81.4319 126.9C81.4319 128.207 81.9919 129.502 83.1119 130.785L83.3919 130.89C83.9285 129.933 84.1969 128.813 84.1969 127.53V126.06L83.3219 117.31C83.3219 114.93 83.7535 113.74 84.6169 113.74ZM90.898 109.435C91.8313 109.458 93.4063 111.092 95.623 114.335L95.693 114.93C95.693 115.583 94.0947 116.085 90.898 116.435L90.793 116.54V116.68C91.283 118.78 91.7963 119.83 92.333 119.83H92.753C93.4997 119.83 94.6313 119.025 96.148 117.415H96.358C96.8247 117.415 97.1863 117.753 97.443 118.43C97.443 118.99 96.463 119.958 94.503 121.335C93.9897 121.638 93.3713 121.86 92.648 122C90.758 122 89.4397 120.227 88.693 116.68C87.6197 116.517 87.083 116.073 87.083 115.35C87.083 114.837 87.4797 114.498 88.273 114.335V114.475L88.623 114.335V113.46C88.623 110.777 89.3813 109.435 90.898 109.435ZM91.108 111.955H90.793L90.653 113.25V114.335H90.793C92.0997 114.288 92.753 114.148 92.753 113.915C92.1463 113.005 91.598 112.352 91.108 111.955ZM102.358 110.135L103.793 109.925C104.376 109.925 104.703 110.287 104.773 111.01C104.773 111.64 104.015 112.048 102.498 112.235C101.541 112.982 101.063 113.938 101.063 115.105V116.26C101.53 118.827 102.323 120.11 103.443 120.11H103.793C104.446 120.11 105.426 119.492 106.733 118.255H106.943C107.41 118.255 107.783 118.582 108.063 119.235C107.736 120.238 106.686 121.148 104.913 121.965C104.586 122.105 104.178 122.175 103.688 122.175C101.285 122.175 99.7214 120.285 98.998 116.505V115.735C98.998 113.005 100.118 111.138 102.358 110.135ZM113.958 100.755C114.611 100.895 114.938 101.222 114.938 101.735L114.728 103.275V103.73C114.728 104.757 114.845 105.842 115.078 106.985H115.148C117.855 106.168 119.535 105.76 120.188 105.76C120.865 105.947 121.203 106.285 121.203 106.775C121.203 107.568 120.398 107.965 118.788 107.965L115.148 109.26C115.148 112.41 115.486 116.692 116.163 122.105C116.023 122.735 115.685 123.05 115.148 123.05H115.078C114.261 123.05 113.853 122 113.853 119.9C113.55 118.337 113.293 114.942 113.083 109.715H112.453C110.26 109.575 109.163 109.062 109.163 108.175C109.163 107.918 109.408 107.603 109.898 107.23H110.248L111.858 107.65H112.978L112.663 103.275C112.663 101.595 113.095 100.755 113.958 100.755ZM136.058 105.06C136.198 104.477 136.618 104.185 137.318 104.185C138.018 104.185 138.368 105.678 138.368 108.665L138.473 110.555L138.158 121.58C137.995 122.303 137.633 122.665 137.073 122.665C136.396 122.408 136.058 122.047 136.058 121.58L136.408 110.765L136.058 105.06Z" fill="#464646"/>
<path d="M259.14 99.005H259.7C263.503 99.005 265.942 100.382 267.015 103.135L267.12 104.255V104.605C267.12 107.312 265.475 109.82 262.185 112.13C261.392 112.363 260.995 112.62 260.995 112.9C261.928 116.47 262.395 119.387 262.395 121.65V122.105C262.395 123.038 262.01 123.505 261.24 123.505C260.657 123.435 260.365 123.143 260.365 122.63V121.755C260.365 119.072 259.875 116.155 258.895 113.005C257.005 112.842 255.955 112.328 255.745 111.465V111.255C255.745 110.835 256.072 110.508 256.725 110.275L258.265 110.8V110.73C257.472 107.277 257.075 104.943 257.075 103.73C257.075 103.053 257.472 102.715 258.265 102.715C258.988 102.715 259.35 103.952 259.35 106.425L260.365 110.59C262.045 110.03 263.352 108.933 264.285 107.3C264.775 106.367 265.02 105.538 265.02 104.815V104.36C265.02 102.447 263.387 101.362 260.12 101.105H258.685C255.488 101.455 253.89 102.213 253.89 103.38V103.59C253.89 103.94 254.077 104.488 254.45 105.235C254.45 105.748 254.042 106.075 253.225 106.215C252.292 105.772 251.825 104.862 251.825 103.485C251.825 100.918 254.263 99.425 259.14 99.005ZM273.213 108.21C274.683 108.21 275.558 109.237 275.838 111.29V111.605C275.838 113.868 274.671 115.945 272.338 117.835C273.691 119.165 276.059 119.83 279.443 119.83C279.956 119.993 280.213 120.355 280.213 120.915C280.213 121.545 279.804 121.86 278.988 121.86C276.701 121.86 274.298 121.277 271.778 120.11V121.125C271.778 123.528 271.264 124.73 270.238 124.73C269.514 124.73 269.153 123.342 269.153 120.565V117.835L269.048 116.855L269.293 115.735L269.048 112.375V112.235C269.048 111.605 269.374 111.173 270.028 110.94C270.938 109.12 271.999 108.21 273.213 108.21ZM271.463 115.875C272.139 115.875 272.898 114.662 273.738 112.235V110.73L273.318 110.275H273.003C271.976 110.975 271.463 112.842 271.463 115.875ZM286.976 108.805C288.703 108.805 290.009 110.088 290.896 112.655L291.036 113.39C291.036 115.887 289.869 118.442 287.536 121.055C286.603 121.918 285.658 122.35 284.701 122.35C283.301 122.35 282.309 121.545 281.726 119.935C281.516 119.188 281.411 118.535 281.411 117.975V117.555C281.411 113.868 282.753 111.068 285.436 109.155C285.903 108.922 286.416 108.805 286.976 108.805ZM283.476 117.905C283.476 119.492 283.884 120.285 284.701 120.285C286.404 120.285 287.816 118.103 288.936 113.74V113.075C288.539 111.628 287.804 110.905 286.731 110.905C286.311 110.905 286.101 111.197 286.101 111.78C286.101 112.177 285.634 112.492 284.701 112.725C283.884 114.102 283.476 115.828 283.476 117.905ZM294.407 110.03C295.13 110.263 295.492 110.8 295.492 111.64C295.492 112.13 295.165 112.422 294.512 112.515H294.407C293.73 112.515 293.369 112.072 293.322 111.185V110.975C293.322 110.368 293.684 110.053 294.407 110.03ZM294.617 113.74C294.944 113.74 295.317 114.055 295.737 114.685C295.504 115.315 295.387 116.167 295.387 117.24L296.262 126.06V127.075C296.262 130.132 295.527 132.057 294.057 132.85L293.322 132.99C291.712 132.99 290.475 131.38 289.612 128.16L289.367 126.305V126.2C289.367 125.383 289.74 124.975 290.487 124.975C291.117 124.975 291.432 125.617 291.432 126.9C291.432 128.207 291.992 129.502 293.112 130.785L293.392 130.89C293.929 129.933 294.197 128.813 294.197 127.53V126.06L293.322 117.31C293.322 114.93 293.754 113.74 294.617 113.74ZM300.898 109.435C301.831 109.458 303.406 111.092 305.623 114.335L305.693 114.93C305.693 115.583 304.095 116.085 300.898 116.435L300.793 116.54V116.68C301.283 118.78 301.796 119.83 302.333 119.83H302.753C303.5 119.83 304.631 119.025 306.148 117.415H306.358C306.825 117.415 307.186 117.753 307.443 118.43C307.443 118.99 306.463 119.958 304.503 121.335C303.99 121.638 303.371 121.86 302.648 122C300.758 122 299.44 120.227 298.693 116.68C297.62 116.517 297.083 116.073 297.083 115.35C297.083 114.837 297.48 114.498 298.273 114.335V114.475L298.623 114.335V113.46C298.623 110.777 299.381 109.435 300.898 109.435ZM301.108 111.955H300.793L300.653 113.25V114.335H300.793C302.1 114.288 302.753 114.148 302.753 113.915C302.146 113.005 301.598 112.352 301.108 111.955ZM312.358 110.135L313.793 109.925C314.376 109.925 314.703 110.287 314.773 111.01C314.773 111.64 314.015 112.048 312.498 112.235C311.541 112.982 311.063 113.938 311.063 115.105V116.26C311.53 118.827 312.323 120.11 313.443 120.11H313.793C314.446 120.11 315.426 119.492 316.733 118.255H316.943C317.41 118.255 317.783 118.582 318.063 119.235C317.736 120.238 316.686 121.148 314.913 121.965C314.586 122.105 314.178 122.175 313.688 122.175C311.285 122.175 309.721 120.285 308.998 116.505V115.735C308.998 113.005 310.118 111.138 312.358 110.135ZM323.958 100.755C324.611 100.895 324.938 101.222 324.938 101.735L324.728 103.275V103.73C324.728 104.757 324.845 105.842 325.078 106.985H325.148C327.855 106.168 329.535 105.76 330.188 105.76C330.865 105.947 331.203 106.285 331.203 106.775C331.203 107.568 330.398 107.965 328.788 107.965L325.148 109.26C325.148 112.41 325.486 116.692 326.163 122.105C326.023 122.735 325.685 123.05 325.148 123.05H325.078C324.261 123.05 323.853 122 323.853 119.9C323.55 118.337 323.293 114.942 323.083 109.715H322.453C320.26 109.575 319.163 109.062 319.163 108.175C319.163 107.918 319.408 107.603 319.898 107.23H320.248L321.858 107.65H322.978L322.663 103.275C322.663 101.595 323.095 100.755 323.958 100.755ZM351.343 103.1C353.14 103.1 354.19 104.372 354.493 106.915C354.493 109.272 352.65 113.833 348.963 120.6V120.81C349.92 120.81 351.961 119.97 355.088 118.29H355.158C355.625 118.29 355.986 118.628 356.243 119.305C356.243 120.495 353.035 121.953 346.618 123.68C346.245 123.68 345.93 123.342 345.673 122.665C346.583 120.588 348.356 117.088 350.993 112.165C351.88 109.785 352.323 108.175 352.323 107.335V106.25C352.323 105.783 352.078 105.422 351.588 105.165H351.133C350.223 105.165 349.348 106.262 348.508 108.455L348.613 108.875C348.613 109.318 348.286 109.68 347.633 109.96C346.77 109.797 346.338 109.365 346.338 108.665C346.338 107.335 347.353 105.702 349.383 103.765C349.966 103.322 350.62 103.1 351.343 103.1Z" fill="#464646"/>
<path d="M474.14 99.005H474.7C478.503 99.005 480.942 100.382 482.015 103.135L482.12 104.255V104.605C482.12 107.312 480.475 109.82 477.185 112.13C476.392 112.363 475.995 112.62 475.995 112.9C476.928 116.47 477.395 119.387 477.395 121.65V122.105C477.395 123.038 477.01 123.505 476.24 123.505C475.657 123.435 475.365 123.143 475.365 122.63V121.755C475.365 119.072 474.875 116.155 473.895 113.005C472.005 112.842 470.955 112.328 470.745 111.465V111.255C470.745 110.835 471.072 110.508 471.725 110.275L473.265 110.8V110.73C472.472 107.277 472.075 104.943 472.075 103.73C472.075 103.053 472.472 102.715 473.265 102.715C473.988 102.715 474.35 103.952 474.35 106.425L475.365 110.59C477.045 110.03 478.352 108.933 479.285 107.3C479.775 106.367 480.02 105.538 480.02 104.815V104.36C480.02 102.447 478.387 101.362 475.12 101.105H473.685C470.488 101.455 468.89 102.213 468.89 103.38V103.59C468.89 103.94 469.077 104.488 469.45 105.235C469.45 105.748 469.042 106.075 468.225 106.215C467.292 105.772 466.825 104.862 466.825 103.485C466.825 100.918 469.263 99.425 474.14 99.005ZM488.213 108.21C489.683 108.21 490.558 109.237 490.838 111.29V111.605C490.838 113.868 489.671 115.945 487.338 117.835C488.691 119.165 491.059 119.83 494.443 119.83C494.956 119.993 495.213 120.355 495.213 120.915C495.213 121.545 494.804 121.86 493.988 121.86C491.701 121.86 489.298 121.277 486.778 120.11V121.125C486.778 123.528 486.264 124.73 485.238 124.73C484.514 124.73 484.153 123.342 484.153 120.565V117.835L484.048 116.855L484.293 115.735L484.048 112.375V112.235C484.048 111.605 484.374 111.173 485.028 110.94C485.938 109.12 486.999 108.21 488.213 108.21ZM486.463 115.875C487.139 115.875 487.898 114.662 488.738 112.235V110.73L488.318 110.275H488.003C486.976 110.975 486.463 112.842 486.463 115.875ZM501.976 108.805C503.703 108.805 505.009 110.088 505.896 112.655L506.036 113.39C506.036 115.887 504.869 118.442 502.536 121.055C501.603 121.918 500.658 122.35 499.701 122.35C498.301 122.35 497.309 121.545 496.726 119.935C496.516 119.188 496.411 118.535 496.411 117.975V117.555C496.411 113.868 497.753 111.068 500.436 109.155C500.903 108.922 501.416 108.805 501.976 108.805ZM498.476 117.905C498.476 119.492 498.884 120.285 499.701 120.285C501.404 120.285 502.816 118.103 503.936 113.74V113.075C503.539 111.628 502.804 110.905 501.731 110.905C501.311 110.905 501.101 111.197 501.101 111.78C501.101 112.177 500.634 112.492 499.701 112.725C498.884 114.102 498.476 115.828 498.476 117.905ZM509.407 110.03C510.13 110.263 510.492 110.8 510.492 111.64C510.492 112.13 510.165 112.422 509.512 112.515H509.407C508.73 112.515 508.369 112.072 508.322 111.185V110.975C508.322 110.368 508.684 110.053 509.407 110.03ZM509.617 113.74C509.944 113.74 510.317 114.055 510.737 114.685C510.504 115.315 510.387 116.167 510.387 117.24L511.262 126.06V127.075C511.262 130.132 510.527 132.057 509.057 132.85L508.322 132.99C506.712 132.99 505.475 131.38 504.612 128.16L504.367 126.305V126.2C504.367 125.383 504.74 124.975 505.487 124.975C506.117 124.975 506.432 125.617 506.432 126.9C506.432 128.207 506.992 129.502 508.112 130.785L508.392 130.89C508.929 129.933 509.197 128.813 509.197 127.53V126.06L508.322 117.31C508.322 114.93 508.754 113.74 509.617 113.74ZM515.898 109.435C516.831 109.458 518.406 111.092 520.623 114.335L520.693 114.93C520.693 115.583 519.095 116.085 515.898 116.435L515.793 116.54V116.68C516.283 118.78 516.796 119.83 517.333 119.83H517.753C518.5 119.83 519.631 119.025 521.148 117.415H521.358C521.825 117.415 522.186 117.753 522.443 118.43C522.443 118.99 521.463 119.958 519.503 121.335C518.99 121.638 518.371 121.86 517.648 122C515.758 122 514.44 120.227 513.693 116.68C512.62 116.517 512.083 116.073 512.083 115.35C512.083 114.837 512.48 114.498 513.273 114.335V114.475L513.623 114.335V113.46C513.623 110.777 514.381 109.435 515.898 109.435ZM516.108 111.955H515.793L515.653 113.25V114.335H515.793C517.1 114.288 517.753 114.148 517.753 113.915C517.146 113.005 516.598 112.352 516.108 111.955ZM527.358 110.135L528.793 109.925C529.376 109.925 529.703 110.287 529.773 111.01C529.773 111.64 529.015 112.048 527.498 112.235C526.541 112.982 526.063 113.938 526.063 115.105V116.26C526.53 118.827 527.323 120.11 528.443 120.11H528.793C529.446 120.11 530.426 119.492 531.733 118.255H531.943C532.41 118.255 532.783 118.582 533.063 119.235C532.736 120.238 531.686 121.148 529.913 121.965C529.586 122.105 529.178 122.175 528.688 122.175C526.285 122.175 524.721 120.285 523.998 116.505V115.735C523.998 113.005 525.118 111.138 527.358 110.135ZM538.958 100.755C539.611 100.895 539.938 101.222 539.938 101.735L539.728 103.275V103.73C539.728 104.757 539.845 105.842 540.078 106.985H540.148C542.855 106.168 544.535 105.76 545.188 105.76C545.865 105.947 546.203 106.285 546.203 106.775C546.203 107.568 545.398 107.965 543.788 107.965L540.148 109.26C540.148 112.41 540.486 116.692 541.163 122.105C541.023 122.735 540.685 123.05 540.148 123.05H540.078C539.261 123.05 538.853 122 538.853 119.9C538.55 118.337 538.293 114.942 538.083 109.715H537.453C535.26 109.575 534.163 109.062 534.163 108.175C534.163 107.918 534.408 107.603 534.898 107.23H535.248L536.858 107.65H537.978L537.663 103.275C537.663 101.595 538.095 100.755 538.958 100.755ZM565.363 103.275C566.833 103.275 567.743 104.22 568.093 106.11C567.93 107.253 567.673 108.233 567.323 109.05V109.19C568.816 109.19 569.948 110.24 570.718 112.34L570.823 113.635C570.59 116.458 569.026 119.492 566.133 122.735C564.826 123.622 563.881 124.065 563.298 124.065C561.408 123.575 560.463 122.922 560.463 122.105C560.556 121.778 560.801 121.487 561.198 121.23H561.863C562.4 121.65 562.808 121.86 563.088 121.86H563.158C564.978 121.86 566.798 119.457 568.618 114.65L568.758 113.635V113.425C568.758 111.978 568.245 111.255 567.218 111.255C566.121 111.255 565.328 111.757 564.838 112.76C563.811 113.927 563.03 114.592 562.493 114.755C562.19 114.755 561.828 114.428 561.408 113.775C561.408 112.842 562.47 111.488 564.593 109.715C565.526 108.082 565.993 106.845 565.993 106.005C565.853 105.585 565.643 105.328 565.363 105.235C564.36 105.235 563.31 106.553 562.213 109.19L561.408 109.4C560.778 109.26 560.463 108.968 560.463 108.525C561.583 105.025 563.216 103.275 565.363 103.275Z" fill="#4F4F4F"/>
<path d="M47.63 164.22C48.65 164.22 49.25 164.59 49.43 165.33C49.43 165.63 49.14 165.95 48.56 166.29L47.57 166.02H47.45C46.33 166.02 45.05 167.61 43.61 170.79C43.41 171.57 43.31 172.32 43.31 173.04V174.27H43.43C45.87 173.69 47.43 173.4 48.11 173.4C48.99 173.56 49.43 173.91 49.43 174.45C49.25 175.01 48.96 175.29 48.56 175.29L48.02 175.2C45.98 175.38 44.48 175.69 43.52 176.13V176.34L43.88 181.2C43.88 183.5 43.42 184.65 42.5 184.65C42.18 184.65 41.89 184.4 41.63 183.9C41.95 183.08 42.11 182.05 42.11 180.81C42.11 179.55 41.99 178.12 41.75 176.52L40.31 176.7C39.01 176.58 38.36 176.17 38.36 175.47C38.56 174.91 38.88 174.63 39.32 174.63L40.07 174.84H40.61L41.57 174.72V173.04C41.57 169.94 42.94 167.22 45.68 164.88C46.3 164.44 46.95 164.22 47.63 164.22ZM53.4868 172.23C54.2868 172.25 55.6368 173.65 57.5368 176.43L57.5968 176.94C57.5968 177.5 56.2268 177.93 53.4868 178.23L53.3968 178.32V178.44C53.8168 180.24 54.2568 181.14 54.7168 181.14H55.0768C55.7168 181.14 56.6868 180.45 57.9868 179.07H58.1668C58.5668 179.07 58.8768 179.36 59.0968 179.94C59.0968 180.42 58.2568 181.25 56.5768 182.43C56.1368 182.69 55.6068 182.88 54.9868 183C53.3668 183 52.2368 181.48 51.5968 178.44C50.6768 178.3 50.2168 177.92 50.2168 177.3C50.2168 176.86 50.5568 176.57 51.2368 176.43V176.55L51.5368 176.43V175.68C51.5368 173.38 52.1868 172.23 53.4868 172.23ZM53.6668 174.39H53.3968L53.2768 175.5V176.43H53.3968C54.5168 176.39 55.0768 176.27 55.0768 176.07C54.5568 175.29 54.0868 174.73 53.6668 174.39ZM65.8597 171.42C66.7397 171.42 67.1797 171.77 67.1797 172.47L66.9097 173.04L66.7297 178.53C66.7297 181.01 67.2297 182.55 68.2297 183.15L68.2897 183.6C68.2297 184.18 67.9597 184.47 67.4797 184.47H67.2997C65.7997 183.45 65.0497 181.89 65.0497 179.79H64.8397C64.0397 182.03 63.0697 183.15 61.9297 183.15C60.8697 182.85 60.3397 182.06 60.3397 180.78C60.3397 177.96 61.4697 175.15 63.7297 172.35C64.4897 171.73 65.1997 171.42 65.8597 171.42ZM62.2297 179.58L62.1097 180.42V180.99H62.4097C63.9097 177.25 64.6597 174.97 64.6597 174.15H64.5397C63.3797 175.45 62.6097 177.26 62.2297 179.58ZM72.5495 164.79C73.1095 164.91 73.3895 165.19 73.3895 165.63L73.2095 166.95V167.34C73.2095 168.22 73.3095 169.15 73.5095 170.13H73.5695C75.8895 169.43 77.3295 169.08 77.8895 169.08C78.4695 169.24 78.7595 169.53 78.7595 169.95C78.7595 170.63 78.0695 170.97 76.6895 170.97L73.5695 172.08C73.5695 174.78 73.8595 178.45 74.4395 183.09C74.3195 183.63 74.0295 183.9 73.5695 183.9H73.5095C72.8095 183.9 72.4595 183 72.4595 181.2C72.1995 179.86 71.9795 176.95 71.7995 172.47H71.2595C69.3795 172.35 68.4395 171.91 68.4395 171.15C68.4395 170.93 68.6495 170.66 69.0695 170.34H69.3695L70.7495 170.7H71.7095L71.4395 166.95C71.4395 165.51 71.8095 164.79 72.5495 164.79ZM80.8735 173.97L81.4135 173.67C81.8935 173.67 82.2435 173.96 82.4635 174.54C82.1435 176.02 81.9835 177.54 81.9835 179.1C81.9835 179.88 82.2135 180.73 82.6735 181.65H82.8535C83.4335 181.65 84.1235 179.36 84.9235 174.78C85.2035 174.54 85.4735 174.42 85.7335 174.42C86.3535 174.42 86.6635 175.52 86.6635 177.72C86.9235 180.14 87.2135 181.35 87.5335 181.35L87.9835 181.17C88.5635 181.39 88.8535 181.7 88.8535 182.1C88.4935 182.86 87.9935 183.24 87.3535 183.24C86.6335 183.24 85.9435 182.52 85.2835 181.08C84.4835 182.76 83.6735 183.6 82.8535 183.6C81.6335 183.6 80.7835 182.33 80.3035 179.79L80.2135 178.83V178.53C80.2135 176.93 80.4335 175.41 80.8735 173.97ZM93.448 171.18C94.708 171.18 95.458 172.06 95.698 173.82V174.09C95.698 176.03 94.698 177.81 92.698 179.43C93.858 180.57 95.888 181.14 98.788 181.14C99.228 181.28 99.448 181.59 99.448 182.07C99.448 182.61 99.098 182.88 98.398 182.88C96.438 182.88 94.378 182.38 92.218 181.38V182.25C92.218 184.31 91.778 185.34 90.898 185.34C90.278 185.34 89.968 184.15 89.968 181.77V179.43L89.878 178.59L90.088 177.63L89.878 174.75V174.63C89.878 174.09 90.158 173.72 90.718 173.52C91.498 171.96 92.408 171.18 93.448 171.18ZM91.948 177.75C92.528 177.75 93.178 176.71 93.898 174.63V173.34L93.538 172.95H93.268C92.388 173.55 91.948 175.15 91.948 177.75ZM103.145 172.23C103.945 172.25 105.295 173.65 107.195 176.43L107.255 176.94C107.255 177.5 105.885 177.93 103.145 178.23L103.055 178.32V178.44C103.475 180.24 103.915 181.14 104.375 181.14H104.735C105.375 181.14 106.345 180.45 107.645 179.07H107.825C108.225 179.07 108.535 179.36 108.755 179.94C108.755 180.42 107.915 181.25 106.235 182.43C105.795 182.69 105.265 182.88 104.645 183C103.025 183 101.895 181.48 101.255 178.44C100.335 178.3 99.875 177.92 99.875 177.3C99.875 176.86 100.215 176.57 100.895 176.43V176.55L101.195 176.43V175.68C101.195 173.38 101.845 172.23 103.145 172.23ZM103.325 174.39H103.055L102.935 175.5V176.43H103.055C104.175 176.39 104.735 176.27 104.735 176.07C104.215 175.29 103.745 174.73 103.325 174.39ZM127.456 165.18L128.206 164.94C128.886 164.94 129.226 165.84 129.226 167.64L130.156 174.57L130.276 174.69L133.726 173.43C134.186 173.43 134.436 173.78 134.476 174.48C134.476 175 133.206 175.63 130.666 176.37L130.546 176.43V176.55C130.546 176.97 131.206 179.16 132.526 183.12V183.18C132.526 183.56 132.216 183.88 131.596 184.14C131.016 184.14 130.636 183.45 130.456 182.07C129.996 181.07 129.436 179.42 128.776 177.12H128.656C126.036 177.66 124.726 178.12 124.726 178.5C123.286 181.62 122.196 183.18 121.456 183.18C121.036 183.18 120.786 182.91 120.706 182.37C120.706 181.89 121.236 180.95 122.296 179.55L122.776 178.5H122.026L121.456 178.62C120.716 178.44 120.346 178.06 120.346 177.48C120.646 176.78 121.086 176.43 121.666 176.43L122.416 176.73C123.536 176.73 124.096 176.32 124.096 175.5C125.116 173.1 126.236 169.66 127.456 165.18ZM127.726 170.64L125.956 175.98C127.596 175.66 128.416 175.35 128.416 175.05C128.116 172.11 127.886 170.64 127.726 170.64ZM137.797 181.23C138.217 181.23 138.467 181.57 138.547 182.25C138.427 182.95 138.077 183.3 137.497 183.3C137.097 183.3 136.817 182.95 136.657 182.25C136.897 181.57 137.277 181.23 137.797 181.23ZM141.326 168.48C141.446 167.98 141.806 167.73 142.406 167.73C143.006 167.73 143.306 169.01 143.306 171.57L143.396 173.19L143.126 182.64C142.986 183.26 142.676 183.57 142.196 183.57C141.616 183.35 141.326 183.04 141.326 182.64L141.626 173.37L141.326 168.48Z" fill="#5C55A3"/>
<path d="M78 1C84.191 7.83058 92.2586 12.3518 99.9807 17.3372C127.903 35.364 155.562 54.0368 184.747 69.9669C218.586 88.4368 252.848 104.721 288.225 119.94C321.78 134.374 353.065 152.202 384.377 170.93C415.49 189.538 447.109 208.052 480.246 222.825C486.23 225.492 492.447 229.519 498 233" stroke="#5C55A3" stroke-width="2" stroke-linecap="round"/>
<path d="M78 233C84.191 226.169 92.2586 221.648 99.9807 216.663C127.903 198.636 155.562 179.963 184.747 164.033C218.586 145.563 252.848 129.279 288.225 114.06C321.78 99.6262 353.065 81.7977 384.377 63.0702C415.49 44.4619 447.109 25.9477 480.246 11.1755C486.23 8.50826 492.447 4.48132 498 1.00001" stroke="#5C55A3" stroke-width="2" stroke-linecap="round"/>
<path d="M174.499 195.182C180.104 195.425 180.801 189.117 180.815 186.914C180.856 180.384 183.417 165.806 180.88 160.314C178.159 154.419 153.636 155.51 143.177 155.321C111.739 154.751 81.603 155.196 48.1252 155.188C39.8293 155.186 31.1852 154.688 23.0044 155.322C14.7717 155.96 12.1445 158.547 11.2864 162.316C10.6493 165.112 10.2389 179.853 10.0475 184.407C9.95561 186.599 9.72808 192.171 12.4482 193.887C16.4238 196.396 26.7879 195.976 31.2307 195.971C41.0291 195.959 144.892 195.871 171.365 195.167" stroke="#464646" stroke-width="2" stroke-miterlimit="1.5" stroke-linecap="round" stroke-linejoin="round"/>
<rect x="221" y="155" width="172" height="41" rx="10" fill="#F6F3D4" fill-opacity="0.8"/>
<path d="M258.63 164.22C259.65 164.22 260.25 164.59 260.43 165.33C260.43 165.63 260.14 165.95 259.56 166.29L258.57 166.02H258.45C257.33 166.02 256.05 167.61 254.61 170.79C254.41 171.57 254.31 172.32 254.31 173.04V174.27H254.43C256.87 173.69 258.43 173.4 259.11 173.4C259.99 173.56 260.43 173.91 260.43 174.45C260.25 175.01 259.96 175.29 259.56 175.29L259.02 175.2C256.98 175.38 255.48 175.69 254.52 176.13V176.34L254.88 181.2C254.88 183.5 254.42 184.65 253.5 184.65C253.18 184.65 252.89 184.4 252.63 183.9C252.95 183.08 253.11 182.05 253.11 180.81C253.11 179.55 252.99 178.12 252.75 176.52L251.31 176.7C250.01 176.58 249.36 176.17 249.36 175.47C249.56 174.91 249.88 174.63 250.32 174.63L251.07 174.84H251.61L252.57 174.72V173.04C252.57 169.94 253.94 167.22 256.68 164.88C257.3 164.44 257.95 164.22 258.63 164.22ZM264.487 172.23C265.287 172.25 266.637 173.65 268.537 176.43L268.597 176.94C268.597 177.5 267.227 177.93 264.487 178.23L264.397 178.32V178.44C264.817 180.24 265.257 181.14 265.717 181.14H266.077C266.717 181.14 267.687 180.45 268.987 179.07H269.167C269.567 179.07 269.877 179.36 270.097 179.94C270.097 180.42 269.257 181.25 267.577 182.43C267.137 182.69 266.607 182.88 265.987 183C264.367 183 263.237 181.48 262.597 178.44C261.677 178.3 261.217 177.92 261.217 177.3C261.217 176.86 261.557 176.57 262.237 176.43V176.55L262.537 176.43V175.68C262.537 173.38 263.187 172.23 264.487 172.23ZM264.667 174.39H264.397L264.277 175.5V176.43H264.397C265.517 176.39 266.077 176.27 266.077 176.07C265.557 175.29 265.087 174.73 264.667 174.39ZM276.86 171.42C277.74 171.42 278.18 171.77 278.18 172.47L277.91 173.04L277.73 178.53C277.73 181.01 278.23 182.55 279.23 183.15L279.29 183.6C279.23 184.18 278.96 184.47 278.48 184.47H278.3C276.8 183.45 276.05 181.89 276.05 179.79H275.84C275.04 182.03 274.07 183.15 272.93 183.15C271.87 182.85 271.34 182.06 271.34 180.78C271.34 177.96 272.47 175.15 274.73 172.35C275.49 171.73 276.2 171.42 276.86 171.42ZM273.23 179.58L273.11 180.42V180.99H273.41C274.91 177.25 275.66 174.97 275.66 174.15H275.54C274.38 175.45 273.61 177.26 273.23 179.58ZM283.549 164.79C284.109 164.91 284.389 165.19 284.389 165.63L284.209 166.95V167.34C284.209 168.22 284.309 169.15 284.509 170.13H284.569C286.889 169.43 288.329 169.08 288.889 169.08C289.469 169.24 289.759 169.53 289.759 169.95C289.759 170.63 289.069 170.97 287.689 170.97L284.569 172.08C284.569 174.78 284.859 178.45 285.439 183.09C285.319 183.63 285.029 183.9 284.569 183.9H284.509C283.809 183.9 283.459 183 283.459 181.2C283.199 179.86 282.979 176.95 282.799 172.47H282.259C280.379 172.35 279.439 171.91 279.439 171.15C279.439 170.93 279.649 170.66 280.069 170.34H280.369L281.749 170.7H282.709L282.439 166.95C282.439 165.51 282.809 164.79 283.549 164.79ZM291.874 173.97L292.414 173.67C292.894 173.67 293.244 173.96 293.464 174.54C293.144 176.02 292.984 177.54 292.984 179.1C292.984 179.88 293.214 180.73 293.674 181.65H293.854C294.434 181.65 295.124 179.36 295.924 174.78C296.204 174.54 296.474 174.42 296.734 174.42C297.354 174.42 297.664 175.52 297.664 177.72C297.924 180.14 298.214 181.35 298.534 181.35L298.984 181.17C299.564 181.39 299.854 181.7 299.854 182.1C299.494 182.86 298.994 183.24 298.354 183.24C297.634 183.24 296.944 182.52 296.284 181.08C295.484 182.76 294.674 183.6 293.854 183.6C292.634 183.6 291.784 182.33 291.304 179.79L291.214 178.83V178.53C291.214 176.93 291.434 175.41 291.874 173.97ZM304.448 171.18C305.708 171.18 306.458 172.06 306.698 173.82V174.09C306.698 176.03 305.698 177.81 303.698 179.43C304.858 180.57 306.888 181.14 309.788 181.14C310.228 181.28 310.448 181.59 310.448 182.07C310.448 182.61 310.098 182.88 309.398 182.88C307.438 182.88 305.378 182.38 303.218 181.38V182.25C303.218 184.31 302.778 185.34 301.898 185.34C301.278 185.34 300.968 184.15 300.968 181.77V179.43L300.878 178.59L301.088 177.63L300.878 174.75V174.63C300.878 174.09 301.158 173.72 301.718 173.52C302.498 171.96 303.408 171.18 304.448 171.18ZM302.948 177.75C303.528 177.75 304.178 176.71 304.898 174.63V173.34L304.538 172.95H304.268C303.388 173.55 302.948 175.15 302.948 177.75ZM314.145 172.23C314.945 172.25 316.295 173.65 318.195 176.43L318.255 176.94C318.255 177.5 316.885 177.93 314.145 178.23L314.055 178.32V178.44C314.475 180.24 314.915 181.14 315.375 181.14H315.735C316.375 181.14 317.345 180.45 318.645 179.07H318.825C319.225 179.07 319.535 179.36 319.755 179.94C319.755 180.42 318.915 181.25 317.235 182.43C316.795 182.69 316.265 182.88 315.645 183C314.025 183 312.895 181.48 312.255 178.44C311.335 178.3 310.875 177.92 310.875 177.3C310.875 176.86 311.215 176.57 311.895 176.43V176.55L312.195 176.43V175.68C312.195 173.38 312.845 172.23 314.145 172.23ZM314.325 174.39H314.055L313.935 175.5V176.43H314.055C315.175 176.39 315.735 176.27 315.735 176.07C315.215 175.29 314.745 174.73 314.325 174.39ZM338.456 165.18L339.206 164.94C339.886 164.94 340.226 165.84 340.226 167.64L341.156 174.57L341.276 174.69L344.726 173.43C345.186 173.43 345.436 173.78 345.476 174.48C345.476 175 344.206 175.63 341.666 176.37L341.546 176.43V176.55C341.546 176.97 342.206 179.16 343.526 183.12V183.18C343.526 183.56 343.216 183.88 342.596 184.14C342.016 184.14 341.636 183.45 341.456 182.07C340.996 181.07 340.436 179.42 339.776 177.12H339.656C337.036 177.66 335.726 178.12 335.726 178.5C334.286 181.62 333.196 183.18 332.456 183.18C332.036 183.18 331.786 182.91 331.706 182.37C331.706 181.89 332.236 180.95 333.296 179.55L333.776 178.5H333.026L332.456 178.62C331.716 178.44 331.346 178.06 331.346 177.48C331.646 176.78 332.086 176.43 332.666 176.43L333.416 176.73C334.536 176.73 335.096 176.32 335.096 175.5C336.116 173.1 337.236 169.66 338.456 165.18ZM338.726 170.64L336.956 175.98C338.596 175.66 339.416 175.35 339.416 175.05C339.116 172.11 338.886 170.64 338.726 170.64ZM348.797 181.23C349.217 181.23 349.467 181.57 349.547 182.25C349.427 182.95 349.077 183.3 348.497 183.3C348.097 183.3 347.817 182.95 347.657 182.25C347.897 181.57 348.277 181.23 348.797 181.23ZM356.856 166.8C358.396 166.8 359.296 167.89 359.556 170.07C359.556 172.09 357.976 176 354.816 181.8V181.98C355.636 181.98 357.386 181.26 360.066 179.82H360.126C360.526 179.82 360.836 180.11 361.056 180.69C361.056 181.71 358.306 182.96 352.806 184.44C352.486 184.44 352.216 184.15 351.996 183.57C352.776 181.79 354.296 178.79 356.556 174.57C357.316 172.53 357.696 171.15 357.696 170.43V169.5C357.696 169.1 357.486 168.79 357.066 168.57H356.676C355.896 168.57 355.146 169.51 354.426 171.39L354.516 171.75C354.516 172.13 354.236 172.44 353.676 172.68C352.936 172.54 352.566 172.17 352.566 171.57C352.566 170.43 353.436 169.03 355.176 167.37C355.676 166.99 356.236 166.8 356.856 166.8Z" fill="#5C55A3"/>
<path d="M385.499 195.182C391.104 195.425 391.801 189.117 391.815 186.914C391.856 180.384 394.417 165.806 391.88 160.314C389.159 154.419 364.636 155.51 354.177 155.321C322.739 154.751 292.603 155.196 259.125 155.188C250.829 155.186 242.185 154.688 234.004 155.322C225.772 155.96 223.144 158.547 222.286 162.316C221.649 165.112 221.239 179.853 221.048 184.407C220.956 186.599 220.728 192.171 223.448 193.887C227.424 196.396 237.788 195.976 242.231 195.971C252.029 195.959 355.892 195.871 382.365 195.167" stroke="#464646" stroke-width="2" stroke-miterlimit="1.5" stroke-linecap="round" stroke-linejoin="round"/>
<rect x="431" y="155" width="172" height="41" rx="10" fill="#F6F3D4" fill-opacity="0.8"/>
<path d="M468.63 164.22C469.65 164.22 470.25 164.59 470.43 165.33C470.43 165.63 470.14 165.95 469.56 166.29L468.57 166.02H468.45C467.33 166.02 466.05 167.61 464.61 170.79C464.41 171.57 464.31 172.32 464.31 173.04V174.27H464.43C466.87 173.69 468.43 173.4 469.11 173.4C469.99 173.56 470.43 173.91 470.43 174.45C470.25 175.01 469.96 175.29 469.56 175.29L469.02 175.2C466.98 175.38 465.48 175.69 464.52 176.13V176.34L464.88 181.2C464.88 183.5 464.42 184.65 463.5 184.65C463.18 184.65 462.89 184.4 462.63 183.9C462.95 183.08 463.11 182.05 463.11 180.81C463.11 179.55 462.99 178.12 462.75 176.52L461.31 176.7C460.01 176.58 459.36 176.17 459.36 175.47C459.56 174.91 459.88 174.63 460.32 174.63L461.07 174.84H461.61L462.57 174.72V173.04C462.57 169.94 463.94 167.22 466.68 164.88C467.3 164.44 467.95 164.22 468.63 164.22ZM474.487 172.23C475.287 172.25 476.637 173.65 478.537 176.43L478.597 176.94C478.597 177.5 477.227 177.93 474.487 178.23L474.397 178.32V178.44C474.817 180.24 475.257 181.14 475.717 181.14H476.077C476.717 181.14 477.687 180.45 478.987 179.07H479.167C479.567 179.07 479.877 179.36 480.097 179.94C480.097 180.42 479.257 181.25 477.577 182.43C477.137 182.69 476.607 182.88 475.987 183C474.367 183 473.237 181.48 472.597 178.44C471.677 178.3 471.217 177.92 471.217 177.3C471.217 176.86 471.557 176.57 472.237 176.43V176.55L472.537 176.43V175.68C472.537 173.38 473.187 172.23 474.487 172.23ZM474.667 174.39H474.397L474.277 175.5V176.43H474.397C475.517 176.39 476.077 176.27 476.077 176.07C475.557 175.29 475.087 174.73 474.667 174.39ZM486.86 171.42C487.74 171.42 488.18 171.77 488.18 172.47L487.91 173.04L487.73 178.53C487.73 181.01 488.23 182.55 489.23 183.15L489.29 183.6C489.23 184.18 488.96 184.47 488.48 184.47H488.3C486.8 183.45 486.05 181.89 486.05 179.79H485.84C485.04 182.03 484.07 183.15 482.93 183.15C481.87 182.85 481.34 182.06 481.34 180.78C481.34 177.96 482.47 175.15 484.73 172.35C485.49 171.73 486.2 171.42 486.86 171.42ZM483.23 179.58L483.11 180.42V180.99H483.41C484.91 177.25 485.66 174.97 485.66 174.15H485.54C484.38 175.45 483.61 177.26 483.23 179.58ZM493.549 164.79C494.109 164.91 494.389 165.19 494.389 165.63L494.209 166.95V167.34C494.209 168.22 494.309 169.15 494.509 170.13H494.569C496.889 169.43 498.329 169.08 498.889 169.08C499.469 169.24 499.759 169.53 499.759 169.95C499.759 170.63 499.069 170.97 497.689 170.97L494.569 172.08C494.569 174.78 494.859 178.45 495.439 183.09C495.319 183.63 495.029 183.9 494.569 183.9H494.509C493.809 183.9 493.459 183 493.459 181.2C493.199 179.86 492.979 176.95 492.799 172.47H492.259C490.379 172.35 489.439 171.91 489.439 171.15C489.439 170.93 489.649 170.66 490.069 170.34H490.369L491.749 170.7H492.709L492.439 166.95C492.439 165.51 492.809 164.79 493.549 164.79ZM501.874 173.97L502.414 173.67C502.894 173.67 503.244 173.96 503.464 174.54C503.144 176.02 502.984 177.54 502.984 179.1C502.984 179.88 503.214 180.73 503.674 181.65H503.854C504.434 181.65 505.124 179.36 505.924 174.78C506.204 174.54 506.474 174.42 506.734 174.42C507.354 174.42 507.664 175.52 507.664 177.72C507.924 180.14 508.214 181.35 508.534 181.35L508.984 181.17C509.564 181.39 509.854 181.7 509.854 182.1C509.494 182.86 508.994 183.24 508.354 183.24C507.634 183.24 506.944 182.52 506.284 181.08C505.484 182.76 504.674 183.6 503.854 183.6C502.634 183.6 501.784 182.33 501.304 179.79L501.214 178.83V178.53C501.214 176.93 501.434 175.41 501.874 173.97ZM514.448 171.18C515.708 171.18 516.458 172.06 516.698 173.82V174.09C516.698 176.03 515.698 177.81 513.698 179.43C514.858 180.57 516.888 181.14 519.788 181.14C520.228 181.28 520.448 181.59 520.448 182.07C520.448 182.61 520.098 182.88 519.398 182.88C517.438 182.88 515.378 182.38 513.218 181.38V182.25C513.218 184.31 512.778 185.34 511.898 185.34C511.278 185.34 510.968 184.15 510.968 181.77V179.43L510.878 178.59L511.088 177.63L510.878 174.75V174.63C510.878 174.09 511.158 173.72 511.718 173.52C512.498 171.96 513.408 171.18 514.448 171.18ZM512.948 177.75C513.528 177.75 514.178 176.71 514.898 174.63V173.34L514.538 172.95H514.268C513.388 173.55 512.948 175.15 512.948 177.75ZM524.145 172.23C524.945 172.25 526.295 173.65 528.195 176.43L528.255 176.94C528.255 177.5 526.885 177.93 524.145 178.23L524.055 178.32V178.44C524.475 180.24 524.915 181.14 525.375 181.14H525.735C526.375 181.14 527.345 180.45 528.645 179.07H528.825C529.225 179.07 529.535 179.36 529.755 179.94C529.755 180.42 528.915 181.25 527.235 182.43C526.795 182.69 526.265 182.88 525.645 183C524.025 183 522.895 181.48 522.255 178.44C521.335 178.3 520.875 177.92 520.875 177.3C520.875 176.86 521.215 176.57 521.895 176.43V176.55L522.195 176.43V175.68C522.195 173.38 522.845 172.23 524.145 172.23ZM524.325 174.39H524.055L523.935 175.5V176.43H524.055C525.175 176.39 525.735 176.27 525.735 176.07C525.215 175.29 524.745 174.73 524.325 174.39ZM548.456 165.18L549.206 164.94C549.886 164.94 550.226 165.84 550.226 167.64L551.156 174.57L551.276 174.69L554.726 173.43C555.186 173.43 555.436 173.78 555.476 174.48C555.476 175 554.206 175.63 551.666 176.37L551.546 176.43V176.55C551.546 176.97 552.206 179.16 553.526 183.12V183.18C553.526 183.56 553.216 183.88 552.596 184.14C552.016 184.14 551.636 183.45 551.456 182.07C550.996 181.07 550.436 179.42 549.776 177.12H549.656C547.036 177.66 545.726 178.12 545.726 178.5C544.286 181.62 543.196 183.18 542.456 183.18C542.036 183.18 541.786 182.91 541.706 182.37C541.706 181.89 542.236 180.95 543.296 179.55L543.776 178.5H543.026L542.456 178.62C541.716 178.44 541.346 178.06 541.346 177.48C541.646 176.78 542.086 176.43 542.666 176.43L543.416 176.73C544.536 176.73 545.096 176.32 545.096 175.5C546.116 173.1 547.236 169.66 548.456 165.18ZM548.726 170.64L546.956 175.98C548.596 175.66 549.416 175.35 549.416 175.05C549.116 172.11 548.886 170.64 548.726 170.64ZM558.797 181.23C559.217 181.23 559.467 181.57 559.547 182.25C559.427 182.95 559.077 183.3 558.497 183.3C558.097 183.3 557.817 182.95 557.657 182.25C557.897 181.57 558.277 181.23 558.797 181.23ZM566.016 166.95C567.276 166.95 568.056 167.76 568.356 169.38C568.216 170.36 567.996 171.2 567.696 171.9V172.02C568.976 172.02 569.946 172.92 570.606 174.72L570.696 175.83C570.496 178.25 569.156 180.85 566.676 183.63C565.556 184.39 564.746 184.77 564.246 184.77C562.626 184.35 561.816 183.79 561.816 183.09C561.896 182.81 562.106 182.56 562.446 182.34H563.016C563.476 182.7 563.826 182.88 564.066 182.88H564.126C565.686 182.88 567.246 180.82 568.806 176.7L568.926 175.83V175.65C568.926 174.41 568.486 173.79 567.606 173.79C566.666 173.79 565.986 174.22 565.566 175.08C564.686 176.08 564.016 176.65 563.556 176.79C563.296 176.79 562.986 176.51 562.626 175.95C562.626 175.15 563.536 173.99 565.356 172.47C566.156 171.07 566.556 170.01 566.556 169.29C566.436 168.93 566.256 168.71 566.016 168.63C565.156 168.63 564.256 169.76 563.316 172.02L562.626 172.2C562.086 172.08 561.816 171.83 561.816 171.45C562.776 168.45 564.176 166.95 566.016 166.95Z" fill="#5C55A3"/>
<path d="M595.499 195.182C601.104 195.425 601.801 189.117 601.815 186.914C601.856 180.384 604.417 165.806 601.88 160.314C599.159 154.419 574.636 155.51 564.177 155.321C532.739 154.751 502.603 155.196 469.125 155.188C460.829 155.186 452.185 154.688 444.004 155.322C435.772 155.96 433.144 158.547 432.286 162.316C431.649 165.112 431.239 179.853 431.048 184.407C430.956 186.599 430.728 192.171 433.448 193.887C437.424 196.396 447.788 195.976 452.231 195.971C462.029 195.959 565.892 195.871 592.365 195.167" stroke="#464646" stroke-width="2" stroke-miterlimit="1.5" stroke-linecap="round" stroke-linejoin="round"/>
<path d="M687.616 115.329C687.616 119.597 687.877 123.894 687.877 128.205C687.877 129.931 687.616 131.734 687.616 133.379C687.616 135.168 687.595 136.198 689.578 136.503C692.924 137.018 696.454 137.095 699.838 137.288C704.774 137.57 709.889 137.564 714.821 137.564C717.669 137.564 720.518 137.564 723.366 137.564C725.007 137.564 726.616 137.79 728.249 137.826C728.588 137.833 729.157 137.719 729.47 137.884C730.093 138.214 730.107 139.467 730.269 140.035C730.666 141.423 730.778 142.667 730.778 144.249C730.778 146.354 731.301 148.467 731.301 150.644C731.301 151.307 731.531 151.933 731.562 152.475C731.631 153.644 732.407 153.261 733.335 152.94C735.868 152.063 738.717 151.277 741.081 150.004C743.116 148.909 745.215 147.913 747.127 146.589C748.734 145.476 750.42 144.522 751.966 143.319C753.538 142.097 755.649 141.587 757.401 140.645C759.029 139.77 761.175 139.078 762.575 137.826C763.012 137.435 763.602 137.406 764.057 136.983C764.774 136.317 765.61 135.778 766.441 135.268C768.476 134.019 770.173 132.197 772.225 131.025C773.009 130.576 773.562 129.625 774.317 129.194C775.185 128.697 775.189 128.272 774.434 127.726C771.107 125.323 768.358 122.416 765.162 119.893C760.434 116.16 755.216 113.892 749.873 111.348C744.554 108.814 739.447 105.958 734.047 103.558C733.247 103.202 732.634 102.662 731.955 102.134C731.033 101.417 731.759 103.791 731.809 104.299C731.973 105.937 731.824 107.666 731.824 109.313C731.824 110.76 732.086 112.09 732.086 113.498C732.086 114.045 732.184 115.115 731.766 115.533C731.438 115.861 729.758 115.591 729.31 115.591C727.05 115.591 724.736 115.329 722.552 115.329C720.886 115.329 718.139 115.897 716.652 115.271C715.624 114.838 713.639 114.831 712.525 114.806C711.19 114.777 709.939 114.545 708.601 114.545C705.582 114.545 702.362 114.236 699.373 114.675C694.607 115.376 689.829 115.329 685 115.329" stroke="#464646" stroke-width="2" stroke-linecap="round"/>
<defs>
<linearGradient id="paint0_linear_2_110" x1="95.5" y1="0" x2="95.5" y2="160" gradientUnits="userSpaceOnUse">
<stop stop-color="#5C55A3"/>
<stop offset="1" stop-color="#5C55A3" stop-opacity="0"/>
</linearGradient>
<linearGradient id="paint1_linear_2_110" x1="516.5" y1="44" x2="516.5" y2="204" gradientUnits="userSpaceOnUse">
<stop stop-color="#5C55A3"/>
<stop offset="1" stop-color="#5C55A3" stop-opacity="0"/>
</linearGradient>
<linearGradient id="paint2_linear_2_110" x1="96.5" y1="44" x2="96.5" y2="204" gradientUnits="userSpaceOnUse">
<stop stop-color="#5C55A3"/>
<stop offset="1" stop-color="#5C55A3" stop-opacity="0"/>
</linearGradient>
</defs>
</svg>
