<svg width="1129" height="358" viewBox="0 0 1129 358" fill="none" xmlns="http://www.w3.org/2000/svg">
<path d="M186.539 55.8824C192.862 56.2153 193.647 47.599 193.664 44.5898C193.71 35.6713 196.598 15.7593 193.737 8.25846C190.667 0.206303 163.008 1.69681 151.211 1.43799C115.752 0.659696 81.7616 1.26789 44.0016 1.25688C34.6447 1.25382 24.8949 0.573422 15.6678 1.43982C6.38206 2.31112 3.41879 5.84404 2.45094 10.9923C1.73238 14.8122 1.2694 34.9456 1.05363 41.1658C0.949927 44.1597 0.693299 51.7701 3.76131 54.1135C8.2455 57.5406 19.9352 56.9667 24.9462 56.9599C35.998 56.9446 153.146 56.8235 183.005 55.8616" stroke="#2C2C2C" stroke-width="2" stroke-miterlimit="1.5" stroke-linecap="round" stroke-linejoin="round"/>
<path d="M492.67 55.8824C498.895 56.2153 499.668 47.599 499.685 44.5898C499.73 35.6713 502.573 15.7593 499.757 8.25846C496.734 0.206303 469.503 1.69681 457.889 1.43799C422.977 0.659696 389.513 1.26789 352.337 1.25688C343.124 1.25382 333.525 0.573422 324.441 1.43982C315.299 2.31112 312.381 5.84404 311.429 10.9923C310.721 14.8122 310.265 34.9456 310.053 41.1658C309.951 44.1597 309.698 51.7701 312.719 54.1135C317.133 57.5406 328.642 56.9667 333.576 56.9599C344.457 56.9446 459.793 56.8235 489.19 55.8616" stroke="#2C2C2C" stroke-width="2" stroke-miterlimit="1.5" stroke-linecap="round" stroke-linejoin="round"/>
<path d="M34.3967 15.45C35.33 15.7833 35.7967 16.3 35.7967 17L36.2967 36.05V42.2C36.2967 43.3333 35.8133 43.9 34.8467 43.9H34.1967C33.5967 43.5 33.2967 43.0333 33.2967 42.5V36.7L32.8467 16.9C32.8467 16.0667 33.3633 15.5833 34.3967 15.45ZM47.8963 24.15C50.363 24.15 52.2296 25.9833 53.4963 29.65L53.6963 30.7C53.6963 34.2667 52.0296 37.9167 48.6963 41.65C47.363 42.8833 46.013 43.5 44.6463 43.5C42.6463 43.5 41.2296 42.35 40.3963 40.05C40.0963 38.9833 39.9463 38.05 39.9463 37.25V36.65C39.9463 31.3833 41.863 27.3833 45.6963 24.65C46.363 24.3167 47.0963 24.15 47.8963 24.15ZM42.8963 37.15C42.8963 39.4167 43.4796 40.55 44.6463 40.55C47.0796 40.55 49.0963 37.4333 50.6963 31.2V30.25C50.1296 28.1833 49.0796 27.15 47.5463 27.15C46.9463 27.15 46.6463 27.5667 46.6463 28.4C46.6463 28.9667 45.9796 29.4167 44.6463 29.75C43.4796 31.7167 42.8963 34.1833 42.8963 37.15ZM61.0119 26.05L63.0619 25.75C63.8952 25.75 64.3619 26.2667 64.4619 27.3C64.4619 28.2 63.3786 28.7833 61.2119 29.05C59.8452 30.1167 59.1619 31.4833 59.1619 33.15V34.8C59.8286 38.4667 60.9619 40.3 62.5619 40.3H63.0619C63.9952 40.3 65.3952 39.4167 67.2619 37.65H67.5619C68.2286 37.65 68.7619 38.1167 69.1619 39.05C68.6952 40.4833 67.1952 41.7833 64.6619 42.95C64.1952 43.15 63.6119 43.25 62.9119 43.25C59.4786 43.25 57.2452 40.55 56.2119 35.15V34.05C56.2119 30.15 57.8119 27.4833 61.0119 26.05ZM81.0334 23.7C82.5001 23.7 83.2334 24.2833 83.2334 25.45L82.7834 26.4L82.4834 35.55C82.4834 39.6833 83.3167 42.25 84.9834 43.25L85.0834 44C84.9834 44.9667 84.5334 45.45 83.7334 45.45H83.4334C80.9334 43.75 79.6834 41.15 79.6834 37.65H79.3334C78.0001 41.3833 76.3834 43.25 74.4834 43.25C72.7167 42.75 71.8334 41.4333 71.8334 39.3C71.8334 34.6 73.7167 29.9167 77.4834 25.25C78.7501 24.2167 79.9334 23.7 81.0334 23.7ZM74.9834 37.3L74.7834 38.7V39.65H75.2834C77.7834 33.4167 79.0334 29.6167 79.0334 28.25H78.8334C76.9001 30.4167 75.6167 33.4333 74.9834 37.3ZM89.133 15.45C90.0663 15.7833 90.533 16.3 90.533 17L91.033 36.05V42.2C91.033 43.3333 90.5497 43.9 89.583 43.9H88.933C88.333 43.5 88.033 43.0333 88.033 42.5V36.7L87.583 16.9C87.583 16.0667 88.0997 15.5833 89.133 15.45ZM96.7326 15.4C97.666 15.4 98.1326 16.5333 98.1326 18.8L98.7326 27.4H98.9326L101.433 26.45C104.233 26.45 105.933 29.3167 106.533 35.05C106.766 36.6833 106.883 39.0833 106.883 42.25V46.3C106.883 47.5667 106.416 48.2 105.483 48.2H105.283C104.383 48.0667 103.933 47.5833 103.933 46.75V42.05C103.933 34.5167 103.199 30.35 101.733 29.55H101.433C100.433 29.55 99.6993 31.0833 99.2326 34.15V36.95C99.2326 41.95 98.816 44.45 97.9826 44.45L97.0326 44.55C96.0993 44.55 95.6326 43.1667 95.6326 40.4C95.7326 37.4667 95.9326 35.0667 96.2326 33.2L95.1826 16.75C95.1826 15.8833 95.6993 15.4333 96.7326 15.4ZM117.232 24.15C119.699 24.15 121.566 25.9833 122.832 29.65L123.032 30.7C123.032 34.2667 121.366 37.9167 118.032 41.65C116.699 42.8833 115.349 43.5 113.982 43.5C111.982 43.5 110.566 42.35 109.732 40.05C109.432 38.9833 109.282 38.05 109.282 37.25V36.65C109.282 31.3833 111.199 27.3833 115.032 24.65C115.699 24.3167 116.432 24.15 117.232 24.15ZM112.232 37.15C112.232 39.4167 112.816 40.55 113.982 40.55C116.416 40.55 118.432 37.4333 120.032 31.2V30.25C119.466 28.1833 118.416 27.15 116.882 27.15C116.282 27.15 115.982 27.5667 115.982 28.4C115.982 28.9667 115.316 29.4167 113.982 29.75C112.816 31.7167 112.232 34.1833 112.232 37.15ZM135.298 22.75C136.198 22.75 136.815 24.2667 137.148 27.3C136.815 28.1333 136.265 28.55 135.498 28.55C134.965 28.45 134.431 27.8333 133.898 26.7L132.998 26.4C131.431 26.4 130.015 27.4333 128.748 29.5V29.95C128.748 30.45 131.098 31.2833 135.798 32.45C137.765 33.6167 138.748 35.0333 138.748 36.7C138.748 39.4333 136.548 41.7667 132.148 43.7L130.298 44C127.498 43.7 126.098 42.3 126.098 39.8V39.65C126.098 38.85 126.615 38.3833 127.648 38.25C128.448 38.25 128.981 39.0833 129.248 40.75L129.648 41.05H130.498C132.398 41.05 134.165 39.75 135.798 37.15V36.5C135.798 35.5 133.615 34.5667 129.248 33.7C126.948 32.7667 125.798 31.4667 125.798 29.8C125.798 27.6333 127.615 25.6 131.248 23.7C132.848 23.5 134.198 23.1833 135.298 22.75ZM146.48 12.65C147.413 12.85 147.88 13.3167 147.88 14.05L147.58 16.25V16.9C147.58 18.3667 147.747 19.9167 148.08 21.55H148.18C152.047 20.3833 154.447 19.8 155.38 19.8C156.347 20.0667 156.83 20.55 156.83 21.25C156.83 22.3833 155.68 22.95 153.38 22.95L148.18 24.8C148.18 29.3 148.663 35.4167 149.63 43.15C149.43 44.05 148.947 44.5 148.18 44.5H148.08C146.913 44.5 146.33 43 146.33 40C145.897 37.7667 145.53 32.9167 145.23 25.45H144.33C141.197 25.25 139.63 24.5167 139.63 23.25C139.63 22.8833 139.98 22.4333 140.68 21.9H141.18L143.48 22.5H145.08L144.63 16.25C144.63 13.85 145.247 12.65 146.48 12.65Z" fill="#464646"/>
<path d="M394.851 5.45C395.384 5.45 395.867 5.96666 396.301 7C396.301 7.8 395.084 8.46667 392.651 9C389.584 10.7 387.201 13.6667 385.501 17.9C383.834 22.1333 383.001 26.3167 383.001 30.45C383.001 37.0833 385.134 41.35 389.401 43.25L391.001 43.55C394.567 43.55 397.101 40.4333 398.601 34.2L398.801 32.15C398.801 29.4833 397.901 27.25 396.101 25.45H395.801C395.101 26.25 393.701 29.0667 391.601 33.9L390.501 34.65C389.567 34.65 389.034 34.0833 388.901 32.95C392.067 25.45 394.217 21.7 395.351 21.7H395.651C399.717 24.0667 401.751 27.55 401.751 32.15C401.751 37.35 399.617 41.6833 395.351 45.15C394.651 45.75 393.234 46.2 391.101 46.5C387.067 46.5 383.734 43.5833 381.101 37.75C380.401 35.25 380.051 32.9667 380.051 30.9V30.15C380.051 23.0167 382.334 16.2833 386.901 9.95C389.867 6.95 392.517 5.45 394.851 5.45ZM404.624 16.95C405.891 17.2167 406.524 17.7833 406.524 18.65C406.191 19.5833 405.658 20.05 404.924 20.05C403.691 19.8167 403.074 19.2 403.074 18.2C403.408 17.3667 403.924 16.95 404.624 16.95ZM406.524 23.95C407.058 23.95 407.508 24.4333 407.874 25.4L407.424 28.95V31.3C407.424 34.0333 407.891 37.6167 408.824 42.05C408.491 42.6833 407.924 43 407.124 43C405.758 43 404.858 39 404.424 31V29.25C404.424 25.7167 405.124 23.95 406.524 23.95ZM417.297 12.65C418.231 12.85 418.697 13.3167 418.697 14.05L418.397 16.25V16.9C418.397 18.3667 418.564 19.9167 418.897 21.55H418.997C422.864 20.3833 425.264 19.8 426.197 19.8C427.164 20.0667 427.647 20.55 427.647 21.25C427.647 22.3833 426.497 22.95 424.197 22.95L418.997 24.8C418.997 29.3 419.481 35.4167 420.447 43.15C420.247 44.05 419.764 44.5 418.997 44.5H418.897C417.731 44.5 417.147 43 417.147 40C416.714 37.7667 416.347 32.9167 416.047 25.45H415.147C412.014 25.25 410.447 24.5167 410.447 23.25C410.447 22.8833 410.797 22.4333 411.497 21.9H411.997L414.297 22.5H415.897L415.447 16.25C415.447 13.85 416.064 12.65 417.297 12.65ZM431.271 15.4C432.204 15.4 432.671 16.5333 432.671 18.8L433.271 27.4H433.471L435.971 26.45C438.771 26.45 440.471 29.3167 441.071 35.05C441.304 36.6833 441.421 39.0833 441.421 42.25V46.3C441.421 47.5667 440.954 48.2 440.021 48.2H439.821C438.921 48.0667 438.471 47.5833 438.471 46.75V42.05C438.471 34.5167 437.737 30.35 436.271 29.55H435.971C434.971 29.55 434.237 31.0833 433.771 34.15V36.95C433.771 41.95 433.354 44.45 432.521 44.45L431.571 44.55C430.637 44.55 430.171 43.1667 430.171 40.4C430.271 37.4667 430.471 35.0667 430.771 33.2L429.721 16.75C429.721 15.8833 430.237 15.4333 431.271 15.4ZM445.77 27.95L446.67 27.45C447.47 27.45 448.054 27.9333 448.42 28.9C447.887 31.3667 447.62 33.9 447.62 36.5C447.62 37.8 448.004 39.2167 448.77 40.75H449.07C450.037 40.75 451.187 36.9333 452.52 29.3C452.987 28.9 453.437 28.7 453.87 28.7C454.904 28.7 455.42 30.5333 455.42 34.2C455.854 38.2333 456.337 40.25 456.87 40.25L457.62 39.95C458.587 40.3167 459.07 40.8333 459.07 41.5C458.47 42.7667 457.637 43.4 456.57 43.4C455.37 43.4 454.22 42.2 453.12 39.8C451.787 42.6 450.437 44 449.07 44C447.037 44 445.62 41.8833 444.82 37.65L444.67 36.05V35.55C444.67 32.8833 445.037 30.35 445.77 27.95ZM460.528 19.25C462.261 19.25 463.378 22.65 463.878 29.45L464.178 31C465.711 27.8667 466.961 26.3 467.928 26.3C467.928 26.1667 468.278 26.0667 468.978 26H469.178C471.378 26 472.778 27.7167 473.378 31.15V31.3C473.378 34.2333 471.911 37.4667 468.978 41C467.744 42.3333 466.394 43 464.928 43C463.261 42.6333 462.428 41.8 462.428 40.5L459.928 22.55L459.178 20.7C459.178 20.1 459.628 19.6167 460.528 19.25ZM465.728 39.55H465.878C467.611 38.85 469.128 36.4667 470.428 32.4V30.5C470.128 29.4667 469.744 28.95 469.278 28.95H468.878C467.411 29.8167 466.361 33.35 465.728 39.55Z" fill="#464646"/>
<path d="M234.266 75.12C237.093 75.12 238.759 76.8933 239.266 80.44C239.266 83.5867 237.799 85.84 234.866 87.2C234.546 87.36 234.106 87.44 233.546 87.44H233.266L232.386 87.36V87.44L232.546 98.12C232.359 98.9467 231.933 99.36 231.266 99.36C230.519 99.12 230.146 98.7333 230.146 98.2L229.786 76.44C229.786 75.7467 230.199 75.3867 231.026 75.36L231.866 75.72C232.613 75.32 233.413 75.12 234.266 75.12ZM232.266 79.36L232.146 80.6L232.266 84.84L233.386 85.12C235.173 85.12 236.333 83.8133 236.866 81.2V80.6C236.679 78.4933 235.933 77.44 234.626 77.44H234.026C232.853 77.44 232.266 78.08 232.266 79.36ZM242.743 74.96L243.463 74.56C244.103 74.56 244.569 74.9467 244.863 75.72C244.436 77.6933 244.223 79.72 244.223 81.8C244.223 82.84 244.529 83.9733 245.143 85.2H245.383C246.156 85.2 247.076 82.1467 248.143 76.04C248.516 75.72 248.876 75.56 249.223 75.56C250.049 75.56 250.463 77.0267 250.463 79.96C250.809 83.1867 251.196 84.8 251.623 84.8L252.223 84.56C252.996 84.8533 253.383 85.2667 253.383 85.8C252.903 86.8133 252.236 87.32 251.383 87.32C250.423 87.32 249.503 86.36 248.623 84.44C247.556 86.68 246.476 87.8 245.383 87.8C243.756 87.8 242.623 86.1067 241.983 82.72L241.863 81.44V81.04C241.863 78.9067 242.156 76.88 242.743 74.96ZM262.269 70.8C262.989 70.8 263.482 72.0133 263.749 74.44C263.482 75.1067 263.042 75.44 262.429 75.44C262.002 75.36 261.575 74.8667 261.149 73.96L260.429 73.72C259.175 73.72 258.042 74.5467 257.029 76.2V76.56C257.029 76.96 258.909 77.6267 262.669 78.56C264.242 79.4933 265.029 80.6267 265.029 81.96C265.029 84.1467 263.269 86.0133 259.749 87.56L258.269 87.8C256.029 87.56 254.909 86.44 254.909 84.44V84.32C254.909 83.68 255.322 83.3067 256.149 83.2C256.789 83.2 257.215 83.8667 257.429 85.2L257.749 85.44H258.429C259.949 85.44 261.362 84.4 262.669 82.32V81.8C262.669 81 260.922 80.2533 257.429 79.56C255.589 78.8133 254.669 77.7733 254.669 76.44C254.669 74.7067 256.122 73.08 259.029 71.56C260.309 71.4 261.389 71.1467 262.269 70.8ZM268.174 64.92C268.921 64.92 269.294 65.8267 269.294 67.64L269.774 74.52H269.934L271.934 73.76C274.174 73.76 275.534 76.0533 276.014 80.64C276.201 81.9467 276.294 83.8667 276.294 86.4V89.64C276.294 90.6533 275.921 91.16 275.174 91.16H275.014C274.294 91.0533 273.934 90.6667 273.934 90V86.24C273.934 80.2133 273.348 76.88 272.174 76.24H271.934C271.134 76.24 270.548 77.4667 270.174 79.92V82.16C270.174 86.16 269.841 88.16 269.174 88.16L268.414 88.24C267.668 88.24 267.294 87.1333 267.294 84.92C267.374 82.5733 267.534 80.6533 267.774 79.16L266.934 66C266.934 65.3067 267.348 64.9467 268.174 64.92Z" fill="#464646"/>
<path d="M212.683 30.7846C222.953 30.7694 233.043 30.0747 242.988 30.06C254.266 30.0433 265.214 30.7069 276.256 30.6905C286.456 30.6754 278.551 30.8747 288.733 30.6721" stroke="#5C55A3" stroke-width="2" stroke-linecap="round"/>
<path d="M291.965 37.0706C291.994 37.144 292.114 36.8869 292.144 36.8569C292.493 36.5111 292.804 36.0558 293.117 35.6507C293.479 35.1821 293.75 34.5956 294.083 34.089C294.319 33.7282 294.611 33.4392 294.875 33.1173C295.505 32.3474 296.012 31.4205 296.606 30.6048C296.745 30.4133 296.864 30.2172 296.984 30.006C297.095 29.8099 295.911 28.4248 295.731 28.2477C294.962 27.4911 294.024 27.0954 293.263 26.2866C293.007 26.0141 292.694 25.7808 292.463 25.4767C292.348 25.3263 292.171 25.2151 292.121 25.009" stroke="#5C55A3" stroke-width="2" stroke-linecap="round"/>
<path d="M291.965 37.0706C291.994 37.144 292.114 36.8869 292.144 36.8569C292.493 36.5111 292.804 36.0558 293.117 35.6507C293.479 35.1821 293.75 34.5956 294.083 34.089C294.319 33.7282 294.611 33.4392 294.875 33.1173C295.505 32.3474 296.012 31.4205 296.606 30.6048C296.745 30.4133 296.864 30.2172 296.984 30.006C297.095 29.8099 295.911 28.4248 295.731 28.2477C294.962 27.4911 294.024 27.0954 293.263 26.2866C293.007 26.0141 292.694 25.7808 292.463 25.4767C292.348 25.3263 292.171 25.2151 292.121 25.009" stroke="#5C55A3" stroke-width="2" stroke-linecap="round"/>
<path d="M403.719 73.4049C403.721 83.6748 404.404 93.7658 404.406 103.71C404.409 114.988 403.732 125.936 403.735 136.978C403.738 147.178 403.548 139.273 403.738 149.455" stroke="#5C55A3" stroke-width="2" stroke-linecap="round"/>
<path d="M398.013 151C397.939 151.029 398.196 151.15 398.226 151.18C398.571 151.529 399.026 151.84 399.431 152.154C399.899 152.516 400.486 152.788 400.992 153.121C401.353 153.358 401.641 153.651 401.963 153.914C402.732 154.546 403.659 155.053 404.474 155.648C404.665 155.787 404.861 155.907 405.072 156.026C405.268 156.138 406.654 154.955 406.832 154.775C407.589 154.007 407.986 153.069 408.795 152.309C409.068 152.053 409.302 151.74 409.606 151.51C409.756 151.396 409.868 151.218 410.074 151.168" stroke="#5C55A3" stroke-width="2" stroke-linecap="round"/>
<path d="M409.719 228C409.72 235.292 410.402 242.457 410.404 249.519C410.406 257.527 409.728 265.3 409.73 273.14C409.732 280.383 409.543 274.77 409.732 282" stroke="#5C55A3" stroke-width="2" stroke-linecap="round"/>
<path d="M404.013 286C403.939 286.029 404.196 286.15 404.226 286.18C404.571 286.529 405.026 286.84 405.431 287.154C405.899 287.516 406.486 287.788 406.992 288.121C407.353 288.358 407.641 288.651 407.963 288.914C408.732 289.546 409.659 290.053 410.474 290.648C410.665 290.787 410.861 290.907 411.072 291.026C411.268 291.138 412.654 289.955 412.832 289.775C413.589 289.007 413.986 288.069 414.795 287.309C415.068 287.053 415.302 286.74 415.606 286.51C415.756 286.396 415.868 286.218 416.074 286.168" stroke="#5C55A3" stroke-width="2" stroke-linecap="round"/>
<path d="M789.327 55.8824C794.314 56.2153 794.933 47.599 794.946 44.5898C794.983 35.6713 797.26 15.7593 795.004 8.25846C792.583 0.206303 770.769 1.69681 761.466 1.43799C733.5 0.659696 706.693 1.26789 676.914 1.25688C669.534 1.25382 661.845 0.573422 654.568 1.43982C647.245 2.31112 644.908 5.84404 644.144 10.9923C643.578 14.8122 643.212 34.9456 643.042 41.1658C642.961 44.1597 642.758 51.7701 645.178 54.1135C648.714 57.5406 657.933 56.9667 661.885 56.9599C670.602 56.9446 762.991 56.8235 786.54 55.8616" stroke="#2C2C2C" stroke-width="2" stroke-miterlimit="1.5" stroke-linecap="round" stroke-linejoin="round"/>
<path d="M543.399 355.882C552.068 356.215 553.145 347.599 553.168 344.59C553.231 335.671 557.191 315.759 553.269 308.258C549.059 300.206 511.135 301.697 494.96 301.438C446.34 300.66 399.735 301.268 347.961 301.257C335.131 301.254 321.763 300.573 309.112 301.44C296.38 302.311 292.316 305.844 290.989 310.992C290.004 314.812 289.369 334.946 289.074 341.166C288.931 344.16 288.579 351.77 292.786 354.114C298.935 357.541 314.963 356.967 321.833 356.96C336.987 356.945 497.613 356.823 538.553 355.862" stroke="#2C2C2C" stroke-width="2" stroke-miterlimit="1.5" stroke-linecap="round" stroke-linejoin="round"/>
<path d="M706.64 13.15C707.273 13.15 707.69 13.6667 707.89 14.7C707.89 15.3 706.857 16.0833 704.79 17.05C702.99 18.1833 701.39 20.9 699.99 25.2C698.323 32.1667 697.49 38.3167 697.49 43.65C696.923 44.15 696.39 44.4 695.89 44.4C695.057 44.4 694.273 42.7333 693.54 39.4C688.44 26.6667 685.89 19.6333 685.89 18.3C685.89 17.6333 686.423 17.2167 687.49 17.05C688.357 17.05 689.19 18.7667 689.99 22.2L694.79 34.55H694.99C695.19 34.55 695.49 32.8833 695.89 29.55C697.157 24.2833 698.407 20.65 699.64 18.65C702.407 14.9833 704.74 13.15 706.64 13.15ZM709.984 25.05C711.318 25.0833 713.568 27.4167 716.734 32.05L716.834 32.9C716.834 33.8333 714.551 34.55 709.984 35.05L709.834 35.2V35.4C710.534 38.4 711.268 39.9 712.034 39.9H712.634C713.701 39.9 715.318 38.75 717.484 36.45H717.784C718.451 36.45 718.968 36.9333 719.334 37.9C719.334 38.7 717.934 40.0833 715.134 42.05C714.401 42.4833 713.518 42.8 712.484 43C709.784 43 707.901 40.4667 706.834 35.4C705.301 35.1667 704.534 34.5333 704.534 33.5C704.534 32.7667 705.101 32.2833 706.234 32.05V32.25L706.734 32.05V30.8C706.734 26.9667 707.818 25.05 709.984 25.05ZM710.284 28.65H709.834L709.634 30.5V32.05H709.834C711.701 31.9833 712.634 31.7833 712.634 31.45C711.768 30.15 710.984 29.2167 710.284 28.65ZM727.856 23.3C729.956 23.3 731.206 24.7667 731.606 27.7V28.15C731.606 31.3833 729.939 34.35 726.606 37.05C728.539 38.95 731.922 39.9 736.756 39.9C737.489 40.1333 737.856 40.65 737.856 41.45C737.856 42.35 737.272 42.8 736.106 42.8C732.839 42.8 729.406 41.9667 725.806 40.3V41.75C725.806 45.1833 725.072 46.9 723.606 46.9C722.572 46.9 722.056 44.9167 722.056 40.95V37.05L721.906 35.65L722.256 34.05L721.906 29.25V29.05C721.906 28.15 722.372 27.5333 723.306 27.2C724.606 24.6 726.122 23.3 727.856 23.3ZM725.356 34.25C726.322 34.25 727.406 32.5167 728.606 29.05V26.9L728.006 26.25H727.556C726.089 27.25 725.356 29.9167 725.356 34.25ZM744.617 26.05L746.667 25.75C747.501 25.75 747.967 26.2667 748.067 27.3C748.067 28.2 746.984 28.7833 744.817 29.05C743.451 30.1167 742.767 31.4833 742.767 33.15V34.8C743.434 38.4667 744.567 40.3 746.167 40.3H746.667C747.601 40.3 749.001 39.4167 750.867 37.65H751.167C751.834 37.65 752.367 38.1167 752.767 39.05C752.301 40.4833 750.801 41.7833 748.267 42.95C747.801 43.15 747.217 43.25 746.517 43.25C743.084 43.25 740.851 40.55 739.817 35.15V34.05C739.817 30.15 741.417 27.4833 744.617 26.05ZM759.789 25.05C761.122 25.0833 763.372 27.4167 766.539 32.05L766.639 32.9C766.639 33.8333 764.356 34.55 759.789 35.05L759.639 35.2V35.4C760.339 38.4 761.072 39.9 761.839 39.9H762.439C763.506 39.9 765.122 38.75 767.289 36.45H767.589C768.256 36.45 768.772 36.9333 769.139 37.9C769.139 38.7 767.739 40.0833 764.939 42.05C764.206 42.4833 763.322 42.8 762.289 43C759.589 43 757.706 40.4667 756.639 35.4C755.106 35.1667 754.339 34.5333 754.339 33.5C754.339 32.7667 754.906 32.2833 756.039 32.05V32.25L756.539 32.05V30.8C756.539 26.9667 757.622 25.05 759.789 25.05ZM760.089 28.65H759.639L759.439 30.5V32.05H759.639C761.506 31.9833 762.439 31.7833 762.439 31.45C761.572 30.15 760.789 29.2167 760.089 28.65ZM773.91 15.45C774.844 15.7833 775.31 16.3 775.31 17L775.81 36.05V42.2C775.81 43.3333 775.327 43.9 774.36 43.9H773.71C773.11 43.5 772.81 43.0333 772.81 42.5V36.7L772.36 16.9C772.36 16.0667 772.877 15.5833 773.91 15.45Z" fill="#464646"/>
<path d="M464.766 218.882C468.677 219.215 469.163 210.599 469.174 207.59C469.202 198.671 470.988 178.759 469.219 171.258C467.32 163.206 450.211 164.697 442.914 164.438C420.98 163.66 399.956 164.268 376.599 164.257C370.811 164.254 364.78 163.573 359.073 164.44C353.329 165.311 351.496 168.844 350.897 173.992C350.453 177.812 350.167 197.946 350.033 204.166C349.969 207.16 349.81 214.77 351.708 217.114C354.482 220.541 361.712 219.967 364.812 219.96C371.648 219.945 444.111 219.823 462.58 218.862" stroke="#2C2C2C" stroke-width="2" stroke-miterlimit="1.5" stroke-linecap="round" stroke-linejoin="round"/>
<path d="M384.64 176.15C385.273 176.15 385.69 176.667 385.89 177.7C385.89 178.3 384.857 179.083 382.79 180.05C380.99 181.183 379.39 183.9 377.99 188.2C376.323 195.167 375.49 201.317 375.49 206.65C374.923 207.15 374.39 207.4 373.89 207.4C373.057 207.4 372.273 205.733 371.54 202.4C366.44 189.667 363.89 182.633 363.89 181.3C363.89 180.633 364.423 180.217 365.49 180.05C366.357 180.05 367.19 181.767 367.99 185.2L372.79 197.55H372.99C373.19 197.55 373.49 195.883 373.89 192.55C375.157 187.283 376.407 183.65 377.64 181.65C380.407 177.983 382.74 176.15 384.64 176.15ZM387.984 188.05C389.318 188.083 391.568 190.417 394.734 195.05L394.834 195.9C394.834 196.833 392.551 197.55 387.984 198.05L387.834 198.2V198.4C388.534 201.4 389.268 202.9 390.034 202.9H390.634C391.701 202.9 393.318 201.75 395.484 199.45H395.784C396.451 199.45 396.968 199.933 397.334 200.9C397.334 201.7 395.934 203.083 393.134 205.05C392.401 205.483 391.518 205.8 390.484 206C387.784 206 385.901 203.467 384.834 198.4C383.301 198.167 382.534 197.533 382.534 196.5C382.534 195.767 383.101 195.283 384.234 195.05V195.25L384.734 195.05V193.8C384.734 189.967 385.818 188.05 387.984 188.05ZM388.284 191.65H387.834L387.634 193.5V195.05H387.834C389.701 194.983 390.634 194.783 390.634 194.45C389.768 193.15 388.984 192.217 388.284 191.65ZM405.856 186.3C407.956 186.3 409.206 187.767 409.606 190.7V191.15C409.606 194.383 407.939 197.35 404.606 200.05C406.539 201.95 409.922 202.9 414.756 202.9C415.489 203.133 415.856 203.65 415.856 204.45C415.856 205.35 415.272 205.8 414.106 205.8C410.839 205.8 407.406 204.967 403.806 203.3V204.75C403.806 208.183 403.072 209.9 401.606 209.9C400.572 209.9 400.056 207.917 400.056 203.95V200.05L399.906 198.65L400.256 197.05L399.906 192.25V192.05C399.906 191.15 400.372 190.533 401.306 190.2C402.606 187.6 404.122 186.3 405.856 186.3ZM403.356 197.25C404.322 197.25 405.406 195.517 406.606 192.05V189.9L406.006 189.25H405.556C404.089 190.25 403.356 192.917 403.356 197.25ZM422.617 189.05L424.667 188.75C425.501 188.75 425.967 189.267 426.067 190.3C426.067 191.2 424.984 191.783 422.817 192.05C421.451 193.117 420.767 194.483 420.767 196.15V197.8C421.434 201.467 422.567 203.3 424.167 203.3H424.667C425.601 203.3 427.001 202.417 428.867 200.65H429.167C429.834 200.65 430.367 201.117 430.767 202.05C430.301 203.483 428.801 204.783 426.267 205.95C425.801 206.15 425.217 206.25 424.517 206.25C421.084 206.25 418.851 203.55 417.817 198.15V197.05C417.817 193.15 419.417 190.483 422.617 189.05ZM437.789 188.05C439.122 188.083 441.372 190.417 444.539 195.05L444.639 195.9C444.639 196.833 442.356 197.55 437.789 198.05L437.639 198.2V198.4C438.339 201.4 439.072 202.9 439.839 202.9H440.439C441.506 202.9 443.122 201.75 445.289 199.45H445.589C446.256 199.45 446.772 199.933 447.139 200.9C447.139 201.7 445.739 203.083 442.939 205.05C442.206 205.483 441.322 205.8 440.289 206C437.589 206 435.706 203.467 434.639 198.4C433.106 198.167 432.339 197.533 432.339 196.5C432.339 195.767 432.906 195.283 434.039 195.05V195.25L434.539 195.05V193.8C434.539 189.967 435.622 188.05 437.789 188.05ZM438.089 191.65H437.639L437.439 193.5V195.05H437.639C439.506 194.983 440.439 194.783 440.439 194.45C439.572 193.15 438.789 192.217 438.089 191.65ZM451.91 178.45C452.844 178.783 453.31 179.3 453.31 180L453.81 199.05V205.2C453.81 206.333 453.327 206.9 452.36 206.9H451.71C451.11 206.5 450.81 206.033 450.81 205.5V199.7L450.36 179.9C450.36 179.067 450.877 178.583 451.91 178.45Z" fill="#464646"/>
<path d="M353.335 324.15C356.869 324.15 358.952 326.367 359.585 330.8C359.585 334.733 357.752 337.55 354.085 339.25C353.685 339.45 353.135 339.55 352.435 339.55H352.085L350.985 339.45V339.55L351.185 352.9C350.952 353.933 350.419 354.45 349.585 354.45C348.652 354.15 348.185 353.667 348.185 353L347.735 325.8C347.735 324.933 348.252 324.483 349.285 324.45L350.335 324.9C351.269 324.4 352.269 324.15 353.335 324.15ZM350.835 329.45L350.685 331L350.835 336.3L352.235 336.65C354.469 336.65 355.919 335.017 356.585 331.75V331C356.352 328.367 355.419 327.05 353.785 327.05H353.035C351.569 327.05 350.835 327.85 350.835 329.45ZM368.531 319.3C370.631 319.3 371.881 320.767 372.281 323.7V324.15C372.281 327.383 370.615 330.35 367.281 333.05C369.215 334.95 372.598 335.9 377.431 335.9C378.165 336.133 378.531 336.65 378.531 337.45C378.531 338.35 377.948 338.8 376.781 338.8C373.515 338.8 370.081 337.967 366.481 336.3V337.75C366.481 341.183 365.748 342.9 364.281 342.9C363.248 342.9 362.731 340.917 362.731 336.95V333.05L362.581 331.65L362.931 330.05L362.581 325.25V325.05C362.581 324.15 363.048 323.533 363.981 323.2C365.281 320.6 366.798 319.3 368.531 319.3ZM366.031 330.25C366.998 330.25 368.081 328.517 369.281 325.05V322.9L368.681 322.25H368.231C366.765 323.25 366.031 325.917 366.031 330.25ZM384.693 321.05C386.026 321.083 388.276 323.417 391.443 328.05L391.543 328.9C391.543 329.833 389.26 330.55 384.693 331.05L384.543 331.2V331.4C385.243 334.4 385.976 335.9 386.743 335.9H387.343C388.41 335.9 390.026 334.75 392.193 332.45H392.493C393.16 332.45 393.676 332.933 394.043 333.9C394.043 334.7 392.643 336.083 389.843 338.05C389.11 338.483 388.226 338.8 387.193 339C384.493 339 382.61 336.467 381.543 331.4C380.01 331.167 379.243 330.533 379.243 329.5C379.243 328.767 379.81 328.283 380.943 328.05V328.25L381.443 328.05V326.8C381.443 322.967 382.526 321.05 384.693 321.05ZM384.993 324.65H384.543L384.343 326.5V328.05H384.543C386.41 327.983 387.343 327.783 387.343 327.45C386.476 326.15 385.693 325.217 384.993 324.65ZM396.715 322.15C397.481 322.15 398.315 323.983 399.215 327.65C400.481 330.583 401.198 332.133 401.365 332.3C401.531 332.3 402.148 330.633 403.215 327.3C404.281 323.967 405.298 322.3 406.265 322.3C407.165 322.633 407.615 323.167 407.615 323.9C404.848 331.033 403.465 335.75 403.465 338.05L402.515 339H401.565C400.365 338.133 398.331 333.55 395.465 325.25L395.015 323.4C395.248 322.567 395.815 322.15 396.715 322.15ZM410.334 312.95C411.601 313.217 412.234 313.783 412.234 314.65C411.901 315.583 411.368 316.05 410.634 316.05C409.401 315.817 408.784 315.2 408.784 314.2C409.118 313.367 409.634 312.95 410.334 312.95ZM412.234 319.95C412.768 319.95 413.218 320.433 413.584 321.4L413.134 324.95V327.3C413.134 330.033 413.601 333.617 414.534 338.05C414.201 338.683 413.634 339 412.834 339C411.468 339 410.568 335 410.134 327V325.25C410.134 321.717 410.834 319.95 412.234 319.95ZM421.607 321.05C422.941 321.083 425.191 323.417 428.357 328.05L428.457 328.9C428.457 329.833 426.174 330.55 421.607 331.05L421.457 331.2V331.4C422.157 334.4 422.891 335.9 423.657 335.9H424.257C425.324 335.9 426.941 334.75 429.107 332.45H429.407C430.074 332.45 430.591 332.933 430.957 333.9C430.957 334.7 429.557 336.083 426.757 338.05C426.024 338.483 425.141 338.8 424.107 339C421.407 339 419.524 336.467 418.457 331.4C416.924 331.167 416.157 330.533 416.157 329.5C416.157 328.767 416.724 328.283 417.857 328.05V328.25L418.357 328.05V326.8C418.357 322.967 419.441 321.05 421.607 321.05ZM421.907 324.65H421.457L421.257 326.5V328.05H421.457C423.324 327.983 424.257 327.783 424.257 327.45C423.391 326.15 422.607 325.217 421.907 324.65ZM447.029 323.3C449.329 324.833 450.479 327.2 450.479 330.4C450.479 334.733 449.029 337.683 446.129 339.25L444.229 339.55C443.095 339.55 441.895 339 440.629 337.9H440.279C439.245 339.233 438.279 339.9 437.379 339.9C435.012 339.9 433.645 337.667 433.279 333.2V330.5C433.512 326.267 434.395 324.15 435.929 324.15C436.762 324.15 437.245 324.667 437.379 325.7C436.612 327.033 436.229 328.9 436.229 331.3V332.25C436.362 335.25 436.679 336.75 437.179 336.75C437.679 336.75 438.195 335.883 438.729 334.15L438.629 330.7C438.629 328.4 439.179 327.25 440.279 327.25C441.545 327.25 442.179 328.5 442.179 331H442.379L441.879 334.15C442.445 335.817 443.229 336.65 444.229 336.65H444.529C445.995 336.65 446.945 335.083 447.379 331.95V329.15C447.379 328.083 446.745 326.767 445.479 325.2L445.279 324.75C445.279 324.05 445.862 323.567 447.029 323.3ZM473.746 323.95L474.646 323.45C475.446 323.45 476.029 323.933 476.396 324.9C475.863 327.367 475.596 329.9 475.596 332.5C475.596 333.8 475.979 335.217 476.746 336.75H477.046C478.013 336.75 479.163 332.933 480.496 325.3C480.963 324.9 481.413 324.7 481.846 324.7C482.879 324.7 483.396 326.533 483.396 330.2C483.829 334.233 484.313 336.25 484.846 336.25L485.596 335.95C486.563 336.317 487.046 336.833 487.046 337.5C486.446 338.767 485.613 339.4 484.546 339.4C483.346 339.4 482.196 338.2 481.096 335.8C479.763 338.6 478.413 340 477.046 340C475.013 340 473.596 337.883 472.796 333.65L472.646 332.05V331.55C472.646 328.883 473.013 326.35 473.746 323.95ZM494.703 319.3C496.803 319.3 498.053 320.767 498.453 323.7V324.15C498.453 327.383 496.787 330.35 493.453 333.05C495.387 334.95 498.77 335.9 503.603 335.9C504.337 336.133 504.703 336.65 504.703 337.45C504.703 338.35 504.12 338.8 502.953 338.8C499.687 338.8 496.253 337.967 492.653 336.3V337.75C492.653 341.183 491.92 342.9 490.453 342.9C489.42 342.9 488.903 340.917 488.903 336.95V333.05L488.753 331.65L489.103 330.05L488.753 325.25V325.05C488.753 324.15 489.22 323.533 490.153 323.2C491.453 320.6 492.97 319.3 494.703 319.3ZM492.203 330.25C493.17 330.25 494.253 328.517 495.453 325.05V322.9L494.853 322.25H494.403C492.937 323.25 492.203 325.917 492.203 330.25ZM509.215 311.45C510.148 311.783 510.615 312.3 510.615 313L511.115 332.05V338.2C511.115 339.333 510.632 339.9 509.665 339.9H509.015C508.415 339.5 508.115 339.033 508.115 338.5V332.7L507.665 312.9C507.665 312.067 508.182 311.583 509.215 311.45Z" fill="#464646"/>
<path d="M1117.23 59.8824C1125.28 60.2153 1126.28 51.599 1126.3 48.5898C1126.36 39.6713 1130.03 19.7593 1126.39 12.2585C1122.48 4.2063 1087.27 5.69681 1072.25 5.43799C1027.1 4.6597 983.825 5.26789 935.75 5.25688C923.836 5.25382 911.423 4.57342 899.675 5.43982C887.852 6.31112 884.08 9.84404 882.847 14.9923C881.932 18.8122 881.343 38.9456 881.068 45.1658C880.936 48.1597 880.61 55.7701 884.516 58.1135C890.225 61.5406 905.108 60.9667 911.488 60.9599C925.559 60.9446 1074.71 60.8235 1112.73 59.8616" stroke="#2C2C2C" stroke-width="2" stroke-miterlimit="1.5" stroke-linecap="round" stroke-linejoin="round"/>
<path d="M903.874 28.15C907.408 28.15 909.491 30.3667 910.124 34.8C910.124 38.7333 908.291 41.55 904.624 43.25C904.224 43.45 903.674 43.55 902.974 43.55H902.624L901.524 43.45V43.55L901.724 56.9C901.491 57.9333 900.958 58.45 900.124 58.45C899.191 58.15 898.724 57.6667 898.724 57L898.274 29.8C898.274 28.9333 898.791 28.4833 899.824 28.45L900.874 28.9C901.808 28.4 902.808 28.15 903.874 28.15ZM901.374 33.45L901.224 35L901.374 40.3L902.774 40.65C905.008 40.65 906.458 39.0167 907.124 35.75V35C906.891 32.3667 905.958 31.05 904.324 31.05H903.574C902.108 31.05 901.374 31.85 901.374 33.45ZM921.821 23.7C923.287 23.7 924.021 24.2833 924.021 25.45L923.571 26.4L923.271 35.55C923.271 39.6833 924.104 42.25 925.771 43.25L925.871 44C925.771 44.9667 925.321 45.45 924.521 45.45H924.221C921.721 43.75 920.471 41.15 920.471 37.65H920.121C918.787 41.3833 917.171 43.25 915.271 43.25C913.504 42.75 912.621 41.4333 912.621 39.3C912.621 34.6 914.504 29.9167 918.271 25.25C919.537 24.2167 920.721 23.7 921.821 23.7ZM915.771 37.3L915.571 38.7V39.65H916.071C918.571 33.4167 919.821 29.6167 919.821 28.25H919.621C917.687 30.4167 916.404 33.4333 915.771 37.3ZM929.07 27.95L929.97 27.45C930.77 27.45 931.353 27.9333 931.72 28.9C931.187 31.3667 930.92 33.9 930.92 36.5C930.92 37.8 931.303 39.2167 932.07 40.75H932.37C933.337 40.75 934.487 36.9333 935.82 29.3C936.287 28.9 936.737 28.7 937.17 28.7C938.203 28.7 938.72 30.5333 938.72 34.2C939.153 38.2333 939.637 40.25 940.17 40.25L940.92 39.95C941.887 40.3167 942.37 40.8333 942.37 41.5C941.77 42.7667 940.937 43.4 939.87 43.4C938.67 43.4 937.52 42.2 936.42 39.8C935.087 42.6 933.737 44 932.37 44C930.337 44 928.92 41.8833 928.12 37.65L927.97 36.05V35.55C927.97 32.8833 928.337 30.35 929.07 27.95ZM953.478 22.75C954.378 22.75 954.994 24.2667 955.328 27.3C954.994 28.1333 954.444 28.55 953.678 28.55C953.144 28.45 952.611 27.8333 952.078 26.7L951.178 26.4C949.611 26.4 948.194 27.4333 946.928 29.5V29.95C946.928 30.45 949.278 31.2833 953.978 32.45C955.944 33.6167 956.928 35.0333 956.928 36.7C956.928 39.4333 954.728 41.7667 950.328 43.7L948.478 44C945.678 43.7 944.278 42.3 944.278 39.8V39.65C944.278 38.85 944.794 38.3833 945.828 38.25C946.628 38.25 947.161 39.0833 947.428 40.75L947.828 41.05H948.678C950.578 41.05 952.344 39.75 953.978 37.15V36.5C953.978 35.5 951.794 34.5667 947.428 33.7C945.128 32.7667 943.978 31.4667 943.978 29.8C943.978 27.6333 945.794 25.6 949.428 23.7C951.028 23.5 952.378 23.1833 953.478 22.75ZM968.11 23.7C969.576 23.7 970.31 24.2833 970.31 25.45L969.86 26.4L969.56 35.55C969.56 39.6833 970.393 42.25 972.06 43.25L972.16 44C972.06 44.9667 971.61 45.45 970.81 45.45H970.51C968.01 43.75 966.76 41.15 966.76 37.65H966.41C965.076 41.3833 963.46 43.25 961.56 43.25C959.793 42.75 958.91 41.4333 958.91 39.3C958.91 34.6 960.793 29.9167 964.56 25.25C965.826 24.2167 967.01 23.7 968.11 23.7ZM962.06 37.3L961.86 38.7V39.65H962.36C964.86 33.4167 966.11 29.6167 966.11 28.25H965.91C963.976 30.4167 962.693 33.4333 962.06 37.3ZM973.759 19.25C975.493 19.25 976.609 22.65 977.109 29.45L977.409 31C978.943 27.8667 980.193 26.3 981.159 26.3C981.159 26.1667 981.509 26.0667 982.209 26H982.409C984.609 26 986.009 27.7167 986.609 31.15V31.3C986.609 34.2333 985.143 37.4667 982.209 41C980.976 42.3333 979.626 43 978.159 43C976.493 42.6333 975.659 41.8 975.659 40.5L973.159 22.55L972.409 20.7C972.409 20.1 972.859 19.6167 973.759 19.25ZM978.959 39.55H979.109C980.843 38.85 982.359 36.4667 983.659 32.4V30.5C983.359 29.4667 982.976 28.95 982.509 28.95H982.109C980.643 29.8167 979.593 33.35 978.959 39.55ZM998.481 23.7C999.947 23.7 1000.68 24.2833 1000.68 25.45L1000.23 26.4L999.931 35.55C999.931 39.6833 1000.76 42.25 1002.43 43.25L1002.53 44C1002.43 44.9667 1001.98 45.45 1001.18 45.45H1000.88C998.381 43.75 997.131 41.15 997.131 37.65H996.781C995.447 41.3833 993.831 43.25 991.931 43.25C990.164 42.75 989.281 41.4333 989.281 39.3C989.281 34.6 991.164 29.9167 994.931 25.25C996.197 24.2167 997.381 23.7 998.481 23.7ZM992.431 37.3L992.231 38.7V39.65H992.731C995.231 33.4167 996.481 29.6167 996.481 28.25H996.281C994.347 30.4167 993.064 33.4333 992.431 37.3ZM1009.63 12.65C1010.56 12.85 1011.03 13.3167 1011.03 14.05L1010.73 16.25V16.9C1010.73 18.3667 1010.9 19.9167 1011.23 21.55H1011.33C1015.2 20.3833 1017.6 19.8 1018.53 19.8C1019.5 20.0667 1019.98 20.55 1019.98 21.25C1019.98 22.3833 1018.83 22.95 1016.53 22.95L1011.33 24.8C1011.33 29.3 1011.81 35.4167 1012.78 43.15C1012.58 44.05 1012.1 44.5 1011.33 44.5H1011.23C1010.06 44.5 1009.48 43 1009.48 40C1009.05 37.7667 1008.68 32.9167 1008.38 25.45H1007.48C1004.35 25.25 1002.78 24.5167 1002.78 23.25C1002.78 22.8833 1003.13 22.4333 1003.83 21.9H1004.33L1006.63 22.5H1008.23L1007.78 16.25C1007.78 13.85 1008.4 12.65 1009.63 12.65ZM1026 25.05C1027.34 25.0833 1029.59 27.4167 1032.75 32.05L1032.85 32.9C1032.85 33.8333 1030.57 34.55 1026 35.05L1025.85 35.2V35.4C1026.55 38.4 1027.29 39.9 1028.05 39.9H1028.65C1029.72 39.9 1031.34 38.75 1033.5 36.45H1033.8C1034.47 36.45 1034.99 36.9333 1035.35 37.9C1035.35 38.7 1033.95 40.0833 1031.15 42.05C1030.42 42.4833 1029.54 42.8 1028.5 43C1025.8 43 1023.92 40.4667 1022.85 35.4C1021.32 35.1667 1020.55 34.5333 1020.55 33.5C1020.55 32.7667 1021.12 32.2833 1022.25 32.05V32.25L1022.75 32.05V30.8C1022.75 26.9667 1023.84 25.05 1026 25.05ZM1026.3 28.65H1025.85L1025.65 30.5V32.05H1025.85C1027.72 31.9833 1028.65 31.7833 1028.65 31.45C1027.79 30.15 1027 29.2167 1026.3 28.65ZM1043.88 23.3C1045.98 23.3 1047.23 24.7667 1047.63 27.7V28.15C1047.63 31.3833 1045.96 34.35 1042.63 37.05C1044.56 38.95 1047.94 39.9 1052.78 39.9C1053.51 40.1333 1053.88 40.65 1053.88 41.45C1053.88 42.35 1053.29 42.8 1052.13 42.8C1048.86 42.8 1045.43 41.9667 1041.83 40.3V41.75C1041.83 45.1833 1041.09 46.9 1039.63 46.9C1038.59 46.9 1038.08 44.9167 1038.08 40.95V37.05L1037.93 35.65L1038.28 34.05L1037.93 29.25V29.05C1037.93 28.15 1038.39 27.5333 1039.33 27.2C1040.63 24.6 1042.14 23.3 1043.88 23.3ZM1041.38 34.25C1042.34 34.25 1043.43 32.5167 1044.63 29.05V26.9L1044.03 26.25H1043.58C1042.11 27.25 1041.38 29.9167 1041.38 34.25ZM1059.59 40.05C1060.29 40.05 1060.7 40.6167 1060.84 41.75C1060.64 42.9167 1060.05 43.5 1059.09 43.5C1058.42 43.5 1057.95 42.9167 1057.69 41.75C1058.09 40.6167 1058.72 40.05 1059.59 40.05ZM1076.37 15.55C1076.94 15.55 1077.45 16.0833 1077.92 17.15L1075.72 31.05V34.95C1075.72 39.0167 1076.35 41.05 1077.62 41.05C1078.45 41.45 1078.87 41.9833 1078.87 42.65C1078.87 43.4167 1078.2 43.8667 1076.87 44C1075.4 44 1074.25 42.65 1073.42 39.95H1072.92C1071.69 42.65 1070.19 44 1068.42 44C1066.35 44 1065.1 42.4333 1064.67 39.3C1064.67 35.6667 1067.1 31.8167 1071.97 27.75C1072.94 27.75 1073.42 26.4 1073.42 23.7C1074.15 18.2667 1075.14 15.55 1076.37 15.55ZM1067.62 38.9V40.25L1068.42 41.05H1068.72C1069.79 41.05 1071.04 37.8333 1072.47 31.4H1072.17C1069.14 34.4333 1067.62 36.9333 1067.62 38.9ZM1085.13 25.05C1086.47 25.0833 1088.72 27.4167 1091.88 32.05L1091.98 32.9C1091.98 33.8333 1089.7 34.55 1085.13 35.05L1084.98 35.2V35.4C1085.68 38.4 1086.42 39.9 1087.18 39.9H1087.78C1088.85 39.9 1090.47 38.75 1092.63 36.45H1092.93C1093.6 36.45 1094.12 36.9333 1094.48 37.9C1094.48 38.7 1093.08 40.0833 1090.28 42.05C1089.55 42.4833 1088.67 42.8 1087.63 43C1084.93 43 1083.05 40.4667 1081.98 35.4C1080.45 35.1667 1079.68 34.5333 1079.68 33.5C1079.68 32.7667 1080.25 32.2833 1081.38 32.05V32.25L1081.88 32.05V30.8C1081.88 26.9667 1082.97 25.05 1085.13 25.05ZM1085.43 28.65H1084.98L1084.78 30.5V32.05H1084.98C1086.85 31.9833 1087.78 31.7833 1087.78 31.45C1086.92 30.15 1086.13 29.2167 1085.43 28.65ZM1097.16 26.15C1097.92 26.15 1098.76 27.9833 1099.66 31.65C1100.92 34.5833 1101.64 36.1333 1101.81 36.3C1101.97 36.3 1102.59 34.6333 1103.66 31.3C1104.72 27.9667 1105.74 26.3 1106.71 26.3C1107.61 26.6333 1108.06 27.1667 1108.06 27.9C1105.29 35.0333 1103.91 39.75 1103.91 42.05L1102.96 43H1102.01C1100.81 42.1333 1098.77 37.55 1095.91 29.25L1095.46 27.4C1095.69 26.5667 1096.26 26.15 1097.16 26.15Z" fill="#464646"/>
<path d="M516.969 60.72H517.609C521.955 60.72 524.742 62.2933 525.969 65.44L526.089 66.72V67.12C526.089 70.2133 524.209 73.08 520.449 75.72C519.542 75.9867 519.089 76.28 519.089 76.6C520.155 80.68 520.689 84.0133 520.689 86.6V87.12C520.689 88.1867 520.249 88.72 519.369 88.72C518.702 88.64 518.369 88.3067 518.369 87.72V86.72C518.369 83.6533 517.809 80.32 516.689 76.72C514.529 76.5333 513.329 75.9467 513.089 74.96V74.72C513.089 74.24 513.462 73.8667 514.209 73.6L515.969 74.2V74.12C515.062 70.1733 514.609 67.5067 514.609 66.12C514.609 65.3467 515.062 64.96 515.969 64.96C516.795 64.96 517.209 66.3733 517.209 69.2L518.369 73.96C520.289 73.32 521.782 72.0667 522.849 70.2C523.409 69.1333 523.689 68.1867 523.689 67.36V66.84C523.689 64.6533 521.822 63.4133 518.089 63.12H516.449C512.795 63.52 510.969 64.3867 510.969 65.72V65.96C510.969 66.36 511.182 66.9867 511.609 67.84C511.609 68.4267 511.142 68.8 510.209 68.96C509.142 68.4533 508.609 67.4133 508.609 65.84C508.609 62.9067 511.395 61.2 516.969 60.72ZM534.612 64.24H534.772C537.998 64.8267 539.612 66.3867 539.612 68.92V69.64C539.612 72.44 537.825 75.2267 534.252 78V78.16C540.038 83.3333 544.038 85.92 546.252 85.92C546.652 86.2133 546.852 86.5733 546.852 87C546.852 87.6133 546.398 88 545.492 88.16C543.278 88.16 539.145 85.4933 533.092 80.16L531.372 79.24H531.252C531.998 82.2267 532.372 84.5333 532.372 86.16C532.372 86.8533 531.945 87.3467 531.092 87.64C529.865 87.64 529.092 84.64 528.772 78.64C527.918 75.8667 527.492 73.6533 527.492 72V71.64C527.492 69.2133 528.025 68 529.092 68L529.852 68.4H530.092C531.372 65.6267 532.878 64.24 534.612 64.24ZM531.372 74.92L531.252 76.4C533.732 76.4 535.732 74.3467 537.252 70.24V68.76C537.252 67.5867 536.452 66.88 534.852 66.64H534.612C532.932 66.64 531.852 69.4 531.372 74.92ZM564.271 73C564.458 72.3333 564.884 72 565.551 72C566.218 72 566.658 72.6667 566.871 74H567.031L568.871 73.6C569.724 73.6 570.551 74.4 571.351 76H571.511C572.684 74.16 573.884 73.24 575.111 73.24C577.724 73.72 579.031 75.4267 579.031 78.36L579.111 79.76L578.751 87.84V88.6C578.751 89.2667 578.338 89.6533 577.511 89.76C576.684 89.76 576.271 88.7867 576.271 86.84L576.751 79.6C576.751 76.9333 576.124 75.6 574.871 75.6C574.151 75.6 573.284 77.3467 572.271 80.84C571.764 84.84 571.351 86.84 571.031 86.84C570.578 86.84 570.351 86.9333 570.351 87.12C569.524 87.0133 569.111 86.5867 569.111 85.84L569.631 81C569.551 77.6667 569.218 76 568.631 76H568.511C567.844 76.5067 567.511 77.5067 567.511 79V81.12L567.351 87.24C567.164 87.9067 566.751 88.24 566.111 88.24C565.551 88.24 565.191 87.7733 565.031 86.84L564.871 82.12L565.111 78.24C564.951 76.24 564.671 74.4933 564.271 73ZM584.926 72.64C585.993 72.6667 587.793 74.5333 590.326 78.24L590.406 78.92C590.406 79.6667 588.58 80.24 584.926 80.64L584.806 80.76V80.92C585.366 83.32 585.953 84.52 586.566 84.52H587.046C587.9 84.52 589.193 83.6 590.926 81.76H591.166C591.7 81.76 592.113 82.1467 592.406 82.92C592.406 83.56 591.286 84.6667 589.046 86.24C588.46 86.5867 587.753 86.84 586.926 87C584.766 87 583.26 84.9733 582.406 80.92C581.18 80.7333 580.566 80.2267 580.566 79.4C580.566 78.8133 581.02 78.4267 581.926 78.24V78.4L582.326 78.24V77.24C582.326 74.1733 583.193 72.64 584.926 72.64ZM585.166 75.52H584.806L584.646 77V78.24H584.806C586.3 78.1867 587.046 78.0267 587.046 77.76C586.353 76.72 585.726 75.9733 585.166 75.52ZM599.224 71.24C600.904 71.24 601.904 72.4133 602.224 74.76V75.12C602.224 77.7067 600.89 80.08 598.224 82.24C599.77 83.76 602.477 84.52 606.344 84.52C606.93 84.7067 607.224 85.12 607.224 85.76C607.224 86.48 606.757 86.84 605.824 86.84C603.21 86.84 600.464 86.1733 597.584 84.84V86C597.584 88.7467 596.997 90.12 595.824 90.12C594.997 90.12 594.584 88.5333 594.584 85.36V82.24L594.464 81.12L594.744 79.84L594.464 76V75.84C594.464 75.12 594.837 74.6267 595.584 74.36C596.624 72.28 597.837 71.24 599.224 71.24ZM597.224 80C597.997 80 598.864 78.6133 599.824 75.84V74.12L599.344 73.6H598.984C597.81 74.4 597.224 76.5333 597.224 80ZM614.993 71.64C616.22 71.64 616.833 72.2267 616.833 73.4C616.993 73.4 617.073 73.6 617.073 74H617.233L617.073 75.16L617.233 83.24L616.993 89.64C619.393 89.64 621.006 91.4 621.833 94.92C621.833 95.64 621.34 96.0533 620.353 96.16C619.9 96.16 619.393 95.16 618.833 93.16C618.3 92.3867 617.686 92 616.993 92H616.833C615.98 97.68 615.233 100.52 614.593 100.52C613.82 101.933 612.7 102.64 611.233 102.64C609.073 102.133 607.993 101.053 607.993 99.4V99.16C607.993 96.6533 609.78 93.9333 613.353 91L614.593 90.24L614.753 85.92V84.92H614.593C613.686 86.0667 612.82 86.64 611.993 86.64H611.753C609.913 86.64 608.86 85.2267 608.593 82.4V81.52C608.593 78.1067 609.846 75.1467 612.353 72.64C613.126 71.9733 614.006 71.64 614.993 71.64ZM610.993 81V82.92C611.1 83.8 611.3 84.24 611.593 84.24H611.993C612.74 84.24 613.66 81.4933 614.753 76V74C613.153 74 611.9 76.3333 610.993 81ZM610.353 99.24C610.46 99.9067 610.833 100.24 611.473 100.24C612.753 100.24 613.673 97.96 614.233 93.4H613.993C611.566 95.5067 610.353 97.4533 610.353 99.24ZM622.934 72.64C624.001 72.6667 625.801 74.5333 628.334 78.24L628.414 78.92C628.414 79.6667 626.588 80.24 622.934 80.64L622.814 80.76V80.92C623.374 83.32 623.961 84.52 624.574 84.52H625.054C625.908 84.52 627.201 83.6 628.934 81.76H629.174C629.708 81.76 630.121 82.1467 630.414 82.92C630.414 83.56 629.294 84.6667 627.054 86.24C626.468 86.5867 625.761 86.84 624.934 87C622.774 87 621.268 84.9733 620.414 80.92C619.188 80.7333 618.574 80.2267 618.574 79.4C618.574 78.8133 619.028 78.4267 619.934 78.24V78.4L620.334 78.24V77.24C620.334 74.1733 621.201 72.64 622.934 72.64ZM623.174 75.52H622.814L622.654 77V78.24H622.814C624.308 78.1867 625.054 78.0267 625.054 77.76C624.361 76.72 623.734 75.9733 623.174 75.52ZM531.242 97.72C531.988 97.88 532.362 98.2533 532.362 98.84L532.122 100.6V101.12C532.122 102.293 532.255 103.533 532.522 104.84H532.602C535.695 103.907 537.615 103.44 538.362 103.44C539.135 103.653 539.522 104.04 539.522 104.6C539.522 105.507 538.602 105.96 536.762 105.96L532.602 107.44C532.602 111.04 532.988 115.933 533.762 122.12C533.602 122.84 533.215 123.2 532.602 123.2H532.522C531.588 123.2 531.122 122 531.122 119.6C530.775 117.813 530.482 113.933 530.242 107.96H529.522C527.015 107.8 525.762 107.213 525.762 106.2C525.762 105.907 526.042 105.547 526.602 105.12H527.002L528.842 105.6H530.122L529.762 100.6C529.762 98.68 530.255 97.72 531.242 97.72ZM547.14 106.92C549.114 106.92 550.607 108.387 551.62 111.32L551.78 112.16C551.78 115.013 550.447 117.933 547.78 120.92C546.714 121.907 545.634 122.4 544.54 122.4C542.94 122.4 541.807 121.48 541.14 119.64C540.9 118.787 540.78 118.04 540.78 117.4V116.92C540.78 112.707 542.314 109.507 545.38 107.32C545.914 107.053 546.5 106.92 547.14 106.92ZM543.14 117.32C543.14 119.133 543.607 120.04 544.54 120.04C546.487 120.04 548.1 117.547 549.38 112.56V111.8C548.927 110.147 548.087 109.32 546.86 109.32C546.38 109.32 546.14 109.653 546.14 110.32C546.14 110.773 545.607 111.133 544.54 111.4C543.607 112.973 543.14 114.947 543.14 117.32ZM569.271 108C569.458 107.333 569.884 107 570.551 107C571.218 107 571.658 107.667 571.871 109H572.031L573.871 108.6C574.724 108.6 575.551 109.4 576.351 111H576.511C577.684 109.16 578.884 108.24 580.111 108.24C582.724 108.72 584.031 110.427 584.031 113.36L584.111 114.76L583.751 122.84V123.6C583.751 124.267 583.338 124.653 582.511 124.76C581.684 124.76 581.271 123.787 581.271 121.84L581.751 114.6C581.751 111.933 581.124 110.6 579.871 110.6C579.151 110.6 578.284 112.347 577.271 115.84C576.764 119.84 576.351 121.84 576.031 121.84C575.578 121.84 575.351 121.933 575.351 122.12C574.524 122.013 574.111 121.587 574.111 120.84L574.631 116C574.551 112.667 574.218 111 573.631 111H573.511C572.844 111.507 572.511 112.507 572.511 114V116.12L572.351 122.24C572.164 122.907 571.751 123.24 571.111 123.24C570.551 123.24 570.191 122.773 570.031 121.84L569.871 117.12L570.111 113.24C569.951 111.24 569.671 109.493 569.271 108ZM593.806 106.56C594.98 106.56 595.566 107.027 595.566 107.96L595.206 108.72L594.966 116.04C594.966 119.347 595.633 121.4 596.966 122.2L597.046 122.8C596.966 123.573 596.606 123.96 595.966 123.96H595.726C593.726 122.6 592.726 120.52 592.726 117.72H592.446C591.38 120.707 590.086 122.2 588.566 122.2C587.153 121.8 586.446 120.747 586.446 119.04C586.446 115.28 587.953 111.533 590.966 107.8C591.98 106.973 592.926 106.56 593.806 106.56ZM588.966 117.44L588.806 118.56V119.32H589.206C591.206 114.333 592.206 111.293 592.206 110.2H592.046C590.5 111.933 589.473 114.347 588.966 117.44ZM598.486 101.16C599.499 101.373 600.006 101.827 600.006 102.52C599.739 103.267 599.313 103.64 598.726 103.64C597.739 103.453 597.246 102.96 597.246 102.16C597.513 101.493 597.926 101.16 598.486 101.16ZM600.006 106.76C600.433 106.76 600.793 107.147 601.086 107.92L600.726 110.76V112.64C600.726 114.827 601.099 117.693 601.846 121.24C601.579 121.747 601.126 122 600.486 122C599.393 122 598.673 118.8 598.326 112.4V111C598.326 108.173 598.886 106.76 600.006 106.76ZM609.105 108.52C611.371 108.707 612.505 109.813 612.505 111.84L612.585 112.36L612.505 118.6C612.505 119.32 612.918 120.293 613.745 121.52V121.6C613.531 122.373 613.145 122.76 612.585 122.76C610.931 122.067 610.105 120.6 610.105 118.36V117.84L609.985 117.76L610.105 117.6V117.52L610.225 112C610.225 111.227 609.891 110.84 609.225 110.84H608.745C607.411 111.373 606.745 114.293 606.745 119.6C606.745 121.44 606.278 122.36 605.345 122.36C604.625 122.36 604.251 121.907 604.225 121V117C604.225 111.827 604.678 109.24 605.585 109.24L605.985 109.12L606.825 109.24C607.545 108.76 608.305 108.52 609.105 108.52Z" fill="#464646"/>
<path d="M516 30.9167C529.716 30.8964 543.193 30.1966 556.475 30.177C571.538 30.1547 586.161 30.8128 600.908 30.791C614.531 30.7708 603.973 30.974 617.573 30.7663" stroke="#5C55A3" stroke-width="2" stroke-linecap="round"/>
<path d="M813.508 69.04C813.961 69.04 814.374 69.4667 814.748 70.32L812.988 81.44V84.56C812.988 87.8133 813.494 89.44 814.508 89.44C815.174 89.76 815.508 90.1867 815.508 90.72C815.508 91.3333 814.974 91.6933 813.908 91.8C812.734 91.8 811.814 90.72 811.148 88.56H810.748C809.761 90.72 808.561 91.8 807.148 91.8C805.494 91.8 804.494 90.5467 804.148 88.04C804.148 85.1333 806.094 82.0533 809.988 78.8C810.761 78.8 811.148 77.72 811.148 75.56C811.734 71.2133 812.521 69.04 813.508 69.04ZM806.508 87.72V88.8L807.148 89.44H807.388C808.241 89.44 809.241 86.8667 810.388 81.72H810.148C807.721 84.1467 806.508 86.1467 806.508 87.72ZM820.52 76.64C821.587 76.6667 823.387 78.5333 825.92 82.24L826 82.92C826 83.6667 824.173 84.24 820.52 84.64L820.4 84.76V84.92C820.96 87.32 821.547 88.52 822.16 88.52H822.64C823.493 88.52 824.787 87.6 826.52 85.76H826.76C827.293 85.76 827.707 86.1467 828 86.92C828 87.56 826.88 88.6667 824.64 90.24C824.053 90.5867 823.347 90.84 822.52 91C820.36 91 818.853 88.9733 818 84.92C816.773 84.7333 816.16 84.2267 816.16 83.4C816.16 82.8133 816.613 82.4267 817.52 82.24V82.4L817.92 82.24V81.24C817.92 78.1733 818.787 76.64 820.52 76.64ZM820.76 79.52H820.4L820.24 81V82.24H820.4C821.893 82.1867 822.64 82.0267 822.64 81.76C821.947 80.72 821.32 79.9733 820.76 79.52ZM834.457 79.12C837.284 79.12 838.951 80.8933 839.457 84.44C839.457 87.5867 837.991 89.84 835.057 91.2C834.737 91.36 834.297 91.44 833.737 91.44H833.457L832.577 91.36V91.44L832.737 102.12C832.551 102.947 832.124 103.36 831.457 103.36C830.711 103.12 830.337 102.733 830.337 102.2L829.977 80.44C829.977 79.7467 830.391 79.3867 831.217 79.36L832.057 79.72C832.804 79.32 833.604 79.12 834.457 79.12ZM832.457 83.36L832.337 84.6L832.457 88.84L833.577 89.12C835.364 89.12 836.524 87.8133 837.057 85.2V84.6C836.871 82.4933 836.124 81.44 834.817 81.44H834.217C833.044 81.44 832.457 82.08 832.457 83.36ZM843.614 68.96C844.361 69.2267 844.734 69.64 844.734 70.2L845.134 85.44V90.36C845.134 91.2667 844.748 91.72 843.974 91.72H843.454C842.974 91.4 842.734 91.0267 842.734 90.6V85.96L842.374 70.12C842.374 69.4533 842.788 69.0667 843.614 68.96ZM854.414 75.92C856.387 75.92 857.881 77.3867 858.894 80.32L859.054 81.16C859.054 84.0133 857.721 86.9333 855.054 89.92C853.987 90.9067 852.907 91.4 851.814 91.4C850.214 91.4 849.081 90.48 848.414 88.64C848.174 87.7867 848.054 87.04 848.054 86.4V85.92C848.054 81.7067 849.587 78.5067 852.654 76.32C853.187 76.0533 853.774 75.92 854.414 75.92ZM850.414 86.32C850.414 88.1333 850.881 89.04 851.814 89.04C853.761 89.04 855.374 86.5467 856.654 81.56V80.8C856.201 79.1467 855.361 78.32 854.134 78.32C853.654 78.32 853.414 78.6533 853.414 79.32C853.414 79.7733 852.881 80.1333 851.814 80.4C850.881 81.9733 850.414 83.9467 850.414 86.32ZM862.106 79C863.04 79 863.68 81.0533 864.026 85.16C864.48 87.0533 864.813 88 865.026 88H865.266C865.933 86.32 866.266 84.6533 866.266 83L866.026 80.24C866.32 79.52 866.733 79.16 867.266 79.16C868.253 79.16 868.746 80.9067 868.746 84.4C869.333 88.0267 869.626 91.4 869.626 94.52V96.4C869.626 102.133 868 106 864.746 108L863.866 108.16C862.346 108.16 860.933 106.747 859.626 103.92L859.266 101.52V101.4C859.266 99.64 859.76 98.76 860.746 98.76L861.746 99.4L861.626 101.92C861.626 103.147 862.253 104.387 863.506 105.64H864.026C865.493 105.64 866.573 102.84 867.266 97.24L867.346 94.92C867.32 92.2267 867.213 90.5067 867.026 89.76C865.96 90.6933 865.12 91.16 864.506 91.16C863.146 91.16 861.933 87.52 860.866 80.24L860.746 80.16C860.746 79.5467 861.2 79.16 862.106 79Z" fill="#464646"/>
<path d="M450.683 239.04C451.137 239.04 451.55 239.467 451.923 240.32L450.163 251.44V254.56C450.163 257.813 450.67 259.44 451.683 259.44C452.35 259.76 452.683 260.187 452.683 260.72C452.683 261.333 452.15 261.693 451.083 261.8C449.91 261.8 448.99 260.72 448.323 258.56H447.923C446.937 260.72 445.737 261.8 444.323 261.8C442.67 261.8 441.67 260.547 441.323 258.04C441.323 255.133 443.27 252.053 447.163 248.8C447.937 248.8 448.323 247.72 448.323 245.56C448.91 241.213 449.697 239.04 450.683 239.04ZM443.683 257.72V258.8L444.323 259.44H444.563C445.417 259.44 446.417 256.867 447.563 251.72H447.323C444.897 254.147 443.683 256.147 443.683 257.72ZM457.696 246.64C458.763 246.667 460.563 248.533 463.096 252.24L463.176 252.92C463.176 253.667 461.349 254.24 457.696 254.64L457.576 254.76V254.92C458.136 257.32 458.723 258.52 459.336 258.52H459.816C460.669 258.52 461.963 257.6 463.696 255.76H463.936C464.469 255.76 464.883 256.147 465.176 256.92C465.176 257.56 464.056 258.667 461.816 260.24C461.229 260.587 460.523 260.84 459.696 261C457.536 261 456.029 258.973 455.176 254.92C453.949 254.733 453.336 254.227 453.336 253.4C453.336 252.813 453.789 252.427 454.696 252.24V252.4L455.096 252.24V251.24C455.096 248.173 455.963 246.64 457.696 246.64ZM457.936 249.52H457.576L457.416 251V252.24H457.576C459.069 252.187 459.816 252.027 459.816 251.76C459.123 250.72 458.496 249.973 457.936 249.52ZM471.633 249.12C474.46 249.12 476.126 250.893 476.633 254.44C476.633 257.587 475.166 259.84 472.233 261.2C471.913 261.36 471.473 261.44 470.913 261.44H470.633L469.753 261.36V261.44L469.913 272.12C469.726 272.947 469.3 273.36 468.633 273.36C467.886 273.12 467.513 272.733 467.513 272.2L467.153 250.44C467.153 249.747 467.566 249.387 468.393 249.36L469.233 249.72C469.98 249.32 470.78 249.12 471.633 249.12ZM469.633 253.36L469.513 254.6L469.633 258.84L470.753 259.12C472.54 259.12 473.7 257.813 474.233 255.2V254.6C474.046 252.493 473.3 251.44 471.993 251.44H471.393C470.22 251.44 469.633 252.08 469.633 253.36ZM480.79 238.96C481.537 239.227 481.91 239.64 481.91 240.2L482.31 255.44V260.36C482.31 261.267 481.923 261.72 481.15 261.72H480.63C480.15 261.4 479.91 261.027 479.91 260.6V255.96L479.55 240.12C479.55 239.453 479.963 239.067 480.79 238.96ZM491.59 245.92C493.563 245.92 495.056 247.387 496.07 250.32L496.23 251.16C496.23 254.013 494.896 256.933 492.23 259.92C491.163 260.907 490.083 261.4 488.99 261.4C487.39 261.4 486.256 260.48 485.59 258.64C485.35 257.787 485.23 257.04 485.23 256.4V255.92C485.23 251.707 486.763 248.507 489.83 246.32C490.363 246.053 490.95 245.92 491.59 245.92ZM487.59 256.32C487.59 258.133 488.056 259.04 488.99 259.04C490.936 259.04 492.55 256.547 493.83 251.56V250.8C493.376 249.147 492.536 248.32 491.31 248.32C490.83 248.32 490.59 248.653 490.59 249.32C490.59 249.773 490.056 250.133 488.99 250.4C488.056 251.973 487.59 253.947 487.59 256.32ZM499.282 249C500.216 249 500.856 251.053 501.202 255.16C501.656 257.053 501.989 258 502.202 258H502.442C503.109 256.32 503.442 254.653 503.442 253L503.202 250.24C503.496 249.52 503.909 249.16 504.442 249.16C505.429 249.16 505.922 250.907 505.922 254.4C506.509 258.027 506.802 261.4 506.802 264.52V266.4C506.802 272.133 505.176 276 501.922 278L501.042 278.16C499.522 278.16 498.109 276.747 496.802 273.92L496.442 271.52V271.4C496.442 269.64 496.936 268.76 497.922 268.76L498.922 269.4L498.802 271.92C498.802 273.147 499.429 274.387 500.682 275.64H501.202C502.669 275.64 503.749 272.84 504.442 267.24L504.522 264.92C504.496 262.227 504.389 260.507 504.202 259.76C503.136 260.693 502.296 261.16 501.682 261.16C500.322 261.16 499.109 257.52 498.042 250.24L497.922 250.16C497.922 249.547 498.376 249.16 499.282 249ZM528.586 249.12C531.413 249.12 533.08 250.893 533.586 254.44C533.586 257.587 532.12 259.84 529.186 261.2C528.866 261.36 528.426 261.44 527.866 261.44H527.586L526.706 261.36V261.44L526.866 272.12C526.68 272.947 526.253 273.36 525.586 273.36C524.84 273.12 524.466 272.733 524.466 272.2L524.106 250.44C524.106 249.747 524.52 249.387 525.346 249.36L526.186 249.72C526.933 249.32 527.733 249.12 528.586 249.12ZM526.586 253.36L526.466 254.6L526.586 258.84L527.706 259.12C529.493 259.12 530.653 257.813 531.186 255.2V254.6C531 252.493 530.253 251.44 528.946 251.44H528.346C527.173 251.44 526.586 252.08 526.586 253.36ZM540.743 245.24C542.423 245.24 543.423 246.413 543.743 248.76V249.12C543.743 251.707 542.41 254.08 539.743 256.24C541.29 257.76 543.996 258.52 547.863 258.52C548.45 258.707 548.743 259.12 548.743 259.76C548.743 260.48 548.276 260.84 547.343 260.84C544.73 260.84 541.983 260.173 539.103 258.84V260C539.103 262.747 538.516 264.12 537.343 264.12C536.516 264.12 536.103 262.533 536.103 259.36V256.24L535.983 255.12L536.263 253.84L535.983 250V249.84C535.983 249.12 536.356 248.627 537.103 248.36C538.143 246.28 539.356 245.24 540.743 245.24ZM538.743 254C539.516 254 540.383 252.613 541.343 249.84V248.12L540.863 247.6H540.503C539.33 248.4 538.743 250.533 538.743 254ZM553.673 246.64C554.739 246.667 556.539 248.533 559.073 252.24L559.153 252.92C559.153 253.667 557.326 254.24 553.673 254.64L553.553 254.76V254.92C554.113 257.32 554.699 258.52 555.313 258.52H555.793C556.646 258.52 557.939 257.6 559.673 255.76H559.913C560.446 255.76 560.859 256.147 561.153 256.92C561.153 257.56 560.033 258.667 557.793 260.24C557.206 260.587 556.499 260.84 555.673 261C553.513 261 552.006 258.973 551.153 254.92C549.926 254.733 549.312 254.227 549.312 253.4C549.312 252.813 549.766 252.427 550.673 252.24V252.4L551.073 252.24V251.24C551.073 248.173 551.939 246.64 553.673 246.64ZM553.913 249.52H553.553L553.393 251V252.24H553.553C555.046 252.187 555.793 252.027 555.793 251.76C555.099 250.72 554.473 249.973 553.913 249.52ZM563.29 247.52C563.903 247.52 564.57 248.987 565.29 251.92C566.303 254.267 566.876 255.507 567.01 255.64C567.143 255.64 567.636 254.307 568.49 251.64C569.343 248.973 570.156 247.64 570.93 247.64C571.65 247.907 572.01 248.333 572.01 248.92C569.796 254.627 568.69 258.4 568.69 260.24L567.93 261H567.17C566.21 260.307 564.583 256.64 562.29 250L561.93 248.52C562.116 247.853 562.57 247.52 563.29 247.52ZM574.185 240.16C575.199 240.373 575.705 240.827 575.705 241.52C575.439 242.267 575.012 242.64 574.425 242.64C573.439 242.453 572.945 241.96 572.945 241.16C573.212 240.493 573.625 240.16 574.185 240.16ZM575.705 245.76C576.132 245.76 576.492 246.147 576.785 246.92L576.425 249.76V251.64C576.425 253.827 576.799 256.693 577.545 260.24C577.279 260.747 576.825 261 576.185 261C575.092 261 574.372 257.8 574.025 251.4V250C574.025 247.173 574.585 245.76 575.705 245.76ZM583.204 246.64C584.27 246.667 586.07 248.533 588.604 252.24L588.684 252.92C588.684 253.667 586.857 254.24 583.204 254.64L583.084 254.76V254.92C583.644 257.32 584.23 258.52 584.844 258.52H585.324C586.177 258.52 587.47 257.6 589.204 255.76H589.444C589.977 255.76 590.39 256.147 590.684 256.92C590.684 257.56 589.564 258.667 587.324 260.24C586.737 260.587 586.03 260.84 585.204 261C583.044 261 581.537 258.973 580.684 254.92C579.457 254.733 578.844 254.227 578.844 253.4C578.844 252.813 579.297 252.427 580.204 252.24V252.4L580.604 252.24V251.24C580.604 248.173 581.47 246.64 583.204 246.64ZM583.444 249.52H583.084L582.924 251V252.24H583.084C584.577 252.187 585.324 252.027 585.324 251.76C584.63 250.72 584.004 249.973 583.444 249.52ZM603.541 248.44C605.381 249.667 606.301 251.56 606.301 254.12C606.301 257.587 605.141 259.947 602.821 261.2L601.301 261.44C600.394 261.44 599.434 261 598.421 260.12H598.141C597.314 261.187 596.541 261.72 595.821 261.72C593.928 261.72 592.834 259.933 592.541 256.36V254.2C592.728 250.813 593.434 249.12 594.661 249.12C595.328 249.12 595.714 249.533 595.821 250.36C595.208 251.427 594.901 252.92 594.901 254.84V255.6C595.008 258 595.261 259.2 595.661 259.2C596.061 259.2 596.474 258.507 596.901 257.12L596.821 254.36C596.821 252.52 597.261 251.6 598.141 251.6C599.154 251.6 599.661 252.6 599.661 254.6H599.821L599.421 257.12C599.874 258.453 600.501 259.12 601.301 259.12H601.541C602.714 259.12 603.474 257.867 603.821 255.36V253.12C603.821 252.267 603.314 251.213 602.301 249.96L602.141 249.6C602.141 249.04 602.608 248.653 603.541 248.44Z" fill="#464646"/>
<path d="M615.965 37.0706C615.994 37.144 616.114 36.8869 616.144 36.8569C616.493 36.5111 616.804 36.0558 617.117 35.6507C617.479 35.1821 617.75 34.5956 618.083 34.089C618.319 33.7282 618.611 33.4392 618.875 33.1173C619.505 32.3474 620.012 31.4205 620.606 30.6048C620.745 30.4133 620.864 30.2172 620.984 30.006C621.095 29.8099 619.911 28.4248 619.731 28.2477C618.962 27.4911 618.024 27.0954 617.263 26.2866C617.007 26.0141 616.694 25.7808 616.463 25.4767C616.348 25.3263 616.171 25.2151 616.121 25.009" stroke="#5C55A3" stroke-width="2" stroke-linecap="round"/>
<path d="M615.965 37.0706C615.994 37.144 616.114 36.8869 616.144 36.8569C616.493 36.5111 616.804 36.0558 617.117 35.6507C617.479 35.1821 617.75 34.5956 618.083 34.089C618.319 33.7282 618.611 33.4392 618.875 33.1173C619.505 32.3474 620.012 31.4205 620.606 30.6048C620.745 30.4133 620.864 30.2172 620.984 30.006C621.095 29.8099 619.911 28.4248 619.731 28.2477C618.962 27.4911 618.024 27.0954 617.263 26.2866C617.007 26.0141 616.694 25.7808 616.463 25.4767C616.348 25.3263 616.171 25.2151 616.121 25.009" stroke="#5C55A3" stroke-width="2" stroke-linecap="round"/>
<path d="M803 33.8301C809.053 33.8211 815.001 33.1326 820.863 33.1239C827.511 33.1141 833.965 33.7843 840.474 33.7746C846.486 33.7657 841.827 33.9602 847.829 33.7638" stroke="#5C55A3" stroke-width="2" stroke-linecap="round"/>
<path d="M851.011 41.0706C851.041 41.144 851.161 40.8869 851.191 40.8569C851.54 40.5111 851.851 40.0558 852.164 39.6507C852.525 39.1821 852.797 38.5956 853.129 38.089C853.366 37.7282 853.658 37.4392 853.922 37.1173C854.552 36.3474 855.059 35.4205 855.653 34.6048C855.792 34.4133 855.911 34.2172 856.031 34.006C856.142 33.8099 854.958 32.4248 854.778 32.2477C854.009 31.4911 853.071 31.0954 852.31 30.2866C852.054 30.0141 851.741 29.7808 851.51 29.4767C851.395 29.3263 851.218 29.2151 851.167 29.009" stroke="#5C55A3" stroke-width="2" stroke-linecap="round"/>
<g clip-path="url(#clip0_0_1)">
<path fill-rule="evenodd" clip-rule="evenodd" d="M343.448 12C333.8 12 326 20.0208 326 29.9437C326 37.8756 330.997 44.5897 337.93 46.9661C338.797 47.1447 339.115 46.58 339.115 46.1049C339.115 45.689 339.086 44.2631 339.086 42.7774C334.233 43.8471 333.222 40.6384 333.222 40.6384C332.442 38.5588 331.286 38.0243 331.286 38.0243C329.698 36.9251 331.402 36.9251 331.402 36.9251C333.164 37.044 334.089 38.767 334.089 38.767C335.648 41.4999 338.161 40.7277 339.173 40.2523C339.317 39.0936 339.779 38.2916 340.27 37.846C336.399 37.4301 332.326 35.8853 332.326 28.9929C332.326 27.0321 333.019 25.428 334.117 24.1804C333.944 23.7348 333.337 21.8926 334.291 19.4269C334.291 19.4269 335.764 18.9515 339.086 21.2688C340.508 20.876 341.975 20.6762 343.448 20.6745C344.921 20.6745 346.423 20.8827 347.81 21.2688C351.132 18.9515 352.605 19.4269 352.605 19.4269C353.559 21.8926 352.951 23.7348 352.778 24.1804C353.905 25.428 354.569 27.0321 354.569 28.9929C354.569 35.8853 350.496 37.4002 346.596 37.846C347.232 38.4104 347.781 39.4797 347.781 41.1732C347.781 43.5795 347.752 45.5107 347.752 46.1046C347.752 46.58 348.07 47.1447 348.936 46.9665C355.869 44.5894 360.867 37.8756 360.867 29.9437C360.895 20.0208 353.067 12 343.448 12Z" fill="#24292F"/>
</g>
<path d="M667 19L679.124 40H654.876L667 19Z" fill="#464646"/>
<defs>
<clipPath id="clip0_0_1">
<rect width="35" height="35" fill="white" transform="translate(326 12)"/>
</clipPath>
</defs>
</svg>
