<svg width="1319" height="809" viewBox="0 0 1319 809" fill="none" xmlns="http://www.w3.org/2000/svg">
<path d="M752.747 684.47C668.652 683.259 586.028 681.568 504.595 680.395C412.243 679.065 322.591 678.275 232.172 676.973C148.65 675.77 213.38 676.841 130.001 675.502" stroke="#464646" stroke-linecap="round"/>
<path d="M1184.34 312.93C1138.03 312.203 1092.53 310.945 1047.69 310.24C996.832 309.441 947.459 309.209 897.666 308.427C851.671 307.705 887.316 308.415 841.401 307.543" stroke="#464646" stroke-linecap="round"/>
<path d="M903.221 345.521C894.818 345.389 886.57 344.716 878.434 344.588C869.207 344.443 860.243 344.846 851.209 344.704C842.864 344.573 849.329 344.824 841.001 344.543" stroke="#464646" stroke-linecap="round"/>
<path d="M1093.22 349.521C1084.82 349.389 1076.57 348.716 1068.43 348.588C1059.21 348.443 1050.24 348.846 1041.21 348.704C1032.86 348.573 1039.33 348.824 1031 348.543" stroke="#464646" stroke-linecap="round"/>
<path d="M1185.22 351.521C1176.82 351.389 1168.57 350.716 1160.43 350.588C1151.21 350.443 1142.24 350.846 1133.21 350.704C1124.86 350.573 1131.33 350.824 1123 350.543" stroke="#464646" stroke-linecap="round"/>
<path d="M902.221 420.521C893.818 420.389 885.57 419.716 877.434 419.588C868.207 419.443 859.243 419.846 850.209 419.704C841.864 419.573 848.329 419.824 840.001 419.543" stroke="#464646" stroke-linecap="round"/>
<path d="M1092.22 424.521C1083.82 424.389 1075.57 423.716 1067.43 423.588C1058.21 423.443 1049.24 423.846 1040.21 423.704C1031.86 423.573 1038.33 423.824 1030 423.543" stroke="#464646" stroke-linecap="round"/>
<path d="M1184.22 426.521C1175.82 426.389 1167.57 425.716 1159.43 425.588C1150.21 425.443 1141.24 425.846 1132.21 425.704C1123.86 425.573 1130.33 425.824 1122 425.543" stroke="#464646" stroke-linecap="round"/>
<path d="M904.221 495.521C895.818 495.389 887.57 494.716 879.434 494.588C870.207 494.443 861.243 494.846 852.209 494.704C843.864 494.573 850.329 494.824 842.001 494.543" stroke="#464646" stroke-linecap="round"/>
<path d="M1094.22 499.521C1085.82 499.389 1077.57 498.716 1069.43 498.588C1060.21 498.443 1051.24 498.846 1042.21 498.704C1033.86 498.573 1040.33 498.824 1032 498.543" stroke="#464646" stroke-linecap="round"/>
<path d="M1186.22 501.521C1177.82 501.389 1169.57 500.716 1161.43 500.588C1152.21 500.443 1143.24 500.846 1134.21 500.704C1125.86 500.573 1132.33 500.824 1124 500.543" stroke="#464646" stroke-linecap="round"/>
<path d="M903.221 570.521C894.818 570.389 886.57 569.716 878.434 569.588C869.207 569.443 860.243 569.846 851.209 569.704C842.864 569.573 849.329 569.824 841.001 569.543" stroke="#464646" stroke-linecap="round"/>
<path d="M1093.22 574.521C1084.82 574.389 1076.57 573.716 1068.43 573.588C1059.21 573.443 1050.24 573.846 1041.21 573.704C1032.86 573.573 1039.33 573.824 1031 573.543" stroke="#464646" stroke-linecap="round"/>
<path d="M1185.22 576.521C1176.82 576.389 1168.57 575.716 1160.43 575.588C1151.21 575.443 1142.24 575.846 1133.21 575.704C1124.86 575.573 1131.33 575.824 1123 575.543" stroke="#464646" stroke-linecap="round"/>
<path d="M904.221 646.521C895.818 646.389 887.57 645.716 879.434 645.588C870.207 645.443 861.243 645.846 852.209 645.704C843.864 645.573 850.329 645.824 842.001 645.543" stroke="#464646" stroke-linecap="round"/>
<path d="M1094.22 650.521C1085.82 650.389 1077.57 649.716 1069.43 649.588C1060.21 649.443 1051.24 649.846 1042.21 649.704C1033.86 649.573 1040.33 649.824 1032 649.543" stroke="#464646" stroke-linecap="round"/>
<path d="M1186.22 652.521C1177.82 652.389 1169.57 651.716 1161.43 651.588C1152.21 651.443 1143.24 651.846 1134.21 651.704C1125.86 651.573 1132.33 651.824 1124 651.543" stroke="#464646" stroke-linecap="round"/>
<path d="M1183.94 387.282C1137.63 386.559 1092.13 385.305 1047.29 384.605C996.432 383.812 947.058 383.585 897.265 382.808C851.271 382.09 886.916 382.796 841.001 381.93" stroke="#464646" stroke-linecap="round"/>
<path d="M1183.94 462.048C1137.63 461.326 1092.13 460.072 1047.29 459.372C996.432 458.579 947.058 458.352 897.265 457.575C851.271 456.857 886.916 457.563 841.001 456.697" stroke="#464646" stroke-linecap="round"/>
<path d="M1184.94 536.815C1138.63 536.092 1093.13 534.839 1048.29 534.139C997.432 533.345 948.058 533.118 898.265 532.341C852.271 531.624 887.916 532.33 842.001 531.463" stroke="#464646" stroke-linecap="round"/>
<path d="M1184.94 611.582C1138.63 610.859 1093.13 609.606 1048.29 608.906C997.432 608.112 948.058 607.885 898.265 607.108C852.271 606.39 887.916 607.097 842.001 606.23" stroke="#464646" stroke-linecap="round"/>
<path d="M1184.94 680.067C1138.63 680.789 1093.13 682.043 1048.29 682.743C997.432 683.536 948.058 683.763 898.265 684.54C852.271 685.258 887.916 684.552 842.001 685.418" stroke="#464646" stroke-linecap="round"/>
<path fill-rule="evenodd" clip-rule="evenodd" d="M950.557 355.716H948.742C948.325 355.983 947.909 356.252 947.493 356.521L947.46 356.539L947.334 356.612L946.867 356.878C946.472 357.104 945.925 357.417 945.318 357.764C944.103 358.459 942.645 359.293 941.674 359.852C941.018 360.23 940.099 360.858 939.274 361.421L939.274 361.421L939.273 361.422C938.814 361.735 938.384 362.028 938.045 362.248C937.64 362.51 937.256 362.855 936.979 363.205C936.795 363.436 936.785 363.778 936.956 363.968C937.127 364.158 937.414 364.124 937.598 363.893C937.786 363.657 938.074 363.392 938.393 363.186C938.78 362.935 939.237 362.623 939.709 362.3L939.709 362.3C940.506 361.755 941.347 361.18 941.977 360.817C942.947 360.259 944.403 359.425 945.618 358.73C946.225 358.383 946.772 358.071 947.166 357.845L947.633 357.578L947.76 357.506L947.793 357.487L947.801 357.482L947.803 357.481L947.804 357.481L947.804 357.481L947.654 356.997L947.804 357.481L947.816 357.474L947.828 357.466C948.736 356.879 949.646 356.296 950.557 355.716ZM973.308 341.009C974.857 339.988 976.407 338.972 977.959 337.968C978.857 337.387 979.735 336.779 980.607 336.176L980.607 336.176L980.608 336.176L980.615 336.171C981.492 335.564 982.362 334.962 983.252 334.386C983.33 334.336 983.5 334.216 983.716 334.063L983.717 334.063L983.717 334.062C983.795 334.007 983.879 333.948 983.967 333.886C984.309 333.646 984.73 333.352 985.15 333.073C985.572 332.792 985.981 332.533 986.302 332.359C986.464 332.271 986.588 332.212 986.674 332.182C986.689 332.176 986.701 332.172 986.711 332.169C986.904 332.21 987.12 332.088 987.232 331.858C987.365 331.585 987.3 331.265 987.087 331.141C986.964 331.07 986.836 331.076 986.763 331.085C986.68 331.095 986.597 331.12 986.522 331.146C986.372 331.2 986.198 331.285 986.02 331.382C985.66 331.578 985.22 331.857 984.792 332.142C984.361 332.429 983.93 332.729 983.586 332.971C983.483 333.044 983.389 333.11 983.305 333.169L983.305 333.169C983.103 333.312 982.964 333.41 982.905 333.448C981.999 334.034 981.116 334.646 980.241 335.251L980.24 335.251C979.364 335.858 978.496 336.458 977.612 337.03C975.583 338.343 973.561 339.674 971.54 341.009H973.308Z" fill="#737373"/>
<path fill-rule="evenodd" clip-rule="evenodd" d="M950.55 339.69H948.735C948.314 339.42 947.894 339.15 947.474 338.878C946.241 338.08 944.994 337.397 943.729 336.703L943.729 336.703L943.729 336.703C943.047 336.329 942.36 335.953 941.667 335.554C941.011 335.176 940.092 334.549 939.267 333.985L939.267 333.985L939.267 333.985C938.808 333.672 938.378 333.378 938.038 333.158C937.633 332.896 937.25 332.551 936.972 332.201C936.788 331.97 936.778 331.629 936.949 331.439C937.12 331.249 937.407 331.282 937.591 331.513C937.779 331.75 938.067 332.014 938.386 332.221C938.773 332.472 939.23 332.784 939.702 333.107L939.702 333.107C940.499 333.651 941.34 334.226 941.97 334.589C942.624 334.966 943.293 335.332 943.967 335.702L943.967 335.702L943.967 335.702L943.967 335.702L943.967 335.702C945.254 336.408 946.561 337.124 947.821 337.94C948.729 338.528 949.639 339.11 950.55 339.69ZM973.302 354.397C974.85 355.418 976.4 356.434 977.952 357.439C978.85 358.02 979.729 358.627 980.601 359.231L980.608 359.236C981.485 359.842 982.355 360.444 983.245 361.02C983.323 361.07 983.493 361.191 983.71 361.344L983.71 361.344C983.788 361.399 983.872 361.458 983.96 361.52C984.302 361.761 984.723 362.055 985.143 362.334C985.565 362.614 985.974 362.873 986.295 363.047C986.457 363.136 986.582 363.194 986.667 363.225C986.682 363.23 986.694 363.234 986.704 363.237C986.897 363.196 987.114 363.318 987.225 363.548C987.358 363.821 987.293 364.142 987.08 364.265C986.957 364.336 986.829 364.33 986.756 364.321C986.673 364.311 986.59 364.287 986.516 364.26C986.365 364.206 986.191 364.121 986.013 364.024C985.653 363.828 985.213 363.549 984.785 363.264C984.354 362.978 983.923 362.678 983.579 362.435C983.477 362.363 983.384 362.297 983.301 362.239L983.298 362.237C983.096 362.094 982.957 361.996 982.898 361.958C981.992 361.372 981.109 360.761 980.234 360.156L980.233 360.155L980.233 360.155C979.357 359.549 978.49 358.949 977.605 358.376C975.577 357.064 973.554 355.733 971.534 354.397H973.302Z" fill="#737373"/>
<path d="M754.515 200.61C777.295 199.237 780.126 234.779 780.186 247.192C780.352 283.981 790.757 366.118 780.45 397.059C769.388 430.274 669.73 424.126 627.226 425.193C499.461 428.404 376.991 425.895 240.939 425.94C207.225 425.953 172.096 428.76 138.849 425.186C105.392 421.592 94.7151 407.018 91.2279 385.782C88.6388 370.025 86.9707 286.974 86.1932 261.316C85.8196 248.966 84.8949 217.573 95.9493 207.907C112.106 193.77 154.225 196.137 172.28 196.165C212.101 196.228 634.196 196.728 741.781 200.696" stroke="#2C2C2C" stroke-width="2" stroke-miterlimit="1.5" stroke-linecap="round" stroke-linejoin="round"/>
<path d="M728.01 400.328C736.222 401.422 737.243 373.111 737.265 363.224C737.324 333.92 741.076 268.495 737.36 243.849C733.372 217.392 697.443 222.29 682.12 221.439C636.059 218.882 591.907 220.88 542.858 220.844C530.703 220.834 518.039 218.598 506.053 221.445C493.991 224.308 490.142 235.916 488.885 252.832C487.951 265.383 487.35 331.536 487.07 351.973C486.935 361.81 486.602 386.816 490.587 394.516C496.412 405.776 511.596 403.891 518.105 403.868C532.461 403.818 684.633 403.42 723.419 400.26" stroke="#2C2C2C" stroke-width="2" stroke-miterlimit="1.5" stroke-linecap="round" stroke-linejoin="round"/>
<path d="M207.031 583.982C209.997 584.285 210.365 576.438 210.373 573.698C210.395 565.576 211.75 547.442 210.408 540.61C208.968 533.277 195.993 534.635 190.46 534.399C173.827 533.69 157.883 534.244 140.171 534.234C135.782 534.231 131.208 533.612 126.88 534.401C122.525 535.194 121.135 538.412 120.681 543.1C120.344 546.579 120.126 564.915 120.025 570.58C119.977 573.306 119.856 580.237 121.295 582.371C123.399 585.492 128.882 584.97 131.233 584.964C136.417 584.95 191.367 584.839 205.373 583.963" stroke="#2C2C2C" stroke-miterlimit="1.5" stroke-linecap="round" stroke-linejoin="round"/>
<path d="M317.031 583.982C319.997 584.285 320.365 576.438 320.373 573.698C320.395 565.576 321.75 547.442 320.408 540.61C318.968 533.277 305.993 534.635 300.46 534.399C283.827 533.69 267.883 534.244 250.171 534.234C245.782 534.231 241.208 533.612 236.88 534.401C232.525 535.194 231.135 538.412 230.681 543.1C230.344 546.579 230.126 564.915 230.025 570.58C229.977 573.306 229.856 580.237 231.295 582.371C233.399 585.492 238.882 584.97 241.233 584.964C246.417 584.95 301.367 584.839 315.373 583.963" stroke="#2C2C2C" stroke-miterlimit="1.5" stroke-linecap="round" stroke-linejoin="round"/>
<path d="M427.031 535.018C429.997 534.715 430.365 542.562 430.373 545.302C430.395 553.424 431.75 571.558 430.408 578.39C428.968 585.723 415.993 584.365 410.46 584.601C393.827 585.31 377.883 584.756 360.171 584.766C355.782 584.769 351.208 585.388 346.88 584.599C342.525 583.806 341.135 580.588 340.681 575.9C340.344 572.421 340.126 554.085 340.025 548.42C339.977 545.694 339.856 538.763 341.295 536.629C343.399 533.508 348.882 534.03 351.233 534.036C356.417 534.05 411.367 534.161 425.373 535.037" stroke="#2C2C2C" stroke-miterlimit="1.5" stroke-linecap="round" stroke-linejoin="round"/>
<path d="M537.031 583.982C539.997 584.285 540.365 576.438 540.373 573.698C540.395 565.576 541.75 547.442 540.408 540.61C538.968 533.277 525.993 534.635 520.46 534.399C503.827 533.69 487.883 534.244 470.171 534.234C465.782 534.231 461.208 533.612 456.88 534.401C452.525 535.194 451.135 538.412 450.681 543.1C450.344 546.579 450.126 564.915 450.025 570.58C449.977 573.306 449.856 580.237 451.295 582.371C453.399 585.492 458.882 584.97 461.233 584.964C466.417 584.95 521.367 584.839 535.373 583.963" stroke="#2C2C2C" stroke-miterlimit="1.5" stroke-linecap="round" stroke-linejoin="round"/>
<path d="M990.252 368.771C992.306 369.032 992.561 362.262 992.566 359.898C992.581 352.89 993.519 337.245 992.59 331.352C991.593 325.025 982.611 326.196 978.78 325.993C967.265 325.381 956.227 325.859 943.964 325.851C940.926 325.848 937.76 325.314 934.763 325.994C931.748 326.679 930.785 329.455 930.471 333.5C930.238 336.501 930.087 352.32 930.017 357.208C929.984 359.56 929.9 365.539 930.897 367.381C932.353 370.073 936.149 369.623 937.776 369.617C941.365 369.605 979.408 369.51 989.105 368.754" stroke="#2C2C2C" stroke-miterlimit="1.5" stroke-linecap="round" stroke-linejoin="round"/>
<path fill-rule="evenodd" clip-rule="evenodd" d="M950.557 429.716H948.742C948.325 429.983 947.909 430.252 947.493 430.521L947.46 430.539L947.334 430.612L946.867 430.878C946.472 431.104 945.925 431.417 945.318 431.764C944.103 432.459 942.645 433.293 941.674 433.852C941.018 434.23 940.099 434.858 939.274 435.421L939.274 435.421L939.273 435.422C938.814 435.735 938.384 436.028 938.045 436.248C937.64 436.51 937.256 436.855 936.979 437.205C936.795 437.436 936.785 437.778 936.956 437.968C937.127 438.158 937.414 438.124 937.598 437.893C937.786 437.657 938.074 437.392 938.393 437.186C938.78 436.935 939.237 436.623 939.709 436.3L939.709 436.3C940.506 435.755 941.347 435.18 941.977 434.817C942.947 434.259 944.403 433.425 945.618 432.73C946.225 432.383 946.772 432.071 947.166 431.845L947.633 431.578L947.76 431.506L947.793 431.487L947.801 431.482L947.803 431.481L947.804 431.481L947.804 431.481L947.654 430.997L947.804 431.481L947.816 431.474L947.828 431.466C948.736 430.879 949.646 430.296 950.557 429.716ZM973.308 415.009C974.857 413.988 976.407 412.972 977.959 411.968C978.857 411.387 979.736 410.779 980.608 410.176L980.615 410.171C981.492 409.564 982.362 408.962 983.252 408.386C983.33 408.336 983.5 408.216 983.716 408.063L983.717 408.063L983.717 408.062C983.795 408.007 983.879 407.948 983.967 407.886C984.309 407.646 984.73 407.352 985.15 407.073C985.572 406.792 985.981 406.533 986.302 406.359C986.464 406.271 986.588 406.212 986.674 406.182C986.689 406.176 986.701 406.172 986.711 406.169C986.904 406.21 987.12 406.088 987.232 405.858C987.365 405.585 987.3 405.265 987.087 405.141C986.964 405.07 986.836 405.076 986.763 405.085C986.68 405.095 986.597 405.12 986.522 405.146C986.372 405.2 986.198 405.285 986.02 405.382C985.66 405.578 985.22 405.857 984.792 406.142C984.361 406.429 983.93 406.729 983.586 406.971C983.483 407.044 983.389 407.11 983.305 407.169C983.103 407.312 982.964 407.41 982.905 407.448C981.999 408.034 981.116 408.646 980.241 409.251L980.24 409.251L980.24 409.251L980.24 409.251C979.364 409.858 978.496 410.458 977.612 411.03C975.583 412.343 973.561 413.674 971.54 415.009H973.308Z" fill="#737373"/>
<path fill-rule="evenodd" clip-rule="evenodd" d="M950.55 413.69H948.735C948.314 413.42 947.894 413.15 947.474 412.878C946.241 412.08 944.994 411.397 943.729 410.703L943.729 410.703C943.047 410.329 942.36 409.953 941.667 409.554C941.011 409.176 940.092 408.549 939.267 407.985L939.267 407.985L939.267 407.985C938.808 407.672 938.378 407.378 938.038 407.158C937.633 406.896 937.25 406.551 936.972 406.201C936.788 405.97 936.778 405.629 936.949 405.439C937.12 405.249 937.407 405.282 937.591 405.513C937.779 405.75 938.067 406.014 938.386 406.221C938.773 406.472 939.23 406.784 939.702 407.107L939.702 407.107C940.499 407.651 941.34 408.226 941.97 408.589C942.624 408.966 943.293 409.332 943.967 409.702L943.967 409.702L943.967 409.702L943.967 409.702C945.254 410.408 946.561 411.124 947.821 411.94C948.729 412.528 949.639 413.11 950.55 413.69ZM973.302 428.397C974.85 429.418 976.4 430.434 977.952 431.439C978.85 432.02 979.729 432.627 980.601 433.231L980.608 433.236C981.485 433.842 982.355 434.444 983.245 435.02C983.323 435.07 983.493 435.191 983.71 435.344L983.713 435.346C983.79 435.4 983.873 435.459 983.96 435.52C984.302 435.761 984.723 436.055 985.143 436.334C985.565 436.614 985.974 436.873 986.295 437.047C986.457 437.136 986.582 437.194 986.667 437.225C986.682 437.23 986.694 437.234 986.704 437.237C986.897 437.196 987.114 437.318 987.225 437.548C987.358 437.821 987.293 438.142 987.08 438.265C986.957 438.336 986.829 438.33 986.756 438.321C986.673 438.311 986.59 438.287 986.516 438.26C986.365 438.206 986.191 438.121 986.013 438.024C985.653 437.828 985.213 437.549 984.785 437.264C984.354 436.978 983.923 436.678 983.579 436.435C983.476 436.362 983.382 436.296 983.298 436.237L983.298 436.237C983.096 436.094 982.957 435.996 982.898 435.958C981.992 435.372 981.109 434.761 980.234 434.156L980.233 434.155L980.233 434.155C979.357 433.549 978.49 432.949 977.605 432.376C975.577 431.064 973.554 429.733 971.534 428.397H973.302Z" fill="#737373"/>
<path d="M990.252 442.771C992.306 443.032 992.561 436.262 992.566 433.898C992.581 426.89 993.519 411.245 992.59 405.352C991.593 399.025 982.611 400.196 978.78 399.993C967.265 399.381 956.227 399.859 943.964 399.851C940.926 399.848 937.76 399.314 934.763 399.994C931.748 400.679 930.785 403.455 930.471 407.5C930.238 410.501 930.087 426.32 930.017 431.208C929.984 433.56 929.9 439.539 930.897 441.381C932.353 444.073 936.149 443.623 937.776 443.617C941.365 443.605 979.408 443.51 989.105 442.754" stroke="#2C2C2C" stroke-miterlimit="1.5" stroke-linecap="round" stroke-linejoin="round"/>
<path fill-rule="evenodd" clip-rule="evenodd" d="M950.557 504.716H948.742C948.325 504.983 947.909 505.252 947.493 505.521L947.46 505.539L947.334 505.612L946.867 505.878C946.472 506.104 945.925 506.417 945.318 506.764C944.103 507.459 942.645 508.293 941.674 508.852C941.018 509.23 940.099 509.858 939.274 510.421L939.274 510.421L939.273 510.422C938.814 510.735 938.384 511.028 938.045 511.248C937.64 511.51 937.256 511.855 936.979 512.205C936.795 512.436 936.785 512.778 936.956 512.968C937.127 513.158 937.414 513.124 937.598 512.893C937.786 512.657 938.074 512.392 938.393 512.186C938.78 511.935 939.237 511.623 939.709 511.3L939.709 511.3C940.506 510.755 941.347 510.18 941.977 509.817C942.947 509.259 944.403 508.425 945.618 507.73C946.225 507.383 946.772 507.071 947.166 506.845L947.633 506.578L947.76 506.506L947.793 506.487L947.801 506.482L947.803 506.481L947.804 506.481L947.804 506.481L947.654 505.997L947.804 506.481L947.816 506.474L947.828 506.466C948.736 505.879 949.646 505.296 950.557 504.716ZM973.308 490.009C974.857 488.988 976.407 487.972 977.959 486.968C978.857 486.387 979.736 485.779 980.608 485.176L980.615 485.171C981.492 484.564 982.362 483.962 983.252 483.386C983.33 483.336 983.5 483.216 983.716 483.063L983.717 483.063L983.717 483.062C983.795 483.007 983.879 482.948 983.967 482.886C984.309 482.646 984.73 482.352 985.15 482.073C985.572 481.792 985.981 481.533 986.302 481.359C986.464 481.271 986.588 481.212 986.674 481.182C986.689 481.176 986.701 481.172 986.711 481.169C986.904 481.21 987.12 481.088 987.232 480.858C987.365 480.585 987.3 480.265 987.087 480.141C986.964 480.07 986.836 480.076 986.763 480.085C986.68 480.095 986.597 480.12 986.522 480.146C986.372 480.2 986.198 480.285 986.02 480.382C985.66 480.578 985.22 480.857 984.792 481.142C984.361 481.429 983.93 481.729 983.586 481.971C983.483 482.044 983.389 482.11 983.305 482.169C983.103 482.312 982.964 482.41 982.905 482.448C981.999 483.034 981.116 483.646 980.241 484.251L980.24 484.251L980.24 484.251L980.24 484.251C979.364 484.858 978.496 485.458 977.612 486.03C975.583 487.343 973.561 488.674 971.54 490.009H973.308Z" fill="#737373"/>
<path fill-rule="evenodd" clip-rule="evenodd" d="M950.55 488.69H948.735C948.314 488.42 947.894 488.15 947.474 487.878C946.241 487.08 944.994 486.397 943.729 485.703L943.729 485.703C943.047 485.329 942.36 484.953 941.667 484.554C941.011 484.176 940.092 483.549 939.267 482.985L939.267 482.985L939.267 482.985C938.808 482.672 938.378 482.378 938.038 482.158C937.633 481.896 937.25 481.551 936.972 481.201C936.788 480.97 936.778 480.629 936.949 480.439C937.12 480.249 937.407 480.282 937.591 480.513C937.779 480.75 938.067 481.014 938.386 481.221C938.773 481.472 939.23 481.784 939.702 482.107L939.702 482.107C940.499 482.651 941.34 483.226 941.97 483.589C942.624 483.966 943.293 484.332 943.967 484.702L943.967 484.702L943.967 484.702L943.967 484.702C945.254 485.408 946.561 486.124 947.821 486.94C948.729 487.528 949.639 488.11 950.55 488.69ZM973.302 503.397C974.85 504.418 976.4 505.434 977.952 506.439C978.85 507.02 979.729 507.627 980.601 508.231L980.608 508.236C981.485 508.842 982.355 509.444 983.245 510.02C983.323 510.07 983.493 510.191 983.71 510.344L983.713 510.346C983.79 510.4 983.873 510.459 983.96 510.52C984.302 510.761 984.723 511.055 985.143 511.334C985.565 511.614 985.974 511.873 986.295 512.047C986.457 512.136 986.582 512.194 986.667 512.225C986.682 512.23 986.694 512.234 986.704 512.237C986.897 512.196 987.114 512.318 987.225 512.548C987.358 512.821 987.293 513.142 987.08 513.265C986.957 513.336 986.829 513.33 986.756 513.321C986.673 513.311 986.59 513.287 986.516 513.26C986.365 513.206 986.191 513.121 986.013 513.024C985.653 512.828 985.213 512.549 984.785 512.264C984.354 511.978 983.923 511.678 983.579 511.435C983.476 511.362 983.382 511.296 983.298 511.237L983.298 511.237C983.096 511.094 982.957 510.996 982.898 510.958C981.992 510.372 981.109 509.761 980.234 509.156L980.233 509.155L980.233 509.155C979.357 508.549 978.49 507.949 977.605 507.376C975.577 506.064 973.554 504.733 971.534 503.397H973.302Z" fill="#737373"/>
<path d="M990.252 517.771C992.306 518.032 992.561 511.262 992.566 508.898C992.581 501.89 993.519 486.245 992.59 480.352C991.593 474.025 982.611 475.196 978.78 474.993C967.265 474.381 956.227 474.859 943.964 474.851C940.926 474.848 937.76 474.314 934.763 474.994C931.748 475.679 930.785 478.455 930.471 482.5C930.238 485.501 930.087 501.32 930.017 506.208C929.984 508.56 929.9 514.539 930.897 516.381C932.353 519.073 936.149 518.623 937.776 518.617C941.365 518.605 979.408 518.51 989.105 517.754" stroke="#2C2C2C" stroke-miterlimit="1.5" stroke-linecap="round" stroke-linejoin="round"/>
<path fill-rule="evenodd" clip-rule="evenodd" d="M950.557 579.716H948.742C948.325 579.983 947.909 580.252 947.493 580.521L947.46 580.539L947.334 580.612L946.867 580.878C946.472 581.104 945.925 581.417 945.318 581.764C944.103 582.459 942.645 583.293 941.674 583.852C941.018 584.23 940.099 584.858 939.274 585.421L939.274 585.421L939.273 585.422C938.814 585.735 938.384 586.028 938.045 586.248C937.64 586.51 937.256 586.855 936.979 587.205C936.795 587.436 936.785 587.778 936.956 587.968C937.127 588.158 937.414 588.124 937.598 587.893C937.786 587.657 938.074 587.392 938.393 587.186C938.78 586.935 939.237 586.623 939.709 586.3L939.709 586.3C940.506 585.755 941.347 585.18 941.977 584.817C942.947 584.259 944.403 583.425 945.618 582.73C946.225 582.383 946.772 582.071 947.166 581.845L947.633 581.578L947.76 581.506L947.793 581.487L947.801 581.482L947.803 581.481L947.804 581.481L947.804 581.481L947.654 580.997L947.804 581.481L947.816 581.474L947.828 581.466C948.736 580.879 949.646 580.296 950.557 579.716ZM973.308 565.009C974.857 563.988 976.407 562.972 977.959 561.968C978.857 561.387 979.736 560.779 980.608 560.176L980.615 560.171C981.492 559.564 982.362 558.962 983.252 558.386C983.33 558.336 983.5 558.216 983.716 558.063L983.717 558.063L983.717 558.062C983.795 558.007 983.879 557.948 983.967 557.886C984.309 557.646 984.73 557.352 985.15 557.073C985.572 556.792 985.981 556.533 986.302 556.359C986.464 556.271 986.588 556.212 986.674 556.182C986.689 556.176 986.701 556.172 986.711 556.169C986.904 556.21 987.12 556.088 987.232 555.858C987.365 555.585 987.3 555.265 987.087 555.141C986.964 555.07 986.836 555.076 986.763 555.085C986.68 555.095 986.597 555.12 986.522 555.146C986.372 555.2 986.198 555.285 986.02 555.382C985.66 555.578 985.22 555.857 984.792 556.142C984.361 556.429 983.93 556.729 983.586 556.971C983.483 557.044 983.389 557.11 983.305 557.169C983.103 557.312 982.964 557.41 982.905 557.448C981.999 558.034 981.116 558.646 980.241 559.251L980.24 559.251L980.24 559.251L980.24 559.251C979.364 559.858 978.496 560.458 977.612 561.03C975.583 562.343 973.561 563.674 971.54 565.009H973.308Z" fill="#737373"/>
<path fill-rule="evenodd" clip-rule="evenodd" d="M950.55 563.69H948.735C948.314 563.42 947.894 563.15 947.474 562.878C946.241 562.08 944.994 561.397 943.729 560.703L943.729 560.703C943.047 560.329 942.36 559.953 941.667 559.554C941.011 559.176 940.092 558.549 939.267 557.985L939.267 557.985L939.267 557.985C938.808 557.672 938.378 557.378 938.038 557.158C937.633 556.896 937.25 556.551 936.972 556.201C936.788 555.97 936.778 555.629 936.949 555.439C937.12 555.249 937.407 555.282 937.591 555.513C937.779 555.75 938.067 556.014 938.386 556.221C938.773 556.472 939.23 556.784 939.702 557.107L939.702 557.107C940.499 557.651 941.34 558.226 941.97 558.589C942.624 558.966 943.293 559.332 943.967 559.702L943.967 559.702L943.967 559.702L943.967 559.702C945.254 560.408 946.561 561.124 947.821 561.94C948.729 562.528 949.639 563.11 950.55 563.69ZM973.302 578.397C974.85 579.418 976.4 580.434 977.952 581.439C978.85 582.02 979.729 582.627 980.601 583.231L980.608 583.236C981.485 583.842 982.355 584.444 983.245 585.02C983.323 585.07 983.493 585.191 983.71 585.344L983.713 585.346C983.79 585.4 983.873 585.459 983.96 585.52C984.302 585.761 984.723 586.055 985.143 586.334C985.565 586.614 985.974 586.873 986.295 587.047C986.457 587.136 986.582 587.194 986.667 587.225C986.682 587.23 986.694 587.234 986.704 587.237C986.897 587.196 987.114 587.318 987.225 587.548C987.358 587.821 987.293 588.142 987.08 588.265C986.957 588.336 986.829 588.33 986.756 588.321C986.673 588.311 986.59 588.287 986.516 588.26C986.365 588.206 986.191 588.121 986.013 588.024C985.653 587.828 985.213 587.549 984.785 587.264C984.354 586.978 983.923 586.678 983.579 586.435C983.476 586.362 983.382 586.296 983.298 586.237L983.298 586.237C983.096 586.094 982.957 585.996 982.898 585.958C981.992 585.372 981.109 584.761 980.234 584.156L980.233 584.155L980.233 584.155C979.357 583.549 978.49 582.949 977.605 582.376C975.577 581.064 973.554 579.733 971.534 578.397H973.302Z" fill="#737373"/>
<path d="M990.252 592.771C992.306 593.032 992.561 586.262 992.566 583.898C992.581 576.89 993.519 561.245 992.59 555.352C991.593 549.025 982.611 550.196 978.78 549.993C967.265 549.381 956.227 549.859 943.964 549.851C940.926 549.848 937.76 549.314 934.763 549.994C931.748 550.679 930.785 553.455 930.471 557.5C930.238 560.501 930.087 576.32 930.017 581.208C929.984 583.56 929.9 589.539 930.897 591.381C932.353 594.073 936.149 593.623 937.776 593.617C941.365 593.605 979.408 593.51 989.105 592.754" stroke="#2C2C2C" stroke-miterlimit="1.5" stroke-linecap="round" stroke-linejoin="round"/>
<path fill-rule="evenodd" clip-rule="evenodd" d="M950.557 652.716H948.742C948.325 652.983 947.909 653.252 947.493 653.521L947.46 653.539L947.334 653.612L946.867 653.878C946.472 654.104 945.925 654.417 945.318 654.764C944.103 655.459 942.645 656.293 941.674 656.852C941.018 657.23 940.099 657.858 939.274 658.421L939.274 658.421L939.273 658.422C938.814 658.735 938.384 659.028 938.045 659.248C937.64 659.51 937.256 659.855 936.979 660.205C936.795 660.436 936.785 660.778 936.956 660.968C937.127 661.158 937.414 661.124 937.598 660.893C937.786 660.657 938.074 660.392 938.393 660.186C938.78 659.935 939.237 659.623 939.709 659.3L939.709 659.3C940.506 658.755 941.347 658.18 941.977 657.817C942.947 657.259 944.403 656.425 945.618 655.73C946.225 655.383 946.772 655.071 947.166 654.845L947.633 654.578L947.76 654.506L947.793 654.487L947.801 654.482L947.803 654.481L947.804 654.481L947.804 654.481L947.654 653.997L947.804 654.481L947.816 654.474L947.828 654.466C948.736 653.879 949.646 653.296 950.557 652.716ZM973.308 638.009C974.857 636.988 976.407 635.972 977.959 634.968C978.857 634.387 979.736 633.779 980.608 633.176L980.615 633.171C981.492 632.564 982.362 631.962 983.252 631.386C983.33 631.336 983.5 631.216 983.716 631.063L983.717 631.063L983.717 631.062C983.795 631.007 983.879 630.948 983.967 630.886C984.309 630.646 984.73 630.352 985.15 630.073C985.572 629.792 985.981 629.533 986.302 629.359C986.464 629.271 986.588 629.212 986.674 629.182C986.689 629.176 986.701 629.172 986.711 629.169C986.904 629.21 987.12 629.088 987.232 628.858C987.365 628.585 987.3 628.265 987.087 628.141C986.964 628.07 986.836 628.076 986.763 628.085C986.68 628.095 986.597 628.12 986.522 628.146C986.372 628.2 986.198 628.285 986.02 628.382C985.66 628.578 985.22 628.857 984.792 629.142C984.361 629.429 983.93 629.729 983.586 629.971C983.483 630.044 983.389 630.11 983.305 630.169C983.103 630.312 982.964 630.41 982.905 630.448C981.999 631.034 981.116 631.646 980.241 632.251L980.24 632.251L980.24 632.251L980.24 632.251C979.364 632.858 978.496 633.458 977.612 634.03C975.583 635.343 973.561 636.674 971.54 638.009H973.308Z" fill="#737373"/>
<path fill-rule="evenodd" clip-rule="evenodd" d="M950.55 636.69H948.735C948.314 636.42 947.894 636.15 947.474 635.878C946.241 635.08 944.994 634.397 943.729 633.703L943.729 633.703C943.047 633.329 942.36 632.953 941.667 632.554C941.011 632.176 940.092 631.549 939.267 630.985L939.267 630.985L939.267 630.985C938.808 630.672 938.378 630.378 938.038 630.158C937.633 629.896 937.25 629.551 936.972 629.201C936.788 628.97 936.778 628.629 936.949 628.439C937.12 628.249 937.407 628.282 937.591 628.513C937.779 628.75 938.067 629.014 938.386 629.221C938.773 629.472 939.23 629.784 939.702 630.107L939.702 630.107C940.499 630.651 941.34 631.226 941.97 631.589C942.624 631.966 943.293 632.332 943.967 632.702L943.967 632.702L943.967 632.702L943.967 632.702C945.254 633.408 946.561 634.124 947.821 634.94C948.729 635.528 949.639 636.11 950.55 636.69ZM973.302 651.397C974.85 652.418 976.4 653.434 977.952 654.439C978.85 655.02 979.729 655.627 980.601 656.231L980.608 656.236C981.485 656.842 982.355 657.444 983.245 658.02C983.323 658.07 983.493 658.191 983.71 658.344L983.713 658.346C983.79 658.4 983.873 658.459 983.96 658.52C984.302 658.761 984.723 659.055 985.143 659.334C985.565 659.614 985.974 659.873 986.295 660.047C986.457 660.136 986.582 660.194 986.667 660.225C986.682 660.23 986.694 660.234 986.704 660.237C986.897 660.196 987.114 660.318 987.225 660.548C987.358 660.821 987.293 661.142 987.08 661.265C986.957 661.336 986.829 661.33 986.756 661.321C986.673 661.311 986.59 661.287 986.516 661.26C986.365 661.206 986.191 661.121 986.013 661.024C985.653 660.828 985.213 660.549 984.785 660.264C984.354 659.978 983.923 659.678 983.579 659.435C983.476 659.362 983.382 659.296 983.298 659.237L983.298 659.237C983.096 659.094 982.957 658.996 982.898 658.958C981.992 658.372 981.109 657.761 980.234 657.156L980.233 657.155L980.233 657.155C979.357 656.549 978.49 655.949 977.605 655.376C975.577 654.064 973.554 652.733 971.534 651.397H973.302Z" fill="#737373"/>
<path d="M990.252 665.771C992.306 666.032 992.561 659.262 992.566 656.898C992.581 649.89 993.519 634.245 992.59 628.352C991.593 622.025 982.611 623.196 978.78 622.993C967.265 622.381 956.227 622.859 943.964 622.851C940.926 622.848 937.76 622.314 934.763 622.994C931.748 623.679 930.785 626.455 930.471 630.5C930.238 633.501 930.087 649.32 930.017 654.208C929.984 656.56 929.9 662.539 930.897 664.381C932.353 667.073 936.149 666.623 937.776 666.617C941.365 666.605 979.408 666.51 989.105 665.754" stroke="#2C2C2C" stroke-miterlimit="1.5" stroke-linecap="round" stroke-linejoin="round"/>
<path d="M647.031 535.018C649.997 534.715 650.365 542.562 650.373 545.302C650.395 553.424 651.75 571.558 650.408 578.39C648.968 585.723 635.993 584.365 630.46 584.601C613.827 585.31 597.883 584.756 580.171 584.766C575.782 584.769 571.208 585.388 566.88 584.599C562.525 583.806 561.135 580.588 560.681 575.9C560.344 572.421 560.126 554.085 560.025 548.42C559.977 545.694 559.856 538.763 561.295 536.629C563.399 533.508 568.882 534.03 571.233 534.036C576.417 534.05 631.367 534.161 645.373 535.037" stroke="#2C2C2C" stroke-miterlimit="1.5" stroke-linecap="round" stroke-linejoin="round"/>
<path d="M757.031 583.982C759.997 584.285 760.365 576.438 760.373 573.698C760.395 565.576 761.75 547.442 760.408 540.61C758.968 533.277 745.993 534.635 740.46 534.399C723.827 533.69 707.883 534.244 690.171 534.234C685.782 534.231 681.208 533.612 676.88 534.401C672.525 535.194 671.135 538.412 670.681 543.1C670.344 546.579 670.126 564.915 670.025 570.58C669.977 573.306 669.856 580.237 671.295 582.371C673.399 585.492 678.882 584.97 681.233 584.964C686.417 584.95 741.367 584.839 755.373 583.963" stroke="#2C2C2C" stroke-miterlimit="1.5" stroke-linecap="round" stroke-linejoin="round"/>
<path d="M1260.56 791.895C1303.48 796.692 1308.82 672.525 1308.93 629.161C1309.24 500.638 1328.85 213.692 1309.43 105.6C1288.59 -10.4377 1100.82 11.0415 1020.73 7.31174C780.01 -3.90403 549.263 4.86048 292.924 4.70177C229.402 4.65768 163.214 -5.1473 100.575 7.33818C37.537 19.8942 17.4204 70.8061 10.8499 144.996C5.97189 200.043 2.82889 490.181 1.36405 579.819C0.660074 622.962 -1.08209 732.633 19.7456 766.404C50.1872 815.791 129.544 807.52 163.563 807.423C238.589 807.202 1033.87 805.457 1236.57 791.596" stroke="#2C2C2C" stroke-width="2" stroke-miterlimit="1.5" stroke-linecap="round" stroke-linejoin="round"/>
<path d="M755.387 165.763C777.516 166.131 780.265 156.592 780.324 153.26C780.485 143.386 790.593 121.341 780.581 113.036C769.835 104.121 673.028 105.771 631.74 105.485C507.631 104.623 388.666 105.297 256.506 105.284C223.756 105.281 189.632 104.528 157.337 105.487C124.837 106.452 114.466 110.363 111.078 116.063C108.563 120.292 106.943 142.583 106.188 149.469C105.825 152.784 104.927 161.21 115.665 163.804C131.359 167.599 172.273 166.963 189.812 166.956C228.493 166.939 638.511 166.805 743.018 165.74" stroke="#2C2C2C" stroke-width="2" stroke-miterlimit="1.5" stroke-linecap="round" stroke-linejoin="round"/>
<path d="M173.628 125.05C175.895 125.05 177.211 126.683 177.578 129.95C177.578 132.65 176.945 134.35 175.678 135.05H175.378C174.411 134.983 173.928 134.633 173.928 134L174.128 130.25V128.4L173.828 128.05H173.328C172.261 128.05 171.011 131.017 169.578 136.95L169.278 140.7V141.8C169.278 145.267 170.828 147.3 173.928 147.9H176.028C179.495 147.9 183.695 145.667 188.628 141.2H188.828C189.728 141.2 190.245 141.767 190.378 142.9C189.611 144.9 188.711 145.9 187.678 145.9C182.911 149.3 178.628 151 174.828 151C171.028 151 168.345 148.917 166.778 144.75L166.328 141.2V140.55C166.328 135.383 167.778 130.633 170.678 126.3C171.611 125.467 172.595 125.05 173.628 125.05ZM192.878 124.95C194.145 125.217 194.778 125.783 194.778 126.65C194.445 127.583 193.911 128.05 193.178 128.05C191.945 127.817 191.328 127.2 191.328 126.2C191.661 125.367 192.178 124.95 192.878 124.95ZM194.778 131.95C195.311 131.95 195.761 132.433 196.128 133.4L195.678 136.95V139.3C195.678 142.033 196.145 145.617 197.078 150.05C196.745 150.683 196.178 151 195.378 151C194.011 151 193.111 147 192.678 139V137.25C192.678 133.717 193.378 131.95 194.778 131.95ZM205.551 120.65C206.485 120.85 206.951 121.317 206.951 122.05L206.651 124.25V124.9C206.651 126.367 206.818 127.917 207.151 129.55H207.251C211.118 128.383 213.518 127.8 214.451 127.8C215.418 128.067 215.901 128.55 215.901 129.25C215.901 130.383 214.751 130.95 212.451 130.95L207.251 132.8C207.251 137.3 207.735 143.417 208.701 151.15C208.501 152.05 208.018 152.5 207.251 152.5H207.151C205.985 152.5 205.401 151 205.401 148C204.968 145.767 204.601 140.917 204.301 133.45H203.401C200.268 133.25 198.701 132.517 198.701 131.25C198.701 130.883 199.051 130.433 199.751 129.9H200.251L202.551 130.5H204.151L203.701 124.25C203.701 121.85 204.318 120.65 205.551 120.65ZM219.025 136C220.191 136 220.991 138.567 221.425 143.7C221.991 146.067 222.408 147.25 222.675 147.25H222.975C223.808 145.15 224.225 143.067 224.225 141L223.925 137.55C224.291 136.65 224.808 136.2 225.475 136.2C226.708 136.2 227.325 138.383 227.325 142.75C228.058 147.283 228.425 151.5 228.425 155.4V157.75C228.425 164.917 226.391 169.75 222.325 172.25L221.225 172.45C219.325 172.45 217.558 170.683 215.925 167.15L215.475 164.15V164C215.475 161.8 216.091 160.7 217.325 160.7L218.575 161.5L218.425 164.65C218.425 166.183 219.208 167.733 220.775 169.3H221.425C223.258 169.3 224.608 165.8 225.475 158.8L225.575 155.9C225.541 152.533 225.408 150.383 225.175 149.45C223.841 150.617 222.791 151.2 222.025 151.2C220.325 151.2 218.808 146.65 217.475 137.55L217.325 137.45C217.325 136.683 217.891 136.2 219.025 136ZM250.105 124.95C251.371 125.217 252.005 125.783 252.005 126.65C251.671 127.583 251.138 128.05 250.405 128.05C249.171 127.817 248.555 127.2 248.555 126.2C248.888 125.367 249.405 124.95 250.105 124.95ZM252.005 131.95C252.538 131.95 252.988 132.433 253.355 133.4L252.905 136.95V139.3C252.905 142.033 253.371 145.617 254.305 150.05C253.971 150.683 253.405 151 252.605 151C251.238 151 250.338 147 249.905 139V137.25C249.905 133.717 250.605 131.95 252.005 131.95ZM263.378 134.15C266.211 134.383 267.628 135.767 267.628 138.3L267.728 138.95L267.628 146.75C267.628 147.65 268.144 148.867 269.178 150.4V150.5C268.911 151.467 268.428 151.95 267.728 151.95C265.661 151.083 264.628 149.25 264.628 146.45V145.8L264.478 145.7L264.628 145.5V145.4L264.778 138.5C264.778 137.533 264.361 137.05 263.528 137.05H262.928C261.261 137.717 260.428 141.367 260.428 148C260.428 150.3 259.844 151.45 258.678 151.45C257.778 151.45 257.311 150.883 257.278 149.75V144.75C257.278 138.283 257.844 135.05 258.978 135.05L259.478 134.9L260.528 135.05C261.428 134.45 262.378 134.15 263.378 134.15ZM276.895 136.15C280.428 136.15 282.512 138.367 283.145 142.8C283.145 146.733 281.312 149.55 277.645 151.25C277.245 151.45 276.695 151.55 275.995 151.55H275.645L274.545 151.45V151.55L274.745 164.9C274.512 165.933 273.978 166.45 273.145 166.45C272.212 166.15 271.745 165.667 271.745 165L271.295 137.8C271.295 136.933 271.812 136.483 272.845 136.45L273.895 136.9C274.828 136.4 275.828 136.15 276.895 136.15ZM274.395 141.45L274.245 143L274.395 148.3L275.795 148.65C278.028 148.65 279.478 147.017 280.145 143.75V143C279.912 140.367 278.978 139.05 277.345 139.05H276.595C275.128 139.05 274.395 139.85 274.395 141.45ZM287.491 135.95L288.391 135.45C289.191 135.45 289.774 135.933 290.141 136.9C289.608 139.367 289.341 141.9 289.341 144.5C289.341 145.8 289.724 147.217 290.491 148.75H290.791C291.758 148.75 292.908 144.933 294.241 137.3C294.708 136.9 295.158 136.7 295.591 136.7C296.624 136.7 297.141 138.533 297.141 142.2C297.574 146.233 298.058 148.25 298.591 148.25L299.341 147.95C300.308 148.317 300.791 148.833 300.791 149.5C300.191 150.767 299.358 151.4 298.291 151.4C297.091 151.4 295.941 150.2 294.841 147.8C293.508 150.6 292.158 152 290.791 152C288.758 152 287.341 149.883 286.541 145.65L286.391 144.05V143.55C286.391 140.883 286.758 138.35 287.491 135.95ZM307.748 120.65C308.682 120.85 309.148 121.317 309.148 122.05L308.848 124.25V124.9C308.848 126.367 309.015 127.917 309.348 129.55H309.448C313.315 128.383 315.715 127.8 316.648 127.8C317.615 128.067 318.098 128.55 318.098 129.25C318.098 130.383 316.948 130.95 314.648 130.95L309.448 132.8C309.448 137.3 309.932 143.417 310.898 151.15C310.698 152.05 310.215 152.5 309.448 152.5H309.348C308.182 152.5 307.598 151 307.598 148C307.165 145.767 306.798 140.917 306.498 133.45H305.598C302.465 133.25 300.898 132.517 300.898 131.25C300.898 130.883 301.248 130.433 301.948 129.9H302.448L304.748 130.5H306.348L305.898 124.25C305.898 121.85 306.515 120.65 307.748 120.65Z" fill="#464646"/>
<path d="M173.3 257.05C175.567 257.05 176.883 258.683 177.25 261.95C177.25 264.65 176.617 266.35 175.35 267.05H175.05C174.083 266.983 173.6 266.633 173.6 266L173.8 262.25V260.4L173.5 260.05H173C171.933 260.05 170.683 263.017 169.25 268.95L168.95 272.7V273.8C168.95 277.267 170.5 279.3 173.6 279.9H175.7C179.167 279.9 183.367 277.667 188.3 273.2H188.5C189.4 273.2 189.917 273.767 190.05 274.9C189.283 276.9 188.383 277.9 187.35 277.9C182.583 281.3 178.3 283 174.5 283C170.7 283 168.017 280.917 166.45 276.75L166 273.2V272.55C166 267.383 167.45 262.633 170.35 258.3C171.283 257.467 172.267 257.05 173.3 257.05ZM194.05 255.4C194.983 255.4 195.45 256.533 195.45 258.8L196.05 267.4H196.25L198.75 266.45C201.55 266.45 203.25 269.317 203.85 275.05C204.083 276.683 204.2 279.083 204.2 282.25V286.3C204.2 287.567 203.733 288.2 202.8 288.2H202.6C201.7 288.067 201.25 287.583 201.25 286.75V282.05C201.25 274.517 200.517 270.35 199.05 269.55H198.75C197.75 269.55 197.017 271.083 196.55 274.15V276.95C196.55 281.95 196.133 284.45 195.3 284.45L194.35 284.55C193.417 284.55 192.95 283.167 192.95 280.4C193.05 277.467 193.25 275.067 193.55 273.2L192.5 256.75C192.5 255.883 193.017 255.433 194.05 255.4ZM214.55 264.15C217.016 264.15 218.883 265.983 220.15 269.65L220.35 270.7C220.35 274.267 218.683 277.917 215.35 281.65C214.016 282.883 212.666 283.5 211.3 283.5C209.3 283.5 207.883 282.35 207.05 280.05C206.75 278.983 206.6 278.05 206.6 277.25V276.65C206.6 271.383 208.516 267.383 212.35 264.65C213.016 264.317 213.75 264.15 214.55 264.15ZM209.55 277.15C209.55 279.417 210.133 280.55 211.3 280.55C213.733 280.55 215.75 277.433 217.35 271.2V270.25C216.783 268.183 215.733 267.15 214.2 267.15C213.6 267.15 213.3 267.567 213.3 268.4C213.3 268.967 212.633 269.417 211.3 269.75C210.133 271.717 209.55 274.183 209.55 277.15ZM232.615 262.75C233.515 262.75 234.132 264.267 234.465 267.3C234.132 268.133 233.582 268.55 232.815 268.55C232.282 268.45 231.749 267.833 231.215 266.7L230.315 266.4C228.749 266.4 227.332 267.433 226.065 269.5V269.95C226.065 270.45 228.415 271.283 233.115 272.45C235.082 273.617 236.065 275.033 236.065 276.7C236.065 279.433 233.865 281.767 229.465 283.7L227.615 284C224.815 283.7 223.415 282.3 223.415 279.8V279.65C223.415 278.85 223.932 278.383 224.965 278.25C225.765 278.25 226.299 279.083 226.565 280.75L226.965 281.05H227.815C229.715 281.05 231.482 279.75 233.115 277.15V276.5C233.115 275.5 230.932 274.567 226.565 273.7C224.265 272.767 223.115 271.467 223.115 269.8C223.115 267.633 224.932 265.6 228.565 263.7C230.165 263.5 231.515 263.183 232.615 262.75ZM242.397 265.05C243.731 265.083 245.981 267.417 249.147 272.05L249.247 272.9C249.247 273.833 246.964 274.55 242.397 275.05L242.247 275.2V275.4C242.947 278.4 243.681 279.9 244.447 279.9H245.047C246.114 279.9 247.731 278.75 249.897 276.45H250.197C250.864 276.45 251.381 276.933 251.747 277.9C251.747 278.7 250.347 280.083 247.547 282.05C246.814 282.483 245.931 282.8 244.897 283C242.197 283 240.314 280.467 239.247 275.4C237.714 275.167 236.947 274.533 236.947 273.5C236.947 272.767 237.514 272.283 238.647 272.05V272.25L239.147 272.05V270.8C239.147 266.967 240.231 265.05 242.397 265.05ZM242.697 268.65H242.247L242.047 270.5V272.05H242.247C244.114 271.983 245.047 271.783 245.047 271.45C244.181 270.15 243.397 269.217 242.697 268.65ZM260.169 266.15C263.002 266.383 264.419 267.767 264.419 270.3L264.519 270.95L264.419 278.75C264.419 279.65 264.935 280.867 265.969 282.4V282.5C265.702 283.467 265.219 283.95 264.519 283.95C262.452 283.083 261.419 281.25 261.419 278.45V277.8L261.269 277.7L261.419 277.5V277.4L261.569 270.5C261.569 269.533 261.152 269.05 260.319 269.05H259.719C258.052 269.717 257.219 273.367 257.219 280C257.219 282.3 256.635 283.45 255.469 283.45C254.569 283.45 254.102 282.883 254.069 281.75V276.75C254.069 270.283 254.635 267.05 255.769 267.05L256.269 266.9L257.319 267.05C258.219 266.45 259.169 266.15 260.169 266.15ZM172.05 301.05L174.1 300.75C174.933 300.75 175.4 301.267 175.5 302.3C175.5 303.2 174.417 303.783 172.25 304.05C170.883 305.117 170.2 306.483 170.2 308.15V309.8C170.867 313.467 172 315.3 173.6 315.3H174.1C175.033 315.3 176.433 314.417 178.3 312.65H178.6C179.267 312.65 179.8 313.117 180.2 314.05C179.733 315.483 178.233 316.783 175.7 317.95C175.233 318.15 174.65 318.25 173.95 318.25C170.517 318.25 168.283 315.55 167.25 310.15V309.05C167.25 305.15 168.85 302.483 172.05 301.05ZM190.721 299.15C193.188 299.15 195.055 300.983 196.321 304.65L196.521 305.7C196.521 309.267 194.855 312.917 191.521 316.65C190.188 317.883 188.838 318.5 187.471 318.5C185.471 318.5 184.055 317.35 183.221 315.05C182.921 313.983 182.771 313.05 182.771 312.25V311.65C182.771 306.383 184.688 302.383 188.521 299.65C189.188 299.317 189.921 299.15 190.721 299.15ZM185.721 312.15C185.721 314.417 186.305 315.55 187.471 315.55C189.905 315.55 191.921 312.433 193.521 306.2V305.25C192.955 303.183 191.905 302.15 190.371 302.15C189.771 302.15 189.471 302.567 189.471 303.4C189.471 303.967 188.805 304.417 187.471 304.75C186.305 306.717 185.721 309.183 185.721 312.15ZM205.237 301.15C208.07 301.383 209.487 302.767 209.487 305.3L209.587 305.95L209.487 313.75C209.487 314.65 210.004 315.867 211.037 317.4V317.5C210.77 318.467 210.287 318.95 209.587 318.95C207.52 318.083 206.487 316.25 206.487 313.45V312.8L206.337 312.7L206.487 312.5V312.4L206.637 305.5C206.637 304.533 206.22 304.05 205.387 304.05H204.787C203.12 304.717 202.287 308.367 202.287 315C202.287 317.3 201.704 318.45 200.537 318.45C199.637 318.45 199.17 317.883 199.137 316.75V311.75C199.137 305.283 199.704 302.05 200.837 302.05L201.337 301.9L202.387 302.05C203.287 301.45 204.237 301.15 205.237 301.15ZM224.354 290.55C224.921 290.55 225.438 291.083 225.904 292.15L223.704 306.05V309.95C223.704 314.017 224.338 316.05 225.604 316.05C226.438 316.45 226.854 316.983 226.854 317.65C226.854 318.417 226.188 318.867 224.854 319C223.388 319 222.238 317.65 221.404 314.95H220.904C219.671 317.65 218.171 319 216.404 319C214.338 319 213.088 317.433 212.654 314.3C212.654 310.667 215.088 306.817 219.954 302.75C220.921 302.75 221.404 301.4 221.404 298.7C222.138 293.267 223.121 290.55 224.354 290.55ZM215.604 313.9V315.25L216.404 316.05H216.704C217.771 316.05 219.021 312.833 220.454 306.4H220.154C217.121 309.433 215.604 311.933 215.604 313.9ZM229.22 291.95C230.487 292.217 231.12 292.783 231.12 293.65C230.787 294.583 230.253 295.05 229.52 295.05C228.287 294.817 227.67 294.2 227.67 293.2C228.003 292.367 228.52 291.95 229.22 291.95ZM231.12 298.95C231.653 298.95 232.103 299.433 232.47 300.4L232.02 303.95V306.3C232.02 309.033 232.487 312.617 233.42 317.05C233.087 317.683 232.52 318 231.72 318C230.353 318 229.453 314 229.02 306V304.25C229.02 300.717 229.72 298.95 231.12 298.95ZM241.893 287.65C242.826 287.85 243.293 288.317 243.293 289.05L242.993 291.25V291.9C242.993 293.367 243.16 294.917 243.493 296.55H243.593C247.46 295.383 249.86 294.8 250.793 294.8C251.76 295.067 252.243 295.55 252.243 296.25C252.243 297.383 251.093 297.95 248.793 297.95L243.593 299.8C243.593 304.3 244.076 310.417 245.043 318.15C244.843 319.05 244.36 319.5 243.593 319.5H243.493C242.326 319.5 241.743 318 241.743 315C241.31 312.767 240.943 307.917 240.643 300.45H239.743C236.61 300.25 235.043 299.517 235.043 298.25C235.043 297.883 235.393 297.433 236.093 296.9H236.593L238.893 297.5H240.493L240.043 291.25C240.043 288.85 240.66 287.65 241.893 287.65ZM254.366 291.95C255.633 292.217 256.266 292.783 256.266 293.65C255.933 294.583 255.4 295.05 254.666 295.05C253.433 294.817 252.816 294.2 252.816 293.2C253.15 292.367 253.666 291.95 254.366 291.95ZM256.266 298.95C256.8 298.95 257.25 299.433 257.616 300.4L257.166 303.95V306.3C257.166 309.033 257.633 312.617 258.566 317.05C258.233 317.683 257.666 318 256.866 318C255.5 318 254.6 314 254.166 306V304.25C254.166 300.717 254.866 298.95 256.266 298.95ZM269.139 299.15C271.606 299.15 273.473 300.983 274.739 304.65L274.939 305.7C274.939 309.267 273.273 312.917 269.939 316.65C268.606 317.883 267.256 318.5 265.889 318.5C263.889 318.5 262.473 317.35 261.639 315.05C261.339 313.983 261.189 313.05 261.189 312.25V311.65C261.189 306.383 263.106 302.383 266.939 299.65C267.606 299.317 268.339 299.15 269.139 299.15ZM264.139 312.15C264.139 314.417 264.723 315.55 265.889 315.55C268.323 315.55 270.339 312.433 271.939 306.2V305.25C271.373 303.183 270.323 302.15 268.789 302.15C268.189 302.15 267.889 302.567 267.889 303.4C267.889 303.967 267.223 304.417 265.889 304.75C264.723 306.717 264.139 309.183 264.139 312.15ZM283.655 301.15C286.488 301.383 287.905 302.767 287.905 305.3L288.005 305.95L287.905 313.75C287.905 314.65 288.422 315.867 289.455 317.4V317.5C289.188 318.467 288.705 318.95 288.005 318.95C285.938 318.083 284.905 316.25 284.905 313.45V312.8L284.755 312.7L284.905 312.5V312.4L285.055 305.5C285.055 304.533 284.638 304.05 283.805 304.05H283.205C281.538 304.717 280.705 308.367 280.705 315C280.705 317.3 280.122 318.45 278.955 318.45C278.055 318.45 277.588 317.883 277.555 316.75V311.75C277.555 305.283 278.122 302.05 279.255 302.05L279.755 301.9L280.805 302.05C281.705 301.45 282.655 301.15 283.655 301.15ZM301.072 297.75C301.972 297.75 302.589 299.267 302.922 302.3C302.589 303.133 302.039 303.55 301.272 303.55C300.739 303.45 300.206 302.833 299.672 301.7L298.772 301.4C297.206 301.4 295.789 302.433 294.522 304.5V304.95C294.522 305.45 296.872 306.283 301.572 307.45C303.539 308.617 304.522 310.033 304.522 311.7C304.522 314.433 302.322 316.767 297.922 318.7L296.072 319C293.272 318.7 291.872 317.3 291.872 314.8V314.65C291.872 313.85 292.389 313.383 293.422 313.25C294.222 313.25 294.756 314.083 295.022 315.75L295.422 316.05H296.272C298.172 316.05 299.939 314.75 301.572 312.15V311.5C301.572 310.5 299.389 309.567 295.022 308.7C292.722 307.767 291.572 306.467 291.572 304.8C291.572 302.633 293.389 300.6 297.022 298.7C298.622 298.5 299.972 298.183 301.072 297.75Z" fill="#464646"/>
<path d="M544.35 259.3L545.6 258.9C546.733 258.9 547.3 260.4 547.3 263.4L548.85 274.95L549.05 275.15L554.8 273.05C555.567 273.05 555.983 273.633 556.05 274.8C556.05 275.667 553.933 276.717 549.7 277.95L549.5 278.05V278.25C549.5 278.95 550.6 282.6 552.8 289.2V289.3C552.8 289.933 552.283 290.467 551.25 290.9C550.283 290.9 549.65 289.75 549.35 287.45C548.583 285.783 547.65 283.033 546.55 279.2H546.35C541.983 280.1 539.8 280.867 539.8 281.5C537.4 286.7 535.583 289.3 534.35 289.3C533.65 289.3 533.233 288.85 533.1 287.95C533.1 287.15 533.983 285.583 535.75 283.25L536.55 281.5H535.3L534.35 281.7C533.117 281.4 532.5 280.767 532.5 279.8C533 278.633 533.733 278.05 534.7 278.05L535.95 278.55C537.817 278.55 538.75 277.867 538.75 276.5C540.45 272.5 542.317 266.767 544.35 259.3ZM544.8 268.4L541.85 277.3C544.583 276.767 545.95 276.25 545.95 275.75C545.45 270.85 545.067 268.4 544.8 268.4ZM558.134 262.95C559.401 263.217 560.034 263.783 560.034 264.65C559.701 265.583 559.167 266.05 558.434 266.05C557.201 265.817 556.584 265.2 556.584 264.2C556.917 263.367 557.434 262.95 558.134 262.95ZM560.034 269.95C560.567 269.95 561.017 270.433 561.384 271.4L560.934 274.95V277.3C560.934 280.033 561.401 283.617 562.334 288.05C562.001 288.683 561.434 289 560.634 289C559.267 289 558.367 285 557.934 277V275.25C557.934 271.717 558.634 269.95 560.034 269.95ZM571.507 269.3C573.607 269.3 574.857 270.767 575.257 273.7V274.15C575.257 277.383 573.59 280.35 570.257 283.05C572.19 284.95 575.574 285.9 580.407 285.9C581.14 286.133 581.507 286.65 581.507 287.45C581.507 288.35 580.924 288.8 579.757 288.8C576.49 288.8 573.057 287.967 569.457 286.3V287.75C569.457 291.183 568.724 292.9 567.257 292.9C566.224 292.9 565.707 290.917 565.707 286.95V283.05L565.557 281.65L565.907 280.05L565.557 275.25V275.05C565.557 274.15 566.024 273.533 566.957 273.2C568.257 270.6 569.774 269.3 571.507 269.3ZM569.007 280.25C569.974 280.25 571.057 278.517 572.257 275.05V272.9L571.657 272.25H571.207C569.74 273.25 569.007 275.917 569.007 280.25ZM539.05 307.05L541.1 306.75C541.933 306.75 542.4 307.267 542.5 308.3C542.5 309.2 541.417 309.783 539.25 310.05C537.883 311.117 537.2 312.483 537.2 314.15V315.8C537.867 319.467 539 321.3 540.6 321.3H541.1C542.033 321.3 543.433 320.417 545.3 318.65H545.6C546.267 318.65 546.8 319.117 547.2 320.05C546.733 321.483 545.233 322.783 542.7 323.95C542.233 324.15 541.65 324.25 540.95 324.25C537.517 324.25 535.283 321.55 534.25 316.15V315.05C534.25 311.15 535.85 308.483 539.05 307.05ZM557.721 305.15C560.188 305.15 562.055 306.983 563.321 310.65L563.521 311.7C563.521 315.267 561.855 318.917 558.521 322.65C557.188 323.883 555.838 324.5 554.471 324.5C552.471 324.5 551.055 323.35 550.221 321.05C549.921 319.983 549.771 319.05 549.771 318.25V317.65C549.771 312.383 551.688 308.383 555.521 305.65C556.188 305.317 556.921 305.15 557.721 305.15ZM552.721 318.15C552.721 320.417 553.305 321.55 554.471 321.55C556.905 321.55 558.921 318.433 560.521 312.2V311.25C559.955 309.183 558.905 308.15 557.371 308.15C556.771 308.15 556.471 308.567 556.471 309.4C556.471 309.967 555.805 310.417 554.471 310.75C553.305 312.717 552.721 315.183 552.721 318.15ZM572.237 307.15C575.07 307.383 576.487 308.767 576.487 311.3L576.587 311.95L576.487 319.75C576.487 320.65 577.004 321.867 578.037 323.4V323.5C577.77 324.467 577.287 324.95 576.587 324.95C574.52 324.083 573.487 322.25 573.487 319.45V318.8L573.337 318.7L573.487 318.5V318.4L573.637 311.5C573.637 310.533 573.22 310.05 572.387 310.05H571.787C570.12 310.717 569.287 314.367 569.287 321C569.287 323.3 568.704 324.45 567.537 324.45C566.637 324.45 566.17 323.883 566.137 322.75V317.75C566.137 311.283 566.704 308.05 567.837 308.05L568.337 307.9L569.387 308.05C570.287 307.45 571.237 307.15 572.237 307.15ZM591.354 296.55C591.921 296.55 592.438 297.083 592.904 298.15L590.704 312.05V315.95C590.704 320.017 591.338 322.05 592.604 322.05C593.438 322.45 593.854 322.983 593.854 323.65C593.854 324.417 593.188 324.867 591.854 325C590.388 325 589.238 323.65 588.404 320.95H587.904C586.671 323.65 585.171 325 583.404 325C581.338 325 580.088 323.433 579.654 320.3C579.654 316.667 582.088 312.817 586.954 308.75C587.921 308.75 588.404 307.4 588.404 304.7C589.138 299.267 590.121 296.55 591.354 296.55ZM582.604 319.9V321.25L583.404 322.05H583.704C584.771 322.05 586.021 318.833 587.454 312.4H587.154C584.121 315.433 582.604 317.933 582.604 319.9ZM596.22 297.95C597.487 298.217 598.12 298.783 598.12 299.65C597.787 300.583 597.253 301.05 596.52 301.05C595.287 300.817 594.67 300.2 594.67 299.2C595.003 298.367 595.52 297.95 596.22 297.95ZM598.12 304.95C598.653 304.95 599.103 305.433 599.47 306.4L599.02 309.95V312.3C599.02 315.033 599.487 318.617 600.42 323.05C600.087 323.683 599.52 324 598.72 324C597.353 324 596.453 320 596.02 312V310.25C596.02 306.717 596.72 304.95 598.12 304.95ZM608.893 293.65C609.826 293.85 610.293 294.317 610.293 295.05L609.993 297.25V297.9C609.993 299.367 610.16 300.917 610.493 302.55H610.593C614.46 301.383 616.86 300.8 617.793 300.8C618.76 301.067 619.243 301.55 619.243 302.25C619.243 303.383 618.093 303.95 615.793 303.95L610.593 305.8C610.593 310.3 611.076 316.417 612.043 324.15C611.843 325.05 611.36 325.5 610.593 325.5H610.493C609.326 325.5 608.743 324 608.743 321C608.31 318.767 607.943 313.917 607.643 306.45H606.743C603.61 306.25 602.043 305.517 602.043 304.25C602.043 303.883 602.393 303.433 603.093 302.9H603.593L605.893 303.5H607.493L607.043 297.25C607.043 294.85 607.66 293.65 608.893 293.65ZM621.366 297.95C622.633 298.217 623.266 298.783 623.266 299.65C622.933 300.583 622.4 301.05 621.666 301.05C620.433 300.817 619.816 300.2 619.816 299.2C620.15 298.367 620.666 297.95 621.366 297.95ZM623.266 304.95C623.8 304.95 624.25 305.433 624.616 306.4L624.166 309.95V312.3C624.166 315.033 624.633 318.617 625.566 323.05C625.233 323.683 624.666 324 623.866 324C622.5 324 621.6 320 621.166 312V310.25C621.166 306.717 621.866 304.95 623.266 304.95ZM636.139 305.15C638.606 305.15 640.473 306.983 641.739 310.65L641.939 311.7C641.939 315.267 640.273 318.917 636.939 322.65C635.606 323.883 634.256 324.5 632.889 324.5C630.889 324.5 629.473 323.35 628.639 321.05C628.339 319.983 628.189 319.05 628.189 318.25V317.65C628.189 312.383 630.106 308.383 633.939 305.65C634.606 305.317 635.339 305.15 636.139 305.15ZM631.139 318.15C631.139 320.417 631.723 321.55 632.889 321.55C635.323 321.55 637.339 318.433 638.939 312.2V311.25C638.373 309.183 637.323 308.15 635.789 308.15C635.189 308.15 634.889 308.567 634.889 309.4C634.889 309.967 634.223 310.417 632.889 310.75C631.723 312.717 631.139 315.183 631.139 318.15ZM650.655 307.15C653.488 307.383 654.905 308.767 654.905 311.3L655.005 311.95L654.905 319.75C654.905 320.65 655.422 321.867 656.455 323.4V323.5C656.188 324.467 655.705 324.95 655.005 324.95C652.938 324.083 651.905 322.25 651.905 319.45V318.8L651.755 318.7L651.905 318.5V318.4L652.055 311.5C652.055 310.533 651.638 310.05 650.805 310.05H650.205C648.538 310.717 647.705 314.367 647.705 321C647.705 323.3 647.122 324.45 645.955 324.45C645.055 324.45 644.588 323.883 644.555 322.75V317.75C644.555 311.283 645.122 308.05 646.255 308.05L646.755 307.9L647.805 308.05C648.705 307.45 649.655 307.15 650.655 307.15ZM668.072 303.75C668.972 303.75 669.589 305.267 669.922 308.3C669.589 309.133 669.039 309.55 668.272 309.55C667.739 309.45 667.206 308.833 666.672 307.7L665.772 307.4C664.206 307.4 662.789 308.433 661.522 310.5V310.95C661.522 311.45 663.872 312.283 668.572 313.45C670.539 314.617 671.522 316.033 671.522 317.7C671.522 320.433 669.322 322.767 664.922 324.7L663.072 325C660.272 324.7 658.872 323.3 658.872 320.8V320.65C658.872 319.85 659.389 319.383 660.422 319.25C661.222 319.25 661.756 320.083 662.022 321.75L662.422 322.05H663.272C665.172 322.05 666.939 320.75 668.572 318.15V317.5C668.572 316.5 666.389 315.567 662.022 314.7C659.722 313.767 658.572 312.467 658.572 310.8C658.572 308.633 660.389 306.6 664.022 304.7C665.622 304.5 666.972 304.183 668.072 303.75Z" fill="#464646"/>
<path d="M754.515 462.368C777.295 460.769 780.126 502.158 780.186 516.613C780.352 559.454 790.757 655.103 780.45 691.133C769.388 729.813 669.73 722.653 627.226 723.896C499.461 727.635 376.991 724.713 240.939 724.766C207.225 724.781 172.096 728.049 138.849 723.887C105.392 719.702 94.7151 702.731 91.2279 678.001C88.6388 659.652 86.9707 562.94 86.1932 533.06C85.8196 518.679 84.8949 482.122 95.9493 470.865C112.106 454.403 154.225 457.16 172.28 457.192C212.101 457.266 634.196 457.848 741.781 462.468" stroke="#2C2C2C" stroke-width="2" stroke-miterlimit="1.5" stroke-linecap="round" stroke-linejoin="round"/>
<path d="M1232.68 715.423C1247.12 718.573 1248.91 637.026 1248.95 608.547C1249.05 524.139 1255.65 335.687 1249.12 264.696C1242.11 188.488 1178.95 202.595 1152.01 200.145C1071.04 192.779 993.419 198.535 907.194 198.431C885.828 198.402 863.564 191.963 842.494 200.163C821.29 208.409 814.523 241.845 812.313 290.57C810.672 326.722 809.615 517.271 809.122 576.141C808.886 604.476 808.3 676.503 815.305 698.682C825.545 731.116 852.239 725.685 863.681 725.621C888.918 725.476 1156.43 724.33 1224.61 715.226" stroke="#2C2C2C" stroke-width="2" stroke-miterlimit="1.5" stroke-linecap="round" stroke-linejoin="round"/>
<path d="M160.95 476.15C162.117 476.15 162.7 478.183 162.7 482.25L163 490.05H163.1L171.1 486.95C171.9 480.15 172.633 476.75 173.3 476.75L173.95 476.65C174.517 476.65 175.033 477.1 175.5 478C174.333 483.733 173.75 488.7 173.75 492.9V495.05C173.75 498.117 174.483 501.033 175.95 503.8C175.617 504.733 175.083 505.2 174.35 505.2C172.75 505.2 171.567 501.967 170.8 495.5V490.4H170.5C165.5 492.167 163 493.3 163 493.8C163 501.733 162.267 505.7 160.8 505.7H160.6C159.9 505.7 159.45 505.117 159.25 503.95C159.75 500.317 160 497.5 160 495.5L157.8 496.65L157.35 496.75C156.517 496.45 156.1 495.933 156.1 495.2C156.1 494.467 157.4 493.317 160 491.75V491.65C159.9 485.917 159.683 481.167 159.35 477.4C159.35 476.667 159.883 476.25 160.95 476.15ZM186.044 485.15C188.51 485.15 190.377 486.983 191.644 490.65L191.844 491.7C191.844 495.267 190.177 498.917 186.844 502.65C185.51 503.883 184.16 504.5 182.794 504.5C180.794 504.5 179.377 503.35 178.544 501.05C178.244 499.983 178.094 499.05 178.094 498.25V497.65C178.094 492.383 180.01 488.383 183.844 485.65C184.51 485.317 185.244 485.15 186.044 485.15ZM181.044 498.15C181.044 500.417 181.627 501.55 182.794 501.55C185.227 501.55 187.244 498.433 188.844 492.2V491.25C188.277 489.183 187.227 488.15 185.694 488.15C185.094 488.15 184.794 488.567 184.794 489.4C184.794 489.967 184.127 490.417 182.794 490.75C181.627 492.717 181.044 495.183 181.044 498.15ZM196.059 488.95L196.959 488.45C197.759 488.45 198.343 488.933 198.709 489.9C198.176 492.367 197.909 494.9 197.909 497.5C197.909 498.8 198.293 500.217 199.059 501.75H199.359C200.326 501.75 201.476 497.933 202.809 490.3C203.276 489.9 203.726 489.7 204.159 489.7C205.193 489.7 205.709 491.533 205.709 495.2C206.143 499.233 206.626 501.25 207.159 501.25L207.909 500.95C208.876 501.317 209.359 501.833 209.359 502.5C208.759 503.767 207.926 504.4 206.859 504.4C205.659 504.4 204.509 503.2 203.409 500.8C202.076 503.6 200.726 505 199.359 505C197.326 505 195.909 502.883 195.109 498.65L194.959 497.05V496.55C194.959 493.883 195.326 491.35 196.059 488.95ZM217.017 484.3C219.117 484.3 220.367 485.767 220.767 488.7V489.15C220.767 492.383 219.1 495.35 215.767 498.05C217.7 499.95 221.083 500.9 225.917 500.9C226.65 501.133 227.017 501.65 227.017 502.45C227.017 503.35 226.433 503.8 225.267 503.8C222 503.8 218.567 502.967 214.967 501.3V502.75C214.967 506.183 214.233 507.9 212.767 507.9C211.733 507.9 211.217 505.917 211.217 501.95V498.05L211.067 496.65L211.417 495.05L211.067 490.25V490.05C211.067 489.15 211.533 488.533 212.467 488.2C213.767 485.6 215.283 484.3 217.017 484.3ZM214.517 495.25C215.483 495.25 216.567 493.517 217.767 490.05V487.9L217.167 487.25H216.717C215.25 488.25 214.517 490.917 214.517 495.25ZM231.529 476.45C232.462 476.783 232.929 477.3 232.929 478L233.429 497.05V503.2C233.429 504.333 232.945 504.9 231.979 504.9H231.329C230.729 504.5 230.429 504.033 230.429 503.5V497.7L229.979 477.9C229.979 477.067 230.495 476.583 231.529 476.45ZM238.628 489C239.795 489 240.595 491.567 241.028 496.7C241.595 499.067 242.011 500.25 242.278 500.25H242.578C243.411 498.15 243.828 496.067 243.828 494L243.528 490.55C243.895 489.65 244.411 489.2 245.078 489.2C246.311 489.2 246.928 491.383 246.928 495.75C247.661 500.283 248.028 504.5 248.028 508.4V510.75C248.028 517.917 245.995 522.75 241.928 525.25L240.828 525.45C238.928 525.45 237.161 523.683 235.528 520.15L235.078 517.15V517C235.078 514.8 235.695 513.7 236.928 513.7L238.178 514.5L238.028 517.65C238.028 519.183 238.811 520.733 240.378 522.3H241.028C242.861 522.3 244.211 518.8 245.078 511.8L245.178 508.9C245.145 505.533 245.011 503.383 244.778 502.45C243.445 503.617 242.395 504.2 241.628 504.2C239.928 504.2 238.411 499.65 237.078 490.55L236.928 490.45C236.928 489.683 237.495 489.2 238.628 489ZM276.908 481.5C278.475 481.5 279.558 483.167 280.158 486.5V486.7C280.158 487.467 279.642 487.917 278.608 488.05C277.775 488.05 277.208 487.017 276.908 484.95L276.708 484.8H276.108C275.375 485.867 275.008 487.267 275.008 489L275.158 491.5C276.492 491.5 277.942 491.15 279.508 490.45C280.142 490.45 280.725 490.9 281.258 491.8C281.258 493.167 279.392 494.067 275.658 494.5L276.908 502.65C276.908 503.35 276.325 503.8 275.158 504C274.125 504 273.608 502.4 273.608 499.2L272.658 494.95L269.408 495.45C268.708 495.45 268.292 494.933 268.158 493.9C268.158 492.9 269.508 492.267 272.208 492L272.008 488.9C272.542 483.967 274.175 481.5 276.908 481.5ZM290.585 485.15C293.051 485.15 294.918 486.983 296.185 490.65L296.385 491.7C296.385 495.267 294.718 498.917 291.385 502.65C290.051 503.883 288.701 504.5 287.335 504.5C285.335 504.5 283.918 503.35 283.085 501.05C282.785 499.983 282.635 499.05 282.635 498.25V497.65C282.635 492.383 284.551 488.383 288.385 485.65C289.051 485.317 289.785 485.15 290.585 485.15ZM285.585 498.15C285.585 500.417 286.168 501.55 287.335 501.55C289.768 501.55 291.785 498.433 293.385 492.2V491.25C292.818 489.183 291.768 488.15 290.235 488.15C289.635 488.15 289.335 488.567 289.335 489.4C289.335 489.967 288.668 490.417 287.335 490.75C286.168 492.717 285.585 495.183 285.585 498.15ZM305.2 484.3C307.3 484.3 308.55 485.767 308.95 488.7V489.15C308.95 492.383 307.284 495.35 303.95 498.05C305.884 499.95 309.267 500.9 314.1 500.9C314.834 501.133 315.2 501.65 315.2 502.45C315.2 503.35 314.617 503.8 313.45 503.8C310.184 503.8 306.75 502.967 303.15 501.3V502.75C303.15 506.183 302.417 507.9 300.95 507.9C299.917 507.9 299.4 505.917 299.4 501.95V498.05L299.25 496.65L299.6 495.05L299.25 490.25V490.05C299.25 489.15 299.717 488.533 300.65 488.2C301.95 485.6 303.467 484.3 305.2 484.3ZM302.7 495.25C303.667 495.25 304.75 493.517 305.95 490.05V487.9L305.35 487.25H304.9C303.434 488.25 302.7 490.917 302.7 495.25ZM321.362 486.05C322.695 486.083 324.945 488.417 328.112 493.05L328.212 493.9C328.212 494.833 325.929 495.55 321.362 496.05L321.212 496.2V496.4C321.912 499.4 322.645 500.9 323.412 500.9H324.012C325.079 500.9 326.695 499.75 328.862 497.45H329.162C329.829 497.45 330.345 497.933 330.712 498.9C330.712 499.7 329.312 501.083 326.512 503.05C325.779 503.483 324.895 503.8 323.862 504C321.162 504 319.279 501.467 318.212 496.4C316.679 496.167 315.912 495.533 315.912 494.5C315.912 493.767 316.479 493.283 317.612 493.05V493.25L318.112 493.05V491.8C318.112 487.967 319.195 486.05 321.362 486.05ZM321.662 489.65H321.212L321.012 491.5V493.05H321.212C323.079 492.983 324.012 492.783 324.012 492.45C323.145 491.15 322.362 490.217 321.662 489.65ZM337.734 487.05L339.784 486.75C340.617 486.75 341.084 487.267 341.184 488.3C341.184 489.2 340.1 489.783 337.934 490.05C336.567 491.117 335.884 492.483 335.884 494.15V495.8C336.55 499.467 337.684 501.3 339.284 501.3H339.784C340.717 501.3 342.117 500.417 343.984 498.65H344.284C344.95 498.65 345.484 499.117 345.884 500.05C345.417 501.483 343.917 502.783 341.384 503.95C340.917 504.15 340.334 504.25 339.634 504.25C336.2 504.25 333.967 501.55 332.934 496.15V495.05C332.934 491.15 334.534 488.483 337.734 487.05ZM357.755 484.7C359.222 484.7 359.955 485.283 359.955 486.45L359.505 487.4L359.205 496.55C359.205 500.683 360.038 503.25 361.705 504.25L361.805 505C361.705 505.967 361.255 506.45 360.455 506.45H360.155C357.655 504.75 356.405 502.15 356.405 498.65H356.055C354.722 502.383 353.105 504.25 351.205 504.25C349.438 503.75 348.555 502.433 348.555 500.3C348.555 495.6 350.438 490.917 354.205 486.25C355.472 485.217 356.655 484.7 357.755 484.7ZM351.705 498.3L351.505 499.7V500.65H352.005C354.505 494.417 355.755 490.617 355.755 489.25H355.555C353.622 491.417 352.338 494.433 351.705 498.3ZM373.055 483.75C373.955 483.75 374.571 485.267 374.905 488.3C374.571 489.133 374.021 489.55 373.255 489.55C372.721 489.45 372.188 488.833 371.655 487.7L370.755 487.4C369.188 487.4 367.771 488.433 366.505 490.5V490.95C366.505 491.45 368.855 492.283 373.555 493.45C375.521 494.617 376.505 496.033 376.505 497.7C376.505 500.433 374.305 502.767 369.905 504.7L368.055 505C365.255 504.7 363.855 503.3 363.855 500.8V500.65C363.855 499.85 364.371 499.383 365.405 499.25C366.205 499.25 366.738 500.083 367.005 501.75L367.405 502.05H368.255C370.155 502.05 371.921 500.75 373.555 498.15V497.5C373.555 496.5 371.371 495.567 367.005 494.7C364.705 493.767 363.555 492.467 363.555 490.8C363.555 488.633 365.371 486.6 369.005 484.7C370.605 484.5 371.955 484.183 373.055 483.75ZM384.237 473.65C385.17 473.85 385.637 474.317 385.637 475.05L385.337 477.25V477.9C385.337 479.367 385.503 480.917 385.837 482.55H385.937C389.803 481.383 392.203 480.8 393.137 480.8C394.103 481.067 394.587 481.55 394.587 482.25C394.587 483.383 393.437 483.95 391.137 483.95L385.937 485.8C385.937 490.3 386.42 496.417 387.387 504.15C387.187 505.05 386.703 505.5 385.937 505.5H385.837C384.67 505.5 384.087 504 384.087 501C383.653 498.767 383.287 493.917 382.987 486.45H382.087C378.953 486.25 377.387 485.517 377.387 484.25C377.387 483.883 377.737 483.433 378.437 482.9H378.937L381.237 483.5H382.837L382.387 477.25C382.387 474.85 383.003 473.65 384.237 473.65Z" fill="#464646"/>
<path d="M159.8 630.45C160.333 630.45 160.817 630.967 161.25 632C161.25 632.8 160.033 633.467 157.6 634C154.533 635.7 152.15 638.667 150.45 642.9C148.783 647.133 147.95 651.317 147.95 655.45C147.95 662.083 150.083 666.35 154.35 668.25L155.95 668.55C159.517 668.55 162.05 665.433 163.55 659.2L163.75 657.15C163.75 654.483 162.85 652.25 161.05 650.45H160.75C160.05 651.25 158.65 654.067 156.55 658.9L155.45 659.65C154.517 659.65 153.983 659.083 153.85 657.95C157.017 650.45 159.167 646.7 160.3 646.7H160.6C164.667 649.067 166.7 652.55 166.7 657.15C166.7 662.35 164.567 666.683 160.3 670.15C159.6 670.75 158.183 671.2 156.05 671.5C152.017 671.5 148.683 668.583 146.05 662.75C145.35 660.25 145 657.967 145 655.9V655.15C145 648.017 147.283 641.283 151.85 634.95C154.817 631.95 157.467 630.45 159.8 630.45ZM175.573 648.3C177.673 648.3 178.923 649.767 179.323 652.7V653.15C179.323 656.383 177.657 659.35 174.323 662.05C176.257 663.95 179.64 664.9 184.473 664.9C185.207 665.133 185.573 665.65 185.573 666.45C185.573 667.35 184.99 667.8 183.823 667.8C180.557 667.8 177.123 666.967 173.523 665.3V666.75C173.523 670.183 172.79 671.9 171.323 671.9C170.29 671.9 169.773 669.917 169.773 665.95V662.05L169.623 660.65L169.973 659.05L169.623 654.25V654.05C169.623 653.15 170.09 652.533 171.023 652.2C172.323 649.6 173.84 648.3 175.573 648.3ZM173.073 659.25C174.04 659.25 175.123 657.517 176.323 654.05V651.9L175.723 651.25H175.273C173.807 652.25 173.073 654.917 173.073 659.25ZM196.585 648.7C198.052 648.7 198.785 649.283 198.785 650.45L198.335 651.4L198.035 660.55C198.035 664.683 198.868 667.25 200.535 668.25L200.635 669C200.535 669.967 200.085 670.45 199.285 670.45H198.985C196.485 668.75 195.235 666.15 195.235 662.65H194.885C193.552 666.383 191.935 668.25 190.035 668.25C188.268 667.75 187.385 666.433 187.385 664.3C187.385 659.6 189.268 654.917 193.035 650.25C194.302 649.217 195.485 648.7 196.585 648.7ZM190.535 662.3L190.335 663.7V664.65H190.835C193.335 658.417 194.585 654.617 194.585 653.25H194.385C192.452 655.417 191.168 658.433 190.535 662.3ZM207.985 653.15C211.518 653.15 213.601 655.367 214.235 659.8C214.235 663.733 212.401 666.55 208.735 668.25C208.335 668.45 207.785 668.55 207.085 668.55H206.735L205.635 668.45V668.55L205.835 681.9C205.601 682.933 205.068 683.45 204.235 683.45C203.301 683.15 202.835 682.667 202.835 682L202.385 654.8C202.385 653.933 202.901 653.483 203.935 653.45L204.985 653.9C205.918 653.4 206.918 653.15 207.985 653.15ZM205.485 658.45L205.335 660L205.485 665.3L206.885 665.65C209.118 665.65 210.568 664.017 211.235 660.75V660C211.001 657.367 210.068 656.05 208.435 656.05H207.685C206.218 656.05 205.485 656.85 205.485 658.45ZM218.681 640.4C219.614 640.4 220.081 641.533 220.081 643.8L220.681 652.4H220.881L223.381 651.45C226.181 651.45 227.881 654.317 228.481 660.05C228.714 661.683 228.831 664.083 228.831 667.25V671.3C228.831 672.567 228.364 673.2 227.431 673.2H227.231C226.331 673.067 225.881 672.583 225.881 671.75V667.05C225.881 659.517 225.148 655.35 223.681 654.55H223.381C222.381 654.55 221.648 656.083 221.181 659.15V661.95C221.181 666.95 220.764 669.45 219.931 669.45L218.981 669.55C218.048 669.55 217.581 668.167 217.581 665.4C217.681 662.467 217.881 660.067 218.181 658.2L217.131 641.75C217.131 640.883 217.648 640.433 218.681 640.4Z" fill="#464646"/>
<path d="M865.95 232.7H866.25C868.417 232.7 869.5 233.267 869.5 234.4C869.4 234.867 869.05 235.333 868.45 235.8L866.05 235.65H865.75C864.15 235.65 861.65 236.117 858.25 237.05L859.05 243H859.35C862.183 240.933 864.483 239.9 866.25 239.9C869.383 239.9 871.25 241.983 871.85 246.15V246.45C871.85 249.983 869.467 252.683 864.7 254.55L862.2 255C859.567 254.7 858.25 254.083 858.25 253.15C858.65 252.083 859.233 251.55 860 251.55L861.7 252.05H862.95C864.983 252.05 866.817 250.8 868.45 248.3C868.717 247.7 868.85 247.183 868.85 246.75V245.8C868.617 243.8 867.683 242.8 866.05 242.8H865.95C863.883 242.8 861.417 244.583 858.55 248.15H858.25C856.917 248.15 856.25 246.433 856.25 243L855 235.5C855 234.467 856.35 233.95 859.05 233.95C862.183 233.117 864.483 232.7 865.95 232.7ZM905.151 227.55C905.718 227.55 906.235 228.083 906.701 229.15L904.501 243.05V246.95C904.501 251.017 905.135 253.05 906.401 253.05C907.235 253.45 907.651 253.983 907.651 254.65C907.651 255.417 906.985 255.867 905.651 256C904.185 256 903.035 254.65 902.201 251.95H901.701C900.468 254.65 898.968 256 897.201 256C895.135 256 893.885 254.433 893.451 251.3C893.451 247.667 895.885 243.817 900.751 239.75C901.718 239.75 902.201 238.4 902.201 235.7C902.935 230.267 903.918 227.55 905.151 227.55ZM896.401 250.9V252.25L897.201 253.05H897.501C898.568 253.05 899.818 249.833 901.251 243.4H900.951C897.918 246.433 896.401 248.933 896.401 250.9ZM918.767 235.7C920.233 235.7 920.967 236.283 920.967 237.45L920.517 238.4L920.217 247.55C920.217 251.683 921.05 254.25 922.717 255.25L922.817 256C922.717 256.967 922.267 257.45 921.467 257.45H921.167C918.667 255.75 917.417 253.15 917.417 249.65H917.067C915.733 253.383 914.117 255.25 912.217 255.25C910.45 254.75 909.567 253.433 909.567 251.3C909.567 246.6 911.45 241.917 915.217 237.25C916.483 236.217 917.667 235.7 918.767 235.7ZM912.717 249.3L912.517 250.7V251.65H913.017C915.517 245.417 916.767 241.617 916.767 240.25H916.567C914.633 242.417 913.35 245.433 912.717 249.3ZM925.616 240C926.783 240 927.583 242.567 928.016 247.7C928.583 250.067 929 251.25 929.266 251.25H929.566C930.4 249.15 930.816 247.067 930.816 245L930.516 241.55C930.883 240.65 931.4 240.2 932.066 240.2C933.3 240.2 933.916 242.383 933.916 246.75C934.65 251.283 935.016 255.5 935.016 259.4V261.75C935.016 268.917 932.983 273.75 928.916 276.25L927.816 276.45C925.916 276.45 924.15 274.683 922.516 271.15L922.066 268.15V268C922.066 265.8 922.683 264.7 923.916 264.7L925.166 265.5L925.016 268.65C925.016 270.183 925.8 271.733 927.366 273.3H928.016C929.85 273.3 931.2 269.8 932.066 262.8L932.166 259.9C932.133 256.533 932 254.383 931.766 253.45C930.433 254.617 929.383 255.2 928.616 255.2C926.916 255.2 925.4 250.65 924.066 241.55L923.916 241.45C923.916 240.683 924.483 240.2 925.616 240ZM947.299 234.75C948.199 234.75 948.815 236.267 949.149 239.3C948.815 240.133 948.265 240.55 947.499 240.55C946.965 240.45 946.432 239.833 945.899 238.7L944.999 238.4C943.432 238.4 942.015 239.433 940.749 241.5V241.95C940.749 242.45 943.099 243.283 947.799 244.45C949.765 245.617 950.749 247.033 950.749 248.7C950.749 251.433 948.549 253.767 944.149 255.7L942.299 256C939.499 255.7 938.099 254.3 938.099 251.8V251.65C938.099 250.85 938.615 250.383 939.649 250.25C940.449 250.25 940.982 251.083 941.249 252.75L941.649 253.05H942.499C944.399 253.05 946.165 251.75 947.799 249.15V248.5C947.799 247.5 945.615 246.567 941.249 245.7C938.949 244.767 937.799 243.467 937.799 241.8C937.799 239.633 939.615 237.6 943.249 235.7C944.849 235.5 946.199 235.183 947.299 234.75ZM979.229 232.5C980.795 232.5 981.879 234.167 982.479 237.5V237.7C982.479 238.467 981.962 238.917 980.929 239.05C980.095 239.05 979.529 238.017 979.229 235.95L979.029 235.8H978.429C977.695 236.867 977.329 238.267 977.329 240L977.479 242.5C978.812 242.5 980.262 242.15 981.829 241.45C982.462 241.45 983.045 241.9 983.579 242.8C983.579 244.167 981.712 245.067 977.979 245.5L979.229 253.65C979.229 254.35 978.645 254.8 977.479 255C976.445 255 975.929 253.4 975.929 250.2L974.979 245.95L971.729 246.45C971.029 246.45 970.612 245.933 970.479 244.9C970.479 243.9 971.829 243.267 974.529 243L974.329 239.9C974.862 234.967 976.495 232.5 979.229 232.5ZM992.905 236.15C995.372 236.15 997.238 237.983 998.505 241.65L998.705 242.7C998.705 246.267 997.038 249.917 993.705 253.65C992.372 254.883 991.022 255.5 989.655 255.5C987.655 255.5 986.238 254.35 985.405 252.05C985.105 250.983 984.955 250.05 984.955 249.25V248.65C984.955 243.383 986.872 239.383 990.705 236.65C991.372 236.317 992.105 236.15 992.905 236.15ZM987.905 249.15C987.905 251.417 988.488 252.55 989.655 252.55C992.088 252.55 994.105 249.433 995.705 243.2V242.25C995.138 240.183 994.088 239.15 992.555 239.15C991.955 239.15 991.655 239.567 991.655 240.4C991.655 240.967 990.988 241.417 989.655 241.75C988.488 243.717 987.905 246.183 987.905 249.15ZM1007.52 235.3C1009.62 235.3 1010.87 236.767 1011.27 239.7V240.15C1011.27 243.383 1009.6 246.35 1006.27 249.05C1008.2 250.95 1011.59 251.9 1016.42 251.9C1017.15 252.133 1017.52 252.65 1017.52 253.45C1017.52 254.35 1016.94 254.8 1015.77 254.8C1012.5 254.8 1009.07 253.967 1005.47 252.3V253.75C1005.47 257.183 1004.74 258.9 1003.27 258.9C1002.24 258.9 1001.72 256.917 1001.72 252.95V249.05L1001.57 247.65L1001.92 246.05L1001.57 241.25V241.05C1001.57 240.15 1002.04 239.533 1002.97 239.2C1004.27 236.6 1005.79 235.3 1007.52 235.3ZM1005.02 246.25C1005.99 246.25 1007.07 244.517 1008.27 241.05V238.9L1007.67 238.25H1007.22C1005.75 239.25 1005.02 241.917 1005.02 246.25ZM1023.68 237.05C1025.02 237.083 1027.27 239.417 1030.43 244.05L1030.53 244.9C1030.53 245.833 1028.25 246.55 1023.68 247.05L1023.53 247.2V247.4C1024.23 250.4 1024.97 251.9 1025.73 251.9H1026.33C1027.4 251.9 1029.02 250.75 1031.18 248.45H1031.48C1032.15 248.45 1032.67 248.933 1033.03 249.9C1033.03 250.7 1031.63 252.083 1028.83 254.05C1028.1 254.483 1027.22 254.8 1026.18 255C1023.48 255 1021.6 252.467 1020.53 247.4C1019 247.167 1018.23 246.533 1018.23 245.5C1018.23 244.767 1018.8 244.283 1019.93 244.05V244.25L1020.43 244.05V242.8C1020.43 238.967 1021.52 237.05 1023.68 237.05ZM1023.98 240.65H1023.53L1023.33 242.5V244.05H1023.53C1025.4 243.983 1026.33 243.783 1026.33 243.45C1025.47 242.15 1024.68 241.217 1023.98 240.65ZM1040.05 238.05L1042.1 237.75C1042.94 237.75 1043.4 238.267 1043.5 239.3C1043.5 240.2 1042.42 240.783 1040.25 241.05C1038.89 242.117 1038.2 243.483 1038.2 245.15V246.8C1038.87 250.467 1040 252.3 1041.6 252.3H1042.1C1043.04 252.3 1044.44 251.417 1046.3 249.65H1046.6C1047.27 249.65 1047.8 250.117 1048.2 251.05C1047.74 252.483 1046.24 253.783 1043.7 254.95C1043.24 255.15 1042.65 255.25 1041.95 255.25C1038.52 255.25 1036.29 252.55 1035.25 247.15V246.05C1035.25 242.15 1036.85 239.483 1040.05 238.05ZM1060.08 235.7C1061.54 235.7 1062.28 236.283 1062.28 237.45L1061.83 238.4L1061.53 247.55C1061.53 251.683 1062.36 254.25 1064.03 255.25L1064.13 256C1064.03 256.967 1063.58 257.45 1062.78 257.45H1062.48C1059.98 255.75 1058.73 253.15 1058.73 249.65H1058.38C1057.04 253.383 1055.43 255.25 1053.53 255.25C1051.76 254.75 1050.88 253.433 1050.88 251.3C1050.88 246.6 1052.76 241.917 1056.53 237.25C1057.79 236.217 1058.98 235.7 1060.08 235.7ZM1054.03 249.3L1053.83 250.7V251.65H1054.33C1056.83 245.417 1058.08 241.617 1058.08 240.25H1057.88C1055.94 242.417 1054.66 245.433 1054.03 249.3ZM1075.38 234.75C1076.28 234.75 1076.89 236.267 1077.22 239.3C1076.89 240.133 1076.34 240.55 1075.58 240.55C1075.04 240.45 1074.51 239.833 1073.98 238.7L1073.08 238.4C1071.51 238.4 1070.09 239.433 1068.83 241.5V241.95C1068.83 242.45 1071.18 243.283 1075.88 244.45C1077.84 245.617 1078.83 247.033 1078.83 248.7C1078.83 251.433 1076.63 253.767 1072.23 255.7L1070.38 256C1067.58 255.7 1066.18 254.3 1066.18 251.8V251.65C1066.18 250.85 1066.69 250.383 1067.73 250.25C1068.53 250.25 1069.06 251.083 1069.33 252.75L1069.73 253.05H1070.58C1072.48 253.05 1074.24 251.75 1075.88 249.15V248.5C1075.88 247.5 1073.69 246.567 1069.33 245.7C1067.03 244.767 1065.88 243.467 1065.88 241.8C1065.88 239.633 1067.69 237.6 1071.33 235.7C1072.93 235.5 1074.28 235.183 1075.38 234.75ZM1086.56 224.65C1087.49 224.85 1087.96 225.317 1087.96 226.05L1087.66 228.25V228.9C1087.66 230.367 1087.82 231.917 1088.16 233.55H1088.26C1092.12 232.383 1094.52 231.8 1095.46 231.8C1096.42 232.067 1096.91 232.55 1096.91 233.25C1096.91 234.383 1095.76 234.95 1093.46 234.95L1088.26 236.8C1088.26 241.3 1088.74 247.417 1089.71 255.15C1089.51 256.05 1089.02 256.5 1088.26 256.5H1088.16C1086.99 256.5 1086.41 255 1086.41 252C1085.97 249.767 1085.61 244.917 1085.31 237.45H1084.41C1081.27 237.25 1079.71 236.517 1079.71 235.25C1079.71 234.883 1080.06 234.433 1080.76 233.9H1081.26L1083.56 234.5H1085.16L1084.71 228.25C1084.71 225.85 1085.32 224.65 1086.56 224.65Z" fill="#464646"/>
<path d="M129.5 652C206.085 630.969 254.885 636.083 270.139 641.373C270.391 641.46 270.619 641.522 270.881 641.571C289.761 645.094 333.484 652 360.5 652C394.5 652 443.5 614 472 622C500.5 630 514 673 575.5 666.5C637 660 649 626.5 697 630C735.4 632.8 750.333 638.833 753 641.5" stroke="#464646" stroke-width="2"/>
</svg>
