<svg width="287" height="110" viewBox="0 0 287 110" fill="none" xmlns="http://www.w3.org/2000/svg">
<path d="M81.7 5.825C82.33 5.825 82.7617 6.88667 82.995 9.01C82.7617 9.59333 82.3767 9.885 81.84 9.885C81.4667 9.815 81.0933 9.38333 80.72 8.59L80.09 8.38C78.9933 8.38 78.0017 9.10333 77.115 10.55V10.865C77.115 11.215 78.76 11.7983 82.05 12.615C83.4267 13.4317 84.115 14.4233 84.115 15.59C84.115 17.5033 82.575 19.1367 79.495 20.49L78.2 20.7C76.24 20.49 75.26 19.51 75.26 17.76V17.655C75.26 17.095 75.6217 16.7683 76.345 16.675C76.905 16.675 77.2783 17.2583 77.465 18.425L77.745 18.635H78.34C79.67 18.635 80.9067 17.725 82.05 15.905V15.45C82.05 14.75 80.5217 14.0967 77.465 13.49C75.855 12.8367 75.05 11.9267 75.05 10.76C75.05 9.24333 76.3217 7.82 78.865 6.49C79.985 6.35 80.93 6.12833 81.7 5.825ZM86.7974 9.465L87.4274 9.115C87.9874 9.115 88.3958 9.45333 88.6524 10.13C88.2791 11.8567 88.0924 13.63 88.0924 15.45C88.0924 16.36 88.3608 17.3517 88.8974 18.425H89.1074C89.7841 18.425 90.5891 15.7533 91.5224 10.41C91.8491 10.13 92.1641 9.99 92.4674 9.99C93.1908 9.99 93.5524 11.2733 93.5524 13.84C93.8558 16.6633 94.1941 18.075 94.5674 18.075L95.0924 17.865C95.7691 18.1217 96.1074 18.4833 96.1074 18.95C95.6874 19.8367 95.1041 20.28 94.3574 20.28C93.5174 20.28 92.7124 19.44 91.9424 17.76C91.0091 19.72 90.0641 20.7 89.1074 20.7C87.6841 20.7 86.6924 19.2183 86.1324 16.255L86.0274 15.135V14.785C86.0274 12.9183 86.2841 11.145 86.7974 9.465ZM101.153 9.605C103.626 9.605 105.084 11.1567 105.528 14.26C105.528 17.0133 104.244 18.985 101.678 20.175C101.398 20.315 101.013 20.385 100.523 20.385H100.278L99.5076 20.315V20.385L99.6476 29.73C99.4843 30.4533 99.111 30.815 98.5276 30.815C97.8743 30.605 97.5476 30.2667 97.5476 29.8L97.2326 10.76C97.2326 10.1533 97.5943 9.83833 98.3176 9.815L99.0526 10.13C99.706 9.78 100.406 9.605 101.153 9.605ZM99.4026 13.315L99.2976 14.4L99.4026 18.11L100.383 18.355C101.946 18.355 102.961 17.2117 103.428 14.925V14.4C103.264 12.5567 102.611 11.635 101.468 11.635H100.943C99.916 11.635 99.4026 12.195 99.4026 13.315ZM111.475 9.605C113.948 9.605 115.407 11.1567 115.85 14.26C115.85 17.0133 114.567 18.985 112 20.175C111.72 20.315 111.335 20.385 110.845 20.385H110.6L109.83 20.315V20.385L109.97 29.73C109.807 30.4533 109.433 30.815 108.85 30.815C108.197 30.605 107.87 30.2667 107.87 29.8L107.555 10.76C107.555 10.1533 107.917 9.83833 108.64 9.815L109.375 10.13C110.028 9.78 110.728 9.605 111.475 9.605ZM109.725 13.315L109.62 14.4L109.725 18.11L110.705 18.355C112.268 18.355 113.283 17.2117 113.75 14.925V14.4C113.587 12.5567 112.933 11.635 111.79 11.635H111.265C110.238 11.635 109.725 12.195 109.725 13.315ZM123.092 6.805C124.819 6.805 126.125 8.08833 127.012 10.655L127.152 11.39C127.152 13.8867 125.985 16.4417 123.652 19.055C122.719 19.9183 121.774 20.35 120.817 20.35C119.417 20.35 118.425 19.545 117.842 17.935C117.632 17.1883 117.527 16.535 117.527 15.975V15.555C117.527 11.8683 118.869 9.06833 121.552 7.155C122.019 6.92167 122.532 6.805 123.092 6.805ZM119.592 15.905C119.592 17.4917 120 18.285 120.817 18.285C122.52 18.285 123.932 16.1033 125.052 11.74V11.075C124.655 9.62833 123.92 8.905 122.847 8.905C122.427 8.905 122.217 9.19667 122.217 9.78C122.217 10.1767 121.75 10.4917 120.817 10.725C120 12.1017 119.592 13.8283 119.592 15.905ZM135.738 5.825C136.368 5.825 136.8 6.88667 137.033 9.01C136.8 9.59333 136.415 9.885 135.878 9.885C135.505 9.815 135.131 9.38333 134.758 8.59L134.128 8.38C133.031 8.38 132.04 9.10333 131.153 10.55V10.865C131.153 11.215 132.798 11.7983 136.088 12.615C137.465 13.4317 138.153 14.4233 138.153 15.59C138.153 17.5033 136.613 19.1367 133.533 20.49L132.238 20.7C130.278 20.49 129.298 19.51 129.298 17.76V17.655C129.298 17.095 129.66 16.7683 130.383 16.675C130.943 16.675 131.316 17.2583 131.503 18.425L131.783 18.635H132.378C133.708 18.635 134.945 17.725 136.088 15.905V15.45C136.088 14.75 134.56 14.0967 131.503 13.49C129.893 12.8367 129.088 11.9267 129.088 10.76C129.088 9.24333 130.36 7.82 132.903 6.49C134.023 6.35 134.968 6.12833 135.738 5.825ZM142.586 7.435C143.519 7.45833 145.094 9.09167 147.311 12.335L147.381 12.93C147.381 13.5833 145.782 14.085 142.586 14.435L142.481 14.54V14.68C142.971 16.78 143.484 17.83 144.021 17.83H144.441C145.187 17.83 146.319 17.025 147.836 15.415H148.046C148.512 15.415 148.874 15.7533 149.131 16.43C149.131 16.99 148.151 17.9583 146.191 19.335C145.677 19.6383 145.059 19.86 144.336 20C142.446 20 141.127 18.2267 140.381 14.68C139.307 14.5167 138.771 14.0733 138.771 13.35C138.771 12.8367 139.167 12.4983 139.961 12.335V12.475L140.311 12.335V11.46C140.311 8.77667 141.069 7.435 142.586 7.435ZM142.796 9.955H142.481L142.341 11.25V12.335H142.481C143.787 12.2883 144.441 12.1483 144.441 11.915C143.834 11.005 143.286 10.3517 142.796 9.955ZM158.701 0.784999C159.097 0.784999 159.459 1.15833 159.786 1.905L158.246 11.635V14.365C158.246 17.2117 158.689 18.635 159.576 18.635C160.159 18.915 160.451 19.2883 160.451 19.755C160.451 20.2917 159.984 20.6067 159.051 20.7C158.024 20.7 157.219 19.755 156.636 17.865H156.286C155.422 19.755 154.372 20.7 153.136 20.7C151.689 20.7 150.814 19.6033 150.511 17.41C150.511 14.8667 152.214 12.1717 155.621 9.325C156.297 9.325 156.636 8.38 156.636 6.49C157.149 2.68667 157.837 0.784999 158.701 0.784999ZM152.576 17.13V18.075L153.136 18.635H153.346C154.092 18.635 154.967 16.3833 155.971 11.88H155.761C153.637 14.0033 152.576 15.7533 152.576 17.13ZM163.681 0.715C164.335 0.948333 164.661 1.31 164.661 1.8L165.011 15.135V19.44C165.011 20.2333 164.673 20.63 163.996 20.63H163.541C163.121 20.35 162.911 20.0233 162.911 19.65V15.59L162.596 1.73C162.596 1.14667 162.958 0.808332 163.681 0.715ZM168.651 9.5C169.468 9.5 170.028 11.2967 170.331 14.89C170.728 16.5467 171.02 17.375 171.206 17.375H171.416C172 15.905 172.291 14.4467 172.291 13L172.081 10.585C172.338 9.955 172.7 9.64 173.166 9.64C174.03 9.64 174.461 11.1683 174.461 14.225C174.975 17.3983 175.231 20.35 175.231 23.08V24.725C175.231 29.7417 173.808 33.125 170.961 34.875L170.191 35.015C168.861 35.015 167.625 33.7783 166.481 31.305L166.166 29.205V29.1C166.166 27.56 166.598 26.79 167.461 26.79L168.336 27.35L168.231 29.555C168.231 30.6283 168.78 31.7133 169.876 32.81H170.331C171.615 32.81 172.56 30.36 173.166 25.46L173.236 23.43C173.213 21.0733 173.12 19.5683 172.956 18.915C172.023 19.7317 171.288 20.14 170.751 20.14C169.561 20.14 168.5 16.955 167.566 10.585L167.461 10.515C167.461 9.97833 167.858 9.64 168.651 9.5ZM190.547 7.75C190.711 7.16667 191.084 6.875 191.667 6.875C192.251 6.875 192.636 7.45833 192.822 8.625H192.962L194.572 8.275C195.319 8.275 196.042 8.975 196.742 10.375H196.882C197.909 8.765 198.959 7.96 200.032 7.96C202.319 8.38 203.462 9.87333 203.462 12.44L203.532 13.665L203.217 20.735V21.4C203.217 21.9833 202.856 22.3217 202.132 22.415C201.409 22.415 201.047 21.5633 201.047 19.86L201.467 13.525C201.467 11.1917 200.919 10.025 199.822 10.025C199.192 10.025 198.434 11.5533 197.547 14.61C197.104 18.11 196.742 19.86 196.462 19.86C196.066 19.86 195.867 19.9417 195.867 20.105C195.144 20.0117 194.782 19.6383 194.782 18.985L195.237 14.75C195.167 11.8333 194.876 10.375 194.362 10.375H194.257C193.674 10.8183 193.382 11.6933 193.382 13V14.855L193.242 20.21C193.079 20.7933 192.717 21.085 192.157 21.085C191.667 21.085 191.352 20.6767 191.212 19.86L191.072 15.73L191.282 12.335C191.142 10.585 190.897 9.05667 190.547 7.75ZM206.591 9.5C207.407 9.5 207.967 11.2967 208.271 14.89C208.667 16.5467 208.959 17.375 209.146 17.375H209.356C209.939 15.905 210.231 14.4467 210.231 13L210.021 10.585C210.277 9.955 210.639 9.64 211.106 9.64C211.969 9.64 212.401 11.1683 212.401 14.225C212.914 17.3983 213.171 20.35 213.171 23.08V24.725C213.171 29.7417 211.747 33.125 208.901 34.875L208.131 35.015C206.801 35.015 205.564 33.7783 204.421 31.305L204.106 29.205V29.1C204.106 27.56 204.537 26.79 205.401 26.79L206.276 27.35L206.171 29.555C206.171 30.6283 206.719 31.7133 207.816 32.81H208.271C209.554 32.81 210.499 30.36 211.106 25.46L211.176 23.43C211.152 21.0733 211.059 19.5683 210.896 18.915C209.962 19.7317 209.227 20.14 208.691 20.14C207.501 20.14 206.439 16.955 205.506 10.585L205.401 10.515C205.401 9.97833 205.797 9.64 206.591 9.5ZM229.922 0.715C230.575 0.948333 230.902 1.31 230.902 1.8L231.252 15.135V19.44C231.252 20.2333 230.913 20.63 230.237 20.63H229.782C229.362 20.35 229.152 20.0233 229.152 19.65V15.59L228.837 1.73C228.837 1.14667 229.198 0.808332 229.922 0.715ZM239.371 6.805C241.098 6.805 242.405 8.08833 243.291 10.655L243.431 11.39C243.431 13.8867 242.265 16.4417 239.931 19.055C238.998 19.9183 238.053 20.35 237.096 20.35C235.696 20.35 234.705 19.545 234.121 17.935C233.911 17.1883 233.806 16.535 233.806 15.975V15.555C233.806 11.8683 235.148 9.06833 237.831 7.155C238.298 6.92167 238.811 6.805 239.371 6.805ZM235.871 15.905C235.871 17.4917 236.28 18.285 237.096 18.285C238.8 18.285 240.211 16.1033 241.331 11.74V11.075C240.935 9.62833 240.2 8.905 239.126 8.905C238.706 8.905 238.496 9.19667 238.496 9.78C238.496 10.1767 238.03 10.4917 237.096 10.725C236.28 12.1017 235.871 13.8283 235.871 15.905ZM250.617 6.56C251.691 6.56 252.227 7.07333 252.227 8.1C252.367 8.1 252.437 8.275 252.437 8.625H252.577L252.437 9.64L252.577 16.71L252.367 22.31C254.467 22.31 255.879 23.85 256.602 26.93C256.602 27.56 256.171 27.9217 255.307 28.015C254.911 28.015 254.467 27.14 253.977 25.39C253.511 24.7133 252.974 24.375 252.367 24.375H252.227C251.481 29.345 250.827 31.83 250.267 31.83C249.591 33.0667 248.611 33.685 247.327 33.685C245.437 33.2417 244.492 32.2967 244.492 30.85V30.64C244.492 28.4467 246.056 26.0667 249.182 23.5L250.267 22.835L250.407 19.055V18.18H250.267C249.474 19.1833 248.716 19.685 247.992 19.685H247.782C246.172 19.685 245.251 18.4483 245.017 15.975V15.205C245.017 12.2183 246.114 9.62833 248.307 7.435C248.984 6.85167 249.754 6.56 250.617 6.56ZM247.117 14.75V16.43C247.211 17.2 247.386 17.585 247.642 17.585H247.992C248.646 17.585 249.451 15.1817 250.407 10.375V8.625C249.007 8.625 247.911 10.6667 247.117 14.75ZM246.557 30.71C246.651 31.2933 246.977 31.585 247.537 31.585C248.657 31.585 249.462 29.59 249.952 25.6H249.742C247.619 27.4433 246.557 29.1467 246.557 30.71ZM260.016 6.805C261.743 6.805 263.049 8.08833 263.936 10.655L264.076 11.39C264.076 13.8867 262.909 16.4417 260.576 19.055C259.643 19.9183 258.698 20.35 257.741 20.35C256.341 20.35 255.349 19.545 254.766 17.935C254.556 17.1883 254.451 16.535 254.451 15.975V15.555C254.451 11.8683 255.793 9.06833 258.476 7.155C258.943 6.92167 259.456 6.805 260.016 6.805ZM256.516 15.905C256.516 17.4917 256.924 18.285 257.741 18.285C259.444 18.285 260.856 16.1033 261.976 11.74V11.075C261.579 9.62833 260.844 8.905 259.771 8.905C259.351 8.905 259.141 9.19667 259.141 9.78C259.141 10.1767 258.674 10.4917 257.741 10.725C256.924 12.1017 256.516 13.8283 256.516 15.905ZM268.462 17.935C268.952 17.935 269.244 18.3317 269.337 19.125C269.197 19.9417 268.789 20.35 268.112 20.35C267.645 20.35 267.319 19.9417 267.132 19.125C267.412 18.3317 267.855 17.935 268.462 17.935ZM76.31 38.61C76.87 38.61 77.2317 38.9017 77.395 39.485L77.185 41.55V42.215C77.7683 47.045 78.13 50.8017 78.27 53.485C78.5267 55.9817 78.795 57.23 79.075 57.23C79.075 57.72 78.6667 58.035 77.85 58.175C76.6833 58.175 76.1 55.8183 76.1 51.105L75.12 42.005V41.69C75.12 39.6367 75.5167 38.61 76.31 38.61ZM95.8299 39.485H96.0399C96.3432 39.485 96.6349 39.7417 96.9149 40.255L96.7749 42.635V43.965L96.9149 50.09L97.0199 50.44H97.1249C98.1282 49.5067 99.0032 47.8617 99.7499 45.505L100.52 45.26C101.173 45.3533 101.5 45.645 101.5 46.135C101.5 47.6517 100.415 49.6933 98.2449 52.26V52.505C101.115 55.8417 103.005 57.51 103.915 57.51H104.125L105 56.985H105.315C105.805 56.985 106.167 57.3117 106.4 57.965C106.4 58.7117 105.572 59.225 103.915 59.505C102.258 59.505 100.1 57.825 97.4399 54.465H97.1249L97.2299 56.355V58.175C97.0899 58.8983 96.7282 59.26 96.1449 59.26C95.4915 59.12 95.1649 58.7583 95.1649 58.175V57.965L95.0249 53.94C94.7682 53.94 94.5932 53.5783 94.4999 52.855L94.9549 51.98L94.7449 44.105V42.565C94.7449 40.5117 95.1065 39.485 95.8299 39.485ZM111.891 46.205C113.874 46.3683 114.866 47.3367 114.866 49.11L114.936 49.565L114.866 55.025C114.866 55.655 115.227 56.5067 115.951 57.58V57.65C115.764 58.3267 115.426 58.665 114.936 58.665C113.489 58.0583 112.766 56.775 112.766 54.815V54.36L112.661 54.29L112.766 54.15V54.08L112.871 49.25C112.871 48.5733 112.579 48.235 111.996 48.235H111.576C110.409 48.7017 109.826 51.2567 109.826 55.9C109.826 57.51 109.417 58.315 108.601 58.315C107.971 58.315 107.644 57.9183 107.621 57.125V53.625C107.621 49.0983 108.017 46.835 108.811 46.835L109.161 46.73L109.896 46.835C110.526 46.415 111.191 46.205 111.891 46.205ZM122.648 44.805C124.374 44.805 125.681 46.0883 126.568 48.655L126.708 49.39C126.708 51.8867 125.541 54.4417 123.208 57.055C122.274 57.9183 121.329 58.35 120.373 58.35C118.973 58.35 117.981 57.545 117.398 55.935C117.188 55.1883 117.083 54.535 117.083 53.975V53.555C117.083 49.8683 118.424 47.0683 121.108 45.155C121.574 44.9217 122.088 44.805 122.648 44.805ZM119.148 53.905C119.148 55.4917 119.556 56.285 120.373 56.285C122.076 56.285 123.488 54.1033 124.608 49.74V49.075C124.211 47.6283 123.476 46.905 122.403 46.905C121.983 46.905 121.773 47.1967 121.773 47.78C121.773 48.1767 121.306 48.4917 120.373 48.725C119.556 50.1017 119.148 51.8283 119.148 53.905ZM138.164 47.01C139.774 48.0833 140.579 49.74 140.579 51.98C140.579 55.0133 139.564 57.0783 137.534 58.175L136.204 58.385C135.41 58.385 134.57 58 133.684 57.23H133.439C132.715 58.1633 132.039 58.63 131.409 58.63C129.752 58.63 128.795 57.0667 128.539 53.94V52.05C128.702 49.0867 129.32 47.605 130.394 47.605C130.977 47.605 131.315 47.9667 131.409 48.69C130.872 49.6233 130.604 50.93 130.604 52.61V53.275C130.697 55.375 130.919 56.425 131.269 56.425C131.619 56.425 131.98 55.8183 132.354 54.605L132.284 52.19C132.284 50.58 132.669 49.775 133.439 49.775C134.325 49.775 134.769 50.65 134.769 52.4H134.909L134.559 54.605C134.955 55.7717 135.504 56.355 136.204 56.355H136.414C137.44 56.355 138.105 55.2583 138.409 53.065V51.105C138.409 50.3583 137.965 49.4367 137.079 48.34L136.939 48.025C136.939 47.535 137.347 47.1967 138.164 47.01ZM146.332 51.63C147.546 52.1667 148.269 53.8117 148.502 56.565C148.502 59.1083 147.511 61.4417 145.527 63.565L145.107 63.775C144.384 63.5417 144.022 63.18 144.022 62.69L145.457 60.38C146.041 59.19 146.332 57.9883 146.332 56.775V55.48C146.332 54.8967 145.971 54.0217 145.247 52.855V52.715C145.411 51.9917 145.772 51.63 146.332 51.63ZM165.69 38.61C166.25 38.61 166.612 38.9017 166.775 39.485L166.565 41.55V42.215C167.148 47.045 167.51 50.8017 167.65 53.485C167.907 55.9817 168.175 57.23 168.455 57.23C168.455 57.72 168.047 58.035 167.23 58.175C166.063 58.175 165.48 55.8183 165.48 51.105L164.5 42.005V41.69C164.5 39.6367 164.897 38.61 165.69 38.61ZM183.985 45.75C184.148 45.1667 184.521 44.875 185.105 44.875C185.688 44.875 186.073 45.4583 186.26 46.625H186.4L188.01 46.275C188.756 46.275 189.48 46.975 190.18 48.375H190.32C191.346 46.765 192.396 45.96 193.47 45.96C195.756 46.38 196.9 47.8733 196.9 50.44L196.97 51.665L196.655 58.735V59.4C196.655 59.9833 196.293 60.3217 195.57 60.415C194.846 60.415 194.485 59.5633 194.485 57.86L194.905 51.525C194.905 49.1917 194.356 48.025 193.26 48.025C192.63 48.025 191.871 49.5533 190.985 52.61C190.541 56.11 190.18 57.86 189.9 57.86C189.503 57.86 189.305 57.9417 189.305 58.105C188.581 58.0117 188.22 57.6383 188.22 56.985L188.675 52.75C188.605 49.8333 188.313 48.375 187.8 48.375H187.695C187.111 48.8183 186.82 49.6933 186.82 51V52.855L186.68 58.21C186.516 58.7933 186.155 59.085 185.595 59.085C185.105 59.085 184.79 58.6767 184.65 57.86L184.51 53.73L184.72 50.335C184.58 48.585 184.335 47.0567 183.985 45.75ZM199.328 39.765C200.215 39.9517 200.658 40.3483 200.658 40.955C200.425 41.6083 200.051 41.935 199.538 41.935C198.675 41.7717 198.243 41.34 198.243 40.64C198.476 40.0567 198.838 39.765 199.328 39.765ZM200.658 44.665C201.031 44.665 201.346 45.0033 201.603 45.68L201.288 48.165V49.81C201.288 51.7233 201.615 54.2317 202.268 57.335C202.035 57.7783 201.638 58 201.078 58C200.121 58 199.491 55.2 199.188 49.6V48.375C199.188 45.9017 199.678 44.665 200.658 44.665ZM209.704 44.56C210.778 44.56 211.314 45.0733 211.314 46.1C211.454 46.1 211.524 46.275 211.524 46.625H211.664L211.524 47.64L211.664 54.71L211.454 60.31C213.554 60.31 214.966 61.85 215.689 64.93C215.689 65.56 215.258 65.9217 214.394 66.015C213.998 66.015 213.554 65.14 213.064 63.39C212.598 62.7133 212.061 62.375 211.454 62.375H211.314C210.568 67.345 209.914 69.83 209.354 69.83C208.678 71.0667 207.698 71.685 206.414 71.685C204.524 71.2417 203.579 70.2967 203.579 68.85V68.64C203.579 66.4467 205.143 64.0667 208.269 61.5L209.354 60.835L209.494 57.055V56.18H209.354C208.561 57.1833 207.803 57.685 207.079 57.685H206.869C205.259 57.685 204.338 56.4483 204.104 53.975V53.205C204.104 50.2183 205.201 47.6283 207.394 45.435C208.071 44.8517 208.841 44.56 209.704 44.56ZM206.204 52.75V54.43C206.298 55.2 206.473 55.585 206.729 55.585H207.079C207.733 55.585 208.538 53.1817 209.494 48.375V46.625C208.094 46.625 206.998 48.6667 206.204 52.75ZM205.644 68.71C205.738 69.2933 206.064 69.585 206.624 69.585C207.744 69.585 208.549 67.59 209.039 63.6H208.829C206.706 65.4433 205.644 67.1467 205.644 68.71ZM214.973 38.68C215.626 38.68 215.953 39.4733 215.953 41.06L216.373 47.08H216.513L218.263 46.415C220.223 46.415 221.413 48.4217 221.833 52.435C221.996 53.5783 222.078 55.2583 222.078 57.475V60.31C222.078 61.1967 221.751 61.64 221.098 61.64H220.958C220.328 61.5467 220.013 61.2083 220.013 60.625V57.335C220.013 52.0617 219.5 49.145 218.473 48.585H218.263C217.563 48.585 217.05 49.6583 216.723 51.805V53.765C216.723 57.265 216.431 59.015 215.848 59.015L215.183 59.085C214.53 59.085 214.203 58.1167 214.203 56.18C214.273 54.1267 214.413 52.4467 214.623 51.14L213.888 39.625C213.888 39.0183 214.25 38.7033 214.973 38.68ZM227.853 36.755C228.506 36.895 228.833 37.2217 228.833 37.735L228.623 39.275V39.73C228.623 40.7567 228.739 41.8417 228.973 42.985H229.043C231.749 42.1683 233.429 41.76 234.083 41.76C234.759 41.9467 235.098 42.285 235.098 42.775C235.098 43.5683 234.293 43.965 232.683 43.965L229.043 45.26C229.043 48.41 229.381 52.6917 230.058 58.105C229.918 58.735 229.579 59.05 229.043 59.05H228.973C228.156 59.05 227.748 58 227.748 55.9C227.444 54.3367 227.188 50.9417 226.978 45.715H226.348C224.154 45.575 223.058 45.0617 223.058 44.175C223.058 43.9183 223.303 43.6033 223.793 43.23H224.143L225.753 43.65H226.873L226.558 39.275C226.558 37.595 226.989 36.755 227.853 36.755ZM253.907 46.205C255.891 46.3683 256.882 47.3367 256.882 49.11L256.952 49.565L256.882 55.025C256.882 55.655 257.244 56.5067 257.967 57.58V57.65C257.781 58.3267 257.442 58.665 256.952 58.665C255.506 58.0583 254.782 56.775 254.782 54.815V54.36L254.677 54.29L254.782 54.15V54.08L254.887 49.25C254.887 48.5733 254.596 48.235 254.012 48.235H253.592C252.426 48.7017 251.842 51.2567 251.842 55.9C251.842 57.51 251.434 58.315 250.617 58.315C249.987 58.315 249.661 57.9183 249.637 57.125V53.625C249.637 49.0983 250.034 46.835 250.827 46.835L251.177 46.73L251.912 46.835C252.542 46.415 253.207 46.205 253.907 46.205ZM264.664 44.805C266.391 44.805 267.698 46.0883 268.584 48.655L268.724 49.39C268.724 51.8867 267.558 54.4417 265.224 57.055C264.291 57.9183 263.346 58.35 262.389 58.35C260.989 58.35 259.998 57.545 259.414 55.935C259.204 55.1883 259.099 54.535 259.099 53.975V53.555C259.099 49.8683 260.441 47.0683 263.124 45.155C263.591 44.9217 264.104 44.805 264.664 44.805ZM261.164 53.905C261.164 55.4917 261.573 56.285 262.389 56.285C264.093 56.285 265.504 54.1033 266.624 49.74V49.075C266.228 47.6283 265.493 46.905 264.419 46.905C263.999 46.905 263.789 47.1967 263.789 47.78C263.789 48.1767 263.323 48.4917 262.389 48.725C261.573 50.1017 261.164 51.8283 261.164 53.905ZM274.405 36.755C275.059 36.895 275.385 37.2217 275.385 37.735L275.175 39.275V39.73C275.175 40.7567 275.292 41.8417 275.525 42.985H275.595C278.302 42.1683 279.982 41.76 280.635 41.76C281.312 41.9467 281.65 42.285 281.65 42.775C281.65 43.5683 280.845 43.965 279.235 43.965L275.595 45.26C275.595 48.41 275.934 52.6917 276.61 58.105C276.47 58.735 276.132 59.05 275.595 59.05H275.525C274.709 59.05 274.3 58 274.3 55.9C273.997 54.3367 273.74 50.9417 273.53 45.715H272.9C270.707 45.575 269.61 45.0617 269.61 44.175C269.61 43.9183 269.855 43.6033 270.345 43.23H270.695L272.305 43.65H273.425L273.11 39.275C273.11 37.595 273.542 36.755 274.405 36.755ZM74.945 79.375C76.1583 79.375 76.94 81.755 77.29 86.515L77.5 87.6C78.5733 85.4067 79.4483 84.31 80.125 84.31C80.125 84.2167 80.37 84.1467 80.86 84.1H81C82.54 84.1 83.52 85.3017 83.94 87.705V87.81C83.94 89.8633 82.9133 92.1267 80.86 94.6C79.9967 95.5333 79.0517 96 78.025 96C76.8583 95.7433 76.275 95.16 76.275 94.25L74.525 81.685L74 80.39C74 79.97 74.315 79.6317 74.945 79.375ZM78.585 93.585H78.69C79.9033 93.095 80.965 91.4267 81.875 88.58V87.25C81.665 86.5267 81.3967 86.165 81.07 86.165H80.79C79.7633 86.7717 79.0283 89.245 78.585 93.585ZM88.855 83.435C89.7884 83.4583 91.3634 85.0917 93.58 88.335L93.65 88.93C93.65 89.5833 92.0517 90.085 88.855 90.435L88.75 90.54V90.68C89.24 92.78 89.7534 93.83 90.29 93.83H90.71C91.4567 93.83 92.5884 93.025 94.105 91.415H94.315C94.7817 91.415 95.1434 91.7533 95.4 92.43C95.4 92.99 94.42 93.9583 92.46 95.335C91.9467 95.6383 91.3284 95.86 90.605 96C88.715 96 87.3967 94.2267 86.65 90.68C85.5767 90.5167 85.04 90.0733 85.04 89.35C85.04 88.8367 85.4367 88.4983 86.23 88.335V88.475L86.58 88.335V87.46C86.58 84.7767 87.3384 83.435 88.855 83.435ZM89.065 85.955H88.75L88.61 87.25V88.335H88.75C90.0567 88.2883 90.71 88.1483 90.71 87.915C90.1034 87.005 89.555 86.3517 89.065 85.955ZM115.573 82.56C116.647 82.56 117.183 83.0733 117.183 84.1C117.323 84.1 117.393 84.275 117.393 84.625H117.533L117.393 85.64L117.533 92.71L117.323 98.31C119.423 98.31 120.835 99.85 121.558 102.93C121.558 103.56 121.127 103.922 120.263 104.015C119.867 104.015 119.423 103.14 118.933 101.39C118.467 100.713 117.93 100.375 117.323 100.375H117.183C116.437 105.345 115.783 107.83 115.223 107.83C114.547 109.067 113.567 109.685 112.283 109.685C110.393 109.242 109.448 108.297 109.448 106.85V106.64C109.448 104.447 111.012 102.067 114.138 99.5L115.223 98.835L115.363 95.055V94.18H115.223C114.43 95.1833 113.672 95.685 112.948 95.685H112.738C111.128 95.685 110.207 94.4483 109.973 91.975V91.205C109.973 88.2183 111.07 85.6283 113.263 83.435C113.94 82.8517 114.71 82.56 115.573 82.56ZM112.073 90.75V92.43C112.167 93.2 112.342 93.585 112.598 93.585H112.948C113.602 93.585 114.407 91.1817 115.363 86.375V84.625C113.963 84.625 112.867 86.6667 112.073 90.75ZM111.513 106.71C111.607 107.293 111.933 107.585 112.493 107.585C113.613 107.585 114.418 105.59 114.908 101.6H114.698C112.575 103.443 111.513 105.147 111.513 106.71ZM124.972 82.805C126.699 82.805 128.005 84.0883 128.892 86.655L129.032 87.39C129.032 89.8867 127.865 92.4417 125.532 95.055C124.599 95.9183 123.654 96.35 122.697 96.35C121.297 96.35 120.305 95.545 119.722 93.935C119.512 93.1883 119.407 92.535 119.407 91.975V91.555C119.407 87.8683 120.749 85.0683 123.432 83.155C123.899 82.9217 124.412 82.805 124.972 82.805ZM121.472 91.905C121.472 93.4917 121.88 94.285 122.697 94.285C124.4 94.285 125.812 92.1033 126.932 87.74V87.075C126.535 85.6283 125.8 84.905 124.727 84.905C124.307 84.905 124.097 85.1967 124.097 85.78C124.097 86.1767 123.63 86.4917 122.697 86.725C121.88 88.1017 121.472 89.8283 121.472 91.905ZM136.183 82.805C137.91 82.805 139.216 84.0883 140.103 86.655L140.243 87.39C140.243 89.8867 139.076 92.4417 136.743 95.055C135.81 95.9183 134.865 96.35 133.908 96.35C132.508 96.35 131.516 95.545 130.933 93.935C130.723 93.1883 130.618 92.535 130.618 91.975V91.555C130.618 87.8683 131.96 85.0683 134.643 83.155C135.11 82.9217 135.623 82.805 136.183 82.805ZM132.683 91.905C132.683 93.4917 133.091 94.285 133.908 94.285C135.611 94.285 137.023 92.1033 138.143 87.74V87.075C137.746 85.6283 137.011 84.905 135.938 84.905C135.518 84.905 135.308 85.1967 135.308 85.78C135.308 86.1767 134.841 86.4917 133.908 86.725C133.091 88.1017 132.683 89.8283 132.683 91.905ZM150.019 76.785C150.416 76.785 150.777 77.1583 151.104 77.905L149.564 87.635V90.365C149.564 93.2117 150.007 94.635 150.894 94.635C151.477 94.915 151.769 95.2883 151.769 95.755C151.769 96.2917 151.302 96.6067 150.369 96.7C149.342 96.7 148.537 95.755 147.954 93.865H147.604C146.741 95.755 145.691 96.7 144.454 96.7C143.007 96.7 142.132 95.6033 141.829 93.41C141.829 90.8667 143.532 88.1717 146.939 85.325C147.616 85.325 147.954 84.38 147.954 82.49C148.467 78.6867 149.156 76.785 150.019 76.785ZM143.894 93.13V94.075L144.454 94.635H144.664C145.411 94.635 146.286 92.3833 147.289 87.88H147.079C144.956 90.0033 143.894 91.7533 143.894 93.13ZM176.103 85.01C177.713 86.0833 178.518 87.74 178.518 89.98C178.518 93.0133 177.503 95.0783 175.473 96.175L174.143 96.385C173.35 96.385 172.51 96 171.623 95.23H171.378C170.655 96.1633 169.978 96.63 169.348 96.63C167.692 96.63 166.735 95.0667 166.478 91.94V90.05C166.642 87.0867 167.26 85.605 168.333 85.605C168.917 85.605 169.255 85.9667 169.348 86.69C168.812 87.6233 168.543 88.93 168.543 90.61V91.275C168.637 93.375 168.858 94.425 169.208 94.425C169.558 94.425 169.92 93.8183 170.293 92.605L170.223 90.19C170.223 88.58 170.608 87.775 171.378 87.775C172.265 87.775 172.708 88.65 172.708 90.4H172.848L172.498 92.605C172.895 93.7717 173.443 94.355 174.143 94.355H174.353C175.38 94.355 176.045 93.2583 176.348 91.065V89.105C176.348 88.3583 175.905 87.4367 175.018 86.34L174.878 86.025C174.878 85.535 175.287 85.1967 176.103 85.01ZM180.632 77.765C181.519 77.9517 181.962 78.3483 181.962 78.955C181.729 79.6083 181.355 79.935 180.842 79.935C179.979 79.7717 179.547 79.34 179.547 78.64C179.78 78.0567 180.142 77.765 180.632 77.765ZM181.962 82.665C182.335 82.665 182.65 83.0033 182.907 83.68L182.592 86.165V87.81C182.592 89.7233 182.919 92.2317 183.572 95.335C183.339 95.7783 182.942 96 182.382 96C181.425 96 180.795 93.2 180.492 87.6V86.375C180.492 83.9017 180.982 82.665 181.962 82.665ZM189.503 74.755C190.156 74.895 190.483 75.2217 190.483 75.735L190.273 77.275V77.73C190.273 78.7567 190.39 79.8417 190.623 80.985H190.693C193.4 80.1683 195.08 79.76 195.733 79.76C196.41 79.9467 196.748 80.285 196.748 80.775C196.748 81.5683 195.943 81.965 194.333 81.965L190.693 83.26C190.693 86.41 191.031 90.6917 191.708 96.105C191.568 96.735 191.23 97.05 190.693 97.05H190.623C189.806 97.05 189.398 96 189.398 93.9C189.095 92.3367 188.838 88.9417 188.628 83.715H187.998C185.805 83.575 184.708 83.0617 184.708 82.175C184.708 81.9183 184.953 81.6033 185.443 81.23H185.793L187.403 81.65H188.523L188.208 77.275C188.208 75.595 188.64 74.755 189.503 74.755ZM199.284 76.68C199.938 76.68 200.264 77.4733 200.264 79.06L200.684 85.08H200.824L202.574 84.415C204.534 84.415 205.724 86.4217 206.144 90.435C206.308 91.5783 206.389 93.2583 206.389 95.475V98.31C206.389 99.1967 206.063 99.64 205.409 99.64H205.269C204.639 99.5467 204.324 99.2083 204.324 98.625V95.335C204.324 90.0617 203.811 87.145 202.784 86.585H202.574C201.874 86.585 201.361 87.6583 201.034 89.805V91.765C201.034 95.265 200.743 97.015 200.159 97.015L199.494 97.085C198.841 97.085 198.514 96.1167 198.514 94.18C198.584 92.1267 198.724 90.4467 198.934 89.14L198.199 77.625C198.199 77.0183 198.561 76.7033 199.284 76.68ZM223.223 76.715C223.876 76.9483 224.203 77.31 224.203 77.8L224.553 91.135V95.44C224.553 96.2333 224.214 96.63 223.538 96.63H223.083C222.663 96.35 222.453 96.0233 222.453 95.65V91.59L222.138 77.73C222.138 77.1467 222.499 76.8083 223.223 76.715ZM232.672 82.805C234.399 82.805 235.706 84.0883 236.592 86.655L236.732 87.39C236.732 89.8867 235.566 92.4417 233.232 95.055C232.299 95.9183 231.354 96.35 230.397 96.35C228.997 96.35 228.006 95.545 227.422 93.935C227.212 93.1883 227.107 92.535 227.107 91.975V91.555C227.107 87.8683 228.449 85.0683 231.132 83.155C231.599 82.9217 232.112 82.805 232.672 82.805ZM229.172 91.905C229.172 93.4917 229.581 94.285 230.397 94.285C232.101 94.285 233.512 92.1033 234.632 87.74V87.075C234.236 85.6283 233.501 84.905 232.427 84.905C232.007 84.905 231.797 85.1967 231.797 85.78C231.797 86.1767 231.331 86.4917 230.397 86.725C229.581 88.1017 229.172 89.8283 229.172 91.905ZM243.918 82.56C244.991 82.56 245.528 83.0733 245.528 84.1C245.668 84.1 245.738 84.275 245.738 84.625H245.878L245.738 85.64L245.878 92.71L245.668 98.31C247.768 98.31 249.18 99.85 249.903 102.93C249.903 103.56 249.471 103.922 248.608 104.015C248.211 104.015 247.768 103.14 247.278 101.39C246.811 100.713 246.275 100.375 245.668 100.375H245.528C244.781 105.345 244.128 107.83 243.568 107.83C242.891 109.067 241.911 109.685 240.628 109.685C238.738 109.242 237.793 108.297 237.793 106.85V106.64C237.793 104.447 239.356 102.067 242.483 99.5L243.568 98.835L243.708 95.055V94.18H243.568C242.775 95.1833 242.016 95.685 241.293 95.685H241.083C239.473 95.685 238.551 94.4483 238.318 91.975V91.205C238.318 88.2183 239.415 85.6283 241.608 83.435C242.285 82.8517 243.055 82.56 243.918 82.56ZM240.418 90.75V92.43C240.511 93.2 240.686 93.585 240.943 93.585H241.293C241.946 93.585 242.751 91.1817 243.708 86.375V84.625C242.308 84.625 241.211 86.6667 240.418 90.75ZM239.858 106.71C239.951 107.293 240.278 107.585 240.838 107.585C241.958 107.585 242.763 105.59 243.253 101.6H243.043C240.92 103.443 239.858 105.147 239.858 106.71ZM253.317 82.805C255.043 82.805 256.35 84.0883 257.237 86.655L257.377 87.39C257.377 89.8867 256.21 92.4417 253.877 95.055C252.943 95.9183 251.998 96.35 251.042 96.35C249.642 96.35 248.65 95.545 248.067 93.935C247.857 93.1883 247.752 92.535 247.752 91.975V91.555C247.752 87.8683 249.093 85.0683 251.777 83.155C252.243 82.9217 252.757 82.805 253.317 82.805ZM249.817 91.905C249.817 93.4917 250.225 94.285 251.042 94.285C252.745 94.285 254.157 92.1033 255.277 87.74V87.075C254.88 85.6283 254.145 84.905 253.072 84.905C252.652 84.905 252.442 85.1967 252.442 85.78C252.442 86.1767 251.975 86.4917 251.042 86.725C250.225 88.1017 249.817 89.8283 249.817 91.905ZM265.963 81.825C266.593 81.825 267.024 82.8867 267.258 85.01C267.024 85.5933 266.639 85.885 266.103 85.885C265.729 85.815 265.356 85.3833 264.983 84.59L264.353 84.38C263.256 84.38 262.264 85.1033 261.378 86.55V86.865C261.378 87.215 263.023 87.7983 266.313 88.615C267.689 89.4317 268.378 90.4233 268.378 91.59C268.378 93.5033 266.838 95.1367 263.758 96.49L262.463 96.7C260.503 96.49 259.523 95.51 259.523 93.76V93.655C259.523 93.095 259.884 92.7683 260.608 92.675C261.168 92.675 261.541 93.2583 261.728 94.425L262.008 94.635H262.603C263.933 94.635 265.169 93.725 266.313 91.905V91.45C266.313 90.75 264.784 90.0967 261.728 89.49C260.118 88.8367 259.313 87.9267 259.313 86.76C259.313 85.2433 260.584 83.82 263.128 82.49C264.248 82.35 265.193 82.1283 265.963 81.825ZM283.763 72.235C284.393 72.4917 284.708 72.865 284.708 73.355C284.895 79.9817 285.163 84.765 285.513 87.705C285.28 88.2883 284.942 88.58 284.498 88.58C283.635 88.58 283.203 87.1917 283.203 84.415C282.993 83.3883 282.818 79.6667 282.678 73.25C282.678 72.6667 283.04 72.3283 283.763 72.235ZM283.973 96.315C284.183 95.5917 284.557 95.23 285.093 95.23C285.653 95.23 286.038 95.5917 286.248 96.315C285.992 96.9917 285.63 97.33 285.163 97.33H285.058C284.592 97.33 284.23 96.9917 283.973 96.315Z" fill="#464646"/>
<path d="M50.5279 50.5094C44.0133 52.9543 37.2991 54.5226 30.9909 56.89C23.8367 59.5749 17.2052 63.0151 10.2008 65.6438C3.73058 68.072 8.8315 66.4201 2.28589 68.6141" stroke="#464646" stroke-linecap="round"/>
<path d="M9.18044 73.4577C8.61166 73.3024 8.05233 73.0267 7.5082 72.7988C6.87892 72.5352 6.32368 72.1177 5.71889 71.8041C5.28828 71.5809 4.81155 71.4517 4.35996 71.2778C3.28025 70.862 2.30322 70.2396 1.2543 69.7631C1.00814 69.6513 0.786335 69.5253 0.558647 69.3854C0.347187 69.2556 1.37696 67.3873 1.54536 67.1345C2.26467 66.055 3.32787 65.2315 4.01843 64.107C4.25113 63.728 4.57018 63.3585 4.75922 62.9624C4.85274 62.7664 5.04127 62.5765 5.03317 62.3593" stroke="#464646" stroke-linecap="round"/>
</svg>

