<svg width="2560" height="1600" viewBox="0 0 2560 1600" fill="none" xmlns="http://www.w3.org/2000/svg">
<rect width="2560" height="1600" fill="#5C55A3"/>
<path d="M914.455 705.72C914.867 727.882 914.695 750.268 914.969 772.648C915.008 775.847 917.203 779.02 918.7 782.56C912.182 782.998 912.573 777.617 912.473 773.456C912.165 760.536 912.345 747.605 912.339 734.678C912.336 727.261 912.216 719.841 912.418 712.429C912.477 710.254 913.457 708.103 914.455 705.72Z" fill="#5959D5"/>
<path d="M1196.64 719.61C1205.97 719.218 1215.72 719.151 1226.05 718.997C1224.52 719.545 1222.39 720.726 1220.28 720.714C1212.54 720.669 1204.81 720.227 1196.64 719.61Z" fill="#5959D5"/>
<path d="M1176.91 720.5C1172.99 715.34 1173.66 709.352 1176.41 702.973C1176.86 708.401 1176.92 714.142 1176.91 720.5Z" fill="#5959D5"/>
<path d="M1211.47 699.5C1212.52 700.32 1213.48 701.585 1215.54 704.268C1208.92 704.268 1203.8 704.268 1198.08 704.204C1199.32 703.525 1201.16 702.952 1202.97 702.284C1205.71 701.27 1209.84 705.24 1211.47 699.5Z" fill="#5959D5"/>
<path d="M1187.82 692.745C1192.2 692.436 1197.17 692.161 1202.44 692.267C1197.96 692.691 1193.19 692.735 1187.82 692.745Z" fill="#5959D5"/>
<path d="M918.996 783.222C921.348 782.862 923.789 782.933 926.742 782.982C924.651 784.602 922.144 787.39 918.996 783.222Z" fill="#5959D5"/>
<path d="M1187.21 730.676C1185.07 729.559 1182.72 728.06 1180.19 726.189C1182.34 727.31 1184.66 728.803 1187.21 730.676Z" fill="#5959D5"/>
<path d="M1207.76 695.674C1208.93 696.255 1210.15 697.283 1211.48 698.708C1210.33 698.11 1209.07 697.116 1207.76 695.674Z" fill="#5959D5"/>
<path d="M1193.18 732.227C1191.89 732.304 1190.22 732.057 1188.18 731.449C1189.47 731.358 1191.13 731.631 1193.18 732.227Z" fill="#5959D5"/>
<path d="M1179.57 698.63C1179.8 697.792 1180.51 696.897 1181.61 695.836C1181.35 696.637 1180.69 697.605 1179.57 698.63Z" fill="#5959D5"/>
<path d="M1178.24 723.305C1177.64 722.97 1177.25 722.374 1176.78 721.422C1177.29 721.725 1177.87 722.385 1178.24 723.305Z" fill="#5959D5"/>
<path d="M1177.01 702.601C1176.96 702.081 1177.23 701.304 1177.86 700.336C1177.94 700.878 1177.63 701.611 1177.01 702.601Z" fill="#5959D5"/>
<path d="M1205.41 694.025C1205.89 694.014 1206.63 694.304 1207.58 694.942C1207.08 694.969 1206.37 694.647 1205.41 694.025Z" fill="#5959D5"/>
<path d="M1183.32 695.122C1183.56 694.624 1184.26 694.06 1185.42 693.473C1185.18 693.985 1184.47 694.521 1183.32 695.122Z" fill="#5959D5"/>
<path d="M1202.87 692.864C1203.37 692.787 1204.15 692.986 1205.18 693.524C1204.67 693.622 1203.92 693.381 1202.87 692.864Z" fill="#5959D5"/>
<path d="M1194.09 718.191C1194.56 718.189 1195.27 718.483 1196.21 719.091C1195.74 719.1 1195.04 718.794 1194.09 718.191Z" fill="#5959D5"/>
<path d="M1185.96 693.668C1185.96 693.45 1186.27 693.087 1186.96 692.693C1186.99 692.95 1186.63 693.236 1185.96 693.668Z" fill="#5959D5"/>
<path d="M1178.51 700.139C1178.42 699.914 1178.57 699.425 1179.1 698.787C1179.23 699.05 1178.99 699.462 1178.51 700.139Z" fill="#5959D5"/>
<path d="M825.105 757.312C830.904 735.643 843.899 721.504 866.945 718.064C892.76 714.212 917.644 734.388 920.244 761.168C922.727 786.739 901.206 811.477 875.598 812.461C869.385 812.7 864.287 811.097 863.234 804.01C862.275 797.557 866.146 793.698 874.705 792.773C887.188 791.425 895.535 784.959 899.382 773.153C902.939 762.236 899.976 752.629 891.803 744.868C883.563 737.044 873.626 734.938 862.971 739.079C852.126 743.293 845.259 751.301 845.073 763.134C844.652 789.954 844.999 816.785 844.64 843.607C844.575 848.419 842.622 853.207 840.831 858.678C836.888 859.257 833.654 859.165 830.42 859.073C830.42 859.073 830.394 859.219 830.071 858.76C828.162 854.107 825.255 849.93 825.203 845.718C824.84 816.253 825.067 786.781 825.105 757.312Z" fill="#F9F8FD"/>
<path d="M1122.55 734.502C1146.55 761.773 1134.04 803.87 1098.2 812.542C1094.44 813.451 1089.9 814.577 1086.67 813.272C1083.22 811.877 1078.86 807.86 1078.65 804.733C1078.44 801.596 1082.44 797.705 1085.39 795.008C1086.95 793.582 1090.21 794.056 1092.69 793.564C1106.96 790.726 1116.93 777.581 1115.33 763.743C1113.68 749.487 1101.68 738.614 1087.4 738.444C1073.18 738.274 1060.42 749.114 1059.78 763.621C1058.94 782.587 1059.42 801.611 1059.36 820.611C1059.33 830.112 1059.44 839.615 1059.29 849.114C1059.2 855.457 1056.49 860.272 1049.51 860.264C1042.6 860.256 1039.72 855.696 1039.72 849.188C1039.72 820.405 1038.95 791.592 1040.05 762.85C1040.81 743.251 1052.27 729.307 1070.46 722.217C1089.94 714.62 1107.32 719.681 1122.55 734.502Z" fill="#F9F8FD"/>
<path d="M1735.45 772.724C1729.92 797.474 1712.07 812.806 1689.17 813.077C1666.42 813.347 1647.42 798.903 1642.18 776.535C1640.69 770.141 1641.05 763.289 1640.83 756.638C1640.63 750.568 1640.79 744.486 1640.79 738.157C1632.97 736.224 1621.82 739.398 1622.21 727.087C1622.56 716.164 1632.28 718.153 1640.85 717.028C1640.85 712.686 1640.72 708.379 1640.88 704.083C1641.11 697.854 1644.4 693.828 1650.74 694.006C1656.92 694.179 1660.3 697.967 1660.17 704.413C1660.09 708.282 1660.16 712.154 1660.16 717.649C1666.21 717.649 1671.64 717.638 1677.07 717.652C1683.86 717.669 1688.91 720.266 1688.85 727.651C1688.79 735.109 1683.61 737.397 1676.85 737.295C1671.59 737.215 1666.32 737.279 1660.72 737.279C1660.72 748.736 1659.87 759.334 1660.93 769.739C1662.33 783.569 1674.24 793.277 1688.02 793.442C1701.63 793.605 1713.29 783.904 1715.84 770.286C1715.89 770.012 1715.96 769.743 1716.01 769.469C1717.86 758.216 1720.73 754.724 1727.45 755.588C1734.13 756.448 1736.24 760.767 1735.45 772.724Z" fill="#FAFAFD"/>
<path d="M947.003 798.533C931.34 781.112 928.467 759.315 939.16 741.843C951.026 722.456 972.418 713.538 993.138 719.342C1013.97 725.178 1027.83 743.567 1028.14 766.16C1028.33 780.115 1028.15 794.076 1028.18 808.033C1028.2 814.94 1026.07 820.382 1018.21 820.92C1012.06 821.341 1008.46 816.453 1008.41 808.074C1008.32 793.558 1008.64 779.036 1008.31 764.527C1007.98 750.564 997.604 739.242 984.253 737.486C970.98 735.74 958.757 743.353 954.054 756.295C949.587 768.586 954.806 782.711 966.815 789.327C970.355 791.278 974.652 792.261 978.718 792.771C985.387 793.609 990.134 796.001 989.939 803.501C989.776 809.773 984.528 813.346 976.5 812.504C965.3 811.329 955.556 806.803 947.003 798.533Z" fill="#F9F8FD"/>
<path d="M1534.03 739.161C1539.18 725.178 1548.89 718.75 1563.03 718.738C1573.91 718.728 1584.79 718.665 1595.67 718.803C1603.97 718.909 1608.9 722.667 1608.29 728.753C1607.57 735.955 1602.75 738.166 1595.9 737.986C1585.31 737.707 1574.7 737.863 1564.1 737.934C1557.72 737.977 1551.86 739.546 1552 747.297C1552.15 755.046 1557.91 756.31 1564.42 756.135C1570.83 755.963 1577.26 755.898 1583.66 756.164C1600.11 756.846 1612.31 769.394 1612.09 785.143C1611.88 800.441 1599.68 812.53 1583.56 812.934C1571.57 813.234 1559.57 812.973 1547.57 813.032C1540.69 813.066 1535.84 810.325 1536.1 802.99C1536.34 796.164 1541.1 793.736 1547.62 793.796C1558.77 793.897 1569.93 793.753 1581.09 793.72C1587.33 793.702 1592.56 791.895 1592.51 784.65C1592.47 777.396 1587.24 775.67 1580.98 775.728C1575.68 775.777 1570.38 775.741 1565.08 775.728C1542.5 775.673 1530.8 762.249 1534.03 739.161Z" fill="#FAFAFD"/>
<path d="M1496.73 808.381C1475.94 818.333 1455.01 815.352 1440.45 800.794C1425.46 785.807 1421.52 764.302 1430.4 745.994C1439.62 726.997 1458.49 716.543 1480.05 719.095C1495.46 720.917 1507.23 728.881 1515.13 742.227C1519.83 750.162 1518.33 755.155 1510.19 759.224C1501.68 763.473 1493.05 767.456 1484.48 771.573C1478.72 774.336 1473.37 774.45 1470.12 768.109C1466.68 761.391 1470.02 756.926 1476.07 753.928C1481.26 751.359 1486.5 748.888 1491.92 746.274C1484.23 738.179 1474.2 736.07 1464.07 739.955C1452.76 744.289 1445.48 754.611 1445.44 766.377C1445.4 777.62 1452.38 789.543 1463.2 792.311C1470.26 794.12 1478.3 791.865 1485.88 792.076C1490.23 792.198 1495.79 792.237 1498.59 794.764C1502.67 798.448 1501.66 803.964 1496.73 808.381Z" fill="#F9F8FD"/>
<path d="M1192.85 774.01C1187.52 764.879 1188.18 761.846 1197.92 756.379C1205.9 756.151 1212.62 756.151 1221.3 756.151C1218.61 752.636 1217.34 750.978 1216.07 749.32C1216.07 749.32 1216.03 749.411 1215.94 748.879C1214.24 747 1212.64 745.651 1211.03 744.303C1211.03 744.303 1211.02 744.408 1210.81 743.942C1209.62 743.095 1208.65 742.715 1207.68 742.335C1207.68 742.335 1207.77 742.607 1207.58 742.118C1206.37 741.367 1205.34 741.107 1204.31 740.846C1204.31 740.846 1204.37 740.99 1204.05 740.458C1197.21 740.286 1190.69 740.647 1184.17 741.007C1184.17 741.007 1184.28 741.057 1183.8 741.04C1182.92 741.499 1182.51 741.975 1182.11 742.451C1182.11 742.451 1182.5 742.367 1181.84 742.202C1180.28 742.776 1179.37 743.515 1178.46 744.255L1177.97 744.193C1177.97 744.193 1177.55 744.444 1176.92 744.882C1175.36 746.492 1174.44 747.665 1173.51 748.837C1173.51 748.837 1173.79 749.06 1173.4 749.113C1172.82 749.807 1172.62 750.447 1172.43 751.088C1172.43 751.088 1172.58 750.896 1171.99 751.073C1171.06 752.268 1170.71 753.285 1170.36 754.303C1170.36 754.303 1170.57 754.247 1170.02 754.556C1166.39 762.815 1165.51 770.662 1170.56 778.234C1170.56 778.234 1170.51 778.104 1170.54 778.602C1171.08 779.881 1171.6 780.662 1172.11 781.442C1172.67 782.28 1173.23 783.118 1174.48 784.662C1178.26 787.332 1181.35 789.295 1184.44 791.259C1184.44 791.259 1184.67 791.521 1185.29 791.884C1188.1 792.569 1190.29 792.892 1192.48 793.215C1196.22 795.183 1201.33 796.225 1203.41 799.31C1207.82 805.887 1202.05 813.468 1193.09 813.066C1174.27 812.22 1160.41 803.187 1152.26 786.209C1144.06 769.141 1146.05 752.676 1157.33 737.651C1169.07 721.991 1189.12 715.291 1206.92 720.405C1225.92 725.86 1240.1 742.187 1241.55 761.749C1241.85 765.904 1238.42 770.335 1235.52 775.103C1221.54 775.656 1208.75 775.744 1195.96 775.833C1195.96 775.833 1196.03 776.061 1195.84 775.614C1194.72 774.781 1193.78 774.396 1192.85 774.01Z" fill="#F9F8FD"/>
<path d="M1317.98 763.206C1319.04 736.464 1339.36 717.495 1365.99 717.592C1392.32 717.688 1412.75 737.304 1413.25 763.231C1413.49 776.087 1413.23 788.952 1413.33 801.812C1413.38 808.484 1411.35 813.559 1403.83 814.166C1397.52 814.676 1393.97 810.091 1393.9 801.565C1393.81 789.264 1394.07 776.958 1393.81 764.661C1393.47 748.033 1381.93 737.203 1365.17 737.395C1348.95 737.581 1337.72 748.54 1337.46 764.746C1337.27 777.045 1337.33 789.349 1337.4 801.651C1337.44 808.338 1335.53 813.612 1327.76 813.564C1320.22 813.517 1317.85 808.592 1317.92 801.752C1318.04 789.171 1317.97 776.589 1317.98 763.206Z" fill="#FAFAFD"/>
<path d="M1254.01 804.148C1253.97 789.705 1253.83 776.013 1254 762.326C1254.29 738.022 1275.04 717.697 1299.33 717.592C1305.79 717.564 1310.68 719.962 1311.15 726.715C1311.62 733.534 1306.86 736.42 1300.62 737.374C1280.39 740.469 1273.57 748.276 1273.42 768.484C1273.33 779.938 1273.27 791.394 1273.32 802.848C1273.35 808.97 1270.98 813.555 1264.62 814.143C1258.46 814.712 1254.62 811.357 1254.01 804.148Z" fill="#FAFAFD"/>
</svg>
