<svg width="390" height="342" viewBox="0 0 390 342" fill="none" xmlns="http://www.w3.org/2000/svg">
<rect x="97" y="1" width="191" height="160" rx="25" fill="url(#paint0_linear_6_251)" fill-opacity="0.09"/>
<path d="M279.67 157.807C285.895 158.758 286.668 134.14 286.685 125.542C286.73 100.061 289.573 43.1695 286.757 21.7385C283.734 -1.26771 256.503 2.99088 244.889 2.2514C209.977 0.0277021 176.513 1.7654 139.337 1.73393C130.124 1.72519 120.525 -0.218796 111.441 2.25664C102.299 4.74606 99.3814 14.8401 98.4285 29.5494C97.7211 40.4633 97.2652 97.9875 97.0528 115.76C96.9507 124.313 96.698 146.057 99.7186 152.753C104.133 162.545 115.642 160.905 120.576 160.886C131.457 160.842 246.793 160.496 276.19 157.748" stroke="#2C2C2C" stroke-width="2" stroke-miterlimit="1.5" stroke-linecap="round" stroke-linejoin="round"/>
<path d="M114.81 271.803C118.688 272.159 119.17 262.928 119.18 259.703C119.209 250.148 120.98 228.814 119.225 220.777C117.342 212.15 100.376 213.747 93.14 213.469C71.3889 212.635 50.5393 213.287 27.3773 213.275C21.6377 213.272 15.6572 212.543 9.99726 213.471C4.30137 214.405 2.48369 218.19 1.89001 223.706C1.44924 227.799 1.16525 249.37 1.03289 256.035C0.969285 259.243 0.811869 267.397 2.6938 269.907C5.4444 273.579 12.6149 272.964 15.6887 272.957C22.4678 272.941 94.3267 272.811 112.642 271.78" stroke="#2C2C2C" stroke-width="2" stroke-miterlimit="1.5" stroke-linecap="round" stroke-linejoin="round"/>
<rect x="106" y="112" width="172" height="41" rx="10" fill="#F6F3D4" fill-opacity="0.8"/>
<path d="M124.979 35.01C126.589 36.0833 127.394 37.74 127.394 39.98C127.394 43.0133 126.379 45.0783 124.349 46.175L123.019 46.385C122.225 46.385 121.385 46 120.499 45.23H120.254C119.53 46.1633 118.854 46.63 118.224 46.63C116.567 46.63 115.61 45.0667 115.354 41.94V40.05C115.517 37.0867 116.135 35.605 117.209 35.605C117.792 35.605 118.13 35.9667 118.224 36.69C117.687 37.6233 117.419 38.93 117.419 40.61V41.275C117.512 43.375 117.734 44.425 118.084 44.425C118.434 44.425 118.795 43.8183 119.169 42.605L119.099 40.19C119.099 38.58 119.484 37.775 120.254 37.775C121.14 37.775 121.584 38.65 121.584 40.4H121.724L121.374 42.605C121.77 43.7717 122.319 44.355 123.019 44.355H123.229C124.255 44.355 124.92 43.2583 125.224 41.065V39.105C125.224 38.3583 124.78 37.4367 123.894 36.34L123.754 36.025C123.754 35.535 124.162 35.1967 124.979 35.01ZM132.237 33.435C133.171 33.4583 134.746 35.0917 136.962 38.335L137.032 38.93C137.032 39.5833 135.434 40.085 132.237 40.435L132.132 40.54V40.68C132.622 42.78 133.136 43.83 133.672 43.83H134.092C134.839 43.83 135.971 43.025 137.487 41.415H137.697C138.164 41.415 138.526 41.7533 138.782 42.43C138.782 42.99 137.802 43.9583 135.842 45.335C135.329 45.6383 134.711 45.86 133.987 46C132.097 46 130.779 44.2267 130.032 40.68C128.959 40.5167 128.422 40.0733 128.422 39.35C128.422 38.8367 128.819 38.4983 129.612 38.335V38.475L129.962 38.335V37.46C129.962 34.7767 130.721 33.435 132.237 33.435ZM132.447 35.955H132.132L131.992 37.25V38.335H132.132C133.439 38.2883 134.092 38.1483 134.092 37.915C133.486 37.005 132.937 36.3517 132.447 35.955ZM140.407 29.375C141.621 29.375 142.402 31.755 142.752 36.515L142.962 37.6C144.036 35.4067 144.911 34.31 145.587 34.31C145.587 34.2167 145.832 34.1467 146.322 34.1H146.462C148.002 34.1 148.982 35.3017 149.402 37.705V37.81C149.402 39.8633 148.376 42.1267 146.322 44.6C145.459 45.5333 144.514 46 143.487 46C142.321 45.7433 141.737 45.16 141.737 44.25L139.987 31.685L139.462 30.39C139.462 29.97 139.777 29.6317 140.407 29.375ZM144.047 43.585H144.152C145.366 43.095 146.427 41.4267 147.337 38.58V37.25C147.127 36.5267 146.859 36.165 146.532 36.165H146.252C145.226 36.7717 144.491 39.245 144.047 43.585ZM167.931 34.135L169.366 33.925C169.949 33.925 170.276 34.2867 170.346 35.01C170.346 35.64 169.587 36.0483 168.071 36.235C167.114 36.9817 166.636 37.9383 166.636 39.105V40.26C167.102 42.8267 167.896 44.11 169.016 44.11H169.366C170.019 44.11 170.999 43.4917 172.306 42.255H172.516C172.982 42.255 173.356 42.5817 173.636 43.235C173.309 44.2383 172.259 45.1483 170.486 45.965C170.159 46.105 169.751 46.175 169.261 46.175C166.857 46.175 165.294 44.285 164.571 40.505V39.735C164.571 37.005 165.691 35.1383 167.931 34.135ZM181.001 32.805C182.728 32.805 184.034 34.0883 184.921 36.655L185.061 37.39C185.061 39.8867 183.894 42.4417 181.561 45.055C180.628 45.9183 179.683 46.35 178.726 46.35C177.326 46.35 176.334 45.545 175.751 43.935C175.541 43.1883 175.436 42.535 175.436 41.975V41.555C175.436 37.8683 176.778 35.0683 179.461 33.155C179.928 32.9217 180.441 32.805 181.001 32.805ZM177.501 41.905C177.501 43.4917 177.909 44.285 178.726 44.285C180.429 44.285 181.841 42.1033 182.961 37.74V37.075C182.564 35.6283 181.829 34.905 180.756 34.905C180.336 34.905 180.126 35.1967 180.126 35.78C180.126 36.1767 179.659 36.4917 178.726 36.725C177.909 38.1017 177.501 39.8283 177.501 41.905ZM187.172 33.75C187.335 33.1667 187.708 32.875 188.292 32.875C188.875 32.875 189.26 33.4583 189.447 34.625H189.587L191.197 34.275C191.943 34.275 192.667 34.975 193.367 36.375H193.507C194.533 34.765 195.583 33.96 196.657 33.96C198.943 34.38 200.087 35.8733 200.087 38.44L200.157 39.665L199.842 46.735V47.4C199.842 47.9833 199.48 48.3217 198.757 48.415C198.033 48.415 197.672 47.5633 197.672 45.86L198.092 39.525C198.092 37.1917 197.543 36.025 196.447 36.025C195.817 36.025 195.058 37.5533 194.172 40.61C193.728 44.11 193.367 45.86 193.087 45.86C192.69 45.86 192.492 45.9417 192.492 46.105C191.768 46.0117 191.407 45.6383 191.407 44.985L191.862 40.75C191.792 37.8333 191.5 36.375 190.987 36.375H190.882C190.298 36.8183 190.007 37.6933 190.007 39V40.855L189.867 46.21C189.703 46.7933 189.342 47.085 188.782 47.085C188.292 47.085 187.977 46.6767 187.837 45.86L187.697 41.73L187.907 38.335C187.767 36.585 187.522 35.0567 187.172 33.75ZM206.4 35.605C208.874 35.605 210.332 37.1567 210.775 40.26C210.775 43.0133 209.492 44.985 206.925 46.175C206.645 46.315 206.26 46.385 205.77 46.385H205.525L204.755 46.315V46.385L204.895 55.73C204.732 56.4533 204.359 56.815 203.775 56.815C203.122 56.605 202.795 56.2667 202.795 55.8L202.48 36.76C202.48 36.1533 202.842 35.8383 203.565 35.815L204.3 36.13C204.954 35.78 205.654 35.605 206.4 35.605ZM204.65 39.315L204.545 40.4L204.65 44.11L205.63 44.355C207.194 44.355 208.209 43.2117 208.675 40.925V40.4C208.512 38.5567 207.859 37.635 206.715 37.635H206.19C205.164 37.635 204.65 38.195 204.65 39.315ZM218.017 32.805C219.744 32.805 221.051 34.0883 221.937 36.655L222.077 37.39C222.077 39.8867 220.911 42.4417 218.577 45.055C217.644 45.9183 216.699 46.35 215.742 46.35C214.342 46.35 213.351 45.545 212.767 43.935C212.557 43.1883 212.452 42.535 212.452 41.975V41.555C212.452 37.8683 213.794 35.0683 216.477 33.155C216.944 32.9217 217.457 32.805 218.017 32.805ZM214.517 41.905C214.517 43.4917 214.926 44.285 215.742 44.285C217.446 44.285 218.857 42.1033 219.977 37.74V37.075C219.581 35.6283 218.846 34.905 217.772 34.905C217.352 34.905 217.142 35.1967 217.142 35.78C217.142 36.1767 216.676 36.4917 215.742 36.725C214.926 38.1017 214.517 39.8283 214.517 41.905ZM228.178 34.205C230.162 34.3683 231.153 35.3367 231.153 37.11L231.223 37.565L231.153 43.025C231.153 43.655 231.515 44.5067 232.238 45.58V45.65C232.052 46.3267 231.713 46.665 231.223 46.665C229.777 46.0583 229.053 44.775 229.053 42.815V42.36L228.948 42.29L229.053 42.15V42.08L229.158 37.25C229.158 36.5733 228.867 36.235 228.283 36.235H227.863C226.697 36.7017 226.113 39.2567 226.113 43.9C226.113 45.51 225.705 46.315 224.888 46.315C224.258 46.315 223.932 45.9183 223.908 45.125V41.625C223.908 37.0983 224.305 34.835 225.098 34.835L225.448 34.73L226.183 34.835C226.813 34.415 227.478 34.205 228.178 34.205ZM236.485 33.435C237.419 33.4583 238.994 35.0917 241.21 38.335L241.28 38.93C241.28 39.5833 239.682 40.085 236.485 40.435L236.38 40.54V40.68C236.87 42.78 237.384 43.83 237.92 43.83H238.34C239.087 43.83 240.219 43.025 241.735 41.415H241.945C242.412 41.415 242.774 41.7533 243.03 42.43C243.03 42.99 242.05 43.9583 240.09 45.335C239.577 45.6383 238.959 45.86 238.235 46C236.345 46 235.027 44.2267 234.28 40.68C233.207 40.5167 232.67 40.0733 232.67 39.35C232.67 38.8367 233.067 38.4983 233.86 38.335V38.475L234.21 38.335V37.46C234.21 34.7767 234.969 33.435 236.485 33.435ZM236.695 35.955H236.38L236.24 37.25V38.335H236.38C237.687 38.2883 238.34 38.1483 238.34 37.915C237.734 37.005 237.185 36.3517 236.695 35.955ZM248.925 34.205C250.909 34.3683 251.9 35.3367 251.9 37.11L251.97 37.565L251.9 43.025C251.9 43.655 252.262 44.5067 252.985 45.58V45.65C252.799 46.3267 252.46 46.665 251.97 46.665C250.524 46.0583 249.8 44.775 249.8 42.815V42.36L249.695 42.29L249.8 42.15V42.08L249.905 37.25C249.905 36.5733 249.614 36.235 249.03 36.235H248.61C247.444 36.7017 246.86 39.2567 246.86 43.9C246.86 45.51 246.452 46.315 245.635 46.315C245.005 46.315 244.679 45.9183 244.655 45.125V41.625C244.655 37.0983 245.052 34.835 245.845 34.835L246.195 34.73L246.93 34.835C247.56 34.415 248.225 34.205 248.925 34.205ZM258.212 24.755C258.866 24.895 259.192 25.2217 259.192 25.735L258.982 27.275V27.73C258.982 28.7567 259.099 29.8417 259.332 30.985H259.402C262.109 30.1683 263.789 29.76 264.442 29.76C265.119 29.9467 265.457 30.285 265.457 30.775C265.457 31.5683 264.652 31.965 263.042 31.965L259.402 33.26C259.402 36.41 259.741 40.6917 260.417 46.105C260.277 46.735 259.939 47.05 259.402 47.05H259.332C258.516 47.05 258.107 46 258.107 43.9C257.804 42.3367 257.547 38.9417 257.337 33.715H256.707C254.514 33.575 253.417 33.0617 253.417 32.175C253.417 31.9183 253.662 31.6033 254.152 31.23H254.502L256.112 31.65H257.232L256.917 27.275C256.917 25.595 257.349 24.755 258.212 24.755ZM273.559 31.825C274.189 31.825 274.621 32.8867 274.854 35.01C274.621 35.5933 274.236 35.885 273.699 35.885C273.326 35.815 272.952 35.3833 272.579 34.59L271.949 34.38C270.852 34.38 269.861 35.1033 268.974 36.55V36.865C268.974 37.215 270.619 37.7983 273.909 38.615C275.286 39.4317 275.974 40.4233 275.974 41.59C275.974 43.5033 274.434 45.1367 271.354 46.49L270.059 46.7C268.099 46.49 267.119 45.51 267.119 43.76V43.655C267.119 43.095 267.481 42.7683 268.204 42.675C268.764 42.675 269.137 43.2583 269.324 44.425L269.604 44.635H270.199C271.529 44.635 272.766 43.725 273.909 41.905V41.45C273.909 40.75 272.381 40.0967 269.324 39.49C267.714 38.8367 266.909 37.9267 266.909 36.76C266.909 35.2433 268.181 33.82 270.724 32.49C271.844 32.35 272.789 32.1283 273.559 31.825ZM147.311 67.21C148.781 67.21 149.656 68.2367 149.936 70.29V70.605C149.936 72.8683 148.769 74.945 146.436 76.835C147.789 78.165 150.158 78.83 153.541 78.83C154.054 78.9933 154.311 79.355 154.311 79.915C154.311 80.545 153.903 80.86 153.086 80.86C150.799 80.86 148.396 80.2767 145.876 79.11V80.125C145.876 82.5283 145.363 83.73 144.336 83.73C143.613 83.73 143.251 82.3417 143.251 79.565V76.835L143.146 75.855L143.391 74.735L143.146 71.375V71.235C143.146 70.605 143.473 70.1733 144.126 69.94C145.036 68.12 146.098 67.21 147.311 67.21ZM145.561 74.875C146.238 74.875 146.996 73.6617 147.836 71.235V69.73L147.416 69.275H147.101C146.074 69.975 145.561 71.8417 145.561 74.875ZM158.624 68.435C159.557 68.4583 161.132 70.0917 163.349 73.335L163.419 73.93C163.419 74.5833 161.821 75.085 158.624 75.435L158.519 75.54V75.68C159.009 77.78 159.522 78.83 160.059 78.83H160.479C161.226 78.83 162.357 78.025 163.874 76.415H164.084C164.551 76.415 164.912 76.7533 165.169 77.43C165.169 77.99 164.189 78.9583 162.229 80.335C161.716 80.6383 161.097 80.86 160.374 81C158.484 81 157.166 79.2267 156.419 75.68C155.346 75.5167 154.809 75.0733 154.809 74.35C154.809 73.8367 155.206 73.4983 155.999 73.335V73.475L156.349 73.335V72.46C156.349 69.7767 157.107 68.435 158.624 68.435ZM158.834 70.955H158.519L158.379 72.25V73.335H158.519C159.826 73.2883 160.479 73.1483 160.479 72.915C159.872 72.005 159.324 71.3517 158.834 70.955ZM170.819 70.605C173.292 70.605 174.751 72.1567 175.194 75.26C175.194 78.0133 173.911 79.985 171.344 81.175C171.064 81.315 170.679 81.385 170.189 81.385H169.944L169.174 81.315V81.385L169.314 90.73C169.151 91.4533 168.777 91.815 168.194 91.815C167.541 91.605 167.214 91.2667 167.214 90.8L166.899 71.76C166.899 71.1533 167.261 70.8383 167.984 70.815L168.719 71.13C169.372 70.78 170.072 70.605 170.819 70.605ZM169.069 74.315L168.964 75.4L169.069 79.11L170.049 79.355C171.612 79.355 172.627 78.2117 173.094 75.925V75.4C172.931 73.5567 172.277 72.635 171.134 72.635H170.609C169.582 72.635 169.069 73.195 169.069 74.315ZM182.436 67.805C184.163 67.805 185.47 69.0883 186.356 71.655L186.496 72.39C186.496 74.8867 185.33 77.4417 182.996 80.055C182.063 80.9183 181.118 81.35 180.161 81.35C178.761 81.35 177.77 80.545 177.186 78.935C176.976 78.1883 176.871 77.535 176.871 76.975V76.555C176.871 72.8683 178.213 70.0683 180.896 68.155C181.363 67.9217 181.876 67.805 182.436 67.805ZM178.936 76.905C178.936 78.4917 179.345 79.285 180.161 79.285C181.865 79.285 183.276 77.1033 184.396 72.74V72.075C184 70.6283 183.265 69.905 182.191 69.905C181.771 69.905 181.561 70.1967 181.561 70.78C181.561 71.1767 181.095 71.4917 180.161 71.725C179.345 73.1017 178.936 74.8283 178.936 76.905ZM195.082 66.825C195.712 66.825 196.144 67.8867 196.377 70.01C196.144 70.5933 195.759 70.885 195.222 70.885C194.849 70.815 194.476 70.3833 194.102 69.59L193.472 69.38C192.376 69.38 191.384 70.1033 190.497 71.55V71.865C190.497 72.215 192.142 72.7983 195.432 73.615C196.809 74.4317 197.497 75.4233 197.497 76.59C197.497 78.5033 195.957 80.1367 192.877 81.49L191.582 81.7C189.622 81.49 188.642 80.51 188.642 78.76V78.655C188.642 78.095 189.004 77.7683 189.727 77.675C190.287 77.675 190.661 78.2583 190.847 79.425L191.127 79.635H191.722C193.052 79.635 194.289 78.725 195.432 76.905V76.45C195.432 75.75 193.904 75.0967 190.847 74.49C189.237 73.8367 188.432 72.9267 188.432 71.76C188.432 70.2433 189.704 68.82 192.247 67.49C193.367 67.35 194.312 67.1283 195.082 66.825ZM199.2 62.765C200.086 62.9517 200.53 63.3483 200.53 63.955C200.296 64.6083 199.923 64.935 199.41 64.935C198.546 64.7717 198.115 64.34 198.115 63.64C198.348 63.0567 198.71 62.765 199.2 62.765ZM200.53 67.665C200.903 67.665 201.218 68.0033 201.475 68.68L201.16 71.165V72.81C201.16 74.7233 201.486 77.2317 202.14 80.335C201.906 80.7783 201.51 81 200.95 81C199.993 81 199.363 78.2 199.06 72.6V71.375C199.06 68.9017 199.55 67.665 200.53 67.665ZM208.071 59.755C208.724 59.895 209.051 60.2217 209.051 60.735L208.841 62.275V62.73C208.841 63.7567 208.958 64.8417 209.191 65.985H209.261C211.968 65.1683 213.648 64.76 214.301 64.76C214.978 64.9467 215.316 65.285 215.316 65.775C215.316 66.5683 214.511 66.965 212.901 66.965L209.261 68.26C209.261 71.41 209.599 75.6917 210.276 81.105C210.136 81.735 209.798 82.05 209.261 82.05H209.191C208.374 82.05 207.966 81 207.966 78.9C207.663 77.3367 207.406 73.9417 207.196 68.715H206.566C204.373 68.575 203.276 68.0617 203.276 67.175C203.276 66.9183 203.521 66.6033 204.011 66.23H204.361L205.971 66.65H207.091L206.776 62.275C206.776 60.595 207.208 59.755 208.071 59.755ZM221.982 67.805C223.709 67.805 225.016 69.0883 225.902 71.655L226.042 72.39C226.042 74.8867 224.876 77.4417 222.542 80.055C221.609 80.9183 220.664 81.35 219.707 81.35C218.307 81.35 217.316 80.545 216.732 78.935C216.522 78.1883 216.417 77.535 216.417 76.975V76.555C216.417 72.8683 217.759 70.0683 220.442 68.155C220.909 67.9217 221.422 67.805 221.982 67.805ZM218.482 76.905C218.482 78.4917 218.891 79.285 219.707 79.285C221.411 79.285 222.822 77.1033 223.942 72.74V72.075C223.546 70.6283 222.811 69.905 221.737 69.905C221.317 69.905 221.107 70.1967 221.107 70.78C221.107 71.1767 220.641 71.4917 219.707 71.725C218.891 73.1017 218.482 74.8283 218.482 76.905ZM232.213 67.21C233.683 67.21 234.558 68.2367 234.838 70.29V70.605C234.838 72.8683 233.672 74.945 231.338 76.835C232.692 78.165 235.06 78.83 238.443 78.83C238.957 78.9933 239.213 79.355 239.213 79.915C239.213 80.545 238.805 80.86 237.988 80.86C235.702 80.86 233.298 80.2767 230.778 79.11V80.125C230.778 82.5283 230.265 83.73 229.238 83.73C228.515 83.73 228.153 82.3417 228.153 79.565V76.835L228.048 75.855L228.293 74.735L228.048 71.375V71.235C228.048 70.605 228.375 70.1733 229.028 69.94C229.938 68.12 231 67.21 232.213 67.21ZM230.463 74.875C231.14 74.875 231.898 73.6617 232.738 71.235V69.73L232.318 69.275H232.003C230.977 69.975 230.463 71.8417 230.463 74.875ZM241.496 70.5C242.313 70.5 242.873 72.2967 243.176 75.89C243.573 77.5467 243.865 78.375 244.051 78.375H244.261C244.845 76.905 245.136 75.4467 245.136 74L244.926 71.585C245.183 70.955 245.545 70.64 246.011 70.64C246.875 70.64 247.306 72.1683 247.306 75.225C247.82 78.3983 248.076 81.35 248.076 84.08V85.725C248.076 90.7417 246.653 94.125 243.806 95.875L243.036 96.015C241.706 96.015 240.47 94.7783 239.326 92.305L239.011 90.205V90.1C239.011 88.56 239.443 87.79 240.306 87.79L241.181 88.35L241.076 90.555C241.076 91.6283 241.625 92.7133 242.721 93.81H243.176C244.46 93.81 245.405 91.36 246.011 86.46L246.081 84.43C246.058 82.0733 245.965 80.5683 245.801 79.915C244.868 80.7317 244.133 81.14 243.596 81.14C242.406 81.14 241.345 77.955 240.411 71.585L240.306 71.515C240.306 70.9783 240.703 70.64 241.496 70.5Z" fill="#464646"/>
<path d="M41.256 242.135L42.691 241.925C43.2743 241.925 43.601 242.287 43.671 243.01C43.671 243.64 42.9127 244.048 41.396 244.235C40.4393 244.982 39.961 245.938 39.961 247.105V248.26C40.4277 250.827 41.221 252.11 42.341 252.11H42.691C43.3443 252.11 44.3243 251.492 45.631 250.255H45.841C46.3077 250.255 46.681 250.582 46.961 251.235C46.6343 252.238 45.5843 253.148 43.811 253.965C43.4843 254.105 43.076 254.175 42.586 254.175C40.1827 254.175 38.6193 252.285 37.896 248.505V247.735C37.896 245.005 39.016 243.138 41.256 242.135ZM56.951 234.785C57.3477 234.785 57.7094 235.158 58.036 235.905L56.496 245.635V248.365C56.496 251.212 56.9394 252.635 57.826 252.635C58.4094 252.915 58.701 253.288 58.701 253.755C58.701 254.292 58.2344 254.607 57.301 254.7C56.2744 254.7 55.4694 253.755 54.886 251.865H54.536C53.6727 253.755 52.6227 254.7 51.386 254.7C49.9394 254.7 49.0644 253.603 48.761 251.41C48.761 248.867 50.4644 246.172 53.871 243.325C54.5477 243.325 54.886 242.38 54.886 240.49C55.3994 236.687 56.0877 234.785 56.951 234.785ZM50.826 251.13V252.075L51.386 252.635H51.596C52.3427 252.635 53.2177 250.383 54.221 245.88H54.011C51.8877 248.003 50.826 249.753 50.826 251.13ZM64.487 242.205C66.4703 242.368 67.462 243.337 67.462 245.11L67.532 245.565L67.462 251.025C67.462 251.655 67.8236 252.507 68.547 253.58V253.65C68.3603 254.327 68.022 254.665 67.532 254.665C66.0853 254.058 65.362 252.775 65.362 250.815V250.36L65.257 250.29L65.362 250.15V250.08L65.467 245.25C65.467 244.573 65.1753 244.235 64.592 244.235H64.172C63.0053 244.702 62.422 247.257 62.422 251.9C62.422 253.51 62.0136 254.315 61.197 254.315C60.567 254.315 60.2403 253.918 60.217 253.125V249.625C60.217 245.098 60.6136 242.835 61.407 242.835L61.757 242.73L62.492 242.835C63.122 242.415 63.787 242.205 64.487 242.205Z" fill="#464646"/>
<path d="M21.403 315.135L22.838 314.925C23.4213 314.925 23.748 315.287 23.818 316.01C23.818 316.64 23.0596 317.048 21.543 317.235C20.5863 317.982 20.108 318.938 20.108 320.105V321.26C20.5746 323.827 21.368 325.11 22.488 325.11H22.838C23.4913 325.11 24.4713 324.492 25.778 323.255H25.988C26.4546 323.255 26.828 323.582 27.108 324.235C26.7813 325.238 25.7313 326.148 23.958 326.965C23.6313 327.105 23.223 327.175 22.733 327.175C20.3296 327.175 18.7663 325.285 18.043 321.505V320.735C18.043 318.005 19.163 316.138 21.403 315.135ZM34.473 313.805C36.1997 313.805 37.5063 315.088 38.393 317.655L38.533 318.39C38.533 320.887 37.3663 323.442 35.033 326.055C34.0997 326.918 33.1547 327.35 32.198 327.35C30.798 327.35 29.8063 326.545 29.223 324.935C29.013 324.188 28.908 323.535 28.908 322.975V322.555C28.908 318.868 30.2497 316.068 32.933 314.155C33.3997 313.922 33.913 313.805 34.473 313.805ZM30.973 322.905C30.973 324.492 31.3813 325.285 32.198 325.285C33.9013 325.285 35.313 323.103 36.433 318.74V318.075C36.0363 316.628 35.3013 315.905 34.228 315.905C33.808 315.905 33.598 316.197 33.598 316.78C33.598 317.177 33.1313 317.492 32.198 317.725C31.3813 319.102 30.973 320.828 30.973 322.905ZM44.6339 315.205C46.6173 315.368 47.6089 316.337 47.6089 318.11L47.6789 318.565L47.6089 324.025C47.6089 324.655 47.9706 325.507 48.6939 326.58V326.65C48.5073 327.327 48.1689 327.665 47.6789 327.665C46.2323 327.058 45.5089 325.775 45.5089 323.815V323.36L45.4039 323.29L45.5089 323.15V323.08L45.6139 318.25C45.6139 317.573 45.3223 317.235 44.7389 317.235H44.3189C43.1523 317.702 42.5689 320.257 42.5689 324.9C42.5689 326.51 42.1606 327.315 41.3439 327.315C40.7139 327.315 40.3873 326.918 40.3639 326.125V322.625C40.3639 318.098 40.7606 315.835 41.5539 315.835L41.9039 315.73L42.6389 315.835C43.2689 315.415 43.9339 315.205 44.6339 315.205ZM56.826 312.825C57.456 312.825 57.8876 313.887 58.121 316.01C57.8876 316.593 57.5026 316.885 56.966 316.885C56.5926 316.815 56.2193 316.383 55.846 315.59L55.216 315.38C54.1193 315.38 53.1276 316.103 52.241 317.55V317.865C52.241 318.215 53.886 318.798 57.176 319.615C58.5526 320.432 59.241 321.423 59.241 322.59C59.241 324.503 57.701 326.137 54.621 327.49L53.326 327.7C51.366 327.49 50.386 326.51 50.386 324.76V324.655C50.386 324.095 50.7476 323.768 51.471 323.675C52.031 323.675 52.4043 324.258 52.591 325.425L52.871 325.635H53.466C54.796 325.635 56.0326 324.725 57.176 322.905V322.45C57.176 321.75 55.6476 321.097 52.591 320.49C50.981 319.837 50.176 318.927 50.176 317.76C50.176 316.243 51.4476 314.82 53.991 313.49C55.111 313.35 56.056 313.128 56.826 312.825ZM61.9234 316.465L62.5534 316.115C63.1134 316.115 63.5217 316.453 63.7784 317.13C63.4051 318.857 63.2184 320.63 63.2184 322.45C63.2184 323.36 63.4867 324.352 64.0234 325.425H64.2334C64.9101 325.425 65.7151 322.753 66.6484 317.41C66.9751 317.13 67.2901 316.99 67.5934 316.99C68.3167 316.99 68.6784 318.273 68.6784 320.84C68.9817 323.663 69.3201 325.075 69.6934 325.075L70.2184 324.865C70.8951 325.122 71.2334 325.483 71.2334 325.95C70.8134 326.837 70.2301 327.28 69.4834 327.28C68.6434 327.28 67.8384 326.44 67.0684 324.76C66.1351 326.72 65.1901 327.7 64.2334 327.7C62.8101 327.7 61.8184 326.218 61.2584 323.255L61.1534 322.135V321.785C61.1534 319.918 61.4101 318.145 61.9234 316.465ZM72.5336 314.75C72.6969 314.167 73.0703 313.875 73.6536 313.875C74.2369 313.875 74.6219 314.458 74.8086 315.625H74.9486L76.5586 315.275C77.3053 315.275 78.0286 315.975 78.7286 317.375H78.8686C79.8953 315.765 80.9453 314.96 82.0186 314.96C84.3053 315.38 85.4486 316.873 85.4486 319.44L85.5186 320.665L85.2036 327.735V328.4C85.2036 328.983 84.8419 329.322 84.1186 329.415C83.3953 329.415 83.0336 328.563 83.0336 326.86L83.4536 320.525C83.4536 318.192 82.9053 317.025 81.8086 317.025C81.1786 317.025 80.4203 318.553 79.5336 321.61C79.0903 325.11 78.7286 326.86 78.4486 326.86C78.0519 326.86 77.8536 326.942 77.8536 327.105C77.1303 327.012 76.7686 326.638 76.7686 325.985L77.2236 321.75C77.1536 318.833 76.8619 317.375 76.3486 317.375H76.2436C75.6603 317.818 75.3686 318.693 75.3686 320V321.855L75.2286 327.21C75.0653 327.793 74.7036 328.085 74.1436 328.085C73.6536 328.085 73.3386 327.677 73.1986 326.86L73.0586 322.73L73.2686 319.335C73.1286 317.585 72.8836 316.057 72.5336 314.75ZM90.607 314.435C91.5403 314.458 93.1153 316.092 95.332 319.335L95.402 319.93C95.402 320.583 93.8037 321.085 90.607 321.435L90.502 321.54V321.68C90.992 323.78 91.5053 324.83 92.042 324.83H92.462C93.2087 324.83 94.3403 324.025 95.857 322.415H96.067C96.5337 322.415 96.8953 322.753 97.152 323.43C97.152 323.99 96.172 324.958 94.212 326.335C93.6987 326.638 93.0803 326.86 92.357 327C90.467 327 89.1487 325.227 88.402 321.68C87.3287 321.517 86.792 321.073 86.792 320.35C86.792 319.837 87.1887 319.498 87.982 319.335V319.475L88.332 319.335V318.46C88.332 315.777 89.0903 314.435 90.607 314.435ZM90.817 316.955H90.502L90.362 318.25V319.335H90.502C91.8087 319.288 92.462 319.148 92.462 318.915C91.8553 318.005 91.307 317.352 90.817 316.955Z" fill="#464646"/>
<path d="M287.403 314.135L288.838 313.925C289.421 313.925 289.748 314.287 289.818 315.01C289.818 315.64 289.06 316.048 287.543 316.235C286.586 316.982 286.108 317.938 286.108 319.105V320.26C286.575 322.827 287.368 324.11 288.488 324.11H288.838C289.491 324.11 290.471 323.492 291.778 322.255H291.988C292.455 322.255 292.828 322.582 293.108 323.235C292.781 324.238 291.731 325.148 289.958 325.965C289.631 326.105 289.223 326.175 288.733 326.175C286.33 326.175 284.766 324.285 284.043 320.505V319.735C284.043 317.005 285.163 315.138 287.403 314.135ZM300.473 312.805C302.2 312.805 303.506 314.088 304.393 316.655L304.533 317.39C304.533 319.887 303.366 322.442 301.033 325.055C300.1 325.918 299.155 326.35 298.198 326.35C296.798 326.35 295.806 325.545 295.223 323.935C295.013 323.188 294.908 322.535 294.908 321.975V321.555C294.908 317.868 296.25 315.068 298.933 313.155C299.4 312.922 299.913 312.805 300.473 312.805ZM296.973 321.905C296.973 323.492 297.381 324.285 298.198 324.285C299.901 324.285 301.313 322.103 302.433 317.74V317.075C302.036 315.628 301.301 314.905 300.228 314.905C299.808 314.905 299.598 315.197 299.598 315.78C299.598 316.177 299.131 316.492 298.198 316.725C297.381 318.102 296.973 319.828 296.973 321.905ZM310.634 314.205C312.617 314.368 313.609 315.337 313.609 317.11L313.679 317.565L313.609 323.025C313.609 323.655 313.971 324.507 314.694 325.58V325.65C314.507 326.327 314.169 326.665 313.679 326.665C312.232 326.058 311.509 324.775 311.509 322.815V322.36L311.404 322.29L311.509 322.15V322.08L311.614 317.25C311.614 316.573 311.322 316.235 310.739 316.235H310.319C309.152 316.702 308.569 319.257 308.569 323.9C308.569 325.51 308.161 326.315 307.344 326.315C306.714 326.315 306.387 325.918 306.364 325.125V321.625C306.364 317.098 306.761 314.835 307.554 314.835L307.904 314.73L308.639 314.835C309.269 314.415 309.934 314.205 310.634 314.205ZM322.826 311.825C323.456 311.825 323.888 312.887 324.121 315.01C323.888 315.593 323.503 315.885 322.966 315.885C322.593 315.815 322.219 315.383 321.846 314.59L321.216 314.38C320.119 314.38 319.128 315.103 318.241 316.55V316.865C318.241 317.215 319.886 317.798 323.176 318.615C324.553 319.432 325.241 320.423 325.241 321.59C325.241 323.503 323.701 325.137 320.621 326.49L319.326 326.7C317.366 326.49 316.386 325.51 316.386 323.76V323.655C316.386 323.095 316.748 322.768 317.471 322.675C318.031 322.675 318.404 323.258 318.591 324.425L318.871 324.635H319.466C320.796 324.635 322.033 323.725 323.176 321.905V321.45C323.176 320.75 321.648 320.097 318.591 319.49C316.981 318.837 316.176 317.927 316.176 316.76C316.176 315.243 317.448 313.82 319.991 312.49C321.111 312.35 322.056 312.128 322.826 311.825ZM327.923 315.465L328.553 315.115C329.113 315.115 329.522 315.453 329.778 316.13C329.405 317.857 329.218 319.63 329.218 321.45C329.218 322.36 329.487 323.352 330.023 324.425H330.233C330.91 324.425 331.715 321.753 332.648 316.41C332.975 316.13 333.29 315.99 333.593 315.99C334.317 315.99 334.678 317.273 334.678 319.84C334.982 322.663 335.32 324.075 335.693 324.075L336.218 323.865C336.895 324.122 337.233 324.483 337.233 324.95C336.813 325.837 336.23 326.28 335.483 326.28C334.643 326.28 333.838 325.44 333.068 323.76C332.135 325.72 331.19 326.7 330.233 326.7C328.81 326.7 327.818 325.218 327.258 322.255L327.153 321.135V320.785C327.153 318.918 327.41 317.145 327.923 315.465ZM338.534 313.75C338.697 313.167 339.07 312.875 339.654 312.875C340.237 312.875 340.622 313.458 340.809 314.625H340.949L342.559 314.275C343.305 314.275 344.029 314.975 344.729 316.375H344.869C345.895 314.765 346.945 313.96 348.019 313.96C350.305 314.38 351.449 315.873 351.449 318.44L351.519 319.665L351.204 326.735V327.4C351.204 327.983 350.842 328.322 350.119 328.415C349.395 328.415 349.034 327.563 349.034 325.86L349.454 319.525C349.454 317.192 348.905 316.025 347.809 316.025C347.179 316.025 346.42 317.553 345.534 320.61C345.09 324.11 344.729 325.86 344.449 325.86C344.052 325.86 343.854 325.942 343.854 326.105C343.13 326.012 342.769 325.638 342.769 324.985L343.224 320.75C343.154 317.833 342.862 316.375 342.349 316.375H342.244C341.66 316.818 341.369 317.693 341.369 319V320.855L341.229 326.21C341.065 326.793 340.704 327.085 340.144 327.085C339.654 327.085 339.339 326.677 339.199 325.86L339.059 321.73L339.269 318.335C339.129 316.585 338.884 315.057 338.534 313.75ZM356.607 313.435C357.54 313.458 359.115 315.092 361.332 318.335L361.402 318.93C361.402 319.583 359.804 320.085 356.607 320.435L356.502 320.54V320.68C356.992 322.78 357.505 323.83 358.042 323.83H358.462C359.209 323.83 360.34 323.025 361.857 321.415H362.067C362.534 321.415 362.895 321.753 363.152 322.43C363.152 322.99 362.172 323.958 360.212 325.335C359.699 325.638 359.08 325.86 358.357 326C356.467 326 355.149 324.227 354.402 320.68C353.329 320.517 352.792 320.073 352.792 319.35C352.792 318.837 353.189 318.498 353.982 318.335V318.475L354.332 318.335V317.46C354.332 314.777 355.09 313.435 356.607 313.435ZM356.817 315.955H356.502L356.362 317.25V318.335H356.502C357.809 318.288 358.462 318.148 358.462 317.915C357.855 317.005 357.307 316.352 356.817 315.955Z" fill="#464646"/>
<path d="M383.81 271.803C387.688 272.159 388.17 262.928 388.18 259.703C388.209 250.148 389.98 228.814 388.225 220.777C386.342 212.15 369.376 213.747 362.14 213.469C340.389 212.635 319.539 213.287 296.377 213.275C290.638 213.272 284.657 212.543 278.997 213.471C273.301 214.405 271.484 218.19 270.89 223.706C270.449 227.799 270.165 249.37 270.033 256.035C269.969 259.243 269.812 267.397 271.694 269.907C274.444 273.579 281.615 272.964 284.689 272.957C291.468 272.941 363.327 272.811 381.642 271.78" stroke="#2C2C2C" stroke-width="2" stroke-miterlimit="1.5" stroke-linecap="round" stroke-linejoin="round"/>
<path d="M309.459 242.205C311.442 242.368 312.434 243.337 312.434 245.11L312.504 245.565L312.434 251.025C312.434 251.655 312.795 252.507 313.519 253.58V253.65C313.332 254.327 312.994 254.665 312.504 254.665C311.057 254.058 310.334 252.775 310.334 250.815V250.36L310.229 250.29L310.334 250.15V250.08L310.439 245.25C310.439 244.573 310.147 244.235 309.564 244.235H309.144C307.977 244.702 307.394 247.257 307.394 251.9C307.394 253.51 306.985 254.315 306.169 254.315C305.539 254.315 305.212 253.918 305.189 253.125V249.625C305.189 245.098 305.585 242.835 306.379 242.835L306.729 242.73L307.464 242.835C308.094 242.415 308.759 242.205 309.459 242.205ZM318.921 243.605C321.394 243.605 322.852 245.157 323.296 248.26C323.296 251.013 322.012 252.985 319.446 254.175C319.166 254.315 318.781 254.385 318.291 254.385H318.046L317.276 254.315V254.385L317.416 263.73C317.252 264.453 316.879 264.815 316.296 264.815C315.642 264.605 315.316 264.267 315.316 263.8L315.001 244.76C315.001 244.153 315.362 243.838 316.086 243.815L316.821 244.13C317.474 243.78 318.174 243.605 318.921 243.605ZM317.171 247.315L317.066 248.4L317.171 252.11L318.151 252.355C319.714 252.355 320.729 251.212 321.196 248.925V248.4C321.032 246.557 320.379 245.635 319.236 245.635H318.711C317.684 245.635 317.171 246.195 317.171 247.315ZM325.498 241.75C325.661 241.167 326.035 240.875 326.618 240.875C327.201 240.875 327.586 241.458 327.773 242.625H327.913L329.523 242.275C330.27 242.275 330.993 242.975 331.693 244.375H331.833C332.86 242.765 333.91 241.96 334.983 241.96C337.27 242.38 338.413 243.873 338.413 246.44L338.483 247.665L338.168 254.735V255.4C338.168 255.983 337.806 256.322 337.083 256.415C336.36 256.415 335.998 255.563 335.998 253.86L336.418 247.525C336.418 245.192 335.87 244.025 334.773 244.025C334.143 244.025 333.385 245.553 332.498 248.61C332.055 252.11 331.693 253.86 331.413 253.86C331.016 253.86 330.818 253.942 330.818 254.105C330.095 254.012 329.733 253.638 329.733 252.985L330.188 248.75C330.118 245.833 329.826 244.375 329.313 244.375H329.208C328.625 244.818 328.333 245.693 328.333 247V248.855L328.193 254.21C328.03 254.793 327.668 255.085 327.108 255.085C326.618 255.085 326.303 254.677 326.163 253.86L326.023 249.73L326.233 246.335C326.093 244.585 325.848 243.057 325.498 241.75Z" fill="#464646"/>
<path d="M126.06 123.39C126.52 123.39 126.81 123.72 126.93 124.38C124.35 127.38 123.06 131.26 123.06 136.02V136.2C123.06 140.88 124.35 143.86 126.93 145.14C127.81 145.36 128.25 145.73 128.25 146.25C128.25 146.57 127.96 146.85 127.38 147.09C125.64 146.61 124.3 145.67 123.36 144.27C122 142.15 121.32 139.62 121.32 136.68V136.02C121.32 131.36 122.53 127.4 124.95 124.14C125.45 123.64 125.82 123.39 126.06 123.39ZM131.613 142.23C132.033 142.23 132.283 142.57 132.363 143.25C132.243 143.95 131.893 144.3 131.313 144.3C130.913 144.3 130.633 143.95 130.473 143.25C130.713 142.57 131.093 142.23 131.613 142.23ZM137.063 142.23C137.483 142.23 137.733 142.57 137.812 143.25C137.693 143.95 137.343 144.3 136.763 144.3C136.363 144.3 136.083 143.95 135.923 143.25C136.163 142.57 136.543 142.23 137.063 142.23ZM142.422 125.13C143.382 125.49 144.322 126.96 145.242 129.54C145.542 131.08 145.692 132.39 145.692 133.47V133.65C145.692 138.13 144.542 142.01 142.242 145.29L141.762 145.47C141.142 145.33 140.832 145.02 140.832 144.54C142.892 141.28 143.922 137.59 143.922 133.47C143.922 130.45 143.112 128.05 141.492 126.27V125.79C141.792 125.35 142.102 125.13 142.422 125.13ZM161.687 133.83L162.917 133.65C163.417 133.65 163.697 133.96 163.757 134.58C163.757 135.12 163.107 135.47 161.807 135.63C160.987 136.27 160.577 137.09 160.577 138.09V139.08C160.977 141.28 161.657 142.38 162.617 142.38H162.917C163.477 142.38 164.317 141.85 165.437 140.79H165.617C166.017 140.79 166.337 141.07 166.577 141.63C166.297 142.49 165.397 143.27 163.877 143.97C163.597 144.09 163.247 144.15 162.827 144.15C160.767 144.15 159.427 142.53 158.807 139.29V138.63C158.807 136.29 159.767 134.69 161.687 133.83ZM172.89 132.69C174.37 132.69 175.49 133.79 176.25 135.99L176.37 136.62C176.37 138.76 175.37 140.95 173.37 143.19C172.57 143.93 171.76 144.3 170.94 144.3C169.74 144.3 168.89 143.61 168.39 142.23C168.21 141.59 168.12 141.03 168.12 140.55V140.19C168.12 137.03 169.27 134.63 171.57 132.99C171.97 132.79 172.41 132.69 172.89 132.69ZM169.89 140.49C169.89 141.85 170.24 142.53 170.94 142.53C172.4 142.53 173.61 140.66 174.57 136.92V136.35C174.23 135.11 173.6 134.49 172.68 134.49C172.32 134.49 172.14 134.74 172.14 135.24C172.14 135.58 171.74 135.85 170.94 136.05C170.24 137.23 169.89 138.71 169.89 140.49ZM178.179 133.5C178.319 133 178.639 132.75 179.139 132.75C179.639 132.75 179.969 133.25 180.129 134.25H180.249L181.629 133.95C182.269 133.95 182.889 134.55 183.489 135.75H183.609C184.489 134.37 185.389 133.68 186.309 133.68C188.269 134.04 189.249 135.32 189.249 137.52L189.309 138.57L189.039 144.63V145.2C189.039 145.7 188.729 145.99 188.109 146.07C187.489 146.07 187.179 145.34 187.179 143.88L187.539 138.45C187.539 136.45 187.069 135.45 186.129 135.45C185.589 135.45 184.939 136.76 184.179 139.38C183.799 142.38 183.489 143.88 183.249 143.88C182.909 143.88 182.739 143.95 182.739 144.09C182.119 144.01 181.809 143.69 181.809 143.13L182.199 139.5C182.139 137 181.889 135.75 181.449 135.75H181.359C180.859 136.13 180.609 136.88 180.609 138V139.59L180.489 144.18C180.349 144.68 180.039 144.93 179.559 144.93C179.139 144.93 178.869 144.58 178.749 143.88L178.629 140.34L178.809 137.43C178.689 135.93 178.479 134.62 178.179 133.5ZM194.66 135.09C196.78 135.09 198.03 136.42 198.41 139.08C198.41 141.44 197.31 143.13 195.11 144.15C194.87 144.27 194.54 144.33 194.12 144.33H193.91L193.25 144.27V144.33L193.37 152.34C193.23 152.96 192.91 153.27 192.41 153.27C191.85 153.09 191.57 152.8 191.57 152.4L191.3 136.08C191.3 135.56 191.61 135.29 192.23 135.27L192.86 135.54C193.42 135.24 194.02 135.09 194.66 135.09ZM193.16 138.27L193.07 139.2L193.16 142.38L194 142.59C195.34 142.59 196.21 141.61 196.61 139.65V139.2C196.47 137.62 195.91 136.83 194.93 136.83H194.48C193.6 136.83 193.16 137.31 193.16 138.27ZM204.618 132.69C206.098 132.69 207.218 133.79 207.978 135.99L208.098 136.62C208.098 138.76 207.098 140.95 205.098 143.19C204.298 143.93 203.488 144.3 202.668 144.3C201.468 144.3 200.618 143.61 200.118 142.23C199.938 141.59 199.848 141.03 199.848 140.55V140.19C199.848 137.03 200.998 134.63 203.298 132.99C203.698 132.79 204.138 132.69 204.618 132.69ZM201.618 140.49C201.618 141.85 201.968 142.53 202.668 142.53C204.128 142.53 205.338 140.66 206.298 136.92V136.35C205.958 135.11 205.328 134.49 204.408 134.49C204.048 134.49 203.868 134.74 203.868 135.24C203.868 135.58 203.468 135.85 202.668 136.05C201.968 137.23 201.618 138.71 201.618 140.49ZM213.327 133.89C215.027 134.03 215.877 134.86 215.877 136.38L215.937 136.77L215.877 141.45C215.877 141.99 216.187 142.72 216.807 143.64V143.7C216.647 144.28 216.357 144.57 215.937 144.57C214.697 144.05 214.077 142.95 214.077 141.27V140.88L213.987 140.82L214.077 140.7V140.64L214.167 136.5C214.167 135.92 213.917 135.63 213.417 135.63H213.057C212.057 136.03 211.557 138.22 211.557 142.2C211.557 143.58 211.207 144.27 210.507 144.27C209.967 144.27 209.687 143.93 209.667 143.25V140.25C209.667 136.37 210.007 134.43 210.687 134.43L210.987 134.34L211.617 134.43C212.157 134.07 212.727 133.89 213.327 133.89ZM220.448 133.23C221.248 133.25 222.598 134.65 224.498 137.43L224.558 137.94C224.558 138.5 223.188 138.93 220.448 139.23L220.358 139.32V139.44C220.778 141.24 221.218 142.14 221.678 142.14H222.038C222.678 142.14 223.648 141.45 224.948 140.07H225.128C225.528 140.07 225.838 140.36 226.058 140.94C226.058 141.42 225.218 142.25 223.538 143.43C223.098 143.69 222.568 143.88 221.948 144C220.328 144 219.198 142.48 218.558 139.44C217.638 139.3 217.178 138.92 217.178 138.3C217.178 137.86 217.518 137.57 218.198 137.43V137.55L218.498 137.43V136.68C218.498 134.38 219.148 133.23 220.448 133.23ZM220.628 135.39H220.358L220.238 136.5V137.43H220.358C221.478 137.39 222.038 137.27 222.038 137.07C221.518 136.29 221.048 135.73 220.628 135.39ZM231.111 133.89C232.811 134.03 233.661 134.86 233.661 136.38L233.721 136.77L233.661 141.45C233.661 141.99 233.971 142.72 234.591 143.64V143.7C234.431 144.28 234.141 144.57 233.721 144.57C232.481 144.05 231.861 142.95 231.861 141.27V140.88L231.771 140.82L231.861 140.7V140.64L231.951 136.5C231.951 135.92 231.701 135.63 231.201 135.63H230.841C229.841 136.03 229.341 138.22 229.341 142.2C229.341 143.58 228.991 144.27 228.291 144.27C227.751 144.27 227.471 143.93 227.451 143.25V140.25C227.451 136.37 227.791 134.43 228.471 134.43L228.771 134.34L229.401 134.43C229.941 134.07 230.511 133.89 231.111 133.89ZM239.071 125.79C239.631 125.91 239.911 126.19 239.911 126.63L239.731 127.95V128.34C239.731 129.22 239.831 130.15 240.031 131.13H240.091C242.411 130.43 243.851 130.08 244.411 130.08C244.991 130.24 245.281 130.53 245.281 130.95C245.281 131.63 244.591 131.97 243.211 131.97L240.091 133.08C240.091 135.78 240.381 139.45 240.961 144.09C240.841 144.63 240.551 144.9 240.091 144.9H240.031C239.331 144.9 238.981 144 238.981 142.2C238.721 140.86 238.501 137.95 238.321 133.47H237.781C235.901 133.35 234.961 132.91 234.961 132.15C234.961 131.93 235.171 131.66 235.591 131.34H235.891L237.271 131.7H238.231L237.961 127.95C237.961 126.51 238.331 125.79 239.071 125.79ZM252.225 131.85C252.765 131.85 253.135 132.76 253.335 134.58C253.135 135.08 252.805 135.33 252.345 135.33C252.025 135.27 251.705 134.9 251.385 134.22L250.845 134.04C249.905 134.04 249.055 134.66 248.295 135.9V136.17C248.295 136.47 249.705 136.97 252.525 137.67C253.705 138.37 254.295 139.22 254.295 140.22C254.295 141.86 252.975 143.26 250.335 144.42L249.225 144.6C247.545 144.42 246.705 143.58 246.705 142.08V141.99C246.705 141.51 247.015 141.23 247.635 141.15C248.115 141.15 248.435 141.65 248.595 142.65L248.835 142.83H249.345C250.485 142.83 251.545 142.05 252.525 140.49V140.1C252.525 139.5 251.215 138.94 248.595 138.42C247.215 137.86 246.525 137.08 246.525 136.08C246.525 134.78 247.615 133.56 249.795 132.42C250.755 132.3 251.565 132.11 252.225 131.85Z" fill="#5C55A3"/>
<path d="M270.499 152.182C276.104 152.425 276.801 146.117 276.815 143.914C276.856 137.384 279.417 122.806 276.88 117.314C274.159 111.419 249.636 112.51 239.177 112.321C207.739 111.751 177.603 112.196 144.125 112.188C135.829 112.186 127.185 111.688 119.004 112.322C110.772 112.96 108.144 115.547 107.286 119.316C106.649 122.112 106.239 136.853 106.048 141.407C105.956 143.599 105.728 149.171 108.448 150.887C112.424 153.396 122.788 152.976 127.231 152.971C137.029 152.959 240.892 152.871 267.365 152.167" stroke="#464646" stroke-width="2" stroke-miterlimit="1.5" stroke-linecap="round" stroke-linejoin="round"/>
<path d="M55.8908 275C55.8908 277.566 55 280.087 55 282.571C55 285.389 55.8908 288.124 55.8908 290.883C55.8908 293.431 56.1365 291.456 55.8908 294" stroke="#464646" stroke-width="2" stroke-linecap="round"/>
<path d="M49 294.25C50.1968 294.25 51.4642 294.161 52.6761 294.363C53.2606 294.461 53.8805 294.401 54.4702 294.401C55.5793 294.401 56.6729 294.421 57.7741 294.401C58.3706 294.39 58.963 294.476 59.5641 294.476C59.7854 294.476 60.0671 294.5 60.2667 294.593C60.6832 294.788 61.1893 294.781 61.5882 294.999C61.6617 295.039 61.4048 295.204 61.3749 295.246C61.0297 295.724 60.5751 296.15 60.1705 296.58C59.7026 297.076 59.1166 297.449 58.6106 297.906C58.2502 298.23 57.9618 298.631 57.6403 298.993C56.8716 299.858 55.9456 300.554 55.131 301.368C54.9398 301.56 54.7439 301.723 54.533 301.887C54.3371 302.039 52.9497 300.419 52.7723 300.172C52.0143 299.12 51.6168 297.835 50.8067 296.793C50.5337 296.442 50.2998 296.014 49.9953 295.697C49.8447 295.541 49.7332 295.298 49.5269 295.229" stroke="#464646" stroke-width="2" stroke-linecap="round"/>
<path d="M322.711 275C322.711 277.566 323.601 280.087 323.601 282.571C323.601 285.389 322.711 288.124 322.711 290.883C322.711 293.431 322.465 291.456 322.711 294" stroke="#464646" stroke-width="2" stroke-linecap="round"/>
<path d="M329.601 294.25C328.405 294.25 327.137 294.161 325.925 294.363C325.341 294.461 324.721 294.401 324.131 294.401C323.022 294.401 321.929 294.421 320.827 294.401C320.231 294.39 319.638 294.476 319.037 294.476C318.816 294.476 318.534 294.5 318.335 294.593C317.918 294.788 317.412 294.781 317.013 294.999C316.94 295.039 317.197 295.204 317.226 295.246C317.572 295.724 318.026 296.15 318.431 296.58C318.899 297.076 319.485 297.449 319.991 297.906C320.351 298.23 320.64 298.631 320.961 298.993C321.73 299.858 322.656 300.554 323.47 301.368C323.662 301.56 323.858 301.723 324.068 301.887C324.264 302.039 325.652 300.419 325.829 300.172C326.587 299.12 326.985 297.835 327.795 296.793C328.068 296.442 328.302 296.014 328.606 295.697C328.757 295.541 328.868 295.298 329.074 295.229" stroke="#464646" stroke-width="2" stroke-linecap="round"/>
<path d="M56 185.472C57.4747 184.775 59.4119 184.347 61.349 184.347C66.6762 184.347 75.4277 183.76 80.7295 184.113C90.8954 184.79 101.016 186.236 111.232 186.236C136.262 186.236 161.301 187 186.383 187C215.126 187 243.83 186.236 272.503 186.236C282.056 186.236 291.471 185.472 301.082 185.472C303.102 185.472 319.792 184.105 321 186.236" stroke="#464646" stroke-width="2" stroke-linecap="round"/>
<path d="M56.0976 185C55.5976 186.5 57.181 196.772 57.181 198.727C57.181 201.631 57.3121 210.416 57.181 210.35" stroke="#464646" stroke-width="2" stroke-linecap="round"/>
<path d="M321.098 185C320.598 186.5 322.181 196.772 322.181 198.727C322.181 201.631 322.312 210.416 322.181 210.35" stroke="#464646" stroke-width="2" stroke-linecap="round"/>
<path d="M187.098 162C186.598 163.5 188.181 173.772 188.181 175.727C188.181 178.631 188.312 187.416 188.181 187.35" stroke="#464646" stroke-width="2" stroke-linecap="round"/>
<defs>
<linearGradient id="paint0_linear_6_251" x1="192.5" y1="1" x2="192.5" y2="161" gradientUnits="userSpaceOnUse">
<stop stop-color="#5C55A3"/>
<stop offset="1" stop-color="#5C55A3" stop-opacity="0"/>
</linearGradient>
</defs>
</svg>
