<svg width="882" height="344" viewBox="0 0 882 344" fill="none" xmlns="http://www.w3.org/2000/svg">
<path d="M99.5006 104.5C97.0919 116.717 97.2732 129.216 95.4873 141.498C93.6064 154.434 93.991 167.568 92.3416 180.48C90.471 195.123 90.1445 209.864 88.4652 224.496C86.9576 237.631 86.3876 250.795 86.5154 264C86.5518 267.758 89.3393 270.183 92.9935 269.464C99.4439 268.195 105.932 267.298 112.498 267.563C115.637 267.69 116.702 266.447 117.046 263.505C118.431 251.677 119.432 239.769 121.239 228.037C123.341 214.39 123.954 200.629 125.891 186.984C128.344 169.715 129.988 152.332 132.005 135.001C133.248 124.323 134.538 113.65 135.849 102.618C141.529 102.157 147.451 103.479 152.501 100" stroke="#2D2D2D" stroke-linecap="round" stroke-linejoin="round"/>
<path d="M613.5 1.5C612.1 2.28158 610.614 2.50475 609.001 2.52868C592.062 2.77993 576.252 7.56152 561.551 15.5934C545.25 24.4998 530.146 35.185 518.024 49.5197C508.892 60.3173 501.058 71.9883 496.559 85.5194C493.242 95.4947 489.078 105.169 488.204 115.976C487.821 120.715 487.675 125.717 485.892 130.642C484.456 134.608 486.417 139.846 487.101 144.485C487.191 145.096 487.554 145.835 487.477 146.497C486.386 155.861 490.368 164.232 492.307 173.043C494.376 182.445 499.368 190.391 503.043 198.982C507.599 209.63 515.51 217.91 522.948 226.545C529.166 233.763 537.066 238.819 544.5 244.5" stroke="#2D2D2D" stroke-width="2" stroke-linecap="round" stroke-linejoin="round"/>
<path d="M655 114C640.167 122.833 625.384 131.754 610.45 140.414C607.965 141.855 606.917 142.774 607.361 146.019C608.948 157.638 610.134 158.781 620.989 155.464C638.893 149.993 656.623 143.95 673.946 136.867C680.942 134.007 687.212 129.418 694.038 126.076C699.87 123.22 704.462 118.444 710.5 116" stroke="#2D2D2D" stroke-linecap="round" stroke-linejoin="round"/>
<path d="M278.5 158C278.124 163.482 280.223 167.25 285.455 169.599C289.009 171.195 292.828 172.883 294.509 176.996C295.664 179.82 298.903 178.983 299.858 178.301C302.326 176.54 304.611 176.796 306.987 177.542C312.195 179.176 317.308 178.135 322.504 177.541C336.991 175.885 351.512 177.23 365.992 177.728C370.246 177.874 374.691 178.285 379.5 178.56C379.5 189.995 379.5 200.997 379.5 212C379.5 216 379.784 220.029 379.384 223.988C379.173 226.077 380.782 226.034 381.5 227" stroke="#2D2D2D" stroke-width="2" stroke-linecap="round" stroke-linejoin="round"/>
<path d="M149.5 88.5C147.728 89.3434 145.839 88.9855 144 88.9862C102 89.0041 60 88.9898 18 89.0215C14.9999 89.0238 11.997 89.2925 9.00076 89.5104C5.32206 89.7781 3.5946 91.4206 3.41517 95.4963C1.28035 143.989 3.10938 192.502 2.52131 241C2.48631 243.886 2.31894 246.724 1.5 249.5" stroke="#2D2D2D" stroke-width="2" stroke-linecap="round" stroke-linejoin="round"/>
<path d="M515.5 283C510.833 283.333 506.171 283.849 501.499 283.964C490.169 284.242 478.831 284.239 467.501 284.521C447.496 285.019 427.533 286.879 407.501 286.472C404.552 286.412 403.236 288.003 402.5 290.5" stroke="#2D2D2D" stroke-linecap="round" stroke-linejoin="round"/>
<path d="M387.5 315.5C381.227 316.881 375.124 319.211 368.497 318.532C364.845 318.157 362.593 321.473 359.038 322.19C339.621 326.106 320.262 330.336 300.954 334.802C292.706 336.71 283.906 337.438 276.141 340.373C267.485 343.645 258.89 341.067 250.5 343" stroke="#2D2D2D" stroke-width="2" stroke-linecap="round" stroke-linejoin="round"/>
<path d="M206.5 136.5C212.333 139.5 218.134 142.567 224.011 145.478C228.511 147.708 233.119 149.645 237.969 151.102C241.076 152.035 241.476 156.76 238.972 160.983C235.804 166.327 234.219 172.286 231.994 177.998C230.691 181.343 229.181 184.615 228.034 188.012C226.142 193.621 222.749 197.659 216.508 199.459C206.446 194.442 195.863 189.427 185.535 183.935C177.291 179.551 165.237 185.626 162.504 193.001C158.49 203.83 154.844 214.816 150.245 225.389C149.169 227.863 149.877 230.37 148.5 232.5" stroke="#2D2D2D" stroke-width="2" stroke-linecap="round" stroke-linejoin="round"/>
<path d="M832 214.5C827.187 218.908 825.496 225.264 822.122 230.577C818.533 236.23 815.672 242.349 812.278 248.162C809.189 253.452 808.072 259.934 805.043 265.523C799.326 276.074 793.498 286.57 788.412 297.459C787.482 299.45 786.519 301.369 786 303.5" stroke="#2D2D2D" stroke-width="2" stroke-linecap="round" stroke-linejoin="round"/>
<path d="M682 42C691.79 49.1323 702.416 55.084 710.61 64.403C716.183 70.7405 721.394 77.3275 726.403 84.0718C728.174 86.4562 728.896 89.6428 729.988 92.5047C732.808 99.8961 735.738 107.281 737.38 115.025C737.95 117.716 738.101 120.816 736.5 123.5" stroke="#2D2D2D" stroke-linecap="round" stroke-linejoin="round"/>
<path d="M751 163C747.851 175.188 744.049 187.087 737.567 198.039C733.69 204.588 729.388 210.82 724.946 216.961C722.888 219.807 720.058 221.159 716.489 219.019C712.458 216.603 707.881 217.025 704.072 218.668C697.724 221.407 690.74 221.601 684.446 224.377C683.38 224.847 682.199 225.055 681.52 226.014C677.466 231.742 671.865 236.062 667.505 241.504C665.866 243.551 664.651 245.512 664.299 248.476C663.624 254.143 662.903 259.802 662.5 265.5" stroke="#2D2D2D" stroke-width="2" stroke-linecap="round" stroke-linejoin="round"/>
<path d="M213.5 203.5C214.155 204.69 214.361 205.817 216.542 205.133C220.192 203.986 221.309 205.411 219.979 208.992C216.877 217.35 213.7 225.68 210.485 233.994C208.961 237.935 207.059 241.655 206.368 245.979C205.564 251.013 196.829 254.242 191.984 252.035C181.602 247.303 171.663 241.631 161.004 237.489C157.792 236.24 155.283 236.735 151.87 238.195C145.678 240.844 142.392 244.762 140.378 250.96C137.888 258.626 134.342 265.943 131.614 273.541C130.956 275.375 129.642 276.474 128.515 276.358C125.194 276.016 122.266 277.604 118.999 277.577C99.834 277.42 80.6599 277.813 61.5022 277.397C47.3242 277.089 33.1525 276.005 19.0135 274.837C16.5544 274.634 14.0364 274.06 11.5 274" stroke="#2D2D2D" stroke-width="2" stroke-linecap="round" stroke-linejoin="round"/>
<path d="M714.499 117C710.504 91.0782 695.539 72.4974 675.081 57.3896C671.556 54.787 667.612 53.2528 663.926 51.1273C662.721 50.4323 660.409 48.7698 659.225 52.3837C662.972 58.6806 665.845 66.5671 672.466 72.0399C673.534 72.9226 674.166 74.3334 674.999 75.5" stroke="#2D2D2D" stroke-linecap="round" stroke-linejoin="round"/>
<path d="M374 237C371.814 246.212 370.277 255.536 370.049 265.001C369.825 274.329 370 283.667 370 293.348C359.388 294.534 348.654 294.107 337.987 294.807C329.216 295.383 320.349 296.347 311.492 295.055C308.158 294.568 305.688 297.564 302.5 298" stroke="#2D2D2D" stroke-width="2" stroke-linecap="round" stroke-linejoin="round"/>
<path d="M383.5 330C389.565 333.905 396.141 331.445 402.5 331.475C419 331.55 435.502 331.667 451.999 331.433C461.004 331.306 469.997 330.444 479.001 330.02C484.829 329.746 490.689 329.257 496.496 329.579C512.459 330.462 514.607 323.388 517.823 312.448C518.355 310.641 519.346 308.613 519 306.5" stroke="#2D2D2D" stroke-width="2" stroke-linecap="round" stroke-linejoin="round"/>
<path d="M677.5 244.5C677.791 249.645 673.126 252.299 671.448 256.479C670.398 259.093 669.05 261.648 667.458 263.971C663.542 269.681 666.578 275.674 666.662 281.498C666.692 283.57 667.023 285.927 667.619 287.966C668.567 291.214 669.494 294.222 672.829 296.728C678.595 301.059 684.299 305.551 690.059 309.923C692.871 312.058 696.556 312.582 699.959 313.633C705.333 315.294 710.676 314.196 716.004 314.31C717.314 314.338 719.636 313.454 720.5 311.5" stroke="#2D2D2D" stroke-width="2" stroke-linecap="round" stroke-linejoin="round"/>
<path d="M283.249 227C280.287 224.762 280.287 224.762 276.383 228.099C277.438 231.962 279.752 234.127 283.996 233.48C287.558 232.936 290.127 235.302 292.957 236.593C301.905 240.674 310.595 245.322 319.543 249.404C322.17 250.602 323.826 252.436 325.503 254.497C326.862 256.168 325.719 257.087 324.499 258" stroke="#2D2D2D" stroke-width="2" stroke-linecap="round" stroke-linejoin="round"/>
<path d="M753.5 244.5C748.503 249.659 748.098 256.624 746.708 263.045C746.147 265.636 744.578 267.762 744.325 270.484C744.172 272.136 741.973 272.562 740 272.558C731.166 272.538 722.32 272.115 713.282 273.147C713.181 271.845 712.608 270.414 713.076 269.541C717.067 262.088 721.25 254.745 723.55 246.514C723.887 245.311 725.472 245.444 726.5 245" stroke="#2D2D2D" stroke-linecap="round" stroke-linejoin="round"/>
<path d="M278.501 215.5C274.963 217.214 271.796 216.076 268.479 214.547C260.212 210.737 251.727 207.384 243.558 203.383C240.653 201.96 236.185 203.549 234.66 198.605C234.344 197.578 229.692 198.506 227.56 200.08C226.377 200.954 224.387 201.766 225.002 204C225.707 206.564 227.786 208.594 229.983 208.341C237.543 207.472 242.745 212.665 248.957 215.112C254.828 217.425 260.314 220.707 266.007 223.487C270.183 225.525 278.931 221.533 279.401 216.99C280.201 209.243 284.567 202.808 286.594 195.526C287.747 191.383 290.084 187.579 291.385 183.464C291.957 181.654 292.71 180.246 294.001 179" stroke="#2D2D2D" stroke-width="2" stroke-linecap="round" stroke-linejoin="round"/>
<path d="M677.001 77.5C676.041 82.6983 678.722 86.9844 680.494 91.5025C681.264 93.4649 681.965 95.4544 682.775 97.6429C686.153 95.5787 689.73 93.5883 693.08 91.1069C694.795 89.8362 697.841 88.6828 699.405 91.063C703.943 97.9701 709.08 104.706 709.501 113.5" stroke="#2D2D2D" stroke-linecap="round" stroke-linejoin="round"/>
<path d="M444.5 221.5C443.667 221.667 442.835 221.969 442 221.98C426.5 222.174 411 222.401 395.5 222.45C391.812 222.462 388.129 221.786 384.491 222.974C383.647 223.249 383.097 223.597 383 224.5" stroke="#2D2D2D" stroke-width="2" stroke-linecap="round" stroke-linejoin="round"/>
<path d="M233.5 213C240.068 217.018 246.899 220.48 253.956 223.6C259.282 225.955 264.072 229.406 269.98 230.599C272.701 231.148 272.846 233.721 271.974 235.99C269.211 243.184 266.585 250.449 263.37 257.44C262.166 260.06 260.431 263.186 256.499 263.024C256.173 263.01 255.778 263.271 255.508 263.509C247.294 270.749 240.345 264.592 232.974 261.563C227.621 259.364 222.769 255.525 216.5 256" stroke="#2D2D2D" stroke-width="2" stroke-linecap="round" stroke-linejoin="round"/>
<path d="M701 68.5C700.423 71.3368 701.981 73.3746 703.48 75.5136C708.813 83.1196 714.78 90.2715 717.652 99.4522C718.979 103.692 720.522 107.536 719.063 112.021C718.508 113.727 718.666 115.667 718.5 117.5" stroke="#2D2D2D" stroke-linecap="round" stroke-linejoin="round"/>
<path d="M329 133.5C332.097 140.231 332.547 147.352 331.426 154.488C330.191 162.35 324.691 167.682 318.857 172.32C317.253 173.596 317.065 174.49 317 176" stroke="#2D2D2D" stroke-width="2" stroke-linecap="round" stroke-linejoin="round"/>
<path d="M162.5 228C163 228.833 163.378 230.28 164.018 230.407C172.718 232.135 180.184 236.685 188.076 240.337C191.547 241.943 195.653 242.657 198.899 244.664C201.563 246.311 203.333 244.112 205.5 244.5" stroke="#2D2D2D" stroke-width="2" stroke-linecap="round" stroke-linejoin="round"/>
<path d="M184 174C184.171 175.031 184.066 176.232 185.5 176.499C194.733 178.219 202.369 183.889 211.055 186.837C215.683 188.408 219.485 192.64 225 191.5" stroke="#2D2D2D" stroke-width="2" stroke-linecap="round" stroke-linejoin="round"/>
<path d="M722.5 246.5C716 247.333 709.512 248.294 702.992 248.921C701.097 249.103 699.565 249.539 698.521 251.015C694.304 256.979 690.167 263 686 269" stroke="#2D2D2D" stroke-linecap="round" stroke-linejoin="round"/>
<path d="M162.5 89C167.167 89 171.833 88.9959 176.5 89.0011C182.158 89.0072 182.701 90.4768 183.647 96.9787C185.249 108.002 183.573 119.046 184.642 129.986C185.377 137.511 181.9 143.475 179.597 150.034C176.261 159.533 170.885 168.316 169.5 178.5" stroke="#2D2D2D" stroke-width="2" stroke-linecap="round" stroke-linejoin="round"/>
<path d="M231 212.5C229 218.833 227.467 225.368 224.856 231.438C222.655 236.557 220.299 241.791 219.294 247.056C218.026 253.702 213.285 253.419 208.976 254.396C207.22 254.794 205.292 254.241 204.5 256.5" stroke="#2D2D2D" stroke-width="2" stroke-linecap="round" stroke-linejoin="round"/>
<path d="M706.5 32.5C713.559 38.1536 719.909 44.3641 725.12 51.9173C730.85 60.2223 735.564 69.0134 739.981 78.0095C743.637 85.4574 746.815 93.0699 747.594 101.491C747.695 102.592 748.194 104.742 750.5 103.75" stroke="#2D2D2D" stroke-linecap="round" stroke-linejoin="round"/>
<path d="M157 241.5C156.438 247.578 153.255 252.807 151.441 258.481C149.035 266.009 144.884 272.961 144 281" stroke="#2D2D2D" stroke-width="2" stroke-linecap="round" stroke-linejoin="round"/>
<path d="M302.5 185.5C301.862 191.709 298.567 197.072 296.909 202.975C295.146 209.254 292.511 215.286 290.605 221.532C290.102 223.179 288.961 223.294 288 224" stroke="#2D2D2D" stroke-width="2" stroke-linecap="round" stroke-linejoin="round"/>
<path d="M323.5 258.5C320 267.5 316.379 276.456 313.047 285.517C311.185 290.583 305.947 290.764 302.5 293.5" stroke="#2D2D2D" stroke-width="2" stroke-linecap="round" stroke-linejoin="round"/>
<path d="M287 225.5C288.433 226.751 289.463 227.843 292.01 227.734C296.394 227.546 299.988 230.881 304.022 232.442C310.864 235.089 317.424 238.393 324.445 240.669C327.502 241.659 328.469 241.028 329.524 238.51C332.96 230.316 336.663 222.232 339.949 213.98C342.599 207.323 339.448 203.505 333.157 199.738C326.121 195.524 318.073 193.413 311.54 188.448C309.944 187.235 307.385 187.802 306.5 185.5" stroke="#2D2D2D" stroke-width="2" stroke-linecap="round" stroke-linejoin="round"/>
<path d="M380 234C376.016 240.087 376.146 247.229 375.079 254.012C374.068 260.442 374.167 266.983 374.458 273.502C374.529 275.089 374.822 276.359 375.977 277.522C377.869 279.426 379.01 281.616 379.062 284.499C379.158 289.837 380.62 295.107 380 300.5" stroke="#2D2D2D" stroke-linecap="round" stroke-linejoin="round"/>
<path d="M179.5 188C175.493 192.411 174.823 198.335 172.579 203.534C169.909 209.722 167.931 216.206 165.418 222.467C164.911 223.732 165.266 224.848 165 226" stroke="#2D2D2D" stroke-width="2" stroke-linecap="round" stroke-linejoin="round"/>
<path d="M506.5 222.5C506 222 505.402 220.998 505.015 221.074C497.526 222.54 490.006 220.844 482.492 221.387C476.867 221.793 471.167 221.167 465.5 221" stroke="#2D2D2D" stroke-width="2" stroke-linecap="round" stroke-linejoin="round"/>
<path d="M141 283.5C141.123 287.073 144.491 285.846 146.058 286.302C154.254 288.689 161.359 293.536 169.444 296.17C172.186 297.064 174.485 298.228 177.523 297.612C179.395 297.232 181.573 296.982 183.491 298.016C183.561 298.054 183.532 298.342 183.491 298.498C183.445 298.674 183.333 298.833 183.25 299" stroke="#2D2D2D" stroke-width="2" stroke-linecap="round" stroke-linejoin="round"/>
<path d="M749 108C751.07 111.399 752.873 114.794 753.058 118.997C753.634 132.076 755.083 145.156 751.122 158.037C750.751 159.243 749.602 161.799 752.5 162.5" stroke="#2D2D2D" stroke-width="2" stroke-linecap="round" stroke-linejoin="round"/>
<path d="M251 161C247.667 170.333 244.467 179.718 240.916 188.968C239.898 191.62 239.127 194.198 239 197" stroke="#2D2D2D" stroke-width="2" stroke-linecap="round" stroke-linejoin="round"/>
<path d="M283 238.5C281.743 246.017 277.84 252.667 275.948 259.987C275.336 262.354 273.576 263.176 270.984 262.566C268.895 262.074 266.667 262.167 264.5 262" stroke="#2D2D2D" stroke-width="2" stroke-linecap="round" stroke-linejoin="round"/>
<path d="M286.5 238.5C296.721 245.441 307.584 251.056 319.5 254.5" stroke="#2D2D2D" stroke-width="2" stroke-linecap="round" stroke-linejoin="round"/>
<path d="M161.5 242.5C168.74 247.317 176.576 251.034 184.548 254.385C187.35 255.563 189.305 257.882 192.418 258.783C194.514 259.389 195.833 259.075 197.5 258.5" stroke="#2D2D2D" stroke-width="2" stroke-linecap="round" stroke-linejoin="round"/>
<path d="M598.5 266.5C612.128 268.421 625.762 270.092 639.5 267.5" stroke="#2D2D2D" stroke-width="2" stroke-linecap="round" stroke-linejoin="round"/>
<path d="M197.501 139.5C193.667 149.5 189.817 159.493 186.037 169.514C185.762 170.243 186.001 171.167 186.001 172" stroke="#2D2D2D" stroke-width="2" stroke-linecap="round" stroke-linejoin="round"/>
<path d="M397 262.5C397.065 268.847 396.205 275.184 397.855 281.538C398.49 283.983 398.175 286.797 397.12 289.546C395.235 294.457 396.691 299.815 395.826 305.054C394.821 311.143 394.032 317.027 391.07 322.538C390.124 324.298 390 326.5 389.5 328.5" stroke="#2D2D2D" stroke-width="2" stroke-linecap="round" stroke-linejoin="round"/>
<path d="M255 158.5C256.894 163.274 261.963 164.275 265.648 166.219C272.22 169.688 279.009 172.808 285.522 176.461C287.291 177.452 289.313 177.78 291 176" stroke="#2D2D2D" stroke-width="2" stroke-linecap="round" stroke-linejoin="round"/>
<path d="M277 263.5C280.167 265.833 283.402 268.079 286.486 270.518C293.333 275.932 298.235 282.6 299.5 291.5" stroke="#2D2D2D" stroke-width="2" stroke-linecap="round" stroke-linejoin="round"/>
<path d="M182 186.5C184.36 190.963 189.189 192.465 193.126 194.218C198.067 196.418 203.131 198.31 207.431 201.59C209.117 202.877 211.235 201.162 212.5 203" stroke="#2D2D2D" stroke-width="2" stroke-linecap="round" stroke-linejoin="round"/>
<path d="M138 282.5C138.01 284.674 138.261 286.988 135 287.007C133.019 287.019 132.464 288.764 131.221 290.019C137.873 294.159 144.825 297.082 152.016 299.449C152.894 299.738 154.209 300.361 154.37 300.591C156.921 304.211 160.739 304.797 164.489 304.399C170.487 303.762 177.045 304.919 182 300" stroke="#2D2D2D" stroke-width="2" stroke-linecap="round" stroke-linejoin="round"/>
<path d="M325 144C320.178 149.399 313.721 151.705 306.995 153.478C306.371 153.642 305.57 153.289 305.019 153.541C303.535 154.219 302.386 155.936 300.463 154.038C298.435 152.036 300.168 150.333 300.5 148.5" stroke="#2D2D2D" stroke-linecap="round" stroke-linejoin="round"/>
<path d="M852.5 245.5C856.667 251.037 859.341 257.441 862.287 263.602C863.687 266.53 865.408 269.448 866.855 272.321C867.696 273.991 867.172 276.331 869 277.5" stroke="#2D2D2D" stroke-width="2" stroke-linecap="round" stroke-linejoin="round"/>
<path d="M127.5 98.5C117.833 99.3333 108.167 100.167 98.5 101" stroke="#2D2D2D" stroke-linecap="round" stroke-linejoin="round"/>
<path d="M544.5 105.5C546.43 99.1164 547.533 92.3339 553.463 87.9502C554.283 87.3441 554.707 85.8201 555.974 86.5447C558.526 88.003 560.271 85.4302 562.501 85.4678C564.024 87.8096 562.491 89.6922 561.465 91.4797C557.183 98.9365 553.542 106.511 555.5 115.5" stroke="#2D2D2D" stroke-linecap="round" stroke-linejoin="round"/>
<path d="M637.5 67.5C633.494 63.0135 628.171 61.8098 622.498 61.5254C622.008 61.5008 621.468 62.0402 621.004 61.9688C614.618 60.9851 614.614 60.9689 613.511 67.0022C613.423 67.486 613.5 68 613.5 68.5" stroke="#2D2D2D" stroke-linecap="round" stroke-linejoin="round"/>
<path d="M242.5 297.5C241.5 301.383 241.835 303.313 244.512 307.492C247.747 312.543 251.03 317.558 257.49 319.045C258.232 319.215 258.833 320 259.5 320.5" stroke="#2D2D2D" stroke-width="2" stroke-linecap="round" stroke-linejoin="round"/>
<path d="M205.5 259.5C205.748 261.085 206.889 262.679 208.021 262.88C215.291 264.169 220.939 269.259 227.977 271.087C230.668 271.787 233.569 272.599 235.5 275" stroke="#2D2D2D" stroke-width="2" stroke-linecap="round" stroke-linejoin="round"/>
<path d="M307.5 144.5C307.167 142.167 307.007 139.791 306.45 137.512C305.918 135.334 305.389 132.922 301.822 132.281C301.945 137.681 299.35 142.599 300.161 148.783C304.979 146.513 309.24 144.507 313.5 142.5" stroke="#2D2D2D" stroke-linecap="round" stroke-linejoin="round"/>
<path d="M125.5 93C131.383 94.7002 137.305 96.1436 143.5 96.0082C146.965 95.9325 150.225 95.8334 152.678 99.3765C153.57 100.664 156.5 100.418 158.5 99.5" stroke="#2D2D2D" stroke-linecap="round" stroke-linejoin="round"/>
<path d="M492.5 147.5C495.034 155.982 496.238 164.668 496.5 173.5" stroke="#2D2D2D" stroke-linecap="round" stroke-linejoin="round"/>
<path d="M759 271.5C757.788 277.324 754.255 282.695 755.517 288.997C755.868 290.754 753.919 291.346 753.496 291.358C750.017 291.457 749.729 294.395 748.5 296.5" stroke="#2D2D2D" stroke-width="2" stroke-linecap="round" stroke-linejoin="round"/>
<path d="M61.5 95C60 95.1667 58.4974 95.3134 57.0009 95.507C55.9962 95.637 54.2972 95.5566 54.1061 96.0418C51.496 102.67 45.996 99.6957 41.5 100" stroke="#2D2D2D" stroke-linecap="round" stroke-linejoin="round"/>
<path d="M742 303C738.304 310.853 730.47 311.415 723.5 313.5" stroke="#2D2D2D" stroke-width="2" stroke-linecap="round" stroke-linejoin="round"/>
<path d="M677 250.5C679.797 252.011 678.523 254.939 678.805 257.026C679.415 261.543 682.958 265.611 681 270.5" stroke="#2D2D2D" stroke-linecap="round" stroke-linejoin="round"/>
<path d="M240.5 316C243.323 320.34 248.104 321.249 252.534 322.364C254.984 322.981 258.144 323.908 260.076 320.544C260.529 319.755 261.873 319.803 262.5 321" stroke="#2D2D2D" stroke-width="2" stroke-linecap="round" stroke-linejoin="round"/>
<path d="M850 285.5C848.634 290.239 851.898 293.637 853.528 297.488C854.499 299.782 857.089 301.48 856 304.5" stroke="#2D2D2D" stroke-linecap="round" stroke-linejoin="round"/>
<path d="M645.5 3C639.167 2.66667 632.833 2.33333 626.5 2" stroke="#2D2D2D" stroke-width="2" stroke-linecap="round" stroke-linejoin="round"/>
<path d="M106.5 96C99.9969 93.6976 93.2472 93.7182 86.5017 94.0365C82.4522 94.2275 80.0896 96.706 79 100.5" stroke="#2D2D2D" stroke-linecap="round" stroke-linejoin="round"/>
<path d="M443.5 267.5C437.523 268.505 431.499 267.786 425.5 268" stroke="#2D2D2D" stroke-linecap="round" stroke-linejoin="round"/>
<path d="M472.5 266.5C466.526 267.59 460.497 266.72 454.5 267" stroke="#2D2D2D" stroke-linecap="round" stroke-linejoin="round"/>
<path d="M854 273C858.167 279.167 862.508 285.225 866.407 291.557C867.805 293.829 870.079 296.272 868.5 299.5" stroke="#2D2D2D" stroke-linecap="round" stroke-linejoin="round"/>
<path d="M493 108.5C491.127 114.046 492.69 119.894 491.5 125.5" stroke="#2D2D2D" stroke-linecap="round" stroke-linejoin="round"/>
<path d="M270.5 332.5C269.667 332.833 268.639 333.662 268.03 333.423C262.459 331.237 258.073 334.488 253.561 336.628C252.351 337.201 249.793 336.898 250 339.5" stroke="#2D2D2D" stroke-width="2" stroke-linecap="round" stroke-linejoin="round"/>
<path d="M847.5 280.5C849.889 285.699 854.845 288.879 857.768 293.842C859.776 297.253 859.755 298.852 857 301" stroke="#2D2D2D" stroke-linecap="round" stroke-linejoin="round"/>
<path d="M46.5 94.5C44.8019 95.5769 42.9052 95.4836 41.0011 95.5382C40.0079 95.5667 38.5846 94.8353 38.0511 96.023C36.5325 99.4041 33.0864 98.8287 30.5 100" stroke="#2D2D2D" stroke-linecap="round" stroke-linejoin="round"/>
<path d="M514.5 264.5C509.195 265.57 503.83 264.728 498.5 265" stroke="#2D2D2D" stroke-linecap="round" stroke-linejoin="round"/>
<path d="M534.501 154C538.577 152.032 536.887 156.654 538.501 157.5C537.324 159.494 538.635 163.06 534.995 163.447C533.121 163.646 530.273 164.122 530.634 161.016C530.933 158.448 527.262 158.874 528.001 156.5" stroke="#2D2D2D" stroke-linecap="round" stroke-linejoin="round"/>
<path d="M285 177C283.747 179.819 280.593 180.265 278.388 181.249C275.278 182.636 272.505 184.511 269.5 186" stroke="#2D2D2D" stroke-linecap="round" stroke-linejoin="round"/>
<path d="M398.5 248C402.331 249.605 400.438 253.393 401.307 256.063C402.305 259.125 401.833 262.667 402 266" stroke="#2D2D2D" stroke-width="2" stroke-linecap="round" stroke-linejoin="round"/>
<path d="M523 267C522.127 272.507 520.002 277.571 517.5 282.5" stroke="#2D2D2D" stroke-width="2" stroke-linecap="round" stroke-linejoin="round"/>
<path d="M199 263.5C195.333 273 191.768 282.541 187.926 291.97C187.005 294.232 185.373 296.309 183 297.5" stroke="#2D2D2D" stroke-width="2" stroke-linecap="round" stroke-linejoin="round"/>
<path d="M379.999 267.5C379.958 269.228 380.114 270.638 382.501 270.536C385.836 270.393 389.182 270.5 393.336 270.5C391.971 265.561 394.009 261.635 394.999 257.5" stroke="#2D2D2D" stroke-linecap="round" stroke-linejoin="round"/>
<path d="M497.5 112.5C496.099 117.26 495.203 122.054 496.5 127" stroke="#2D2D2D" stroke-linecap="round" stroke-linejoin="round"/>
<path d="M522 251.5C524.891 256.333 519.951 261.167 522 266" stroke="#2D2D2D" stroke-width="2" stroke-linecap="round" stroke-linejoin="round"/>
<path d="M403 266.5C403.864 271.745 401.828 276.834 398 279" stroke="#2D2D2D" stroke-width="2" stroke-linecap="round" stroke-linejoin="round"/>
<path d="M726.5 224C729.897 224.879 733.061 226.024 734.01 229.997C734.468 231.912 737.259 231.856 737.5 234" stroke="#2D2D2D" stroke-width="2" stroke-linecap="round" stroke-linejoin="round"/>
<path d="M833.5 213.5C838.016 216.733 838.656 222.501 842 226.5" stroke="#2D2D2D" stroke-width="2" stroke-linecap="round" stroke-linejoin="round"/>
<path d="M684.5 18C689 20.5 693.5 23 698 25.5" stroke="#2D2D2D" stroke-width="2" stroke-linecap="round" stroke-linejoin="round"/>
<path d="M839.501 298.5C841.126 295.388 838.275 293.881 836.898 292.078C835.91 290.785 832.24 292.762 832.592 294.481C833.275 297.812 833.484 301.128 833.615 304.496C833.635 305.027 835.167 305.5 836.001 306" stroke="#2D2D2D" stroke-linecap="round" stroke-linejoin="round"/>
<path d="M585 91C582.899 94.9132 583.482 99.3631 582.5 103.5" stroke="#2D2D2D" stroke-linecap="round" stroke-linejoin="round"/>
<path d="M319 129.5C322.848 134.572 326.616 139.679 326.5 146.5" stroke="#2D2D2D" stroke-linecap="round" stroke-linejoin="round"/>
<path d="M170 98C166.42 94.8346 162.642 92.5436 157.477 93.9125C155.961 94.3143 154.167 93.6667 152.5 93.5" stroke="#2D2D2D" stroke-linecap="round" stroke-linejoin="round"/>
<path d="M373.5 297.5C373.216 301.598 374.472 305.504 375 309.5" stroke="#2D2D2D" stroke-width="2" stroke-linecap="round" stroke-linejoin="round"/>
<path d="M519 83.5C517.412 87.364 520.791 91.8489 517.5 95.5" stroke="#2D2D2D" stroke-linecap="round" stroke-linejoin="round"/>
<path d="M375 277.5C372.99 278.627 373.768 280.252 373.902 282.008C374.09 284.475 374.487 287.055 373.5 289.5" stroke="#2D2D2D" stroke-linecap="round" stroke-linejoin="round"/>
<path d="M15.5 98C19.0773 100.008 23.3103 99.8614 27 101.5" stroke="#2D2D2D" stroke-linecap="round" stroke-linejoin="round"/>
<path d="M280.001 136.5C278.68 138.868 278.071 141.183 278.875 144.035C279.413 145.944 280.458 145.349 281.501 145.5" stroke="#2D2D2D" stroke-linecap="round" stroke-linejoin="round"/>
<path d="M239 304.5C239.34 307.527 238.203 310.697 240.401 313.576C241.111 314.505 240.103 315.77 238.5 315.5" stroke="#2D2D2D" stroke-width="2" stroke-linecap="round" stroke-linejoin="round"/>
<path d="M733.001 232.5C729.736 235.061 730.358 239.176 728.727 242.611C730.277 243.839 731.696 244.538 733.501 243.5" stroke="#2D2D2D" stroke-linecap="round" stroke-linejoin="round"/>
<path d="M183 98C179.821 99.8424 175.614 99.4026 173 102.5" stroke="#2D2D2D" stroke-linecap="round" stroke-linejoin="round"/>
<path d="M275 138.5C274.01 143.137 274.938 147.851 274.459 152.496C274.129 155.689 276.684 156.22 278.481 157.485C280.835 156.347 280.163 154.694 279.25 153" stroke="#2D2D2D" stroke-width="2" stroke-linecap="round" stroke-linejoin="round"/>
<path d="M513 242.5C514.797 247.071 516.796 251.592 517.435 256.508C517.557 257.449 516.833 258.5 516.5 259.5" stroke="#2D2D2D" stroke-width="2" stroke-linecap="round" stroke-linejoin="round"/>
<path d="M33.5 265C30.1667 265.333 26.8333 265.667 23.5 266" stroke="#2D2D2D" stroke-linecap="round" stroke-linejoin="round"/>
<path d="M382.5 227.5C386.691 234.268 389.509 241.676 392.469 249.012C392.847 249.949 392.438 250.908 391.5 251.5" stroke="#2D2D2D" stroke-width="2" stroke-linecap="round" stroke-linejoin="round"/>
<path d="M236.5 151C235.667 152.833 234.497 154.592 234.069 156.515C233.131 160.733 230.461 162.158 226.5 162" stroke="#2D2D2D" stroke-linecap="round" stroke-linejoin="round"/>
<path d="M312 129.5C313.833 132.333 315.619 135.199 317.519 137.987C318.582 139.548 320.066 139.135 321.5 138.5" stroke="#2D2D2D" stroke-linecap="round" stroke-linejoin="round"/>
<path d="M15 149.5C14.7434 152.829 15.568 156.212 14.5 159.5" stroke="#2D2D2D" stroke-linecap="round" stroke-linejoin="round"/>
<path d="M390.5 322.5C388.578 321.429 387.655 322.38 386.435 323.95C382.929 328.46 381.148 328.035 379 322.5" stroke="#2D2D2D" stroke-width="2" stroke-linecap="round" stroke-linejoin="round"/>
<path d="M693 55C695 58.1667 697 61.3333 699 64.5" stroke="#2D2D2D" stroke-width="2" stroke-linecap="round" stroke-linejoin="round"/>
<path d="M258 228C255.145 229.559 252.069 230.798 250 233.5" stroke="#2D2D2D" stroke-linecap="round" stroke-linejoin="round"/>
<path d="M498.5 142.5C498.833 145.5 499.167 148.5 499.5 151.5" stroke="#2D2D2D" stroke-linecap="round" stroke-linejoin="round"/>
<path d="M672.5 13.5C673.366 11.4779 671.402 10.9007 670.468 10.5969C666.207 9.20955 661.833 8.16667 657.5 7" stroke="#2D2D2D" stroke-width="2" stroke-linecap="round" stroke-linejoin="round"/>
<path d="M331 201C329.511 203.042 327.385 204.189 324.992 204.417C323.412 204.567 323.381 205.548 323 206.5" stroke="#2D2D2D" stroke-linecap="round" stroke-linejoin="round"/>
<path d="M869.501 278.5C867.901 283.478 872.079 286.669 873.784 290.369C875.814 294.773 877.59 299.477 880.501 303.5" stroke="#2D2D2D" stroke-width="2" stroke-linecap="round" stroke-linejoin="round"/>
<path d="M536.5 117.5C533.459 117.918 531.397 119.51 530.5 122.5" stroke="#2D2D2D" stroke-linecap="round" stroke-linejoin="round"/>
<path d="M193 137C190.491 138.421 188.711 141.786 185 140" stroke="#2D2D2D" stroke-width="2" stroke-linecap="round" stroke-linejoin="round"/>
<path d="M580.5 87C577.28 86.3921 576.173 88.4501 575.51 91.0025C575.123 92.4887 574.833 94 574.5 95.5" stroke="#2D2D2D" stroke-linecap="round" stroke-linejoin="round"/>
<path d="M160 228.5C160.752 232.563 157.952 232.057 155.5 232" stroke="#2D2D2D" stroke-width="2" stroke-linecap="round" stroke-linejoin="round"/>
<path d="M24.5 269.5C27.8333 269.5 31.1667 269.5 34.5 269.5" stroke="#2D2D2D" stroke-linecap="round" stroke-linejoin="round"/>
<path d="M142.5 282C138.474 282.26 133.958 280.65 131.01 285.007C130.932 285.121 131 285.333 131 285.5" stroke="#2D2D2D" stroke-width="2" stroke-linecap="round" stroke-linejoin="round"/>
<path d="M179 176C175.352 173.837 175.352 173.837 173.5 177.5" stroke="#2D2D2D" stroke-width="2" stroke-linecap="round" stroke-linejoin="round"/>
<path d="M289.5 137C286.943 137.688 286.359 140.233 285.663 142.062C284.717 144.547 287.805 145.816 291.5 144.5" stroke="#2D2D2D" stroke-linecap="round" stroke-linejoin="round"/>
<path d="M864 294.5C864 295 863.782 295.709 864.032 295.968C867.381 299.439 870.73 302.933 875.5 304.5" stroke="#2D2D2D" stroke-linecap="round" stroke-linejoin="round"/>
<path d="M167.5 225.5C164.112 226.753 160.798 228.177 156.992 227.546C154.884 227.197 153.548 228.454 153 230.5" stroke="#2D2D2D" stroke-width="2" stroke-linecap="round" stroke-linejoin="round"/>
<path d="M394 312C391.521 310.465 390.772 312.82 389.5 314" stroke="#2D2D2D" stroke-width="2" stroke-linecap="round" stroke-linejoin="round"/>
<path d="M246 268C244.483 270.49 241.27 271.962 242.042 275.354C240.169 275.83 239.787 274.577 239 274" stroke="#2D2D2D" stroke-width="2" stroke-linecap="round" stroke-linejoin="round"/>
<path d="M17.5 95C14.815 96.446 13.4636 99.0205 12 101.5" stroke="#2D2D2D" stroke-linecap="round" stroke-linejoin="round"/>
<path d="M190.5 246.5C189.108 246.775 188.5 247.834 188 249" stroke="#2D2D2D" stroke-width="2" stroke-linecap="round" stroke-linejoin="round"/>
<path d="M182.499 169.5C181.702 172.907 181.948 173.375 184.496 172.978C185.848 172.768 187.166 172.333 188.499 172" stroke="#2D2D2D" stroke-width="2" stroke-linecap="round" stroke-linejoin="round"/>
<path d="M4 99.5C6.62342 100.147 9.08549 100.907 7.5 104.5" stroke="#2D2D2D" stroke-linecap="round" stroke-linejoin="round"/>
</svg>


