<svg width="1013" height="210" viewBox="0 0 1013 210" fill="none" xmlns="http://www.w3.org/2000/svg">
<path d="M230 102C230.184 102 230.425 102 230.666 102C231.329 102 232.419 102 233.08 102C234.345 102 235.606 102 236.878 102C239.995 102 243.113 102 246.236 102C249.816 102 253.39 102 256.961 102C258.15 102 259.323 102 260.52 102C260.771 102 262.85 102 263 102" stroke="#464646" stroke-width="2" stroke-linecap="round"/>
<path d="M246.509 119C246.742 118.816 246.884 118.575 246.884 118.334C246.884 117.671 247.08 116.581 246.962 115.92C246.737 114.655 246.255 113.394 246.255 112.122C246.255 109.005 246 105.887 246 102.764C246 99.1844 246.255 95.6099 246.255 92.0392C246.255 90.8497 246.509 89.6772 246.509 88.4804C246.509 88.2288 246.965 86.1504 246.255 86" stroke="#464646" stroke-width="2" stroke-linecap="round"/>
<path d="M523 105C523.184 105 523.425 105 523.666 105C524.329 105 525.419 105 526.08 105C527.345 105 528.606 105 529.878 105C532.995 105 536.113 105 539.236 105C542.816 105 546.39 105 549.961 105C551.15 105 552.323 105 553.52 105C553.771 105 555.85 105 556 105" stroke="#464646" stroke-width="2" stroke-linecap="round"/>
<path d="M818 98C818.184 98 818.425 98 818.666 98C819.329 98 820.419 98 821.08 98C822.345 98 823.606 98 824.878 98C827.995 98 831.113 98 834.236 98C837.816 98 841.39 98 844.961 98C846.15 98 847.323 98 848.52 98C848.771 98 850.85 98 851 98" stroke="#464646" stroke-width="2" stroke-linecap="round"/>
<path d="M818 119C818.184 119 818.425 119 818.666 119C819.329 119 820.419 119 821.08 119C822.345 119 823.606 119 824.878 119C827.995 119 831.113 119 834.236 119C837.816 119 841.39 119 844.961 119C846.15 119 847.323 119 848.52 119C848.771 119 850.85 119 851 119" stroke="#464646" stroke-width="2" stroke-linecap="round"/>
<path d="M539.509 122C539.742 121.816 539.884 121.575 539.884 121.334C539.884 120.671 540.08 119.581 539.962 118.92C539.737 117.655 539.255 116.394 539.255 115.122C539.255 112.005 539 108.887 539 105.764C539 102.184 539.255 98.6099 539.255 95.0392C539.255 93.8497 539.509 92.6772 539.509 91.4804C539.509 91.2288 539.965 89.1504 539.255 89" stroke="#464646" stroke-width="2" stroke-linecap="round"/>
<path d="M100.509 83C100.742 82.9054 100.884 82.7811 100.884 82.6569C100.884 82.3151 101.08 81.7537 100.962 81.4136C100.737 80.7614 100.255 80.1122 100.255 79.4568C100.255 77.8511 100 76.2449 100 74.6358C100 72.7919 100.255 70.9505 100.255 69.1111C100.255 68.4983 100.509 67.8943 100.509 67.2778C100.509 67.1482 100.965 66.0775 100.255 66" stroke="#464646" stroke-width="2" stroke-linecap="round"/>
<path d="M92 74.5095C92.0946 74.7418 92.2189 74.8842 92.3431 74.8842C92.6849 74.8842 93.2463 75.08 93.5864 74.9623C94.2386 74.7367 94.8878 74.2547 95.5432 74.2547C97.1489 74.2547 98.7551 74 100.364 74C102.208 74 104.049 74.2547 105.889 74.2547C106.502 74.2547 107.106 74.5095 107.722 74.5095C107.852 74.5095 108.923 74.9651 109 74.2547" stroke="#464646" stroke-width="2" stroke-linecap="round"/>
<path d="M101.491 132C101.258 132.095 101.116 132.219 101.116 132.343C101.116 132.685 100.92 133.246 101.038 133.586C101.263 134.239 101.745 134.888 101.745 135.543C101.745 137.149 102 138.755 102 140.364C102 142.208 101.745 144.049 101.745 145.889C101.745 146.502 101.491 147.106 101.491 147.722C101.491 147.852 101.035 148.923 101.745 149" stroke="#464646" stroke-width="2" stroke-linecap="round"/>
<path d="M110 140.491C109.905 140.258 109.781 140.116 109.657 140.116C109.315 140.116 108.754 139.92 108.414 140.038C107.761 140.263 107.112 140.745 106.457 140.745C104.851 140.745 103.245 141 101.636 141C99.7919 141 97.9505 140.745 96.1111 140.745C95.4983 140.745 94.8943 140.491 94.2778 140.491C94.1482 140.491 93.0775 140.035 93 140.745" stroke="#464646" stroke-width="2" stroke-linecap="round"/>
<path d="M394.061 6.39476C387.897 5.71047 382.144 5.74557 376.144 7.88648C374.361 8.52251 372.291 8.59424 370.436 9.113C367.636 9.89643 364.869 11.5311 361.942 11.7649C358.905 12.0077 355.975 14.5073 352.718 14.7484C351.025 14.8737 349.983 16.4018 348.205 16.5384C346.708 16.6535 344.374 17.9188 342.996 18.66C340.068 20.235 336.726 21.2293 334.07 23.4003C328.911 27.6174 323.644 31.2424 319.272 36.0965C311.089 45.1802 301.637 54.4932 295.979 65.7982C293.007 71.7363 291.707 79.7917 290.769 86.3507C289.559 94.8152 290.139 103.704 290.139 112.307C290.139 115.133 290.736 117.799 290.736 120.494C290.736 124.264 291.046 129.355 292.395 132.892C292.921 134.272 292.333 135.679 292.992 137.069C293.796 138.764 293.9 140.689 294.651 142.406C295.928 145.322 297.717 148.889 298.5 152.019C299.521 156.097 301.583 159.67 303.411 163.323C305.081 166.659 308.404 169.33 309.716 172.738C310.983 176.03 315.119 177.632 316.883 180.627C317.727 182.061 319.741 182.819 320.898 183.975C323.217 186.293 326.343 189.318 329.425 190.638C338.642 194.585 347.945 198.79 357.363 201.478C366.51 204.089 376.292 208.671 386.164 208.671C393.826 208.671 402.273 209.732 409.888 208.042C413.438 207.254 417.113 206.175 420.639 205.091C423.498 204.213 426.321 202.319 429.034 201.544C431.38 200.875 434.118 199.4 436.466 199.124C438.187 198.922 443.376 196.73 444.695 195.412C446.217 193.891 448.615 192.699 449.606 190.473C450.13 189.294 453.496 186.097 454.716 185.401C458.52 183.229 464.188 177.925 466.462 174.064C469.523 168.865 473.558 163.994 476.814 158.881C483.079 149.046 488.428 137.377 488.428 125.434C488.428 122.779 490.075 120.432 490.219 117.975C490.385 115.163 490.626 111.808 491.281 109.025C492.596 103.444 492.003 93.9645 490.352 88.6049C489.437 85.6334 488.649 82.502 487.797 79.522C487.141 77.229 485.542 74.6198 484.877 72.2955C483.122 66.1595 478.848 60.9769 476.018 55.323C473.277 49.8456 468.578 45.7369 464.803 40.9363C463.041 38.6967 460.503 36.509 458.266 34.7705C455.979 32.9931 453.575 30.4636 451.132 29.0688C446.726 26.5531 442.772 22.8619 438.258 20.2511C433.813 17.6803 428.583 13.4955 423.625 12.3948C421.957 12.0244 417.678 10.9501 416.292 9.84228C413.548 7.64849 408.998 9.38061 406.006 8.05222C403.007 6.72044 399.038 8.75194 396.118 7.45554C394.024 6.52548 391.048 6.99145 388.686 6.99145" stroke="#464646" stroke-width="2" stroke-linecap="round"/>
<path d="M105.061 1.39476C98.8967 0.710466 93.1438 0.745573 87.1436 2.88648C85.361 3.52251 83.291 3.59424 81.4365 4.113C78.6359 4.89643 75.8685 6.53106 72.9422 6.76494C69.9052 7.00767 66.9749 9.50734 63.7179 9.74837C62.0246 9.87368 60.9827 11.4018 59.2053 11.5384C57.7084 11.6535 55.3738 12.9188 53.9959 13.66C51.0681 15.235 47.7263 16.2293 45.0703 18.4003C39.9111 22.6174 34.6444 26.2424 30.2716 31.0965C22.0885 40.1802 12.6366 49.4932 6.97869 60.7982C4.0068 66.7363 2.7072 74.7917 1.7693 81.3507C0.558944 89.8152 1.13887 98.7036 1.13887 107.307C1.13887 110.133 1.73612 112.799 1.73612 115.494C1.73612 119.264 2.04644 124.355 3.39516 127.892C3.92127 129.272 3.33323 130.679 3.99242 132.069C4.79626 133.764 4.89972 135.689 5.65146 137.406C6.92821 140.322 8.71706 143.889 9.50044 147.019C10.5209 151.097 12.5827 154.67 14.4112 158.323C16.0809 161.659 19.4036 164.33 20.7156 167.738C21.9831 171.03 26.119 172.632 27.8826 175.627C28.7267 177.061 30.7405 177.819 31.8975 178.975C34.2174 181.293 37.3426 184.318 40.425 185.638C49.6422 189.585 58.9454 193.79 68.3632 196.478C77.5099 199.089 87.2916 203.671 97.1642 203.671C104.826 203.671 113.273 204.732 120.888 203.042C124.438 202.254 128.113 201.175 131.639 200.091C134.498 199.213 137.321 197.319 140.034 196.544C142.38 195.875 145.118 194.4 147.466 194.124C149.187 193.922 154.376 191.73 155.695 190.412C157.217 188.891 159.615 187.699 160.606 185.473C161.13 184.294 164.496 181.097 165.716 180.401C169.52 178.229 175.188 172.925 177.462 169.064C180.523 163.865 184.558 158.994 187.814 153.881C194.079 144.046 199.428 132.377 199.428 120.434C199.428 117.779 201.075 115.432 201.219 112.975C201.385 110.163 201.626 106.808 202.281 104.025C203.596 98.4437 203.003 88.9645 201.352 83.6049C200.437 80.6334 199.649 77.502 198.797 74.522C198.141 72.229 196.542 69.6198 195.877 67.2955C194.122 61.1595 189.848 55.9769 187.018 50.323C184.277 44.8456 179.578 40.7369 175.803 35.9363C174.041 33.6967 171.503 31.509 169.266 29.7705C166.979 27.9931 164.575 25.4636 162.132 24.0688C157.726 21.5531 153.772 17.8619 149.258 15.2511C144.813 12.6803 139.583 8.49548 134.625 7.39478C132.957 7.02444 128.678 5.9501 127.292 4.84228C124.548 2.64849 119.998 4.38061 117.006 3.05222C114.007 1.72044 110.038 3.75194 107.118 2.45554C105.024 1.52548 102.048 1.99145 99.6859 1.99145" stroke="#464646" stroke-width="2" stroke-linecap="round"/>
<path d="M691.061 6.39476C684.897 5.71047 679.144 5.74557 673.144 7.88648C671.361 8.52251 669.291 8.59424 667.436 9.113C664.636 9.89643 661.869 11.5311 658.942 11.7649C655.905 12.0077 652.975 14.5073 649.718 14.7484C648.025 14.8737 646.983 16.4018 645.205 16.5384C643.708 16.6535 641.374 17.9188 639.996 18.66C637.068 20.235 633.726 21.2293 631.07 23.4003C625.911 27.6174 620.644 31.2424 616.272 36.0965C608.089 45.1802 598.637 54.4932 592.979 65.7982C590.007 71.7363 588.707 79.7917 587.769 86.3507C586.559 94.8152 587.139 103.704 587.139 112.307C587.139 115.133 587.736 117.799 587.736 120.494C587.736 124.264 588.046 129.355 589.395 132.892C589.921 134.272 589.333 135.679 589.992 137.069C590.796 138.764 590.9 140.689 591.651 142.406C592.928 145.322 594.717 148.889 595.5 152.019C596.521 156.097 598.583 159.67 600.411 163.323C602.081 166.659 605.404 169.33 606.716 172.738C607.983 176.03 612.119 177.632 613.883 180.627C614.727 182.061 616.741 182.819 617.898 183.975C620.217 186.293 623.343 189.318 626.425 190.638C635.642 194.585 644.945 198.79 654.363 201.478C663.51 204.089 673.292 208.671 683.164 208.671C690.826 208.671 699.273 209.732 706.888 208.042C710.438 207.254 714.113 206.175 717.639 205.091C720.498 204.213 723.321 202.319 726.034 201.544C728.38 200.875 731.118 199.4 733.466 199.124C735.187 198.922 740.376 196.73 741.695 195.412C743.217 193.891 745.615 192.699 746.606 190.473C747.13 189.294 750.496 186.097 751.716 185.401C755.52 183.229 761.188 177.925 763.462 174.064C766.523 168.865 770.558 163.994 773.814 158.881C780.079 149.046 785.428 137.377 785.428 125.434C785.428 122.779 787.075 120.432 787.219 117.975C787.385 115.163 787.626 111.808 788.281 109.025C789.596 103.444 789.003 93.9645 787.352 88.6049C786.437 85.6334 785.649 82.502 784.797 79.522C784.141 77.229 782.542 74.6198 781.877 72.2955C780.122 66.1595 775.848 60.9769 773.018 55.323C770.277 49.8456 765.578 45.7369 761.803 40.9363C760.041 38.6967 757.503 36.509 755.266 34.7705C752.979 32.9931 750.575 30.4636 748.132 29.0688C743.726 26.5531 739.772 22.8619 735.258 20.2511C730.813 17.6803 725.583 13.4955 720.625 12.3948C718.957 12.0244 714.678 10.9501 713.292 9.84228C710.548 7.64849 705.998 9.38061 703.006 8.05222C700.007 6.72044 696.038 8.75194 693.118 7.45554C691.024 6.52548 688.048 6.99145 685.686 6.99145" stroke="#464646" stroke-width="2" stroke-linecap="round"/>
<path d="M76.65 34.085H76.79C79.6133 34.5983 81.025 35.9633 81.025 38.18V38.81C81.025 41.26 79.4617 43.6983 76.335 46.125V46.265C81.3983 50.7917 84.8983 53.055 86.835 53.055C87.185 53.3117 87.36 53.6267 87.36 54C87.36 54.5367 86.9633 54.875 86.17 55.015C84.2333 55.015 80.6167 52.6817 75.32 48.015L73.815 47.21H73.71C74.3633 49.8233 74.69 51.8417 74.69 53.265C74.69 53.8717 74.3167 54.3033 73.57 54.56C72.4967 54.56 71.82 51.935 71.54 46.685C70.7933 44.2583 70.42 42.3217 70.42 40.875V40.56C70.42 38.4367 70.8867 37.375 71.82 37.375L72.485 37.725H72.695C73.815 35.2983 75.1333 34.085 76.65 34.085ZM73.815 43.43L73.71 44.725C75.88 44.725 77.63 42.9283 78.96 39.335V38.04C78.96 37.0133 78.26 36.395 76.86 36.185H76.65C75.18 36.185 74.235 38.6 73.815 43.43ZM91.9986 41.435C92.9319 41.4583 94.5069 43.0917 96.7236 46.335L96.7936 46.93C96.7936 47.5833 95.1953 48.085 91.9986 48.435L91.8936 48.54V48.68C92.3836 50.78 92.8969 51.83 93.4336 51.83H93.8536C94.6003 51.83 95.7319 51.025 97.2486 49.415H97.4586C97.9253 49.415 98.2869 49.7533 98.5436 50.43C98.5436 50.99 97.5636 51.9583 95.6036 53.335C95.0903 53.6383 94.4719 53.86 93.7486 54C91.8586 54 90.5403 52.2267 89.7936 48.68C88.7203 48.5167 88.1836 48.0733 88.1836 47.35C88.1836 46.8367 88.5803 46.4983 89.3736 46.335V46.475L89.7236 46.335V45.46C89.7236 42.7767 90.4819 41.435 91.9986 41.435ZM92.2086 43.955H91.8936L91.7536 45.25V46.335H91.8936C93.2003 46.2883 93.8536 46.1483 93.8536 45.915C93.2469 45.005 92.6986 44.3517 92.2086 43.955ZM106.434 40.49C107.46 40.49 107.974 40.8983 107.974 41.715L107.659 42.38L107.449 48.785C107.449 51.6783 108.032 53.475 109.199 54.175L109.269 54.7C109.199 55.3767 108.884 55.715 108.324 55.715H108.114C106.364 54.525 105.489 52.705 105.489 50.255H105.244C104.31 52.8683 103.179 54.175 101.849 54.175C100.612 53.825 99.9936 52.9033 99.9936 51.41C99.9936 48.12 101.312 44.8417 103.949 41.575C104.835 40.8517 105.664 40.49 106.434 40.49ZM102.199 50.01L102.059 50.99V51.655H102.409C104.159 47.2917 105.034 44.6317 105.034 43.675H104.894C103.54 45.1917 102.642 47.3033 102.199 50.01ZM113.678 42.135L115.113 41.925C115.697 41.925 116.023 42.2867 116.093 43.01C116.093 43.64 115.335 44.0483 113.818 44.235C112.862 44.9817 112.383 45.9383 112.383 47.105V48.26C112.85 50.8267 113.643 52.11 114.763 52.11H115.113C115.767 52.11 116.747 51.4917 118.053 50.255H118.263C118.73 50.255 119.103 50.5817 119.383 51.235C119.057 52.2383 118.007 53.1483 116.233 53.965C115.907 54.105 115.498 54.175 115.008 54.175C112.605 54.175 111.042 52.285 110.318 48.505V47.735C110.318 45.005 111.438 43.1383 113.678 42.135ZM125.278 32.755C125.932 32.895 126.258 33.2217 126.258 33.735L126.048 35.275V35.73C126.048 36.7567 126.165 37.8417 126.398 38.985H126.468C129.175 38.1683 130.855 37.76 131.508 37.76C132.185 37.9467 132.523 38.285 132.523 38.775C132.523 39.5683 131.718 39.965 130.108 39.965L126.468 41.26C126.468 44.41 126.807 48.6917 127.483 54.105C127.343 54.735 127.005 55.05 126.468 55.05H126.398C125.582 55.05 125.173 54 125.173 51.9C124.87 50.3367 124.613 46.9417 124.403 41.715H123.773C121.58 41.575 120.483 41.0617 120.483 40.175C120.483 39.9183 120.728 39.6033 121.218 39.23H121.568L123.178 39.65H124.298L123.983 35.275C123.983 33.595 124.415 32.755 125.278 32.755Z" fill="#464646"/>
<path d="M67.49 91.915L77.99 91.25C78.2933 91.25 78.585 91.5417 78.865 92.125C78.865 93.0117 77.8383 93.455 75.785 93.455L69.66 93.805L69.52 93.875C70.1033 97.6783 70.395 104.9 70.395 115.54C70.2783 116.567 69.905 117.08 69.275 117.08C68.6683 117.08 68.3183 116.613 68.225 115.68V107.56C68.225 102.147 67.98 97.6317 67.49 94.015C63.3133 94.4117 61.225 94.8783 61.225 95.415L60.91 95.555C60.1867 95.345 59.825 94.9717 59.825 94.435C59.825 93.1517 62.38 92.3117 67.49 91.915ZM76.6532 103.5C77.4698 103.5 78.0298 105.297 78.3332 108.89C78.7298 110.547 79.0215 111.375 79.2082 111.375H79.4182C80.0015 109.905 80.2932 108.447 80.2932 107L80.0832 104.585C80.3398 103.955 80.7015 103.64 81.1682 103.64C82.0315 103.64 82.4632 105.168 82.4632 108.225C82.9765 111.398 83.2332 114.35 83.2332 117.08V118.725C83.2332 123.742 81.8098 127.125 78.9632 128.875L78.1932 129.015C76.8632 129.015 75.6265 127.778 74.4832 125.305L74.1682 123.205V123.1C74.1682 121.56 74.5998 120.79 75.4632 120.79L76.3382 121.35L76.2332 123.555C76.2332 124.628 76.7815 125.713 77.8782 126.81H78.3332C79.6165 126.81 80.5615 124.36 81.1682 119.46L81.2382 117.43C81.2148 115.073 81.1215 113.568 80.9582 112.915C80.0248 113.732 79.2898 114.14 78.7532 114.14C77.5632 114.14 76.5015 110.955 75.5682 104.585L75.4632 104.515C75.4632 103.978 75.8598 103.64 76.6532 103.5ZM89.1009 103.605C91.5742 103.605 93.0325 105.157 93.4759 108.26C93.4759 111.013 92.1925 112.985 89.6259 114.175C89.3459 114.315 88.9609 114.385 88.4709 114.385H88.2259L87.4559 114.315V114.385L87.5959 123.73C87.4325 124.453 87.0592 124.815 86.4759 124.815C85.8225 124.605 85.4959 124.267 85.4959 123.8L85.1809 104.76C85.1809 104.153 85.5425 103.838 86.2659 103.815L87.0009 104.13C87.6542 103.78 88.3542 103.605 89.1009 103.605ZM87.3509 107.315L87.2459 108.4L87.3509 112.11L88.3309 112.355C89.8942 112.355 90.9092 111.212 91.3759 108.925V108.4C91.2125 106.557 90.5592 105.635 89.4159 105.635H88.8909C87.8642 105.635 87.3509 106.195 87.3509 107.315ZM98.2681 101.435C99.2015 101.458 100.776 103.092 102.993 106.335L103.063 106.93C103.063 107.583 101.465 108.085 98.2681 108.435L98.1631 108.54V108.68C98.6531 110.78 99.1665 111.83 99.7031 111.83H100.123C100.87 111.83 102.001 111.025 103.518 109.415H103.728C104.195 109.415 104.556 109.753 104.813 110.43C104.813 110.99 103.833 111.958 101.873 113.335C101.36 113.638 100.741 113.86 100.018 114C98.1281 114 96.8098 112.227 96.0631 108.68C94.9898 108.517 94.4531 108.073 94.4531 107.35C94.4531 106.837 94.8498 106.498 95.6431 106.335V106.475L95.9931 106.335V105.46C95.9931 102.777 96.7515 101.435 98.2681 101.435ZM98.4781 103.955H98.1631L98.0231 105.25V106.335H98.1631C99.4698 106.288 100.123 106.148 100.123 105.915C99.5165 105.005 98.9681 104.352 98.4781 103.955ZM116.763 93.28H117.113C117.766 93.28 118.14 93.665 118.233 94.435C118.233 95.1117 117.311 95.45 115.468 95.45C112.505 96.57 110.51 98.2033 109.483 100.35L109.238 101.365V101.575C109.238 102.602 109.926 103.115 111.303 103.115L115.153 102.905C117.743 102.905 119.493 104.165 120.403 106.685L120.613 107.91C120.613 110.337 118.653 112.553 114.733 114.56C113.566 114.887 112.54 115.108 111.653 115.225C109.273 115.225 107.593 113.883 106.613 111.2C106.333 110.29 106.193 109.368 106.193 108.435C106.193 108.155 106.415 107.863 106.858 107.56H107.278C108.001 107.56 108.363 108.482 108.363 110.325C108.97 112.145 109.926 113.055 111.233 113.055H112.178C114.068 113.055 115.935 111.958 117.778 109.765C118.268 109.065 118.513 108.307 118.513 107.49C118.513 106.347 117.615 105.542 115.818 105.075H115.678L111.093 105.18C108.55 104.877 107.278 103.827 107.278 102.03L107.138 101.575C107.138 99.1717 108.935 96.8383 112.528 94.575C114.091 93.7117 115.503 93.28 116.763 93.28ZM125.656 102.135L127.091 101.925C127.674 101.925 128.001 102.287 128.071 103.01C128.071 103.64 127.313 104.048 125.796 104.235C124.839 104.982 124.361 105.938 124.361 107.105V108.26C124.828 110.827 125.621 112.11 126.741 112.11H127.091C127.744 112.11 128.724 111.492 130.031 110.255H130.241C130.708 110.255 131.081 110.582 131.361 111.235C131.034 112.238 129.984 113.148 128.211 113.965C127.884 114.105 127.476 114.175 126.986 114.175C124.583 114.175 123.019 112.285 122.296 108.505V107.735C122.296 105.005 123.416 103.138 125.656 102.135ZM137.746 100.21C139.216 100.21 140.091 101.237 140.371 103.29V103.605C140.371 105.868 139.204 107.945 136.871 109.835C138.224 111.165 140.593 111.83 143.976 111.83C144.489 111.993 144.746 112.355 144.746 112.915C144.746 113.545 144.338 113.86 143.521 113.86C141.234 113.86 138.831 113.277 136.311 112.11V113.125C136.311 115.528 135.798 116.73 134.771 116.73C134.048 116.73 133.686 115.342 133.686 112.565V109.835L133.581 108.855L133.826 107.735L133.581 104.375V104.235C133.581 103.605 133.908 103.173 134.561 102.94C135.471 101.12 136.533 100.21 137.746 100.21ZM135.996 107.875C136.673 107.875 137.431 106.662 138.271 104.235V102.73L137.851 102.275H137.536C136.509 102.975 135.996 104.842 135.996 107.875ZM146.329 95.765C147.216 95.9517 147.659 96.3483 147.659 96.955C147.426 97.6083 147.052 97.935 146.539 97.935C145.676 97.7717 145.244 97.34 145.244 96.64C145.477 96.0567 145.839 95.765 146.329 95.765ZM147.659 100.665C148.032 100.665 148.347 101.003 148.604 101.68L148.289 104.165V105.81C148.289 107.723 148.616 110.232 149.269 113.335C149.036 113.778 148.639 114 148.079 114C147.122 114 146.492 111.2 146.189 105.6V104.375C146.189 101.902 146.679 100.665 147.659 100.665ZM155.375 103.605C157.849 103.605 159.307 105.157 159.75 108.26C159.75 111.013 158.467 112.985 155.9 114.175C155.62 114.315 155.235 114.385 154.745 114.385H154.5L153.73 114.315V114.385L153.87 123.73C153.707 124.453 153.334 124.815 152.75 124.815C152.097 124.605 151.77 124.267 151.77 123.8L151.455 104.76C151.455 104.153 151.817 103.838 152.54 103.815L153.275 104.13C153.929 103.78 154.629 103.605 155.375 103.605ZM153.625 107.315L153.52 108.4L153.625 112.11L154.605 112.355C156.169 112.355 157.184 111.212 157.65 108.925V108.4C157.487 106.557 156.834 105.635 155.69 105.635H155.165C154.139 105.635 153.625 106.195 153.625 107.315ZM165.523 92.755C166.176 92.895 166.503 93.2217 166.503 93.735L166.293 95.275V95.73C166.293 96.7567 166.409 97.8417 166.643 98.985H166.713C169.419 98.1683 171.099 97.76 171.753 97.76C172.429 97.9467 172.768 98.285 172.768 98.775C172.768 99.5683 171.963 99.965 170.353 99.965L166.713 101.26C166.713 104.41 167.051 108.692 167.728 114.105C167.588 114.735 167.249 115.05 166.713 115.05H166.643C165.826 115.05 165.418 114 165.418 111.9C165.114 110.337 164.858 106.942 164.648 101.715H164.018C161.824 101.575 160.728 101.062 160.728 100.175C160.728 99.9183 160.973 99.6033 161.463 99.23H161.813L163.423 99.65H164.543L164.228 95.275C164.228 93.595 164.659 92.755 165.523 92.755Z" fill="#464646"/>
<path d="M87.7 162.825C88.33 162.825 88.7617 163.887 88.995 166.01C88.7617 166.593 88.3767 166.885 87.84 166.885C87.4667 166.815 87.0933 166.383 86.72 165.59L86.09 165.38C84.9933 165.38 84.0017 166.103 83.115 167.55V167.865C83.115 168.215 84.76 168.798 88.05 169.615C89.4267 170.432 90.115 171.423 90.115 172.59C90.115 174.503 88.575 176.137 85.495 177.49L84.2 177.7C82.24 177.49 81.26 176.51 81.26 174.76V174.655C81.26 174.095 81.6217 173.768 82.345 173.675C82.905 173.675 83.2783 174.258 83.465 175.425L83.745 175.635H84.34C85.67 175.635 86.9067 174.725 88.05 172.905V172.45C88.05 171.75 86.5217 171.097 83.465 170.49C81.855 169.837 81.05 168.927 81.05 167.76C81.05 166.243 82.3217 164.82 84.865 163.49C85.985 163.35 86.93 163.128 87.7 162.825ZM97.9424 163.49C98.9691 163.49 99.4824 163.898 99.4824 164.715L99.1674 165.38L98.9574 171.785C98.9574 174.678 99.5408 176.475 100.707 177.175L100.777 177.7C100.707 178.377 100.392 178.715 99.8324 178.715H99.6224C97.8724 177.525 96.9974 175.705 96.9974 173.255H96.7524C95.8191 175.868 94.6874 177.175 93.3574 177.175C92.1208 176.825 91.5024 175.903 91.5024 174.41C91.5024 171.12 92.8208 167.842 95.4574 164.575C96.3441 163.852 97.1724 163.49 97.9424 163.49ZM93.7074 173.01L93.5674 173.99V174.655H93.9174C95.6674 170.292 96.5424 167.632 96.5424 166.675H96.4024C95.0491 168.192 94.1508 170.303 93.7074 173.01ZM108.652 162.825C109.282 162.825 109.714 163.887 109.947 166.01C109.714 166.593 109.329 166.885 108.792 166.885C108.419 166.815 108.045 166.383 107.672 165.59L107.042 165.38C105.945 165.38 104.954 166.103 104.067 167.55V167.865C104.067 168.215 105.712 168.798 109.002 169.615C110.379 170.432 111.067 171.423 111.067 172.59C111.067 174.503 109.527 176.137 106.447 177.49L105.152 177.7C103.192 177.49 102.212 176.51 102.212 174.76V174.655C102.212 174.095 102.574 173.768 103.297 173.675C103.857 173.675 104.23 174.258 104.417 175.425L104.697 175.635H105.292C106.622 175.635 107.859 174.725 109.002 172.905V172.45C109.002 171.75 107.474 171.097 104.417 170.49C102.807 169.837 102.002 168.927 102.002 167.76C102.002 166.243 103.274 164.82 105.817 163.49C106.937 163.35 107.882 163.128 108.652 162.825ZM119.385 162.825C120.015 162.825 120.446 163.887 120.68 166.01C120.446 166.593 120.061 166.885 119.525 166.885C119.151 166.815 118.778 166.383 118.405 165.59L117.775 165.38C116.678 165.38 115.686 166.103 114.8 167.55V167.865C114.8 168.215 116.445 168.798 119.735 169.615C121.111 170.432 121.8 171.423 121.8 172.59C121.8 174.503 120.26 176.137 117.18 177.49L115.885 177.7C113.925 177.49 112.945 176.51 112.945 174.76V174.655C112.945 174.095 113.306 173.768 114.03 173.675C114.59 173.675 114.963 174.258 115.15 175.425L115.43 175.635H116.025C117.355 175.635 118.591 174.725 119.735 172.905V172.45C119.735 171.75 118.206 171.097 115.15 170.49C113.54 169.837 112.735 168.927 112.735 167.76C112.735 166.243 114.006 164.82 116.55 163.49C117.67 163.35 118.615 163.128 119.385 162.825Z" fill="#464646"/>
<path d="M364.65 57.085H364.79C367.613 57.5983 369.025 58.9633 369.025 61.18V61.81C369.025 64.26 367.462 66.6983 364.335 69.125V69.265C369.398 73.7917 372.898 76.055 374.835 76.055C375.185 76.3117 375.36 76.6267 375.36 77C375.36 77.5367 374.963 77.875 374.17 78.015C372.233 78.015 368.617 75.6817 363.32 71.015L361.815 70.21H361.71C362.363 72.8233 362.69 74.8417 362.69 76.265C362.69 76.8717 362.317 77.3033 361.57 77.56C360.497 77.56 359.82 74.935 359.54 69.685C358.793 67.2583 358.42 65.3217 358.42 63.875V63.56C358.42 61.4367 358.887 60.375 359.82 60.375L360.485 60.725H360.695C361.815 58.2983 363.133 57.085 364.65 57.085ZM361.815 66.43L361.71 67.725C363.88 67.725 365.63 65.9283 366.96 62.335V61.04C366.96 60.0133 366.26 59.395 364.86 59.185H364.65C363.18 59.185 362.235 61.6 361.815 66.43ZM379.999 64.435C380.932 64.4583 382.507 66.0917 384.724 69.335L384.794 69.93C384.794 70.5833 383.195 71.085 379.999 71.435L379.894 71.54V71.68C380.384 73.78 380.897 74.83 381.434 74.83H381.854C382.6 74.83 383.732 74.025 385.249 72.415H385.459C385.925 72.415 386.287 72.7533 386.544 73.43C386.544 73.99 385.564 74.9583 383.604 76.335C383.09 76.6383 382.472 76.86 381.749 77C379.859 77 378.54 75.2267 377.794 71.68C376.72 71.5167 376.184 71.0733 376.184 70.35C376.184 69.8367 376.58 69.4983 377.374 69.335V69.475L377.724 69.335V68.46C377.724 65.7767 378.482 64.435 379.999 64.435ZM380.209 66.955H379.894L379.754 68.25V69.335H379.894C381.2 69.2883 381.854 69.1483 381.854 68.915C381.247 68.005 380.699 67.3517 380.209 66.955ZM394.434 63.49C395.46 63.49 395.974 63.8983 395.974 64.715L395.659 65.38L395.449 71.785C395.449 74.6783 396.032 76.475 397.199 77.175L397.269 77.7C397.199 78.3767 396.884 78.715 396.324 78.715H396.114C394.364 77.525 393.489 75.705 393.489 73.255H393.244C392.31 75.8683 391.179 77.175 389.849 77.175C388.612 76.825 387.994 75.9033 387.994 74.41C387.994 71.12 389.312 67.8417 391.949 64.575C392.835 63.8517 393.664 63.49 394.434 63.49ZM390.199 73.01L390.059 73.99V74.655H390.409C392.159 70.2917 393.034 67.6317 393.034 66.675H392.894C391.54 68.1917 390.642 70.3033 390.199 73.01ZM401.678 65.135L403.113 64.925C403.697 64.925 404.023 65.2867 404.093 66.01C404.093 66.64 403.335 67.0483 401.818 67.235C400.862 67.9817 400.383 68.9383 400.383 70.105V71.26C400.85 73.8267 401.643 75.11 402.763 75.11H403.113C403.767 75.11 404.747 74.4917 406.053 73.255H406.263C406.73 73.255 407.103 73.5817 407.383 74.235C407.057 75.2383 406.007 76.1483 404.233 76.965C403.907 77.105 403.498 77.175 403.008 77.175C400.605 77.175 399.042 75.285 398.318 71.505V70.735C398.318 68.005 399.438 66.1383 401.678 65.135ZM413.278 55.755C413.932 55.895 414.258 56.2217 414.258 56.735L414.048 58.275V58.73C414.048 59.7567 414.165 60.8417 414.398 61.985H414.468C417.175 61.1683 418.855 60.76 419.508 60.76C420.185 60.9467 420.523 61.285 420.523 61.775C420.523 62.5683 419.718 62.965 418.108 62.965L414.468 64.26C414.468 67.41 414.807 71.6917 415.483 77.105C415.343 77.735 415.005 78.05 414.468 78.05H414.398C413.582 78.05 413.173 77 413.173 74.9C412.87 73.3367 412.613 69.9417 412.403 64.715H411.773C409.58 64.575 408.483 64.0617 408.483 63.175C408.483 62.9183 408.728 62.6033 409.218 62.23H409.568L411.178 62.65H412.298L411.983 58.275C411.983 56.595 412.415 55.755 413.278 55.755ZM365.49 94.915L375.99 94.25C376.293 94.25 376.585 94.5417 376.865 95.125C376.865 96.0117 375.838 96.455 373.785 96.455L367.66 96.805L367.52 96.875C368.103 100.678 368.395 107.9 368.395 118.54C368.278 119.567 367.905 120.08 367.275 120.08C366.668 120.08 366.318 119.613 366.225 118.68V110.56C366.225 105.147 365.98 100.632 365.49 97.015C361.313 97.4117 359.225 97.8783 359.225 98.415L358.91 98.555C358.187 98.345 357.825 97.9717 357.825 97.435C357.825 96.1517 360.38 95.3117 365.49 94.915ZM375.003 97.68C375.656 97.68 375.983 98.4733 375.983 100.06L376.403 106.08H376.543L378.293 105.415C380.253 105.415 381.443 107.422 381.863 111.435C382.026 112.578 382.108 114.258 382.108 116.475V119.31C382.108 120.197 381.781 120.64 381.128 120.64H380.988C380.358 120.547 380.043 120.208 380.043 119.625V116.335C380.043 111.062 379.53 108.145 378.503 107.585H378.293C377.593 107.585 377.08 108.658 376.753 110.805V112.765C376.753 116.265 376.461 118.015 375.878 118.015L375.213 118.085C374.56 118.085 374.233 117.117 374.233 115.18C374.303 113.127 374.443 111.447 374.653 110.14L373.918 98.625C373.918 98.0183 374.28 97.7033 375.003 97.68ZM388.373 103.21C389.843 103.21 390.718 104.237 390.998 106.29V106.605C390.998 108.868 389.831 110.945 387.498 112.835C388.851 114.165 391.22 114.83 394.603 114.83C395.116 114.993 395.373 115.355 395.373 115.915C395.373 116.545 394.965 116.86 394.148 116.86C391.861 116.86 389.458 116.277 386.938 115.11V116.125C386.938 118.528 386.425 119.73 385.398 119.73C384.675 119.73 384.313 118.342 384.313 115.565V112.835L384.208 111.855L384.453 110.735L384.208 107.375V107.235C384.208 106.605 384.535 106.173 385.188 105.94C386.098 104.12 387.16 103.21 388.373 103.21ZM386.623 110.875C387.3 110.875 388.058 109.662 388.898 107.235V105.73L388.478 105.275H388.163C387.136 105.975 386.623 107.842 386.623 110.875ZM399.686 104.435C400.619 104.458 402.194 106.092 404.411 109.335L404.481 109.93C404.481 110.583 402.883 111.085 399.686 111.435L399.581 111.54V111.68C400.071 113.78 400.584 114.83 401.121 114.83H401.541C402.288 114.83 403.419 114.025 404.936 112.415H405.146C405.613 112.415 405.974 112.753 406.231 113.43C406.231 113.99 405.251 114.958 403.291 116.335C402.778 116.638 402.159 116.86 401.436 117C399.546 117 398.228 115.227 397.481 111.68C396.408 111.517 395.871 111.073 395.871 110.35C395.871 109.837 396.268 109.498 397.061 109.335V109.475L397.411 109.335V108.46C397.411 105.777 398.169 104.435 399.686 104.435ZM399.896 106.955H399.581L399.441 108.25V109.335H399.581C400.888 109.288 401.541 109.148 401.541 108.915C400.934 108.005 400.386 107.352 399.896 106.955ZM410.726 104.435C411.659 104.458 413.234 106.092 415.451 109.335L415.521 109.93C415.521 110.583 413.923 111.085 410.726 111.435L410.621 111.54V111.68C411.111 113.78 411.624 114.83 412.161 114.83H412.581C413.328 114.83 414.459 114.025 415.976 112.415H416.186C416.653 112.415 417.014 112.753 417.271 113.43C417.271 113.99 416.291 114.958 414.331 116.335C413.818 116.638 413.199 116.86 412.476 117C410.586 117 409.268 115.227 408.521 111.68C407.448 111.517 406.911 111.073 406.911 110.35C406.911 109.837 407.308 109.498 408.101 109.335V109.475L408.451 109.335V108.46C408.451 105.777 409.209 104.435 410.726 104.435ZM410.936 106.955H410.621L410.481 108.25V109.335H410.621C411.928 109.288 412.581 109.148 412.581 108.915C411.974 108.005 411.426 107.352 410.936 106.955ZM369.235 135.09C370.425 135.09 371.125 135.522 371.335 136.385C371.335 136.735 370.997 137.108 370.32 137.505L369.165 137.19H369.025C367.718 137.19 366.225 139.045 364.545 142.755C364.312 143.665 364.195 144.54 364.195 145.38V146.815H364.335C367.182 146.138 369.002 145.8 369.795 145.8C370.822 145.987 371.335 146.395 371.335 147.025C371.125 147.678 370.787 148.005 370.32 148.005L369.69 147.9C367.31 148.11 365.56 148.472 364.44 148.985V149.23L364.86 154.9C364.86 157.583 364.323 158.925 363.25 158.925C362.877 158.925 362.538 158.633 362.235 158.05C362.608 157.093 362.795 155.892 362.795 154.445C362.795 152.975 362.655 151.307 362.375 149.44L360.695 149.65C359.178 149.51 358.42 149.032 358.42 148.215C358.653 147.562 359.027 147.235 359.54 147.235L360.415 147.48H361.045L362.165 147.34V145.38C362.165 141.763 363.763 138.59 366.96 135.86C367.683 135.347 368.442 135.09 369.235 135.09ZM373.338 138.765C374.225 138.952 374.668 139.348 374.668 139.955C374.435 140.608 374.061 140.935 373.548 140.935C372.685 140.772 372.253 140.34 372.253 139.64C372.486 139.057 372.848 138.765 373.338 138.765ZM374.668 143.665C375.041 143.665 375.356 144.003 375.613 144.68L375.298 147.165V148.81C375.298 150.723 375.625 153.232 376.278 156.335C376.045 156.778 375.648 157 375.088 157C374.131 157 373.501 154.2 373.198 148.6V147.375C373.198 144.902 373.688 143.665 374.668 143.665ZM378.359 140.375C379.572 140.375 380.354 142.755 380.704 147.515L380.914 148.6C381.987 146.407 382.862 145.31 383.539 145.31C383.539 145.217 383.784 145.147 384.274 145.1H384.414C385.954 145.1 386.934 146.302 387.354 148.705V148.81C387.354 150.863 386.327 153.127 384.274 155.6C383.411 156.533 382.466 157 381.439 157C380.272 156.743 379.689 156.16 379.689 155.25L377.939 142.685L377.414 141.39C377.414 140.97 377.729 140.632 378.359 140.375ZM381.999 154.585H382.104C383.317 154.095 384.379 152.427 385.289 149.58V148.25C385.079 147.527 384.811 147.165 384.484 147.165H384.204C383.177 147.772 382.442 150.245 381.999 154.585ZM392.269 144.435C393.202 144.458 394.777 146.092 396.994 149.335L397.064 149.93C397.064 150.583 395.466 151.085 392.269 151.435L392.164 151.54V151.68C392.654 153.78 393.167 154.83 393.704 154.83H394.124C394.871 154.83 396.002 154.025 397.519 152.415H397.729C398.196 152.415 398.557 152.753 398.814 153.43C398.814 153.99 397.834 154.958 395.874 156.335C395.361 156.638 394.742 156.86 394.019 157C392.129 157 390.811 155.227 390.064 151.68C388.991 151.517 388.454 151.073 388.454 150.35C388.454 149.837 388.851 149.498 389.644 149.335V149.475L389.994 149.335V148.46C389.994 145.777 390.752 144.435 392.269 144.435ZM392.479 146.955H392.164L392.024 148.25V149.335H392.164C393.471 149.288 394.124 149.148 394.124 148.915C393.517 148.005 392.969 147.352 392.479 146.955ZM404.779 143.21C406.249 143.21 407.124 144.237 407.404 146.29V146.605C407.404 148.868 406.237 150.945 403.904 152.835C405.257 154.165 407.626 154.83 411.009 154.83C411.522 154.993 411.779 155.355 411.779 155.915C411.779 156.545 411.371 156.86 410.554 156.86C408.267 156.86 405.864 156.277 403.344 155.11V156.125C403.344 158.528 402.831 159.73 401.804 159.73C401.081 159.73 400.719 158.342 400.719 155.565V152.835L400.614 151.855L400.859 150.735L400.614 147.375V147.235C400.614 146.605 400.941 146.173 401.594 145.94C402.504 144.12 403.566 143.21 404.779 143.21ZM403.029 150.875C403.706 150.875 404.464 149.662 405.304 147.235V145.73L404.884 145.275H404.569C403.542 145.975 403.029 147.842 403.029 150.875Z" fill="#464646"/>
<path d="M665.06 93.715C665.433 93.715 665.772 94.0767 666.075 94.8C666.075 95.36 665.223 95.8267 663.52 96.2C661.373 97.39 659.705 99.4667 658.515 102.43C657.348 105.393 656.765 108.322 656.765 111.215C656.765 115.858 658.258 118.845 661.245 120.175L662.365 120.385C664.862 120.385 666.635 118.203 667.685 113.84L667.825 112.405C667.825 110.538 667.195 108.975 665.935 107.715H665.725C665.235 108.275 664.255 110.247 662.785 113.63L662.015 114.155C661.362 114.155 660.988 113.758 660.895 112.965C663.112 107.715 664.617 105.09 665.41 105.09H665.62C668.467 106.747 669.89 109.185 669.89 112.405C669.89 116.045 668.397 119.078 665.41 121.505C664.92 121.925 663.928 122.24 662.435 122.45C659.612 122.45 657.278 120.408 655.435 116.325C654.945 114.575 654.7 112.977 654.7 111.53V111.005C654.7 106.012 656.298 101.298 659.495 96.865C661.572 94.765 663.427 93.715 665.06 93.715ZM682.086 99.28H682.436C683.09 99.28 683.463 99.665 683.556 100.435C683.556 101.112 682.635 101.45 680.791 101.45C677.828 102.57 675.833 104.203 674.806 106.35L674.561 107.365V107.575C674.561 108.602 675.25 109.115 676.626 109.115L680.476 108.905C683.066 108.905 684.816 110.165 685.726 112.685L685.936 113.91C685.936 116.337 683.976 118.553 680.056 120.56C678.89 120.887 677.863 121.108 676.976 121.225C674.596 121.225 672.916 119.883 671.936 117.2C671.656 116.29 671.516 115.368 671.516 114.435C671.516 114.155 671.738 113.863 672.181 113.56H672.601C673.325 113.56 673.686 114.482 673.686 116.325C674.293 118.145 675.25 119.055 676.556 119.055H677.501C679.391 119.055 681.258 117.958 683.101 115.765C683.591 115.065 683.836 114.307 683.836 113.49C683.836 112.347 682.938 111.542 681.141 111.075H681.001L676.416 111.18C673.873 110.877 672.601 109.827 672.601 108.03L672.461 107.575C672.461 105.172 674.258 102.838 677.851 100.575C679.415 99.7117 680.826 99.28 682.086 99.28ZM694.689 99.21L695.564 98.93C696.357 98.93 696.754 99.98 696.754 102.08L697.839 110.165L697.979 110.305L702.004 108.835C702.541 108.835 702.832 109.243 702.879 110.06C702.879 110.667 701.397 111.402 698.434 112.265L698.294 112.335V112.475C698.294 112.965 699.064 115.52 700.604 120.14V120.21C700.604 120.653 700.242 121.027 699.519 121.33C698.842 121.33 698.399 120.525 698.189 118.915C697.652 117.748 696.999 115.823 696.229 113.14H696.089C693.032 113.77 691.504 114.307 691.504 114.75C689.824 118.39 688.552 120.21 687.689 120.21C687.199 120.21 686.907 119.895 686.814 119.265C686.814 118.705 687.432 117.608 688.669 115.975L689.229 114.75H688.354L687.689 114.89C686.826 114.68 686.394 114.237 686.394 113.56C686.744 112.743 687.257 112.335 687.934 112.335L688.809 112.685C690.116 112.685 690.769 112.207 690.769 111.25C691.959 108.45 693.266 104.437 694.689 99.21ZM695.004 105.58L692.939 111.81C694.852 111.437 695.809 111.075 695.809 110.725C695.459 107.295 695.191 105.58 695.004 105.58ZM710.393 97.005H710.953C714.756 97.005 717.195 98.3817 718.268 101.135L718.373 102.255V102.605C718.373 105.312 716.728 107.82 713.438 110.13C712.645 110.363 712.248 110.62 712.248 110.9C713.181 114.47 713.648 117.387 713.648 119.65V120.105C713.648 121.038 713.263 121.505 712.493 121.505C711.91 121.435 711.618 121.143 711.618 120.63V119.755C711.618 117.072 711.128 114.155 710.148 111.005C708.258 110.842 707.208 110.328 706.998 109.465V109.255C706.998 108.835 707.325 108.508 707.978 108.275L709.518 108.8V108.73C708.725 105.277 708.328 102.943 708.328 101.73C708.328 101.053 708.725 100.715 709.518 100.715C710.241 100.715 710.603 101.952 710.603 104.425L711.618 108.59C713.298 108.03 714.605 106.933 715.538 105.3C716.028 104.367 716.273 103.538 716.273 102.815V102.36C716.273 100.447 714.64 99.3617 711.373 99.105H709.938C706.741 99.455 705.143 100.213 705.143 101.38V101.59C705.143 101.94 705.33 102.488 705.703 103.235C705.703 103.748 705.295 104.075 704.478 104.215C703.545 103.772 703.078 102.862 703.078 101.485C703.078 98.9183 705.516 97.425 710.393 97.005Z" fill="#464646"/>
<path d="M995 104C995 98.6904 995 93.4111 995 88" stroke="#464646" stroke-width="3" stroke-linecap="round"/>
<path d="M964.677 98.4955C964.309 93.7055 964.746 88.8815 964.372 83.9999" stroke="#464646" stroke-width="3" stroke-linecap="round"/>
<path d="M938 108C938.578 108.653 938.881 109.924 939.117 110.766C940.237 114.759 942.717 118.207 945.06 121.554C951.851 131.255 961.571 138.994 972.899 142.479C977.64 143.937 982.921 144.462 987.832 143.543C990.009 143.136 992.151 142.753 994.188 141.87C995.774 141.182 997.162 140.119 998.697 139.311C1001.9 137.627 1004.74 134.732 1007.25 132.147C1008.38 130.981 1009.04 129.389 1009.96 128.054C1010.34 127.51 1011.17 126.784 1010.97 126.173" stroke="#464646" stroke-width="3" stroke-linecap="round"/>
</svg>
