<svg height="512" width="462" xmlns="http://www.w3.org/2000/svg"><path d="m355.0114136 174.6519165-124.1871338 71.7220459-124.1940308-71.7183228 124.1939697-68.3209229zm-113.1994019 90.7821045v131.1519165l123.7680664-68.0667725v-134.5657959zm-225.6325073 130.3098755 203.6325073 115.1856079v-89.2358398l-127.3225097-70.0213013zm203.6325073.842041v-131.166626l-123.7680664-71.472168v134.5722656zm22-395.5151367v86.1991577l135.4661865 74.5221558 73.5410767-42.4723511zm127.3435669 350.5897217-127.3435669 70.0331421v89.2357788l203.6576538-115.1998291zm18.4244995-170.4129639v155.6484985l74.0437622 42.7579956v-241.1694946zm-303.2180176-19.4511719 135.4499512-74.5130005v-86.2126465l-209.0068359 118.2487183zm-10.3181152 175.1235352v-155.677063l-74.0439453-42.7580567v241.197937z"/></svg>